<?xml version="1.0" encoding="UTF-8"?><svg id="logo" xmlns="http://www.w3.org/2000/svg" xmlns:xlink="http://www.w3.org/1999/xlink" viewBox="0 0 932.14 905.6"><defs><linearGradient id="linear-gradient" x1="329.88" y1="631.45" x2="329.88" y2="343.37" gradientTransform="translate(13.02 -12.63) rotate(1.57)" gradientUnits="userSpaceOnUse"><stop offset="0" stop-color="#df5c8d"/><stop offset="1" stop-color="#f2c220"/></linearGradient><linearGradient id="linear-gradient-2" x1="488.64" y1="602.8" x2="488.64" y2="308.8" gradientTransform="translate(13.02 -12.63) rotate(1.57)" gradientUnits="userSpaceOnUse"><stop offset="0" stop-color="#5facd3"/><stop offset="1" stop-color="#4fb991"/></linearGradient><radialGradient id="radial-gradient" cx="-2876.92" cy="-280.33" fx="-2829.3" fy="-496.53" r="782.13" gradientTransform="translate(992.6 509.52) rotate(1.69) scale(.19 .11)" gradientUnits="userSpaceOnUse"><stop offset=".06" stop-color="#b9babe"/><stop offset=".74" stop-color="#97999c"/><stop offset=".83" stop-color="#95979a"/><stop offset=".88" stop-color="#8d8f91"/><stop offset=".93" stop-color="#808283"/><stop offset=".97" stop-color="#6d6e70"/><stop offset="1" stop-color="#555657"/></radialGradient><radialGradient id="radial-gradient-2" cx="-2777.79" cy="-34.47" fx="-2777.79" fy="-34.47" r="19.74" gradientTransform="translate(994.56 442.82) rotate(1.69) scale(.19)" gradientUnits="userSpaceOnUse"><stop offset=".03" stop-color="#6da5c1"/><stop offset=".28" stop-color="#6da5c1"/><stop offset=".36" stop-color="#73adcb"/><stop offset=".49" stop-color="#7dbbda"/><stop offset=".66" stop-color="#80c0e1"/><stop offset=".96" stop-color="#81c3e4"/></radialGradient><radialGradient id="radial-gradient-3" cx="-1302.95" cy="-614.42" fx="-1302.95" fy="-614.42" r="276.83" gradientTransform="translate(824.02 483.82) rotate(-42.02) scale(.19 .37)" gradientUnits="userSpaceOnUse"><stop offset="0" stop-color="#cbb482"/><stop offset=".12" stop-color="#c6ad79"/><stop offset=".31" stop-color="#bb9d5f"/><stop offset=".55" stop-color="#a98637"/><stop offset=".83" stop-color="#8f6828"/><stop offset=".83" stop-color="#8f6828"/></radialGradient><radialGradient id="radial-gradient-4" cx="-3503.71" cy="177.56" fx="-3503.71" fy="177.56" r="75.13" gradientTransform="translate(994.56 442.82) rotate(1.69) scale(.19)" xlink:href="#radial-gradient-3"/><radialGradient id="radial-gradient-5" cx="-3479.23" cy="12.58" fx="-3479.23" fy="12.58" r="61.58" gradientTransform="translate(994.56 442.82) rotate(1.69) scale(.19)" xlink:href="#radial-gradient-3"/><radialGradient id="radial-gradient-6" cx="-2159.11" cy="-248.28" fx="-2159.11" fy="-248.28" r="116.7" gradientTransform="translate(994.56 442.82) rotate(1.69) scale(.19)" gradientUnits="userSpaceOnUse"><stop offset=".38" stop-color="#7eaa72"/><stop offset=".77" stop-color="#8bbe7f"/><stop offset=".93" stop-color="#7ba870"/></radialGradient><radialGradient id="radial-gradient-7" cx="-4011.61" cy="2618.5" fx="-4011.61" fy="2618.5" r="117.62" gradientTransform="translate(876.07 797.35) rotate(1.69) scale(.19 -.19)" xlink:href="#radial-gradient-6"/><radialGradient id="radial-gradient-8" cx="-3650.77" cy="3336.91" fx="-3650.77" fy="3336.91" r="157.47" gradientTransform="translate(876.07 797.35) rotate(1.69) scale(.19 -.19)" xlink:href="#radial-gradient-6"/><radialGradient id="radial-gradient-9" cx="-2373.84" cy="-119.64" fx="-2373.84" fy="-235.46" r="117.2" gradientTransform="translate(994.56 442.82) rotate(1.69) scale(.19)" gradientUnits="userSpaceOnUse"><stop offset="0" stop-color="#cdb859"/><stop offset=".11" stop-color="#c9b457"/><stop offset=".17" stop-color="#c4b155"/><stop offset=".21" stop-color="#d1bd5a"/><stop offset=".28" stop-color="#e5cf64"/><stop offset=".36" stop-color="#f3dc6b"/><stop offset=".46" stop-color="#fbe36d"/><stop offset=".63" stop-color="#fde56f"/><stop offset=".86" stop-color="#f3dc6b"/><stop offset="1" stop-color="#ead466"/><stop offset="1" stop-color="#ecd667"/></radialGradient><radialGradient id="radial-gradient-10" cx="-2503.49" cy="328.92" fx="-2503.49" fy="328.92" r="212.11" gradientTransform="translate(994.56 442.82) rotate(1.69) scale(.19)" gradientUnits="userSpaceOnUse"><stop offset=".06" stop-color="#b9babe"/><stop offset=".72" stop-color="#97999c"/><stop offset=".93" stop-color="#848689"/></radialGradient><radialGradient id="radial-gradient-11" cx="-2002.15" cy="120.72" fx="-2002.15" fy="247.11" r="127.83" gradientTransform="translate(994.56 442.82) rotate(1.69) scale(.19)" gradientUnits="userSpaceOnUse"><stop offset=".13" stop-color="#1164a1"/><stop offset=".47" stop-color="#084c7d"/><stop offset=".67" stop-color="#0f3f65"/><stop offset=".99" stop-color="#0e3b5e"/></radialGradient><radialGradient id="radial-gradient-12" cx="-4352.47" cy="3396.48" fx="-4352.47" fy="3396.48" r="168.28" gradientTransform="translate(876.07 797.35) rotate(1.69) scale(.19 -.19)" xlink:href="#radial-gradient-10"/><radialGradient id="radial-gradient-13" cx="-4654.02" cy="3434.12" fx="-4654.02" fy="3434.12" r="145.7" gradientTransform="translate(876.07 797.35) rotate(1.69) scale(.19 -.19)" xlink:href="#radial-gradient-10"/><radialGradient id="radial-gradient-14" cx="-4962.7" cy="3317.87" fx="-4962.7" fy="3317.87" r="116.55" gradientTransform="translate(876.07 797.35) rotate(1.69) scale(.19 -.19)" xlink:href="#radial-gradient-10"/><radialGradient id="radial-gradient-15" cx="-2557.61" cy="-199.24" fx="-2557.61" fy="-168.84" r="67.21" gradientTransform="translate(994.56 442.82) rotate(1.69) scale(.19)" gradientUnits="userSpaceOnUse"><stop offset=".07" stop-color="#cdb859"/><stop offset=".15" stop-color="#c9b457"/><stop offset=".19" stop-color="#c4b155"/><stop offset=".21" stop-color="#d1bd5a"/><stop offset=".25" stop-color="#e5cf64"/><stop offset=".29" stop-color="#f3dc6b"/><stop offset=".34" stop-color="#fbe36d"/><stop offset=".43" stop-color="#fde56f"/><stop offset=".78" stop-color="#f3dc6b"/><stop offset="1" stop-color="#ead466"/><stop offset="1" stop-color="#ecd667"/></radialGradient><radialGradient id="radial-gradient-16" cx="-5079.63" cy="3165.13" fx="-5079.63" fy="3165.13" r="85.83" gradientTransform="translate(876.07 797.35) rotate(1.69) scale(.19 -.19)" xlink:href="#radial-gradient-10"/><radialGradient id="radial-gradient-17" cx="-2186.31" cy="-92.02" fx="-2186.31" fy="-92.02" r="40.18" gradientTransform="translate(994.56 442.82) rotate(1.69) scale(.19)" gradientUnits="userSpaceOnUse"><stop offset=".06" stop-color="#7a749f"/><stop offset=".18" stop-color="#7b77a3"/><stop offset=".19" stop-color="#7c78a4"/><stop offset=".27" stop-color="#827eac"/><stop offset=".43" stop-color="#8580ae"/><stop offset=".79" stop-color="#8c86b7"/><stop offset=".99" stop-color="#938dc0"/><stop offset=".99" stop-color="#78749e"/></radialGradient><radialGradient id="radial-gradient-18" cx="-2710.94" cy="28.22" fx="-2710.94" fy="28.22" r="40.06" gradientTransform="translate(994.56 442.82) rotate(1.69) scale(.19)" gradientUnits="userSpaceOnUse"><stop offset=".03" stop-color="#81c4e5"/><stop offset=".25" stop-color="#81c6e8"/><stop offset=".28" stop-color="#83c8e9"/><stop offset=".4" stop-color="#89cef1"/><stop offset=".6" stop-color="#8fd4f5"/><stop offset=".96" stop-color="#93d6f6"/></radialGradient><radialGradient id="radial-gradient-19" cx="-4213.71" cy="2901.64" fx="-4213.71" fy="2901.64" r="40.39" gradientTransform="translate(876.07 797.35) rotate(1.69) scale(.19 -.19)" xlink:href="#radial-gradient-2"/><radialGradient id="radial-gradient-20" cx="-4367.8" cy="2879.31" fx="-4367.8" fy="2879.31" r="39.89" gradientTransform="translate(876.07 797.35) rotate(1.69) scale(.19 -.19)" xlink:href="#radial-gradient-18"/><radialGradient id="radial-gradient-21" cx="-4287.38" cy="2843.96" fx="-4287.38" fy="2843.96" r="40.24" gradientTransform="translate(876.07 797.35) rotate(1.69) scale(.19 -.19)" xlink:href="#radial-gradient-2"/><radialGradient id="radial-gradient-22" cx="-4370.85" cy="2965.1" fx="-4370.85" fy="2965.1" r="40.8" gradientTransform="translate(876.07 797.35) rotate(1.69) scale(.19 -.19)" xlink:href="#radial-gradient-18"/><radialGradient id="radial-gradient-23" cx="-4289.6" cy="2923.22" fx="-4289.6" fy="2923.22" r="41.18" gradientTransform="translate(876.07 797.35) rotate(1.69) scale(.19 -.19)" xlink:href="#radial-gradient-2"/><radialGradient id="radial-gradient-24" cx="-3718.94" cy="2901.39" fx="-3718.94" fy="2901.39" r="39.85" gradientTransform="translate(876.07 797.35) rotate(1.69) scale(.19 -.19)" xlink:href="#radial-gradient-17"/><radialGradient id="radial-gradient-25" cx="-3634.21" cy="2919.2" fx="-3634.21" fy="2919.2" r="39.66" gradientTransform="translate(876.07 797.35) rotate(1.69) scale(.19 -.19)" xlink:href="#radial-gradient-17"/><radialGradient id="radial-gradient-26" cx="-3680" cy="2830.06" fx="-3680" fy="2830.06" r="40.5" gradientTransform="translate(876.07 797.35) rotate(1.69) scale(.19 -.19)" xlink:href="#radial-gradient-17"/><radialGradient id="radial-gradient-27" cx="-4282.51" cy="2857.04" fx="-4282.51" fy="2857.04" r="39.51" gradientTransform="translate(876.07 797.35) rotate(1.69) scale(.19 -.19)" xlink:href="#radial-gradient-18"/><radialGradient id="radial-gradient-28" cx="-4205.03" cy="2821.32" fx="-4205.03" fy="2821.32" r="39.91" gradientTransform="translate(876.07 797.35) rotate(1.69) scale(.19 -.19)" xlink:href="#radial-gradient-2"/><radialGradient id="radial-gradient-29" cx="-4377.78" cy="3045.87" fx="-4377.78" fy="3045.87" r="37.99" gradientTransform="translate(876.07 797.35) rotate(1.69) scale(.19 -.19)" xlink:href="#radial-gradient-18"/><radialGradient id="radial-gradient-30" cx="-4295.86" cy="2994.75" fx="-4295.86" fy="2994.75" r="38.36" gradientTransform="translate(876.07 797.35) rotate(1.69) scale(.19 -.19)" xlink:href="#radial-gradient-2"/><radialGradient id="radial-gradient-31" cx="-2223.71" cy="-22.16" fx="-2223.71" fy="-22.16" r="46.37" gradientTransform="translate(994.56 442.82) rotate(1.69) scale(.19)" gradientUnits="userSpaceOnUse"><stop offset="0" stop-color="#fde470"/><stop offset="0" stop-color="#fde470"/><stop offset=".63" stop-color="#fde56f"/><stop offset=".99" stop-color="#fde571"/><stop offset="1" stop-color="#c4b155"/><stop offset="1" stop-color="#d2bd5a"/><stop offset="1" stop-color="#deca62"/><stop offset="1" stop-color="#e7d165"/><stop offset="1" stop-color="#ead466"/></radialGradient><radialGradient id="radial-gradient-32" cx="-3701.89" cy="2985.85" fx="-3701.89" fy="2985.85" r="39.01" gradientTransform="translate(876.07 797.35) rotate(1.69) scale(.19 -.19)" xlink:href="#radial-gradient-17"/><radialGradient id="radial-gradient-33" cx="-3552.75" cy="2888.98" fx="-3552.75" fy="2888.98" r="36.58" gradientTransform="translate(876.07 797.35) rotate(1.69) scale(.19 -.19)" xlink:href="#radial-gradient-17"/><radialGradient id="radial-gradient-34" cx="-5086.78" cy="3000.96" fx="-5086.78" fy="3000.96" r="60.9" gradientTransform="translate(876.07 797.35) rotate(1.69) scale(.19 -.19)" xlink:href="#radial-gradient-10"/><radialGradient id="radial-gradient-35" cx="-4298.72" cy="3020.71" fx="-4298.72" fy="3020.71" r="38.82" gradientTransform="translate(876.07 797.35) rotate(1.69) scale(.19 -.19)" xlink:href="#radial-gradient-18"/><radialGradient id="radial-gradient-36" cx="-4220.79" cy="2970.79" fx="-4220.79" fy="2970.79" r="39.33" gradientTransform="translate(876.07 797.35) rotate(1.69) scale(.19 -.19)" xlink:href="#radial-gradient-2"/><radialGradient id="radial-gradient-37" cx="-4216.16" cy="2915.43" fx="-4216.16" fy="2915.43" r="36.58" gradientTransform="translate(876.07 797.35) rotate(1.69) scale(.19 -.19)" xlink:href="#radial-gradient-18"/><radialGradient id="radial-gradient-38" cx="-4116.94" cy="2875.35" fx="-4116.94" fy="2875.35" r="36.87" gradientTransform="translate(876.07 797.35) rotate(1.69) scale(.19 -.19)" xlink:href="#radial-gradient-2"/><radialGradient id="radial-gradient-39" cx="-3595.96" cy="2836.03" fx="-3595.96" fy="2836.03" r="43.13" gradientTransform="translate(876.07 797.35) rotate(1.69) scale(.19 -.19)" xlink:href="#radial-gradient-17"/><radialGradient id="radial-gradient-40" cx="-4228.87" cy="2990.95" fx="-4228.87" fy="2990.95" r="33.19" gradientTransform="translate(876.07 797.35) rotate(1.69) scale(.19 -.19)" xlink:href="#radial-gradient-18"/><radialGradient id="radial-gradient-41" cx="-4088.97" cy="2944.82" fx="-4088.97" fy="2944.82" r="33.45" gradientTransform="translate(876.07 797.35) rotate(1.69) scale(.19 -.19)" xlink:href="#radial-gradient-2"/><radialGradient id="radial-gradient-42" cx="-4328.26" cy="3107.31" fx="-4328.26" fy="3107.31" r="30.72" gradientTransform="translate(876.07 797.35) rotate(1.69) scale(.19 -.19)" xlink:href="#radial-gradient-18"/><radialGradient id="radial-gradient-43" cx="-4177.29" cy="3046.53" fx="-4177.29" fy="3046.53" r="30.74" gradientTransform="translate(876.07 797.35) rotate(1.69) scale(.19 -.19)" xlink:href="#radial-gradient-2"/><radialGradient id="radial-gradient-44" cx="-3761.46" cy="2955.09" fx="-3761.46" fy="2955.09" r="22.88" gradientTransform="translate(876.07 797.35) rotate(1.69) scale(.19 -.19)" xlink:href="#radial-gradient-17"/><radialGradient id="radial-gradient-45" cx="-4216.31" cy="2821.11" fx="-4216.31" fy="2821.11" r="28.4" gradientTransform="translate(876.07 797.35) rotate(1.69) scale(.19 -.19)" xlink:href="#radial-gradient-18"/><radialGradient id="radial-gradient-46" cx="-4105.85" cy="2777.91" fx="-4105.85" fy="2777.91" r="28.74" gradientTransform="translate(876.07 797.35) rotate(1.69) scale(.19 -.19)" xlink:href="#radial-gradient-2"/><radialGradient id="radial-gradient-47" cx="-4996.8" cy="2870.59" fx="-4996.8" fy="2870.59" r="26.99" gradientTransform="translate(876.07 797.35) rotate(1.69) scale(.19 -.19)" xlink:href="#radial-gradient-10"/><radialGradient id="radial-gradient-48" cx="-3628.01" cy="2865.49" fx="-3628.01" fy="2865.49" r="24.28" gradientTransform="translate(876.07 797.35) rotate(1.69) scale(.19 -.19)" xlink:href="#radial-gradient-17"/><radialGradient id="radial-gradient-49" cx="-4316.5" cy="2895.94" fx="-4316.5" fy="2895.94" r="8.75" gradientTransform="translate(876.07 797.35) rotate(1.69) scale(.19 -.19)" xlink:href="#radial-gradient-18"/><radialGradient id="radial-gradient-50" cx="-2344.76" cy="2959.26" fx="-2344.76" fy="2959.26" r="544.53" gradientTransform="translate(1035.54 467.24) rotate(28.03) scale(.19 .07)" gradientUnits="userSpaceOnUse"><stop offset="0" stop-color="#b9babe"/><stop offset=".32" stop-color="#818386"/><stop offset=".58" stop-color="#5d5e60"/><stop offset=".72" stop-color="#4f5152"/><stop offset=".77" stop-color="#4a4b4c"/><stop offset=".83" stop-color="#3a3b3c"/><stop offset=".9" stop-color="#212223"/><stop offset=".97" stop-color="#000"/></radialGradient><radialGradient id="radial-gradient-51" cx="-4263.66" cy="2983.45" fx="-4263.66" fy="2983.45" r="8.3" gradientTransform="translate(876.07 797.35) rotate(1.69) scale(.19 -.19)" xlink:href="#radial-gradient-18"/><radialGradient id="radial-gradient-52" cx="-2672.02" cy="933.38" fx="-2672.02" fy="933.38" r="5.79" gradientTransform="translate(994.56 442.82) rotate(1.69) scale(.19)" gradientUnits="userSpaceOnUse"><stop offset=".26" stop-color="#000"/><stop offset=".42" stop-color="#050505"/><stop offset=".5" stop-color="#0b0b0b"/><stop offset=".95" stop-color="#000"/><stop offset=".98" stop-color="#000"/></radialGradient></defs><g id="new_logo"><rect x="297" y="320.66" width="191.05" height="292.12" rx="24.72" ry="24.72" transform="translate(-113.69 126.64) rotate(-16.04)" fill="#fff" stroke="#000" stroke-linecap="round" stroke-miterlimit="10" stroke-width="3.81"/><rect x="297.05" y="320.61" width="191.65" height="293.04" rx="24.8" ry="24.8" transform="translate(-116.59 130.97) rotate(-16.52)" fill="#fff" stroke="#000" stroke-linecap="round" stroke-miterlimit="10" stroke-width="4.37"/><path d="M392.46,619.93l-25.62,7.6c-13.13,3.89-26.93-3.59-30.82-16.73l-69.21-233.4c-3.89-13.13,3.59-26.93,16.73-30.82l25.62-7.6" fill="url(#linear-gradient)" stroke="#000" stroke-linecap="round" stroke-miterlimit="10" stroke-width="4.37"/><rect x="460.27" y="322.58" width="191.82" height="293.29" rx="24.8" ry="24.8" transform="translate(110.01 -105.61) rotate(12.03)" fill="#fff" stroke="#000" stroke-linecap="round" stroke-miterlimit="10" stroke-width="4.37"/><path d="M481.46,603.23l-26.01-5.55c-13.39-2.85-21.86-16.6-19.01-29.99l50.74-238.1c2.85-13.39,16.03-21.94,29.42-19.09l26.13,5.91" fill="url(#linear-gradient-2)" stroke="#000" stroke-linecap="round" stroke-miterlimit="10" stroke-width="4.37"/><path d="M588.66,531.47c1.84-1.86,4.39-.32,5.96,1.77,1.57,2.09.83,4.9.09,7.4-.98,3.31-2.87,6.08-5.95,4.91-.85-1.05.21-2.43,1.38-3.1,1.25-.71,2.54.64,2.9.86.08.05.14.1.21.17.46.44.85.66,2.98,3.1,1.16,1.33,1.43,3.45,3,4.27,1.28.66,2.83.38,4.22.03,1.5-.38,3.06-.87,4.08-2.02.9-1.01,1.18-2.66.34-3.79-.65-.88-1.85,0-2.29.65-.51.75-.76,1.68-.91,2.57-.38,2.42-.68,4.89-.27,7.31.4,2.42,1.58,4.79,3.62,6.16M592.92,523.27c-.45,1.74-1.23,3.4-2.27,4.86-.32.44-.68.91-.72,1.47s.41,1.16.95,1.06M589.61,529.08c-1.97,1.68-3.55,3.81-4.62,6.16,1.74-2.43,3.48-4.85,5.23-7.28-.85,1.41-1.69,2.82-2.54,4.23.8-.73,1.36-1.73,1.6-2.79l.63-.29M590.43,530.31c.2-.96.39-1.92.6-2.88-.42,1.07-1.32,1.94-1.34,3.09M590.02,529.62l.19-.82M589.7,530.11c.53-2.27,1.24-4.5,2.11-6.66.36.38.02.99-.29,1.41-1.09,1.49-1.8,3.26-2.05,5.09M589.47,529c-1.79,2.49-3.35,5.15-4.63,7.94.55-1.84,1.63-3.54,3.07-4.81M592.67,522.73c-1.22,1.2-1.42,3.03-1.44,4.74-.03,1.66-1.19,2.96,1.95,4.7-.82-1.32-1.54-2.76-1.78-4.3s.04-3.21,1.01-4.44c-1.04,2.62-4.5,5.7-3.29,8.23,1.64-.08,2.15.75,2.3-.43.24-1.77.44-6.55,1.15-8.19M593.97,519.02c-1.16,1.84-2.13,3.83-2.57,5.96s-.31,4.42.65,6.37c-.68-2.54-.25-5.24.19-7.84.08-.5.18-1.02.49-1.41M593.79,519.45c-2.78,3.42-3.53,8.93-1.77,12.97-.39-.26-.39-1.29-.41-1.76-.09-2.5.99-5.11.9-7.41M589.36,530.25c-1.61.69-2.66,2.26-3.6,3.74-1.15,1.8-2.29,3.59-3.44,5.38.73-1.51,2.22-2.63,2.57-4.27M583.54,539.2c.85-.92,1.5-2,2.15-3.06.8-1.33,1.6-2.64,2.39-3.97M592.92,545.06c.8-.94,1.37-2.22,1.23-2.01.74-2.42.91-4.9.35-7.26-.2-.86-.55-1.72-1.19-2.33-.98-.95-2.45-1.14-3.8-1.28-.81-.08-1.9,1.06-2.61,1.93,2.45-2.3,7.68-2.85,8.26,2.68-1.01-1.89-3.44-6.52-5.25-5.54-1.28.69-2.87,1.42-3.79,2.55M591.65,521.94c-.2,1.38-.36,2.77-.28,4.16.14,2.29,1.86,5.31,3.24,7.15M595.16,518.57c-1.57,2.59-2.93,5.3-4.05,8.11M592.63,523.07c1.51-2.88,2.86-5.85,4.02-8.89M592.67,523.52c.74-1.17,1.47-2.35,2.18-3.55-.09.17-.16.33-.25.5.27-.41.53-.82.79-1.23-1.15,1.31-2.14,2.76-2.91,4.31,1.07-1.65,2.11-3.31,3.12-5.01-1.43,2.33-2.93,4.61-4.49,6.86,1.73-2.7,3.37-5.44,4.92-8.23-2.2,2.63-3.92,5.66-5.05,8.89.93-3.21,2.55-6.22,4.73-8.75-1.77,2.37-3.2,5-4.2,7.77,1.4-2.87,2.82-5.78,4.92-8.18-.45.19-.75.63-1.02,1.04-1.72,2.65-3.24,5.44-4.55,8.32,2.22-3.43,3.07-7.73,5.83-10.74-2.33,3.72-4.37,7.62-6.09,11.66,1.3-2.75,2.6-5.51,3.9-8.26l-4.04,6.54M609.53,562.17h-.5M608.68,562.03c.35.19.8.18,1.14-.05-.6.33-1.41.23-1.91-.24.46.36,1.04.56,1.62.55M609.99,562.28l-1.84-.52c.28.31.75.44,1.14.32M610.08,561.99l1-.17M593.59,522.15c.85-.77,1.41-1.64,1.87-2.59.61-.55,1.24-1.11,1.98-1.47-.88.39-1.63,1.05-2.14,1.87.7-.83.77-2.21,1.46-3.04-.7.37-.65,1.51-.97,2.22l1.71-2.1M581.98,540.82c.43-.38.87-.77,1.3-1.14.17-.16.35-.31.45-.53.17-.41.06-1.03.47-1.19-.81.98-1.6,1.98-2.37,3M581.38,541.23c1.17-.92,2.22-2.01,3.09-3.22M594.44,521.48c-2.01,3.29-2.22,8.62-.7,11.96M591.86,525.81c.36,2.74,1.44,5.95,2.91,8.29M453.27,390.09c-1.4-1.87-1.33-4.17.28-6.44,2.85-3.45,6.2-6.26,10.16-8.34,3.96-2.08,8.38-2.45,12.51-1.24.14.04.29.09.43.14.09.02.17.06.23.12.06.07.08.16.08.26.09,1.08-.31,2.17-.96,3.04s-1.18,1.77-2.48,2.07c-1.28.74-2.72,1.27-4.2,1.31-1.45.04-2.9-.41-4.17-1.14-2.82-1.27-3.2-3.76-3.62-7.34-.04-1.55.72-2.41,1.74-3.13.95-.68,1.89-1.38,2.87-2.02.81-.54,1.67-1.02,2.59-1.32,1.02-.33,2.17-.4,3.18.03.85.36,1.65,1.08,1.03,2.04-.63.97-1.9,1.04-2.94,1.18-.86.11-1.73.19-2.59.15-1.7-.08-3.36-.65-4.41-2.08-.48-.66-.75-1.45-1.15-2.16-.49-.86-1.04-1.69-1.65-2.48-.81-1.04-1.78-2.06-3.1-2.4-1.85-.48-3.5.79-4.7,2.07-.79.84-1.37,1.88-2.14,2.73-.63.7-1.31,1.39-2.04,2-1.49,1.25-3.27,2.13-5.23,2.32M482.4,412.26c5.1-6.07,6.86-13.71,3.23-20.74-3.61-7.8-12.3-.36-18.51,1.76-3.1.67-5.44,2.14-8.86.72M483.07,408.65c.06,0,.05-.12,0-.1M482.83,409.56c2.58-3.85,4.01-8.47,4.08-13.11-.08,4.93-1.51,9.84-4.1,14.04-.47.75-1.09,1.56-1.99,1.63.69-1.54,1.74-2.92,3.05-3.99-1.61,1.04-3.21,2.09-4.83,3.12,2.19-.34,4.13-1.69,5.53-3.42s2.29-3.8,2.98-5.91l-1.64,3.94c1.32-3.32,2.65-6.91,1.83-10.39l-.11,4.68M483.92,406.12c-.51,2.17-2.15,4.03-4.23,4.83,1.47-.28,2.76-1.22,3.69-2.41s1.5-2.6,1.92-4.03c1.35-4.58,1.21-9.57-.4-14.06.97,2.27,1.49,4.73,1.5,7.2M485.18,392.03c.16-.75-.23-1.52-.76-2.08-1.06-1.11-2.64-1.6-4.17-1.61s-3.04.42-4.48.91M484.77,392.66c-.3-1.14-1.17-2.08-2.17-2.7s-2.13-.54-3.26-.9c-.44-.14-.9-.75-1.37-.76-1.44-.06-2.64,1.04-3.63,2.09M486.16,401.31c.96-1.78.61-3.98-.07-5.89-.32-.89-.71-1.79-1.3-2.53-.82-1.03-1.96-1.75-3.09-2.44-.68-.42-1.63-.64-2.41-.83-.99-.25-1.79-.3-2.78-.05-1.83.45-3.59,1.19-5.18,2.2M488.16,401.41c.13-2.53-.08-5.15-1.12-7.46-1.04-2.31-3.02-4.3-5.49-4.89-1.12-.27-2.28-.23-3.42-.11-4.01.44-7.98,2.11-10.69,5.11,2.29-1.9,4.76-3.61,7.36-5.07.87-.49,1.92-.96,2.82-.52M485.78,401.47c-.53,2.03-1.37,3.97-2.47,5.74.27-.39.59-.76.94-1.09M477.86,409.6c1.24.6,2.72-.04,3.87-.81.78-.54,1.54-1.14,2.21-1.8.47-.46.95-1.11.71-1.71M478.08,408.94c.15.54.9.55,1.44.42,2-.48,3.87-1.45,5.41-2.82M478.29,408.72c.7.57,1.75.49,2.58.13s1.56-.93,2.39-1.3c.91-.41,1.99-.6,2.61-1.38M478.32,408.89c1.54.34,3.13-.27,4.47-1.12s2.5-1.92,3.89-2.67M478.51,408.79c.24.39.83.18,1.22-.06.73-.45,1.45-.9,2.18-1.34,1.41-.88,2.84-1.75,4.05-2.89M480.9,407.93c-.59.63-1.63.37-2.45.61-.74.21-1.32.83-2.05,1.08-.72.26-1.58.15-2.18.61-.26.19-.44.46-.61.73-.97,1.51-1.79,3.1-2.47,4.75M478.52,408.3c-.28.3-.76.2-1.17.2-.6,0-1.16.27-1.69.56-2.09,1.16-3.99,2.66-5.59,4.44M482.73,389.43c-1.36-1.33-3.48-1.82-5.28-1.21-.04-.19.26-.26.45-.23.83.16,1.63.45,2.35.87M481.66,389.11l-.24-.13M484.06,390.07c-.54-.97-1.57-1.6-2.63-1.91s-2.2-.32-3.32-.33c-.48,0-.99,0-1.41.24,2-.53,4.08.37,5.96,1.25M463.54,393.79c1.07.56,4.06.23,4.67-1M461.47,394.73c1.02.18,2.07.35,3.09.21s2.06-.65,2.58-1.56M456.64,394.57c.31.17.68.2,1.03.21,2.72.09,5.45-.09,8.13-.56M464.52,395.04c-.02.23.28.34.5.26s.36-.26.56-.36c.2-.11.44-.13.66-.21.83-.31,1.21-1.52,2.1-1.51M466.15,394.5c.5.95,2.74-1.73,3.06-2.11M453.9,391.5c.81.32,1.11,1.29,1.73,1.91,1.24,1.25,3.36.81,4.96,1.52M456.94,393.78c1.16.84,3.46,1.49,4.87,1.6M452.73,384.39c-1.14,1.72-.34,1.11-.54,1.65-.41,1.14,0,2.4.46,3.53.37.91.76,1.81,1.19,2.69M457.05,380.42c.09-.17-.49.63-.69.63s-.36.13-.51.25c-.84.7-1.57,1.53-2.18,2.44M458.33,379.06c-1.75,1.32-3.98,3.01-5.23,4.85M461.52,377.6c-1.14.27-2.23.77-3.18,1.46-1.31.95-2.35,2.21-3.38,3.47M455.25,381.87c-1.44,1.81-2.26,4.1-2.34,6.41-.02.66.02,1.33.22,1.96.37,1.18,1.28,2.13,2.26,2.9,1.55,1.23,3.51,2.15,5.47,1.85M452.06,385.67c-.56,1.52-.21,3.25.55,4.69,1.45,2.76,4.45,4.65,7.57,4.77,1.35.05,2.69-.2,4.01-.45l2.63-.5M460.95,394.15c3.32.3,7.08-.83,9.82-2.68,1.61-1.08,4.34-4.08,6.48-3.43M482.16,389.7c-1.68-1.03-3.83-1.1-5.75-.62s-3.67,1.45-5.4,2.41l-5.27,2.94M485.16,391.79c.21-.3.17-.72,0-1.06s-.46-.58-.73-.82c-.96-.84-1.97-1.71-3.21-1.98-.42-.1-.84-.12-1.26-.2-.39-.08-.77-.21-1.16-.27-1.45-.22-2.88.52-4.05,1.43M476.15,389.21c-.73.86-1.92,1.12-3.02,1.4-2.06.52-4.06,1.27-5.94,2.25-.44.23-.88.48-1.24.82-.24.24-.43.52-.69.73-.46.39-1.1.55-1.69.42M455.04,393.23c.98.98,3.24,2.9,4.67,2.74,1.05-.12,4.14-.29,4.81-.58.19-.09.84-.46,1.04-.47.38.01,1.84-1.08,2.12-1.33.43-.4-2.58.83-2.39.27M461.15,394.23c1.15.59,2.46.28,3.61-.15M472.5,380.49c2.1-.75,4-2.01,5.53-3.64-.82,1.97-2.76,3.32-4.82,3.85s-4.25.37-6.34-.01c-1.02-.18-2.04-.42-2.98-.85-.55-.26-1.13-.66-1.17-1.27,3.34,1.89,7.4,2.48,11.15,1.61,1.22-.28,2.43-.73,3.33-1.59.89-.83,1.41-2.18.94-3.3-.23-.55-.68-1-1.19-1.32-1-.64-2.22-.87-3.4-.95-3.73-.23-7.46.89-10.72,2.73s-6.05,4.39-8.58,7.15M462.77,369.44c-1.67,1.58-1.86,3.54-1.25,6.95M461.09,394.17c2.14,0,4.29-.46,6.24-1.34.81-.37,1.59-.81,2.37-1.24,2.4-1.35,4.8-2.71,7.21-4.06M463.85,393.96c4.92-.59,9.57-2.69,13.15-6.12M460.86,377.78c-.21.24-.38-.27.02-.57.06-.05-.25.08-.23.15,1.14,1.11,1.62,1.63,2.6,2.13-.16-.09-.61-.63-.77-.72M467.66,365.72c-1.43.38-2.67,1.71-3.82,2.41-.55.34-1.1.69-1.52,1.18s-.76,1.28-1.04,2.09M473.19,366.48c-.24-.47-.49-.94-.97-1.02-.23-.04-.47-.03-.7-.02-2.42.13-4.79.87-6.87,2.13-.56.34-1.11.72-1.47,1.25M463.82,369.17c.7.58,1.59.94,2.5,1.03.41.03.66-.36,1.06-.4M466.72,370.11c1.4-.1,3.32-.32,4.64-.79.95-.34,1.98-.88,2.02-2.01.02-.59-.28-1.15-.74-1.52-.98-.79-2.25-.74-3.41-.49-2.52.52-4.86,1.83-6.6,3.72M463.72,394.82c-1.42-.17-3.36-.54-5.18-.39M461.71,394.12c1.67.05,3.9-.13,5.55-.53M455.94,381.43c-1.43,1.53-2.61,3.18-2.93,5.57M462.5,393.44c-.48.07-.98.1-1.46.09-.01-.01-.05-.02-.13-.02-.02,0-.05,0-.08,0h-.14c-1.5-.08-2.97-.51-4.29-1.25-.88-.62-1.73-1.33-2.14-2.35-.08-.16-.61,0-.56.13.07.18.16.34.25.51-.13.05-.23.12-.17.18.62.72,1.34,1.32,2.14,1.81-.15.04-.29.12-.23.16.26.18.53.33.8.47-.04.01-.1.03-.14.04-.05.03-.19.12-.06.16,1.43.45,2.93.6,4.43.45.04,0,.14-.04.22-.09.48,0,.97-.02,1.45-.1.07-.01.31-.05.33-.15,0-.1-.16-.08-.23-.07h0s0,.01,0,.01ZM443.75,369.07c-.4.04-1.21.07-1.93.03s-1.66-.48-1.19.05c.3.34,1.2.56,1.59.62.89.15,1.9-.36,2.14-.41.47-.1-.22-.32-.6-.28h0ZM487.77,392.88l-1.6-2.66c-.05-.09-.27-.06-.41,0-.03-.04-.05-.1-.08-.13-.1-.15-.65.01-.52.2.05.09.1.17.15.25.08.26.23.47.41.67.37.62.73,1.25,1.1,1.88.05.1.28.06.42,0h0c.1.16.63,0,.52-.2h0ZM481.6,386.77c-.83-.38-2.03-.33-2.87-.04-.38.13-.7.37-1.02.61-.38.29-.9.68-1.09,1.13-.2.49.14,1.07.32.53.5-1.49,1.48-1.83,2.91-1.43.64.18,1.25.48,1.91.61,1.22.23.48-1.1-.16-1.41h0ZM474.93,379.14c-.11-.07-.32-.05-.44-.01-1.2.35-2.42.65-3.65.91-.09.02-.29.09-.25.2,0,.01.02.02.03.03h-.01s-.06.02-.1.03c-.05.02-.12.05-.15.1-.01,0-.04,0-.05.01-.09.02-.32.1-.24.23.08.12.38.06.48.04.65-.15,1.3-.26,1.96-.39.56-.11,1.12-.27,1.62-.55.15-.03.29-.07.44-.1.09-.02.32-.1.24-.23,0,0-.01,0-.02-.02.03-.02.07-.04.1-.06.09-.05.13-.13.03-.19h0ZM474.95,373.51s-.04.04-.07.04c0,0,0,.01-.02.02-.03.03-.06.05-.1.06-.02,0-.05.01-.08.02-.06.01-.13.01-.19,0-.03,0-.07,0-.1-.01-.04,0-.09-.02-.13-.03-.04,0-.06-.02-.1-.05-.02-.02-.04-.03-.04-.06,0-.02,0-.04,0-.06,0,0,0-.01.02-.02h0s.03-.04.05-.05c0,0,.01,0,.02-.01.01,0,.04-.02.07-.03.01,0,.03,0,.04-.01.01,0,.03,0,.04-.01.06-.01.13-.01.19,0,.03,0,.07,0,.1.01.06,0,.12.03.17.05.02,0,.04.02.06.03.02.02.04.03.04.06,0,.02,0,.04,0,.06h0s.02,0,.02,0ZM461.19,394.93c-.05.05-.16.08-.23.09-.1.01-.2.02-.3,0-.02,0-.04-.02-.06-.02-.14.03-.29.03-.42-.01h0c-.08,0-.15,0-.23,0-.12,0-.24-.02-.34-.09-.08-.05-.12-.13-.04-.21.11-.11.3-.14.44-.14.09,0,.17,0,.25.04.07-.03.15-.06.24-.08.16-.02.36-.03.51.05.03.02.05.04.06.06h.02s.05.04.06.07c0,0,0,.01-.02.02,0,0,0,0,.01.01.04,0,.08.02.1.05.04.04,0,.09-.03.12h0s0,.02,0,.02ZM485.79,398.18c.01-.13-.52-.02-.56.1-.35,1-.35,2.08-.47,3.11-.06.29-.13.58-.19.87-.02.01-.04.03-.05.05l-.11.22s0,.04.03.05c-.06.22-.12.43-.18.66,0,.04.02.07.06.08-.06.12-.12.24-.19.35-.19.36-.41.7-.65,1.02-.38.52-.79,1.01-1.21,1.5-.04.03-.08.06-.12.1-.02.01-.04.03-.07.04-.13.09-.26.17-.39.25-.31.13-.63.24-.96.34-1.02.33-2.07.59-3.12.84h-.07c-.11-.01-.19,0-.21.07-.35.08-.7.17-1.04.25-.15.03-.03.17.02.23.13.11.32.16.48.16.47.01.93-.02,1.39-.08.04.02.09.02.12.02.02,0,.04,0,.06-.01h.01c.53-.07,1.04-.17,1.56-.29,1.08-.15,2.12-.51,3.08-1.06.11-.06-.1-.2-.32-.29.78-.36,1.51-.82,2.07-1.5.14-.17-.43-.44-.63-.35.03-.04.07-.09.11-.14.24-.33.45-.67.64-1.02.19-.37.44-.78.46-1.2,0-.09-.13-.15-.27-.18.1-.34.17-.69.21-1.04.21-1.02.37-2.06.47-3.1h0v-.03s.02-.01.02-.01v-.03ZM483.05,391.32c-.56-.32-1.11-.63-1.67-.95.15.08.32.14.49.1s.28-.26.18-.4c.31.06.64-.04.85-.28-1.51-.92-.3.11-2.04.39,2.33,1.35-1.16-.37-.83-.24-.24-.14-1.04-.02-1.23.17.42.08-1.71-.28-1.29-.2-1.42-.21-1.08-.38-2.38.23.15.12.36.16.54.1-.24.3-.69.41-1.04.25.22-.18.37-.44.42-.72-2.41.96-4.56,2.46-6.82,3.73-1.51.85-3.11,1.59-4.81,1.98-1.81.41-3.61.25-5.44.02-.57-.07-1.15-.14-1.66-.4-.75-.38-1.17-1.08-1.68-1.71-.61-.75-1.26-1.46-1.86-2.22-.68-.86-.93-2.11-1.28-3.13-.23-.67-.17-1.29,0-1.98.09-.33.29-.72.63-.72.07,0,.42-.68.48-.77.18-.26.36-.51.55-.75.38-.49.8-.95,1.24-1.38.44-.42.9-.81,1.39-1.18.48-.37.61-.88,1.07-1.28-.14.12.13-.19.19-.29.06-.13.18-.22.29-.3.53-.41,1.05-.82,1.58-1.23.24-.19.47-.41.73-.57.23-.15.29-.05.51.07-.14.14-.29.29-.43.43.57.19,1.21.06,1.75-.22.54-.27.8-.82,1.28-1.19,1.8-1.37,4.11-2.13,6.25-2.85-.1-.19-.37-.16-.58-.11-1.3.32-2.56.76-3.78,1.3-.62.28-1.23.58-1.82.91-.3.16-.59.33-.88.51-.17.11-.38.25-.58.28-1.01.18-.5-4.21-.4-4.82.13-.74.39-1.46.77-2.1.11-.19.47-.9.7-.94.16-.03.27.12.41.16.19.05.4.03.58-.06-.25-.24-.43-.55-.51-.88,0-.03-.02-.07,0-.1.01-.03.05-.06.08-.07.16-.1.43-.19.49-.38-.04-.03-.09-.04-.14-.04-.27,0-.55.04-.8.15.11-.04-1.27-2.5-1.41-2.71-.57-.88-1.24-1.67-1.9-2.48-.28-.34-.46-.74-.72-1.09-.31-.4-.35-.56-.83-.7-.15-.05-.16-.07-.26-.2-.16-.21-.77-.18-.52-.09,1.64.6,2.67,2.56,3.54,3.92.68,1.05,1.35,2.1,1.98,3.17.04.07.52.81.44.88-1.23.92-1.9,1.82-2.21,3.32s-.29,2.78.39,5.14c-1.1.71-3.5,1.41-4.43,2.34-.92,1.09-1.95,1.93-2.84,2.95-1.08,1.23-2.23,2.43-2.67,4.04-.49,1.83-.69,3.66.06,5.46,1.42,3.4,5.22,5.45,8.8,5.55.75.02,1.51-.04,2.24-.19,3.59-.74,6.49-3.32,9.82-4.88,3.44-1.61,7.53-2.09,11.07-.71-.02-.01-.05-.03-.07-.04ZM596.02,518.97c-.32.36-.6.71-.88,1.09-.19,0-.42.04-.48.15-1.66,3.01-3.67,6.42-3.68,9.93,0,.19,1.07-.11,1.08-.35,0-.16.02-.31.03-.47.1-.02.16-.06.16-.13-.14-1.93.89-3.85,1.67-5.56.75-1.64,1.63-3.22,2.84-4.57.13-.13-.58-.29-.73-.12h-.01s0,.01,0,.01Z" fill="none" stroke="#000" stroke-miterlimit="10" stroke-width=".73"/><path d="M489.77,395.27c-.1-.41-.23-.81-.39-1.19-.04-.13-.09-.24-.13-.37-.18-.55-.22-1.13-.44-1.67s-.53-1.08-.85-1.58c-1.28-1.98-3.43-4.01-5.8-4.51-.54-.12-1.11-.22-1.67-.18-3.25.28-5.79,2.14-8.6,3.57-2.42,1.23-4.92,2.33-7.52,3.13-.62.12-1.27.48-1.89.49-.55.19-.4.03-1.49.26-.05.06-.08.12-.09.17-.32.07-.63.19-.76.38-.24.36.19.36.51.34,4.16-.23,8.21-1.32,11.96-3.18.07-.03.15-.06.22-.1.38-.19.29-.32,0-.45-.3-.12-.82.02-1.21.15-.06-.02-.14-.04-.22-.04,1.09-.51,2.15-1.04,3.22-1.59.67-.36,1.34-.72,2.01-1.09.32-.17.65-.44.99-.56.41-.15.47-.13.78.23.16.19.75.12,1.26-.04.18.12.42.17.65.18.14.14.33.24.53.28,1.47.35,2.65,1.5,3.52,2.71-.06.03-.13.08-.18.11-.59-.67-1.33-1.25-2.19-1.65-.53-.26-2.05.17-1.79.97.43,1.39,1.49,2.28,2.37,3.37.56.7.83,1.46.95,2.25,0,.11,0,.2.04.28.09.83.03,1.7-.04,2.58-.21,2.76-.28,7.39-3.19,8.87-.1.05-.19.11-.27.17.17-.42-.27-.62-.64-.64-.64-.04-1.26.03-1.85.19-.21.03-.41.09-.54.13-.07.02-.14.05-.21.07-1.63.45-3.14,1.25-4.43,2.37-.85.73-1.62,1.57-2.4,2.38-1.01.82-1.88,1.77-2.46,2.97-.02.02-.03.04-.03.06-.02.06-.06.11-.09.17-.19.43.59.56.82.56.46,0,1.07-.17,1.34-.57.49-.73,1.05-1.42,1.64-2.09.27-.04.54-.13.74-.26.7-.44,1.21-1.02,1.72-1.63.25-.15.5-.29.74-.44.24-.14.44-.39.42-.61.16-.13.31-.28.49-.42.6-.46,1.32-1.05,2.1-1.35.46-.12.93-.19,1.42-.21.28-.01.68-.13.96-.33-.28.61,3.23,2.67,4.09,2.23,2.27-1.17,2.42-1.6,2.98-3.9.39-.11-.05-3.71,0-4.13.26-1.98.11-1.45.09-3.45.05-.71.07-1.3.06-2.01.24.44-.07-1.52.17-1.09.08.13.22.23.37.29.33,1.07,2.51.56,2.24-.58Z" fill="#000" stroke-width="0"/><path d="M474.09,380.09c-.84.32-1.77.42-2.64.59-.84.16-1.74.4-2.6.42-1.63.05-3.12-.87-4.5-1.62-.6-.33-2.08-1.27-2.78-1.26-.64.01-.65.08-1.26.5-1.11.76-2.06,2.09-3.01,3.03-.41.4-.8.81-1.18,1.26-.22.39-.41.8-.58,1.23-.22,1.58-.3,3.18-.18,4.77,0,.17.03.34.04.52.07.74-.01,1.03.74,2.07.4.55,1.5.77,2.1.96,1.23.4,2.47.74,3.72,1.08.93.26,1.87.52,2.79.82.3.1,1.96.55,1.17.97-1.36.72-3,1.27-4.54,1.41-1.13.11-2.2-.1-3.32-.2-.93-.08-1.88-.18-2.69-.69-.43-.27-.78-.65-1.17-.98-.44-.37-.98-.57-1.43-.94-.67-.55-.99-1.51-1.25-2.3-.28-.85-.53-1.71-.6-2.59-.12-1.5.53-2.71,1.15-4.03.55-1.17,1.23-2.29,2.14-3.21.66-.67,1.42-1.27,2.13-1.86.49-.41.99-.8,1.5-1.17,1.02-.75,2.09-1.44,3.2-2.06.77-.43.71-1.43,1.22-.7s2.56,2.67,3.01,2.78c2.37.62,4.57.59,7.61-.06.72-.15,2.73-.9,2.65-1.03-.27-.51.37.72-.57,1.75-.11.12-.24.23-.39.31-.16.09-.33.16-.51.23ZM478.15,376.76c0-.09,0-.18-.01-.28.02-.24.01-.48-.02-.73.02-.07.03-.13,0-.19,0-.01-.01-.04-.01-.05-.02-.39-.03-.79-.05-1.18,0-.18-.3-.32-.43-.35-.11-.03-.23-.04-.36-.04-.24-.33-.54-.59-.95-.71-.04-.02-.11-.01-.16-.02-.06-.02-.12-.05-.18-.06-.33-.07-.65-.08-.98,0-.17.04-.33.11-.48.18-.1-.23-.39-.37-.67-.41-1.13-.17-2.26-.02-3.37.21-.99.21-1.97.45-2.95.68-.18.04-.43.14-.62.29-.06.01-.12.03-.18.04-.22.04-1.1.25-1.05.59.04.23.58.18.93.11.18.44.88.45,1.26.37.91-.21,1.82-.43,2.73-.63.97-.21,1.98-.22,2.97-.24.15,0,.3,0,.45.03.12.02.24.07.35.12.43.18.9.41,1.13.83.31.57.4,1.31.24,1.94-.09.36-.5,1.04-.23,1.39.13.17.41.27.61.29.29.02.61-.01.88-.13.21-.1.51-.25.6-.48.15-.37.3-.75.41-1.13l.05-.06c.07-.11.1-.22.08-.36ZM445.79,367.72c-.18.1-.08.04,0,0h0ZM450.26,365.72c.01-.22-1.74,1.1-1.95,1.12-.31.03,0-.34-.19-.09-.41.5-2.01,1.11-2.66,1.42-.65.31-1.49.25-2.12.61-.1.06-.2.12-.26.21-.19.28.18.43.21.69.03.22-.76.4-.55.47s1.44.04,1.66,0c1.26-.2,2.39-.89,3.4-1.67.27-.21.46-.48.67-.74.49-.61,1.79-1.9,1.8-2.02Z" fill="#000" stroke-width="0"/><path d="M590.22,545.59c-.15-.03-.08,0,0,0h0Z" fill="#000" stroke-width="0"/><path d="M594.94,542.98c.4-.9.62-1.85.76-2.83.14-.98.22-2.87.2-3.86-.28.65-.51,2.15-.72,2.83-.2.63-.06,1.3-.26,1.93-.17.53-.35,1.05-.54,1.56-.02.06-.05.13-.1.18-.18.18-.04.58-.27.67-.26.1-.34.64-.5.86-.26.37-.74.43-1.15.53-.49.11-.96.32-1.45.4-.82.13-2.43.41-2.71-.7-.11-.43.28-1.27.67-1.48-.56.41-1.3,1.32-1.28,2.01.02.57.45,1.06.98,1.29s1.11.2,1.68.13c2.39-.3,3.87-1.64,4.7-3.52Z" fill="#000" stroke-width="0"/><path d="M613.55,560.05c.12-.22.21-.43.27-.66.03-.12-.16-.11-.24-.11-.07.01-.15.02-.21.06-.04.02-.1.06-.11.11,0,.01-.02.03-.02.05-.04.02-.1.05-.13.1-.05.09-.13.18-.18.28-.07.03-.13.08-.16.14,0,.01-.02.03-.02.04h0c-.14.11-.29.21-.44.3-.06.02-.12.05-.16.1,0,0-.02.02-.02.03-.71.45-1.47.79-2.3,1-.1.03-.27.11-.24.23.03.12.23.12.32.1.13-.03.26-.08.38-.12-.07.04-.15.09-.22.12-.1.06-.22.18-.14.29.06.09.19.11.3.1.06,0,.13,0,.16,0,.18-.03.37-.08.56-.14,0,0-.02.02-.03.02h0s-.05.03-.09.05h0s-.04.01-.05.03c-.02.01-.06.03-.1.03h-.01s-.03,0-.05.01c-.06.01-.12.03-.18.04h-.01c-.13-.03-.28,0-.4.05-.04.01-.14.09-.11.13,0,.01-.02.02-.02.04-.1.01-.19.04-.27.09-.1.08-.06.16.05.19.45.13.96.09,1.39-.1.22-.1.42-.21.58-.39.04-.04.07-.09.1-.14h0c.32-.13.62-.32.88-.56.44-.43.72-.99.93-1.56h-.02s0,.01,0,.01Z" fill="#000" stroke-width="0"/><path d="M588.49,485.73c.06-1.15.03-2.34-.14-3.56-1.01-7.43-5.44-14.09-9.86-19.93-16.18-21.36-41.77-35.24-67.96-39.67-2.01-.34-4.13-.62-6.05.06-2.66.93-4.4,3.49-5.52,6.06-4.44,10.27-5.33,12.47-9.02,19.33-2.22,4.13-15.29,7.03-16.06,8.12-2.91,4.14.31,12.1-1.87,14.32-1.44,1.47-5.42,5.59-10.84,7.16-8.63,2.49-11.76-.43-15.77.57-3.72.93-2.81,9.72-6.62,11.62-6.9,3.44-12.7,3.09-15.39,3.5-6.31.95-9.13-5.06-15.47-4.41-4.52.46-5.44,7.93-9.98,7.82-9.5-.22-9.72-1.33-28.5-7.58-.84-.28-2.29-6.86-6.03-8.4-2.54-1.04-4.9,2.1-7.11.92,0,0-4.48-2.39-8.57-6.37-.95-.92-1.73-1.84-2-3.14-.31-1.47.53-2.57-.61-6.03-2.11-6.44-5.95-1.28-8.52-5.2-4.3-6.58,1.6-16.32.19-17.91-2.45-2.77-2.52-7.77-2.58-8.32-.52-4.85,3.97-6.71,5.42-10.92,1.08-3.16,11.01-7.26,7.05-10.83-4.83-4.34-9.83-3.09-12.43-.18-2.35,2.64-11.49,5.94-14.89,14.23-1.56,3.8-8.52,3.25-9.58,5.56-1.09,2.37.79,4.26,1.12,8.32.5,6.18-1.57,15.77-3.42,19.86-1.98,4.37-5.87,1.29-4.83,7.46.59,3.48,3.47,9.3,7.02,14.55,4.95,7.31,5.77,12.32,11.77,23.88.79,1.53-.85,11.37,2.37,12.76,1.71.74,3.42,3.09,5.29,3.15,3.92.12,7.39,1.79,10.13,3.53,10.08,6.39,16.5,10.79,23.48,14.36,6.13,3.15,20.91,6.46,20.46,10.04-.22,1.77,1.02,6.59,8.14,8.89,3.63,1.17,10.07-2.32,15.47-3.58,4.38-1.02,19.24,4.69,55.27.68.73.86,1.9,1.97,3.53,3.03,1.53.99,3.34,1.8,5.22,1.93,2.02-1.22,6.94-1.11,9.04-4.93,4.59-8.32,17.67-8.43,21.13-9.96,24.12-8.87,29.72-11.94,37.31-15.27,3.95-1.73,10.36,1.46,13.54.03,11.36-5.1-5.34-9.22,17.7-21.7,11.94-6.47,18.42-14.2,18.98-23.9h0s0,.04,0,.04ZM359.73,496.05c.07-.04.14-.09.21-.13" fill="url(#radial-gradient)" stroke-width="0"/><path d="M463.18,416.72c-4.94-.15-5.18,7.54-.23,7.69,4.95.15,5.18-7.54.23-7.69Z" fill="url(#radial-gradient-2)" stroke-width="0"/><path d="M543.68,518.14c-.15-.82-.53-1.45-1.04-1.91.47-.74.65-1.72.36-2.9-.98-3.96-2.08-7.93-4.55-11.25-1.84-2.48-4.02-4.38-5.66-6.78-.68-1.54-1.4-3.07-2.16-4.57-.66-1.28-1.83-1.86-3.05-1.91-2.01-2.61-4.11-5.15-6.38-7.55-4.21-4.47-8.99-8.56-14.34-11.62-.49-.28-1-.55-1.51-.82-1.69-1.22-3.45-2.33-5.28-3.18-2.71-1.25-6.06-1.91-9.44-2-1.41-.38-2.99-.36-4.72-.12-.53.08-.99.28-1.38.56-1.25.23-2.46.53-3.56.92-1.51.52-2.58,2.13-2.81,3.7-.82-.18-1.72-.12-2.61.31-2,.95-3.76,2.13-5.44,3.53-1.01-.03-1.99.37-2.68,1.32-.24.22-.47.45-.67.76-.48.07-.95.22-1.39.45-.94.17-1.88.34-2.82.48-3.64.55-3.91,6.73-.22,7.41.62.11,1.2.17,1.76.2.51.68,1.25,1.15,2.07,1.37.34.44.76.82,1.21,1.11v.28c-.08,1.76,1.16,3.13,2.67,3.68,1.27,2.75,2.81,5.35,4.19,8.09,2.38,4.73,4.21,9.68,5.51,14.8,2.63,10.31,2.36,20.69,2.21,31.24-.01.43.06.83.15,1.18-.45.4-.82.89-1.08,1.43-2.17,2.86,1.81,6.96,5.23,5.43.09-.03.17-.08.26-.12.41-.18.76-.48,1.05-.83,8.39-2.67,16.78-5.32,25.17-8.02,3.69-1.18,7.28-2.45,10.67-4.35,3.3-1.85,7.12-1.72,10.3-3.69.14-.09.27-.17.39-.27,8.81.3,10.85-9.48,9.59-16.37h0s0,0,0,0ZM502.91,480.41c.05-.36.06-.71.03-1.04.25.09.5.16.74.25-.29.23-.55.49-.78.8h0s0,0,0,0ZM515.61,503.49c-.11,0-.2.02-.31.03.14-.39.27-.78.37-1.17-.02.38-.04.76-.06,1.14h0Z" fill="url(#radial-gradient-3)" stroke-width="0"/><path d="M335.56,449.63c-.72-2.52-5.23-2.83-7.23-1.68-1.21-.89-2.58-1.53-4.02-2.03-2.02-.68-5.06-.64-6.59-2.25-2.32-2.43-6.55-2.52-6.7.8-.25,5.67-2.8,12.25-1.83,18-.12,2.09,1.99,5.45,3.06,7.33,1.41,2.51,4.29,2.31,5.97.86.73.4,1.45.87,2.33.99.92.12,1.66-.05,2.39-.32,4,.77,9.24-.62,11.6-4.04,3.5-5.08,2.16-12.83.63-18.16l.37,1.36.03-.86Z" fill="url(#radial-gradient-4)" stroke-width="0"/><path d="M339.16,419.14c-.81-.8-1.38-1.49-1.94-2.47-.98-1.7-3.08-3.77-4.87-2.62-3.34,2.15-6.39,5.93-8.37,9.39-.34.6-1.05.31-1.03.97-.39.46.13-1.12-1.49.57-1.96,1.05-3.04,2.31-4.2,4.7-1.79,3.67,2.42,7.13,5.13,5.63.39.35.88.65,1.51.85,3.45,1.06,7.98,3.26,10.33-.77.97-1.65,1.46-3.63,2.23-5.38.94-2.12,2.04-4.16,3.18-6.18.83-1.46.77-3.45-.46-4.67h-.01s0,0,0,0Z" fill="url(#radial-gradient-5)" stroke-width="0"/><path d="M470,471.74c.71-.82,2.1-.65,5.36-2.28,3.42-1.72,10.63-.96,14,.86s6.06,5.07,6.68,8.85-1.57,9.24-4.96,11.04c-2.87,1.53-6.68,3.05-9.95,2.09-4.43-1.29-6.14-3.29-7.79-6.9-1.07-2.34-.69-4.15-.24-6.06.43-1.81,1.23-2.6,1.51-2.89,1.94-2.07,4.38-2.52,7.11-2.29,3.54.29,6.18,1.87,7.13,3.64,2.74,5.12-2.09,7.49-3.72,7.85-4.42.97-4.84-3.17-4.46-3.43" fill="none" stroke="#212120" stroke-linecap="round" stroke-miterlimit="10" stroke-width="2.19"/><path d="M496.04,479.17c.16,1.94.18,4.12-.18,6.04-.9,5-3.51,9.77-3.2,14.85.22,3.55,2.01,7.03,4.91,9.08s6.41,2.28,9.81,1.24c2.09-.65,2.73-.58,4.99-1.84,1.42-.8,3.81-2.6,4.57-4.06,2.11-4,1.91-8.69-1.56-11.58-2.25-1.88-3.5-2.23-5.79-2.31-.95-.03-3.25.87-5.04,1.89-2.22,1.25-3.3,2.79-4.06,5.23-.76,2.44.54,5.07,2.77,6.32,3.82,2.15,8.59-3.63,3.47-5.67" fill="none" stroke="#212120" stroke-linecap="round" stroke-miterlimit="10" stroke-width="2.19"/><path d="M505.63,510.81c5.44-.07,10.75.55,15.6,3.03,1.53.79,3.42,2.52,4.33,4.33,1.72,3.44,1.96,6.24.31,10.29-1.45,3.57-9.04,10.18-14.35,10.47-8.19.44-12.43-3.84-13.42-10.16-.64-4.1.92-6.14,2.85-8.23,2.47-2.69,8.09-4.26,11.85-2.96,4.7,1.63,5.13,7.12,3.75,10.56-1.73,4.33-9.83,4.02-8.21-2.41" fill="none" stroke="#212120" stroke-linecap="round" stroke-miterlimit="10" stroke-width="2.19"/><path d="M525.78,528.62c-1.14,1.9-2.55,3.77-3.1,5.92-.21.85-.32,1.76-.06,2.59s.59,1.07,1.46,1.18c.34-.38,1.2-.72,1.7-.77,0,.19-.4.59-.24.5" fill="none" stroke="#212120" stroke-miterlimit="10" stroke-width="2.19"/><path d="M408.14,500.37c-4.55-.08-10.71-1.39-13.71-4.8-.09.14-.1.31-.04.46" fill="none" stroke="#221f1f" stroke-miterlimit="10" stroke-width="1.6"/><path d="M410.24,507.23c-.76.51-12.68-.87-16.17-2.22-8.51-3.31-13.58-8.96-16.14-12.63" fill="none" stroke="#221f1f" stroke-miterlimit="10" stroke-width="1.6"/><path d="M406.72,523.88c-9.79-1.32-15.85-3.83-23.06-10.14-5.14-4.49-9.96-13.45-14.71-23.21.08.19-.06,2.08.02,2.27" fill="none" stroke="#221f1f" stroke-miterlimit="10" stroke-width="1.6"/><path d="M404.25,536.84c-25.1-6.35-32.63-20.04-38.02-34.94" fill="none" stroke="#221f1f" stroke-miterlimit="10" stroke-width="1.6"/><path d="M397.61,544.35c-1.79,3.69-15.73.27-24.65-9.43-6.1-6.63-10.97-17.06-13.9-25.41" fill="none" stroke="#221f1f" stroke-miterlimit="10" stroke-width="1.6"/><path d="M354.99,536.39c-4.03-4.36-7.34-9.51-8.86-17.99" fill="none" stroke="#221f1f" stroke-miterlimit="10" stroke-width="1.6"/><path d="M369.12,543.51c-3.56-3.02-9.63-10.83-11.76-14.98-2.87-5.59-3.68-8.67-4.69-13.93" fill="none" stroke="#221f1f" stroke-miterlimit="10" stroke-width="1.6"/><path d="M352.95,499.21s1.62-2.98,1.44-2.98c-1.1-3.67-1.51-10.48-.47-15.39" fill="none" stroke="#221f1f" stroke-miterlimit="10" stroke-width="1.46"/><path d="M349.67,502.68c-1.51-8.72-1.82-17.5,1.19-25.67" fill="none" stroke="#221f1f" stroke-miterlimit="10" stroke-width="1.46"/><path d="M343.57,506.3c-1.37-10.85-.6-22.36,4.17-32.02" fill="none" stroke="#221f1f" stroke-miterlimit="10" stroke-width="1.46"/><path d="M335.4,509.82c-2.69-10.62,0-22.77,5.03-33.03-.32.04-1.5.07-1.81.11" fill="none" stroke="#221f1f" stroke-miterlimit="10" stroke-width="1.46"/><path d="M328.55,508.76c-2.32-9.66.54-20,4.33-29.19-.13.54-2.3,1.01-2.43,1.55" fill="none" stroke="#221f1f" stroke-miterlimit="10" stroke-width="1.46"/><path d="M319.98,503c-.87-4.63-.59-7.37-.04-9.45,2.35-8.98,5.24-11.94,6.17-12.46" fill="none" stroke="#221f1f" stroke-miterlimit="10" stroke-width="1.46"/><path d="M313.11,492.13c.16-3.28,3.14-8.56,5.44-11.26" fill="none" stroke="#221f1f" stroke-miterlimit="10" stroke-width="1.46"/><path d="M354.1,493.44c.32.59.98.98,1.65.95-.06.06-.17.09-.26.05" fill="none" stroke="#000" stroke-miterlimit="10" stroke-width=".73"/><path d="M353.76,494.57c.06,1.04-.05,2.11-.33,3.13" fill="none" stroke="#000" stroke-miterlimit="10" stroke-width=".73"/><path d="M349.56,499.8c-.04.74.82,1.39,1.52,1.14.03.1-.05.2-.15.21" fill="none" stroke="#000" stroke-miterlimit="10" stroke-width=".73"/><path d="M348.85,500.13c.11.32.13.67.07.99-.06.29-.2.56-.34.83-.15.29-.3.59-.46.89-.02.04-.05.1-.11.1s-.05-.1,0-.09" fill="none" stroke="#000" stroke-miterlimit="10" stroke-width=".73"/><path d="M343.48,503.51c-.04.25.1.5.29.65s.44.24.68.31c.38.12.76.25,1.13.36" fill="none" stroke="#000" stroke-miterlimit="10" stroke-width=".73"/><path d="M342.94,503.56c.11,1.02-.25,2.07-.95,2.82" fill="none" stroke="#000" stroke-miterlimit="10" stroke-width=".73"/><path d="M337.02,507.83c-.05.03.09.07.08,0s-.1-.08-.17-.09c-.9-.01-1.78-.61-2.11-1.45.09.32-.35.97-.51,1.25-.46.85-1.14,1.57-1.96,2.08" fill="none" stroke="#000" stroke-miterlimit="10" stroke-width=".73"/><path d="M328.25,507.33c.22.86,1.61,1.58,2.49,1.74" fill="none" stroke="#000" stroke-miterlimit="10" stroke-width=".73"/><path d="M327.92,507.07c-.1.24-.07.51-.15.74-.05.16-.14.3-.24.45-.16.25-.32.51-.48.75-.29.44-.62.93-1.13,1.08" fill="none" stroke="#000" stroke-miterlimit="10" stroke-width=".73"/><path d="M319.26,497.87l-.5.71c-.27.39-.56.78-.98.98-.14-.13-.28-.26-.42-.38" fill="none" stroke="#000" stroke-miterlimit="10" stroke-width=".73"/><path d="M314.06,487.54c-.26.25-.61.5-.95.37-.33-.12-.61-.57-.93-.4" fill="none" stroke="#000" stroke-miterlimit="10" stroke-width=".73"/><path d="M406.04,498.16s-.02.03-.04.04c-.41.52-.58,1.32-1.2,1.52,0,.1-.02.2-.03.3" fill="none" stroke="#000" stroke-miterlimit="10" stroke-width=".73"/><path d="M407.12,506.79c.6-.3,1.17-.69,1.66-1.15.24-.23.47-.48.54-.8s-.08-.7-.38-.8" fill="none" stroke="#000" stroke-miterlimit="10" stroke-width=".73"/><path d="M406.45,500.77c.33.17.67.35.91.63s1.1.46.97.79" fill="none" stroke="#000" stroke-miterlimit="10" stroke-width=".73"/><path d="M405.69,523.35c.55.24,1.22.01,1.66-.38s.71-.96.95-1.5" fill="none" stroke="#000" stroke-miterlimit="10" stroke-width=".73"/><path d="M407.48,507.37c.55.53,1.09,1.09,1.41,1.78s1.14,2,.72,2.64" fill="none" stroke="#000" stroke-miterlimit="10" stroke-width=".73"/><path d="M400.99,535.44c.51-.01,1.03-.08,1.46-.34s1.42-.34,1.3-.82" fill="none" stroke="#000" stroke-miterlimit="10" stroke-width=".73"/><path d="M405.46,523.72l.65.96c.17.25.33.49.43.77.3.88-.15,1.83-.62,2.63" fill="none" stroke="#000" stroke-miterlimit="10" stroke-width=".73"/><path d="M400.64,536.17c.84.78,1.03,2.17.43,3.14" fill="none" stroke="#000" stroke-miterlimit="10" stroke-width=".73"/><path d="M392.09,545.9c.38.94.36,2.03-.05,2.96" fill="none" stroke="#000" stroke-miterlimit="10" stroke-width=".73"/><path d="M466.34,540.17c-.06-.04-.14.04-.13.11s.06.13.13.17c.38.3.79.59,1.04,1.01s1.28,1.05.91,1.37" fill="none" stroke="#000" stroke-miterlimit="10" stroke-width=".73"/><path d="M464.77,550.07c-.09-.1-.28-.06-.32.06.92.35,1.39,1.55.97,2.43" fill="none" stroke="#000" stroke-miterlimit="10" stroke-width=".73"/><path d="M467.1,524.87c0,.15.28.14.33-.01s-.05-.3-.15-.42c-.54-.66-2.03-1.03-1.77-1.97.11-.38.67-.7.86-1.07.27-.47.36-1.05.46-1.56-.09-.03-.17-.06-.27-.11" fill="none" stroke="#000" stroke-miterlimit="10" stroke-width=".73"/><path d="M458.87,503.03c.43.01.88.06,1.26.29s1.24.02,1.13.45" fill="none" stroke="#000" stroke-miterlimit="10" stroke-width=".73"/><path d="M458.44,502.36c.36-.14.61-.48.73-.84s.13-.75.14-1.14c.01-.36.01-.72-.09-1.07" fill="none" stroke="#000" stroke-miterlimit="10" stroke-width=".73"/><path d="M335.17,456.15c-2.23-.11-4.48-.21-6.68.18s-4.36,1.29-5.89,2.92-3,4.4-1.64,6.16c1.6,2.07,3.86,2.8,5.97,1.86,1.35-.61,1.82-.99,2.43-2.12.51-.95.53-2.32.27-3.38-.28-1.17-1.32-1.86-2.87-1.46-1.24.33-2.13,2.85-.21,3.58" fill="none" stroke="#000" stroke-linecap="round" stroke-miterlimit="10" stroke-width=".73"/><path d="M334.97,455.39c-2.23-.17-4.48-.12-6.7.17-1.3.16-2.63.4-3.93.21-.81-.12-1.62-.43-2.25-.96-1.15-.98-.75-2.65.19-3.64.54-.57,1.37-.81,2.14-.99,1.33-.33,2.7,1.65,1.99,2.77-.47.74-1.63.94-2.32.38" fill="none" stroke="#000" stroke-linecap="round" stroke-miterlimit="10" stroke-width=".73"/><path d="M324.8,457.58c-2.6,1.28-4.71,2.8-7,4.56-1.23.95-4.49.81-5.2-1.07-1.32-3.5,2.17-4.95,4.03-4.93,1.06,0,2.24,1.9,1.23,3.03-.67.76-1.88.61-2.76.4" fill="none" stroke="#000" stroke-linecap="round" stroke-miterlimit="10" stroke-width=".73"/><path d="M600.38,381.35c.34-.56.56-1.2.56-1.86,0-1.12-.18-2.17-.5-3.2.01-.13.03-.26.03-.4.02-.43-.02-.85-.12-1.26-.03-.59-.06-1.18-.09-1.78-.07-1-.43-1.81-.96-2.42-.04-.42-.09-.83-.13-1.24-.1-.95-.48-1.72-1.02-2.32-.23-1.21-.5-2.41-.86-3.62-.18-.62-.48-1.12-.82-1.52,0-.2-.01-.39-.04-.58-.02-.23-.04-.45-.07-.69-.1-.51-.31-.95-.65-1.32-.16-.3-.39-.53-.67-.71-.36-.35-.79-.59-1.28-.72-.33-.05-.68-.11-1.02-.17-.28,0-.55.02-.83.07-.61.01-1.19.16-1.74.46-.27.19-.53.39-.8.57-.44.42-.76.91-.96,1.47-.2.28-.37.57-.49.88-.65,1.12-1.33,2.21-2.07,3.28-.93.37-1.75,1.1-2.27,2.27,0,.02-.02.05-.03.08-.34.16-.68.38-.99.68-.89.85-1.77,1.71-2.66,2.56-.38.36-.64.73-.85,1.12-2.49,2.62-4.83,5.37-7.02,8.24-1.75,1.95-3.29,4.07-4.62,6.32-.62.83-1.22,1.67-1.78,2.55-.53.82-.69,1.66-.59,2.43-.02.04-.03.06-.05.11-.11.24-.22.49-.33.73-.71,1.53-.42,3.04.34,4.14-.15,1.96,1.02,3.14,2.48,3.52-.27,1.91-.54,3.81-.82,5.72-.26,1.87,1.52,3.62,3.23,3.87,2.03.31,3.51-.83,4.3-2.63.16-.37.27-.72.35-1.1.09-.16.17-.33.25-.5.4.11.82.16,1.24.15.25.12.51.2.79.26,1,1.06,2.81,1.3,4.35.75.64,1.46,1.96,2.35,3.43,2.37,1.01.43,2.14.51,3.1.1.7-.13,1.37-.44,1.95-.93.12-.11.23-.22.34-.32.88-.06,1.73-.41,2.37-1.12.42-.29.8-.69,1.08-1.24.34-.65.68-1.28,1.02-1.92.17-.13.34-.28.52-.46.2-.22.39-.43.56-.64.64-.43,1.18-1.04,1.48-1.86.4-1.1.67-2.1.86-3.26.04-.24.06-.47.06-.7.38-.39.67-.87.85-1.48.85-2.97,1.45-5.95,1.9-9.01.14-.9-.05-1.65-.42-2.24.04-.51.07-1.01.1-1.52v.02s0,0,0,0Z" fill="url(#radial-gradient-6)" stroke-width="0"/><path d="M555.92,373.24c.22-2.28.27-4.59.1-6.91-.03-.47-.15-.9-.3-1.29-.21-2.13-.7-4.16-1.76-5.48-.04-.21-.11-.41-.17-.62.02-.17.04-.36.07-.53.8-4.72-5.88-7.16-7.35-2.27-.26.85-.44,1.69-.53,2.55-.85.21-1.68.7-2.33,1.53-1.08,1.39-1.87,2.99-2.69,4.56-.66.4-1.22,1.02-1.59,1.87-1.18,2.71-3.77,4.6-5.23,7.15-1.03,1.81-2.12,3.41-2.46,5.42-.56.79-.58,2.09-.45,3.03-.05-.4-.1-1.09-.04-1.55.11-.81.02.06,0,0,.19-.61.1-1.58-.17-2.31-.6-1.57-1.14-2.25-2.54-3.47-1.28-1.12-2.57-2.68-4.08-3.45-1.22-.61-2.34-1.1-3.58-1.64-1.5-.64-3.02-.71-4.63-.92-.33-.04-.9-.11-1.12.09-.21-.14-.56-.18-.81-.27-.45-.25-1.03-.15-1.56-.15-.07,0-.14.01-.2.02-.14-.02-.28-.04-.41-.04h-.12c-.53-.04-1.02.06-1.5.28-.48.14-1.21-.09-1.57.26-.39.33-2.16-.06-2.32.41-.25.45-.07,1.35.63,2.4.03.34.87,1.05.91,1.39.16.66.48,1.23.94,1.73l.09.06c.22.26.46.49.76.69,2.11,3.5,4.04,7.08,5.83,10.76.15.31.36.57.57.8.1.4.22.8.34,1.2h0c.1.32.24.62.4.92.14.33.34.63.59.89.03.03.06.05.09.08.51.58,1.35,1.58,2.01,1.7.26.07.58.02.86.03.34-.03.41-.67.75-.71.66-.16,1.23-.48,1.73-.94.2-.26.42-.51.62-.76.29-.47.47-.99.55-1.52.29-.65.5-1.33.58-1.98.56.16,1.12.22,1.68.16,2.65.57,5.07-1.38,4.77-4.05.08.4.31.59.3,1.03,0,.28.07.92.25,1.18,1.22,1.75,4.22.43,6.13,1.47,1.28.5,2.61,1.09,3.91,1.43,1.27.33,2.56.4,3.86.3.54.29.18.48.2.48,1.25.31,2.09-.19,3.35-.41,1.53-.14,2.86-.71,3.67-2.32l.5-1c.02-.05.04-.12.07-.17.41-.61,1.48-1.89,1.76-2.82.61-2.06.68-4.39.98-6.51.1-.7-.01-1.31-.27-1.84v.03s-.02.03-.02.03Z" fill="url(#radial-gradient-7)" stroke-width="0"/><path d="M622.96,506.63c-.3-1.36-.23-2.5-.13-3.88.06-.92-.25-1.74-.78-2.39.49-.74.68-1.74.36-2.96-.91-3.46-2.19-6.76-3.88-9.92-.28-.53-.63-.95-.99-1.27-1.82-2.74-4.23-4.99-7.39-6.54-.72-.35-1.61-.51-2.47-.46-2.4-.3-4.94,1.98-4.34,4.74.13.59.23,1.19.33,1.79-.6.43-1.07,1.11-1.32,2.07-.28,1.11-.55,2.19-.8,3.26-.26.93-.55,1.84-.86,2.76-1.97,1.09-3.19,1.54-3.51,3.39-.68-.28-1.18.64-1.98.47-1.97-.42-3.4.41-5.08.52-.85.06-2.78-.8-2.71-.08-.66-.61.17.79-.67.35-3.82-2.04-4.45,3.29-7.21,5.22-1.52,1.06-2.88,1.83-3.94,3.39-.53.78-1.01,1.52-1.5,2.22-1.54.33-2.95,1.49-3.22,3.47-.09.68-.19,1.37-.28,2.06-.04.27-.03.52,0,.77-.54,4.09-1.48,7.94-1.12,12.23.19,2.34.38,4.71.86,7.01.53,2.56,1.76,4.83,2.42,7.33,1.12,4.21,6.27,3.41,7.41-.11.68-.41,1.28-1.03,1.66-1.91.48-1.09,1-2.16,1.55-3.21.49-.28.95-.69,1.34-1.26,2.55-3.79,5.05-7.65,7.26-11.64.72-1.28,1.09-2.36,1.21-3.34.52-.51.89-1.15,1.11-1.85.37-1.21.53-2.51.72-3.76.13-.82-.15-1.59-.63-2.25-.02-.7-.07-1.39-.16-2.09,1.45,2.55,2.89,5.12,4.53,7.53,3.91,5.77,9.8,9.59,13.96,15.07,1.97,2.58,6.85.7,6.64-2.52-.26-3.91-.22-8.53.92-12.31.85-2.83,1.12-5.28,1.11-8,1.15-.79,1.92-2.15,1.62-3.92h-.02s0,0,0,0Z" fill="url(#radial-gradient-8)" stroke-width="0"/><path d="M497.61,433.2c6.6-.96,13.1-2.54,19.4-4.71,1.72-.6,3.67-1.48,4.07-3.26" fill="none" stroke="#000" stroke-miterlimit="10" stroke-width=".18"/><path d="M492.89,442.94c10.93-2.1,26.16-4.87,37.09-6.97,1.76-.34,5.84-1.54,7.37-2.5" fill="none" stroke="#000" stroke-miterlimit="10" stroke-width=".18"/><path d="M500.33,447.68c17.59-.93,35.13-2.91,52.49-5.9" fill="none" stroke="#000" stroke-miterlimit="10" stroke-width=".18"/><path d="M507.19,455.87c19.14-.03,38.53-.75,57.15-5.65" fill="none" stroke="#000" stroke-miterlimit="10" stroke-width=".18"/><path d="M523.11,463.54c10.75.1,21.51-.13,32.25-.72,7.01-.38,14.06-.91,20.81-2.84" fill="none" stroke="#000" stroke-miterlimit="10" stroke-width=".18"/><path d="M537.89,476.08l47.39-2.84" fill="none" stroke="#000" stroke-miterlimit="10" stroke-width=".18"/><path d="M545.49,486.29c14.57-.3,29.15.06,43.71-.54" fill="none" stroke="#000" stroke-miterlimit="10" stroke-width=".18"/><path d="M551.38,499.41c11.77.3,23.75-.37,35.34-2.48" fill="none" stroke="#000" stroke-miterlimit="10" stroke-width=".18"/><path d="M556.01,509.08c5.32-.41,10.65-.82,15.96-1.23" fill="none" stroke="#000" stroke-miterlimit="10" stroke-width=".18"/><path d="M557.18,514.21c2.44.08,4.9,0,7.33-.24" fill="none" stroke="#000" stroke-miterlimit="10" stroke-width=".18"/><path d="M432.87,493.12c7.19,4.93,20.96,10.61,29.22,13.18-.38-.01-4.43-1.47-4.81-1.51" fill="none" stroke="#000" stroke-miterlimit="10" stroke-width=".18"/><path d="M426.02,494.91c2.36,3.19,5.63,5.69,8.6,8.27,3.36,2.91,6.73,5.82,10.15,8.66,6.23,5.15,14.81,12.29,22.61,14.87-1.01-.22-4.07-1.93-5.08-2.15" fill="none" stroke="#000" stroke-miterlimit="10" stroke-width=".18"/><path d="M420.89,496.99c10.27,19.82,26.68,37.23,48.17,43.73" fill="none" stroke="#000" stroke-miterlimit="10" stroke-width=".18"/><path d="M422.58,517.67c12.77,13.88,26.19,28.12,44.35,35.32" fill="none" stroke="#000" stroke-miterlimit="10" stroke-width=".18"/><path d="M420.42,532.6c10.79,9.64,22.16,18.92,35.25,25.3" fill="none" stroke="#000" stroke-miterlimit="10" stroke-width=".18"/><path d="M412.41,539.08c5.55,8.12,13.85,13.74,22.16,18.74" fill="none" stroke="#000" stroke-miterlimit="10" stroke-width=".18"/><path d="M412.32,548.46c1.65,4,4.65,6.4,7.13,9.57" fill="none" stroke="#000" stroke-miterlimit="10" stroke-width=".18"/><path d="M408.07,523.55c-4.11-8.22-7.28-16.9-9.4-25.83" fill="none" stroke="#000" stroke-miterlimit="10" stroke-width=".18"/><path d="M401.76,540.17c-1.49-1.55-2.27-3.63-2.98-5.65-4.22-11.85-8.14-26.52-8.48-39.1" fill="none" stroke="#000" stroke-miterlimit="10" stroke-width=".18"/><path d="M396.48,545.28c-6.58-16.01-11.46-33.42-13.33-50.65" fill="none" stroke="#000" stroke-miterlimit="10" stroke-width=".18"/><path d="M391.57,549.43c-7.7-14.41-13.1-30.79-13.85-47.19-.15-3.23-.37-6.65.21-9.85" fill="none" stroke="#000" stroke-miterlimit="10" stroke-width=".18"/><path d="M382.9,549.37c-7.98-14.82-13.65-30.87-16.74-47.4.27,1.1.53,2.2.79,3.29" fill="none" stroke="#000" stroke-miterlimit="10" stroke-width=".18"/><path d="M375.77,546.58c-7.51-9.31-17.1-21.36-18.16-33.44" fill="none" stroke="#000" stroke-miterlimit="10" stroke-width=".18"/><path d="M362.64,542.12c-5.44-7.99-9.74-16.76-12.71-25.95.22.76.43,1.53.65,2.29" fill="none" stroke="#000" stroke-miterlimit="10" stroke-width=".18"/><path d="M350.87,534.66c-3.5-4.44-5.3-9.93-6.6-15.36" fill="none" stroke="#000" stroke-miterlimit="10" stroke-width=".18"/><path d="M359.65,484.27c-6.06,5.12-10.45,12.15-12.39,19.85" fill="none" stroke="#000" stroke-miterlimit="10" stroke-width=".18"/><path d="M353.29,483.63c-7.87,7.91-16.08,15.78-20.95,26.01" fill="none" stroke="#000" stroke-miterlimit="10" stroke-width=".18"/><path d="M351.95,480.12c-7.52,7.17-20.15,18.38-24.42,28.14" fill="none" stroke="#000" stroke-miterlimit="10" stroke-width=".18"/><path d="M340.59,479.02c-6.3,7.71-14.09,17.98-18.58,26.91" fill="none" stroke="#000" stroke-miterlimit="10" stroke-width=".18"/><path d="M332.55,479.97c-4.08,4.2-7.59,8.96-10.39,14.12-1.74,3.22-3.24,6.73-3.09,10.39,0,.22.07.48.28.53s.16-.44,0-.29" fill="none" stroke="#000" stroke-miterlimit="10" stroke-width=".18"/><path d="M313.89,492.6c3.81-3.69,6.38-7.5,10.98-10.11-.55-.13-1.06-.47-1.39-.92" fill="none" stroke="#000" stroke-miterlimit="10" stroke-width=".18"/><path d="M252.76,661.13c.72.32.77.96.75,1.61-.39-.04-.98.19-.79-.62.07-.32.03-.66.04-.99Z" fill="#fff" stroke-width="0"/><path d="M543.04,392.45c-2.47.18-6.12-1.3-8.65-.04,4,3.49,12.9,2.28,17.88,2.03.88-.04,5.2.62,3.71-1.44-1.02-1.4-8.37-.22-10-.16-.66-4.74,5.21-4.68,8.7-3.83,4.79,1.16,8.65,5.29,10.45,9.77,3.54,8.8.68,21.06-6.53,27.28-12.77-8.25-26.15-15.13-41.36-17.81-4.32-14.76,15.13-30.59,26.1-16.27-.1.16-.19.32-.3.49h0s0-.01,0-.01Z" fill="url(#radial-gradient-9)" stroke-width="0"/><path d="M544.47,530.71c5.93-15.42-5.72-34.84-15.81-45.84-11.47-12.49-28.15-23.54-45.86-22.04-2.13.19-7.66,5.29-9.44,3.77-2.3-1.98-.97-10.72.55-11.93,6.86-5.42,21-1.68,28.52.79,15.95,5.22,30.5,16.79,40.39,30.25,5.59,7.62,9.9,16.31,11.72,25.64,1.14,5.85,1.15,24.48-10.09,19.36h0s0,0,0,0Z" fill="url(#radial-gradient-10)" stroke-width="0"/><path d="M589.45,453.9c7.01-2.41,8.2-4.26,8.25-12.69,4.67.76,13.19-6.2,17.75-6.4,4.19-.66,3.61.69,6.21,2.95,14.28,9.07,10.4,28.11-1.42,36.91-4.5,3.35-15.84,6.7-19.2.41-1.86-3.47-2.87-7.4-4.86-10.89-2.03-3.57-4.41-6.92-6.75-10.3h.01s0,0,0,0Z" fill="url(#radial-gradient-11)" stroke-width="0"/><path d="M474.8,559.22c-3.29,2.44-11.34.93-9.4-2.69,5.92-11.04,5.59-31.26,2.7-42.12-1.88-7.05-4.63-13.75-9.22-19.48-4.21-5.26-9.14-5.84-14.68-7.75-1.99-.69-4.07-1.69-.86-5.89,4.35-5.71,16.11.07,20.14,4.1,6.88,6.88,12.22,15.75,14.9,24.97,2.89,9.96,4.65,21.55,3.52,31.92-.45,4.15-2.77,13.76-7.09,16.96h0s0-.01,0-.01Z" fill="url(#radial-gradient-12)" stroke-width="0"/><path d="M384.82,550.36c11.99,3.55,20.89-14.81,23.76-23.44,1.9-5.72,3.3-11.1,2.9-17.14-.46-6.89-3.03-11.52-8.59-15.33.93-4.6,9.5-4.47,12.56-2.59,3.32,2.04,5.05,5.89,6.09,9.48,2.62,9.18.83,20.2-1.92,29.2-2.58,8.45-7.58,18.55-14.49,24.29-3.33,2.76-7.74,5.09-12.17,4.83-6.33-.6-10.28-5.04-8.13-9.31h0s0,0,0,0Z" fill="url(#radial-gradient-13)" stroke-width="0"/><path d="M322.42,509.19c4.72,1.55,8.9,2.33,13.9.86,4.16-1.23,7.93-3.51,11.47-6.03,7.87-5.62,10.43-13.08,10.87-21.9,7.4-4.68,12.95,5.15,9.84,12.97-1.92,6.8-7.8,12.94-13.23,17.16-5.46,4.24-12.88,8.14-19.77,9.28-9.36,1.26-17.28-4.63-13.07-12.34h-.01s0,0,0,0Z" fill="url(#radial-gradient-14)" stroke-width="0"/><path d="M502.65,396.78c2.38,1.48,10.53,1.94,12.45-.98.79-1.22.86-1.34-.61-1.48-2.31-.22-4.98,2.19-7.5,1.99,2.04-3.15,6.2-6.66,10.17-4.88,1.36.96,2.21-.77,1.3,4.07-.16.88-1.24,2.94-1.85,5.8-.83,3.75-.71,6.36-1.57,6.57-.57.14-2.64-.36-2.75-.37-1.6-.21-3.06-.22-4.91-.1-2.35.16-1.98-.15-4.02.11-2.31.29-4.41,3.53-5.91,1.89-2.46-2.71-6.2-5.73-9.41-4.25-.05.02-.09.04-.11.03-.25-.16-.99-8.64,3.49-11.89,1.78-1.3,6.06-1.62,8.98-.94,1.38.32,4.52,3.09,5.11,3.65-.72.3-1.94.41-2.87.8h0s.02-.01.02-.01Z" fill="url(#radial-gradient-15)" stroke-width="0"/><path d="M307.21,463.12c3.14,8.99,14.28,9.72,22.35,7.09,2.25-.74,4.24-2.09,6.14-3.52,1.28-.96,3.11-3.8,4.42-4.33,3.99-1.62,5.68,6.81,4.54,9.12-4.02,8.16-21.11,10.01-28.81,9.24-4.46-.44-9.9-2.76-12.32-6.91-1.77-3.04-.66-9.88,3.7-10.69h0s0,0,0,0Z" fill="url(#radial-gradient-16)" stroke-width="0"/><path d="M576.1,420.72c-10.03-.36-9.01-16.28,1.02-15.66,10.06.62,9.01,16.03-1.02,15.66Z" fill="url(#radial-gradient-17)" stroke-width="0"/><path d="M475.54,425.14c10.1.2,10,15.8-.19,15.59-9.95-.2-9.79-15.79.19-15.59h0Z" fill="url(#radial-gradient-18)" stroke="url(#radial-gradient-19)" stroke-miterlimit="10" stroke-width=".73"/><path d="M461.55,428.41c-9.95-.21-9.79-15.76.28-15.55,9.93.2,9.78,15.77-.28,15.55Z" fill="url(#radial-gradient-20)" stroke="url(#radial-gradient-21)" stroke-miterlimit="10" stroke-width=".73"/><path d="M466.48,429.76c-.94,3.59-.17,6.69,1.99,9.33-2.61,6.96-12.19,7.93-15.14.55-1.19-2.98-.71-7.65,2.17-9.64,1.91-1.32,1.84-.62,4.13-.24,2.36.4,4.5-.09,6.85-.02h0Z" fill="url(#radial-gradient-22)" stroke="url(#radial-gradient-23)" stroke-miterlimit="10" stroke-width=".73"/><path d="M585.92,420.78c9.77.29,9.73,15.04.27,15.48-10.32.48-10.74-15.79-.27-15.48h0Z" fill="url(#radial-gradient-24)" stroke-width="0"/><path d="M601.69,440.13c-9.55-.19-9.73-14.64-.4-15.41,10.37-.85,10.93,15.62.4,15.41Z" fill="url(#radial-gradient-25)" stroke-width="0"/><path d="M585.69,418.97c.13-4.49,0-9.06,4.83-11,4.12-1.66,8.95.35,10.48,4.57,1.33,3.71-.61,8.59-4.44,10.03-3.85,1.45-6.71-3.25-10.86-3.61h0Z" fill="url(#radial-gradient-26)" stroke-width="0"/><path d="M485.91,417.6c.32,9.1-16.12,8.82-15.56-1.06.57-10.01,15.86-8.98,15.56,1.06Z" fill="url(#radial-gradient-27)" stroke="url(#radial-gradient-28)" stroke-miterlimit="10" stroke-width=".73"/><path d="M464.24,446.25c.72,4.03,3.79,8.07.2,11.4-3.22,2.99-8.31,2.61-11.08-.76-2.28-2.77-2.7-8.09.12-10.75,1.91-1.8,2.04-.65,4.4,0,2.25.63,4.1.03,6.35.1h0s0,0,0,0Z" fill="url(#radial-gradient-29)" stroke="url(#radial-gradient-30)" stroke-miterlimit="10" stroke-width=".73"/><path d="M567.92,416.85c2.26,3.83,5.34,5.95,9.81,6.29-1.19,3.09-2,6.14-.28,9.43-2.4.67-4.21,1.42-6.35,2.71-3.47-2.67-6.98-5.36-10.67-8.2,4-3.37,5.6-5.3,7.48-10.22h0s0,0,0,0Z" fill="url(#radial-gradient-31)" stroke-width="0"/><path d="M596.09,445.12c-.24,3.24-3.55,7.73-7.3,7-2.36-.45-7.65-6.47-7.76-8.73-.43-8.57,15.76-7.94,15.06,1.72h0Z" fill="url(#radial-gradient-32)" stroke-width="0"/><path d="M611.85,433.31c-.99-3.72-2.7-9.21,1.13-12.03,2.72-2.01,6.98-1.26,9.33.95,2.55,2.4,3.14,6.17,1.26,9.13-2.87,4.5-7.32,2.1-11.71,1.97h0Z" fill="url(#radial-gradient-33)" stroke-width="0"/><path d="M313.45,430.59c3.73,4.13,10.56,6.64,15.59,8.78,1.88.79,6.73,2.01,7.74,3.69,1.26,2.12-1.74,5.56-3.84,5.98-4.25.87-13.05-5.17-16.7-7-5.74-2.55-9.87-8.44-2.79-11.46h0s0,0,0,0Z" fill="url(#radial-gradient-34)" stroke-width="0"/><path d="M470.57,440.89c4.13,2.46,8.82-.53,10.79,4.83,1.99,5.45-2.32,5.15-5.9,7.59-1.94,1.32-2.08,2.24-4.32,1.66-1.38-.36-3.06-2.13-3.77-3.3-2.55-4.25.14-7.88,3.22-10.78h0s0,0,0,0Z" fill="url(#radial-gradient-35)" stroke="url(#radial-gradient-36)" stroke-miterlimit="10" stroke-width=".73"/><path d="M491.66,421.1c.69,2.68,2.11,5.01,5.54,5.66-.63,2.41-1.65,7.28-4.03,8.56-2.37,1.27-6.22-.27-7.73-2.24-1.43-1.88-2.03-6.1-1.16-8.28,1.38-3.47,4.09-3.8,7.38-3.7h0Z" fill="url(#radial-gradient-37)" stroke="url(#radial-gradient-38)" stroke-miterlimit="10" stroke-width=".73"/><path d="M607.89,424.92c-.86-3.85-3.13-5.02-6.54-5.87.08-2.83-.26-6.72,2.14-8.59,1.87-1.45,5.41-2.47,7.62-1.78,2.87.88,8.34,6.41,6.4,9.82-1.69.36-6.99,2.27-9.63,6.43h0Z" fill="url(#radial-gradient-39)" stroke-width="0"/><path d="M485.44,435.33c2.26,1.77,4.76,1.96,7.49,1.88-1.18,2.96-5.1,13.91-8.97,12.81-.57-.74-1.49-6.26-1.43-7.49.14-2.43,1.93-5.02,2.9-7.2h0s0,0,0,0Z" fill="url(#radial-gradient-40)" stroke="url(#radial-gradient-41)" stroke-miterlimit="10" stroke-width=".73"/><path d="M470.77,457.64c-.41,4.14-.11,6.38,1.29,10.34-1.43,1.1-3.13,2.41-4.77,3.68-5.81-3.31-4.28-16.5,3.48-14.02h0Z" fill="url(#radial-gradient-42)" stroke="url(#radial-gradient-43)" stroke-miterlimit="10" stroke-width=".73"/><path d="M582.14,437.47c-1.02,1.71-1.96,3.29-3.02,5.07-2.12-1.91-4.25-3.84-6.55-5.91,3.67-3.62,6.22-1.76,9.56.84Z" fill="url(#radial-gradient-44)" stroke-width="0"/><path d="M496.24,409.9c-1.64,2.01-2,2.46-3.14,4.63-.7,1.32-3.43,2.44-6.18-.74-2.72-3.16-.64-6.8,1.83-8.42,3.29-2.16,8.65,2.8,7.49,4.53h0Z" fill="url(#radial-gradient-45)" stroke="url(#radial-gradient-46)" stroke-miterlimit="10" stroke-width=".73"/><path d="M347.28,415.18c-1.33,1.48-3.24,3.17-4.5,4.59-1.92-2.56-5.14-6.39-7.24-8.8,3.75.18,8.91,1.82,11.75,4.23h0Z" fill="url(#radial-gradient-47)" stroke-width="0"/><path d="M606.34,425.09c-2.93-1.08-7-.66-8.54-1.49,4.82-7.73,8.76-5.39,10.5-.42,1.49,4.27-.77,2.35-1.97,1.9h0s0,0,0,0Z" fill="url(#radial-gradient-48)" stroke-width="0"/><path d="M470.06,425.97c-.15-.82-.2-3.76.51-3.77.12,0,2.28,1.94,2.27,1.96-.26.28-2.39,1.45-2.78,1.81h0s0,0,0,0Z" fill="url(#radial-gradient-49)" stroke-width="0"/><path d="M600.55,483.36c-.01-.39-.08-.75-.17-1.1-.11-.74-.27-1.47-.55-2.24-.03-.08-.05-.14-.09-.22-.1-.5-.2-.98-.29-1.47-.1-.57-.21-1.14-.34-1.71-.24-1.04-.77-1.77-1.44-2.24-.04-.18-.1-.35-.14-.52,0-.15,0-.31-.02-.47.01-.41-.06-.84-.21-1.31-1.09-3.39-2.51-6.52-4.49-9.49-.34-.51-.72-.9-1.17-1.18-.17-.27-.36-.56-.53-.83-.69-1.46-1.47-2.84-2.4-4.21-.41-.6-.9-1.05-1.42-1.35-.24-.39-.48-.77-.72-1.17-.41-.68-.93-1.14-1.49-1.46-.16-.38-.38-.71-.65-.98-.24-.61-.5-1.23-.79-1.83-.56-1.16-1.68-1.76-2.88-1.88-.13-.23-.28-.45-.45-.68h0c-.28-.65-.65-1.12-1.07-1.45-.43-1.73-1.67-2.6-3.02-2.77-1.01-1.01-2.07-1.99-3.17-2.92-.25-.28-.51-.55-.79-.81-.08-.07-.15-.13-.23-.19-.5-.48-1.01-.96-1.6-1.42-.38-.3-.77-.5-1.13-.62-.11-.08-.21-.16-.31-.25-.4-.43-.82-.84-1.27-1.24-.38-.32-.81-.57-1.25-.74-.44-.43-.93-.82-1.45-1.19-.45-.48-.97-.9-1.53-1.3-.17-.15-.35-.3-.52-.45-.87-1.08-1.91-2.01-3.15-2.85-.13-.09-.27-.15-.41-.22-2.57-2.13-5.26-4.08-8.5-5.46-7.48-3.19-14.29-7.45-22.05-10.13-6.35-2.18-13.48-4.94-20.16-3.39-1.62-.05-3.27.2-5.11.35-3.38.27-6.26,2.44-8.18,5.15-1.83,2.57-3.04,6.54.22,8.6,2.53,1.6,5.88-.27,8.14-1.95.52-.01,1.04-.09,1.54-.2.45-.1.9-.2,1.31-.25.23.2.49.38.76.52,1.11.84,2.49.78,3.65.17.1.02.2.04.3.07.88.21,2.37.35,3.06.86,1.14.85,2.3.91,3.26.5.4.14.81.26,1.21.4.59.56,1.41.93,2.47.96h.16c.44.17.89.32,1.33.5.8.32,1.53.35,2.15.19,1.67.58,3.27,1.42,4.89,2.2,2.89,1.38,5.8,2.72,8.67,4.13h0c.18.35.44.68.8.98.63.53,1.26.96,1.9,1.32.17.15.36.31.59.48,1.58,1.23,3.64,1.29,5.22,2.42.88.63,1.76.81,2.55.68.25,1.1,1.07,2.01,2.6,2.29.86.16,1.72.31,2.59.47.14.65.51,1.28,1.18,1.85,3.16,2.72,5.97,5.71,8.47,9.04,1.1,1.47,2.77,1.57,4.16.91.35.3.7.6,1.05.91.02.04.03.09.05.13.32.68.75,1.17,1.22,1.49.11.16.22.33.32.51.26.38.56.69.91.95.16.21.32.42.49.63.18.22.37.42.55.58.03.04.06.09.09.13.4.57.73,1.17,1.03,1.81.34.68.77,1.17,1.25,1.5.06.08.12.15.18.23.46.68.93,1.34,1.39,2.02.3.44.66.78,1.03,1.04,1.03,1.56,2.06,3.12,3.09,4.68.45.69,1.02,1.17,1.63,1.47.06.14.12.27.18.41.04.13.09.27.13.4.42,1.07.84,2.13,1.26,3.2.35.86.92,1.41,1.62,1.72.46.79.94,1.56,1.45,2.32-.04.41-.03.84.08,1.31.45,1.94,1.14,3.72,2.08,5.47.11.19.23.37.36.54.36,2.23.16,4.3-.63,6.62-1.45,4.3,4.58,6.54,6.83,3.3,1.03-.28,1.95-1.08,2.41-2.54.3-.94.52-1.87.73-2.81.11-.17.19-.37.28-.57.64-.59,1.06-1.49,1.03-2.69s-.07-2.42-.1-3.63v-.02s-.04,0-.04,0Z" fill="url(#radial-gradient-50)" stroke-width="0"/><path d="M585.7,407.96c-.26.09-.52.19-.77.28-.25-.4-.06-.63.58-.69.06.13.12.27.18.41h0Z" fill="#fff" stroke-width="0"/><path d="M481.69,439.09c.58.24-.36,3.67-.78,4.18-1.36-.22-.56-3.66.78-4.18Z" fill="url(#radial-gradient-51)" stroke-width="0"/><path d="M621.92,435.15c-.25-.04-.06-.6.79-.95,0,0,2.42-2.36,2.68-3.17.95-2.97,2-5.65-1.21-9.73-.06-.09-.16-.15-.24-.23-1.21-1.06-3.85-2.61-5.53-2.72,0,0,1.45-3.33-1.52-6.63-1.33-1.48-3.05-2.56-5.76-3.4-2.64-.82-5.65.26-6.51,1.07-2.21,2.08-3.36.66-5.46-1.42-.93-.51-2.27-1.24-3.5-1.57-.41-.11-1.1-.16-1.18-.2-.52-.26,4.77-8.73,5.98-13.24,1.11-4.15,2.63-13.44.63-22.03-.91-3.9-2.19-7.71-3.7-11.42-.73-1.79-1.44-4.66-2.74-6.13-1.71-1.94-1.17-1.3-2.9.12-2.38,1.97-4.59,6.62-6.83,8.94-1.75,1.82-3.52,3.63-5.14,5.57-3.79,4.53-8.1,8.72-11.66,13.5-2.13,2.85-3.37,7-5.63,9.54-2.31-2.34-5.31-3.3-8.43-4.08,2.37-5.86,3.98-11.28,3.34-17.69-.3-2.98-.99-5.9-1.86-8.76-.79-2.56-1.62-7.59-3.42-9.59-1.93-2.14-2.44-.44-3.94,1.7-1.96,2.81-3.84,5.68-5.84,8.47-1.94,2.73-3.99,5.37-5.93,8.11-1.46,2.08-2.87,5.68-4.92,7.19-6.84-8.78-19.47-9.4-26.15-7.3,1.32,3.11,3.7,6.01,5.25,9.07,1.78,3.52,3.33,7.16,5.29,10.6.29.52.84,1.26,1.35,2.05-2.79-1.14-6.38-.58-10.45,2.34-.5-3.97-1.77-7.16-5.07-9.35l-3.21.34c.09.15.15.31.23.47.08.08.13.16.2.24,1.01.21,3.25.91,4.77,3.14.94,1.38,1.4,3.11,1.24,5.08,0,0-.37.1-.71.04-1.98-1.19-4.05-2.21-6.15-2.65-.08.06-2.22-.9-7.41,1.71-4.47,2.25-5.35,8.86-3.92,13.76-.94.38-2.33,4.44-3.88,3.62-2.28-1.21-7.07-1.43-8.76-.6-3.8,1.83-4.69,4.03-5.27,5.48-4.06-3.5-9.76-4.47-13.87-.39-4.08,4.05-2.52,9.46.32,13.75-5.1,4.63-5.61,9.88-1.82,15.61-7.35,7.73-2.12,19.9,8.85,17.62-1.41,4.87.4,7.87,2.53,12.13-2.71,1.55-5.62,4.09-8.81,3.87-3.18-.21-5.43-1.98-8.84-1.25-6.92,1.49-7.32,6.69-8.77,12.24-2.53,2.19-8.67,2.8-11.91,3.44-4.11.82-5.91,1.51-9.12-.92-5.66-4.26-15.19-3.93-16.99,4.3-8.64-.8-17.46-1.67-25.68-4.64-5.6-2.02-4.72-9.43-11.52-10.85-2.91-.6-5.5,1.2-8.07.32-2.14-.73-7.37-5.57-7.75-7.83-.59-3.42,1.19-5.86-1.3-9.01-1.97-2.48-4.76-3.12-7.77-3.2-1.19-4.05-2.85-6.74-.78-10.3,1.43-2.46,2.96-4.51,1.34-7.44-.89-1.6-2.46-2.13-2.87-3.9-.38-1.6,1.12-4.6,1.7-6.07,1.1-2.84,2.41-5.7,4.55-7.77,2.12-2.07,4.61-4.24,6.61-6.81,2.61-3.34.3-5.03-3.15-6.84-3.13-1.65-16.71-4.57-13.69,2.46-6.48,4.02-11.42,9.54-15.16,16.17-6.44-1.23-11.58,3.88-8.54,10.42.98,2.11,1.74,1.94,1.69,4.32-.03,1.65-.98,3.96-1.28,5.6-.69,3.76-.82,7.54-1.25,11.34-9.47,4.22-8.33,13.1-1.21,19.13,3.88,3.29,4.71,9.82,6.84,14.49,2.16,4.74,4.91,9.12,7.64,13.55-1.92,6.18-1.03,11.73,5.4,14.81,2.81,1.35,5.59.65,8.38,1.52,2.92.92,5.83,4.23,8.33,6,12.14,8.6,25.39,14.5,39.16,19.92-.22,7.56,4.78,12.41,12.52,12.01,3.78-.19,7.06-1.76,10.2-3.72,3.69-2.3,5.79-1.38,10.12-.8,8.28,1.09,16.67,1.43,25.02,1.47,4.13.02,8.25-.11,12.36-.39,3.39-.24,7.39-1.5,10.26.43,2.65,1.79,3.65,3.34,7.25,3.33,2.84,0,5.56-.95,7.74-2.77,2.15-1.8,3.14-4.53,5.66-5.87,2.96-1.58,9.7-3.24,12.93-4.15,16.32-4.62,29.74-10.12,44.96-17.5,4.42,3.33,9.35,3.47,13.51-.58,3.75-3.66,2.36-8.37,4.67-12.38,1.11-1.93,4.11-3.27,5.9-4.57,1.59-1.14,3.16-2.32,4.72-3.51-1.14,3.28-1.68,6.77-1.75,10.23-.12,5.41.8,10.84,2.27,16.04.65,2.29,2.59,11.75,5.09,12.48,2.04.59,8.06-10.59,9.27-12.4,3.23-4.79,6.7-9.55,9.06-14.86.83-1.86,1.48-3.81,1.89-5.78,2.32,3.23,3.77,5.28,4.1,5.79,2.12,3.26,17.87,19.06,19.24,13.63,2.53-10,4.33-21.62,4.96-31.9.6-10.04-2.74-17.19-9.92-24,1.21-1.36,3.6-1.97,5.16-2.98,2.24-1.45,4.31-3.18,6.13-5.14,3.24-3.49,5.93-7.78,7.07-12.44,2.49-10.21-3.89-23.57-10.47-24.77l.02-.02h0ZM622.3,422.22c2.55,2.4,3.14,6.17,1.26,9.13-2.87,4.5-7.32,2.1-11.71,1.97-.99-3.72-2.7-9.21,1.13-12.03,2.72-2.01,6.98-1.26,9.33.95h0ZM604.97,410.74c1.87-1.45,4.31-1.61,6.51-.93,2.87.88,7.45,5.27,5.51,8.67-3.12.05-6,1.08-8.06,4.66-.87-3.96-3.71-4.46-6.91-4.32.87-3.45.55-6.2,2.95-8.07h0ZM585.92,420.78c9.77.29,9.73,15.04.27,15.48-10.32.48-10.74-15.79-.27-15.48h0ZM576.1,420.72c-10.03-.36-9.01-16.28,1.02-15.66,10.06.62,9.01,16.03-1.02,15.66ZM577.73,423.14c-1.19,3.09-2,6.14-.28,9.43-2.4.67-4.21,1.42-6.35,2.71-3.47-2.67-6.98-5.36-10.67-8.2,4-3.37,5.6-5.3,7.48-10.22,2.26,3.83,5.34,5.95,9.81,6.29h0s0,0,0,0ZM582.14,437.47c-1.02,1.71-1.96,3.29-3.02,5.07-2.12-1.91-4.25-3.84-6.55-5.91,3.67-3.62,6.22-1.76,9.56.84ZM596.09,445.12c-.24,3.24-3.55,7.73-7.3,7-2.36-.45-7.65-6.47-7.76-8.73-.43-8.57,15.76-7.94,15.06,1.72h0ZM601.29,424.72c10.37-.85,10.93,15.62.4,15.41-9.55-.19-9.73-14.64-.4-15.41h0ZM608.36,425.39c-6-2.71-8.32-1.33-10.56-1.79,6.72-8.3,10.92-1.11,10.56,1.79ZM600.99,412.53c1.33,3.71-.61,8.59-4.44,10.03-3.85,1.45-6.71-3.25-10.86-3.61.13-4.49,0-9.06,4.83-11,4.12-1.66,8.95.36,10.48,4.57h0ZM592.73,405.2c-1.54.41-3,.89-4.4,1.43-1,.39-3.77-.19-5.1-.02,2.09-3.76,11.75-11.36,14.68-11.72-.15,4.22-3.62,6.73-5.18,10.31h0ZM598,394.31c-.26-.71-7.1,2.31-8.29,3.27-2.53,2.03-5.36,6.24-8.5,6.99,1.01-4.21,2.54-10.49,5.56-13.65,2.98-3.12,9.04-6.29,13.04-7.83,1.06,2.15-.13,9.3-1.81,11.23h0s0,0,0,0ZM594.46,358.13c.9,1.52,2.78,4.77,2.37,6.51-.41,1.7-3.45,3.96-4.62,5.19-.4-3.13.72-8.93,2.25-11.7h0ZM598.04,366.98c1.52,4.22,2.49,8.49,2.67,13-4.62,2.82-9.19,5.61-13.77,8.41l-.28-.23c2.77-7.56,2.87-17.41,11.38-21.18h0ZM591.13,358.07c.15.06.3.13.45.18.03,1.79.13,3.59-.48,5.32-.17.03-.33.08-.51.11-.56-.99-1.12-1.98-1.72-3.02.82-.95,1.53-1.78,2.24-2.6h0ZM588.08,361.8c1.78,2.94,3.47,5.61,1.56,9.1-2.54-2.83-4.34-6.33-1.56-9.1ZM585.2,365.45c1.46,3.44,3.88,7.18,3.24,10.94-.43,2.53-1.91,9.93-3.7,11.74-1.9-3.66-5.15-10.56-5.35-14.67-.16-3.15,3.21-6.36,5.81-8.01h0ZM565.35,389.87c2.21-6.53,7.77-11.22,12.33-16.07,4.58,8.62,8.43,20.12,1.87,28.72-1.64-1.87-1.98-4.64-3.1-7.11-.92-2.05-5.72-12.66-6.1-13.89-1.4,2.01,6.85,18.26,7.65,21.75-1.58.23-2.98.44-4.55.66-.93-1.49-2.45-1.3-4.11-.67.92.32,1.83.64,3.02,1.06-1.24,1.1-2.33,2.08-3.62,3.23-.59-3.07-.47-6.32-1.55-9.28-1.25-3.39-3.13-4.65-1.86-8.4h0ZM554.24,382.52c-1.49,4.62-3.62,4.44-8.19,5.29,2-3.14,5.51-5.8,8.14-8.4-1.29-2.15-7.66,7.07-9.56,8.05.48-2.87,1.05-7.02,2.65-9.49,1.61-2.49,5.89-5.2,8.51-6.55.23,3.65-.41,7.59-1.54,11.09h0ZM550.73,353.83c1.23,1.29,1.86,2.55,2.65,5.19-1.06,1.19-2,2.6-3.76,3.78.38-3.14.73-5.91,1.1-8.97ZM553.78,360.47c1.09,1.9,2.84,6.68,2.11,8.85-.6,1.78-6.37,5.49-8.23,6.12.42-2.68.57-5.66,1.33-8.26.82-2.78,2.86-4.55,4.8-6.71h0ZM548.69,354.77c.47,1.58.13,5.9-.96,7.99-1.45-3.43-2.35-5.25.96-7.99ZM545,359.57c2.6,5.53,2.59,8.84,1.52,14.82-.14.03-.27.05-.41.09-1.32-1.88-3.51-6.5-3.82-8.83-.34-2.59,1.2-4.01,2.72-6.07h0s0,0,0,0ZM540.66,365.51c1.91,3,3.93,7.46,4.66,10.96.61,2.94-.78,6.16-1.54,9.03-2.66-3.69-4.26-7.5-6.21-11.1-.15.04-.29.09-.44.13.85,4.55,4.99,8.19,5.55,12.7-2.27,1.05-7.11-3.43-7.85-5.32-.76,1.13-.56,3.25-2.86,2.23-2.11-6.52,5.13-13.93,8.69-18.64h0s0,0,0,0ZM543.35,391.93c-.1.16-.19.32-.3.49-2.7-.3-6.89-1.63-9.23.03,4,3.49,13.49,2.21,18.46,1.96.88-.04,5.2.62,3.71-1.44-1.02-1.4-8.37-.22-10-.16-.66-4.74,5.21-4.68,8.7-3.83,4.79,1.16,8.65,5.29,10.45,9.77,3.54,8.8.68,21.06-6.53,27.28-12.77-8.25-25.92-15.58-41.14-18.25-.11-.46-.2-.91-.27-1.37.34-7.46.71-8.18,3.5-12.83,5.47-7.43,15.86-10.78,22.64-1.63h0s0-.02,0-.02ZM519.21,382.48c3.69-3.34,6.17.07,8.68,2.91-2.97.2-5.43-2.65-8.68-2.91ZM529.85,384.57c-2.19-1.77-3.33-8.08-3.41-10.88,3.82,2.1,5.86,6.94,3.41,10.88ZM527.13,382.23c-1.28-.12-5.21-3.8-6-4.95-1.24-1.81-1.2-4.8-1.57-6.97,6.6,1.02,6.36,6.36,7.56,11.91h0ZM518.27,369.83c.39,1.95.78,3.8,1.17,5.7-3.28-.72-5.27-2.77-5.91-6.3,1.67.21,3.15.39,4.74.59h0ZM512.5,371.12c-1.35.14-2.25-.74-3.64-1.32,2.61-1.02,3.09-.84,3.64,1.32ZM508,370.57c1.94.87,3.55,1.69,5.49,2.87-3.2.31-4.37-.32-5.49-2.87ZM510.61,375.19c2.6-1.48,6.3-.39,8.45,2.63-2.89-.25-7.38.61-8.45-2.63ZM512.27,378.82c2.6-.78,7.96-.24,9.68,1.01-2.11,1.22-5.94,1.53-8.35,2,3.36,1.11,9.05,1.42,11.79,4.65-1.19.92,1.3-1,0,0-1.06-1.48-7.63,1.74-8.35-.15,3.13-.05,7.04,1.92,7.04,1.92-.01,1.4-4.35,3.34-4.62,3.52-3.15-2.65-5.39-9.14-7.19-12.95h0ZM517.92,410.97c.05.07.11.14.15.21.22-.02.42-.04.64-.07.47,0,.92.11,1.32.3,3.59.79,7.1,1.89,10.51,3.22,12.75,4.98,24.88,12.26,35.57,20.76,10.5,8.34,20.49,18.29,27.09,30.07,3.14,5.59,6.32,12.31,6.89,18.77.52,5.71-2.71,15.59-10.19,11.76,3.67-10.84-3.83-22.83-10.14-31.17-6.46-8.53-14.29-16.17-22.78-22.68-7.88-6.04-30.65-18.5-45.2-20.05-6.25-1.15-7.45-1.57-12.02,1.45-1.72,1.13-4.01-.42-4.01-.42-1.01-.77-1.38-2.45-1.38-3.61,0-1.62.85-5.25,3.87-7.24,2.71-1.78,6.41-2.09,9.56-2.15,3.39-.08,6.77.24,10.1.84h0ZM568.99,480.16c-6.1,7.6-12.95,15.21-15.5,16.83-2.06-3.59-4.13-7.17-6.3-10.95,4.78-5.42,19.88-25.36,22.09-28.55,3.23,3.44,6.13,6.76,8.67,10.47-1.66,2.64-9.1,12-8.96,12.2h0ZM481.35,445.72c1.99,5.45-2.32,5.15-5.9,7.59-1.94,1.32-2.08,2.24-4.32,1.66-1.38-.36-3.06-2.13-3.77-3.3-2.55-4.25.14-7.88,3.22-10.78,4.13,2.46,8.82-.53,10.79,4.83h0s0,0,0,0ZM480.88,440.32c.58.24.67.62.24,1.12-.64-.2-.71-.58-.24-1.12ZM475.45,440.74c-9.95-.2-9.79-15.79.19-15.59,10.1.2,10,15.8-.19,15.59ZM471.19,423.77c.12,0,.35.35.33.38-.26.28-.56.55-.95.92-.15-.82-.09-1.28.61-1.29h0ZM485.44,435.33c2.26,1.77,4.76,1.96,7.49,1.88-1.18,2.96-5.1,13.91-8.97,12.81-.57-.74-1.49-6.26-1.43-7.49.14-2.43,1.93-5.02,2.9-7.2h0s0,0,0,0ZM499,431.86c2.25-5.44,3.56-10.32,10.71-8-1.8,6.85-5.15,13.58-8.47,19.8-.9,1.68-2.27,5.7-4.01,6.7-1.59.9-5.12-.29-6.76-.51,2.3-6.15,6-11.87,8.54-17.97h0s0-.01,0-.01ZM511.49,424.09c4.86.49,9.39,2.21,14.34,4.02-4.37,9.58-9.02,18.67-14.99,27.05-4.05-1.4-7.94-2.74-11.86-4.09,4.53-8.89,8.65-17.77,12.53-26.98h0s0,0,0,0ZM527.16,428.76c2.06.78,4.03,1.64,5.95,2.57.37.49,6.55,3.06,6.74,3.52.05.03.11.05.17.09-.02.05-.05.12-.07.19.02.07.05.14.06.21.03.34-2.48,4.52-2.54,4.54-4.29,7.47-12.44,19.97-14.7,22.17-3.46-2.03-6.81-4.01-10.4-6.12,5.4-8.87,10.26-17.83,14.8-27.18h0ZM539.6,440c.2-.26,1.58-3.26,2.07-4.02,4.3,2.2,11.02,6.75,12.7,8.57-.56,1.24-16.89,25.67-19.03,27.78-3.62-3.03-7.26-6.08-10.87-9.1,4.93-7.82,15.12-23.22,15.13-23.24h0ZM550.04,454.27l1.23-1.82c1.55-2.28,3.09-4.55,4.65-6.86,4.39,3.21,8.42,6.86,12.19,10.76-1.05,1.82-3.53,5.37-6.49,9.35,0,0-13.63,17.54-15.4,18.8-3.11-3.59-6.23-7.18-9.37-10.8,4.36-6.43,8.75-12.9,13.19-19.45h0ZM504.91,395.89c-.72.3-1.23.51-2.17.9,1.02.63,6.03,1.16,6.03,1.16,2.7-.02,5.41-.61,6.42-2.14.79-1.22.86-1.34-.61-1.48-2.19-.21-4.69,1.93-7.09,1.99l-.22-.29c2.07-3.05,7.69-5.05,11.55-3.31-.44.72-3.27,9.39-3.55,12.87v.02c-.09.14-.6,2.05-1.78,1.9-2.32-.27-1.52-.29-4.19-.5-2.77.08-3.96-.17-6.23.27-2.24.44-3.57,1-5.5,2.11-2.15-3.46-5.3-5.3-9.39-5.02-1.66-10.86,9.06-15.78,16.74-8.48h0s0,0,0,0ZM488.52,406.19c2.07-.87,7.98,1.79,7.33,3.87-1.64,2.01-2.21,2.85-3.36,5.02-2.13.84-3.19-.25-5.19-2.3-.68-2.37-1.41-5.5,1.22-6.59h0ZM491.66,421.1c.69,2.68,2.11,5.01,5.54,5.66-.63,2.41-1.65,7.28-4.03,8.56-2.37,1.27-6.22-.27-7.73-2.24-1.43-1.88-2.03-6.1-1.16-8.28,1.38-3.47,4.09-3.8,7.38-3.7h0ZM485.99,417.61c.32,9.1-16.12,8.82-15.56-1.06.57-10.01,15.86-8.98,15.56,1.06ZM461.83,412.86c9.93.2,9.78,15.77-.28,15.55-9.95-.21-9.79-15.76.28-15.55ZM453.33,439.64c-1.19-2.98-.71-7.65,2.17-9.64,1.91-1.32,1.84-.62,4.13-.24,2.36.4,4.5-.09,6.85-.02-.94,3.59-.17,6.69,1.99,9.33-2.61,6.96-12.19,7.93-15.14.55h0ZM453.37,456.89c-2.28-2.77-2.7-8.09.12-10.75,1.91-1.8,2.04-.65,4.4,0,2.25.63,4.1.03,6.35.1.72,4.03,3.79,8.07.2,11.4-3.22,2.99-8.31,2.61-11.08-.76h0s0,0,0,0ZM470.77,457.64c-.41,4.14-.11,6.38,1.29,10.34-1.43,1.1-3.13,2.41-4.77,3.68-5.81-3.31-4.28-16.5,3.48-14.02h0ZM471.9,472.35c2.83-2.1,6.49-4.69,9.39-5.86,23.06-15.32,75.55,49.4,58.74,63.52-4.87,1.63-21.58,9.67-26.81,12.1-2.11.97-32.69,10.89-31.4,9.01,9.5-13.99-2.61-63.82-20.71-71.79,3.68-2.24,7.34-4.41,10.81-6.98h0s0,0,0,0ZM436.72,492.36c5.22-1.76,7.74-2.88,13.14-1.25-1.21,3.44-11.95,4.83-14.99,5.34-3,.51-12.03,3.26-12.84-.66,4.94-.96,9.9-1.82,14.68-3.43h0ZM453.54,540.7c-10.56.7-23.99,1.58-34.17-1.62,1.35-3.99,2.65-7.85,4.04-11.96,14.3.32,28.62-.68,43.11-3.65.25,2.05.58,4.08.75,6.14.14,1.78,1.12,6.58.34,8.14-1.57,3.14-10.59,2.73-14.07,2.95h0ZM466.05,548.54c-1.26,1.28-3.78,1.02-5.42,1.2-5.37.59-10.75.95-16.15,1.08-10.05.23-20.83.51-30.72-1.51,1.62-2.88,3.14-5.57,4.77-8.47,16.24,2.23,32.47,2.33,48.7-.05.07,1.69.1,6.45-1.18,7.76h0ZM423.62,525.41c1.2-5.92,1.45-11.6,1.27-17.51,11.9-.26,23.6-1.39,35.13-4.8,3.48,5.78,5.14,12.06,6.22,18.83-14.03,2.94-28.08,3.94-42.61,3.48h0s0,0,0,0ZM424.72,506.28c-.51-2.3-.99-4.48-1.52-6.91,7.33-.93,14.47-1.43,21.5-3.89,2.33-.81,5.55-3.21,7.89-2.38,2.58.92,5.47,6.43,6.68,8.7-11.46,3.24-22.86,4.39-34.54,4.48h0ZM346.41,414.92c-1.33,1.48-2.46,2.74-3.73,4.16-1.92-2.56-3.89-4.99-5.99-7.41,3.75.18,6.88.86,9.72,3.25h0s0,0,0,0ZM333.79,414.05c-.56.65,7.23,6.23,6.37,7.44-2.12,3.04-3.02,5.21-4.32,7.78-.96,1.91-1.18,3.28-3.04,7.17-.11-.34-15.2-5.05-14.8-5.54,1.25-1.51,5.23-6.82,7.72-9.22,2.14-2.06,4.4-4.83,8.06-7.62h0s0-.01,0-.01ZM313.69,431.93c3.73,4.13,9.55,6.74,14.6,8.89,1.88.79,6.47,1.02,7.48,2.7,1.26,2.12-.62,4.12-2.72,4.54-4.25.87-12.19-4.25-15.84-6.08-3.71-1.86-10.6-7.04-3.52-10.06h0ZM310.29,464.94c-1.98-8.22,1.14-12.87,1.66-19.89.06-.94.42-3.2,1.15-2.61,4.46,3.65,15.79,8.06,21.28,7.63-.78,2.41.23,5.44.32,6.03.27,1.69,1.43,4.07,1.41,5.9-.1,7.28-19.44,11.91-25.81,2.94h0s0,0,0,0ZM304.87,473.89c-1.77-3.04-1.84-8.44,2.52-9.24,3.14,8.99,14.18,9.07,22.25,6.42,2.25-.74,4.67-1.71,6.58-3.15,1.28-.96,2.63-3.87,3.93-4.4,3.99-1.62,4.86,5.06,3.73,7.37-4.02,8.16-19.74,9.53-27.45,8.76-4.46-.44-9.13-1.61-11.54-5.77h0s0,0,0,0ZM311.28,481.86c2.6,3.2,31.14.84,33.58-7.21.78-2.59,6.94,6.96,10.9,9.28,2.58,1.51,1.78,7.45-3.61,14.73-3.38,4.57-21.74,13.22-28.77,8.62-5.81-9.57-8.94-15.26-12.11-25.4h0ZM323.7,510.26c4.72,1.55,7.62,2.46,12.62.98,4.16-1.23,8.15-3.12,11.69-5.64,7.87-5.62,12.76-12.7,11.32-22.49,7.4-4.68,9.04,7.86,7.89,11.94-1.92,6.8-7.14,12.32-12.58,16.55-5.46,4.24-11.98,7.76-18.88,8.89-5.69.93-16.3-2.53-12.07-10.24h0s0,0,0,0ZM386.93,548.62c-5.35.5-16.91-6.83-21.75-9.18-8.81-4.28-19.74-9.71-26.86-16.53,23.04-6.81,34.77-24.75,32.89-31.6-.05-.21,6.73,2.42,11.94,3.33,6.65,1.17,13.18,2.25,19.61,3.25,12.81,1.65,3.48,48.94-15.83,50.74ZM404.76,554.24c-3.33,2.76-7.41,4.86-11.85,4.6-3.18-.18-9.37-2.89-7.22-7.15,11.99,3.55,21.19-15.52,24.06-24.15,1.9-5.72,3.06-12.13,2.66-18.17-.46-6.89-2.4-10.88-7.97-14.69.93-4.6,6.77-4.16,9.83-2.28,3.32,2.04,4.94,5.67,5.98,9.26,2.62,9.18,1.22,19.96-1.53,28.96-2.58,8.45-7.03,17.88-13.95,23.64h0ZM455.29,555.12c-4.93.39-9.87.58-14.81.58-9.79-.01-20.53-.11-30.1-2.24,2.91-3.56,5.36-2.17,9.71-1.76,5.34.51,10.7.75,16.07.76,9.77.04,19.41-1.35,29.14-1.55-1.31,4.5-6.09,3.88-9.99,4.19h0s0,0,0,0ZM480.89,542.37c-.7,6.32-6.04,23.51-15.56,15.09,9.26-10.49,6.11-30.66,2.85-42.88-1.88-7.05-4.63-13.75-9.22-19.48-4.37-5.46-5.86-6.12-11.71-8.15-1.49-.51-6.45.63-4.41-4.52,3.02-7.63,16.48-1.12,20.71,3.12,6.88,6.88,11.27,16.53,13.93,25.76,2.89,9.96,4.53,20.69,3.39,31.06h0s0,0,0,0ZM544.55,530.89c5.93-15.42-5.72-34.84-15.8-45.84-11.47-12.49-28.4-26.15-45.9-22.99-4.72.85-8.63,5.74-9.26,3.48-2.67-9.49,3.51-11.19,5.4-11.88,7.98-2.88,16.01-.5,23.54,1.97,15.95,5.22,30.5,16.79,40.39,30.25,5.59,7.62,9.9,16.31,11.72,25.64,1.14,5.85,1.15,24.48-10.09,19.36ZM555.05,498.07c1.24-2.99,6.43-6.69,8.56-9.09,2.19-2.47,4.25-5.02,6.28-7.61.14.19,1.98-2.56,1.98-2.56,2.37-3.11,4.7-6.24,7.07-9.36,1.38,1.81,5.36,6.69,5.16,9.11-.19,2.28-3.72,5.51-6.3,7.84,0,0-14.34,14.42-20.98,19.46-.96-2.54-2.76-5.38-1.74-7.8h0s0,0,0,0ZM558.83,514.95c-1.62-2.73-1.92-6.43-.02-8.69,2.65-3.15,6.62-5.75,9.63-8.6,2.65-2.5,8.5-7.97,8.71-8.22.49-.46,1.36-2.1,1.36-2.1,2.18-2.33,4.37-4.65,6.62-6.92,1.26,2.61,3.11,7.19,2.37,10.23-.35,1.44-1.59,2.9-3.07,4.27,0,0-4.73,3.84-5.4,4.43-6.38,5.54-13.04,11.09-20.2,15.59h0ZM584.69,501.77c-.36,5.95-6.18,13.63-13.58,12.13l12.76-13.27c.27.39.55.76.82,1.14h0ZM570.84,517.07c3.76,3.09,8.1-5.27,11.47-6.1-.89,3.51-1.31,6.98-4.21,9.11-2.24,1.63-5.17,4.26-7.84,4.84-.06-2.61-.29-5.11.57-7.84h0ZM570.42,527.08c2.98-1.84,5.88-3.64,9.02-5.6-.21,3.14-1.18,6.54-2.08,9.59-.93,3.16-2.33,4.1-4.99,5.95-1.08-3.34-1.75-6.59-1.96-9.94h0ZM574.91,543.93c-1.15-1.72-1.34-3.35-2.14-5.02,1.06-.79,1.98-1.47,3.32-2.45-.41,2.66-.75,4.83-1.18,7.47h0ZM576.78,545.15c.33-2.29.61-4.24.93-6.43,2.14,2.59,2.56,2.79-.93,6.43ZM578.79,535.79c1.05,1.1,1.9,2.27,1.9,3.88-1.17-1.04-1.87-2.31-1.9-3.88ZM582.22,537.78c-3.4-4.97-2.87-7.47-1.47-13.1,1.15,2.17,2.11,4.47,2.9,6.8,1.02,2.98.42,3.72-1.43,6.29ZM585.79,532.34c-1.26-3.01-2.93-6.15-3.69-9.33-.72-3,.42-5.86,1.13-8.82.19-.04.4-.08.59-.13,2.13,3.8,4.24,7.6,6.34,11.41-1.09,2.24-2.55,4.45-4.37,6.87ZM590.82,523.46c-1.45-2.11-4.03-6.32-5.09-10.88-.8-3.48-.91-7.09-.27-9.74,3.56,4.92,6.61,9.15,8.98,12.45-.17,2.63-2.25,6.72-3.62,8.18h0ZM596.18,512.77c-3.59-4.99-9.19-10.5-9.46-13.39.03-1.12,3.34.61,3.36.27,1.61-.08,3.05.25,4.83-.12,1.65.03,3.79-1.51,4.81-2.47,2.96-5.13,2.31-3.64,4.71-9.19.14.36.34.97.39,1.75.27,3.74-1.85,5.83-4,10.42-2.39,5.11-4.2,11.91-3.58,12.27.66.38,2.1-6.83,4.46-11.21,1.95-3.61,2.97-6.91,3.52-9.19.04.26.09.6.14,1,0,0,.05.41.09.83.07.67.33,6.05.08,8.26-.39,3.44-3.04,8.51-7.52,13.5-.61-.72-1.23-1.67-1.84-2.75h0ZM599.47,517.23c-.07-1.44,2.42-4.51,3.14-5.76,1.43-2.49,2.86-4.97,4.29-7.45.75,3.84,1.44,7.68,2.17,11.53.93,4.84.13,6.97-2.19,11.39-2.27-2.3-7.24-6.35-7.41-9.7h0s0-.01,0-.01ZM608.37,528.37c.74-1.56,1.45-3.06,2.15-4.57.13.03.26.05.39.07.84,2.88,1.67,5.76,2.51,8.63-1.88-1.12-3.44-2.52-5.05-4.14h0ZM617.01,534.05c-1.23-1.01-2.58-4.67-2.85-7.61,1.27.77,2.33,1.42,3.6,2.18-.23,1.72-.49,3.51-.75,5.42h0ZM618.34,526.25c-3.45-.47-5.21-2.36-6.01-5.53.14-.06.28-.12.43-.18,2.06,1.65,4.09,3.33,5.8,5.34l-.22.38h0s0,0,0,0ZM618.92,523.16c-2.4-1.7-5.71-3.69-7.3-6.2-1.6-2.54-1.71-7.39-2.29-10.3.13-.04.25-.09.38-.13,2.76,2.88,5.67,5.68,8.3,8.68,2.43,2.76,1.57,4.36.92,7.95h0ZM617.22,486.97c2.56,1.68,5.21,9.2,4.35,12.07-.62.4-1.25.8-1.86,1.2,1.1,2.15,2.03,1.14,2.07,4.01.04,3.28-.81,6.85-1.19,10.12-3.69-2.22-8.75-7.7-11.12-11.32-2.03-3.11-2.99-9.47-2.6-13.17.16-.13.34-.25.51-.37.8,1.89,10.31,13.22,11.81,10.63-4.43-5.19-10.06-9.45-13.44-15.58.09-.14.17-.26.26-.4,2.17.62,4.24,1.47,6.46,1.89,1.56.29,3.41.01,4.77.91h0s0,0,0,0ZM614.93,484.26c-1.75.35-11.17-1.44-10.06-4.26,3.99-.14,7.26,1.17,10.06,4.26ZM619.47,474.49c-4.5,3.35-15.06,6.88-18.42.59-1.86-3.47-2.87-7.4-4.86-10.89-2.03-3.57-4.41-6.92-6.75-10.3,7.01-2.41,8.21-4.26,8.25-12.69,1.5.33,3.76.61,6.3-.05,1.25-.32,2.59-.42,4.31-1.92,3.18-2.77,3.48-3.75,7.22-3.71,1.39.02,3.43.1,6.14,2.22.81.63,9.12,7.27,8.69,18.47-.45,11.8-10.17,17.84-10.88,18.26Z" fill="url(#radial-gradient-52)" stroke-width="0"/></g><g id="trust"><path d="M657.1,770.01c-29.26,2.39-37.6,4.46-60.83-30.3-9.81-14.68,24.43-77.05,33.07-76.1" fill="#e6e6e6" stroke="#58595b" stroke-miterlimit="10" stroke-width="1.92"/><path d="M619.83,767.54c-6.86-4.83-27.52-28.79-26.36-33.43,2.49-9.98,40.27-9.95,42.27-3.14,1.26,4.3-10.81,9.15-14.29,16.97-3.34,7.49-4.38,15.43-1.62,19.6,2.3,3.48,38.98,10.21,94.03-13.52l-51.13-47.33,45.87-60.06-80.28,16.91" fill="#ebebeb" stroke="#58595b" stroke-linecap="round" stroke-miterlimit="10" stroke-width="1.92"/><path d="M590,733.03c2.61,2.12,8.24,10.52,14.83,18.93,6.6,8.44,18.63,17.91,16.29,16.47-13.91-8.53,32.65-10.96,26.47-33.33-6.82-24.67-60.45-4.41-57.59-2.08Z" fill="#999" stroke="#58595b" stroke-linecap="round" stroke-miterlimit="10" stroke-width="1.92"/><path d="M370.88,733.64c-2.79,2.09-8.82,10.35-15.87,18.63-7.07,8.3-19.94,17.62-17.44,16.21,14.89-8.4-34.95-10.79-28.33-32.8,7.3-24.28,64.71-4.34,61.64-2.04Z" fill="#999" stroke="#58595b" stroke-linecap="round" stroke-miterlimit="10" stroke-width="1.97"/><path d="M299.06,770.03c31.32,2.35,40.24,4.39,65.12-29.82,10.51-14.45-26.15-75.82-35.4-74.88" fill="#e6e6e6" stroke="#58595b" stroke-miterlimit="10" stroke-width="1.97"/><path d="M338.95,767.59c7.34-4.75,29.45-28.33,28.22-32.89-2.66-9.82-43.11-9.79-45.25-3.09-1.35,4.23,11.57,9.01,15.3,16.69,3.57,7.37,4.69,15.19,1.73,19.29-2.46,3.42-41.73,10.04-100.65-13.3l54.73-46.57-49.1-59.1,85.93,16.64" fill="#ebebeb" stroke="#58595b" stroke-linecap="round" stroke-miterlimit="10" stroke-width="1.97"/><path d="M378.69,724.71c-3.53,2.58-11.31,13.06-20.35,23.51-9.06,10.48-25.32,21.97-22.17,20.25,18.69-10.17-42.56-16.07-33.46-44.52,10.04-31.38,79.86-2.08,75.98.75Z" fill="#999" stroke="#58595b" stroke-linecap="round" stroke-miterlimit="10" stroke-width="2.51"/><path d="M618.36,647.22c-2.21-6.39-9.21-9.79-15.58-7.51-38.26,13.72-81.04,19.12-123.92,19.12s-86.37-6.06-124.74-19.86c-6.7-2.41-14.12.74-17.11,7.2-9.91,22.76-22.6,50.61-32.82,74.08-.37.86-2.38,6.99-2.14,6.09,2.92-11.25,18.51-3.72,24.93-1.46,83.33,29.31-2.05-.8,11.88,4.23,30.05,10.85,61.91,21.92,141.03,21.92,57.35,0,90.99-3.79,141.68-22.03,1.76-.63,8.2-2.87,10-3.38,10.13-2.86,16.04,5.19,16.1,6.1l-29.29-84.51Z" fill="#fff" stroke="#58595b" stroke-miterlimit="10" stroke-width="1.99"/><path d="M396.8,720.41l-11.47-2.32,8.61-42.58-10.88-2.2,2.01-9.93,33.16,6.71-2.01,9.93-10.81-2.19-8.61,42.58Z" fill="#231f20" stroke-width="0"/><path d="M436.71,671.87c4.23.39,7.7,1.31,10.41,2.74,2.7,1.43,4.66,3.37,5.86,5.82,1.2,2.45,1.65,5.42,1.32,8.9-.2,2.19-.7,4.15-1.49,5.89-.79,1.74-1.86,3.23-3.2,4.49-1.35,1.26-2.92,2.33-4.71,3.22l10.24,24.46-13.07-1.21-7.75-21.21-3.14-.29-1.89,20.32-11.8-1.1,4.95-53.34,14.27,1.33ZM435.51,681.55l-2.17-.2-1.3,14.04,2.24.21c2.39.22,4.25-.22,5.59-1.33,1.33-1.11,2.12-2.96,2.36-5.54.14-1.49,0-2.74-.44-3.73-.44-.99-1.17-1.78-2.19-2.35-1.03-.57-2.39-.94-4.08-1.09Z" fill="#231f20" stroke-width="0"/><path d="M500.37,708.89c.01,4.1-.7,7.59-2.14,10.47-1.44,2.88-3.55,5.08-6.32,6.59-2.77,1.51-6.23,2.27-10.38,2.29-6.05.02-10.67-1.59-13.86-4.83-3.19-3.24-4.79-7.96-4.81-14.16l-.12-35.26,11.78-.04.12,34.51c.01,3.45.61,5.9,1.79,7.35,1.18,1.45,2.92,2.17,5.22,2.16,1.6,0,2.91-.32,3.94-.95,1.02-.63,1.77-1.66,2.24-3.08.47-1.43.7-3.29.69-5.59l-.12-34.44,11.85-.04.12,35.04Z" fill="#231f20" stroke-width="0"/><path d="M540.35,708.1c.3,3.19-.11,6.09-1.24,8.71-1.13,2.62-2.93,4.76-5.38,6.43-2.45,1.67-5.52,2.67-9.21,3.03-1.69.16-3.31.21-4.85.16-1.54-.05-3.05-.25-4.54-.58-1.49-.33-2.99-.81-4.51-1.42l-1.1-11.58c2.31,1.09,4.68,1.89,7.09,2.41,2.41.52,4.64.69,6.68.49,1.34-.13,2.42-.44,3.23-.95.81-.5,1.37-1.15,1.7-1.93.33-.78.45-1.65.36-2.6-.09-1-.41-1.88-.93-2.66-.53-.78-1.4-1.52-2.62-2.24-1.22-.71-2.88-1.52-4.98-2.43-1.68-.74-3.22-1.54-4.64-2.38-1.41-.84-2.67-1.82-3.78-2.92-1.11-1.1-2.02-2.43-2.72-4-.7-1.57-1.16-3.44-1.37-5.63-.3-3.19.1-5.97,1.2-8.37,1.1-2.39,2.84-4.33,5.21-5.81,2.37-1.48,5.3-2.39,8.78-2.72,2.44-.23,4.83-.15,7.18.26,2.35.4,4.7,1.1,7.06,2.08l-2.41,10.25c-2.04-.86-3.95-1.48-5.72-1.87-1.77-.38-3.43-.5-4.97-.36-1.1.1-2.01.38-2.75.83-.74.45-1.26,1.01-1.57,1.69-.31.68-.43,1.45-.35,2.29.1,1.1.43,2.02.98,2.77.55.75,1.45,1.47,2.69,2.16,1.25.69,3,1.52,5.25,2.51,2.46,1.02,4.55,2.18,6.28,3.47,1.73,1.29,3.09,2.81,4.09,4.55.99,1.74,1.61,3.85,1.85,6.34Z" fill="#231f20" stroke-width="0"/><path d="M571.18,718.48l-11.47,2.32-8.62-42.58-10.88,2.2-2.01-9.93,33.16-6.71,2.01,9.93-10.81,2.19,8.62,42.58Z" fill="#231f20" stroke-width="0"/></g><g id="in_devs_we"><path d="M200,445.53c38.96-27.34,51.53-33.43,43.83-99.94-3.25-28.09-113.12-61.21-122.88-51.1" fill="#e6e6e6" stroke="#58595b" stroke-miterlimit="10" stroke-width="3.11"/><path d="M243.42,404.35c3.45-12.99,4.3-64.01-2.03-68.49-13.62-9.62-60.65,29.49-55.96,39.88,2.96,6.56,23.12,0,35.69,5.95,12.06,5.7,22.09,14.29,22.68,22.28.53,7.09-37.79,52.78-131.37,80.73l13.79-110.71-120.45-25.95,117.81-62.36" fill="#ebebeb" stroke="#58595b" stroke-linecap="round" stroke-miterlimit="10" stroke-width="3.11"/><path d="M243.01,403.99c-4.37-3.26-9.26-14.43-25.14-21.49-15.92-7.08-28.54-1.02-30.64-4.91-3.82-7.03,45.26-57.98,55.93-38.66,6.39,11.56,4.65,68.63-.15,65.06Z" fill="#999" stroke="#58595b" stroke-linecap="round" stroke-miterlimit="10" stroke-width="3.11"/><path d="M739.45,452.71c-37.29-26.68-49.32-32.61-41.94-97.49,3.11-27.4,106.86-67.2,116.2-57.34" fill="#e6e6e6" stroke="#58595b" stroke-miterlimit="10" stroke-width="3"/><path d="M697.9,412.53c-3.3-12.67-4.12-62.45,1.94-66.81,13.03-9.39,58.05,28.77,53.56,38.9-2.83,6.4-22.12,0-34.15,5.8-11.54,5.57-21.14,13.94-21.71,21.73-.51,6.92,36.17,51.49,125.73,78.75l-13.2-108.01,115.27-25.32-112.75-60.84" fill="#ebebeb" stroke="#58595b" stroke-linecap="round" stroke-miterlimit="10" stroke-width="3"/><path d="M698.29,412.19c4.18-3.18,8.86-14.07,24.06-20.97,15.24-6.91,27.31-1,29.33-4.79,3.66-6.86-43.31-56.57-53.53-37.71-6.11,11.28-4.45,66.95.14,63.46Z" fill="#999" stroke="#58595b" stroke-linecap="round" stroke-miterlimit="10" stroke-width="3"/><path d="M752.91,380.61c-.55,2.96-3.35,5.22-6.28,4.54-.95-.22-1.86-.69-2.63-1.43-87.43-84-231.78-104.99-283.33-106.33-52.36-1.35-168.18,25.56-263.37,98.63-6.66,5.11-16.01,2.35-17.2-5.96-.44-3.04-1.95-8.81-2.82-12-10.62-38.98-34-50.32-46.36-55.32-1.92-.77-11.53-8.76-12.57-10.54-11.36-19.47-4.45-35.85,2.44-40.71,64.54-45.48,92.04-56.24,119.62-67.21,64.73-25.74,144-44.84,217.65-44.84s157.17,18.83,221.33,46.05c60.58,25.7,71.7,31.74,113.78,63.72,20.28,15.41,26.74,20.99,26.66,29.2-.05,4.88-1.63,13.97-9.12,19.47-11.05,8.11-20.38,5.67-33.76,21.29-18.44,21.51-21.31,46.69-24.04,61.44Z" fill="#fff" stroke="#58595b" stroke-miterlimit="10" stroke-width="3.23"/><path d="M258.53,309.43l-28.3,17.71-5.1-8.14,4.73-7.24-30.32-48.45-8.58,1.09-5.09-8.14,28.3-17.71,5.09,8.14-4.63,7.18,30.32,48.45,8.48-1.02,5.09,8.14Z" fill="#231f20" stroke-width="0"/><path d="M320.02,281.67l-19.19,8.15-43-41.93-.43.18c1.35,2.57,2.58,4.97,3.7,7.21,1.12,2.24,2.09,4.27,2.9,6.08.81,1.82,1.54,3.48,2.18,4.99l13.73,32.34-15.31,6.5-32.69-76.97,19.08-8.1,42.5,40.74.32-.14c-1.21-2.45-2.34-4.75-3.38-6.9-1.04-2.15-1.98-4.12-2.83-5.92-.85-1.8-1.58-3.42-2.19-4.86l-13.5-31.8,15.42-6.55,32.69,76.98Z" fill="#231f20" stroke-width="0"/><path d="M395.96,220.29c1.74,9.13,1.9,17.13.46,24-1.43,6.87-4.35,12.44-8.74,16.69-4.4,4.26-10.2,7.07-17.41,8.45l-20.13,3.84-15.66-82.15,21.4-4.08c6.98-1.33,13.16-.94,18.53,1.18,5.37,2.12,9.9,5.86,13.59,11.24,3.69,5.38,6.34,12.32,7.97,20.84ZM378.05,224.54c-1.13-5.91-2.6-10.59-4.41-14.06-1.81-3.47-3.98-5.86-6.49-7.17-2.51-1.31-5.38-1.66-8.6-1.04l-3.68.7,9.85,51.66,2.53-.48c5.44-1.04,9.04-3.97,10.78-8.79,1.74-4.82,1.75-11.76.03-20.81Z" fill="#231f20" stroke-width="0"/><path d="M452.49,259.79l-38.68,2.62-5.65-83.44,38.68-2.62,1.02,15.07-20.92,1.42,1.19,17.53,19.4-1.31,1.03,15.19-19.4,1.31,1.38,20.33,20.92-1.42,1.04,15.31Z" fill="#231f20" stroke-width="0"/><path d="M521.33,178.32l-24.65,82.64-20.71-.89-17.24-84.44,18.61.8,7.46,44.75c.31,1.81.63,3.97.95,6.49.32,2.52.62,5.01.91,7.48.28,2.47.47,4.57.55,6.3.31-1.71.69-3.76,1.14-6.16.46-2.4.97-4.84,1.54-7.32.58-2.48,1.1-4.6,1.56-6.38l11.27-44.06,18.61.8Z" fill="#231f20" stroke-width="0"/><path d="M567.77,244.77c-.78,5.02-2.51,9.31-5.19,12.89-2.69,3.58-6.05,6.18-10.09,7.8-4.04,1.63-8.65,2.04-13.82,1.24-2.31-.36-4.55-.84-6.71-1.45-2.16-.61-4.24-1.44-6.25-2.51-2.01-1.06-4.04-2.38-6.08-3.96l2.77-17.94c2.84,2.57,5.81,4.67,8.92,6.3,3.11,1.63,6.09,2.66,8.94,3.1,1.85.29,3.43.17,4.73-.33,1.3-.51,2.33-1.3,3.09-2.37.76-1.07,1.24-2.3,1.46-3.69.24-1.54.2-2.97-.11-4.28-.31-1.31-1.12-2.76-2.41-4.34-1.3-1.58-3.35-3.5-6.16-5.75-2.17-1.83-4.11-3.68-5.84-5.53-1.73-1.85-3.13-3.8-4.19-5.86-1.06-2.06-1.78-4.36-2.13-6.91-.36-2.54-.29-5.44.22-8.68.75-4.86,2.34-8.9,4.78-12.12,2.43-3.22,5.6-5.55,9.5-7.01,3.9-1.45,8.43-1.74,13.58-.86,3.4.52,6.68,1.51,9.86,2.95,3.17,1.44,6.28,3.34,9.31,5.71l-7.26,14.76c-2.44-2.11-4.81-3.78-7.11-5.01-2.3-1.22-4.49-2-6.57-2.32-1.62-.25-3-.15-4.14.31-1.14.46-2.05,1.15-2.75,2.06-.7.92-1.14,2.04-1.35,3.35-.26,1.7-.22,3.21.13,4.52.35,1.32,1.24,2.72,2.67,4.21,1.43,1.49,3.58,3.4,6.46,5.74,3.08,2.53,5.59,5.11,7.51,7.74,1.92,2.63,3.25,5.42,3.98,8.38.73,2.96.81,6.25.25,9.88Z" fill="#231f20" stroke-width="0"/><path d="M699.44,224.18l-43.11,73.46-19.21-6.79,5.54-36.06c.25-1.65.53-3.31.83-4.99.3-1.67.64-3.4,1.02-5.17.38-1.77.77-3.6,1.19-5.48.42-1.88.88-3.77,1.38-5.66-.57,1.37-1.26,2.87-2.08,4.48-.82,1.62-1.66,3.29-2.52,5.01-.86,1.73-1.73,3.43-2.61,5.1-.88,1.68-1.75,3.23-2.59,4.68l-18.39,31.64-19.1-6.75,12.52-84.27,16.34,5.78-6.68,39.63c-.3,1.55-.64,3.27-1.02,5.17-.38,1.9-.77,3.87-1.16,5.92-.4,2.06-.83,4.1-1.3,6.13-.47,2.03-.94,3.95-1.42,5.77.9-1.84,1.85-3.71,2.86-5.63,1.01-1.92,2.01-3.8,2.99-5.65.98-1.85,1.94-3.56,2.87-5.14.93-1.58,1.73-2.95,2.39-4.12l20.78-34.89,13.8,4.88-6.28,39.89c-.2,1.5-.45,3.22-.76,5.14-.31,1.92-.68,3.9-1.11,5.94-.43,2.04-.86,4.07-1.28,6.07s-.84,3.97-1.27,5.89c1-2.13,2.08-4.36,3.23-6.68,1.15-2.33,2.39-4.72,3.72-7.19,1.33-2.47,2.59-4.82,3.79-7.04l19.82-34.98,16.79,5.93Z" fill="#231f20" stroke-width="0"/><path d="M708.79,325.22l-34.08-18.48,39.86-73.51,34.08,18.48-7.2,13.28-18.43-9.99-8.38,15.44,17.09,9.27-7.26,13.39-17.09-9.27-9.72,17.92,18.43,9.99-7.31,13.49Z" fill="#231f20" stroke-width="0"/></g></svg>