<svg viewBox="0 0 275.9 144.3" version="1.1" xmlns="http://www.w3.org/2000/svg" id="Layer_1">
  
  <defs>
    <style>
      .st0 {
        fill: #f1f2f2;
      }

      .st1 {
        fill: #68cce3;
      }
    </style>
  </defs>
  <g>
    <path d="M104.3,63.1c-1,0-2.2-.1-3.4-.4-1.2-.3-2.4-.9-3.5-1.9s-2-2.4-2.7-4.3-1-4.4-1-7.6v-15.1c0-2.6.2-4.7.7-6.4.5-1.7,1.1-3.1,1.9-4.1.8-1,1.6-1.8,2.6-2.3s1.9-.8,2.8-1c.9-.2,1.8-.2,2.6-.2,2.2,0,3.9.4,5.2,1.2,1.3.8,2.2,1.9,2.8,3.3.6,1.4.8,2.9.8,4.5s0,1.8-.2,2.5c-.1.8-.3,1.6-.5,2.6h-5v-2c0-4.7-1.1-7-3.3-7s-2.1.5-2.7,1.5c-.6,1-.9,2.9-.9,5.6v19.2c0,2.6.3,4.4.9,5.4.6,1,1.6,1.4,2.9,1.4s1.7-.4,2.3-1.2c.6-.8.9-2,.9-3.7v-4h5.7v3.9c0,3.4-.8,5.9-2.3,7.6-1.5,1.6-3.7,2.5-6.5,2.5Z" class="st0"></path>
    <path d="M122.7,47.8l-8.3-27.6h6.5l4.9,20.5h.3l4.9-20.5h6.5l-8.4,27.6v14.9h-6.4v-14.9Z" class="st0"></path>
    <path d="M141.1,20.2h6.5c1.4,0,2.9,0,4.5.3,1.5.2,3,.6,4.3,1.2,1.3.6,2.4,1.6,3.2,2.9.8,1.3,1.2,3.1,1.2,5.3v2.1c0,2.3-.5,4.1-1.6,5.5-1.1,1.4-2.3,2.4-3.6,2.9v.2c1.9.8,3.4,1.9,4.4,3.3,1,1.4,1.5,3.4,1.5,5.9v2.2c0,2.3-.4,4.2-1.1,5.6-.7,1.4-1.7,2.5-3,3.3-1.3.8-2.7,1.3-4.4,1.6-1.6.3-3.4.4-5.2.4h-6.8V20.2ZM148.7,38.4c1.7,0,3.1-.4,4.1-1.3,1-.9,1.5-2.3,1.5-4.3v-1.7c0-2-.4-3.5-1.2-4.6-.8-1.1-2.3-1.6-4.4-1.6h-1.1v13.5h1.1ZM149.3,58c1.7,0,3.1-.4,4.1-1.3,1-.9,1.5-2.3,1.5-4.3v-3.3c0-2-.4-3.5-1.2-4.6-.8-1.1-2.3-1.6-4.4-1.6h-1.7v15.1h1.7Z" class="st0"></path>
    <path d="M167,20.2h16.3v5.1h-9.8v12.7h7.7v5.1h-7.7v14.6h9.8v5.1h-16.3V20.2Z" class="st0"></path>
    <path d="M187.1,20.2h7c1,0,2.1,0,3.2.2,1.2.1,2.3.4,3.5.8,1.2.4,2.2,1,3.2,1.9,1,.9,1.7,2.1,2.3,3.6.6,1.5.9,3.4.9,5.7v1.1c0,6.4-1.9,10.5-5.8,12.3l7,17h-6.9l-5.9-15.9h-2.2v15.9h-6.4V20.2ZM194.4,42.2c2.4,0,4-.5,4.9-1.6s1.3-3.1,1.3-5.9v-3.4c0-2.2-.4-3.8-1.3-4.8-.8-1-2.5-1.5-4.9-1.5h-.8v17.3h.8Z" class="st0"></path>
    <path d="M211.6,54.1c0-.9,0-1.8.2-2.5.1-.8.3-1.6.5-2.5h5v1.9c0,2.3.3,4,1,5.3.7,1.2,1.8,1.8,3.2,1.8,2.5,0,3.7-1.2,3.7-3.7s-.2-1.9-.6-3c-.4-1-1.2-2.3-2.4-3.8l-6.7-8.4c-1.2-1.5-2.1-3.1-2.8-4.6-.7-1.5-1-3.2-1-5.1,0-2.8.9-5.1,2.6-6.9,1.8-1.8,4.2-2.7,7.3-2.7s4.5.5,5.9,1.4c1.4.9,2.4,2,3,3.4.6,1.4.9,2.8.9,4.2s0,1.8-.2,2.5c-.1.8-.3,1.6-.5,2.6h-5v-2c0-2.2-.4-4-1.1-5.2-.7-1.2-1.7-1.8-3.1-1.8s-2.1.3-2.8,1c-.6.7-.9,1.6-.9,2.7s.2,1.8.6,2.6.9,1.6,1.5,2.4l7.5,9.5c1.4,1.8,2.4,3.5,3.1,5.1.7,1.6,1.1,3.4,1.1,5.3,0,2.9-.9,5.3-2.8,7-1.9,1.7-4.4,2.6-7.5,2.6s-4.6-.4-6-1.3c-1.5-.9-2.5-2-3.1-3.4-.6-1.4-.9-2.8-.9-4.3Z" class="st0"></path>
    <path d="M236.8,20.2h16.3v5.1h-9.8v12.7h7.7v5.1h-7.7v14.6h9.8v5.1h-16.3V20.2Z" class="st0"></path>
    <path d="M266.2,63.1c-1,0-2.2-.1-3.4-.4-1.2-.3-2.4-.9-3.5-1.9s-2-2.4-2.7-4.3-1-4.4-1-7.6v-15.1c0-2.6.2-4.7.7-6.4.5-1.7,1.1-3.1,1.9-4.1.8-1,1.6-1.8,2.6-2.3s1.9-.8,2.8-1c.9-.2,1.8-.2,2.6-.2,2.2,0,3.9.4,5.2,1.2,1.3.8,2.2,1.9,2.8,3.3.6,1.4.8,2.9.8,4.5s0,1.8-.2,2.5c-.1.8-.3,1.6-.5,2.6h-5v-2c0-4.7-1.1-7-3.3-7s-2.1.5-2.7,1.5c-.6,1-.9,2.9-.9,5.6v19.2c0,2.6.3,4.4.9,5.4.6,1,1.6,1.4,2.9,1.4s1.7-.4,2.3-1.2c.6-.8.9-2,.9-3.7v-4h5.7v3.9c0,3.4-.8,5.9-2.3,7.6-1.5,1.6-3.7,2.5-6.5,2.5Z" class="st0"></path>
    <path d="M103.2,124.3c-.6,0-1.3,0-2.1-.3-.8-.2-1.7-.5-2.5-1.1-.9-.5-1.7-1.3-2.4-2.4-.7-1-1.3-2.4-1.8-4.1-.5-1.7-.7-3.8-.7-6.4v-15.1c0-2.6.2-4.7.7-6.4.5-1.7,1.1-3.1,1.9-4.1.8-1,1.7-1.8,2.6-2.3,1-.5,1.9-.8,2.9-1,1-.2,1.9-.2,2.7-.2,2.3,0,4.1.4,5.5,1.2,1.4.8,2.3,1.9,2.9,3.3.6,1.4.9,2.9.9,4.5s0,1.8-.2,2.5c-.1.8-.3,1.6-.5,2.6h-5v-2c0-4.7-1.3-7-3.8-7s-2.3.5-3,1.5c-.6,1-.9,2.9-.9,5.6v19.2c0,2.6.3,4.4.9,5.4.6,1,1.6,1.5,3,1.5s2.5-.7,3.1-2.1c.6-1.4,1-3.1,1-5.1v-5.4h-3.3v-4.2h9.5v21.5h-4.2l-.7-4.1c-.6,1.2-1.5,2.2-2.6,3.1-1.2.9-2.5,1.3-3.9,1.3Z" class="st0"></path>
    <path d="M125.2,81.4h7.3l7.9,42.5h-6.5l-1.2-7.6h-7.9l-1.1,7.6h-6.5l7.9-42.5ZM132,111.4l-3-21.3h-.3l-3.1,21.3h6.4Z" class="st0"></path>
    <path d="M144.3,81.4h8l4.3,17.2c.4,1.8.8,3.5,1,5.2.2,1.7.5,3.2.7,4.7h.2c.2-1.4.5-3,.7-4.7.2-1.7.6-3.4,1-5.2l4.2-17.2h8v42.5h-5.8v-14.1c0-2.9,0-5.6.1-8.1,0-2.5.2-4.8.3-6.7.1-1.9.2-3.4.3-4.4h-.5l-6.4,27.8h-4.1l-6.5-27.8h-.5c0,1,.2,2.4.3,4.4,0,1.9.2,4.1.3,6.7,0,2.5.1,5.3.1,8.1v14.1h-5.8v-42.5Z" class="st0"></path>
    <path d="M179.5,81.4h16.3v5.1h-9.8v12.7h7.7v5.1h-7.7v14.6h9.8v5.1h-16.3v-42.5Z" class="st0"></path>
    <path d="M197.9,115.3c0-.9,0-1.8.2-2.5.1-.8.3-1.6.5-2.5h5v1.9c0,2.3.3,4,1,5.3.7,1.2,1.8,1.8,3.2,1.8,2.5,0,3.7-1.2,3.7-3.7s-.2-1.9-.6-3c-.4-1-1.2-2.3-2.4-3.8l-6.7-8.4c-1.2-1.5-2.1-3.1-2.8-4.6-.7-1.5-1-3.2-1-5.1,0-2.8.9-5.1,2.6-6.9,1.8-1.8,4.2-2.7,7.3-2.7s4.5.5,5.9,1.4c1.4.9,2.4,2,3,3.4.6,1.4.9,2.8.9,4.2s0,1.8-.2,2.5c-.1.8-.3,1.6-.5,2.6h-5v-2c0-2.2-.4-4-1.1-5.2-.7-1.2-1.7-1.8-3.1-1.8s-2.1.3-2.8,1c-.6.7-.9,1.6-.9,2.7s.2,1.8.6,2.6.9,1.6,1.5,2.4l7.5,9.5c1.4,1.8,2.4,3.5,3.1,5.1.7,1.6,1.1,3.4,1.1,5.3,0,2.9-.9,5.3-2.8,7-1.9,1.7-4.4,2.6-7.5,2.6s-4.6-.4-6-1.3c-1.5-.9-2.5-2-3.1-3.4-.6-1.4-.9-2.8-.9-4.3Z" class="st0"></path>
  </g>
  <path d="M70,63.4c-2.8-1.6-5.7-3-8.7-4.3v-14.1c0-6.8-2.7-13.2-7.5-18.1-4.8-4.8-11.2-7.5-18.1-7.5s-13.2,2.7-18.1,7.5c-4.8,4.8-7.5,11.2-7.5,18.1v14.1c-3,1.2-5.9,2.6-8.7,4.3l-1.1.6v1.2c0,12,3.2,23.9,9.2,34.3,6,10.4,14.7,19.1,25.1,25.1l1.1.6,1.1-.6c10.4-6,19.1-14.7,25.1-25.1,6-10.4,9.2-22.3,9.2-34.3v-1.2l-1.1-.6ZM50.8,89.6c-.2,2.3-1.2,4-2.5,5.1-.8.7-1.8,1.2-2.8,1.5-1,.3-2.1.4-3.2.3-1.4-.1-2.8-.6-4-1.4.5,1.1,1,2.4,1.5,3.7.8,2,1.6,4.3,2.3,6.5.1.3,0,.6-.4.6h-11.9c-.3,0-.5-.3-.4-.5.7-2.2,1.5-4.4,2.3-6.5.5-1.3,1-2.6,1.5-3.7-1.2.8-2.5,1.3-4,1.4-1.1.1-2.2,0-3.2-.3-1-.3-2-.8-2.8-1.5-1.3-1.1-2.2-2.8-2.5-5.1-.6-5.8,4.8-12.1,9.7-17.7,1.9-2.1,3.7-4.2,5-6.1.2-.3.5-.3.7,0,1.4,1.9,3.2,4,5,6.2,4.9,5.7,10.3,11.9,9.7,17.7ZM53.9,61.1l-2.6-.7c-10.2-2.5-21-2.5-31.2,0l-2.6.7v-16c0-10,8.2-18.2,18.2-18.2s18.2,8.2,18.2,18.2v16Z" class="st1"></path>
</svg>