<?xml version="1.0" encoding="UTF-8"?><svg id="Layer_1" xmlns="http://www.w3.org/2000/svg" viewBox="0 0 2400 2400"><defs><style>.cls-1{fill:#fff;stroke-width:0px;}</style></defs><path class="cls-1" d="m1200.29,603.4c-330.27,0-598,267.74-598,598s267.74,598,598,598,598-267.74,598-598-267.74-598-598-598Zm0,1103.89c-279.39,0-505.88-226.49-505.88-505.88s226.49-505.88,505.88-505.88,505.88,226.49,505.88,505.88-226.49,505.88-505.88,505.88Z"/><path class="cls-1" d="m1559.76,976.02c-11.6-7.35-23.59-13.92-36.67-18.35-7.13-2.41-14.05-2.1-21.12.18-11.5,3.71-22.52,8.51-33.36,13.8-1.69.31-2.2-1.3-3.26-2.01-9.5-16.14-22.33-29.03-38.38-38.6-2.94-1.75-3.04-3.11-1.66-5.94,5.15-10.65,9.87-21.48,13.24-32.86,1.85-6.24,1.89-12.34-.09-18.57-4.26-13.39-11.04-25.52-18.47-37.32-1.32-2.1-3.14-3.34-5.55-1.84-2.35,1.46-2.22,3.6-.91,5.77.45.76.94,1.5,1.4,2.25,6.2,10.21,12,20.62,15.88,32,1.93,5.66,1.98,11.17.13,16.88-3.41,10.54-7.87,20.64-12.54,30.65-.27.59-.46,1.27-1.27,1.46-.97-1.03-.86-2.44-1.21-3.68-2.9-10.44-12.27-17.89-23.07-18.28-10.88-.39-19.43,5.78-23.12,16.72-.4,1.17-.68,2.29-2.06,2.76-11.65,3.96-19.7,11.87-24.97,22.82-1.76,1.59-2.02,3.88-2.61,5.97-3.49,12.34-2.03,24.47,1.72,36.47.94,3.01,2.05,5.96,3.1,8.98-1.59.5-2.65-.26-3.77-.59-12.86-3.73-25.85-4.65-38.86-1.08-3.62.99-6.53,1.38-8.92-1.97-6.99-10.61-13.93-21.25-21-31.81-1.28-1.91-1.45-3.71-1.15-5.92,2.15-15.78,3.92-31.59,3.88-47.55,0-2.54.02-5.09-.68-7.57-.21-.74-.4-1.64-1.26-1.79-1.11-.2-1.56.79-1.82,1.59-.84,2.51-1.72,5.03-2.28,7.61-3.56,16.33-5.45,32.91-7.57,49.47-.53,4.13.05,7.78,1.59,11.56,3.95,9.73,7.68,19.54,11.47,29.33.38.97,1.14,1.92.58,3.24-.43-.12-.87-.16-1.23-.34-7.95-4.11-15.87-8.29-23.85-12.34-2.44-1.24-3.8-2.99-4.58-5.66-4.66-15.91-9.38-31.8-15.08-47.38-1.63-4.46-3.26-8.94-5.62-13.08-.58-1.01-1.06-2.6-2.48-2.28-1.54.34-1.1,2.01-1.02,3.11.2,2.97.46,5.95.96,8.89,2.78,16.47,7.08,32.6,10.9,48.85,1.76,7.5,3.88,14.46,10.98,18.69.18.11.28.33.42.51-.22.94,2.75,2.05-.16,2.84-7.03-2.3-14.05-4.66-21.11-6.87-1.99-.62-3.46-1.69-4.81-3.27-9.54-11.19-19.35-22.14-30.19-32.11-2.2-2.02-4.44-4-7.08-5.44-.74-.41-1.59-1.07-2.43-.33-.85.73-.34,1.66,0,2.45,1.19,2.88,2.94,5.44,4.72,7.97,9.05,12.85,19.24,24.79,29.39,36.76,1.04,1.23,2.36,1.95,3.76,2.63,14.66,7.01,29.32,14.01,43.94,21.08,1.38.67,4,.89,2.55,3.54-1.22,2.23-.4,6.26-5.42,5.17-11.34-2.45-22.78-4.44-34.19-6.56-54.02-10.02-108.25-18.74-162.74-25.72-60.27-7.72-120.81-11.36-181.57-11.16-29.41.1-58.8.83-87.99,5-5.14.73-10.27,1.67-15.15,3.52-3.52,1.34-4.28,3.38-2.78,6.8,1.09,2.47,2.8,4.49,4.61,6.44,5.15,5.52,11.03,10.21,17.07,14.68,19.77,14.63,40.78,27.28,62.25,39.2,32.92,18.28,66.26,35.36,103.99,42.03,23.76,4.2,47.41,8.69,71.67,8.03,10.88-.3,21.6-1.43,31.61-6.33,8.87-4.34,16.95-9.97,25.31-15.13,12.2-7.53,25.11-13.17,39.56-14.19,23.49-1.65,46.9-4.09,70.33-6.37,19.03-1.86,38.05-3.84,57.07-5.79,1.6-.16,3.02-.43,3.49,1.83,1.98,9.4,5.93,18.02,10.75,26.27.01,1.03.6,1.82,1.1,2.64,1.1,1.8-.54,1.23-1.25,1.46-15.45-8.78-31.39-8.45-47.62-2.53-12.15,4.43-23.11,11.03-33.59,18.5-22.67,16.16-42.62,35.44-62.7,54.6-23.65,22.57-45.67,46.48-64.26,73.49-38.92,56.54-70.26,117.15-98.26,179.59h0s-6.4,14.19-6.4,14.19l11.67-5.13v-.02c40.48-17.88,80.07-37.55,118.54-59.48,32.3-18.41,63.91-37.94,92.51-61.82,30.88-25.78,58.11-55.27,84.32-85.69,11.85-13.76,22.6-28.37,30.27-44.98,8.88-19.24,11.41-38.48-.54-57.56l1.32-.67c9.06,5.81,18.56,10.72,29.16,13.01,2.87.62,3.3,1.83,3.02,4.55-3.94,37.59-7.88,75.18-11.12,112.84-.84,9.79-1.07,19.63-3.95,29.17-3.81,12.56-10.41,23.69-17.81,34.29-10.81,15.47-15.36,32.48-15.11,51.21.32,23.9,3.93,47.33,9.1,70.56,3.14,14.12,6.06,28.33,11.85,41.71,16.66,38.45,37.09,74.83,60.37,109.63,6.27,9.37,12.91,18.49,20.83,26.58,2.55,2.61,5.2,5.16,8.62,6.63,3.24,1.38,5.31.52,6.56-2.77.78-2.06,1.4-4.2,1.88-6.35,2.85-12.66,3.98-25.55,4.79-38.46,4.09-65.47,1.52-130.8-4.39-196.04-3.66-40.41-9.65-80.53-15.89-120.61-6.26-40.19-13.37-80.23-21.24-120.13-.95-4.81,2.73-4.06,4.88-5.29,2.8-1.6,3.08.97,3.82,2.5,7.01,14.53,13.98,29.09,20.96,43.63.67,1.39,1.28,2.78,2.52,3.84,12.57,10.64,25.05,21.39,38.67,30.7,1.73,1.18,3.55,2.25,5.42,3.2,1,.51,2.32,1.55,3.29.3.88-1.14-.14-2.35-.85-3.28-1.88-2.45-3.78-4.91-5.86-7.18-7.72-8.39-15.86-16.41-24.77-23.47-6.47-5.12-10.86-11.06-12.45-19.1-.13-3.27-1.87-6.09-2.58-9.19-.5-2.21-2.15-4.16-1.49-6.62,2.59,2.86,5.28,5.64,7.73,8.61,1.63,1.97,3.51,3.1,6,3.74,15.19,3.93,30.4,7.81,45.77,10.99,6.92,1.43,13.83,3.01,20.95,3.16.95.02,2.24.21,2.58-.96.34-1.17-.87-1.67-1.67-2.19-2.72-1.73-5.7-2.93-8.68-4.09-17.32-6.74-35.16-11.89-52.96-17.18-2.3-.68-3.87-1.87-4.95-3.98-4.19-8.16-8.44-16.28-12.66-24.43-.18-.34-.18-.78-.27-1.23,1.49-.35,2.51.46,3.59.88,10.72,4.13,21.44,8.29,32.13,12.5,1.69.67,3.35.98,5.16.76,17.44-2.12,34.9-4.13,52.12-7.76,2.81-.59,5.6-1.3,8.24-2.48.79-.36,1.78-.73,1.55-1.85-.17-.85-1.06-1.05-1.82-1.22-3.16-.71-6.37-.69-9.57-.66-15.39.17-30.66,1.81-45.89,3.87-1.95.26-3.59.14-5.31-1-11.25-7.43-22.54-14.81-33.89-22.08-2.01-1.29-2.58-2.44-1.8-4.81,3.64-11.06,3.83-22.34,1.83-33.74-.78-4.42-2.3-8.65-3.37-13.01,1.5-.51,2.4.33,3.37.72,11.11,4.5,22.57,7.13,34.62,5.93,16.21-1.62,28.83-8.99,35.92-24.07,1.81-3.84,3.81-6.16,7.89-7.77,9.28-3.67,14.45-13.3,13.47-23.29-1.02-10.38-8.84-19.27-19.09-21.79-.97-.24-2.25.14-2.93-1.28.69-.4,1.31-.83,1.99-1.15,8.6-4.06,17.42-7.58,26.24-11.11,9.03-3.62,17.56-2.94,26.31.87,9.97,4.34,19.46,9.48,28.65,15.25,2.16,1.35,4.27,1.64,5.81-.66,1.52-2.27.62-4.23-1.57-5.62Z"/><path class="cls-1" d="m1860.79,1787.89c-15.74,15.81-34.77,23.72-57.1,23.72s-41.33-7.91-56.99-23.72c-15.59-15.74-23.39-34.81-23.39-57.21s7.87-41.14,23.61-56.88c15.67-15.67,34.59-23.5,56.77-23.5s41.36,7.83,57.1,23.5c15.74,15.66,23.61,34.63,23.61,56.88s-7.87,41.4-23.61,57.21Zm-106.08-106.19c-13.47,13.55-20.21,29.91-20.21,49.09s6.7,35.8,20.09,49.42c13.47,13.62,29.83,20.43,49.09,20.43s35.62-6.81,49.09-20.43c13.47-13.61,20.21-30.09,20.21-49.42s-6.74-35.54-20.21-49.09c-13.54-13.61-29.91-20.42-49.09-20.42s-35.43,6.81-48.97,20.42Zm47.44,4.5c10.98,0,19.03,1.06,24.16,3.19,9.15,3.81,13.73,11.28,13.73,22.42,0,7.92-2.88,13.74-8.64,17.48-3.06,1.98-7.32,3.41-12.79,4.28,6.92,1.1,11.98,3.99,15.19,8.67,3.21,4.68,4.81,9.25,4.81,13.71v6.47c0,2.05.07,4.24.22,6.58s.4,3.88.77,4.61l.55,1.09h-14.6c-.07-.29-.15-.58-.22-.87-.07-.29-.15-.62-.22-.99l-.33-2.85v-7c0-10.22-2.78-16.97-8.34-20.25-3.29-1.9-9.08-2.85-17.35-2.85h-12.3v34.81h-15.59v-88.51h30.97Zm16.84,13.95c-3.93-2.2-10.22-3.29-18.89-3.29h-13.32v32.06h14.1c6.61,0,11.56-.66,14.87-1.98,6.09-2.42,9.14-7.03,9.14-13.83,0-6.44-1.97-10.76-5.89-12.96Z"/></svg>