<?xml version="1.0" encoding="UTF-8"?>
<svg xmlns="http://www.w3.org/2000/svg" xmlns:xlink="http://www.w3.org/1999/xlink" viewBox="0 0 1502.36 517.03">
  <defs>
    <linearGradient id="linear-gradient" x1="98.7" y1="468.72" x2="98.7" y2="73.55" gradientUnits="userSpaceOnUse">
      <stop offset="0" stop-color="#df5c8d"/>
      <stop offset="1" stop-color="#f2c220"/>
    </linearGradient>
    <linearGradient id="linear-gradient-2" x1="316.46" y1="429.41" x2="316.46" y2="26.13" gradientUnits="userSpaceOnUse">
      <stop offset="0" stop-color="#5facd3"/>
      <stop offset="1" stop-color="#4fb991"/>
    </linearGradient>
    <radialGradient id="radial-gradient" cx="-3044.69" cy="1109.24" fx="-2979.78" fy="814.51" r="1066.21" gradientTransform="translate(839.1 117.93) rotate(.15) scale(.19 .11)" gradientUnits="userSpaceOnUse">
      <stop offset=".06" stop-color="#b9babe"/>
      <stop offset=".74" stop-color="#97999c"/>
      <stop offset=".83" stop-color="#95979a"/>
      <stop offset=".88" stop-color="#8d8f91"/>
      <stop offset=".93" stop-color="#808283"/>
      <stop offset=".97" stop-color="#6d6e70"/>
      <stop offset="1" stop-color="#555657"/>
    </radialGradient>
    <radialGradient id="radial-gradient-2" cx="-2909.55" cy="494.65" fx="-2909.55" fy="494.65" r="26.91" gradientTransform="translate(839.18 86.04) rotate(.15) scale(.19)" gradientUnits="userSpaceOnUse">
      <stop offset=".03" stop-color="#6da5c1"/>
      <stop offset=".28" stop-color="#6da5c1"/>
      <stop offset=".36" stop-color="#73adcb"/>
      <stop offset=".49" stop-color="#7dbbda"/>
      <stop offset=".66" stop-color="#80c0e1"/>
      <stop offset=".96" stop-color="#81c3e4"/>
    </radialGradient>
    <radialGradient id="radial-gradient-3" cx="-2151.7" cy="-605.49" fx="-2151.7" fy="-605.49" r="377.39" gradientTransform="translate(768.67 140.27) rotate(-43.56) scale(.19 .37)" gradientUnits="userSpaceOnUse">
      <stop offset="0" stop-color="#cbb482"/>
      <stop offset=".12" stop-color="#c6ad79"/>
      <stop offset=".31" stop-color="#bb9d5f"/>
      <stop offset=".55" stop-color="#a98637"/>
      <stop offset=".83" stop-color="#8f6828"/>
      <stop offset=".83" stop-color="#8f6828"/>
    </radialGradient>
    <radialGradient id="radial-gradient-4" cx="-3898.89" cy="782.76" fx="-3898.89" fy="782.76" r="101.69" gradientTransform="translate(839.18 86.04) rotate(.15) scale(.19)" xlink:href="#radial-gradient-3"/>
    <radialGradient id="radial-gradient-5" cx="-3865.78" cy="558.73" fx="-3865.78" fy="558.73" r="83.98" gradientTransform="translate(839.18 86.04) rotate(.15) scale(.19)" xlink:href="#radial-gradient-3"/>
    <radialGradient id="radial-gradient-6" cx="-2066.16" cy="203.18" fx="-2066.16" fy="203.18" r="159.1" gradientTransform="translate(839.18 86.04) rotate(.15) scale(.19)" gradientUnits="userSpaceOnUse">
      <stop offset=".38" stop-color="#7eaa72"/>
      <stop offset=".77" stop-color="#8bbe7f"/>
      <stop offset=".93" stop-color="#7ba870"/>
    </radialGradient>
    <radialGradient id="radial-gradient-7" cx="-4796.39" cy="1503.19" fx="-4796.39" fy="1503.19" r="160.34" gradientTransform="translate(730.68 281.63) rotate(.15) scale(.19 -.19)" xlink:href="#radial-gradient-6"/>
    <radialGradient id="radial-gradient-8" cx="-4304.49" cy="2482.55" fx="-4304.49" fy="2482.55" r="214.66" gradientTransform="translate(730.68 281.63) rotate(.15) scale(.19 -.19)" xlink:href="#radial-gradient-6"/>
    <radialGradient id="radial-gradient-9" cx="-2358.88" cy="378.55" fx="-2358.88" fy="220.65" r="159.77" gradientTransform="translate(839.18 86.04) rotate(.15) scale(.19)" gradientUnits="userSpaceOnUse">
      <stop offset="0" stop-color="#cdb859"/>
      <stop offset=".11" stop-color="#c9b457"/>
      <stop offset=".17" stop-color="#c4b155"/>
      <stop offset=".21" stop-color="#d1bd5a"/>
      <stop offset=".28" stop-color="#e5cf64"/>
      <stop offset=".36" stop-color="#f3dc6b"/>
      <stop offset=".46" stop-color="#fbe36d"/>
      <stop offset=".63" stop-color="#fde56f"/>
      <stop offset=".86" stop-color="#f3dc6b"/>
      <stop offset="1" stop-color="#ead466"/>
      <stop offset="1" stop-color="#ecd667"/>
    </radialGradient>
    <radialGradient id="radial-gradient-10" cx="-2535.62" cy="990.04" fx="-2535.62" fy="990.04" r="289.15" gradientTransform="translate(839.18 86.04) rotate(.15) scale(.19)" gradientUnits="userSpaceOnUse">
      <stop offset=".06" stop-color="#b9babe"/>
      <stop offset=".72" stop-color="#97999c"/>
      <stop offset=".93" stop-color="#848689"/>
    </radialGradient>
    <radialGradient id="radial-gradient-11" cx="-1853.43" cy="717.59" fx="-1853.43" fy="882.44" r="166.72" gradientTransform="translate(839.18 86.04) rotate(.15) scale(.19)" gradientUnits="userSpaceOnUse">
      <stop offset=".13" stop-color="#1164a1"/>
      <stop offset=".47" stop-color="#084c7d"/>
      <stop offset=".67" stop-color="#0f3f65"/>
      <stop offset=".99" stop-color="#0e3b5e"/>
    </radialGradient>
    <radialGradient id="radial-gradient-12" cx="-5261.06" cy="2563.75" fx="-5261.06" fy="2563.75" r="229.4" gradientTransform="translate(730.68 281.63) rotate(.15) scale(.19 -.19)" xlink:href="#radial-gradient-10"/>
    <radialGradient id="radial-gradient-13" cx="-5672.15" cy="2615.07" fx="-5672.15" fy="2615.07" r="198.62" gradientTransform="translate(730.68 281.63) rotate(.15) scale(.19 -.19)" xlink:href="#radial-gradient-10"/>
    <radialGradient id="radial-gradient-14" cx="-6092.94" cy="2456.6" fx="-6092.94" fy="2456.6" r="158.88" gradientTransform="translate(730.68 281.63) rotate(.15) scale(.19 -.19)" xlink:href="#radial-gradient-10"/>
    <radialGradient id="radial-gradient-15" cx="-2609.4" cy="270.03" fx="-2609.4" fy="311.47" r="91.62" gradientTransform="translate(839.18 86.04) rotate(.15) scale(.19)" gradientUnits="userSpaceOnUse">
      <stop offset=".07" stop-color="#cdb859"/>
      <stop offset=".15" stop-color="#c9b457"/>
      <stop offset=".19" stop-color="#c4b155"/>
      <stop offset=".21" stop-color="#d1bd5a"/>
      <stop offset=".25" stop-color="#e5cf64"/>
      <stop offset=".29" stop-color="#f3dc6b"/>
      <stop offset=".34" stop-color="#fbe36d"/>
      <stop offset=".43" stop-color="#fde56f"/>
      <stop offset=".78" stop-color="#f3dc6b"/>
      <stop offset="1" stop-color="#ead466"/>
      <stop offset="1" stop-color="#ecd667"/>
    </radialGradient>
    <radialGradient id="radial-gradient-16" cx="-6252.35" cy="2248.37" fx="-6252.35" fy="2248.37" r="117.01" gradientTransform="translate(730.68 281.63) rotate(.15) scale(.19 -.19)" xlink:href="#radial-gradient-10"/>
    <radialGradient id="radial-gradient-17" cx="-2103.23" cy="416.2" fx="-2103.23" fy="416.2" r="54.78" gradientTransform="translate(839.18 86.04) rotate(.15) scale(.19)" gradientUnits="userSpaceOnUse">
      <stop offset=".06" stop-color="#7a749f"/>
      <stop offset=".18" stop-color="#7b77a3"/>
      <stop offset=".19" stop-color="#7c78a4"/>
      <stop offset=".27" stop-color="#827eac"/>
      <stop offset=".43" stop-color="#8580ae"/>
      <stop offset=".79" stop-color="#8c86b7"/>
      <stop offset=".99" stop-color="#938dc0"/>
      <stop offset=".99" stop-color="#78749e"/>
    </radialGradient>
    <radialGradient id="radial-gradient-18" cx="-2818.42" cy="580.11" fx="-2818.42" fy="580.11" r="54.61" gradientTransform="translate(839.18 86.04) rotate(.15) scale(.19)" gradientUnits="userSpaceOnUse">
      <stop offset=".03" stop-color="#81c4e5"/>
      <stop offset=".25" stop-color="#81c6e8"/>
      <stop offset=".28" stop-color="#83c8e9"/>
      <stop offset=".4" stop-color="#89cef1"/>
      <stop offset=".6" stop-color="#8fd4f5"/>
      <stop offset=".96" stop-color="#93d6f6"/>
    </radialGradient>
    <radialGradient id="radial-gradient-19" cx="-5071.9" cy="1889.18" fx="-5071.9" fy="1889.18" r="55.06" gradientTransform="translate(730.68 281.63) rotate(.15) scale(.19 -.19)" xlink:href="#radial-gradient-2"/>
    <radialGradient id="radial-gradient-20" cx="-5281.97" cy="1858.74" fx="-5281.97" fy="1858.74" r="54.38" gradientTransform="translate(730.68 281.63) rotate(.15) scale(.19 -.19)" xlink:href="#radial-gradient-18"/>
    <radialGradient id="radial-gradient-21" cx="-5172.33" cy="1810.55" fx="-5172.33" fy="1810.55" r="54.85" gradientTransform="translate(730.68 281.63) rotate(.15) scale(.19 -.19)" xlink:href="#radial-gradient-2"/>
    <radialGradient id="radial-gradient-22" cx="-5286.12" cy="1975.7" fx="-5286.12" fy="1975.7" r="55.62" gradientTransform="translate(730.68 281.63) rotate(.15) scale(.19 -.19)" xlink:href="#radial-gradient-18"/>
    <radialGradient id="radial-gradient-23" cx="-5175.36" cy="1918.6" fx="-5175.36" fy="1918.6" r="56.13" gradientTransform="translate(730.68 281.63) rotate(.15) scale(.19 -.19)" xlink:href="#radial-gradient-2"/>
    <radialGradient id="radial-gradient-24" cx="-4397.42" cy="1888.83" fx="-4397.42" fy="1888.83" r="54.33" gradientTransform="translate(730.68 281.63) rotate(.15) scale(.19 -.19)" xlink:href="#radial-gradient-17"/>
    <radialGradient id="radial-gradient-25" cx="-4281.92" cy="1913.12" fx="-4281.92" fy="1913.12" r="54.07" gradientTransform="translate(730.68 281.63) rotate(.15) scale(.19 -.19)" xlink:href="#radial-gradient-17"/>
    <radialGradient id="radial-gradient-26" cx="-4344.34" cy="1791.59" fx="-4344.34" fy="1791.59" r="55.21" gradientTransform="translate(730.68 281.63) rotate(.15) scale(.19 -.19)" xlink:href="#radial-gradient-17"/>
    <radialGradient id="radial-gradient-27" cx="-5165.69" cy="1828.38" fx="-5165.69" fy="1828.38" r="53.86" gradientTransform="translate(730.68 281.63) rotate(.15) scale(.19 -.19)" xlink:href="#radial-gradient-18"/>
    <radialGradient id="radial-gradient-28" cx="-5060.07" cy="1779.69" fx="-5060.07" fy="1779.69" r="54.4" gradientTransform="translate(730.68 281.63) rotate(.15) scale(.19 -.19)" xlink:href="#radial-gradient-2"/>
    <radialGradient id="radial-gradient-29" cx="-5295.57" cy="2085.8" fx="-5295.57" fy="2085.8" r="51.79" gradientTransform="translate(730.68 281.63) rotate(.15) scale(.19 -.19)" xlink:href="#radial-gradient-18"/>
    <radialGradient id="radial-gradient-30" cx="-5183.9" cy="2016.11" fx="-5183.9" fy="2016.11" r="52.29" gradientTransform="translate(730.68 281.63) rotate(.15) scale(.19 -.19)" xlink:href="#radial-gradient-2"/>
    <radialGradient id="radial-gradient-31" cx="-2154.23" cy="511.44" fx="-2154.23" fy="511.44" r="63.21" gradientTransform="translate(839.18 86.04) rotate(.15) scale(.19)" gradientUnits="userSpaceOnUse">
      <stop offset="0" stop-color="#fde470"/>
      <stop offset="0" stop-color="#fde470"/>
      <stop offset=".63" stop-color="#fde56f"/>
      <stop offset=".99" stop-color="#fde571"/>
      <stop offset="1" stop-color="#c4b155"/>
      <stop offset="1" stop-color="#d2bd5a"/>
      <stop offset="1" stop-color="#deca62"/>
      <stop offset="1" stop-color="#e7d165"/>
      <stop offset="1" stop-color="#ead466"/>
    </radialGradient>
    <radialGradient id="radial-gradient-32" cx="-4374.17" cy="2003.98" fx="-4374.17" fy="2003.98" r="53.19" gradientTransform="translate(730.68 281.63) rotate(.15) scale(.19 -.19)" xlink:href="#radial-gradient-17"/>
    <radialGradient id="radial-gradient-33" cx="-4170.87" cy="1871.92" fx="-4170.87" fy="1871.92" r="49.87" gradientTransform="translate(730.68 281.63) rotate(.15) scale(.19 -.19)" xlink:href="#radial-gradient-17"/>
    <radialGradient id="radial-gradient-34" cx="-6262.1" cy="2024.58" fx="-6262.1" fy="2024.58" r="83.02" gradientTransform="translate(730.68 281.63) rotate(.15) scale(.19 -.19)" xlink:href="#radial-gradient-10"/>
    <radialGradient id="radial-gradient-35" cx="-5187.79" cy="2051.51" fx="-5187.79" fy="2051.51" r="52.93" gradientTransform="translate(730.68 281.63) rotate(.15) scale(.19 -.19)" xlink:href="#radial-gradient-18"/>
    <radialGradient id="radial-gradient-36" cx="-5081.56" cy="1983.45" fx="-5081.56" fy="1983.45" r="53.61" gradientTransform="translate(730.68 281.63) rotate(.15) scale(.19 -.19)" xlink:href="#radial-gradient-2"/>
    <radialGradient id="radial-gradient-37" cx="-5075.25" cy="1907.98" fx="-5075.25" fy="1907.98" r="49.87" gradientTransform="translate(730.68 281.63) rotate(.15) scale(.19 -.19)" xlink:href="#radial-gradient-18"/>
    <radialGradient id="radial-gradient-38" cx="-4939.98" cy="1853.34" fx="-4939.98" fy="1853.34" r="50.26" gradientTransform="translate(730.68 281.63) rotate(.15) scale(.19 -.19)" xlink:href="#radial-gradient-2"/>
    <radialGradient id="radial-gradient-39" cx="-4229.77" cy="1799.74" fx="-4229.77" fy="1799.74" r="58.79" gradientTransform="translate(730.68 281.63) rotate(.15) scale(.19 -.19)" xlink:href="#radial-gradient-17"/>
    <radialGradient id="radial-gradient-40" cx="-5092.58" cy="2010.93" fx="-5092.58" fy="2010.93" r="45.25" gradientTransform="translate(730.68 281.63) rotate(.15) scale(.19 -.19)" xlink:href="#radial-gradient-18"/>
    <radialGradient id="radial-gradient-41" cx="-4901.86" cy="1948.04" fx="-4901.86" fy="1948.04" r="45.6" gradientTransform="translate(730.68 281.63) rotate(.15) scale(.19 -.19)" xlink:href="#radial-gradient-2"/>
    <radialGradient id="radial-gradient-42" cx="-5228.06" cy="2169.55" fx="-5228.06" fy="2169.55" r="41.87" gradientTransform="translate(730.68 281.63) rotate(.15) scale(.19 -.19)" xlink:href="#radial-gradient-18"/>
    <radialGradient id="radial-gradient-43" cx="-5022.26" cy="2086.7" fx="-5022.26" fy="2086.7" r="41.9" gradientTransform="translate(730.68 281.63) rotate(.15) scale(.19 -.19)" xlink:href="#radial-gradient-2"/>
    <radialGradient id="radial-gradient-44" cx="-4455.38" cy="1962.05" fx="-4455.38" fy="1962.05" r="31.19" gradientTransform="translate(730.68 281.63) rotate(.15) scale(.19 -.19)" xlink:href="#radial-gradient-17"/>
    <radialGradient id="radial-gradient-45" cx="-5075.45" cy="1779.4" fx="-5075.45" fy="1779.4" r="38.71" gradientTransform="translate(730.68 281.63) rotate(.15) scale(.19 -.19)" xlink:href="#radial-gradient-18"/>
    <radialGradient id="radial-gradient-46" cx="-4924.87" cy="1720.51" fx="-4924.87" fy="1720.51" r="39.18" gradientTransform="translate(730.68 281.63) rotate(.15) scale(.19 -.19)" xlink:href="#radial-gradient-2"/>
    <radialGradient id="radial-gradient-47" cx="-6139.44" cy="1846.86" fx="-6139.44" fy="1846.86" r="36.79" gradientTransform="translate(730.68 281.63) rotate(.15) scale(.19 -.19)" xlink:href="#radial-gradient-10"/>
    <radialGradient id="radial-gradient-48" cx="-4273.46" cy="1839.9" fx="-4273.46" fy="1839.9" r="33.11" gradientTransform="translate(730.68 281.63) rotate(.15) scale(.19 -.19)" xlink:href="#radial-gradient-17"/>
    <radialGradient id="radial-gradient-49" cx="-4198.06" cy="1943.16" fx="-4198.06" fy="1943.16" r="35.23" gradientTransform="translate(730.68 281.63) rotate(.15) scale(.19 -.19)" xlink:href="#radial-gradient-17"/>
    <radialGradient id="radial-gradient-50" cx="-5212.03" cy="1881.41" fx="-5212.03" fy="1881.41" r="11.93" gradientTransform="translate(730.68 281.63) rotate(.15) scale(.19 -.19)" xlink:href="#radial-gradient-18"/>
    <radialGradient id="radial-gradient-51" cx="-1910.89" cy="4718.3" fx="-1910.89" fy="4718.3" r="742.32" gradientTransform="translate(864.34 69.96) rotate(26.49) scale(.19 .07)" gradientUnits="userSpaceOnUse">
      <stop offset="0" stop-color="#b9babe"/>
      <stop offset=".32" stop-color="#818386"/>
      <stop offset=".58" stop-color="#5d5e60"/>
      <stop offset=".72" stop-color="#4f5152"/>
      <stop offset=".77" stop-color="#4a4b4c"/>
      <stop offset=".83" stop-color="#3a3b3c"/>
      <stop offset=".9" stop-color="#212223"/>
      <stop offset=".97" stop-color="#000"/>
    </radialGradient>
    <radialGradient id="radial-gradient-52" cx="-5140" cy="2000.71" fx="-5140" fy="2000.71" r="11.31" gradientTransform="translate(730.68 281.63) rotate(.15) scale(.19 -.19)" xlink:href="#radial-gradient-18"/>
    <radialGradient id="radial-gradient-53" cx="-2765.37" cy="1814.06" fx="-2765.37" fy="1814.06" r="7.89" gradientTransform="translate(839.18 86.04) rotate(.15) scale(.19)" gradientUnits="userSpaceOnUse">
      <stop offset=".26" stop-color="#000"/>
      <stop offset=".42" stop-color="#050505"/>
      <stop offset=".5" stop-color="#0b0b0b"/>
      <stop offset=".95" stop-color="#000"/>
      <stop offset=".98" stop-color="#000"/>
    </radialGradient>
  </defs>
  <g id="Layer_3" data-name="Layer 3">
    <rect x="53.63" y="45.14" width="262.89" height="401.96" rx="34.02" ry="34.02" transform="translate(-67.26 69.62) rotate(-18.09)" fill="#fff" stroke="#000" stroke-linecap="round" stroke-miterlimit="10" stroke-width="6"/>
    <path d="M190.25,455.65l-34.85,11.38c-17.86,5.83-37.06-3.92-42.9-21.77L8.84,127.82c-5.83-17.86,3.92-37.06,21.77-42.9l34.85-11.38" fill="url(#linear-gradient)" stroke="#000" stroke-linecap="round" stroke-miterlimit="10" stroke-width="6"/>
    <rect x="277.51" y="41.69" width="263.12" height="402.3" rx="34.02" ry="34.02" transform="translate(50.89 -70.23) rotate(10.46)" fill="#fff" stroke="#000" stroke-linecap="round" stroke-miterlimit="10" stroke-width="6"/>
    <path d="M311.66,429.41l-35.87-6.64c-18.47-3.41-30.6-21.94-27.19-40.41l60.62-328.38c3.41-18.47,21.15-30.69,39.63-27.28l36.05,7.12" fill="url(#linear-gradient-2)" stroke="#000" stroke-linecap="round" stroke-miterlimit="10" stroke-width="6"/>
  </g>
  <g id="logo">
    <g>
      <path d="M456.99,325.86c2.44-2.6,5.97-.6,8.18,2.19,2.22,2.79,1.31,6.65.39,10.09-1.21,4.55-3.69,8.39-7.93,6.91-1.2-1.39.2-3.32,1.77-4.28,1.67-1.02,3.48.78,3.98,1.06.11.06.2.14.29.22.64.58,1.18.86,4.17,4.11,1.63,1.77,2.07,4.65,4.25,5.71,1.77.86,3.86.42,5.75-.11,2.03-.57,4.14-1.29,5.48-2.9,1.19-1.41,1.51-3.67.33-5.18-.92-1.18-2.52.07-3.09.97-.67,1.05-.98,2.32-1.15,3.53-.44,3.31-.74,6.69-.11,9.97.64,3.28,2.33,6.47,5.16,8.26M462.5,314.53c-.55,2.38-1.55,4.68-2.92,6.71-.42.61-.9,1.27-.93,2.02s.6,1.57,1.34,1.4M458.21,322.56c-2.62,2.37-4.69,5.32-6.07,8.57,2.28-3.37,4.57-6.73,6.86-10.11-1.11,1.95-2.2,3.9-3.3,5.86,1.07-1.03,1.79-2.41,2.08-3.86l.85-.42M459.36,324.21c.23-1.31.46-2.63.72-3.94-.53,1.48-1.73,2.69-1.72,4.25M458.79,323.28l.23-1.12M458.37,323.96c.64-3.11,1.53-6.18,2.64-9.15.51.51.07,1.35-.34,1.94-1.43,2.07-2.34,4.51-2.61,7.02M458.02,322.45c-2.34,3.46-4.37,7.14-6.02,10.99.68-2.53,2.09-4.88,4.01-6.67M462.14,313.79c-1.62,1.68-1.82,4.18-1.8,6.51.02,2.27-1.51,4.08,2.83,6.34-1.17-1.77-2.2-3.7-2.58-5.79-.38-2.09-.07-4.38,1.21-6.09-1.32,3.6-5.93,7.94-4.18,11.34,2.24-.16,2.95.94,3.12-.67.26-2.42.36-8.94,1.27-11.2M463.78,308.69c-1.52,2.55-2.77,5.3-3.29,8.22s-.25,6.04,1.12,8.66c-1.02-3.44-.54-7.13-.03-10.69.09-.69.2-1.39.62-1.94M463.55,309.29c-3.67,4.76-4.48,12.3-1.94,17.74-.54-.34-.58-1.74-.63-2.39-.22-3.4,1.16-7.01.96-10.13M457.91,324.17c-2.17,1-3.54,3.18-4.77,5.22-1.5,2.49-2.99,4.97-4.49,7.46.94-2.08,2.93-3.67,3.34-5.91M450.31,336.57c1.13-1.29,1.97-2.78,2.82-4.26,1.04-1.84,2.09-3.66,3.11-5.5M463.3,344.22c1.06-1.32,1.78-3.07,1.6-2.78.92-3.33,1.06-6.71.21-9.91-.31-1.16-.81-2.33-1.7-3.13-1.37-1.26-3.37-1.46-5.22-1.6-1.11-.08-2.55,1.51-3.49,2.72,3.25-3.22,10.37-4.16,11.36,3.34-1.45-2.54-4.93-8.76-7.35-7.36-1.72.99-3.86,2.04-5.08,3.61M460.72,312.75c-.22,1.89-.39,3.78-.22,5.67.27,3.11,2.73,7.17,4.68,9.63M465.39,308.04c-2.05,3.58-3.79,7.33-5.23,11.2M462.1,314.26c1.96-3.98,3.68-8.08,5.15-12.26M462.17,314.87c.97-1.62,1.92-3.25,2.83-4.91-.11.23-.21.46-.32.69.35-.57.7-1.13,1.04-1.71-1.52,1.82-2.81,3.84-3.81,5.98,1.4-2.28,2.75-4.59,4.06-6.93-1.87,3.22-3.82,6.39-5.87,9.51,2.26-3.74,4.39-7.53,6.41-11.39-2.9,3.66-5.14,7.86-6.56,12.3,1.14-4.41,3.25-8.57,6.12-12.1-2.32,3.29-4.17,6.92-5.44,10.75,1.8-3.96,3.64-7.98,6.41-11.32-.61.28-1,.88-1.35,1.46-2.25,3.68-4.21,7.53-5.9,11.5,2.9-4.76,3.9-10.64,7.55-14.86-3.04,5.16-5.68,10.55-7.87,16.12,1.67-3.8,3.34-7.6,5.01-11.4l-5.27,9.06M486.57,366.92h-.68M485.41,366.77c.49.25,1.1.21,1.55-.11-.81.46-1.91.36-2.61-.26.63.47,1.44.72,2.22.69M487.19,367.06l-2.53-.64c.4.41,1.03.57,1.57.39M487.3,366.67l1.36-.27M463.38,312.97c1.14-1.08,1.86-2.29,2.45-3.6.81-.77,1.64-1.56,2.64-2.08-1.18.56-2.18,1.49-2.85,2.63.92-1.16.97-3.04,1.88-4.2-.94.52-.83,2.08-1.24,3.06l2.25-2.93M448.24,338.84c.58-.54,1.16-1.08,1.73-1.61.23-.22.47-.44.59-.73.22-.57.04-1.4.6-1.64-1.07,1.37-2.1,2.76-3.12,4.18M447.43,339.42c1.56-1.3,2.95-2.82,4.1-4.5M464.51,312.03c-2.62,4.56-2.71,11.82-.51,16.32M461.16,318.03c.59,3.72,2.19,8.05,4.26,11.2M267.32,138.14c-1.97-2.5-1.96-5.64.14-8.78,3.76-4.8,8.22-8.76,13.53-11.74,5.31-2.98,11.34-3.65,17-2.14.2.05.4.11.6.17.12.03.23.07.32.16.08.09.11.22.12.35.17,1.47-.35,2.97-1.2,4.18s-1.55,2.45-3.31,2.91c-1.72,1.06-3.66,1.83-5.68,1.93-1.98.1-3.97-.45-5.72-1.41-3.88-1.63-4.49-5-5.2-9.87-.11-2.11.9-3.3,2.25-4.33,1.27-.96,2.53-1.95,3.84-2.86,1.09-.76,2.24-1.45,3.48-1.9,1.37-.49,2.94-.63,4.33-.08,1.17.46,2.29,1.42,1.48,2.74-.82,1.34-2.56,1.48-3.96,1.71-1.16.19-2.35.32-3.52.3-2.32-.05-4.61-.77-6.08-2.67-.68-.88-1.08-1.95-1.65-2.91-.7-1.15-1.48-2.27-2.34-3.31-1.14-1.39-2.5-2.74-4.31-3.16-2.54-.59-4.74,1.2-6.33,2.99-1.05,1.18-1.8,2.61-2.82,3.8-.83.97-1.73,1.94-2.7,2.8-1.98,1.76-4.38,3.02-7.04,3.35M307.82,167.29c6.73-8.46,8.85-18.94,3.64-28.38-5.21-10.5-16.77-.04-25.17,3.07-4.2,1.03-7.34,3.12-12.05,1.3M308.61,162.35c.08.01.07-.16,0-.14M308.32,163.6c3.37-5.35,5.16-11.69,5.07-18.01.07,6.73-1.69,13.46-5.08,19.28-.61,1.04-1.43,2.17-2.65,2.3.89-2.12,2.27-4.05,4.01-5.55-2.15,1.47-4.3,2.96-6.47,4.42,2.97-.55,5.57-2.46,7.42-4.87,1.84-2.41,2.98-5.26,3.85-8.16l-2.09,5.43c1.68-4.58,3.36-9.52,2.11-14.22l.02,6.38M309.67,158.87c-.61,2.98-2.78,5.58-5.59,6.74,1.99-.43,3.72-1.76,4.94-3.42s1.95-3.6,2.47-5.57c1.68-6.29,1.3-13.08-1.05-19.15,1.4,3.06,2.2,6.39,2.31,9.76M310.88,139.63c.19-1.02-.37-2.07-1.12-2.8-1.49-1.47-3.66-2.09-5.75-2.04s-4.13.68-6.07,1.41M310.34,140.5c-.45-1.54-1.67-2.79-3.05-3.6-1.38-.82-2.92-.65-4.48-1.11-.61-.18-1.25-.99-1.89-.99-1.97-.02-3.56,1.51-4.88,2.98M312.55,152.23c1.24-2.46.69-5.44-.32-8.03-.46-1.2-1.03-2.41-1.87-3.4-1.15-1.37-2.74-2.31-4.3-3.21-.94-.55-2.24-.82-3.31-1.05-1.36-.3-2.45-.34-3.8.04-2.48.68-4.84,1.76-6.97,3.19M315.28,152.3c.08-3.46-.3-7.02-1.8-10.13-1.5-3.11-4.27-5.75-7.66-6.46-1.53-.32-3.11-.23-4.66-.02-5.45.74-10.8,3.17-14.38,7.36,3.06-2.67,6.35-5.09,9.85-7.18,1.16-.7,2.58-1.37,3.82-.81M312.05,152.47c-.65,2.78-1.72,5.46-3.15,7.91.36-.55.78-1.06,1.24-1.52M301.54,163.84c1.72.77,3.71-.15,5.24-1.25,1.05-.76,2.05-1.6,2.95-2.54.62-.64,1.26-1.55.9-2.36M301.82,162.93c.23.73,1.25.72,1.98.52,2.7-.73,5.22-2.12,7.27-4.04M302.1,162.63c.97.76,2.4.6,3.52.09s2.09-1.33,3.2-1.86c1.22-.59,2.7-.9,3.51-1.98M302.15,162.84c2.11.4,4.25-.49,6.05-1.68s3.34-2.7,5.2-3.78M302.4,162.71c.35.52,1.14.21,1.66-.12.98-.63,1.94-1.28,2.92-1.91,1.89-1.25,3.8-2.49,5.42-4.09M305.62,161.45c-.78.88-2.21.57-3.32.92-1,.32-1.76,1.18-2.76,1.55-.97.38-2.15.26-2.95.92-.35.27-.58.64-.81,1.02-1.27,2.09-2.33,4.29-3.2,6.57M302.4,162.04c-.37.42-1.02.3-1.59.31-.81.02-1.57.41-2.28.83-2.81,1.65-5.34,3.77-7.45,6.25M307.44,136.17c-1.9-1.76-4.81-2.35-7.24-1.46-.06-.26.34-.37.61-.33,1.13.18,2.23.55,3.24,1.1M305.97,135.78l-.34-.17M309.28,136.99c-.77-1.3-2.2-2.12-3.66-2.5s-3.01-.36-4.53-.33c-.66,0-1.35.04-1.91.38,2.7-.8,5.57.35,8.16,1.48M281.45,142.81c1.48.72,5.54.16,6.33-1.53M278.66,144.17c1.4.2,2.83.39,4.22.17s2.78-.97,3.45-2.22M272.07,144.14c.43.22.93.24,1.41.24,3.71.03,7.42-.33,11.05-1.06M282.83,144.48c-.02.31.4.45.68.34s.49-.37.75-.51c.27-.16.6-.19.89-.32,1.11-.45,1.6-2.11,2.81-2.13M285.04,143.69c.71,1.27,3.67-2.45,4.09-2.99M268.23,140.05c1.11.41,1.57,1.72,2.43,2.54,1.73,1.65,4.61.98,6.82,1.89M272.45,143.04c1.61,1.1,4.76,1.9,6.7,2M266.38,130.4c-1.49,2.38-.42,1.52-.68,2.27-.52,1.57.08,3.27.75,4.79.53,1.22,1.11,2.44,1.72,3.62M272.12,124.83c.12-.24-.65.88-.92.88s-.49.19-.69.36c-1.12.99-2.08,2.14-2.88,3.41M273.81,122.93c-2.33,1.86-5.32,4.25-6.95,6.8M278.11,120.82c-1.54.41-3.01,1.13-4.28,2.11-1.75,1.34-3.13,3.1-4.47,4.86M269.71,126.88c-1.89,2.52-2.94,5.67-2.95,8.82,0,.9.07,1.81.37,2.66.55,1.6,1.82,2.86,3.18,3.87,2.16,1.62,4.86,2.79,7.52,2.31M265.52,132.18c-.7,2.09-.17,4.44.92,6.37,2.08,3.71,6.23,6.18,10.49,6.23,1.84.02,3.66-.37,5.45-.76l3.56-.78M277.94,143.4c4.53.29,9.62-1.4,13.29-4.01,2.15-1.53,5.77-5.72,8.71-4.92M306.68,136.56c-2.33-1.35-5.26-1.36-7.86-.64s-4.95,2.11-7.27,3.49l-7.08,4.2M310.84,139.3c.28-.42.21-.99-.03-1.44s-.64-.78-1.03-1.1c-1.34-1.11-2.75-2.25-4.44-2.58-.58-.12-1.15-.13-1.73-.22-.54-.09-1.06-.25-1.59-.32-1.99-.24-3.91.81-5.47,2.09M298.46,136.12c-.96,1.2-2.58,1.59-4.06,2.02-2.79.78-5.49,1.88-8.02,3.28-.6.33-1.18.68-1.66,1.17-.32.34-.57.72-.91,1.02-.61.55-1.48.79-2.29.63M269.85,142.36c1.37,1.3,4.52,3.83,6.47,3.56,1.42-.2,5.64-.54,6.53-.97.26-.13,1.12-.65,1.4-.67.52,0,2.47-1.53,2.84-1.89.58-.55-3.48,1.22-3.25.46M278.21,143.51c1.59.76,3.37.29,4.92-.34M293.17,124.36c2.83-1.11,5.38-2.89,7.41-5.16-1.04,2.71-3.64,4.62-6.43,5.43s-5.77.66-8.65.22c-1.39-.21-2.8-.5-4.09-1.04-.76-.33-1.57-.86-1.65-1.69,4.62,2.46,10.18,3.11,15.26,1.79,1.65-.42,3.28-1.08,4.48-2.28,1.18-1.17,1.85-3.03,1.15-4.54-.34-.75-.96-1.33-1.66-1.75-1.39-.84-3.06-1.11-4.67-1.16-5.1-.18-10.14,1.48-14.51,4.12-4.37,2.63-8.08,6.21-11.43,10.06M279.51,109.66c-2.22,2.22-2.4,4.89-1.44,9.52M278.13,143.43c2.92-.07,5.82-.78,8.45-2.05,1.09-.53,2.14-1.16,3.18-1.78,3.22-1.93,6.45-3.87,9.68-5.8M281.88,143.03c6.68-.99,12.95-4.01,17.69-8.83M277.22,121.1c-.28.34-.53-.35,0-.78.08-.07-.34.12-.31.22,1.6,1.48,2.27,2.16,3.62,2.81-.22-.12-.85-.84-1.08-.96M286.04,104.41c-1.94.57-3.57,2.43-5.12,3.42-.74.48-1.47.98-2.03,1.66s-.99,1.77-1.34,2.89M293.6,105.24c-.35-.64-.7-1.26-1.36-1.35-.32-.04-.64-.02-.95,0-3.29.27-6.5,1.36-9.28,3.16-.75.48-1.48,1.02-1.96,1.76M280.94,109.25c.98.77,2.2,1.23,3.44,1.31.56.03.88-.51,1.43-.58M284.91,110.42c1.91-.18,4.51-.55,6.29-1.24,1.28-.49,2.67-1.26,2.68-2.81,0-.8-.42-1.56-1.07-2.05-1.36-1.04-3.1-.92-4.67-.55-3.41.8-6.55,2.68-8.86,5.31M281.73,144.21c-1.95-.18-4.6-.61-7.07-.34M278.97,143.33c2.28,0,5.32-.31,7.54-.92M270.64,126.25c-1.89,2.13-3.44,4.43-3.79,7.7M280.02,142.38c-.66.12-1.33.17-1.99.17-.02-.02-.07-.03-.18-.02-.03,0-.07,0-.11,0h-.19c-2.05-.05-4.06-.59-5.89-1.55-1.22-.81-2.4-1.75-3-3.12-.11-.22-.83.02-.76.2.11.24.23.46.37.69-.17.07-.31.18-.23.26.87.96,1.87,1.75,2.98,2.39-.21.06-.39.17-.31.23.36.23.73.43,1.11.61-.06.02-.14.04-.19.06-.07.04-.26.17-.08.22,1.97.56,4.01.71,6.06.45.05,0,.19-.06.3-.13.66-.02,1.32-.07,1.97-.18.09-.02.43-.08.44-.22,0-.14-.22-.11-.32-.09h0s0,.02,0,.02ZM253.58,109.86c-.55.07-1.65.13-2.63.11s-2.28-.59-1.62.11c.43.45,1.66.72,2.18.79,1.22.17,2.57-.56,2.9-.64.64-.16-.31-.43-.83-.36h0ZM314.44,140.69l-2.28-3.56c-.07-.12-.37-.07-.56.02-.04-.06-.07-.13-.12-.18-.14-.2-.88.04-.71.3.07.12.15.23.22.34.12.35.33.63.58.9.52.84,1.04,1.68,1.56,2.52.07.13.39.07.58-.03h0c.14.21.85-.03.71-.3h0ZM305.81,132.59c-1.14-.49-2.78-.37-3.92.05-.51.19-.95.52-1.36.87-.51.41-1.19.96-1.44,1.59-.25.68.22,1.45.46.71.63-2.06,1.94-2.55,3.91-2.06.88.22,1.72.61,2.62.76,1.67.26.61-1.52-.26-1.92h0ZM296.43,122.43c-.16-.09-.44-.05-.6,0-1.62.52-3.27.98-4.94,1.37-.12.03-.39.13-.34.28,0,.02.03.02.04.04h-.02s-.08.03-.13.04c-.07.03-.16.08-.2.15-.02,0-.05,0-.07.02-.12.03-.43.15-.32.32.11.16.53.07.66.04.88-.23,1.76-.4,2.65-.61.77-.18,1.52-.4,2.19-.81.2-.05.4-.11.6-.16.12-.03.43-.15.32-.32,0,0-.02,0-.03-.02.04-.03.09-.06.14-.08.12-.07.18-.18.04-.26h0ZM296.25,114.76s-.05.05-.09.06c0,0,0,.02-.02.03-.04.04-.08.07-.14.08-.03,0-.07.02-.11.03-.08.02-.18.02-.26.02-.04,0-.09,0-.14-.01-.06,0-.12-.02-.18-.04-.05-.01-.09-.03-.14-.06-.03-.02-.05-.04-.06-.08,0-.03,0-.05.01-.08,0,0,0-.02.02-.03h0s.04-.05.06-.07c0,0,.02,0,.03-.02.02,0,.06-.03.09-.04.02,0,.04,0,.06-.02.02,0,.04,0,.06-.02.08-.02.18-.02.26-.02.04,0,.09,0,.14.01.08.01.16.03.23.06.03.01.05.03.08.04.03.02.05.04.06.08,0,.03,0,.05-.01.08h0s.03,0,.03,0ZM278.29,144.46c-.07.07-.21.11-.31.13-.13.02-.28.04-.41.02-.03,0-.06-.02-.08-.02-.19.04-.4.05-.58,0h0c-.11,0-.21.02-.32,0-.16,0-.33-.02-.47-.11-.11-.06-.17-.18-.07-.28.14-.16.4-.2.6-.21.12,0,.23,0,.35.04.09-.05.2-.09.32-.12.22-.04.49-.05.7.05.04.02.07.05.09.08h.03s.07.05.08.09c0,0,0,.02-.02.03,0,0,0,0,.02.02.05.01.11.03.14.07.05.06,0,.13-.04.17h0s-.01.03-.01.03ZM311.93,147.98c.01-.18-.71,0-.76.16-.44,1.37-.39,2.84-.53,4.26-.07.4-.15.79-.23,1.19-.03.02-.05.04-.06.07l-.14.3s0,.05.04.07c-.07.31-.15.6-.22.9-.01.06.03.09.09.11-.08.17-.16.33-.24.49-.25.5-.54.96-.85,1.42-.5.72-1.04,1.41-1.6,2.09-.05.04-.11.09-.16.14-.03.02-.06.04-.09.06-.17.13-.35.24-.53.36-.42.19-.86.36-1.29.5-1.38.48-2.8.88-4.23,1.26h-.09c-.15-.01-.26,0-.28.11-.47.13-.94.26-1.41.37-.21.05-.04.23.04.31.18.15.44.2.66.2.64,0,1.27-.06,1.9-.15.06.02.12.03.16.02.03,0,.06,0,.08-.02h.02c.72-.12,1.41-.26,2.12-.45,1.47-.24,2.87-.77,4.16-1.56.15-.09-.15-.27-.45-.38,1.04-.52,2.03-1.18,2.77-2.12.19-.24-.6-.58-.87-.45.04-.06.09-.13.14-.19.31-.46.59-.93.84-1.42.25-.51.57-1.08.58-1.66,0-.13-.18-.2-.38-.23.12-.47.21-.94.25-1.42.25-1.4.42-2.82.53-4.24h0v-.04s.03-.02.03-.02v-.04ZM307.95,138.73c-.77-.41-1.54-.82-2.31-1.23.21.1.45.19.67.11s.37-.36.23-.55c.42.08.87-.08,1.15-.41-2.09-1.19-.41.16-2.77.61,3.22,1.75-1.59-.47-1.14-.3-.33-.18-1.41.02-1.67.28.58.1-2.34-.32-1.77-.23-1.94-.24-1.49-.47-3.23.4.21.16.49.2.74.12-.32.42-.93.58-1.41.38.29-.25.49-.61.55-.99-3.25,1.4-6.12,3.52-9.16,5.33-2.03,1.21-4.18,2.28-6.48,2.88-2.45.63-4.91.47-7.41.23-.78-.07-1.57-.15-2.28-.49-1.04-.49-1.63-1.43-2.36-2.27-.86-.99-1.77-1.95-2.61-2.95-.96-1.14-1.35-2.84-1.85-4.22-.34-.91-.28-1.75-.06-2.7.11-.46.37-.99.84-1.01.1,0,.55-.94.63-1.06.23-.36.47-.71.72-1.05.5-.68,1.05-1.32,1.64-1.92.58-.59,1.2-1.14,1.85-1.66.65-.52.79-1.23,1.41-1.78-.19.17.18-.26.24-.4.08-.17.23-.3.38-.42.7-.58,1.4-1.16,2.11-1.73.32-.26.63-.57.97-.81.3-.21.39-.07.7.08-.19.2-.38.41-.57.61.79.24,1.65.03,2.38-.36.72-.39,1.06-1.15,1.71-1.67,2.41-1.93,5.52-3.05,8.41-4.11-.14-.25-.51-.21-.79-.13-1.75.48-3.46,1.13-5.11,1.91-.83.4-1.65.83-2.44,1.3-.4.23-.79.48-1.18.73-.23.15-.51.35-.78.41-1.37.29-.84-5.72-.72-6.55.15-1.01.48-2,.98-2.9.15-.26.6-1.24.92-1.3.21-.04.38.15.57.2.27.06.55.03.79-.1-.35-.31-.61-.73-.73-1.18-.01-.05-.02-.1,0-.14.02-.05.06-.08.11-.1.22-.14.58-.27.65-.53-.06-.04-.12-.05-.19-.05-.37,0-.74.08-1.08.23.14-.06-1.83-3.36-2.02-3.64-.81-1.17-1.75-2.23-2.68-3.31-.39-.45-.65-1-1.03-1.46-.43-.53-.5-.74-1.15-.93-.2-.06-.22-.09-.36-.26-.23-.29-1.06-.22-.71-.1,2.26.75,3.73,3.4,4.97,5.21.96,1.4,1.92,2.81,2.82,4.25.06.09.74,1.09.63,1.18-1.64,1.3-2.52,2.55-2.89,4.61s-.3,3.8.71,6.99c-1.47,1.01-4.72,2.05-5.95,3.35-1.21,1.52-2.58,2.71-3.76,4.13-1.43,1.72-2.95,3.39-3.48,5.6-.61,2.51-.8,5.01.29,7.44,2.06,4.58,7.31,7.24,12.19,7.25,1.03,0,2.05-.11,3.05-.35,4.87-1.14,8.73-4.77,13.2-7.01,4.63-2.33,10.18-3.12,15.06-1.38-.03-.02-.07-.04-.1-.05ZM466.57,308.55c-.42.5-.8.99-1.16,1.52-.26,0-.58.07-.65.22-2.15,4.16-4.77,8.88-4.64,13.67,0,.26,1.46-.18,1.46-.51,0-.22.02-.43.02-.64.13-.03.22-.09.21-.18-.26-2.62,1.08-5.28,2.08-7.64.96-2.26,2.11-4.45,3.7-6.33.17-.19-.8-.37-1-.13l-.02.02h0Z" fill="none" stroke="#000" stroke-miterlimit="10" stroke-width=".99"/>
      <path d="M317.25,143.87c-.15-.56-.34-1.09-.57-1.61-.06-.17-.13-.33-.19-.5-.26-.74-.35-1.53-.67-2.26s-.76-1.45-1.21-2.12c-1.82-2.66-4.82-5.33-8.07-5.94-.74-.14-1.52-.27-2.28-.18-4.42.51-7.82,3.13-11.59,5.18-3.25,1.77-6.63,3.35-10.13,4.53-.85.19-1.72.7-2.56.73-.74.28-.55.05-2.02.41-.07.09-.11.17-.11.24-.44.11-.86.28-1.02.54-.31.51.27.49.7.45,5.66-.47,11.14-2.1,16.18-4.77.09-.05.2-.09.3-.15.51-.27.38-.45-.03-.61-.42-.15-1.12.06-1.64.25-.09-.03-.2-.05-.31-.05,1.46-.73,2.9-1.49,4.33-2.28.91-.51,1.8-1.03,2.7-1.56.43-.25.88-.62,1.33-.8.56-.22.64-.2,1.07.28.23.26,1.02.14,1.72-.1.25.16.58.22.89.22.2.18.46.31.73.36,2.02.42,3.66,1.95,4.89,3.56-.08.04-.17.11-.24.16-.83-.9-1.86-1.65-3.04-2.17-.73-.33-2.78.31-2.41,1.38.63,1.88,2.11,3.05,3.36,4.51.79.94,1.19,1.96,1.38,3.03,0,.15.02.27.06.38.16,1.13.1,2.32.04,3.52-.18,3.78-.11,10.08-4.02,12.2-.14.07-.25.16-.36.24.21-.58-.4-.84-.89-.85-.87-.03-1.71.09-2.51.32-.28.05-.56.14-.74.2-.09.03-.19.07-.28.11-2.21.67-4.24,1.82-5.95,3.39-1.14,1.03-2.15,2.2-3.19,3.33-1.34,1.15-2.5,2.48-3.25,4.14-.02.03-.04.06-.04.09-.03.08-.08.16-.12.24-.24.6.82.75,1.14.74.63-.02,1.45-.26,1.8-.83.64-1.01,1.38-1.97,2.15-2.91.37-.06.73-.2.99-.38.94-.62,1.61-1.44,2.28-2.28.34-.21.68-.42,1-.62.32-.2.59-.54.55-.85.22-.19.42-.4.65-.58.81-.65,1.76-1.48,2.81-1.92.62-.18,1.26-.29,1.93-.34.39-.03.92-.2,1.29-.48-.36.84,4.5,3.52,5.66,2.89,3.05-1.67,3.25-2.27,3.92-5.42.53-.16-.2-5.06-.15-5.62.28-2.7.1-1.98,0-4.7.04-.96.05-1.77,0-2.74.34.59-.15-2.06.19-1.5.12.18.31.3.52.38.49,1.44,3.44.66,3.03-.87Z" fill="#000" stroke-width="0"/>
      <path d="M295.33,123.75c-1.13.47-2.4.64-3.58.9-1.14.25-2.35.6-3.52.67-2.21.12-4.29-1.07-6.19-2.04-.82-.42-2.88-1.66-3.83-1.61-.87.04-.88.13-1.7.72-1.48,1.08-2.73,2.93-3.99,4.23-.54.56-1.07,1.14-1.56,1.75-.28.55-.53,1.11-.74,1.7-.24,2.16-.29,4.34-.08,6.51.02.23.05.47.08.71.12,1,.02,1.4,1.09,2.79.57.74,2.07.99,2.89,1.24,1.69.5,3.4.92,5.1,1.34,1.28.32,2.57.63,3.84,1.01.41.12,2.69.68,1.62,1.28-1.83,1.03-4.05,1.84-6.13,2.09-1.53.19-3-.06-4.53-.15-1.26-.07-2.56-.18-3.69-.84-.6-.35-1.09-.86-1.63-1.29-.62-.48-1.36-.75-1.98-1.22-.94-.72-1.4-2.02-1.79-3.09-.41-1.14-.78-2.31-.91-3.51-.21-2.04.62-3.72,1.41-5.53.7-1.61,1.6-3.16,2.8-4.45.87-.93,1.89-1.78,2.84-2.61.65-.57,1.32-1.12,2-1.66,1.37-1.06,2.8-2.04,4.28-2.93,1.04-.62.92-1.98,1.63-1s3.59,3.54,4.2,3.68c3.25.75,6.25.64,10.36-.36.97-.23,3.68-1.32,3.58-1.5-.39-.68.53.97-.71,2.4-.15.17-.32.33-.52.44-.22.13-.45.24-.68.33ZM300.74,119.07c0-.13-.02-.25-.03-.39.02-.33,0-.66-.06-.99.02-.09.03-.18,0-.26,0-.02-.02-.05-.02-.07-.04-.54-.07-1.07-.12-1.6-.02-.25-.42-.42-.59-.46-.15-.04-.32-.04-.49-.04-.34-.44-.76-.79-1.32-.94-.06-.02-.15-.01-.22-.02-.08-.03-.17-.06-.25-.07-.45-.08-.89-.08-1.33.03-.23.06-.45.16-.65.27-.15-.31-.55-.49-.92-.53-1.54-.19-3.08.05-4.58.41-1.34.32-2.66.69-4,1.03-.25.06-.58.21-.84.42-.08.02-.17.04-.25.06-.3.07-1.49.38-1.4.84.06.32.79.22,1.27.12.26.6,1.22.58,1.73.45,1.23-.32,2.47-.65,3.7-.96,1.31-.32,2.69-.37,4.04-.43.2,0,.41-.02.61.02.17.03.33.09.48.15.6.22,1.24.52,1.57,1.1.45.77.6,1.78.4,2.64-.11.49-.65,1.44-.26,1.9.19.23.57.36.84.37.4.02.82-.04,1.19-.22.28-.14.69-.36.8-.67.19-.52.38-1.03.51-1.56l.07-.09c.09-.15.13-.31.09-.5ZM256.31,107.94c-.24.15-.11.06,0,0h0ZM262.33,105.04c0-.3-2.32,1.56-2.61,1.59-.43.05,0-.46-.27-.11-.54.7-2.69,1.59-3.57,2.03-.88.44-2.03.4-2.87.9-.13.08-.27.17-.35.3-.25.39.26.59.32.93.05.3-1.03.58-.73.66s1.96,0,2.26-.06c1.71-.32,3.23-1.3,4.58-2.4.35-.29.61-.67.89-1.03.65-.84,2.37-2.65,2.38-2.81Z" fill="#000" stroke-width="0"/>
      <g>
        <path d="M459.64,345.03c-.21-.04-.11-.01,0,0h0Z" fill="#000" stroke-width="0"/>
        <path d="M465.98,341.31c.51-1.24.78-2.55.93-3.89.15-1.34.19-3.93.13-5.27-.36.9-.61,2.95-.88,3.89-.25.87-.04,1.78-.29,2.64-.21.72-.43,1.44-.68,2.15-.03.09-.06.18-.13.25-.23.25-.03.79-.35.92-.35.14-.44.88-.65,1.19-.34.52-.99.62-1.54.76-.66.17-1.29.47-1.96.6-1.11.21-3.29.65-3.72-.85-.17-.58.34-1.73.86-2.04-.75.58-1.73,1.84-1.67,2.79.05.77.66,1.43,1.38,1.72s1.52.23,2.29.11c3.25-.5,5.21-2.38,6.27-4.97Z" fill="#000" stroke-width="0"/>
      </g>
      <path d="M491.96,363.9c.16-.3.27-.6.34-.91.03-.16-.23-.15-.33-.14-.09.02-.2.04-.28.09-.05.03-.14.08-.15.15,0,.02-.02.04-.02.07-.06.03-.14.07-.17.14-.07.13-.17.25-.24.39-.09.04-.18.11-.21.2,0,.02-.02.04-.02.06h0c-.19.16-.39.3-.59.43-.08.03-.16.07-.21.14,0,0-.02.03-.03.04-.95.63-1.98,1.13-3.09,1.45-.14.04-.37.16-.32.33.04.17.32.16.44.13.18-.05.35-.12.52-.18-.09.06-.2.13-.3.18-.14.08-.3.25-.18.41.08.12.26.15.41.12.08.01.18,0,.22,0,.25-.05.51-.13.76-.21,0,0-.03.03-.04.03h0s-.07.05-.12.07h0s-.05.02-.07.04c-.03.02-.08.04-.13.05h-.02s-.04,0-.07.02c-.08.02-.17.04-.24.06h-.02c-.18-.03-.38,0-.54.09-.05.02-.19.13-.14.18,0,.02-.02.03-.02.05-.14.02-.26.06-.36.14-.13.12-.08.22.07.26.62.16,1.31.08,1.89-.18.3-.14.57-.31.78-.55.05-.05.09-.13.13-.19h0c.44-.19.84-.45,1.17-.79.59-.6.95-1.37,1.21-2.15h-.03s0,.02,0,.02Z" fill="#000" stroke-width="0"/>
      <path d="M455.09,263.53c.04-1.57-.05-3.19-.33-4.84-1.65-10.09-7.93-19-14.17-26.8-22.83-28.52-58.21-46.49-94.06-51.57-2.75-.39-5.65-.7-8.24.3-3.59,1.36-5.88,4.91-7.3,8.47-5.67,14.16-6.8,17.18-11.58,26.68-2.88,5.72-20.57,10.14-21.58,11.66-3.81,5.74.87,16.48-2.03,19.58-1.91,2.05-7.18,7.82-14.5,10.15-11.66,3.71-16.04-.15-21.47,1.36-5.04,1.4-3.47,13.36-8.6,16.07-9.27,4.94-17.19,4.68-20.85,5.33-8.57,1.53-12.62-6.56-21.25-5.44-6.14.8-7.12,11.01-13.31,11.02-12.96.05-13.3-1.46-39.11-9.28-1.15-.35-3.37-9.26-8.53-11.22-3.5-1.33-6.6,3.04-9.65,1.52,0,0-6.19-3.09-11.91-8.37-1.33-1.22-2.43-2.44-2.84-4.2-.48-1.99.63-3.53-1.05-8.19-3.12-8.7-8.15-1.52-11.8-6.78-6.1-8.81,1.58-22.29-.39-24.41-3.44-3.69-3.72-10.5-3.82-11.24-.89-6.59,5.17-9.29,6.98-15.09,1.36-4.35,14.74-10.3,9.21-15.01-6.74-5.74-13.51-3.85-16.95.21-3.11,3.69-15.44,8.52-19.76,19.93-1.98,5.24-11.49,4.74-12.86,7.93-1.4,3.28,1.24,5.78,1.83,11.3.9,8.4-1.56,21.55-3.94,27.2-2.54,6.02-7.95,1.98-6.31,10.35.93,4.72,5.06,12.55,10.09,19.57,7.01,9.78,8.31,16.58,16.91,32.11,1.13,2.05-.75,15.53,3.7,17.3,2.36.94,4.78,4.09,7.32,4.09,5.35.01,10.14,2.17,13.93,4.44,13.97,8.34,22.88,14.1,32.52,18.71,8.48,4.07,28.73,8.04,28.26,12.93-.23,2.41,1.63,8.95,11.42,11.81,4.99,1.46,13.63-3.53,20.95-5.45,5.93-1.55,26.39,5.69,75.34-1.1,1.02,1.15,2.67,2.62,4.93,4,2.12,1.3,4.62,2.34,7.19,2.44,2.71-1.74,9.41-1.76,12.14-7.04,5.95-11.5,23.77-12.13,28.43-14.34,32.54-12.97,40.07-17.36,50.28-22.18,5.32-2.5,14.16,1.61,18.45-.46,15.29-7.36-7.61-12.37,23.33-30.23,16.03-9.26,24.58-20.03,24.99-33.26h0s-.01.05-.01.05ZM143.73,285.96c.09-.06.19-.13.28-.19" fill="url(#radial-gradient)" stroke-width="0"/>
      <path d="M281.8,174.08c-6.74-.02-6.78,10.47-.03,10.48,6.76.02,6.78-10.47.03-10.48Z" fill="url(#radial-gradient-2)" stroke-width="0"/>
      <path d="M395.21,309.33c-.24-1.11-.77-1.96-1.48-2.57.61-1.03.82-2.36.39-3.96-1.48-5.36-3.12-10.73-6.62-15.16-2.6-3.31-5.64-5.82-7.96-9.03-.99-2.07-2.02-4.13-3.11-6.15-.94-1.72-2.57-2.47-4.23-2.49-2.83-3.48-5.79-6.87-8.97-10.05-5.9-5.94-12.57-11.34-19.96-15.31-.68-.37-1.38-.72-2.08-1.07-2.35-1.61-4.78-3.04-7.31-4.14-3.74-1.61-8.33-2.38-12.94-2.38-1.94-.47-4.08-.38-6.44.01-.73.13-1.34.41-1.86.81-1.7.35-3.33.81-4.82,1.38-2.04.77-3.44,2.99-3.69,5.15-1.12-.22-2.34-.1-3.55.52-2.69,1.36-5.05,3.04-7.29,5.01-1.37,0-2.7.58-3.6,1.9-.32.31-.62.63-.89,1.06-.65.11-1.29.33-1.88.67-1.27.27-2.55.53-3.83.76-4.94.88-5.08,9.32-.03,10.11.84.13,1.64.19,2.4.2.72.91,1.74,1.51,2.87,1.79.49.59,1.06,1.1,1.69,1.47v.38c-.04,2.4,1.71,4.22,3.78,4.92,1.83,3.7,4.03,7.19,6,10.87,3.41,6.36,6.09,13.04,8.05,19.97,3.96,13.95,3.97,28.11,4.15,42.49,0,.59.11,1.12.24,1.6-.6.56-1.09,1.25-1.42,1.99-2.85,3.98,2.73,9.42,7.32,7.2.12-.05.23-.12.35-.17.56-.27,1.02-.68,1.4-1.17,11.34-3.95,22.67-7.87,34.01-11.85,4.98-1.75,9.83-3.6,14.38-6.31,4.43-2.64,9.63-2.61,13.9-5.4.19-.13.36-.25.52-.39,12.01.09,14.44-13.32,12.47-22.66v.02s0,0,0,0ZM338.28,259.42c.06-.5.06-.96,0-1.42.35.11.69.2,1.02.31-.39.33-.74.69-1.04,1.12h0s0,0,0,0ZM356.43,290.41c-.15,0-.28.03-.43.05.18-.54.34-1.07.46-1.61-.01.52-.03,1.03-.03,1.55h0Z" fill="url(#radial-gradient-3)" stroke-width="0"/>
      <path d="M107.25,224.6c-1.07-3.4-5.38-4.67-8.06-3.03-1.68-1.17-3.57-2-5.55-2.62-2.78-.85-6.92-.69-9.06-2.83-3.91-4.74-9.71-2.78-8.96,3.68-.13,7.73-2.92,15.4-1.4,23.2-.09,2.85,2.33,6.39,3.85,8.92,2.02,3.36,5.92,3,8.17.96,1.01.52,2.01,1.14,3.22,1.27,1.25.13,2.26-.13,3.24-.53,5.48.9,12.57-1.19,15.65-5.93,4.58-7.05,1.19-15.89-1.08-23.1h0s-.02,0-.02,0Z" fill="url(#radial-gradient-4)" stroke-width="0"/>
      <path d="M112.89,181.92c-1.13-1.07-1.93-1.98-2.73-3.3-1.4-2.28-3.4-5.06-5.78-3.42-2.38,1.63-5.96,5.04-7.87,7.2-1.14,1.28-2.28,2.58-3.2,4.03-.45.7-.85,1.44-1.13,2.22-.28.79-1.48.95-1.85,1.7-.75,1.53-1.6,2.78-3.05,3.36-1.72.69-3.05,1.63-3.84,3.36-2.3,5.07,3.56,9.63,7.19,7.48.55.47,1.23.86,2.09,1.1,4.74,1.31,11,4.15,14.05-1.42,1.26-2.28,1.85-5,2.84-7.42,1.2-2.92,2.63-5.75,4.11-8.53,1.08-2.01.93-4.73-.83-6.36Z" fill="url(#radial-gradient-5)" stroke-width="0"/>
      <path d="M293.12,248.81c.94-1.15,2.84-.97,7.22-3.31,4.6-2.47,14.45-1.69,19.11.67,4.65,2.36,8.45,6.69,9.43,11.82.98,5.13-1.8,12.64-6.35,15.23-3.86,2.2-8.99,4.4-13.48,3.21-6.09-1.6-8.49-4.26-10.87-9.12-1.54-3.14-1.1-5.63-.56-8.25.51-2.48,1.58-3.58,1.95-4,2.56-2.89,5.87-3.59,9.61-3.38,4.84.26,8.49,2.33,9.84,4.7,3.92,6.88-2.57,10.28-4.79,10.83-5.99,1.48-6.72-4.14-6.2-4.52" fill="none" stroke="#212120" stroke-linecap="round" stroke-miterlimit="10" stroke-width="2.98"/>
      <path d="M328.87,257.97c.29,2.64.39,5.61-.02,8.24-1.04,6.85-4.43,13.44-3.82,20.35.43,4.83,3,9.51,7.02,12.2,4.03,2.69,8.82,2.87,13.41,1.33,2.82-.96,3.7-.88,6.73-2.69,1.91-1.14,5.1-3.68,6.09-5.7,2.73-5.53,2.29-11.91-2.55-15.73-3.13-2.48-4.85-2.91-7.97-2.94-1.29,0-4.4,1.3-6.8,2.76-2.98,1.79-4.39,3.92-5.33,7.27-.94,3.35.93,6.89,4,8.51,5.28,2.8,11.58-5.27,4.52-7.85" fill="none" stroke="#212120" stroke-linecap="round" stroke-miterlimit="10" stroke-width="2.98"/>
      <path d="M343.09,300.73c7.41-.29,14.67.36,21.36,3.56,2.11,1.02,4.75,3.31,6.06,5.74,2.47,4.63,2.9,8.43.8,14.01-1.85,4.91-11.95,14.21-19.18,14.8-11.15.9-17.08-4.78-18.67-13.35-1.02-5.57,1.03-8.4,3.58-11.32,3.27-3.76,10.87-6.1,16.04-4.47,6.46,2.04,7.25,9.52,5.5,14.25-2.2,5.97-13.25,5.84-11.28-2.98" fill="none" stroke="#212120" stroke-linecap="round" stroke-miterlimit="10" stroke-width="2.98"/>
      <path d="M371.2,324.27c-1.49,2.63-3.34,5.24-4.01,8.19-.25,1.16-.37,2.41.01,3.53s.84,1.44,2.03,1.56c.45-.53,1.6-1.03,2.29-1.12,0,.26-.53.82-.31.68" fill="none" stroke="#212120" stroke-miterlimit="10" stroke-width="2.98"/>
      <path d="M209.85,290.08c-6.2.06-14.64-1.5-18.86-6.04-.12.19-.13.43-.03.63" fill="none" stroke="#221f1f" stroke-miterlimit="10" stroke-width="2.19"/>
      <path d="M212.97,299.36c-1.02.72-17.32-.72-22.11-2.43-11.72-4.2-18.83-11.71-22.45-16.62" fill="none" stroke="#221f1f" stroke-miterlimit="10" stroke-width="2.19"/>
      <path d="M208.79,322.17c-13.39-1.45-21.74-4.64-31.79-12.97-7.17-5.93-14.06-17.96-20.9-31.09.12.26,0,2.83.11,3.09" fill="none" stroke="#221f1f" stroke-miterlimit="10" stroke-width="2.19"/>
      <path d="M205.89,339.93c-34.44-7.73-45.2-26.11-53.09-46.22" fill="none" stroke="#221f1f" stroke-miterlimit="10" stroke-width="2.19"/>
      <path d="M197.12,350.4c-2.3,5.09-21.42.95-33.93-11.94-8.55-8.82-15.57-22.84-19.87-34.11" fill="none" stroke="#221f1f" stroke-miterlimit="10" stroke-width="2.19"/>
      <path d="M138.75,341.12c-5.65-5.79-10.35-12.69-12.74-24.2" fill="none" stroke="#221f1f" stroke-miterlimit="10" stroke-width="2.19"/>
      <path d="M158.27,350.3c-4.96-3.99-13.52-14.4-16.57-19.98-4.11-7.51-5.34-11.68-6.91-18.82" fill="none" stroke="#221f1f" stroke-miterlimit="10" stroke-width="2.19"/>
      <path d="M134.61,290.53s2.1-4.12,1.85-4.12c-1.63-4.96-2.44-14.23-1.2-20.96" fill="none" stroke="#221f1f" stroke-miterlimit="10" stroke-width="1.99"/>
      <path d="M130.26,295.37c-2.37-11.83-3.12-23.79.69-35.02" fill="none" stroke="#221f1f" stroke-miterlimit="10" stroke-width="1.99"/>
      <path d="M122.08,300.53c-2.27-14.74-1.64-30.45,4.51-43.79" fill="none" stroke="#221f1f" stroke-miterlimit="10" stroke-width="1.99"/>
      <path d="M111.08,305.63c-4.06-14.38-.84-31.02,5.65-45.2-.44.07-2.04.14-2.46.21" fill="none" stroke="#221f1f" stroke-miterlimit="10" stroke-width="1.99"/>
      <path d="M101.71,304.42c-3.51-13.09,0-27.27,4.83-39.93-.16.73-3.09,1.46-3.25,2.21" fill="none" stroke="#221f1f" stroke-miterlimit="10" stroke-width="1.99"/>
      <path d="M89.82,296.9c-1.35-6.28-1.07-10.02-.39-12.88,2.87-12.32,6.71-16.47,7.95-17.21" fill="none" stroke="#221f1f" stroke-miterlimit="10" stroke-width="1.99"/>
      <path d="M80.06,282.34c.1-4.48,3.97-11.78,7-15.54" fill="none" stroke="#221f1f" stroke-miterlimit="10" stroke-width="1.99"/>
      <path d="M135.96,282.61c.46.79,1.37,1.3,2.28,1.24-.08.09-.23.13-.35.08" fill="none" stroke="#000" stroke-miterlimit="10" stroke-width=".99"/>
      <path d="M135.54,284.17c.13,1.42.01,2.88-.34,4.27" fill="none" stroke="#000" stroke-miterlimit="10" stroke-width=".99"/>
      <path d="M130,291.45c-.02,1.01,1.17,1.86,2.11,1.5.04.13-.06.28-.2.3" fill="none" stroke="#000" stroke-miterlimit="10" stroke-width=".99"/>
      <path d="M129.06,291.93c.17.43.21.9.13,1.35-.07.4-.25.77-.43,1.14-.2.41-.39.81-.59,1.23-.03.06-.07.14-.15.14s-.07-.14,0-.12" fill="none" stroke="#000" stroke-miterlimit="10" stroke-width=".99"/>
      <path d="M121.86,296.74c-.04.34.16.68.43.88s.61.31.93.4c.53.15,1.04.31,1.56.45" fill="none" stroke="#000" stroke-miterlimit="10" stroke-width=".99"/>
      <path d="M121.13,296.81c.19,1.38-.27,2.83-1.19,3.87" fill="none" stroke="#000" stroke-miterlimit="10" stroke-width=".99"/>
      <path d="M113.22,302.85c-.07.05.13.09.11,0s-.14-.11-.23-.11c-1.23.02-2.44-.76-2.93-1.9.14.43-.44,1.33-.65,1.73-.59,1.17-1.5,2.18-2.6,2.9" fill="none" stroke="#000" stroke-miterlimit="10" stroke-width=".99"/>
      <path d="M101.25,302.5c.33,1.16,2.25,2.09,3.45,2.27" fill="none" stroke="#000" stroke-miterlimit="10" stroke-width=".99"/>
      <path d="M100.78,302.15c-.13.33-.08.7-.18,1.01-.06.22-.18.42-.31.62-.21.35-.42.7-.63,1.04-.38.62-.81,1.29-1.49,1.52" fill="none" stroke="#000" stroke-miterlimit="10" stroke-width=".99"/>
      <path d="M88.64,289.93l-.66.98c-.36.54-.74,1.08-1.3,1.37-.2-.17-.39-.34-.58-.51" fill="none" stroke="#000" stroke-miterlimit="10" stroke-width=".99"/>
      <path d="M81.19,276.04c-.35.35-.81.7-1.28.54-.46-.15-.85-.76-1.28-.51" fill="none" stroke="#000" stroke-miterlimit="10" stroke-width=".99"/>
      <path d="M206.92,287.15s-.03.04-.05.06c-.54.72-.74,1.83-1.59,2.11,0,.14-.02.27-.03.41" fill="none" stroke="#000" stroke-miterlimit="10" stroke-width=".99"/>
      <path d="M208.71,298.87c.81-.43,1.56-.98,2.22-1.63.32-.32.62-.67.71-1.11s-.14-.95-.55-1.07" fill="none" stroke="#000" stroke-miterlimit="10" stroke-width=".99"/>
      <path d="M207.58,290.69c.46.22.92.45,1.27.83s1.52.58,1.35,1.05" fill="none" stroke="#000" stroke-miterlimit="10" stroke-width=".99"/>
      <path d="M207.37,321.49c.76.3,1.66-.03,2.25-.58s.94-1.33,1.24-2.08" fill="none" stroke="#000" stroke-miterlimit="10" stroke-width=".99"/>
      <path d="M209.21,299.64c.76.7,1.53,1.44,1.98,2.37s1.63,2.68,1.08,3.57" fill="none" stroke="#000" stroke-miterlimit="10" stroke-width=".99"/>
      <path d="M201.39,338.14c.7-.04,1.4-.15,1.98-.52s1.93-.51,1.74-1.17" fill="none" stroke="#000" stroke-miterlimit="10" stroke-width=".99"/>
      <path d="M207.07,322.01l.92,1.28c.24.33.47.66.61,1.03.44,1.18-.14,2.49-.75,3.6" fill="none" stroke="#000" stroke-miterlimit="10" stroke-width=".99"/>
      <path d="M200.95,339.15c1.18,1.03,1.48,2.92.69,4.26" fill="none" stroke="#000" stroke-miterlimit="10" stroke-width=".99"/>
      <path d="M189.66,352.71c.55,1.27.57,2.75.04,4.03" fill="none" stroke="#000" stroke-miterlimit="10" stroke-width=".99"/>
      <path d="M290.63,342.19c-.08-.05-.19.06-.18.16s.09.17.18.23c.54.4,1.1.78,1.46,1.34s1.78,1.39,1.29,1.83" fill="none" stroke="#000" stroke-miterlimit="10" stroke-width=".99"/>
      <path d="M288.85,355.74c-.13-.13-.38-.07-.43.09,1.26.44,1.95,2.06,1.41,3.28" fill="none" stroke="#000" stroke-miterlimit="10" stroke-width=".99"/>
      <path d="M291.1,321.31c0,.21.39.18.45-.03s-.08-.41-.22-.57c-.76-.89-2.8-1.33-2.49-2.62.13-.52.89-.98,1.14-1.49.35-.64.45-1.44.57-2.14-.13-.04-.24-.08-.37-.14" fill="none" stroke="#000" stroke-miterlimit="10" stroke-width=".99"/>
      <path d="M279.09,291.86c.59,0,1.2.04,1.73.34s1.69-.02,1.56.57" fill="none" stroke="#000" stroke-miterlimit="10" stroke-width=".99"/>
      <path d="M278.47,290.96c.49-.2.82-.67.97-1.17s.15-1.03.14-1.56c0-.5,0-.98-.17-1.46" fill="none" stroke="#000" stroke-miterlimit="10" stroke-width=".99"/>
      <path d="M108.8,232.5c-3.04-.07-6.11-.13-9.09.49s-5.9,1.92-7.92,4.19-3.93,6.1-2.01,8.46c2.26,2.77,5.37,3.68,8.2,2.32,1.81-.88,2.45-1.41,3.24-2.97.66-1.32.63-3.18.25-4.62-.42-1.58-1.86-2.49-3.97-1.88-1.68.49-2.79,3.96-.15,4.89" fill="none" stroke="#000" stroke-linecap="round" stroke-miterlimit="10" stroke-width=".99"/>
      <path d="M108.5,231.46c-3.05-.15-6.11,0-9.12.47-1.77.26-3.57.65-5.35.43-1.11-.13-2.22-.53-3.1-1.23-1.61-1.3-1.12-3.58.13-4.97.72-.8,1.84-1.15,2.89-1.43,1.8-.49,3.74,2.15,2.81,3.7-.61,1.03-2.19,1.35-3.14.6" fill="none" stroke="#000" stroke-linecap="round" stroke-miterlimit="10" stroke-width=".99"/>
      <path d="M94.73,234.82c-3.5,1.84-6.32,3.99-9.37,6.47-1.64,1.34-6.09,1.27-7.12-1.27-1.93-4.72,2.78-6.82,5.31-6.86,1.44-.03,3.12,2.5,1.79,4.09-.89,1.06-2.54.9-3.75.65" fill="none" stroke="#000" stroke-linecap="round" stroke-miterlimit="10" stroke-width=".99"/>
      <path d="M467.48,120.85c.45-.77.72-1.66.69-2.55-.04-1.53-.32-2.95-.8-4.34.01-.18.03-.36.03-.55.01-.59-.06-1.16-.2-1.72-.06-.8-.13-1.61-.19-2.42-.13-1.36-.65-2.45-1.4-3.26-.07-.57-.15-1.12-.22-1.69-.18-1.29-.72-2.33-1.47-3.12-.35-1.64-.77-3.26-1.3-4.9-.27-.84-.69-1.5-1.18-2.04,0-.27-.03-.54-.08-.79-.04-.32-.08-.62-.13-.93-.16-.69-.46-1.28-.93-1.78-.23-.4-.54-.71-.94-.95-.51-.46-1.1-.78-1.78-.94-.46-.06-.93-.13-1.39-.19-.39,0-.76.05-1.12.13-.83.04-1.62.26-2.36.69-.36.27-.71.54-1.07.81-.58.58-1,1.27-1.26,2.03-.26.39-.49.79-.64,1.22-.84,1.55-1.74,3.07-2.69,4.54-1.25.53-2.35,1.56-3.01,3.17-.01.03-.03.07-.04.11-.46.23-.92.54-1.32.96-1.18,1.19-2.35,2.4-3.53,3.59-.5.51-.85,1.02-1.12,1.56-3.3,3.66-6.39,7.5-9.27,11.49-2.31,2.72-4.34,5.66-6.06,8.79-.82,1.15-1.6,2.32-2.33,3.54-.7,1.14-.88,2.29-.71,3.34-.02.05-.04.09-.06.15-.14.34-.28.67-.42,1.01-.91,2.11-.47,4.15.61,5.63-.14,2.67,1.5,4.24,3.52,4.71-.3,2.61-.6,5.21-.9,7.83-.28,2.55,2.2,4.87,4.54,5.16,2.78.34,4.75-1.26,5.76-3.74.2-.51.34-.99.44-1.51.12-.22.22-.46.32-.69.56.14,1.12.19,1.7.16.35.15.7.25,1.08.33,1.41,1.4,3.88,1.67,5.96.86.93,1.96,2.75,3.14,4.76,3.1,1.39.55,2.94.61,4.23.02.94-.21,1.85-.65,2.62-1.34.16-.15.31-.31.46-.45,1.19-.12,2.34-.62,3.19-1.61.56-.42,1.07-.97,1.43-1.73.44-.89.88-1.77,1.32-2.66.23-.19.46-.4.69-.64.26-.31.52-.59.74-.89.86-.6,1.56-1.46,1.94-2.59.51-1.52.83-2.89,1.05-4.47.04-.33.06-.65.06-.95.5-.55.89-1.21,1.11-2.05,1.05-4.08,1.76-8.16,2.26-12.34.15-1.23-.13-2.25-.65-3.03.04-.7.06-1.38.08-2.08v.03s0,0,0,0Z" fill="url(#radial-gradient-6)" stroke-width="0"/>
      <path d="M406.59,111.42c.22-3.11.19-6.26-.11-9.42-.06-.65-.24-1.22-.46-1.75-.37-2.89-1.11-5.64-2.59-7.4-.07-.28-.17-.56-.26-.84.02-.24.04-.49.07-.73.91-6.46-8.27-9.54-10.1-2.82-.32,1.17-.53,2.32-.63,3.5-1.15.31-2.27,1.02-3.12,2.17-1.43,1.93-2.44,4.15-3.5,6.31-.89.57-1.62,1.44-2.1,2.61-1.51,3.74-4.97,6.41-6.87,9.94-1.34,2.5-2.76,4.72-3.16,7.47-.74,1.1-.71,2.87-.51,4.14-.09-.55-.18-1.48-.11-2.12.12-1.1.03.08,0,0,.23-.83.09-2.16-.32-3.14-.88-2.12-1.63-3.02-3.58-4.63-1.78-1.48-3.6-3.56-5.69-4.55-1.69-.79-3.24-1.42-4.93-2.1-2.06-.82-4.14-.86-6.34-1.09-.46-.04-1.23-.12-1.52.16-.3-.19-.77-.23-1.11-.34-.63-.33-1.41-.16-2.14-.14-.09,0-.19.02-.28.04-.19-.02-.38-.04-.57-.04h-.17c-.73-.03-1.39.13-2.03.44-.65.21-1.66-.08-2.13.41-.52.47-2.94,0-3.15.65-.33.63-.04,1.85.95,3.25.06.46,1.22,1.39,1.29,1.86.25.89.7,1.66,1.35,2.32l.12.08c.31.35.64.66,1.06.92,3,4.69,5.77,9.5,8.34,14.45.22.42.5.77.8,1.08.16.54.33,1.08.5,1.62h0c.15.43.35.84.57,1.23.21.44.48.85.84,1.18.04.04.08.06.13.11.71.77,1.89,2.1,2.8,2.24.36.08.79.01,1.17,0,.46-.06.54-.93,1-.99.89-.25,1.66-.7,2.32-1.35.27-.36.55-.7.82-1.06.38-.65.61-1.36.69-2.09.37-.89.63-1.84.72-2.72.76.2,1.54.25,2.29.15,3.63.69,6.86-2.07,6.35-5.69.12.54.45.8.44,1.39,0,.39.13,1.25.38,1.6,1.72,2.34,5.77.43,8.41,1.78,1.77.64,3.6,1.39,5.38,1.8,1.75.4,3.51.45,5.27.26.74.38.26.65.3.65,1.71.37,2.84-.34,4.55-.68,2.08-.25,3.87-1.07,4.92-3.3l.64-1.38c.03-.07.05-.16.09-.24.54-.84,1.94-2.63,2.3-3.91.76-2.83.76-6.01,1.1-8.91.11-.95-.06-1.79-.44-2.5v.04s-.02.04-.02.04Z" fill="url(#radial-gradient-7)" stroke-width="0"/>
      <path d="M502.83,290.75c-.45-1.85-.4-3.4-.31-5.28.05-1.26-.4-2.36-1.15-3.22.64-1.03.86-2.4.39-4.04-1.37-4.68-3.24-9.13-5.65-13.38-.41-.72-.89-1.27-1.4-1.69-2.58-3.67-5.94-6.64-10.31-8.64-.99-.45-2.21-.64-3.38-.54-3.29-.33-6.66,2.88-5.74,6.62.2.81.36,1.61.52,2.43-.8.61-1.41,1.55-1.72,2.87-.34,1.52-.66,3.01-.98,4.48-.32,1.28-.68,2.53-1.07,3.79-2.65,1.56-4.29,2.21-4.66,4.75-.94-.35-1.58.91-2.68.71-2.7-.5-4.61.68-6.91.9-1.15.11-3.82-.98-3.7,0-.92-.81.26,1.07-.9.5-5.28-2.65-5.94,4.64-9.64,7.38-2.03,1.5-3.85,2.59-5.24,4.77-.7,1.08-1.32,2.1-1.97,3.09-2.09.51-3.97,2.14-4.26,4.85-.09.93-.2,1.88-.31,2.81-.04.37-.02.72.03,1.04-.58,5.59-1.73,10.88-1.08,16.71.35,3.18.69,6.4,1.43,9.52.82,3.47,2.58,6.51,3.57,9.91,1.68,5.7,8.66,4.41,10.1-.42.92-.58,1.7-1.46,2.19-2.67.61-1.5,1.29-2.98,1.99-4.43.66-.41,1.27-.97,1.77-1.76,3.34-5.26,6.6-10.6,9.46-16.13.93-1.78,1.4-3.26,1.52-4.6.69-.71,1.18-1.61,1.45-2.56.46-1.66.62-3.45.84-5.14.14-1.12-.26-2.17-.95-3.04-.05-.95-.14-1.9-.3-2.84,2.07,3.42,4.13,6.87,6.45,10.1,5.54,7.72,13.71,12.71,19.57,20.02,2.77,3.45,9.36.7,8.96-3.68-.49-5.32-.61-11.62.8-16.81,1.05-3.89,1.33-7.23,1.22-10.94,1.54-1.12,2.54-3,2.06-5.4h-.03s0-.01,0-.01Z" fill="url(#radial-gradient-8)" stroke-width="0"/>
      <path d="M329.32,195.28c8.96-1.55,17.76-3.94,26.26-7.13,2.32-.88,4.94-2.15,5.43-4.59" fill="none" stroke="#000" stroke-miterlimit="10" stroke-width=".25"/>
      <path d="M323.25,208.72c14.81-3.26,35.47-7.6,50.3-10.86,2.39-.53,7.9-2.31,9.95-3.67" fill="none" stroke="#000" stroke-miterlimit="10" stroke-width=".25"/>
      <path d="M333.56,214.91c23.94-1.92,47.77-5.25,71.32-9.96" fill="none" stroke="#000" stroke-miterlimit="10" stroke-width=".25"/>
      <path d="M343.21,225.82c26.08-.74,52.48-2.43,77.67-9.8" fill="none" stroke="#000" stroke-miterlimit="10" stroke-width=".25"/>
      <path d="M365.18,235.68c14.66-.26,29.3-.97,43.92-2.16,9.54-.77,19.13-1.76,28.26-4.64" fill="none" stroke="#000" stroke-miterlimit="10" stroke-width=".25"/>
      <path d="M385.78,252.24l64.48-5.61" fill="none" stroke="#000" stroke-miterlimit="10" stroke-width=".25"/>
      <path d="M396.52,265.87c19.85-.94,39.73-.98,59.54-2.33" fill="none" stroke="#000" stroke-miterlimit="10" stroke-width=".25"/>
      <path d="M405.03,283.53c16.05-.03,32.36-1.37,48.07-4.68" fill="none" stroke="#000" stroke-miterlimit="10" stroke-width=".25"/>
      <path d="M411.68,296.54c7.24-.76,14.48-1.51,21.71-2.26" fill="none" stroke="#000" stroke-miterlimit="10" stroke-width=".25"/>
      <path d="M413.47,303.48c3.33.02,6.68-.18,9.98-.6" fill="none" stroke="#000" stroke-miterlimit="10" stroke-width=".25"/>
      <path d="M243.29,279.29c9.98,6.45,28.95,13.69,40.31,16.89-.52,0-6.1-1.84-6.61-1.88" fill="none" stroke="#000" stroke-miterlimit="10" stroke-width=".25"/>
      <path d="M234.02,281.98c3.33,4.26,7.88,7.54,12.02,10.95,4.69,3.85,9.38,7.68,14.15,11.42,8.68,6.79,20.63,16.21,31.36,19.44-1.38-.26-5.62-2.48-7-2.75" fill="none" stroke="#000" stroke-miterlimit="10" stroke-width=".25"/>
      <path d="M227.12,285.01c14.72,26.64,37.72,49.76,67.24,57.82" fill="none" stroke="#000" stroke-miterlimit="10" stroke-width=".25"/>
      <path d="M230.17,313.13c17.91,18.45,36.72,37.37,61.73,46.5" fill="none" stroke="#000" stroke-miterlimit="10" stroke-width=".25"/>
      <path d="M227.78,333.56c15.06,12.75,30.9,24.97,48.96,33.18" fill="none" stroke="#000" stroke-miterlimit="10" stroke-width=".25"/>
      <path d="M217.1,342.68c7.86,10.86,19.38,18.22,30.89,24.73" fill="none" stroke="#000" stroke-miterlimit="10" stroke-width=".25"/>
      <path d="M217.32,355.47c2.39,5.39,6.57,8.55,10.07,12.77" fill="none" stroke="#000" stroke-miterlimit="10" stroke-width=".25"/>
      <path d="M210.62,321.68c-5.9-11.04-10.53-22.76-13.76-34.85" fill="none" stroke="#000" stroke-miterlimit="10" stroke-width=".25"/>
      <path d="M202.62,344.55c-2.09-2.05-3.23-4.86-4.27-7.59-6.19-15.99-12.07-35.84-12.99-52.97" fill="none" stroke="#000" stroke-miterlimit="10" stroke-width=".25"/>
      <path d="M195.62,351.72c-9.55-21.58-16.83-45.12-20.02-68.53" fill="none" stroke="#000" stroke-miterlimit="10" stroke-width=".25"/>
      <path d="M189.08,357.55c-11.02-19.35-18.98-41.47-20.6-63.79-.33-4.4-.74-9.04-.07-13.43" fill="none" stroke="#000" stroke-miterlimit="10" stroke-width=".25"/>
      <path d="M177.26,357.78c-11.42-19.9-19.73-41.56-24.55-63.98.4,1.49.8,2.98,1.2,4.45" fill="none" stroke="#000" stroke-miterlimit="10" stroke-width=".25"/>
      <path d="M167.44,354.24c-10.57-12.41-24.08-28.48-25.98-44.91" fill="none" stroke="#000" stroke-miterlimit="10" stroke-width=".25"/>
      <path d="M149.38,348.64c-7.7-10.69-13.88-22.48-18.27-34.9.33,1.02.64,2.07.97,3.09" fill="none" stroke="#000" stroke-miterlimit="10" stroke-width=".25"/>
      <path d="M133.07,338.9c-4.93-5.92-7.59-13.34-9.55-20.69" fill="none" stroke="#000" stroke-miterlimit="10" stroke-width=".25"/>
      <path d="M143.19,269.92c-8.07,7.19-13.8,16.95-16.16,27.5" fill="none" stroke="#000" stroke-miterlimit="10" stroke-width=".25"/>
      <path d="M134.5,269.28c-10.43,11.07-21.34,22.09-27.6,36.22" fill="none" stroke="#000" stroke-miterlimit="10" stroke-width=".25"/>
      <path d="M132.55,264.55c-9.98,10.04-26.78,25.78-32.24,39.24" fill="none" stroke="#000" stroke-miterlimit="10" stroke-width=".25"/>
      <path d="M117.02,263.46c-8.3,10.74-18.54,25.01-24.34,37.36" fill="none" stroke="#000" stroke-miterlimit="10" stroke-width=".25"/>
      <path d="M106.1,265.05c-5.41,5.88-10.02,12.49-13.64,19.63-2.26,4.45-4.17,9.29-3.83,14.27.02.3.12.66.41.71s.2-.61,0-.4" fill="none" stroke="#000" stroke-miterlimit="10" stroke-width=".25"/>
      <path d="M81.14,282.94c5.05-5.16,8.41-10.45,14.59-14.18-.75-.16-1.46-.6-1.92-1.21" fill="none" stroke="#000" stroke-miterlimit="10" stroke-width=".25"/>
      <g>
        <path d="M4,514.84c.99.41,1.09,1.27,1.09,2.17-.54-.04-1.32.29-1.1-.82.08-.44.01-.9.01-1.35Z" fill="#fff" stroke-width="0"/>
        <path d="M389.74,138.08c-3.36.33-8.38-1.55-11.79.27,5.58,4.6,17.66,2.64,24.44,2.11,1.2-.09,7.1.65,5-2.09-1.44-1.87-11.42,0-13.63.14-1.07-6.44,6.93-6.57,11.72-5.54,6.57,1.41,11.99,6.9,14.59,12.93,5.15,11.86,1.7,28.68-7.9,37.42-17.7-10.78-36.19-19.66-57.01-22.76-6.43-19.96,19.5-42.24,34.98-23.13-.13.22-.25.45-.39.67h0s0-.02,0-.02Z" fill="url(#radial-gradient-9)" stroke-width="0"/>
        <path d="M396.75,326.44c7.52-21.23-9.07-47.27-23.22-61.88-16.08-16.61-39.22-31.04-63.3-28.35-2.9.33-10.24,7.5-12.72,5.48-3.21-2.61-1.72-14.57.31-16.27,9.15-7.64,28.55-3.06,38.9.03,21.93,6.53,42.18,21.77,56.15,39.74,7.9,10.19,14.08,21.87,16.91,34.51,1.77,7.92,2.47,33.31-13.04,26.75h0s0,0,0,0Z" fill="url(#radial-gradient-10)" stroke-width="0"/>
        <path d="M455.24,220.11c9.46-3.54,11.03-6.11,10.78-17.59,6.39.86,10.89-1.56,17.11-2.01,5.69-1.06,10.12-2.22,15.42-3.58,19.79,11.84,14.14,37.71-1.65,50.13-6.01,4.73-20.28,9.92-25.08,1.49-2.66-4.67-4.18-9.98-7.02-14.66-2.9-4.8-6.27-9.27-9.57-13.79h.02s0,0,0,0Z" fill="url(#radial-gradient-11)" stroke-width="0"/>
        <path d="M302.86,367.84c-4.4,3.45-15.42,1.68-12.91-3.32,7.66-15.26,6.47-42.81,2.14-57.5-2.82-9.54-6.82-18.57-13.28-26.21-5.93-7.02-12.67-7.62-20.28-10.03-2.74-.86-5.61-2.15-1.39-7.99,5.72-7.93,21.95-.5,27.59,4.85,9.62,9.13,17.23,21.01,21.22,33.48,4.31,13.46,7.13,29.2,5.96,43.37-.46,5.67-3.27,18.85-9.04,23.37v-.02s0,0,0,0Z" fill="url(#radial-gradient-12)" stroke-width="0"/>
        <path d="M179.92,359.07c16.47,4.4,27.93-20.95,31.52-32.82,2.39-7.86,4.09-15.24,3.32-23.46-.88-9.37-4.55-15.58-12.27-20.58,1.1-6.3,12.78-6.44,17.02-3.99,4.59,2.65,7.1,7.84,8.64,12.7,3.91,12.42,1.87,27.5-1.54,39.86-3.21,11.61-9.64,25.55-18.86,33.64-4.43,3.88-10.36,7.22-16.41,7.03-8.64-.59-14.19-6.49-11.42-12.39h0s0,0,0,0Z" fill="url(#radial-gradient-13)" stroke-width="0"/>
        <path d="M93.36,305.24c6.49,1.93,12.21,2.84,18.98.66,5.62-1.82,10.68-5.08,15.4-8.63,10.52-7.94,13.74-18.21,14.01-30.24,9.91-6.65,17.84,6.54,13.89,17.31-2.37,9.33-10.15,17.92-17.4,23.87-7.29,5.98-17.25,11.57-26.6,13.37-12.7,2.05-23.72-5.68-18.26-16.34h-.02s0,0,0,0Z" fill="url(#radial-gradient-14)" stroke-width="0"/>
        <path d="M334.86,145.46c3.3,1.93,14.42,2.26,16.93-1.79,1.04-1.69,1.13-1.86-.89-1.99-3.15-.22-6.71,3.16-10.15,2.98,2.66-4.37,8.21-9.3,13.68-7.02,1.88,1.26,2.98-1.13,1.92,5.5-.19,1.21-1.58,4.05-2.31,7.97-1,5.14-.74,8.69-1.9,9.02-.78.21-3.61-.4-3.75-.41-2.19-.22-4.17-.19-6.7.04-3.2.3-2.7-.13-5.48.29-3.14.48-5.89,4.97-7.99,2.79-3.45-3.61-8.65-7.58-12.98-5.45-.07.03-.12.06-.15.04-.35-.21-1.66-11.74,4.31-16.33,2.38-1.83,8.2-2.42,12.21-1.61,1.89.38,6.27,4.04,7.09,4.79-.97.43-2.62.63-3.89,1.19h0s.03-.02.03-.02Z" fill="url(#radial-gradient-15)" stroke-width="0"/>
        <path d="M70.96,243.02c4.61,12.13,19.81,12.72,30.72,8.84,3.04-1.09,5.7-3.01,8.24-5.03,1.7-1.36,4.1-5.29,5.86-6.06,5.37-2.35,8,9.07,6.53,12.26-5.18,11.26-28.4,14.41-38.93,13.65-6.09-.43-13.59-3.4-17.05-8.97-2.52-4.08-1.26-13.44,4.65-14.7h0s0,0,0,0Z" fill="url(#radial-gradient-16)" stroke-width="0"/>
        <path d="M435.82,175.39c-13.68-.12-12.88-21.85.81-21.38,13.73.48,12.87,21.52-.81,21.38Z" fill="url(#radial-gradient-17)" stroke-width="0"/>
        <path d="M298.95,185.1c13.77-.1,14.2,21.16.31,21.25-13.56.09-13.93-21.16-.31-21.25h0Z" fill="url(#radial-gradient-18)" stroke="url(#radial-gradient-19)" stroke-miterlimit="10" stroke-width=".99"/>
        <path d="M280,190.07c-13.56.07-13.92-21.12-.19-21.2,13.53-.08,13.91,21.13.19,21.2Z" fill="url(#radial-gradient-20)" stroke="url(#radial-gradient-21)" stroke-miterlimit="10" stroke-width=".99"/>
        <path d="M286.78,191.72c-1.16,4.93.02,9.12,3.05,12.65-3.3,9.58-16.32,11.26-20.61,1.31-1.73-4.02-1.25-10.4,2.61-13.22,2.55-1.87,2.49-.92,5.62-.47,3.23.46,6.13-.28,9.33-.27h0Z" fill="url(#radial-gradient-22)" stroke="url(#radial-gradient-23)" stroke-miterlimit="10" stroke-width=".99"/>
        <path d="M449.21,175.12c13.32.03,13.81,20.14.94,21.09-14.05,1.04-15.21-21.12-.94-21.09h0Z" fill="url(#radial-gradient-24)" stroke-width="0"/>
        <path d="M471.41,200.91c-13.02.1-13.8-19.6-1.11-20.99,14.1-1.53,15.47,20.89,1.11,20.99Z" fill="url(#radial-gradient-25)" stroke-width="0"/>
        <path d="M448.83,172.65c.02-6.12-.34-12.35,6.18-15.17,5.56-2.41,12.21.15,14.44,5.84,1.95,5.01-.52,11.73-5.69,13.84-5.19,2.11-9.26-4.19-14.93-4.52h0Z" fill="url(#radial-gradient-26)" stroke-width="0"/>
        <path d="M312.8,174.45c.76,12.39-21.64,12.6-21.24-.88.41-13.66,21.29-12.81,21.24.88Z" fill="url(#radial-gradient-27)" stroke="url(#radial-gradient-28)" stroke-miterlimit="10" stroke-width=".99"/>
        <path d="M284.33,214.28c1.13,5.47,5.46,10.86.69,15.52-4.28,4.19-11.23,3.86-15.12-.63-3.21-3.68-3.98-10.92-.23-14.66,2.53-2.52,2.75-.96,6-.15,3.09.77,5.59-.1,8.65-.1h0s0,0,0,0Z" fill="url(#radial-gradient-29)" stroke="url(#radial-gradient-30)" stroke-miterlimit="10" stroke-width=".99"/>
        <path d="M424.54,170.41c3.23,5.14,7.5,7.91,13.6,8.21-1.51,4.25-2.5,8.44-.03,12.86-3.25,1.01-5.69,2.09-8.56,3.92-4.83-3.51-9.71-7.05-14.84-10.78,5.33-4.74,7.44-7.42,9.82-14.2h0s0,0,0,0Z" fill="url(#radial-gradient-31)" stroke-width="0"/>
        <path d="M463.96,207.9c-.21,4.42-4.55,10.66-9.69,9.81-3.23-.53-10.66-8.53-10.89-11.61-.9-11.67,21.18-11.39,20.58,1.79h0Z" fill="url(#radial-gradient-32)" stroke-width="0"/>
        <path d="M485,191.24c-1.49-5.03-4.01-12.45,1.11-16.44,3.63-2.84,9.46-1.97,12.75.95,3.56,3.18,4.5,8.3,2.04,12.4-3.75,6.24-9.89,3.12-15.89,3.11h0Z" fill="url(#radial-gradient-33)" stroke-width="0"/>
        <path d="M78.27,198.45c5.23,5.49,14.63,8.66,21.57,11.39,2.59,1.01,9.24,2.49,10.68,4.75,1.8,2.84-2.17,7.64-5.01,8.29-5.77,1.34-17.98-6.56-23.02-8.92-7.92-3.26-13.76-11.13-4.22-15.51h0s0,0,0,0Z" fill="url(#radial-gradient-34)" stroke-width="0"/>
        <path d="M292.76,206.74c5.72,3.2,12.01-1.05,14.88,6.19,2.91,7.35-2.97,7.11-7.77,10.56-2.6,1.87-2.75,3.13-5.83,2.42-1.9-.44-4.25-2.79-5.25-4.37-3.63-5.7-.1-10.74,3.99-14.8h0s0,0,0,0Z" fill="url(#radial-gradient-35)" stroke="url(#radial-gradient-36)" stroke-miterlimit="10" stroke-width=".99"/>
        <path d="M320.77,179c1.03,3.63,3.06,6.75,7.76,7.51-.76,3.31-1.98,9.98-5.18,11.81-3.18,1.82-8.49-.14-10.61-2.77-2.02-2.51-2.99-8.24-1.89-11.24,1.75-4.77,5.43-5.32,9.92-5.31h0Z" fill="url(#radial-gradient-37)" stroke="url(#radial-gradient-38)" stroke-miterlimit="10" stroke-width=".99"/>
        <path d="M479.3,179.94c-1.32-5.21-4.45-6.73-9.12-7.76,0-3.86-.6-9.15,2.6-11.79,2.5-2.05,7.28-3.56,10.32-2.71,3.94,1.09,11.59,8.44,9.08,13.15-2.3.55-9.44,3.34-12.88,9.12h0Z" fill="url(#radial-gradient-39)" stroke-width="0"/>
        <path d="M312.82,198.62c3.14,2.32,6.56,2.49,10.28,2.28-1.5,4.08-6.44,19.14-11.76,17.79-.8-.99-2.26-8.48-2.22-10.15.1-3.32,2.44-6.91,3.69-9.92h0,0Z" fill="url(#radial-gradient-40)" stroke="url(#radial-gradient-41)" stroke-miterlimit="10" stroke-width=".99"/>
        <path d="M293.64,229.56c-.4,5.66.09,8.69,2.13,14.05-1.9,1.55-4.17,3.4-6.36,5.19-8.04-4.3-6.43-22.33,4.23-19.24h0Z" fill="url(#radial-gradient-42)" stroke="url(#radial-gradient-43)" stroke-miterlimit="10" stroke-width=".99"/>
        <path d="M444.67,198c-1.33,2.36-2.55,4.55-3.92,7.02-2.96-2.52-5.94-5.07-9.14-7.81,4.86-5.06,8.41-2.63,13.06.79Z" fill="url(#radial-gradient-44)" stroke-width="0"/>
        <path d="M326.6,163.57c-2.16,2.8-2.63,3.42-4.11,6.43-.91,1.83-4.58,3.45-8.44-.78-3.82-4.2-1.12-9.24,2.19-11.54,4.4-3.06,11.89,3.5,10.37,5.9h0Z" fill="url(#radial-gradient-45)" stroke="url(#radial-gradient-46)" stroke-miterlimit="10" stroke-width=".99"/>
        <path d="M123.8,176.23c-1.75,2.07-4.29,4.44-5.97,6.41-2.7-3.42-7.24-8.51-10.18-11.73,5.12.1,12.21,2.16,16.16,5.33h0Z" fill="url(#radial-gradient-47)" stroke-width="0"/>
        <path d="M477.19,180.24c-4.03-1.36-9.57-.64-11.69-1.72,6.29-10.7,11.74-7.66,14.29-.96,2.19,5.76-.96,3.23-2.61,2.67h0s0,0,0,0Z" fill="url(#radial-gradient-48)" stroke-width="0"/>
        <path d="M496.1,195.85c-3.54,3.09-14.29,5.32-17.39,3.75,1.57-6.9,14.56-10.52,17.39-3.75Z" fill="url(#radial-gradient-49)" stroke-width="0"/>
        <path d="M291.52,186.42c-.24-1.11-.4-5.12.56-5.16.16,0,3.18,2.56,3.16,2.58-.35.4-3.2,2.06-3.72,2.56h0s0,0,0,0Z" fill="url(#radial-gradient-50)" stroke-width="0"/>
        <path d="M471.44,259.85c-.03-.54-.14-1.02-.27-1.49-.18-1-.42-2-.83-3.03-.04-.11-.08-.19-.13-.3-.16-.68-.3-1.33-.45-2-.16-.78-.33-1.54-.53-2.32-.36-1.41-1.12-2.39-2.05-3-.06-.24-.15-.47-.21-.71,0-.21-.02-.43-.05-.65,0-.56-.12-1.14-.33-1.78-1.61-4.58-3.66-8.79-6.47-12.77-.49-.68-1.02-1.19-1.64-1.56-.25-.37-.5-.75-.75-1.11-.99-1.96-2.11-3.82-3.42-5.64-.58-.81-1.27-1.39-1.98-1.79-.35-.53-.68-1.04-1.02-1.56-.58-.91-1.31-1.52-2.08-1.93-.23-.52-.54-.96-.92-1.31-.36-.83-.73-1.65-1.15-2.47-.8-1.56-2.36-2.33-4-2.45-.19-.31-.4-.61-.64-.92h0c-.41-.88-.93-1.5-1.52-1.94-.65-2.35-2.37-3.48-4.21-3.67-1.42-1.35-2.89-2.63-4.42-3.86-.35-.37-.71-.73-1.11-1.08-.11-.09-.21-.17-.32-.25-.69-.64-1.42-1.27-2.23-1.87-.53-.4-1.06-.65-1.57-.8-.15-.11-.3-.21-.44-.33-.56-.57-1.15-1.12-1.77-1.64-.53-.43-1.12-.75-1.74-.97-.61-.57-1.3-1.09-2.02-1.58-.62-.64-1.35-1.2-2.13-1.71-.24-.2-.49-.4-.72-.6-1.22-1.44-2.68-2.67-4.4-3.77-.18-.12-.38-.2-.57-.28-3.58-2.81-7.32-5.36-11.79-7.12-10.31-4.07-19.75-9.63-30.42-13-8.73-2.75-18.55-6.24-27.6-3.89-2.22,0-4.45.4-6.96.67-4.6.49-8.44,3.56-10.96,7.31-2.39,3.57-3.91,9.02.62,11.71,3.51,2.09,8-.59,11.03-2.96.71-.04,1.41-.16,2.1-.32.62-.15,1.21-.3,1.78-.38.33.26.68.5,1.06.68,1.54,1.11,3.42.97,4.98.09.14.03.27.05.41.08,1.2.25,3.24.39,4.2,1.05,1.59,1.12,3.17,1.16,4.46.57.56.17,1.11.32,1.67.5.82.75,1.95,1.22,3.4,1.21h.22c.61.21,1.22.4,1.84.63,1.1.4,2.1.42,2.94.19,2.3.73,4.51,1.81,6.74,2.82,3.99,1.77,8,3.5,11.97,5.32h0c.26.47.62.91,1.12,1.3.88.7,1.75,1.26,2.64,1.73.24.2.51.41.82.64,2.2,1.62,5.01,1.62,7.2,3.11,1.22.83,2.43,1.04,3.51.83.38,1.49,1.53,2.71,3.63,3.03,1.18.18,2.35.36,3.55.55.22.87.74,1.72,1.67,2.48,4.41,3.59,8.35,7.56,11.87,12.01,1.55,1.96,3.83,2.04,5.7,1.09.49.4.97.8,1.46,1.2.03.06.05.12.08.18.45.92,1.06,1.56,1.72,1.99.16.22.31.45.46.68.37.51.79.92,1.27,1.26.23.28.45.57.69.85.25.3.52.56.77.77.04.05.08.12.13.17.56.77,1.04,1.56,1.46,2.43.49.92,1.1,1.57,1.76,2,.08.11.17.2.25.31.65.91,1.32,1.79,1.97,2.7.43.59.92,1.04,1.45,1.38,1.47,2.09,2.92,4.18,4.39,6.27.64.93,1.44,1.55,2.27,1.94.09.19.18.37.27.56.06.18.13.36.2.54.61,1.44,1.22,2.87,1.84,4.32.5,1.16,1.31,1.89,2.27,2.28.65,1.06,1.34,2.09,2.06,3.11-.04.57-.01,1.15.15,1.78.69,2.62,1.69,5.02,3.04,7.38.16.26.33.5.5.72.57,3.03.37,5.85-.61,9.04-1.81,5.92,6.49,8.75,9.43,4.25,1.39-.42,2.62-1.54,3.19-3.55.37-1.29.64-2.56.89-3.85.14-.24.25-.51.36-.78.86-.83,1.39-2.06,1.3-3.7s-.18-3.29-.27-4.94v-.03s-.05,0-.05,0Z" fill="url(#radial-gradient-51)" stroke-width="0"/>
        <path d="M448.45,157.66c-.35.14-.7.28-1.03.41-.36-.54-.11-.85.77-.96.09.18.18.37.27.55h0Z" fill="#fff" stroke-width="0"/>
        <path d="M307.84,203.88c.8.31-.35,5.02-.91,5.72-1.87-.25-.89-4.96.91-5.72Z" fill="url(#radial-gradient-52)" stroke-width="0"/>
      </g>
      <path d="M498.79,193.38c-.35-.05-.11-.82,1.04-1.33,0,0,3.22-3.3,3.54-4.42,1.18-4.08,2.52-7.77-2-13.21-.09-.12-.22-.2-.34-.3-1.69-1.41-5.34-3.41-7.64-3.51,0,0,1.85-4.59-2.31-8.98-1.87-1.97-4.25-3.38-7.97-4.42-3.63-1.02-7.69.56-8.84,1.7-2.93,2.91-4.55,1.02-7.49-1.74-1.29-.66-3.14-1.61-4.82-2.01-.57-.14-1.51-.17-1.61-.22-.71-.34,6.18-12.08,7.67-18.26,1.37-5.69,3.1-18.41.06-30.05-1.38-5.28-3.27-10.42-5.46-15.43-1.06-2.42-2.13-6.3-3.95-8.25-2.41-2.58-1.64-1.73-3.95.27-3.18,2.77-6.02,9.2-8.97,12.43-2.32,2.54-4.66,5.08-6.8,7.77-4.99,6.31-10.72,12.18-15.4,18.82-2.79,3.96-4.34,9.66-7.33,13.21-3.23-3.1-7.36-4.3-11.64-5.26,3.01-8.07,5.01-15.52,3.91-24.23-.52-4.06-1.56-8-2.86-11.87-1.16-3.46-2.49-10.28-5.01-12.95-2.71-2.85-3.34-.52-5.31,2.46-2.57,3.9-5.03,7.88-7.65,11.75-2.54,3.79-5.25,7.47-7.79,11.27-1.92,2.89-3.71,7.85-6.44,9.98-9.64-11.72-26.88-12.09-35.9-9,1.92,4.19,5.27,8.05,7.49,12.17,2.56,4.74,4.8,9.63,7.59,14.25.42.7,1.19,1.68,1.92,2.74-3.84-1.45-8.71-.56-14.16,3.57-.82-5.39-2.68-9.69-7.25-12.56l-4.36.57c.13.2.22.42.33.64.11.11.19.21.28.32,1.39.25,4.46,1.12,6.62,4.11,1.33,1.84,2.02,4.19,1.87,6.87,0,0-.51.15-.96.09-2.74-1.55-5.6-2.87-8.48-3.38-.11.08-3.06-1.15-10.03,2.61-6.01,3.23-6.97,12.27-4.84,18.9-1.26.55-3.01,6.13-5.15,5.07-3.15-1.57-9.68-1.68-11.96-.5-5.11,2.64-6.24,5.67-6.99,7.66-5.66-4.63-13.46-5.73-18.92-.02-5.41,5.67-3.08,12.99.94,18.72-6.78,6.49-7.28,13.67-1.9,21.34-9.74,10.81-2.17,27.2,12.71,23.69-1.75,6.68.83,10.7,3.89,16.43-3.64,2.21-7.51,5.77-11.87,5.6-4.34-.17-7.48-2.5-12.09-1.38-9.38,2.28-9.73,9.38-11.5,17-3.37,3.08-11.71,4.13-16.11,5.13-5.57,1.27-7.99,2.27-12.47-.92-7.86-5.6-20.84-4.8-23,6.48-11.8-.78-23.85-1.63-35.17-5.39-7.7-2.55-6.77-12.68-16.1-14.36-3.98-.72-7.45,1.84-10.98.74-2.95-.92-10.25-7.32-10.85-10.38-.93-4.64,1.41-8.02-2.1-12.24-2.77-3.31-6.61-4.07-10.71-4.08-1.77-5.48-4.13-9.08-1.43-14.01,1.86-3.4,3.87-6.26,1.56-10.19-1.27-2.15-3.43-2.81-4.06-5.21-.58-2.17,1.36-6.31,2.09-8.33,1.4-3.91,3.08-7.85,5.91-10.76,2.82-2.89,6.13-5.95,8.76-9.53,3.43-4.65.23-6.87-4.54-9.2-4.33-2.13-22.94-5.61-18.57,3.86-8.68,5.71-15.22,13.41-20.07,22.59-8.82-1.43-15.64,5.71-11.26,14.52,1.41,2.84,2.44,2.58,2.46,5.83.01,2.25-1.19,5.43-1.54,7.68-.8,5.15-.84,10.31-1.29,15.5-12.75,6.1-10.88,18.16-.94,26.12,5.41,4.35,6.77,13.21,9.85,19.5,3.12,6.38,7.02,12.25,10.91,18.18-2.39,8.49-.98,16.02,7.9,19.98,3.88,1.74,7.64.68,11.48,1.77,4.01,1.14,8.1,5.56,11.57,7.87,16.85,11.27,35.13,18.83,54.1,25.72-.03,10.31,6.97,16.74,17.51,15.91,5.15-.4,9.56-2.66,13.77-5.44,4.95-3.27,7.84-2.09,13.76-1.46,11.32,1.18,22.77,1.34,34.15,1.08,5.62-.12,11.24-.46,16.83-.99,4.61-.45,10.02-2.32,14,.21,3.67,2.34,5.1,4.41,10,4.28,3.87-.11,7.54-1.5,10.44-4.06,2.87-2.53,4.11-6.29,7.49-8.21,3.97-2.26,13.1-4.78,17.47-6.14,22.08-6.89,40.15-14.88,60.63-25.49,6.15,4.38,12.87,4.39,18.39-1.28,4.98-5.12,2.91-11.49,5.92-17.04,1.45-2.67,5.48-4.61,7.87-6.44,2.12-1.61,4.22-3.28,6.3-4.95-1.43,4.51-2.04,9.29-2,14,.04,7.38,1.48,14.75,3.68,21.78.97,3.09,3.95,15.92,7.39,16.82,2.8.73,10.59-14.73,12.18-17.24,4.22-6.65,8.78-13.26,11.8-20.58,1.07-2.56,1.87-5.24,2.37-7.94,3.28,4.32,5.33,7.06,5.79,7.75,3.01,4.37,25.04,25.32,26.72,17.86,3.09-13.71,5.11-29.63,5.6-43.66.45-13.7-4.36-23.32-14.4-32.34,1.59-1.9,4.84-2.82,6.93-4.25,3-2.06,5.75-4.5,8.17-7.22,4.29-4.88,7.8-10.82,9.18-17.21,3.02-14-6.17-31.98-15.18-33.37l.02-.03v.02ZM498.85,175.74c3.56,3.18,4.5,8.3,2.04,12.4-3.75,6.24-9.89,3.12-15.89,3.11-1.49-5.03-4.01-12.45,1.11-16.44,3.63-2.84,9.46-1.97,12.75.95h0ZM496.1,195.85c-5,1.69-13.09,2.86-16.85,3.93,2.66-6.63,9.63-9.52,16.85-3.93ZM474.81,160.74c2.5-2.05,5.81-2.35,8.84-1.51,3.94,1.09,10.35,6.9,7.82,11.62-4.24.19-8.14,1.7-10.81,6.64-1.33-5.36-5.22-5.95-9.57-5.64,1.06-4.73.52-8.46,3.72-11.1h0ZM449.21,175.12c13.32.03,13.81,20.14.94,21.09-14.05,1.04-15.21-21.12-.94-21.09h0ZM435.82,175.39c-13.68-.12-12.88-21.85.81-21.38,13.73.48,12.87,21.52-.81,21.38ZM438.14,178.63c-1.51,4.25-2.5,8.44-.03,12.86-3.25,1.01-5.69,2.09-8.56,3.92-4.83-3.51-9.71-7.05-14.84-10.78,5.33-4.74,7.44-7.42,9.82-14.2,3.23,5.14,7.5,7.91,13.6,8.21h0s0,0,0,0ZM444.67,198c-1.33,2.36-2.55,4.55-3.92,7.02-2.96-2.52-5.94-5.07-9.14-7.81,4.86-5.06,8.41-2.63,13.06.79ZM463.96,207.9c-.21,4.42-4.55,10.66-9.69,9.81-3.23-.53-10.66-8.53-10.89-11.61-.9-11.67,21.18-11.39,20.58,1.79h0ZM470.3,179.92c14.1-1.53,15.47,20.89,1.11,20.99-13.02.1-13.8-19.6-1.11-20.99h0ZM479.96,180.57c-8.28-3.47-11.38-1.51-14.45-2.05,8.85-11.56,14.84-1.92,14.45,2.05ZM469.45,163.32c1.95,5.01-.52,11.73-5.69,13.84-5.19,2.11-9.26-4.19-14.93-4.52.02-6.12-.34-12.35,6.18-15.17,5.56-2.41,12.21.16,14.44,5.84h0ZM457.92,153.63c-2.08.62-4.06,1.32-5.95,2.11-1.35.56-5.15-.12-6.95.16,2.72-5.2,15.59-15.92,19.58-16.5-.05,5.76-4.68,9.3-6.68,14.24h0ZM464.71,138.6c-.38-.96-9.6,3.41-11.18,4.76-3.38,2.85-7.08,8.7-11.33,9.84,1.23-5.77,3.08-14.39,7.07-18.81,3.95-4.36,12.09-8.9,17.49-11.15,1.52,2.89.17,12.68-2.06,15.37h0s0,0,0,0ZM458.56,89.43c1.29,2.04,3.97,6.4,3.46,8.78-.49,2.33-4.56,5.52-6.1,7.25-.66-4.25.66-12.19,2.63-16.03h0ZM463.76,101.35c2.23,5.7,3.71,11.48,4.12,17.62-6.19,4.02-12.32,7.99-18.45,11.97l-.39-.3c3.49-10.4,3.27-23.83,14.73-29.28h0ZM454.02,89.46c.21.07.42.16.63.23.1,2.44.32,4.89-.46,7.27-.23.05-.45.12-.69.17-.8-1.32-1.6-2.66-2.45-4.05,1.09-1.33,2.02-2.48,2.96-3.63h0ZM450,94.67c2.53,3.94,4.93,7.51,2.45,12.34-3.57-3.77-6.15-8.46-2.45-12.34ZM446.21,99.73c2.11,4.64,5.55,9.64,4.81,14.79-.5,3.47-2.24,13.61-4.61,16.13-2.72-4.92-7.41-14.2-7.83-19.79-.33-4.29,4.15-8.78,7.63-11.13h0ZM420.05,133.75c2.78-8.99,10.18-15.57,16.21-22.35,6.56,11.58,12.22,27.11,3.61,39.07-2.31-2.49-2.87-6.26-4.49-9.58-1.33-2.76-8.26-17.04-8.81-18.7-1.84,2.79,10,24.64,11.22,29.36-2.15.37-4.05.7-6.17,1.07-1.33-2-3.38-1.69-5.62-.76,1.27.4,2.52.81,4.16,1.33-1.65,1.55-3.1,2.91-4.81,4.53-.92-4.17-.87-8.6-2.45-12.59-1.83-4.58-4.44-6.22-2.84-11.37h0ZM404.64,124.14c-1.86,6.35-4.78,6.19-10.97,7.51,2.61-4.36,7.29-8.1,10.78-11.75-1.83-2.88-10.18,9.92-12.73,11.32.55-3.93,1.18-9.61,3.26-13.03,2.11-3.45,7.84-7.3,11.35-9.24.44,4.97-.29,10.35-1.7,15.17h0ZM398.8,85.17c1.72,1.71,2.62,3.4,3.81,6.98-1.41,1.67-2.63,3.61-4.98,5.28.41-4.29.78-8.09,1.17-12.26ZM403.21,94.1c1.55,2.55,4.11,8.99,3.2,11.98-.75,2.45-8.49,7.71-10.99,8.64.48-3.67.57-7.74,1.51-11.3,1.01-3.81,3.73-6.3,6.29-9.31h0ZM396.06,86.52c.7,2.14.4,8.03-1.01,10.93-2.1-4.63-3.4-7.06,1.01-10.93ZM391.2,93.19c3.75,7.44,3.85,11.95,2.61,20.14-.19.04-.37.08-.56.14-1.87-2.52-5.02-8.73-5.52-11.9-.56-3.52,1.48-5.51,3.48-8.37h0s0,0,0,0ZM385.51,101.45c2.71,4.02,5.63,10.02,6.76,14.76.94,3.99-.84,8.42-1.77,12.37-3.75-4.93-6.07-10.07-8.86-14.9-.2.06-.4.13-.6.2,1.33,6.17,7.1,10.98,8.02,17.1-3.05,1.51-9.82-4.42-10.89-6.96-.99,1.57-.65,4.45-3.81,3.14-3.11-8.8,6.48-19.17,11.17-25.72h0s0,0,0,0ZM390.14,137.36c-.13.22-.25.45-.39.67-3.69-.31-9.45-1.97-12.58.38,5.58,4.6,18.46,2.51,25.23,1.99,1.2-.09,7.1.65,5-2.09-1.44-1.87-11.42,0-13.63.14-1.07-6.44,6.93-6.57,11.72-5.54,6.57,1.41,11.99,6.9,14.59,12.93,5.15,11.86,1.7,28.68-7.9,37.42-17.7-10.78-35.9-20.28-56.73-23.37-.17-.62-.3-1.23-.41-1.86.2-10.17.66-11.18,4.3-17.61,7.18-10.33,21.21-15.28,30.79-3.05v-.02s0,0,0,0ZM356.9,125.37c4.91-4.69,8.42-.13,11.93,3.65-4.04.38-7.5-3.42-11.93-3.65ZM371.48,127.82c-3.05-2.33-4.83-10.89-5.04-14.7,5.28,2.72,8.24,9.24,5.04,14.7ZM367.68,124.73c-1.75-.11-7.24-4.99-8.36-6.52-1.76-2.42-1.81-6.5-2.39-9.44,9.03,1.15,8.9,8.43,10.74,15.96h0ZM355.15,108.15c.61,2.64,1.2,5.15,1.81,7.73-4.5-.86-7.28-3.58-8.29-8.37,2.28.22,4.31.42,6.49.63h0ZM347.34,110.13c-1.84.23-3.1-.93-5-1.66,3.52-1.49,4.18-1.25,5,1.66ZM341.19,109.55c2.68,1.12,4.9,2.18,7.58,3.72-4.34.54-5.96-.27-7.58-3.72ZM344.91,115.74c3.48-2.11,8.58-.76,11.61,3.28-3.94-.23-10.03,1.11-11.61-3.28ZM347.31,120.63c3.52-1.15,10.84-.62,13.23,1.02-2.83,1.74-8.03,2.3-11.31,3.03,4.62,1.39,12.39,1.6,16.24,5.9-1.58,1.3,1.73-1.41,0,0-1.51-1.98-10.33,2.66-11.39.1,4.26-.19,9.66,2.36,9.66,2.36.03,1.91-5.8,4.7-6.16,4.96-4.39-3.5-7.68-12.25-10.28-17.39h0ZM356.19,164.24c.07.09.15.19.22.28.3-.04.58-.07.87-.12.64-.02,1.25.11,1.81.36,4.92.95,9.74,2.32,14.44,4,17.55,6.32,34.35,15.8,49.23,26.98,14.62,10.99,28.59,24.18,38.02,39.99,4.48,7.5,9.06,16.54,10.08,25.32.91,7.76-3.12,21.34-13.46,16.4,4.61-14.9-6.06-30.98-14.95-42.1-9.11-11.39-20.07-21.51-31.88-30.07-10.96-7.94-42.45-24.09-62.32-25.67-8.56-1.34-10.21-1.86-16.33,2.42-2.3,1.6-5.47-.43-5.47-.43-1.41-1.01-1.97-3.28-2.01-4.87-.05-2.21.96-7.19,5.01-10,3.62-2.52,8.65-3.08,12.95-3.29,4.62-.23,9.23.07,13.8.78h0ZM428.32,256.65c-8.04,10.58-17.09,21.2-20.5,23.51-2.94-4.82-5.89-9.62-8.98-14.69,6.32-7.57,26.16-35.29,29.06-39.72,4.53,4.57,8.6,8.98,12.2,13.95-2.17,3.66-11.96,16.68-11.76,16.95h0ZM307.63,212.93c2.91,7.35-2.97,7.11-7.77,10.56-2.6,1.87-2.75,3.13-5.83,2.42-1.9-.44-4.25-2.79-5.25-4.37-3.63-5.7-.1-10.74,3.99-14.8,5.72,3.2,12.01-1.05,14.88,6.19h0s0,0,0,0ZM306.78,205.59c.8.31.93.82.36,1.52-.87-.25-.99-.77-.36-1.52ZM299.4,206.36c-13.56.09-13.93-21.16-.31-21.25,13.77-.1,14.2,21.16.31,21.25ZM292.98,183.39c.16,0,.5.47.47.51-.35.4-.74.76-1.27,1.29-.24-1.11-.17-1.74.79-1.78h0v-.02ZM312.82,198.62c3.14,2.32,6.56,2.49,10.28,2.28-1.5,4.08-6.44,19.14-11.76,17.79-.8-.99-2.26-8.48-2.22-10.15.1-3.32,2.44-6.91,3.69-9.92h0,0ZM331.17,193.39c2.87-7.49,4.47-14.19,14.3-11.3-2.2,9.39-6.53,18.69-10.82,27.3-1.16,2.32-2.88,7.85-5.22,9.28-2.13,1.29-6.99-.21-9.23-.45,2.91-8.47,7.74-16.39,10.97-24.8h0s0-.02,0-.02ZM347.91,182.35c6.64.48,12.87,2.67,19.69,4.96-5.61,13.22-11.61,25.77-19.44,37.41-5.57-1.75-10.92-3.45-16.31-5.14,5.84-12.29,11.14-24.53,16.08-37.23h0s0,0,0,0ZM369.43,188.14c2.83.98,5.55,2.09,8.21,3.28.52.66,9.04,3.93,9.31,4.55.07.04.15.07.23.12-.02.07-.06.17-.09.26.03.09.07.19.09.28.06.46-3.22,6.25-3.3,6.28-5.57,10.34-16.22,27.67-19.22,30.75-4.79-2.65-9.43-5.21-14.4-7.96,7.04-12.28,13.33-24.67,19.17-37.58h0ZM386.79,203.01c.27-.36,2.04-4.5,2.67-5.55,5.93,2.84,15.27,8.79,17.62,11.21-.72,1.71-22.07,35.6-24.91,38.55-5.05-4-10.11-8.01-15.14-12,6.43-10.83,19.76-32.2,19.77-32.22h0ZM401.55,222.06l1.61-2.52c2.03-3.16,4.04-6.32,6.09-9.51,6.1,4.21,11.73,9.04,17,14.22-1.36,2.52-4.62,7.45-8.5,12.98,0,0-17.93,24.4-20.3,26.19-4.37-4.78-8.75-9.55-13.16-14.37,5.71-8.92,11.45-17.91,17.26-26.99h0ZM337.91,144.16c-.97.43-1.66.74-2.92,1.3,1.41.82,8.25,1.36,8.25,1.36,3.68-.12,7.36-1.02,8.67-3.16,1.04-1.69,1.13-1.86-.89-1.99-2.99-.21-6.32,2.8-9.59,2.98l-.32-.39c2.71-4.23,10.29-7.16,15.61-4.94-.57,1-4.12,12.92-4.37,17.68v.03c-.11.2-.74,2.82-2.35,2.66-3.17-.29-2.08-.34-5.72-.52-3.77.21-5.41-.08-8.48.59-3.03.68-4.83,1.49-7.42,3.07-3.06-4.64-7.41-7.03-12.98-6.5-2.65-14.73,11.77-21.83,22.5-12.17h0s0,0,0,0ZM315.95,158.8c2.79-1.26,10.94,2.14,10.13,5-2.16,2.8-2.9,3.97-4.39,6.96-2.87,1.22-4.36-.23-7.16-2.94-1.02-3.2-2.12-7.44,1.41-9.03h0ZM320.77,179c1.03,3.63,3.06,6.75,7.76,7.51-.76,3.31-1.98,9.98-5.18,11.81-3.18,1.82-8.49-.14-10.61-2.77-2.02-2.51-2.99-8.24-1.89-11.24,1.75-4.77,5.43-5.32,9.92-5.31h0ZM312.92,174.45c.76,12.39-21.64,12.6-21.24-.88.41-13.66,21.29-12.81,21.24.88ZM279.82,168.87c13.53-.08,13.91,21.13.19,21.2-13.56.07-13.92-21.12-.19-21.2ZM269.21,205.66c-1.73-4.02-1.25-10.4,2.61-13.22,2.55-1.87,2.49-.92,5.62-.47,3.23.46,6.13-.28,9.33-.27-1.16,4.93.02,9.12,3.05,12.65-3.3,9.58-16.32,11.26-20.61,1.31h0ZM269.91,229.17c-3.21-3.68-3.98-10.92-.23-14.66,2.53-2.52,2.75-.96,6-.15,3.09.77,5.59-.1,8.65-.1,1.13,5.47,5.46,10.86.69,15.52-4.28,4.19-11.23,3.86-15.12-.63h0s0,0,0,0ZM293.64,229.56c-.4,5.66.09,8.69,2.13,14.05-1.9,1.55-4.17,3.4-6.36,5.19-8.04-4.3-6.43-22.33,4.23-19.24h0ZM295.73,249.56c3.77-2.96,8.67-6.62,12.58-8.32,30.86-21.72,104.76,64.55,82.37,84.41-6.57,2.4-29.05,13.96-36.09,17.47-2.84,1.4-44.15,16.04-42.46,13.42,12.43-19.41-5.9-86.87-30.85-97.08,4.93-3.19,9.84-6.28,14.47-9.91h0s0,0,0,0ZM248.52,278.11c7.05-2.6,10.44-4.21,17.86-2.19-1.52,4.74-16.11,7.01-20.23,7.83-4.07.8-16.28,4.88-17.53-.43,6.7-1.48,13.42-2.84,19.89-5.21h0ZM273.21,343.38c-14.36,1.33-32.63,3.03-46.63-.95,1.69-5.48,3.33-10.79,5.07-16.45,19.51-.09,38.97-1.98,58.61-6.56.42,2.78.94,5.54,1.24,8.34.26,2.42,1.77,8.93.77,11.08-2.03,4.34-14.33,4.11-19.07,4.54h0ZM290.54,353.6c-1.66,1.78-5.11,1.53-7.34,1.83-7.3,1-14.61,1.69-21.97,2.06-13.69.68-28.37,1.46-41.92-.93,2.11-3.98,4.07-7.7,6.19-11.72,22.21,2.44,44.34,1.99,66.36-1.86.15,2.3.37,8.78-1.33,10.62h0ZM231.87,323.64c1.42-8.11,1.55-15.86,1.09-23.91,16.21-.79,32.11-2.76,47.69-7.83,4.95,7.75,7.44,16.25,9.17,25.43-19.01,4.52-38.12,6.4-57.94,6.31h0s0,0,0,0ZM232.67,297.53c-.78-3.11-1.51-6.07-2.33-9.37,9.95-1.53,19.66-2.47,29.16-6.09,3.14-1.19,7.44-4.58,10.66-3.53,3.55,1.16,7.69,8.56,9.42,11.61-15.5,4.83-30.99,6.83-46.91,7.37h0ZM122.61,175.89c-1.75,2.07-3.25,3.83-4.93,5.8-2.7-3.42-5.49-6.66-8.44-9.88,5.12.1,9.41.92,13.36,4.08h0s0,0,0,0ZM105.37,175.17c-.74.9,10.07,8.22,8.96,9.91-2.77,4.23-3.92,7.21-5.6,10.77-1.24,2.64-1.48,4.52-3.88,9.88-.16-.46-20.9-6.32-20.37-7.01,1.65-2.1,6.88-9.48,10.19-12.85,2.84-2.88,5.82-6.74,10.7-10.67h0s0-.02,0-.02ZM78.64,200.27c5.23,5.49,13.26,8.84,20.22,11.58,2.59,1.01,8.86,1.16,10.3,3.4,1.8,2.84-.7,5.63-3.53,6.29-5.77,1.34-16.77-5.34-21.81-7.71-5.12-2.4-14.7-9.2-5.16-13.58h0ZM75.22,245.39c-3-11.13,1.08-17.57,1.53-27.17.05-1.28.46-4.37,1.47-3.59,6.22,4.82,21.81,10.41,29.28,9.62-.97,3.32.51,7.4.65,8.2.43,2.29,2.1,5.5,2.14,7.99.13,9.93-26.06,16.94-35.07,4.95h0s0,0,0,0ZM68.16,257.78c-2.52-4.08-2.81-11.43,3.09-12.68,4.61,12.13,19.65,11.84,30.55,7.94,3.04-1.09,6.31-2.5,8.84-4.54,1.7-1.36,3.44-5.37,5.19-6.14,5.37-2.35,6.81,6.71,5.35,9.9-5.18,11.26-26.56,13.7-37.09,12.94-6.09-.43-12.49-1.86-15.94-7.43h0s0,0,0,0ZM77.18,268.4c3.66,4.27,42.47,0,45.5-11.05.97-3.55,9.71,9.24,15.19,12.24,3.57,1.96,2.7,10.08-4.37,20.2-4.44,6.36-29.14,18.81-38.88,12.8-8.27-12.83-12.75-20.47-17.43-34.18h0ZM95.15,306.65c6.49,1.93,10.47,3.07,17.24.88,5.62-1.82,10.99-4.55,15.72-8.12,10.52-7.94,16.93-17.77,14.61-31.06,9.91-6.65,12.6,10.39,11.19,15.98-2.37,9.33-9.27,17.06-16.53,23.02-7.29,5.98-16.05,11.02-25.4,12.8-7.71,1.48-22.3-2.85-16.83-13.51h0s0,0,0,0ZM182.73,356.61c-7.28.88-23.3-8.68-29.98-11.71-12.16-5.52-27.25-12.51-37.22-21.55,31.15-10.12,46.48-35,43.66-44.26-.08-.28,9.26,3.04,16.39,4.1,9.1,1.34,18.05,2.58,26.85,3.71,17.52,1.77,6.54,66.57-19.71,69.72ZM207.22,363.62c-4.43,3.88-9.92,6.89-15.97,6.71-4.34-.13-12.87-3.59-10.1-9.48,16.47,4.4,28.31-21.93,31.9-33.79,2.39-7.86,3.72-16.64,2.96-24.86-.88-9.37-3.67-14.74-11.41-19.73,1.1-6.3,9.07-5.92,13.31-3.47,4.59,2.65,6.95,7.54,8.49,12.4,3.91,12.42,2.39,27.15-1.03,39.52-3.21,11.61-8.93,24.63-18.15,32.72h0v-.02ZM276.12,362.96c-6.7.72-13.43,1.16-20.16,1.33-13.35.34-27.98.6-41.1-1.94,3.84-4.96,7.22-3.15,13.16-2.75,7.29.51,14.6.62,21.93.45,13.32-.3,26.4-2.55,39.65-3.18-1.62,6.19-8.15,5.5-13.46,6.08h0s0,0,0,0ZM310.54,344.66c-.72,8.64-7.38,32.25-20.65,21.13,12.24-14.63,7.2-42.01,2.32-58.54-2.82-9.54-6.82-18.57-13.28-26.21-6.15-7.28-8.22-8.12-16.26-10.67-2.06-.64-8.77,1.1-6.17-6,3.83-10.51,22.41-2.13,28.34,3.49,9.62,9.13,15.96,22.12,19.93,34.59,4.31,13.46,6.93,28.03,5.76,42.2h0s0,0,0,0ZM396.87,326.68c7.52-21.23-9.07-47.27-23.21-61.88-16.08-16.61-39.67-34.6-63.39-29.64-6.4,1.33-11.55,8.14-12.49,5.08-3.99-12.84,4.37-15.38,6.92-16.39,10.77-4.21,21.8-1.27,32.15,1.82,21.93,6.53,42.18,21.77,56.15,39.74,7.9,10.19,14.08,21.87,16.91,34.51,1.77,7.92,2.47,33.31-13.04,26.75ZM409.97,281.57c1.58-4.12,8.52-9.35,11.33-12.7,2.89-3.44,5.61-7,8.27-10.6.2.25,2.6-3.56,2.6-3.56,3.11-4.32,6.17-8.68,9.29-13.01,1.94,2.41,7.55,8.92,7.36,12.23-.18,3.11-4.87,7.64-8.3,10.91,0,0-19.02,20.17-27.88,27.29-1.4-3.43-3.96-7.22-2.66-10.57h0s0,0,0,0ZM415.75,304.44c-2.31-3.66-2.85-8.69-.35-11.83,3.49-4.39,8.8-8.08,12.81-12.07,3.52-3.5,11.3-11.18,11.57-11.53.65-.64,1.78-2.91,1.78-2.91,2.89-3.25,5.78-6.5,8.77-9.68,1.82,3.51,4.51,9.68,3.6,13.86-.42,1.98-2.06,4.01-4.03,5.93,0,0-6.3,5.41-7.2,6.23-8.49,7.79-17.36,15.59-26.95,21.99h.01ZM450.5,285.52c-.27,8.12-7.92,18.8-18.06,17.02l16.9-18.55c.39.52.78,1.02,1.16,1.52h0ZM432.18,306.89c5.24,4.08,10.85-7.48,15.41-8.73-1.09,4.82-1.53,9.56-5.41,12.57-2.99,2.3-6.89,5.99-10.51,6.88-.18-3.56-.59-6.95.49-10.7h0ZM431.98,320.54c3.99-2.62,7.87-5.18,12.09-7.96-.17,4.29-1.37,8.96-2.49,13.14-1.15,4.34-3.03,5.67-6.58,8.29-1.6-4.52-2.63-8.92-3.04-13.47h0ZM438.72,343.34c-1.63-2.3-1.95-4.52-3.1-6.76,1.41-1.11,2.65-2.07,4.43-3.46-.47,3.65-.85,6.62-1.33,10.22h0ZM441.32,344.94c.37-3.14.67-5.8,1.03-8.79,3.01,3.45,3.6,3.71-1.03,8.79ZM443.7,332.1c1.47,1.45,2.67,3.03,2.73,5.22-1.64-1.38-2.64-3.08-2.73-5.22ZM448.46,334.69c-4.81-6.65-4.19-10.08-2.49-17.79,1.65,2.92,3.03,6.01,4.2,9.16,1.5,4.03.71,5.05-1.71,8.63ZM453.12,327.14c-1.83-4.06-4.22-8.28-5.37-12.58-1.09-4.07.36-8,1.21-12.06.26-.06.54-.13.8-.2,3.04,5.11,6.05,10.2,9.06,15.32-1.4,3.09-3.31,6.16-5.7,9.52ZM459.66,314.86c-2.05-2.82-5.72-8.46-7.33-14.64-1.22-4.71-1.51-9.63-.73-13.27,5.03,6.57,9.35,12.23,12.7,16.64-.13,3.6-2.83,9.23-4.63,11.28h0ZM466.56,300.09c-5.07-6.67-12.91-13.97-13.39-17.9,0-1.53,4.57.71,4.59.25,2.19-.16,4.16.23,6.58-.34,2.26-.02,5.11-2.2,6.46-3.54,3.84-7.09,3.01-5.05,6.08-12.69.2.49.5,1.31.6,2.37.5,5.09-2.31,8.01-5.06,14.34-3.07,7.05-5.29,16.38-4.43,16.85.91.49,2.62-9.38,5.67-15.44,2.53-4.99,3.79-9.52,4.45-12.65.06.35.15.82.23,1.36,0,0,.08.56.16,1.12.12.91.67,8.23.42,11.26-.4,4.71-3.83,11.7-9.76,18.67-.85-.96-1.74-2.23-2.61-3.67h0ZM471.21,306.05c-.15-1.96,3.14-6.23,4.06-7.97,1.86-3.44,3.71-6.88,5.57-10.31,1.16,5.2,2.24,10.42,3.38,15.64,1.44,6.56.43,9.5-2.56,15.6-3.17-3.05-10.09-8.38-10.46-12.94v-.02s0,0,0,0ZM483.75,320.91c.95-2.15,1.86-4.23,2.76-6.31.18.03.36.06.54.08,1.25,3.89,2.48,7.79,3.74,11.67-2.61-1.46-4.78-3.31-7.03-5.45h0ZM495.73,328.33c-1.72-1.34-3.69-6.27-4.16-10.26,1.76,1.01,3.22,1.85,4.98,2.84-.25,2.35-.54,4.81-.82,7.42h0ZM497.25,317.66c-4.72-.51-7.19-3.03-8.39-7.31.19-.09.38-.18.58-.27,2.87,2.17,5.7,4.39,8.1,7.07l-.28.53h0s0,0,0,0ZM497.93,313.42c-3.33-2.23-7.92-4.82-10.17-8.18-2.28-3.4-2.6-10.01-3.49-13.95.17-.06.34-.13.51-.2,3.87,3.83,7.94,7.53,11.63,11.53,3.41,3.68,2.3,5.88,1.54,10.79h0ZM494.3,264.17c3.55,2.2,7.44,12.35,6.38,16.29-.83.56-1.67,1.14-2.49,1.7,1.58,2.89,2.81,1.48,2.97,5.39.18,4.47-.86,9.37-1.25,13.84-5.11-2.88-12.21-10.17-15.57-15.01-2.88-4.16-4.42-12.79-4.03-17.85.22-.18.45-.36.68-.52,1.17,2.55,14.53,17.63,16.48,14.05-6.22-6.91-14.06-12.52-18.88-20.75.12-.19.22-.37.34-.56,2.98.76,5.84,1.85,8.87,2.34,2.14.34,4.65-.11,6.54,1.06h0s0,0,0,0ZM491.07,260.56c-2.37.54-15.28-1.55-13.87-5.43,5.43-.33,9.94,1.33,13.87,5.43ZM496.9,247.08c-6.01,4.73-20.28,9.92-25.08,1.49-2.66-4.67-4.18-9.98-7.02-14.66-2.9-4.8-6.27-9.27-9.57-13.79,9.46-3.54,11.03-6.11,10.78-17.59,6.39.86,10.82-1.01,16.99-1.9,5.58-.81,9.99-1.39,15.55-3.68,19.79,11.84,14.14,37.71-1.65,50.13h0,0Z" fill="url(#radial-gradient-53)" stroke-width="0"/>
    </g>
  </g>
</svg>