<?xml version="1.0" encoding="UTF-8"?>
<svg xmlns="http://www.w3.org/2000/svg" xmlns:xlink="http://www.w3.org/1999/xlink" viewBox="0 0 569.24 499.48">
  <defs>
    <style>
      .uuid-c317ba71-37d6-4e88-a44c-d6e74cb1d676 {
        fill: url(#uuid-e996004b-47cb-416f-ad00-7f931a7a3862);
      }

      .uuid-c317ba71-37d6-4e88-a44c-d6e74cb1d676, .uuid-d2d3a19b-ac67-44d0-815d-541dbf24db06, .uuid-4f526757-17fa-43fb-9631-48c761b7f167, .uuid-cc2b6ed3-ea4e-4126-8c7a-9e7139644500, .uuid-f04d585c-dfd0-47d5-8a9d-254b700980eb, .uuid-88de6d46-5b02-46ac-b4b7-0ac921d2cbc2, .uuid-f5289d4c-61c3-4082-802d-89c2f2e254e1, .uuid-b546c5e2-55a9-494b-9958-cb31d2b6f51d, .uuid-6b7280a8-98a4-481e-a0c7-f85122a5f6de, .uuid-d57e2a55-099a-4fbe-bfc6-26a84af8dcfe, .uuid-f9ecf1d8-65b5-4a8c-9273-868a49e640c5, .uuid-9b1fabb9-1fae-49df-9574-709336240d00, .uuid-6d675e6f-6396-417e-9b8f-f3e91182f42c, .uuid-fd487143-39d8-4220-8eed-64e14b95ef07, .uuid-0fada1d6-5dc9-4eb9-b710-f2c27a0bbac4, .uuid-13ee1d82-4d87-4e7a-bf21-f06704eae968, .uuid-9439f592-e130-42de-9bf8-07f0a266b3a5, .uuid-42ca2c5a-8419-425b-b99b-270fe2ed757f, .uuid-b7ba8882-e747-4d27-ae13-a3865a51ae5a, .uuid-ad58f3db-68ad-47b7-888b-7fb2c9fd49a1, .uuid-c2a4a200-d1db-4358-bc8e-d29c476e1978, .uuid-38b864f4-dcd1-4453-92e1-dbb6bc6e4f73, .uuid-25a7a17a-e99a-49f4-90c5-860e7f334555, .uuid-1f24d891-8200-4388-b081-7baa4a1556f7, .uuid-280b92ea-8aa2-4596-877a-566618005db9, .uuid-d92dfcba-bb78-4a25-81dd-c4428c094a52, .uuid-f5400570-2cc2-44d3-99c9-060dcb4beb4d, .uuid-436a8c8e-1942-4034-81f0-1ce51dcfd841, .uuid-bbd69165-58e6-4f70-a092-23f8ab1a9e06, .uuid-79a24c66-e697-4774-baa5-4fff8fd8c876, .uuid-55b41e9a-0a60-4009-84e5-729c627d5182, .uuid-1b4327a3-e4ad-49ad-b553-1c3077bbe05c, .uuid-844c0f6c-7f7e-4605-9070-aa763aa124fb, .uuid-4dc58db4-9e87-4a34-b7a2-771f51a2e572, .uuid-095cba6c-e700-42fb-8402-ce7b5280cab5 {
        stroke-width: 0px;
      }

      .uuid-d2d3a19b-ac67-44d0-815d-541dbf24db06 {
        fill: url(#uuid-ee83cfa6-f463-4640-951c-60f243f0d2d7);
      }

      .uuid-4f526757-17fa-43fb-9631-48c761b7f167 {
        fill: #000;
      }

      .uuid-bad61c2a-850e-402d-b39c-b6a2548d7128 {
        fill: url(#uuid-6cf6222f-320d-4eda-8f1a-129543b3fcda);
        stroke: url(#uuid-ca8a01dd-6faa-4a9e-bf79-2b467968d4b3);
      }

      .uuid-bad61c2a-850e-402d-b39c-b6a2548d7128, .uuid-4064ce5c-d542-4e61-bb1a-3ce076e6daea, .uuid-149e7926-0788-42fd-9e30-a0ecc1e39018, .uuid-e7a64e3f-92ca-4be2-bf6f-414d49b74321, .uuid-98927749-a8c3-41bb-ade6-31af1299a720, .uuid-16301db7-7850-46e6-b88b-b552b694a41e, .uuid-e8de9ef6-cadd-4873-b4f2-966f658b40e6, .uuid-c8041c1d-e0a9-488a-b401-de15cae8fda8, .uuid-2f3606c5-4029-4295-9303-8ef5ffda6b85, .uuid-2f238484-d79a-4b91-96cd-bdc08f35d5b5, .uuid-c6fd024b-cb5d-46fa-b9cb-bf16c2e8f09b, .uuid-447e8b6f-36de-4433-a67c-2d6451b67f1b, .uuid-20a39512-c94c-4c44-ae1e-5e5c1d076c58, .uuid-48f17078-ec30-45d1-9cee-15e2e6b24c7c, .uuid-cea839e1-5e55-46b4-aabc-54615a62226e, .uuid-14441eca-9f0b-40d9-ae7b-48edcd006979, .uuid-4a396bba-0f9f-45c4-8f30-1b95f15f0822, .uuid-46994dd1-fde8-4fba-bb07-72e22ef88c5e, .uuid-9f1a2f12-258d-438e-8e0d-3e313dca3217, .uuid-27556242-74b7-4644-8a73-907b1f28001d {
        stroke-miterlimit: 10;
      }

      .uuid-cc2b6ed3-ea4e-4126-8c7a-9e7139644500 {
        fill: url(#uuid-dd1fe0d5-830c-4e75-bc72-69ef363ecdc1);
      }

      .uuid-4064ce5c-d542-4e61-bb1a-3ce076e6daea {
        stroke-width: 2px;
      }

      .uuid-4064ce5c-d542-4e61-bb1a-3ce076e6daea, .uuid-149e7926-0788-42fd-9e30-a0ecc1e39018, .uuid-e7a64e3f-92ca-4be2-bf6f-414d49b74321, .uuid-16301db7-7850-46e6-b88b-b552b694a41e, .uuid-2f3606c5-4029-4295-9303-8ef5ffda6b85, .uuid-14441eca-9f0b-40d9-ae7b-48edcd006979, .uuid-46994dd1-fde8-4fba-bb07-72e22ef88c5e {
        fill: none;
      }

      .uuid-4064ce5c-d542-4e61-bb1a-3ce076e6daea, .uuid-46994dd1-fde8-4fba-bb07-72e22ef88c5e {
        stroke: #231f20;
      }

      .uuid-f04d585c-dfd0-47d5-8a9d-254b700980eb {
        fill: url(#uuid-cb12c3cf-c7a8-45f6-aae1-be86850f008a);
      }

      .uuid-88de6d46-5b02-46ac-b4b7-0ac921d2cbc2 {
        fill: url(#uuid-41381f6f-75e4-4056-a7c6-839b72cf656a);
      }

      .uuid-f5289d4c-61c3-4082-802d-89c2f2e254e1 {
        fill: url(#uuid-273da6db-9a60-4e8f-bfd1-882267b9d4d6);
      }

      .uuid-149e7926-0788-42fd-9e30-a0ecc1e39018, .uuid-e7a64e3f-92ca-4be2-bf6f-414d49b74321, .uuid-c8041c1d-e0a9-488a-b401-de15cae8fda8, .uuid-447e8b6f-36de-4433-a67c-2d6451b67f1b, .uuid-14441eca-9f0b-40d9-ae7b-48edcd006979, .uuid-4a396bba-0f9f-45c4-8f30-1b95f15f0822 {
        stroke: #000;
      }

      .uuid-149e7926-0788-42fd-9e30-a0ecc1e39018, .uuid-16301db7-7850-46e6-b88b-b552b694a41e, .uuid-c8041c1d-e0a9-488a-b401-de15cae8fda8, .uuid-447e8b6f-36de-4433-a67c-2d6451b67f1b, .uuid-4a396bba-0f9f-45c4-8f30-1b95f15f0822 {
        stroke-linecap: round;
      }

      .uuid-b546c5e2-55a9-494b-9958-cb31d2b6f51d {
        fill: url(#uuid-7f4edbe5-4837-40a0-b95b-7d883f3583fd);
      }

      .uuid-6b7280a8-98a4-481e-a0c7-f85122a5f6de {
        fill: url(#uuid-88f4bf41-2dc7-403b-912a-e54f14685e13);
      }

      .uuid-d57e2a55-099a-4fbe-bfc6-26a84af8dcfe {
        fill: url(#uuid-108c9d6b-3765-465b-970a-5c83a1b1ae46);
      }

      .uuid-f9ecf1d8-65b5-4a8c-9273-868a49e640c5 {
        fill: url(#uuid-0e367ef6-ae13-43cd-b69e-321a2400ffcd);
      }

      .uuid-9b1fabb9-1fae-49df-9574-709336240d00 {
        fill: url(#uuid-79043d0a-79f3-424c-b210-d551fe3b58cb);
      }

      .uuid-98927749-a8c3-41bb-ade6-31af1299a720 {
        fill: url(#uuid-f9ffe4ed-0e68-4dab-bc0d-cda480327bb8);
        stroke: url(#uuid-94f1c9d7-5929-40e4-ac5f-ea2fbc60d02f);
      }

      .uuid-16301db7-7850-46e6-b88b-b552b694a41e, .uuid-2f3606c5-4029-4295-9303-8ef5ffda6b85 {
        stroke: #212121;
        stroke-width: 3px;
      }

      .uuid-6d675e6f-6396-417e-9b8f-f3e91182f42c {
        fill: url(#uuid-a9b99c11-3d56-4d28-8e8a-ab5593eee86a);
      }

      .uuid-fd487143-39d8-4220-8eed-64e14b95ef07 {
        fill: url(#uuid-8b176ff9-73ce-434a-bedf-a2809b9bf613);
      }

      .uuid-0fada1d6-5dc9-4eb9-b710-f2c27a0bbac4 {
        fill: url(#uuid-001e24df-afe2-42f5-b6ea-6ff1f052dada);
      }

      .uuid-13ee1d82-4d87-4e7a-bf21-f06704eae968 {
        fill: url(#uuid-733f43e3-d321-4477-b07c-fdc5f9cdebc3);
      }

      .uuid-e8de9ef6-cadd-4873-b4f2-966f658b40e6 {
        fill: url(#uuid-c3079b02-d7fc-4fad-bb70-6e4db819014c);
        stroke: url(#uuid-f5b3e8a4-ea6f-4a2b-b894-c61a334912cf);
      }

      .uuid-c8041c1d-e0a9-488a-b401-de15cae8fda8 {
        fill: #0a3a5e;
      }

      .uuid-c8041c1d-e0a9-488a-b401-de15cae8fda8, .uuid-447e8b6f-36de-4433-a67c-2d6451b67f1b, .uuid-4a396bba-0f9f-45c4-8f30-1b95f15f0822 {
        stroke-width: 6px;
      }

      .uuid-2f238484-d79a-4b91-96cd-bdc08f35d5b5 {
        fill: url(#uuid-51440e44-afb1-4b2b-b0c6-4de70889b4a4);
        stroke: url(#uuid-ee3fe6ac-0edf-4213-a8d6-5ca283dc3e2e);
      }

      .uuid-c6fd024b-cb5d-46fa-b9cb-bf16c2e8f09b {
        fill: url(#uuid-269e39fc-1c64-4ee5-bc15-01045ca5e004);
        stroke: url(#uuid-38a060a4-175e-4b6a-89ea-b5c72fc6ea62);
      }

      .uuid-447e8b6f-36de-4433-a67c-2d6451b67f1b {
        fill: #6da6c2;
      }

      .uuid-9439f592-e130-42de-9bf8-07f0a266b3a5 {
        fill: url(#uuid-efbf0161-2800-4c45-9266-3aec8c9a606b);
      }

      .uuid-20a39512-c94c-4c44-ae1e-5e5c1d076c58 {
        fill: url(#uuid-97f00ff6-4e9f-46a8-ab99-64ea912d7766);
        stroke: url(#uuid-abfeeedf-8ff8-4aa9-b477-f3ae65e3758b);
      }

      .uuid-48f17078-ec30-45d1-9cee-15e2e6b24c7c {
        fill: url(#uuid-e971e25f-19a8-4d45-88ac-62b77862697b);
        stroke: url(#uuid-6cbb5ab3-1520-475c-8123-a35a46793ccd);
      }

      .uuid-42ca2c5a-8419-425b-b99b-270fe2ed757f {
        fill: url(#uuid-a707dd70-d6f3-41d5-a8fa-f8b79e10cbb2);
      }

      .uuid-b7ba8882-e747-4d27-ae13-a3865a51ae5a {
        fill: url(#uuid-9ef54dbd-6f24-428b-acb2-21f27245266b);
      }

      .uuid-cea839e1-5e55-46b4-aabc-54615a62226e {
        fill: url(#uuid-55314491-d6e3-4a15-87bc-fb04f31a0824);
        stroke: url(#uuid-975d5766-b038-47d4-94fd-d1a6b4ab09f1);
      }

      .uuid-ad58f3db-68ad-47b7-888b-7fb2c9fd49a1 {
        fill: url(#uuid-5161f63a-1696-47fa-ad8e-623e7d9a8083);
      }

      .uuid-c2a4a200-d1db-4358-bc8e-d29c476e1978 {
        fill: url(#uuid-78d72c99-0736-43cb-a177-57a81ea3ae13);
      }

      .uuid-38b864f4-dcd1-4453-92e1-dbb6bc6e4f73 {
        fill: url(#uuid-82aea416-1161-44b8-a761-9e0a42de844e);
      }

      .uuid-14441eca-9f0b-40d9-ae7b-48edcd006979 {
        stroke-width: .25px;
      }

      .uuid-25a7a17a-e99a-49f4-90c5-860e7f334555 {
        fill: url(#uuid-0fd32e2c-4c1a-4c47-9cef-e59cd69fbc63);
      }

      .uuid-1f24d891-8200-4388-b081-7baa4a1556f7 {
        fill: url(#uuid-3bb36931-c0d1-4dcc-a5de-0b4466713f6c);
      }

      .uuid-4a396bba-0f9f-45c4-8f30-1b95f15f0822, .uuid-f5400570-2cc2-44d3-99c9-060dcb4beb4d {
        fill: #fff;
      }

      .uuid-46994dd1-fde8-4fba-bb07-72e22ef88c5e {
        stroke-width: 2.2px;
      }

      .uuid-280b92ea-8aa2-4596-877a-566618005db9 {
        fill: url(#uuid-7250d9d7-cc64-4bbd-8bfd-474ad17049c6);
      }

      .uuid-d92dfcba-bb78-4a25-81dd-c4428c094a52 {
        fill: url(#uuid-0b8afc67-26d1-4e91-af69-eba4fb919a84);
      }

      .uuid-436a8c8e-1942-4034-81f0-1ce51dcfd841 {
        fill: url(#uuid-fd24a162-e76c-44e3-9b74-b6069f4f4f48);
      }

      .uuid-bbd69165-58e6-4f70-a092-23f8ab1a9e06 {
        fill: url(#uuid-1f6adad2-bede-4eb0-af1e-a716a1363337);
      }

      .uuid-9f1a2f12-258d-438e-8e0d-3e313dca3217 {
        fill: url(#uuid-a1ec91da-c0fe-4e62-9cd6-f35f739d0863);
        stroke: url(#uuid-022f76fb-7da9-42a2-aed9-92359392a077);
      }

      .uuid-79a24c66-e697-4774-baa5-4fff8fd8c876 {
        fill: url(#uuid-31be9ee4-2bd7-4db7-a689-018bd6ae26ef);
      }

      .uuid-55b41e9a-0a60-4009-84e5-729c627d5182 {
        fill: url(#uuid-8d52d301-f03f-4291-9c17-f270cfdf739b);
      }

      .uuid-1b4327a3-e4ad-49ad-b553-1c3077bbe05c {
        fill: url(#uuid-ed593267-271b-4c3b-b0d8-508626b724f6);
      }

      .uuid-844c0f6c-7f7e-4605-9070-aa763aa124fb {
        fill: url(#uuid-8a655702-e04d-492c-b3db-e213c3cd344f);
      }

      .uuid-4dc58db4-9e87-4a34-b7a2-771f51a2e572 {
        fill: url(#uuid-3b6a3b66-68ff-402c-8159-1be6626d83fd);
      }

      .uuid-27556242-74b7-4644-8a73-907b1f28001d {
        fill: url(#uuid-7fb3da6e-1031-4f83-9dbc-4ba4dd7d3e16);
        stroke: url(#uuid-8a478dea-3e48-4c5c-9a5a-a1e9620a5c9f);
      }

      .uuid-095cba6c-e700-42fb-8402-ce7b5280cab5 {
        fill: url(#uuid-c563f234-e398-4d35-9a26-cdcbbf113ad1);
      }
    </style>
    <radialGradient id="uuid-82aea416-1161-44b8-a761-9e0a42de844e" cx="-311.29" cy="-390.47" fx="-298.78" fy="-447.27" r="205.48" gradientTransform="translate(564 -5.06) scale(1 -.57)" gradientUnits="userSpaceOnUse">
      <stop offset=".06" stop-color="#b9bbbf"/>
      <stop offset=".74" stop-color="#999b9e"/>
      <stop offset=".83" stop-color="#96989b"/>
      <stop offset=".88" stop-color="#8e9092"/>
      <stop offset=".93" stop-color="#808284"/>
      <stop offset=".97" stop-color="#6c6e70"/>
      <stop offset="1" stop-color="#545657"/>
    </radialGradient>
    <radialGradient id="uuid-79043d0a-79f3-424c-b210-d551fe3b58cb" cx="-285.25" cy="-97.37" fx="-285.25" fy="-97.37" r="5.19" gradientTransform="translate(564 61.51) scale(1 -1)" gradientUnits="userSpaceOnUse">
      <stop offset=".03" stop-color="#6da6c2"/>
      <stop offset=".28" stop-color="#6da6c2"/>
      <stop offset=".36" stop-color="#73afcd"/>
      <stop offset=".49" stop-color="#7bbbdb"/>
      <stop offset=".66" stop-color="#7fc1e3"/>
      <stop offset=".96" stop-color="#81c4e6"/>
    </radialGradient>
    <radialGradient id="uuid-e996004b-47cb-416f-ad00-7f931a7a3862" cx="-316.8" cy="211.61" fx="-316.8" fy="211.61" r="72.73" gradientTransform="translate(825.15 319.06) rotate(-43.71) scale(1 -1.94)" gradientUnits="userSpaceOnUse">
      <stop offset="0" stop-color="#ccb483"/>
      <stop offset=".12" stop-color="#c7ae79"/>
      <stop offset=".31" stop-color="#bc9f60"/>
      <stop offset=".55" stop-color="#aa8738"/>
      <stop offset=".83" stop-color="#916600"/>
      <stop offset=".83" stop-color="#916600"/>
    </radialGradient>
    <radialGradient id="uuid-41381f6f-75e4-4056-a7c6-839b72cf656a" cx="-475.27" cy="-153.47" fx="-475.27" fy="-153.47" r="18.98" gradientTransform="translate(564 61.51) scale(1 -1)" xlink:href="#uuid-e996004b-47cb-416f-ad00-7f931a7a3862"/>
    <radialGradient id="uuid-fd24a162-e76c-44e3-9b74-b6069f4f4f48" cx="-469.54" cy="-110.35" fx="-469.54" fy="-110.35" r="15.86" gradientTransform="translate(564 61.51) scale(1 -1)" xlink:href="#uuid-e996004b-47cb-416f-ad00-7f931a7a3862"/>
    <radialGradient id="uuid-108c9d6b-3765-465b-970a-5c83a1b1ae46" cx="-122.72" cy="-41.2" fx="-122.72" fy="-41.2" r="30.66" gradientTransform="translate(564 61.51) scale(1 -1)" gradientUnits="userSpaceOnUse">
      <stop offset=".38" stop-color="#7eac72"/>
      <stop offset=".77" stop-color="#8cbf7f"/>
      <stop offset=".93" stop-color="#7ba970"/>
    </radialGradient>
    <radialGradient id="uuid-001e24df-afe2-42f5-b6ea-6ff1f052dada" cx="-193.57" cy="-29.01" fx="-193.57" fy="-29.01" r="30.9" xlink:href="#uuid-108c9d6b-3765-465b-970a-5c83a1b1ae46"/>
    <radialGradient id="uuid-3bb36931-c0d1-4dcc-a5de-0b4466713f6c" cx="-98.77" cy="-217.75" fx="-98.77" fy="-217.75" r="41.37" xlink:href="#uuid-108c9d6b-3765-465b-970a-5c83a1b1ae46"/>
    <radialGradient id="uuid-efbf0161-2800-4c45-9266-3aec8c9a606b" cx="-179.12" cy="-75" fx="-179.12" fy="-105.43" r="30.79" gradientTransform="translate(564 61.51) scale(1 -1)" gradientUnits="userSpaceOnUse">
      <stop offset="0" stop-color="#ceb95a"/>
      <stop offset=".11" stop-color="#c9b558"/>
      <stop offset=".17" stop-color="#c5b256"/>
      <stop offset=".21" stop-color="#d2be5b"/>
      <stop offset=".28" stop-color="#e6d064"/>
      <stop offset=".36" stop-color="#f4dd6a"/>
      <stop offset=".46" stop-color="#fce46d"/>
      <stop offset=".63" stop-color="#ffe76f"/>
      <stop offset=".86" stop-color="#f4dd6a"/>
      <stop offset="1" stop-color="#ebd567"/>
      <stop offset="1" stop-color="#edd768"/>
    </radialGradient>
    <radialGradient id="uuid-3b6a3b66-68ff-402c-8159-1be6626d83fd" cx="-213.19" cy="-192.84" fx="-213.19" fy="-192.84" r="55.73" gradientTransform="translate(564 61.51) scale(1 -1)" gradientUnits="userSpaceOnUse">
      <stop offset=".06" stop-color="#b9bbbf"/>
      <stop offset=".72" stop-color="#999b9e"/>
      <stop offset=".93" stop-color="#85878a"/>
    </radialGradient>
    <radialGradient id="uuid-cb12c3cf-c7a8-45f6-aae1-be86850f008a" cx="-81.71" cy="-140.34" fx="-81.71" fy="-108.57" r="32.13" gradientTransform="translate(564 61.51) scale(1 -1)" gradientUnits="userSpaceOnUse">
      <stop offset=".13" stop-color="#1164a2"/>
      <stop offset=".47" stop-color="#0c4c7d"/>
      <stop offset=".67" stop-color="#0a3e65"/>
      <stop offset=".99" stop-color="#0a3a5e"/>
    </radialGradient>
    <radialGradient id="uuid-0fd32e2c-4c1a-4c47-9cef-e59cd69fbc63" cx="-283.12" cy="-233.4" fx="-283.12" fy="-233.4" r="44.21" xlink:href="#uuid-3b6a3b66-68ff-402c-8159-1be6626d83fd"/>
    <radialGradient id="uuid-dd1fe0d5-830c-4e75-bc72-69ef363ecdc1" cx="-362.38" cy="-243.29" fx="-362.38" fy="-243.29" r="38.28" xlink:href="#uuid-3b6a3b66-68ff-402c-8159-1be6626d83fd"/>
    <radialGradient id="uuid-7f4edbe5-4837-40a0-b95b-7d883f3583fd" cx="-443.44" cy="-212.75" fx="-443.44" fy="-212.75" r="30.62" xlink:href="#uuid-3b6a3b66-68ff-402c-8159-1be6626d83fd"/>
    <radialGradient id="uuid-7250d9d7-cc64-4bbd-8bfd-474ad17049c6" cx="-231.02" cy="-67.96" fx="-231.02" fy="-61.51" r="17.65" gradientTransform="translate(564 61.51) scale(1 -1)" gradientUnits="userSpaceOnUse">
      <stop offset=".07" stop-color="#ceb95a"/>
      <stop offset=".15" stop-color="#c9b558"/>
      <stop offset=".19" stop-color="#c5b256"/>
      <stop offset=".21" stop-color="#d2be5b"/>
      <stop offset=".25" stop-color="#e6d064"/>
      <stop offset=".29" stop-color="#f4dd6a"/>
      <stop offset=".34" stop-color="#fce46d"/>
      <stop offset=".43" stop-color="#ffe76f"/>
      <stop offset=".78" stop-color="#f4dd6a"/>
      <stop offset="1" stop-color="#ebd567"/>
      <stop offset="1" stop-color="#edd768"/>
    </radialGradient>
    <radialGradient id="uuid-ed593267-271b-4c3b-b0d8-508626b724f6" cx="-474.16" cy="-172.62" fx="-474.16" fy="-172.62" r="22.55" xlink:href="#uuid-3b6a3b66-68ff-402c-8159-1be6626d83fd"/>
    <radialGradient id="uuid-78d72c99-0736-43cb-a177-57a81ea3ae13" cx="-129.85" cy="-82.26" fx="-129.85" fy="-82.26" r="10.56" gradientTransform="translate(564 61.51) scale(1 -1)" gradientUnits="userSpaceOnUse">
      <stop offset=".06" stop-color="#7974a0"/>
      <stop offset=".18" stop-color="#7b77a4"/>
      <stop offset=".19" stop-color="#7c78a5"/>
      <stop offset=".27" stop-color="#827eac"/>
      <stop offset=".43" stop-color="#8580af"/>
      <stop offset=".79" stop-color="#8d87b9"/>
      <stop offset=".99" stop-color="#948ec2"/>
      <stop offset=".99" stop-color="#78749f"/>
    </radialGradient>
    <radialGradient id="uuid-c3079b02-d7fc-4fad-bb70-6e4db819014c" cx="-267.68" cy="-113.84" fx="-267.68" fy="-113.84" r="10.52" gradientTransform="translate(564 61.51) scale(1 -1)" gradientUnits="userSpaceOnUse">
      <stop offset=".03" stop-color="#81c5e6"/>
      <stop offset=".25" stop-color="#82c8ea"/>
      <stop offset=".28" stop-color="#83c9eb"/>
      <stop offset=".4" stop-color="#88d0f4"/>
      <stop offset=".6" stop-color="#8dd7fc"/>
      <stop offset=".96" stop-color="#8fd9ff"/>
    </radialGradient>
    <radialGradient id="uuid-f5b3e8a4-ea6f-4a2b-b894-c61a334912cf" cx="-267.68" cy="-113.84" fx="-267.68" fy="-113.84" r="11.02" xlink:href="#uuid-79043d0a-79f3-424c-b210-d551fe3b58cb"/>
    <radialGradient id="uuid-f9ffe4ed-0e68-4dab-bc0d-cda480327bb8" cx="-287.15" cy="-97.53" fx="-287.15" fy="-97.53" r="10.48" xlink:href="#uuid-c3079b02-d7fc-4fad-bb70-6e4db819014c"/>
    <radialGradient id="uuid-94f1c9d7-5929-40e4-ac5f-ea2fbc60d02f" cx="-287.15" cy="-97.53" fx="-287.15" fy="-97.53" r="10.98" xlink:href="#uuid-79043d0a-79f3-424c-b210-d551fe3b58cb"/>
    <radialGradient id="uuid-e971e25f-19a8-4d45-88ac-62b77862697b" cx="-287.95" cy="-120.07" fx="-287.95" fy="-120.07" r="10.72" xlink:href="#uuid-c3079b02-d7fc-4fad-bb70-6e4db819014c"/>
    <radialGradient id="uuid-6cbb5ab3-1520-475c-8123-a35a46793ccd" cx="-287.92" cy="-120.07" fx="-287.92" fy="-120.07" r="11.24" xlink:href="#uuid-79043d0a-79f3-424c-b210-d551fe3b58cb"/>
    <radialGradient id="uuid-5161f63a-1696-47fa-ad8e-623e7d9a8083" cx="-116.68" cy="-103.33" fx="-116.68" fy="-103.33" r="10.47" xlink:href="#uuid-78d72c99-0736-43cb-a177-57a81ea3ae13"/>
    <radialGradient id="uuid-a707dd70-d6f3-41d5-a8fa-f8b79e10cbb2" cx="-94.42" cy="-108.01" fx="-94.42" fy="-108.01" r="10.42" xlink:href="#uuid-78d72c99-0736-43cb-a177-57a81ea3ae13"/>
    <radialGradient id="uuid-a9b99c11-3d56-4d28-8e8a-ab5593eee86a" cx="-106.45" cy="-84.59" fx="-106.45" fy="-84.59" r="10.64" xlink:href="#uuid-78d72c99-0736-43cb-a177-57a81ea3ae13"/>
    <radialGradient id="uuid-51440e44-afb1-4b2b-b0c6-4de70889b4a4" cx="-264.74" cy="-91.68" fx="-264.74" fy="-91.68" r="10.38" xlink:href="#uuid-c3079b02-d7fc-4fad-bb70-6e4db819014c"/>
    <radialGradient id="uuid-ee3fe6ac-0edf-4213-a8d6-5ca283dc3e2e" cx="-264.74" cy="-91.68" fx="-264.74" fy="-91.68" r="10.88" xlink:href="#uuid-79043d0a-79f3-424c-b210-d551fe3b58cb"/>
    <radialGradient id="uuid-7fb3da6e-1031-4f83-9dbc-4ba4dd7d3e16" cx="-289.77" cy="-141.29" fx="-289.77" fy="-141.29" r="9.98" xlink:href="#uuid-c3079b02-d7fc-4fad-bb70-6e4db819014c"/>
    <radialGradient id="uuid-8a478dea-3e48-4c5c-9a5a-a1e9620a5c9f" cx="-289.77" cy="-141.29" fx="-289.77" fy="-141.29" r="10.48" xlink:href="#uuid-79043d0a-79f3-424c-b210-d551fe3b58cb"/>
    <radialGradient id="uuid-88f4bf41-2dc7-403b-912a-e54f14685e13" cx="-139.68" cy="-100.61" fx="-139.68" fy="-100.61" r="12.18" gradientTransform="translate(564 61.51) scale(1 -1)" gradientUnits="userSpaceOnUse">
      <stop offset="0" stop-color="#ffe56f"/>
      <stop offset="0" stop-color="#ffe56f"/>
      <stop offset=".63" stop-color="#ffe76f"/>
      <stop offset=".99" stop-color="#ffe770"/>
      <stop offset="1" stop-color="#c5b256"/>
      <stop offset="1" stop-color="#d2be5c"/>
      <stop offset="1" stop-color="#e0cb62"/>
      <stop offset="1" stop-color="#e8d265"/>
      <stop offset="1" stop-color="#ebd567"/>
    </radialGradient>
    <radialGradient id="uuid-273da6db-9a60-4e8f-bfd1-882267b9d4d6" cx="-112.2" cy="-125.52" fx="-112.2" fy="-125.52" r="10.25" xlink:href="#uuid-78d72c99-0736-43cb-a177-57a81ea3ae13"/>
    <radialGradient id="uuid-733f43e3-d321-4477-b07c-fdc5f9cdebc3" cx="-73.02" cy="-100.07" fx="-73.02" fy="-100.07" r="9.61" xlink:href="#uuid-78d72c99-0736-43cb-a177-57a81ea3ae13"/>
    <radialGradient id="uuid-c563f234-e398-4d35-9a26-cdcbbf113ad1" cx="-476.04" cy="-129.49" fx="-476.04" fy="-129.49" r="16" xlink:href="#uuid-3b6a3b66-68ff-402c-8159-1be6626d83fd"/>
    <radialGradient id="uuid-269e39fc-1c64-4ee5-bc15-01045ca5e004" cx="-269" cy="-134.68" fx="-269" fy="-134.68" r="10.2" xlink:href="#uuid-c3079b02-d7fc-4fad-bb70-6e4db819014c"/>
    <radialGradient id="uuid-38a060a4-175e-4b6a-89ea-b5c72fc6ea62" cx="-269" cy="-134.62" fx="-269" fy="-134.62" r="10.73" xlink:href="#uuid-79043d0a-79f3-424c-b210-d551fe3b58cb"/>
    <radialGradient id="uuid-97f00ff6-4e9f-46a8-ab99-64ea912d7766" cx="-247.31" cy="-107.02" fx="-247.31" fy="-107.02" r="9.61" xlink:href="#uuid-c3079b02-d7fc-4fad-bb70-6e4db819014c"/>
    <radialGradient id="uuid-abfeeedf-8ff8-4aa9-b477-f3ae65e3758b" cx="-247.26" cy="-107.02" fx="-247.26" fy="-107.02" r="10.14" xlink:href="#uuid-79043d0a-79f3-424c-b210-d551fe3b58cb"/>
    <radialGradient id="uuid-8b176ff9-73ce-434a-bedf-a2809b9bf613" cx="-84.37" cy="-86.16" fx="-84.37" fy="-86.16" r="11.33" xlink:href="#uuid-78d72c99-0736-43cb-a177-57a81ea3ae13"/>
    <radialGradient id="uuid-6cf6222f-320d-4eda-8f1a-129543b3fcda" cx="-250.65" cy="-126.86" fx="-250.65" fy="-126.86" r="8.72" xlink:href="#uuid-c3079b02-d7fc-4fad-bb70-6e4db819014c"/>
    <radialGradient id="uuid-ca8a01dd-6faa-4a9e-bf79-2b467968d4b3" cx="-250.53" cy="-126.71" fx="-250.53" fy="-126.71" r="9.34" xlink:href="#uuid-79043d0a-79f3-424c-b210-d551fe3b58cb"/>
    <radialGradient id="uuid-55314491-d6e3-4a15-87bc-fb04f31a0824" cx="-276.76" cy="-157.43" fx="-276.76" fy="-157.43" r="8.07" xlink:href="#uuid-c3079b02-d7fc-4fad-bb70-6e4db819014c"/>
    <radialGradient id="uuid-975d5766-b038-47d4-94fd-d1a6b4ab09f1" cx="-276.71" cy="-157.48" fx="-276.71" fy="-157.48" r="8.61" xlink:href="#uuid-79043d0a-79f3-424c-b210-d551fe3b58cb"/>
    <radialGradient id="uuid-0b8afc67-26d1-4e91-af69-eba4fb919a84" cx="-127.85" cy="-117.44" fx="-127.85" fy="-117.44" r="6.01" xlink:href="#uuid-78d72c99-0736-43cb-a177-57a81ea3ae13"/>
    <radialGradient id="uuid-a1ec91da-c0fe-4e62-9cd6-f35f739d0863" cx="-247.35" cy="-82.24" fx="-247.35" fy="-82.24" r="7.46" xlink:href="#uuid-c3079b02-d7fc-4fad-bb70-6e4db819014c"/>
    <radialGradient id="uuid-022f76fb-7da9-42a2-aed9-92359392a077" cx="-247.35" cy="-82.24" fx="-247.35" fy="-82.24" r="7.96" xlink:href="#uuid-79043d0a-79f3-424c-b210-d551fe3b58cb"/>
    <radialGradient id="uuid-31be9ee4-2bd7-4db7-a689-018bd6ae26ef" cx="-452.4" cy="-95.24" fx="-452.4" fy="-95.24" r="7.09" xlink:href="#uuid-3b6a3b66-68ff-402c-8159-1be6626d83fd"/>
    <radialGradient id="uuid-8d52d301-f03f-4291-9c17-f270cfdf739b" cx="-92.79" cy="-93.9" fx="-92.79" fy="-93.9" r="6.38" xlink:href="#uuid-78d72c99-0736-43cb-a177-57a81ea3ae13"/>
    <radialGradient id="uuid-0e367ef6-ae13-43cd-b69e-321a2400ffcd" cx="-78.26" cy="-113.8" fx="-78.26" fy="-113.8" r="6.79" xlink:href="#uuid-78d72c99-0736-43cb-a177-57a81ea3ae13"/>
    <radialGradient id="uuid-ee83cfa6-f463-4640-951c-60f243f0d2d7" cx="-273.67" cy="-101.9" fx="-273.67" fy="-101.9" r="2.3" xlink:href="#uuid-c3079b02-d7fc-4fad-bb70-6e4db819014c"/>
    <radialGradient id="uuid-9ef54dbd-6f24-428b-acb2-21f27245266b" cx="18.63" cy="-1245.76" fx="18.63" fy="-1245.76" r="143.06" gradientTransform="translate(571.77 -232.9) rotate(26.34) scale(1 -.36)" gradientUnits="userSpaceOnUse">
      <stop offset="0" stop-color="#b9bbbf"/>
      <stop offset=".32" stop-color="#828487"/>
      <stop offset=".58" stop-color="#5d5e60"/>
      <stop offset=".72" stop-color="#4f5052"/>
      <stop offset=".77" stop-color="#494a4c"/>
      <stop offset=".83" stop-color="#3a3b3c"/>
      <stop offset=".9" stop-color="#212223"/>
      <stop offset=".97" stop-color="#000"/>
    </radialGradient>
    <radialGradient id="uuid-1f6adad2-bede-4eb0-af1e-a716a1363337" cx="-259.79" cy="-124.89" fx="-259.79" fy="-124.89" r="2.18" xlink:href="#uuid-c3079b02-d7fc-4fad-bb70-6e4db819014c"/>
    <radialGradient id="uuid-8a655702-e04d-492c-b3db-e213c3cd344f" cx="-257.46" cy="-351.65" fx="-257.46" fy="-351.65" r="1.52" gradientTransform="translate(564 61.51) scale(1 -1)" gradientUnits="userSpaceOnUse">
      <stop offset=".26" stop-color="#000"/>
      <stop offset=".42" stop-color="#040404"/>
      <stop offset=".5" stop-color="#0a0a0a"/>
      <stop offset=".95" stop-color="#000"/>
      <stop offset=".98" stop-color="#000"/>
    </radialGradient>
  </defs>
  <g id="uuid-28ed3b08-d45b-45ee-bdd3-c0b04ab24f85" data-name="Layer 3">
    <rect class="uuid-4a396bba-0f9f-45c4-8f30-1b95f15f0822" x="50.52" y="25.01" width="262.89" height="401.96" rx="34.02" ry="34.02" transform="translate(-61.17 67.66) rotate(-18.09)"/>
    <path class="uuid-447e8b6f-36de-4433-a67c-2d6451b67f1b" d="M187.14,435.52l-34.85,11.38c-17.86,5.83-37.06-3.92-42.9-21.77L5.73,107.7c-5.83-17.86,3.92-37.06,21.77-42.9l34.85-11.38"/>
    <rect class="uuid-4a396bba-0f9f-45c4-8f30-1b95f15f0822" x="274.4" y="21.56" width="263.12" height="402.3" rx="34.02" ry="34.02" transform="translate(47.18 -70) rotate(10.46)"/>
    <path class="uuid-c8041c1d-e0a9-488a-b401-de15cae8fda8" d="M308.81,408.51l-36.05-6.66c-18.47-3.41-30.69-21.15-27.28-39.63l60.62-328.38c3.41-18.47,21.15-30.69,39.63-27.28l36.05,6.66"/>
  </g>
  <g id="uuid-f5fced5d-770c-4c89-92d2-e5a3ac6c6a0b" data-name="logo">
    <g>
      <path class="uuid-e7a64e3f-92ca-4be2-bf6f-414d49b74321" d="M454.25,307.26c2.45-2.62,7.21-1.97,9.45.83s1.34,6.69.42,10.15c-1.21,4.58-3.69,8.45-7.96,6.97-1.21-1.4.19-3.34,1.77-4.31,1.96-1.2,4.64,1.81,4.5,1.78,1.63,1.03.72.07,4.01,3.63,1.65,1.78,2.1,4.67,4.29,5.74,1.78.86,3.89.41,5.79-.13,2.04-.58,4.16-1.31,5.51-2.93s1.54-4.39-.16-5.65c-2.31-.3-3.47,2.68-3.78,4.98-.43,3.33-.73,6.73-.08,10.03s2.36,6.51,5.21,8.3M460.97,294.49c-.55,2.4-1.55,4.71-2.92,6.76-.42.62-.9,1.28-.93,2.04s.61,1.58,1.35,1.41M456.67,302.59c-2.63,2.39-4.71,5.37-6.09,8.64,2.29-3.4,4.58-6.79,6.88-10.19-1.11,1.97-2.2,3.93-3.31,5.91,1.07-1.04,1.8-2.43,2.08-3.89l.85-.42M457.84,304.24c.23-1.32.46-2.65.71-3.97-.53,1.49-.8,3.06-.78,4.63M457.26,303.31l.23-1.13M456.84,304c.64-3.13,1.52-6.22,2.63-9.22.51.51.07,1.36-.34,1.95-1.43,2.09-2.34,4.55-2.61,7.07M456.48,302.48c-2.35,3.49-4.38,7.2-6.03,11.08.68-2.55,2.09-4.92,4.02-6.72M460.61,293.75c-1.63,1.69-2.15,4.24-1.79,6.56s1.51,4.45,2.86,6.37c-1.18-1.78-2.22-3.72-2.61-5.82s-.08-4.41,1.2-6.13c-1.32,3.63-2.34,7.81-.57,11.23-1.11-1.2-1.14-3.03-.97-4.65.26-2.44.85-4.84,1.76-7.12M462.24,288.61c-1.52,2.57-2.77,5.34-3.29,8.28s-.24,6.08,1.15,8.71c-1.04-3.46-.56-7.17-.06-10.76.09-.69.2-1.4.62-1.95M462.01,289.22c-3.68,4.8-4.42,11.69-1.84,17.16-.54-.34-.65-1.05-.7-1.7-.23-3.42.08-6.88.94-10.2M456.38,304.21c-2.18,1.01-3.55,3.21-4.79,5.27-1.5,2.51-3,5.01-4.5,7.52.94-2.1,2.94-3.7,3.35-5.96M448.76,316.71c1.13-1.3,1.98-2.8,2.83-4.29,1.04-1.85,2.09-3.69,3.12-5.54M462.74,321.4c.45.2.32.68.45.2.92-3.35,1.31-6.79.45-10-.31-1.17-.82-2.34-1.72-3.15-1.38-1.26-3.4-1.46-5.26-1.6-1.12-.08-1.97.94-2.91,2.16,3.21-2.28,6.28-3.13,8.8-1.03-1.37-1.45-3.49-2.09-5.47-1.8s-3.78,1.43-5,3.01M459.18,292.71c-.22,1.9-.38,3.81-.21,5.71.28,3.13,2.77,7.21,4.73,9.68M463.86,287.95c-2.05,3.61-3.8,7.39-5.23,11.29M460.57,294.22c1.96-4.01,3.68-8.14,5.15-12.35M460.64,294.84c.97-1.63,1.92-3.28,2.84-4.95-.11.23-.21.46-.32.7.35-.57.7-1.14,1.04-1.72-1.53,1.84-2.82,3.87-3.82,6.03,1.4-2.3,2.76-4.63,4.07-6.99-1.87,3.25-3.83,6.44-5.88,9.59,2.26-3.77,4.4-7.59,6.42-11.48-2.91,3.69-5.15,7.92-6.57,12.4,1.14-4.44,3.25-8.63,6.13-12.19-2.33,3.32-4.18,6.98-5.45,10.83,1.8-3.99,3.64-8.04,6.42-11.41-.61.28-1,.89-1.35,1.47-2.25,3.71-4.22,7.59-5.91,11.59,2.91-4.8,3.9-10.72,7.56-14.97-3.05,5.2-5.69,10.63-7.88,16.24,1.67-3.83,3.34-7.66,5.01-11.49l-5.28,9.13M485.33,347.16h-.68M484.16,347.01c.49.25,1.11.21,1.56-.11-.81.47-1.92.37-2.63-.25.64.47,1.45.72,2.24.69M485.96,347.3l-2.55-.64c.4.41,1.04.57,1.58.39M486.07,346.9l1.37-.28M460.9,292.56c1.14-1.09,2.27-2.18,3.41-3.27.81-.78,1.65-1.57,2.65-2.1-1.19.57-2.19,1.51-2.86,2.65.92-1.17,1.84-2.34,2.75-3.51-.94.53-1.7,1.38-2.11,2.37l2.26-2.95M446.68,319c.58-.54,1.16-1.09,1.74-1.62.23-.22.47-.44.59-.74.22-.57.04-1.41.6-1.65-1.07,1.38-2.11,2.78-3.13,4.21M445.87,319.58c1.57-1.31,2.96-2.85,4.11-4.54M461.77,293.04c-2.63,4.6-1.48,10.84.75,15.36M459.63,298.02c.6,3.74,2.01,7.36,4.11,10.52M264.08,117.48c-1.99-2.51-1.99-5.67.12-8.84,3.77-4.84,8.25-8.84,13.59-11.85s11.4-3.7,17.1-2.2c.2.05.4.11.6.17.12.03.23.07.32.16.08.09.11.22.12.35.17,1.48-.34,2.99-1.2,4.21s-2.06,2.16-3.32,2.94c-1.73,1.07-3.68,1.85-5.71,1.96-1.99.11-4-.44-5.76-1.4-3.58-1.96-6.21-5.93-5.65-10.14.22-1.71,1.29-3.11,2.65-4.15,1.28-.97,2.54-1.97,3.86-2.89,1.09-.77,2.25-1.47,3.5-1.92,1.38-.5,2.96-.64,4.36-.09,1.18.46,2.31,1.42,1.5,2.75-.82,1.35-2.57,1.5-3.98,1.73-1.17.19-2.36.33-3.54.31-2.34-.04-4.64-.76-6.13-2.67-.69-.88-1.09-1.96-1.67-2.92-.71-1.16-1.5-2.28-2.36-3.33-1.15-1.4-2.52-2.75-4.35-3.17-2.56-.59-4.77,1.22-6.36,3.03-1.05,1.19-1.8,2.63-2.83,3.83-.83.98-1.74,1.96-2.71,2.83-1.99,1.78-4.4,3.05-7.08,3.39M304.92,146.71c6.75-8.53,8.86-19.08,3.59-28.57-5.27-10.55-16.88,0-25.32,3.16-4.22,1.05-7.38,3.16-12.12,1.34M305.7,141.74c.08.01.07-.16,0-.14M305.41,142.99c3.38-5.39,5.16-11.78,5.06-18.14.09,6.77-1.67,13.55-5.06,19.42-.61,1.05-1.43,2.19-2.66,2.32.89-2.14,2.27-4.08,4.02-5.6-2.16,1.49-4.32,2.99-6.5,4.47,2.99-.56,5.6-2.49,7.45-4.92s2.99-5.3,3.85-8.22l-2.09,5.47c1.68-4.61,3.36-9.59,2.09-14.32l.04,6.42M306.76,138.23c-.61,3-2.78,5.62-5.61,6.8,2-.44,3.74-1.78,4.96-3.45s1.95-3.63,2.47-5.61c1.67-6.33,1.27-13.17-1.11-19.27,1.42,3.08,2.23,6.43,2.35,9.82M307.92,118.86c.19-1.03-.38-2.08-1.13-2.82-1.5-1.48-3.69-2.09-5.79-2.04s-4.15.7-6.11,1.43M307.38,119.74c-.46-1.55-1.69-2.8-3.08-3.62s-2.97-1.28-4.54-1.73c-.61-.18-1.23-.36-1.88-.36-1.98-.02-3.58,1.53-4.9,3.01M309.64,131.54c1.24-2.48.68-5.48-.34-8.08-.47-1.21-1.04-2.42-1.89-3.42-1.16-1.38-2.76-2.32-4.34-3.22-.95-.55-1.93-1.11-3.01-1.34-1.37-.3-2.8-.04-4.15.34-2.49.69-4.87,1.78-7.01,3.23M312.39,131.6c.07-3.48-.32-7.06-1.84-10.19s-4.31-5.78-7.73-6.48c-1.54-.32-3.13-.22-4.69-.01-5.48.76-10.86,3.22-14.45,7.44,3.07-2.7,6.38-5.14,9.89-7.25,1.17-.71,2.59-1.39,3.84-.83M309.13,131.78c-.65,2.8-1.72,5.5-3.15,7.97.36-.55.78-1.07,1.24-1.53M298.59,143.25c1.73.77,3.73-.16,5.27-1.27,1.05-.77,2.06-1.62,2.96-2.56.62-.65,1.26-1.56.9-2.38M298.87,142.34c.23.73,1.26.72,1.99.52,2.72-.74,5.25-2.15,7.31-4.08M299.15,142.03c.98.76,2.42.6,3.54.08s2.1-1.34,3.22-1.88c1.23-.6,2.71-.91,3.53-2M299.2,142.25c2.12.4,4.28-.5,6.08-1.71s3.35-2.73,5.22-3.82M299.45,142.11c.35.52,1.15.21,1.67-.13.98-.64,1.95-1.29,2.93-1.93,1.9-1.26,3.82-2.52,5.44-4.13M302.69,140.84c-.78.89-2.22.58-3.34.93-1.01.32-1.77,1.19-2.77,1.57-.98.38-2.16.27-2.97.93-.35.27-.58.65-.81,1.03-1.27,2.11-2.33,4.32-3.2,6.62M299.45,141.44c-.37.42-1.03.3-1.6.32-.82.02-1.58.42-2.29.84-2.82,1.67-5.36,3.81-7.48,6.31M304.45,115.39c-1.92-1.77-4.85-2.35-7.29-1.45-.06-.26.34-.37.61-.33,1.14.18,2.25.55,3.26,1.1M302.97,115l-.34-.17M306.31,116.21c-.78-1.31-2.22-2.13-3.69-2.51s-3.03-.35-4.56-.32c-.66.01-1.36.04-1.92.39,2.72-.81,5.61.34,8.22,1.47M278.31,122.14c1.49.72,5.58.15,6.37-1.56M275.51,123.52c1.41.2,2.85.39,4.25.16s2.8-.98,3.47-2.24M268.88,123.5c.43.22.94.24,1.42.24,3.73.02,7.47-.35,11.12-1.1M279.71,123.82c-.02.31.4.45.69.34s.49-.37.75-.52c.27-.16.6-.19.89-.32,1.12-.46,1.6-2.13,2.82-2.15M281.93,123.02c.72,1.28,3.69-2.48,4.11-3.02M265,119.4c1.12.41,1.58,1.73,2.45,2.55,1.75,1.66,4.64.97,6.87,1.88M269.26,122.4c1.62,1.1,4.8,1.9,6.75,2M263.11,109.69c-1.49,2.4-.42,1.53-.68,2.29-.52,1.58.09,3.29.77,4.82.54,1.23,1.12,2.45,1.74,3.64M268.88,104.07c.12-.24-.65.89-.92.89s-.49.19-.69.36c-1.12,1-2.09,2.16-2.89,3.44M270.57,102.15c-2.34,1.88-5.34,4.29-6.98,6.86M274.89,100.02c-1.55.42-3.03,1.15-4.3,2.13-1.76,1.35-3.14,3.13-4.49,4.9M266.46,106.14c-1.9,2.54-2.94,5.71-2.95,8.88,0,.91.08,1.82.38,2.68.56,1.61,1.84,2.87,3.21,3.89,2.18,1.62,4.9,2.8,7.57,2.31M262.25,111.48c-.7,2.11-.16,4.47.94,6.41,2.1,3.73,6.29,6.2,10.57,6.24,1.85.02,3.68-.38,5.48-.78l3.58-.79M274.78,122.74c4.56.28,9.68-1.43,13.36-4.07,2.16-1.55,5.79-5.77,8.75-4.97M303.69,115.79c-2.35-1.35-5.3-1.36-7.91-.62s-4.98,2.14-7.31,3.53l-7.11,4.25M307.88,118.53c.28-.42.21-1-.03-1.45s-.65-.78-1.04-1.1c-1.35-1.11-2.77-2.26-4.48-2.59-.58-.12-1.16-.13-1.74-.22-.54-.09-1.07-.25-1.6-.32-2-.24-3.93.83-5.5,2.12M295.42,115.36c-.96,1.21-2.59,1.61-4.08,2.04-2.81.79-5.52,1.91-8.06,3.32-.6.33-1.19.69-1.67,1.18-.32.34-.57.73-.91,1.03-.61.56-1.49.8-2.3.64M266.64,121.72c1.38,1.3,4.56,3.84,6.52,3.57,1.43-.2,5.67-.56,6.57-.99.26-.13,1.13-.66,1.41-.68.52,0,2.48-1.55,2.85-1.91.58-.56-3.5,1.24-3.27.47M275.05,122.85c1.6.76,3.39.28,4.95-.35M290.06,103.54c2.85-1.12,5.41-2.92,7.44-5.21-1.04,2.73-3.65,4.66-6.46,5.48s-5.81.68-8.7.24c-1.4-.21-2.82-.5-4.12-1.04-.77-.33-1.58-.86-1.66-1.7,4.66,2.46,10.25,3.1,15.36,1.76,1.66-.43,3.3-1.1,4.5-2.31,1.18-1.18,1.85-3.05,1.15-4.57-.34-.75-.97-1.34-1.68-1.76-1.4-.84-3.08-1.11-4.7-1.16-5.13-.17-10.2,1.52-14.59,4.18s-8.12,6.27-11.48,10.15M276.27,88.78c-2.27,2.28-2.94,6-1.62,8.93M274.97,122.77c2.94-.08,5.86-.8,8.5-2.09,1.1-.54,2.15-1.17,3.2-1.8,3.24-1.95,6.48-3.91,9.73-5.86M278.75,122.36c6.72-1.01,13.02-4.07,17.78-8.93M274,100.3c-.28.34-.53-.35,0-.78.08-.07-.34.12-.31.22.54,1.4,2.29,2.17,3.65,2.82-.22-.12-.86-.84-1.09-.96M282.83,83.48c-1.95.58-3.59,2.45-5.14,3.46-.74.49-1.48.99-2.04,1.68s-.99,1.78-1.34,2.91M290.44,84.3c-.35-.64-.71-1.27-1.37-1.36-.32-.04-.64-.02-.96,0-3.31.28-6.54,1.39-9.33,3.2-.75.49-1.49,1.03-1.97,1.78M277.71,88.37c.99.77,2.22,1.23,3.47,1.31.56.03,1.12,0,1.67-.07M282.43,89.6c1.92-.19,3.82-.63,5.61-1.33,1.29-.5,2.68-1.28,2.69-2.84,0-.81-.43-1.57-1.08-2.06-1.37-1.04-3.12-.92-4.7-.54-3.43.81-6.59,2.71-8.9,5.37M278.6,123.55c-1.96-.18-4.63-.6-7.12-.32M275.82,122.67c2.29,0,5.35-.33,7.59-.95M267.39,105.5c-1.9,2.15-3.45,4.47-3.79,7.76M276.87,121.71c-.66.12-1.34.17-2,.18-.02-.02-.07-.03-.18-.02-.03,0-.07,0-.11.01h-.19c-2.06-.04-4.09-.58-5.93-1.54-1.23-.81-2.42-1.76-3.03-3.13-.11-.22-.84.02-.76.2.11.24.23.46.37.69-.17.07-.31.18-.23.26.88.96,1.89,1.76,3.01,2.4-.21.06-.39.17-.31.23.36.23.74.43,1.12.61-.06.02-.14.04-.19.06-.07.04-.26.17-.08.22,1.98.56,4.04.7,6.1.44.05,0,.19-.06.3-.13.66-.02,1.33-.07,1.98-.19.09-.02.43-.08.44-.22,0-.14-.22-.11-.32-.09h.01ZM250.18,89.05c-.55.07-1.66.14-2.65.12s-2.3-.59-1.63.11c.43.45,1.67.72,2.2.79,1.23.17,2.59-.57,2.92-.65.64-.16-.31-.43-.84-.36h0ZM311.51,119.92l-2.3-3.58c-.07-.12-.37-.07-.56.02-.04-.06-.07-.13-.12-.18-.14-.2-.89.04-.71.3.07.12.15.23.22.34.12.35.33.63.59.9.53.84,1.05,1.69,1.58,2.53.07.13.39.07.58-.03h0c.14.21.86-.03.71-.3h0ZM302.8,111.79c-1.15-.49-2.8-.37-3.94.06-.51.19-.95.53-1.37.88-.51.41-1.2.97-1.45,1.6-.25.68.23,1.46.46.71.63-2.07,1.95-2.57,3.93-2.08.89.22,1.73.61,2.64.76,1.68.26.61-1.53-.27-1.93h0ZM293.34,101.59c-.16-.09-.44-.05-.6,0-1.63.53-3.29.99-4.97,1.39-.12.03-.39.13-.34.28,0,.02.03.02.04.04h-.02s-.08.03-.13.04c-.07.03-.16.08-.2.15-.02,0-.05.01-.07.02-.12.03-.43.15-.32.32.11.16.53.07.66.04.89-.23,1.77-.41,2.67-.62.77-.18,1.53-.41,2.2-.82.2-.05.4-.11.6-.16.12-.03.43-.15.32-.32,0,0-.02-.01-.03-.02.04-.03.09-.06.14-.08.12-.07.18-.18.04-.26h0ZM293.14,93.87s-.05.05-.09.06c0,0-.01.02-.02.03-.04.04-.08.07-.14.08-.03,0-.07.02-.11.03-.08.02-.18.02-.26.02-.04,0-.09,0-.14-.01-.06,0-.12-.02-.18-.04-.05-.01-.09-.03-.14-.06-.03-.02-.05-.04-.06-.08-.01-.03,0-.05.01-.08,0-.01.01-.02.02-.03h.01s.04-.05.06-.07c0,0,.02-.01.03-.02.02-.01.06-.03.09-.04.02,0,.04-.01.06-.02.02,0,.04-.01.06-.02.08-.02.18-.02.26-.02.04,0,.09,0,.14.01.08.01.16.03.23.06.03.01.05.03.08.04.03.02.05.04.06.08.01.03,0,.05-.01.08h.01ZM275.14,123.81c-.07.07-.21.11-.31.13-.13.02-.28.04-.41.02-.03,0-.06-.02-.08-.02-.19.04-.4.05-.58,0h-.01c-.11.01-.21.02-.32.01-.16,0-.33-.02-.47-.11-.11-.06-.17-.18-.07-.28.14-.16.4-.2.6-.21.12,0,.23,0,.35.04.09-.05.2-.09.32-.12.22-.04.49-.05.7.05.04.02.07.05.09.08h.03s.07.05.08.09c0,.01-.01.02-.02.03,0,0,.01.01.02.02.05.01.11.03.14.07.05.06,0,.13-.04.17h-.01ZM309,127.27c.01-.18-.71,0-.76.16-.44,1.38-.39,2.86-.52,4.29-.07.4-.15.8-.23,1.2-.03.02-.05.04-.06.07l-.14.3s0,.05.04.07c-.07.31-.15.6-.22.91-.01.06.03.09.09.11-.08.17-.16.33-.24.49-.25.5-.54.97-.85,1.43-.5.73-1.04,1.42-1.6,2.11-.05.04-.11.09-.16.14-.03.02-.06.04-.09.06-.17.13-.35.24-.53.36-.42.19-.86.36-1.3.51-1.39.49-2.82.89-4.25,1.28h-.09c-.15-.01-.26,0-.28.11-.47.13-.95.26-1.42.38-.21.05-.04.23.04.31.18.15.44.2.66.2.64,0,1.28-.06,1.91-.16.06.02.12.03.16.02.03,0,.06-.01.08-.02h.02c.72-.12,1.42-.27,2.13-.46,1.48-.25,2.89-.78,4.18-1.58.15-.09-.15-.27-.45-.38,1.05-.53,2.04-1.19,2.78-2.14.19-.24-.61-.58-.88-.45.04-.06.09-.13.14-.19.31-.46.59-.94.84-1.43.25-.51.57-1.09.58-1.67,0-.13-.18-.2-.38-.23.12-.47.21-.95.25-1.43.25-1.41.42-2.84.52-4.27h0v-.04l.03-.02ZM305.08,117.76c-.85-.37-1.72-.73-2.59-1.04h.08c.05,0,.12,0,.17-.02.14.05.27.09.41.15.19.07.92-.17.61-.35-.13-.07-.25-.13-.38-.19.33,0,.65-.01.98-.09.05-.01.47-.19.31-.32-.65-.5-1.37-.71-2.12-.78.07,0,.15,0,.23-.02.12-.01.43-.09.44-.24,0-.17-.21-.15-.33-.14-.92.08-1.84.08-2.75.01-.65-.25-1.37-.36-2.09-.24-.14.02-.71.31-.3.39.02,0,.05,0,.07.01,0,.05.03.09.13.11.43.07.88.12,1.31.16h.03c-.2,0-.39,0-.58-.02-.07,0-.16-.01-.23-.01-.15,0-.38.05-.49.18-.07.09-.06.2.09.22h.08c.62,0,1.23.06,1.84.18-.86-.06-1.74-.06-2.61-.06-.15,0-.43.05-.51.2v.04h-.02c.11-.14.13-.28-.16-.32-.17-.01-.4.04-.54.15-.12.08-.11.17.05.18l-.15.11c-.63.12-1.27.28-1.87.52h0s-.06.02-.09.03c-.41.17-.16.41.19.3.18-.06.37-.09.55-.15,0,.01,0,.03.01.04.02.02.04.03.07.03-.09.04-.24.12-.17.2.01.01.03.02.05.02-.01.01-.02.02-.02.03-.4.14-.79.27-1.18.43.06-.11-.13-.22-.36-.3.23-.19.46-.37.7-.56.4-.33-.2-.63-.52-.38-.66.56-1.35,1.1-2.04,1.61-.14,0-.26,0-.32.04-.01.01-.03.02-.04.03-.08-.16-.41-.24-.62-.09-.3.21-.58.43-.88.64-.09.03-.18.06-.21.12-.03.04-.06.07-.09.11-.46.35-.93.7-1.4,1.03-.01,0-.01-.02-.03-.02-.16-.03-.42.03-.54.15-.54.47-1.1.91-1.69,1.32-.61.28-1.23.57-1.85.85-.07.03-.11.07-.14.13-.22-.12-.79.11-.7.26.05.09.03.18-.02.25-.11.08-.21.16-.32.23-.2.12-.41.23-.62.34-.45.23-.94.42-1.42.58-.08.02-.24.08-.31.18-.08.05-.17.09-.26.14-.07-.03-.16-.04-.25-.02-.15-.05-.35-.03-.46.06-.2.17-.41.31-.64.43h0c-.04-.07-.24-.03-.38,0,.07-.06.16-.12.23-.19.13-.12-.12-.11-.17-.11-.16.01-.39.06-.52.18-.16.15-.33.27-.5.4-.03,0-.05.02-.08.02-.08.01-.17.04-.25.05-.05-.02-.14-.03-.22-.01-.12.02-.22.04-.34.06-1.04.09-2.11.11-3.16-.03-.09-.01-.21,0-.33.04-.03-.02-.06-.03-.09-.05-.21-.11-.41-.11-.64-.06-.03,0-.19.05-.31.11-.21-.07-.41-.15-.62-.22-.05-.07-.11-.14-.15-.21-.08-.16-.37-.14-.57-.05-.12-.04-.22-.08-.34-.13-.14-.05-.55-.2-.66-.04-.12.16.16.31.27.36.15.05.3.11.44.16-.02,0-.05.02-.07.03-.16-.05-.33-.07-.47-.14-.13-.05-.4-.13-.57-.07-.13-.06-.25-.12-.37-.18-.37-.26-.73-.54-1.08-.82.18-.06.18-.18.02-.28-.08-.05-.16-.13-.24-.18,0-.01,0-.03-.02-.04,0,0-.01,0-.02-.01h0c0-.05-.03-.08-.07-.12-.03-.01-.06-.03-.08-.05h0s-.07-.03-.11-.03h-.03c-.71-.55-1.33-1.19-1.85-1.92-.23-.39-.47-.77-.72-1.16-.12-.19-.43-.22-.62-.22-.05,0-.18,0-.27.04-.55-1.02-.97-2.13-1.24-3.27-.04-.17-.31-.23-.57-.23-.12-.4-.21-.8-.28-1.21,0-.04-.04-.07-.07-.11-.02-.69,0-1.38.03-2.06,0-.07-.05-.14-.15-.18.04-.34.13-.65.21-.97.08-.18.19-.36.3-.54.12,0,.22-.01.26-.07.22.05.42.04.42-.05.01-.33.08-.64.18-.96.18.03.34,0,.38-.09.05-.13.11-.24.16-.37,0,0,.02-.01.02-.02.06-.16.14-.31.21-.45.16-.27.34-.53.51-.79.07-.01.14-.03.17-.08.34-.47.7-.93,1.05-1.39.72-.55,1.55-.92,2.06-1.7v-.03c.64-.47,1.29-.94,1.93-1.41.17-.13-.22-.32-.3-.35-.11-.04-.24-.07-.38-.08.44-.43.91-.84,1.37-1.26.43-.26.86-.52,1.31-.75.13-.06,0-.19-.12-.27.53-.43,1.05-.86,1.61-1.27.06.09.11.2.17.31.04.06.14.08.24.09-.19.15-.38.28-.57.43-.31.25.69.4.91.22.11-.08.21-.16.32-.24.21.14.45.21.74.21.09,0,.49-.02.4-.21-.03-.07-.05-.15-.09-.21.13,0,.24-.03.3-.08,1.45-1.27,3-2.38,4.64-3.36,1.61-.84,3.3-1.56,4.98-2.27.15-.06.32-.18.15-.32-.16-.13-.56-.03-.73.03-.73.31-1.46.62-2.18.94-.2-.05-.46-.03-.63.03-2.48,1-4.82,2.3-6.98,3.86-.09-.3-.19-.58-.27-.88.21-.13.41-.27.63-.4.18-.11-.46-.43-.82-.41-.05-.31-.11-.61-.14-.92,0-1.39.17-2.8.25-4.19,0-.08-.06-.15-.16-.2.03-.05.06-.12.09-.17.06-.09-.01-.17-.11-.22.07-.23.16-.46.25-.69.05-.03.09-.06.09-.13,0-.04,0-.07.01-.12.01-.03.02-.05.04-.08.02-.03,0-.05-.02-.07.02-.13.05-.26.09-.39.02-.06.05-.12.08-.18.11-.11.2-.22.32-.32.11-.09.11-.18-.05-.2h-.02s.02-.04.03-.06c.04-.01.08-.03.09-.07.09-.21.22-.4.36-.59.11-.08.22-.17.34-.23.06-.03.08-.11.05-.17,0-.01-.03-.02-.05-.03.15-.17.31-.34.47-.49.11.06.21.13.34.18s.45.17.61.08h.09c.13-.03.38-.14.19-.28-.16-.13-.3-.27-.44-.41-.08-.13-.18-.24-.26-.37.07-.03.11-.08.04-.17-.01-.02-.02-.03-.04-.05.03-.01.05-.03.07-.04.14-.06.05-.16-.13-.23.23-.11.45-.21.71-.28.18-.05.3-.15.17-.31-.13-.15-.57-.06-.73-.02-.21.06-.4.15-.6.23l-.47-.61s.03-.05,0-.09c-.05-.08-.22-.38-.4-.66.13-.02.19-.08.12-.2l-.15-.21c.06-.03.09-.09.02-.19-.34-.43-.65-.88-.99-1.31,0-.02.01-.03,0-.05-.11-.34-.32-.61-.54-.88-.21-.33-.42-.65-.63-.97-.09-.15-.27-.22-.45-.25,0,0-.01-.01-.02-.02-.01-.02-.04-.03-.06-.05-.19-.26-.39-.53-.57-.79.05-.05.07-.12.02-.18-.16-.18-.31-.36-.46-.54h0c.15-.01.31-.06.41-.15.08-.07.15-.2.06-.3-.07-.08-.19-.11-.31-.08-.06-.05-.13-.11-.19-.16-.13-.11-.25-.22-.38-.33-.26-.22-.52-.44-.78-.66-.02-.02-.05-.03-.09-.04-.08-.07-.17-.15-.25-.22-.02-.02-.03-.05-.05-.07-.01-.01-.03-.01-.05-.02-.03-.02-.05-.05-.08-.07-.01,0-.03,0-.04-.01-.02-.02-.04-.04-.06-.06-.03-.03-.16-.02-.19-.01-.07,0-.16.03-.23.05-.05-.04-.09-.08-.15-.13-.02-.01-.04-.01-.06-.02-.19-.13-.38-.24-.59-.34-.21-.09-.53-.09-.75,0-.19.07-.19.21,0,.3.89.41,1.53,1.19,2.06,1.99.43.65.79,1.43,1.33,2.03.02.03.03.05.05.08,0,.03,0,.07.03.12.08.11.16.21.24.31.35.55.7,1.1,1.05,1.65.19.3.37.59.57.88.11.19.21.38.32.56.45.74.92,1.48,1.42,2.18.05.08.12.15.18.22-1.46,1.03-2.43,2.67-2.85,4.44-.35,1.45-.4,2.94-.36,4.42.03.97.18,1.9.5,2.77-1.78,1.2-3.42,2.61-4.93,4.15-.68.55-1.31,1.15-1.89,1.79-.12.13-.25.23-.37.36-.73.77-1.39,1.6-1.97,2.49-.12.17-.23.35-.35.53-.46.54-.88,1.13-1.16,1.78-.54.64-.85,1.45-1.05,2.29-.3.71-.42,1.48-.36,2.24-.44,2.05.35,4.06,1.45,5.81,1.07,1.7,2.4,3.25,4.01,4.46,1.58,1.2,3.44,2.05,5.42,2.28,1.26.15,2.53.08,3.79-.11,1.99.02,3.97-.38,5.79-1.23.06-.03.08-.07.07-.11.02,0,.03,0,.05-.02.78-.31,1.53-.7,2.27-1.11.08-.03.16-.06.24-.11.6-.31,1.17-.69,1.72-1.08,4.19-2.23,8.3-5.25,13-6.13,2.27-.15,4.5.42,6.6,1.22.2.07.91-.21.61-.35l.03.02ZM465.05,288.46c-.42.5-.8,1-1.16,1.53-.26,0-.58.07-.65.22-2.15,4.19-4.35,8.61-4.21,13.43,0,.26,1.04.15,1.04-.18,0-.22.02-.43.02-.64.13-.03.22-.09.21-.18-.27-2.64,1.07-5.32,2.07-7.69.96-2.28,2.11-4.48,3.71-6.38.17-.19-.81-.37-1.01-.13l-.02.02Z"/>
      <path class="uuid-4f526757-17fa-43fb-9631-48c761b7f167" d="M314.35,123.12c-.15-.56-.35-1.1-.58-1.62-.06-.17-.13-.33-.19-.5-.28-1.65-.96-3.2-2.01-4.51-.05-.06-.12-.12-.18-.17-.84-1.36-2.05-2.46-3.42-3.32-1.07-1.09-2.37-1.87-3.83-2.22-1-.3-2.06-.37-3.17-.07-.27.07-.58.23-.82.45-1.37-.35-3.16.32-4.27.9-2.14,1.13-4.16,2.49-6.29,3.65-3.27,1.79-6.66,3.39-10.18,4.59-.85.19-1.72.35-2.57.39-.64.03-1.61.22-2.04.77-.07.09-.11.17-.11.24-.44.11-.86.28-1.03.55-.31.51.27.49.71.45,5.7-.49,11.21-2.14,16.25-4.84h.02c.09-.05.2-.09.3-.15.51-.27.38-.45-.03-.61-.42-.15-1.13.06-1.65.26-.09-.03-.2-.05-.31-.05,1.47-.74,2.91-1.51,4.35-2.31.91-.52,1.81-1.04,2.71-1.58.43-.25.88-.63,1.34-.81.56-.22.64-.2,1.08.28.23.26,1.03.14,1.73-.11.25.16.58.22.9.22.2.18.46.31.74.36,2.03.42,3.69,1.95,4.93,3.57-.08.04-.17.11-.24.16-.84-.9-1.88-1.66-3.07-2.18-.74-.33-2.8.32-2.42,1.4.64,1.89,2.13,3.06,3.39,4.53.8.94,1.2,1.97,1.4,3.05,0,.15.02.27.06.38.16,1.14.11,2.33.05,3.54-.17,3.8-.08,10.14-4.01,12.29-.14.07-.25.16-.36.24h0c.21-.58-.4-.84-.9-.85-.88-.03-1.72.09-2.53.33-.28.05-.56.14-.74.2-.09.03-.19.07-.28.11-2.22.68-4.26,1.84-5.98,3.43-1.14,1.04-2.16,2.22-3.2,3.36-1.35,1.16-2.51,2.5-3.26,4.17-.02.03-.04.06-.06.09h.02c-.03.08-.08.16-.12.24-.24.6.83.75,1.15.74.63-.02,1.46-.27,1.81-.84.64-1.02,1.38-1.99,2.16-2.93.37-.06.73-.2,1-.38.94-.63,1.62-1.45,2.29-2.3.34-.21.68-.42,1-.63.32-.2.59-.55.55-.86.22-.19.42-.4.65-.59.81-.66,1.77-1.49,2.82-1.94.62-.18,1.27-.3,1.94-.35.39-.03.93-.2,1.3-.49-.36.85.9,1.63,2.06.99,3.07-1.69,4.45-4.61,5.12-7.78.53-.16,1.16-.51,1.21-1.08.27-2.72.35-5.46.23-8.2.04-.97.03-1.94-.02-2.91.34.59.68,1.18,1.03,1.75.12.18.31.3.52.38.5,1.45,3.46.66,3.05-.83v-.03Z"/>
      <path class="uuid-4f526757-17fa-43fb-9631-48c761b7f167" d="M292.23,102.91c-1.47.44-2.95.82-4.46,1.13-.81.17-1.63.32-2.46.45-.81.13-1.81.2-2.42-.47-.02-.02-.02-.04-.03-.05-.76-.09-1.51-.24-2.25-.49-.24-.08-.32-.21-.3-.35-.91-.28-1.74-.77-2.56-1.24-.51-.3-.98-.63-1.36-1.05-.07.03-.14.05-.19.07-2.72.97-4.92,2.93-6.91,4.97-.54.56-1.07,1.15-1.57,1.77-.28.55-.53,1.12-.74,1.71-.24,2.17-.28,4.37-.06,6.55.02.23.05.47.08.71.23.8.51,1.58.89,2.32.47.92,1.05,1.8,1.63,2.68.09.06.19.15.3.21.16.09.15.21.07.34.33.47.64.95.96,1.42.39.6-.27,1.13-.78,1.36-.51.22-1.67.47-2.05-.11-.47-.72-.96-1.43-1.45-2.16-.64-.45-1.15-1.03-1.53-1.7-.52.05-.97-.02-1.1-.33,0-.01,0-.02-.01-.04,0,0,0-.01-.01-.02-.01-.03-.02-.06-.03-.09-.26-.63-.47-1.29-.65-1.95-.38,0-.64-.11-.63-.28.04-.74.09-1.47.16-2.2-.04-.3-.09-.59-.11-.89v-.03c-.02-.31-.02-.61-.02-.92,0-.02-.01-.04-.01-.06-.26-.03-.44-.13-.43-.28.03-.46.09-.91.2-1.34-.02-.37-.03-.75,0-1.13.02-.23.31-.43.52-.56.27-1.58.75-3.13,1.46-4.59.28-.59,1.19-.82,1.77-.92.03,0,.07,0,.12-.01,2.28-2.87,5.33-5.38,8.94-6.08.24-.04.84-.09,1.12.12.34-.2.76-.34.91-.38.5-.14,1.38-.31,1.7.22.68,1.13,2.1,1.54,3.27,1.92,1.05.35,2.12.63,3.19.9h.28c.73,0,1.46.01,2.19.01.07-.01.15-.04.23-.05.41-.11.82-.21,1.22-.32.26-.06.53-.11.8-.13.11-.03.2-.05.31-.08.12-.03.27-.06.45-.08.3-.08.59-.16.88-.24.49-.15,1.58-.2,1.76.47.19.69-.79,1.14-1.3,1.29v.02ZM297.67,98.2c0-.13-.02-.25-.03-.39.02-.33,0-.66-.06-1h0c.02-.09.03-.18,0-.26,0-.02-.02-.05-.02-.07-.04-.54-.07-1.08-.12-1.61-.02-.25-.42-.42-.6-.46-.15-.04-.32-.04-.49-.04-.34-.44-.77-.79-1.33-.94-.06-.02-.15-.01-.22-.02-.08-.03-.17-.06-.25-.07-.45-.08-.9-.08-1.34.03-.23.06-.45.16-.65.27-.15-.31-.55-.49-.93-.53-1.55-.19-3.1.06-4.61.42-1.35.33-2.68.7-4.02,1.05-.25.06-.58.21-.84.42-.08.02-.17.04-.25.06-.3.07-1.5.39-1.41.85.06.32.8.22,1.28.12.26.6,1.23.58,1.74.45,1.24-.33,2.48-.66,3.72-.98.32-.08.64-.16.96-.22.04,0,.23-.04.28-.05.12-.02.23-.03.35-.05.3-.04.6-.06.9-.07h.11s.04,0,.09.01c.2.02.4.03.6.05.4.05.89-.05,1.3-.27.12.2.35.34.55.38.2.05.41.06.61.05.13.09.24.2.37.3.13.11.25.2.38.31,0,0,.01.02.02.03.14.23.27.45.4.7.02.04.03.06.04.08h0l-.02-.03s.01.03.02.04c.06.64.17,1.27.33,1.89h0c-.04.28-.12.55-.19.81-.04.14-.08.28-.14.42.05-.16-.08.22-.09.25-.11.27-.16.51.04.76.19.23.57.36.85.37.4.02.83-.04,1.2-.22.28-.14.69-.36.8-.68.19-.52.38-1.04.51-1.57l.07-.09c.09-.15.13-.31.09-.47h0ZM252.92,87.11c-.24.15-.11.06,0,0h0ZM251.59,87.82h.04c-.11.01-.16.02-.18.03h.03s.07,0,.11-.01v-.02ZM256.61,86.56s-.02-.04-.03-.06c.04-.09.06-.2.04-.3-.02-.06-.05-.12-.09-.17-.04-.14-.2-.19-.4-.21-.03,0-.06-.02-.09-.02-.74-.13-1.58.12-2.16.58,0,0-.02.01-.02.02-.11.05-.2.13-.26.2-.2.16-.4.32-.6.47-.01,0-.03.02-.05.03.01,0,.02-.01.04-.02-.08.05-.16.11-.23.16-.15.09-.3.19-.44.27-.06.04-.14.07-.2.12-.13.05-.25.11-.37.16h-.03s-.03,0-.04.01h.04s-.05,0-.07.01c-.08.01-.16.02-.14.02h-.11.11c-.39.02-.77.08-1.13.23-.26.12-.66.32-.82.58-.06.11-.11.22-.12.34-.22.14-.38.31-.26.47.07.09.23.14.37.15-.01.08,0,.18.02.26.23.7,1.19.86,1.81.64,1.01-.35,1.95-.79,2.86-1.36.79-.5,1.51-1.09,2.17-1.74.2-.2.33-.59.24-.86h-.02Z"/>
      <g>
        <path class="uuid-4f526757-17fa-43fb-9631-48c761b7f167" d="M458.17,325.2c-.21-.04-.11-.01,0,0h0Z"/>
        <path class="uuid-4f526757-17fa-43fb-9631-48c761b7f167" d="M464.41,322.04c.04-.11.07-.21.11-.32.52-1.32.86-2.69.98-4.1.03-.41-.74-.31-.78.05-.03.3-.08.59-.14.89-.16.04-.31.15-.33.3-.14.97-.41,1.92-.8,2.82h-.4c-.38.04-.83.18-1.16.39-.09.06-.19.14-.27.2-.11.08-.18.19-.23.3-.06.08-.13.17-.14.27-.05.31-.14.59-.26.88-.14.25-.3.5-.49.72l-.13.13c-.19.06-.36.15-.52.24-.08.05-.17.09-.24.15-.04.02-.08.04-.13.06.07-.03.15-.07.22-.11-.09.08-.24.13-.38.17h-.02c-.07.02-.14.04-.21.05-.02,0-.05.01-.07.02-.03,0-.07.01-.11.02-.07.01-.16.02-.24.03h-.5s.03,0,.07.01c-.08-.02-.17-.02-.25-.03-.18-.03-.35-.06-.53-.11-.35-.08-.8-.01-1.14.07-.21.05-.45.15-.68.27-.43-.6-.54-1.46-.13-2.1.08-.14-.07-.17-.19-.17-.15,0-.42.05-.51.19-.22.34-.32.74-.31,1.13-.04.03-.08.06-.08.11-.05.73.08,1.58.77,1.95.03.02.06.03.09.05.02,0,.03.02.05.03h.02c.06.02.14.04.2.06,2.05.51,4.37.05,6.15-1.03.05-.03.12-.07.19-.13.32-.11.61-.25.89-.45.55-.42,1.04-.94,1.45-1.51.11-.16.19-.33.26-.5.04-.09.07-.21.07-.32.01-.16.02-.34-.04-.49-.03-.07-.07-.15-.14-.22h0Z"/>
      </g>
      <path class="uuid-4f526757-17fa-43fb-9631-48c761b7f167" d="M490.75,344.1c.16-.3.27-.6.34-.92.03-.16-.23-.15-.33-.14-.09.02-.2.04-.28.09-.05.03-.14.08-.15.15,0,.02-.02.04-.02.07-.06.03-.14.07-.17.14-.07.13-.17.25-.24.39-.09.04-.18.11-.21.2,0,.02-.02.04-.02.06h0c-.19.16-.39.3-.59.43-.08.03-.16.07-.21.14-.01.01-.02.03-.03.04-.95.64-1.99,1.14-3.11,1.47-.14.04-.37.16-.32.33.04.17.32.16.44.13.18-.05.35-.12.52-.18-.09.06-.2.13-.3.18-.14.08-.3.25-.18.41.08.12.26.15.41.12.08.01.18,0,.22,0,.25-.05.51-.13.76-.21-.01.01-.03.03-.04.03h0s-.07.05-.12.07h0s-.05.02-.07.04c-.03.02-.08.04-.13.05h-.02s-.04.01-.07.02c-.08.02-.17.04-.24.06h-.02c-.18-.03-.38.01-.54.09-.05.02-.19.13-.14.18,0,.02-.02.03-.02.05-.14.02-.26.06-.36.14-.13.12-.08.22.07.26.62.16,1.32.08,1.9-.19.3-.14.57-.31.78-.56.05-.05.09-.13.13-.19h0c.44-.19.84-.46,1.18-.8.59-.61.95-1.38,1.21-2.17h-.03Z"/>
      <path class="uuid-38b864f4-dcd1-4453-92e1-dbb6bc6e4f73" d="M453.38,243.19c.04-1.58-.06-3.21-.34-4.87-1.69-10.15-8.03-19.1-14.33-26.94-23.05-28.64-58.7-46.64-94.8-51.66-2.77-.39-5.69-.69-8.29.32-3.61,1.38-5.9,4.96-7.32,8.54-5.67,14.27-6.8,17.31-11.59,26.88-2.88,5.76-20.68,10.26-21.69,11.79-3.82,5.79.92,16.58-1.99,19.71-1.92,2.07-7.21,7.89-14.57,10.25-11.73,3.76-16.14-.11-21.6,1.42-5.07,1.42-3.46,13.45-8.61,16.2-9.32,5-17.29,4.75-20.97,5.42-8.62,1.56-12.72-6.57-21.4-5.42-6.18.82-7.14,11.1-13.37,11.13-13.04.08-13.39-1.43-39.39-9.24-1.16-.35-3.42-9.31-8.61-11.27-3.53-1.33-6.63,3.08-9.71,1.55,0,0-6.24-3.09-12.01-8.39-1.34-1.22-2.45-2.45-2.87-4.22-.49-2,.62-3.55-1.08-8.24-3.16-8.75-8.21-1.51-11.89-6.79-6.16-8.85,1.53-22.44-.46-24.57-3.47-3.7-3.77-10.56-3.87-11.3-.91-6.63,5.18-9.36,6.99-15.2,1.36-4.38,14.81-10.4,9.23-15.13-6.8-5.76-13.61-3.84-17.06.26-3.12,3.72-15.52,8.61-19.84,20.11-1.98,5.28-11.55,4.8-12.92,8.01-1.4,3.3,1.26,5.81,1.87,11.37.93,8.45-1.51,21.69-3.89,27.38-2.54,6.07-8,2.01-6.32,10.43.95,4.75,5.13,12.62,10.21,19.67,7.08,9.82,8.41,16.66,17.1,32.27,1.14,2.06-.71,15.63,3.77,17.4,2.38.94,4.82,4.1,7.38,4.1,5.38,0,10.21,2.16,14.03,4.43,14.08,8.36,23.06,14.13,32.78,18.75,8.54,4.07,28.94,8.02,28.47,12.94-.23,2.43,1.66,9,11.52,11.86,5.03,1.46,13.71-3.59,21.07-5.54,5.96-1.58,26.57,5.66,75.82-1.3,1.03,1.15,2.69,2.63,4.97,4.01,2.14,1.3,4.66,2.34,7.24,2.44,2.72-1.76,9.47-1.8,12.2-7.12,5.96-11.59,23.89-12.27,28.58-14.51,32.72-13.14,40.28-17.58,50.55-22.45,5.35-2.53,14.26,1.58,18.57-.51,15.37-7.45-7.69-12.43,23.4-30.48,16.11-9.36,24.69-20.22,25.06-33.54h-.01ZM140.08,266.57c.09-.06.19-.13.28-.19"/>
      <path class="uuid-9b1fabb9-1fae-49df-9574-709336240d00" d="M278.75,153.61c-6.78,0-6.8,10.55,0,10.55s6.8-10.55,0-10.55Z"/>
      <path class="uuid-c317ba71-37d6-4e88-a44c-d6e74cb1d676" d="M393.24,289.44c-.24-1.12-.78-1.97-1.5-2.58.61-1.04.82-2.38.38-3.99-1.5-5.39-3.17-10.79-6.7-15.24-2.63-3.32-5.69-5.84-8.03-9.07-1-2.08-2.04-4.15-3.15-6.18-.95-1.73-2.59-2.48-4.26-2.5-2.86-3.5-5.85-6.9-9.05-10.09-5.95-5.96-12.68-11.38-20.13-15.36-.69-.37-1.39-.72-2.1-1.07-2.37-1.61-4.82-3.05-7.37-4.15-3.77-1.61-8.39-2.37-13.03-2.36-1.95-.47-4.11-.37-6.48.03-.73.13-1.35.42-1.87.82-1.71.36-3.35.82-4.85,1.4-2.05.78-3.45,3.02-3.7,5.19-1.13-.22-2.36-.09-3.57.53-2.7,1.38-5.07,3.07-7.32,5.06-1.38,0-2.72.59-3.62,1.92-.32.31-.62.64-.89,1.07-.65.11-1.3.34-1.89.68-1.28.27-2.56.54-3.85.77-4.97.9-5.09,9.39,0,10.17.85.13,1.65.19,2.42.2.73.91,1.76,1.52,2.89,1.79.49.59,1.07,1.1,1.7,1.48v.38c-.03,2.42,1.73,4.24,3.82,4.94,1.85,3.72,4.07,7.23,6.07,10.92,3.45,6.39,6.16,13.11,8.15,20.08,4.02,14.03,4.07,28.28,4.29,42.75,0,.59.11,1.13.25,1.61-.6.57-1.09,1.26-1.42,2.01-2.86,4.01,2.77,9.47,7.39,7.23.12-.05.23-.12.35-.17.56-.27,1.02-.69,1.41-1.18,11.4-4,22.8-7.98,34.2-12.01,5.01-1.77,9.88-3.65,14.46-6.39,4.45-2.67,9.69-2.65,13.98-5.47.19-.13.36-.25.52-.39,12.09.06,14.5-13.44,12.49-22.84v.02ZM335.81,239.35c.06-.5.06-.97,0-1.43.35.11.69.2,1.03.31-.39.33-.74.7-1.04,1.13h.01ZM354.16,270.49c-.15.01-.28.03-.43.05.18-.54.34-1.08.46-1.62-.01.52-.03,1.04-.03,1.56h0Z"/>
      <path class="uuid-88de6d46-5b02-46ac-b4b7-0ac921d2cbc2" d="M103.21,204.91c-1.09-3.42-5.43-4.69-8.12-3.03-1.69-1.17-3.6-2-5.59-2.62-2.8-.85-6.97-.68-9.13-2.82-3.28-3.24-8.93-.83-9.01,3.73-.11,7.78-1.23,16.54.32,24.38-.08,2.87.69,5.4,2.23,7.94,2.04,3.38,5.97,3,8.22.94,1.02.52,2.03,1.14,3.24,1.27,1.26.13,2.27-.14,3.26-.54,5.52.89,12.65-1.23,15.74-6.01,4.59-7.11,1.16-16-1.15-23.25h.01Z"/>
      <path class="uuid-436a8c8e-1942-4034-81f0-1ce51dcfd841" d="M108.77,161.94c-1.14-1.07-1.95-1.99-2.76-3.31-1.41-2.29-4.81-3.54-7.21-1.89-4.49,3.09-8.09,6.88-10.67,11.7-.44.83-.61,1.74-.56,2.64-.52.64-1.08,1.19-1.7,1.55-2.65,1.52-5.21,1.31-6.71,4.64-2.3,5.11,3.61,9.68,7.26,7.51.55.47,1.24.86,2.11,1.1,4.77,1.31,11.08,4.15,14.14-1.47,1.26-2.3,1.85-5.04,2.84-7.47,1.2-2.94,2.63-5.79,4.11-8.6,1.08-2.03.92-4.76-.82-6.39h-.02Z"/>
      <path class="uuid-16301db7-7850-46e6-b88b-b552b694a41e" d="M290.33,228.79c.94-1.16,2.86-.98,7.26-3.35,4.62-2.5,14.54-1.74,19.23.62s8.52,6.71,9.52,11.87-1.78,12.73-6.35,15.34c-3.88,2.22-9.04,4.45-13.56,3.27-6.13-1.59-8.56-4.27-10.96-9.15-1.56-3.16-1.12-5.66-.58-8.3.51-2.5,1.58-3.61,1.95-4.03,2.57-2.92,5.9-3.63,9.66-3.43,4.87.25,8.55,2.32,9.92,4.7,3.96,6.91-2.56,10.35-4.79,10.91-6.02,1.51-6.77-4.15-6.25-4.53"/>
      <path class="uuid-16301db7-7850-46e6-b88b-b552b694a41e" d="M326.34,237.92c.3,2.66.41,5.64,0,8.29-1.03,6.9-4.42,13.54-3.79,20.49.45,4.86,3.04,9.56,7.1,12.26,4.06,2.7,8.88,2.87,13.5,1.3,2.84-.97,3.72-.9,6.77-2.72,1.92-1.15,5.12-3.72,6.11-5.75,2.73-5.57,2.27-11.99-2.61-15.82-3.16-2.49-4.89-2.92-8.03-2.94-1.3,0-4.42,1.32-6.84,2.8-2.99,1.81-4.41,3.96-5.35,7.33s.95,6.93,4.05,8.55c5.32,2.8,11.64-5.33,4.53-7.91"/>
      <path class="uuid-16301db7-7850-46e6-b88b-b552b694a41e" d="M340.76,280.92c7.46-.31,14.77.32,21.51,3.53,2.13,1.02,4.79,3.32,6.11,5.76,2.5,4.65,2.94,8.48.84,14.1-1.85,4.95-11.99,14.33-19.26,14.94-11.22.93-17.2-4.77-18.82-13.39-1.04-5.6,1.01-8.46,3.57-11.4,3.28-3.79,10.92-6.17,16.13-4.54,6.51,2.04,7.32,9.56,5.57,14.33-2.2,6.01-13.32,5.91-11.36-2.97"/>
      <path class="uuid-2f3606c5-4029-4295-9303-8ef5ffda6b85" d="M369.11,304.53c-1.49,2.65-3.35,5.28-4.01,8.25-.25,1.17-.37,2.43.02,3.55s.85,1.45,2.05,1.56c.45-.53,1.61-1.04,2.3-1.13,0,.26-.53.83-.31.69"/>
      <path class="uuid-46994dd1-fde8-4fba-bb07-72e22ef88c5e" d="M206.64,270.54c-6.24.08-14.74-1.47-19-6.03-.12.19-.13.43-.03.63"/>
      <path class="uuid-46994dd1-fde8-4fba-bb07-72e22ef88c5e" d="M209.8,279.87c-1.02.73-17.43-.68-22.26-2.39-11.81-4.2-18.98-11.74-22.64-16.67"/>
      <path class="uuid-46994dd1-fde8-4fba-bb07-72e22ef88c5e" d="M205.65,302.84c-13.48-1.42-21.89-4.61-32.03-12.97-7.23-5.95-14.2-18.04-21.11-31.24.12.26,0,2.85.12,3.11"/>
      <path class="uuid-46994dd1-fde8-4fba-bb07-72e22ef88c5e" d="M202.78,320.72c-34.68-7.69-45.56-26.16-53.55-46.38"/>
      <path class="uuid-46994dd1-fde8-4fba-bb07-72e22ef88c5e" d="M193.98,331.28c-2.3,5.13-21.56,1.01-34.18-11.93-8.63-8.85-15.73-22.95-20.09-34.28"/>
      <path class="uuid-46994dd1-fde8-4fba-bb07-72e22ef88c5e" d="M135.21,322.09c-5.7-5.81-10.45-12.74-12.88-24.32"/>
      <path class="uuid-46994dd1-fde8-4fba-bb07-72e22ef88c5e" d="M154.88,331.28c-5-4-13.64-14.46-16.73-20.07-4.16-7.55-5.4-11.74-7-18.92"/>
      <path class="uuid-4064ce5c-d542-4e61-bb1a-3ce076e6daea" d="M130.91,271.19s2.1-4.15,1.85-4.15c-1.65-4.99-2.49-14.31-1.26-21.09"/>
      <path class="uuid-4064ce5c-d542-4e61-bb1a-3ce076e6daea" d="M126.55,276.07c-2.42-11.9-3.2-23.93.6-35.25"/>
      <path class="uuid-4064ce5c-d542-4e61-bb1a-3ce076e6daea" d="M118.33,281.29c-2.32-14.83-1.73-30.64,4.43-44.08"/>
      <path class="uuid-4064ce5c-d542-4e61-bb1a-3ce076e6daea" d="M107.27,286.45c-4.12-14.46-.93-31.22,5.57-45.5-.44.07-2.05.15-2.48.22"/>
      <path class="uuid-4064ce5c-d542-4e61-bb1a-3ce076e6daea" d="M97.84,285.26c-3.57-13.16-.07-27.45,4.76-40.2-.16.74-3.11,1.48-3.27,2.23"/>
      <path class="uuid-4064ce5c-d542-4e61-bb1a-3ce076e6daea" d="M85.85,277.72c-1.38-6.32-1.1-10.08-.43-12.96,2.86-12.41,6.71-16.59,7.96-17.34"/>
      <path class="uuid-4064ce5c-d542-4e61-bb1a-3ce076e6daea" d="M75.99,263.09c.09-4.51,3.96-11.87,7-15.66"/>
      <path class="uuid-e7a64e3f-92ca-4be2-bf6f-414d49b74321" d="M132.25,263.22c.46.79,1.38,1.3,2.3,1.24-.08.09-.23.13-.35.08"/>
      <path class="uuid-e7a64e3f-92ca-4be2-bf6f-414d49b74321" d="M131.83,264.79c.13,1.43.02,2.9-.33,4.3"/>
      <path class="uuid-e7a64e3f-92ca-4be2-bf6f-414d49b74321" d="M126.28,272.13c-.02,1.02,1.18,1.87,2.13,1.5.04.13-.06.28-.2.3"/>
      <path class="uuid-e7a64e3f-92ca-4be2-bf6f-414d49b74321" d="M125.33,272.61c.17.43.21.91.13,1.36-.07.4-.25.78-.43,1.15-.2.41-.39.82-.59,1.24-.03.06-.07.14-.15.14s-.07-.14,0-.12"/>
      <path class="uuid-e7a64e3f-92ca-4be2-bf6f-414d49b74321" d="M118.1,277.47c-.04.34.16.68.43.88s.61.31.94.4c.53.15,1.05.31,1.57.45"/>
      <path class="uuid-e7a64e3f-92ca-4be2-bf6f-414d49b74321" d="M117.36,277.55c.19,1.39-.26,2.85-1.19,3.9"/>
      <path class="uuid-e7a64e3f-92ca-4be2-bf6f-414d49b74321" d="M109.42,283.65c-.07.05.13.09.11,0s-.14-.11-.23-.11c-1.24.02-2.46-.76-2.95-1.9.14.43-.44,1.34-.65,1.74-.59,1.18-1.5,2.2-2.61,2.93"/>
      <path class="uuid-e7a64e3f-92ca-4be2-bf6f-414d49b74321" d="M97.37,283.32c.34,1.17,2.27,2.1,3.48,2.28"/>
      <path class="uuid-e7a64e3f-92ca-4be2-bf6f-414d49b74321" d="M96.9,282.97c-.13.33-.08.7-.18,1.02-.06.22-.18.42-.31.62-.21.35-.42.71-.63,1.05-.38.62-.81,1.3-1.5,1.53"/>
      <path class="uuid-e7a64e3f-92ca-4be2-bf6f-414d49b74321" d="M84.65,270.71l-.66.99c-.36.54-.74,1.09-1.3,1.38-.2-.17-.39-.34-.59-.51"/>
      <path class="uuid-e7a64e3f-92ca-4be2-bf6f-414d49b74321" d="M77.11,256.75c-.35.35-.81.71-1.29.55-.46-.15-.86-.76-1.29-.51"/>
      <path class="uuid-e7a64e3f-92ca-4be2-bf6f-414d49b74321" d="M203.68,267.6s-.03.04-.05.06c-.54.73-.74,1.84-1.59,2.13,0,.14-.02.27-.03.41"/>
      <path class="uuid-e7a64e3f-92ca-4be2-bf6f-414d49b74321" d="M205.51,279.39c.81-.43,1.57-.99,2.23-1.65.32-.32.62-.68.71-1.12s-.14-.96-.56-1.08"/>
      <path class="uuid-e7a64e3f-92ca-4be2-bf6f-414d49b74321" d="M204.35,271.16c.46.22.93.45,1.28.83s1.53.58,1.36,1.05"/>
      <path class="uuid-e7a64e3f-92ca-4be2-bf6f-414d49b74321" d="M204.22,302.16c.77.3,1.67-.03,2.26-.59s.94-1.34,1.24-2.1"/>
      <path class="uuid-e7a64e3f-92ca-4be2-bf6f-414d49b74321" d="M206.02,280.17c.77.7,1.54,1.45,2,2.38s1.65,2.69,1.1,3.59"/>
      <path class="uuid-e7a64e3f-92ca-4be2-bf6f-414d49b74321" d="M198.25,318.93c.7-.04,1.41-.15,1.99-.53s1.94-.52,1.75-1.18"/>
      <path class="uuid-e7a64e3f-92ca-4be2-bf6f-414d49b74321" d="M203.92,302.68l.93,1.29c.24.33.47.66.62,1.04.45,1.19-.13,2.51-.75,3.63"/>
      <path class="uuid-e7a64e3f-92ca-4be2-bf6f-414d49b74321" d="M197.81,319.95c1.19,1.03,1.5,2.93.71,4.29"/>
      <path class="uuid-e7a64e3f-92ca-4be2-bf6f-414d49b74321" d="M186.48,333.63c.56,1.28.58,2.77.05,4.06"/>
      <path class="uuid-e7a64e3f-92ca-4be2-bf6f-414d49b74321" d="M288.07,322.78c-.08-.05-.19.06-.18.16s.09.17.18.23c.54.4,1.11.78,1.47,1.34s1.8,1.39,1.3,1.84"/>
      <path class="uuid-e7a64e3f-92ca-4be2-bf6f-414d49b74321" d="M286.31,336.42c-.13-.13-.38-.07-.43.09,1.27.44,1.97,2.07,1.43,3.3"/>
      <path class="uuid-e7a64e3f-92ca-4be2-bf6f-414d49b74321" d="M288.49,301.76c.01.21.39.18.45-.03s-.08-.41-.22-.57c-.77-.89-2.82-1.33-2.51-2.63.13-.52.89-.99,1.14-1.5.35-.65.45-1.45.57-2.16-.13-.04-.24-.08-.37-.14"/>
      <path class="uuid-e7a64e3f-92ca-4be2-bf6f-414d49b74321" d="M276.33,272.15c.59,0,1.21.04,1.74.34s1.7-.02,1.57.57"/>
      <path class="uuid-e7a64e3f-92ca-4be2-bf6f-414d49b74321" d="M275.7,271.25c.49-.2.82-.68.97-1.18s.15-1.04.14-1.57c0-.5-.01-.99-.17-1.47"/>
      <path class="uuid-149e7926-0788-42fd-9e30-a0ecc1e39018" d="M104.79,212.85c-3.06-.06-6.15-.11-9.15.52s-5.93,1.95-7.96,4.24-3.94,6.15-2,8.52c2.28,2.78,5.41,3.69,8.26,2.31,1.82-.89,2.46-1.43,3.25-3,.66-1.33.63-3.2.24-4.65-.43-1.59-1.88-2.5-4-1.88-1.69.5-2.8,3.99-.14,4.92"/>
      <path class="uuid-149e7926-0788-42fd-9e30-a0ecc1e39018" d="M104.48,211.81c-3.07-.14-6.15.02-9.18.5-1.78.27-3.59.66-5.38.45-1.12-.13-2.24-.53-3.12-1.23-1.62-1.3-1.14-3.6.12-5,.72-.81,1.85-1.16,2.9-1.45,1.81-.5,3.77,2.15,2.84,3.72-.61,1.04-2.2,1.36-3.16.61"/>
      <path class="uuid-149e7926-0788-42fd-9e30-a0ecc1e39018" d="M90.63,215.23c-3.52,1.86-6.35,4.03-9.41,6.54-1.65,1.35-6.13,1.29-7.17-1.26-1.95-4.75,2.78-6.87,5.33-6.92,1.45-.03,3.15,2.51,1.81,4.11-.89,1.07-2.55.91-3.77.66"/>
      <path class="uuid-d57e2a55-099a-4fbe-bfc6-26a84af8dcfe" d="M465.48,99.56c.45-.78.72-1.67.69-2.57-.04-1.54-.33-2.97-.82-4.37.01-.18.03-.36.03-.55.01-.59-.06-1.17-.21-1.73-.06-.81-.13-1.62-.2-2.44-.13-1.37-.66-2.46-1.42-3.28-.07-.57-.15-1.13-.23-1.7-.18-1.3-.73-2.34-1.49-3.14-.36-1.65-.78-3.28-1.32-4.93-.27-.84-.7-1.51-1.19-2.05,0-.27-.03-.54-.08-.79-.04-.32-.08-.62-.13-.94-.16-.69-.47-1.29-.94-1.79-.23-.4-.55-.71-.95-.95-.51-.46-1.11-.78-1.79-.94-.46-.06-.94-.13-1.4-.19-.39,0-.76.05-1.13.13-.84.04-1.63.27-2.37.7-.36.27-.71.55-1.07.82-.58.59-1,1.28-1.26,2.05-.26.39-.49.8-.64,1.23-.84,1.56-1.74,3.09-2.7,4.58-1.26.54-2.36,1.58-3.02,3.2-.01.03-.03.07-.04.11-.46.23-.92.55-1.33.97-1.18,1.2-2.36,2.42-3.54,3.62-.5.51-.85,1.03-1.12,1.57-3.31,3.69-6.41,7.56-9.3,11.59-2.32,2.74-4.35,5.71-6.08,8.86-.82,1.16-1.6,2.34-2.34,3.57-.7,1.15-.88,2.31-.71,3.36-.02.05-.04.09-.06.15-.14.34-.28.68-.42,1.02-.91,2.13-.46,4.18.63,5.66-.13,2.69,1.52,4.26,3.55,4.73-.3,2.63-.59,5.25-.89,7.88-.28,2.57,2.23,4.9,4.58,5.18,2.8.34,4.78-1.28,5.79-3.78.2-.51.34-1,.44-1.52.12-.22.22-.46.32-.7.56.14,1.13.19,1.71.16.35.15.71.25,1.09.33,1.42,1.41,3.91,1.67,6,.85.94,1.97,2.78,3.15,4.8,3.11,1.4.55,2.96.61,4.26.01.95-.21,1.86-.66,2.63-1.36.16-.15.31-.31.46-.45,1.2-.12,2.35-.63,3.21-1.63.56-.42,1.07-.98,1.43-1.74.44-.9.88-1.78,1.32-2.68.23-.19.46-.4.69-.65.26-.31.52-.6.74-.9.86-.61,1.57-1.47,1.95-2.61.51-1.53.83-2.91,1.05-4.5.04-.33.06-.65.06-.96.5-.55.89-1.22,1.11-2.07,1.05-4.11,1.75-8.22,2.24-12.43.15-1.24-.14-2.26-.66-3.05.04-.7.06-1.39.08-2.09v.03Z"/>
      <path class="uuid-0fada1d6-5dc9-4eb9-b710-f2c27a0bbac4" d="M404.18,90.23c.21-3.13.18-6.3-.14-9.48-.06-.65-.24-1.23-.47-1.76-.38-2.91-1.13-5.67-2.63-7.44-.07-.28-.17-.56-.26-.84.02-.24.04-.49.07-.73.9-6.5-8.35-9.58-10.17-2.81-.32,1.18-.53,2.34-.63,3.52-1.16.32-2.28,1.03-3.13,2.19-1.43,1.95-2.44,4.18-3.51,6.36-.89.58-1.63,1.45-2.11,2.63-1.51,3.77-4.99,6.46-6.89,10.02-1.34,2.52-2.77,4.76-3.16,7.53-.74,1.11-.71,2.89-.5,4.17-.09-.55-.18-1.49-.12-2.13.12-1.11.03.08,0,0,.23-.84.08-2.17-.33-3.16-.89-2.13-1.65-3.04-3.62-4.65-1.8-1.48-3.63-3.57-5.74-4.56-1.7-.79-3.26-1.42-4.97-2.1-2.08-.82-4.17-.85-6.38-1.08-.46-.04-1.24-.12-1.53.17-.3-.19-.78-.23-1.12-.34-.63-.33-1.42-.16-2.15-.14-.09.01-.19.02-.28.04-.19-.02-.38-.04-.57-.04h-.17c-.73-.03-1.4.13-2.04.45-.65.21-1.67-.08-2.14.42-.52.47-2.96.01-3.17.66-.33.63-.04,1.86.96,3.27.06.46,1.23,1.4,1.3,1.87.25.9.71,1.67,1.36,2.33l.12.08c.31.35.65.66,1.07.92,3.03,4.71,5.83,9.55,8.43,14.52.22.42.51.77.81,1.08.16.54.33,1.09.51,1.63h0c.15.43.35.84.58,1.24.21.44.49.85.85,1.19.04.04.08.06.13.11.72.77,1.91,2.11,2.82,2.25.36.08.8.01,1.18,0,.46-.06.54-.94,1-1,.9-.25,1.67-.71,2.33-1.36.27-.36.55-.71.82-1.07.38-.66.61-1.37.69-2.11.37-.9.63-1.85.72-2.74.77.2,1.55.25,2.31.15,3.66.68,6.9-2.1,6.38-5.74.12.54.45.8.45,1.4,0,.39.13,1.26.39,1.61,1.74,2.35,5.81.42,8.47,1.77,1.78.64,3.63,1.39,5.42,1.8,1.76.4,3.53.44,5.3.25.75.38.26.65.3.65,1.72.37,2.86-.35,4.58-.7,2.09-.26,3.89-1.09,4.94-3.33l.64-1.39c.03-.07.05-.16.09-.24.54-.85,1.95-2.65,2.3-3.94.76-2.85.75-6.05,1.08-8.97.11-.96-.07-1.8-.45-2.51v.04Z"/>
      <path class="uuid-1f24d891-8200-4388-b081-7baa4a1556f7" d="M501.5,270.46c-.46-1.86-.41-3.42-.33-5.31.05-1.27-.41-2.37-1.17-3.24.64-1.04.86-2.42.38-4.07-1.39-4.71-3.28-9.18-5.72-13.45-.41-.72-.9-1.28-1.41-1.7-2.61-3.69-6-6.67-10.4-8.67-1-.45-2.23-.64-3.4-.53-3.31-.32-6.7,2.92-5.76,6.68.2.81.37,1.62.53,2.44-.8.62-1.42,1.56-1.72,2.89-.34,1.53-.66,3.03-.97,4.51-.32,1.29-.68,2.55-1.07,3.82-2.66,1.58-4.31,2.24-4.68,4.79-.95-.35-1.59.92-2.7.72-2.72-.5-4.64.7-6.95.92-1.16.11-3.85-.98-3.72,0-.93-.81.26,1.08-.9.51-5.32-2.65-5.97,4.69-9.68,7.45-2.04,1.51-3.87,2.62-5.26,4.81-.7,1.09-1.32,2.12-1.97,3.11-2.1.52-3.99,2.16-4.27,4.89-.09.94-.2,1.89-.3,2.83-.04.37-.02.72.03,1.05-.57,5.63-1.71,10.95-1.04,16.82.36,3.2.71,6.44,1.46,9.58.83,3.49,2.61,6.55,3.62,9.96,1.71,5.73,8.73,4.42,10.16-.45.92-.59,1.71-1.47,2.2-2.69.61-1.51,1.29-3,1.99-4.46.66-.41,1.28-.98,1.78-1.78,3.35-5.3,6.61-10.69,9.48-16.26.93-1.79,1.4-3.28,1.52-4.63.69-.72,1.18-1.62,1.45-2.58.46-1.67.62-3.47.83-5.18.14-1.13-.27-2.18-.96-3.06-.05-.96-.15-1.91-.31-2.86,2.09,3.44,4.17,6.9,6.52,10.15,5.6,7.76,13.83,12.76,19.75,20.1,2.8,3.46,9.42.68,9.01-3.73-.51-5.35-.64-11.69.76-16.92,1.05-3.92,1.32-7.28,1.2-11.01,1.55-1.13,2.55-3.03,2.06-5.44h-.03Z"/>
      <path class="uuid-14441eca-9f0b-40d9-ae7b-48edcd006979" d="M326.63,174.82c9.01-1.58,17.86-4.01,26.41-7.24,2.33-.89,4.97-2.18,5.45-4.63"/>
      <path class="uuid-14441eca-9f0b-40d9-ae7b-48edcd006979" d="M320.55,188.37c14.9-3.32,35.68-7.74,50.59-11.06,2.4-.54,7.94-2.35,10-3.72"/>
      <path class="uuid-14441eca-9f0b-40d9-ae7b-48edcd006979" d="M330.94,194.57c24.09-1.99,48.06-5.41,71.75-10.21"/>
      <path class="uuid-14441eca-9f0b-40d9-ae7b-48edcd006979" d="M340.69,205.52c26.25-.81,52.81-2.58,78.14-10.06"/>
      <path class="uuid-14441eca-9f0b-40d9-ae7b-48edcd006979" d="M362.82,215.39c14.75-.3,29.49-1.05,44.2-2.29,9.6-.8,19.25-1.82,28.43-4.74"/>
      <path class="uuid-14441eca-9f0b-40d9-ae7b-48edcd006979" d="M383.6,232l64.88-5.81"/>
      <path class="uuid-14441eca-9f0b-40d9-ae7b-48edcd006979" d="M394.44,245.69c19.97-1,39.98-1.09,59.92-2.5"/>
      <path class="uuid-14441eca-9f0b-40d9-ae7b-48edcd006979" d="M403.05,263.44c16.15-.07,32.56-1.46,48.37-4.83"/>
      <path class="uuid-14441eca-9f0b-40d9-ae7b-48edcd006979" d="M409.78,276.52c7.28-.78,14.57-1.56,21.84-2.33"/>
      <path class="uuid-14441eca-9f0b-40d9-ae7b-48edcd006979" d="M411.6,283.5c3.35.01,6.72-.2,10.04-.63"/>
      <path class="uuid-14441eca-9f0b-40d9-ae7b-48edcd006979" d="M240.26,259.6c10.06,6.47,29.17,13.7,40.61,16.89-.52,0-6.14-1.84-6.66-1.87"/>
      <path class="uuid-14441eca-9f0b-40d9-ae7b-48edcd006979" d="M230.94,262.33c3.36,4.28,7.95,7.57,12.13,10.99,4.73,3.86,9.46,7.71,14.27,11.46,8.75,6.81,20.8,16.26,31.61,19.48-1.39-.26-5.66-2.48-7.05-2.75"/>
      <path class="uuid-14441eca-9f0b-40d9-ae7b-48edcd006979" d="M224,265.4c14.88,26.77,38.09,49.98,67.82,58.02"/>
      <path class="uuid-14441eca-9f0b-40d9-ae7b-48edcd006979" d="M227.15,293.69c18.07,18.52,37.05,37.51,62.25,46.64"/>
      <path class="uuid-14441eca-9f0b-40d9-ae7b-48edcd006979" d="M224.79,314.25c15.19,12.79,31.16,25.05,49.36,33.27"/>
      <path class="uuid-14441eca-9f0b-40d9-ae7b-48edcd006979" d="M214.07,323.46c7.94,10.91,19.55,18.29,31.15,24.81"/>
      <path class="uuid-14441eca-9f0b-40d9-ae7b-48edcd006979" d="M214.32,336.33c2.42,5.42,6.63,8.59,10.17,12.83"/>
      <path class="uuid-14441eca-9f0b-40d9-ae7b-48edcd006979" d="M207.49,302.34c-5.97-11.1-10.66-22.88-13.94-35.04"/>
      <path class="uuid-14441eca-9f0b-40d9-ae7b-48edcd006979" d="M199.5,325.38c-2.11-2.06-3.26-4.88-4.32-7.63-6.27-16.08-12.24-36.04-13.21-53.28"/>
      <path class="uuid-14441eca-9f0b-40d9-ae7b-48edcd006979" d="M192.47,332.61c-9.67-21.69-17.06-45.37-20.33-68.92"/>
      <path class="uuid-14441eca-9f0b-40d9-ae7b-48edcd006979" d="M185.91,338.5c-11.14-19.45-19.21-41.69-20.9-64.15-.34-4.43-.77-9.1-.11-13.52"/>
      <path class="uuid-14441eca-9f0b-40d9-ae7b-48edcd006979" d="M174.01,338.76c-11.54-20-19.96-41.78-24.87-64.33.41,1.5.81,3,1.22,4.48"/>
      <path class="uuid-14441eca-9f0b-40d9-ae7b-48edcd006979" d="M164.12,335.22c-10.67-12.46-24.31-28.6-26.26-45.13"/>
      <path class="uuid-14441eca-9f0b-40d9-ae7b-48edcd006979" d="M145.93,329.64c-7.78-10.74-14.03-22.59-18.48-35.08.33,1.03.65,2.08.98,3.11"/>
      <path class="uuid-14441eca-9f0b-40d9-ae7b-48edcd006979" d="M129.49,319.88c-4.98-5.95-7.67-13.41-9.67-20.8"/>
      <path class="uuid-14441eca-9f0b-40d9-ae7b-48edcd006979" d="M139.5,250.43c-8.1,7.26-13.84,17.09-16.19,27.72"/>
      <path class="uuid-14441eca-9f0b-40d9-ae7b-48edcd006979" d="M130.75,249.8c-10.47,11.17-21.42,22.29-27.68,36.52"/>
      <path class="uuid-14441eca-9f0b-40d9-ae7b-48edcd006979" d="M128.77,245.05c-10.02,10.13-26.89,26.02-32.35,39.58"/>
      <path class="uuid-14441eca-9f0b-40d9-ae7b-48edcd006979" d="M113.14,243.99c-8.33,10.83-18.59,25.22-24.4,37.66"/>
      <path class="uuid-14441eca-9f0b-40d9-ae7b-48edcd006979" d="M102.16,245.62c-5.43,5.93-10.05,12.6-13.68,19.79-2.26,4.48-4.17,9.36-3.82,14.37.02.3.12.66.41.71s.2-.61,0-.4"/>
      <path class="uuid-14441eca-9f0b-40d9-ae7b-48edcd006979" d="M77.08,263.69c5.07-5.21,8.44-10.54,14.65-14.31-.76-.16-1.47-.6-1.94-1.21"/>
      <g>
        <path class="uuid-f5400570-2cc2-44d3-99c9-060dcb4beb4d" d="M.05,497.28c1,.41,1.1,1.28,1.1,2.18-.54-.04-1.33.3-1.11-.82.08-.44.01-.91.01-1.36Z"/>
        <path class="uuid-9439f592-e130-42de-9bf8-07f0a266b3a5" d="M387.29,117.1c-3.38.34-8.44-1.54-11.86.3,5.63,4.62,17.78,2.61,24.6,2.06,1.21-.09,7.15.64,5.03-2.12-1.45-1.88-11.49.03-13.72.18-1.09-6.48,6.96-6.63,11.78-5.61,6.62,1.4,12.08,6.91,14.72,12.98,5.21,11.92,1.79,28.86-7.85,37.68-17.84-10.8-36.47-19.69-57.44-22.76-6.52-20.07,19.52-42.56,35.14-23.37-.13.22-.25.45-.39.68h-.01Z"/>
        <path class="uuid-4dc58db4-9e87-4a34-b7a2-771f51a2e572" d="M394.83,306.65c7.51-21.39-9.25-47.55-23.53-62.22-16.23-16.67-39.55-31.14-63.78-28.37-2.92.34-10.29,7.57-12.79,5.55-3.24-2.62-1.77-14.66.27-16.38,9.19-7.71,28.73-3.15,39.15-.07,22.09,6.51,42.51,21.8,56.61,39.85,7.98,10.23,14.23,21.97,17.11,34.69,1.8,7.97,2.57,33.52-13.05,26.96h.01Z"/>
        <path class="uuid-f04d585c-dfd0-47d5-8a9d-254b700980eb" d="M453.42,199.49c9.51-3.59,11.08-6.18,10.8-17.73,6.43.85,10.96-1.6,17.21-2.07,5.72-1.08,10.18-2.26,15.51-3.64,19.95,11.86,14.33,37.92-1.53,50.46-6.04,4.78-20.38,10.04-25.24,1.56-2.69-4.69-4.23-10.03-7.1-14.74-2.93-4.82-6.33-9.31-9.67-13.85h.02Z"/>
        <path class="uuid-25a7a17a-e99a-49f4-90c5-860e7f334555" d="M300.44,348.56c-4.42,3.48-15.51,1.73-13-3.31,7.67-15.38,6.4-43.1,2-57.87-2.86-9.59-6.91-18.67-13.43-26.34-5.99-7.05-12.77-7.64-20.44-10.04-2.76-.86-5.65-2.15-1.42-8.04,5.74-8,22.09-.56,27.78,4.81,9.71,9.16,17.4,21.1,21.44,33.64,4.37,13.54,7.25,29.37,6.11,43.63-.45,5.71-3.24,18.98-9.04,23.54v-.02Z"/>
        <path class="uuid-cc2b6ed3-ea4e-4126-8c7a-9e7139644500" d="M176.69,340.05c16.59,4.39,28.05-21.16,31.64-33.11,2.38-7.92,4.08-15.35,3.28-23.62-.91-9.43-4.62-15.67-12.4-20.68,1.09-6.34,12.85-6.51,17.12-4.06,4.63,2.66,7.17,7.87,8.73,12.76,3.97,12.49,1.95,27.67-1.45,40.12-3.2,11.69-9.64,25.74-18.89,33.9-4.45,3.92-10.41,7.29-16.5,7.12-8.7-.57-14.3-6.49-11.53-12.44h-.01Z"/>
        <path class="uuid-b546c5e2-55a9-494b-9958-cb31d2b6f51d" d="M89.44,286.1c6.54,1.93,12.3,2.83,19.1.62,5.65-1.85,10.74-5.14,15.48-8.73,10.57-8.02,13.78-18.36,14.02-30.47,9.96-6.72,17.97,6.54,14.02,17.39-2.36,9.4-10.17,18.06-17.45,24.07-7.32,6.04-17.33,11.69-26.74,13.52-12.78,2.1-23.89-5.65-18.42-16.4h-.02Z"/>
        <path class="uuid-280b92ea-8aa2-4596-877a-566618005db9" d="M332.07,124.67c3.33,1.93,14.52,2.24,17.03-1.85,1.04-1.7,1.13-1.87-.9-2-3.17-.21-6.74,3.2-10.21,3.03,2.67-4.4,8.24-9.38,13.75-7.1,1.9,1.26,3-1.14,1.95,5.53-.19,1.22-1.58,4.08-2.3,8.03-.99,5.18-.72,8.75-1.89,9.08-.78.21-3.63-.39-3.78-.4-2.2-.22-4.2-.18-6.74.06-3.22.31-2.72-.12-5.51.31-3.16.49-5.91,5.02-8.03,2.83-3.48-3.62-8.73-7.61-13.08-5.45-.07.03-.12.06-.15.04-.35-.21-1.7-11.81,4.3-16.45,2.39-1.85,8.25-2.46,12.28-1.65,1.9.38,6.32,4.05,7.15,4.8-.98.44-2.64.64-3.91,1.21h.01Z"/>
        <path class="uuid-1b4327a3-e4ad-49ad-b553-1c3077bbe05c" d="M66.73,223.54c4.67,12.2,19.97,12.75,30.94,8.82,3.06-1.1,5.73-3.04,8.28-5.08,1.71-1.37,4.11-5.33,5.88-6.11,5.4-2.38,8.07,9.11,6.6,12.32-5.18,11.35-28.54,14.58-39.14,13.84-6.13-.42-13.69-3.39-17.18-8.98-2.55-4.1-1.3-13.52,4.64-14.81h-.01Z"/>
        <path class="uuid-c2a4a200-d1db-4358-bc8e-d29c476e1978" d="M433.76,154.53c-13.77-.09-13.02-21.96.76-21.52,13.82.45,13.01,21.62-.76,21.52Z"/>
        <path class="uuid-e8de9ef6-cadd-4873-b4f2-966f658b40e6" d="M296.04,164.66c13.86-.14,14.35,21.26.37,21.39-13.65.13-14.07-21.26-.37-21.39h0Z"/>
        <path class="uuid-98927749-a8c3-41bb-ade6-31af1299a720" d="M276.98,169.71c-13.65.11-14.06-21.22-.25-21.34,13.62-.12,14.05,21.23.25,21.34Z"/>
        <path class="uuid-48f17078-ec30-45d1-9cee-15e2e6b24c7c" d="M283.8,171.35c-1.15,4.96.04,9.18,3.1,12.72-3.3,9.65-16.4,11.37-20.74,1.37-1.75-4.04-1.28-10.46,2.59-13.31,2.56-1.89,2.5-.93,5.65-.49,3.25.45,6.17-.3,9.39-.3h0Z"/>
        <path class="uuid-ad58f3db-68ad-47b7-888b-7fb2c9fd49a1" d="M447.23,154.22c13.41,0,13.95,20.23,1,21.22-14.14,1.08-15.36-21.22-1-21.22h0Z"/>
        <path class="uuid-42ca2c5a-8419-425b-b99b-270fe2ed757f" d="M469.64,180.12c-13.1.13-13.94-19.69-1.17-21.12,14.19-1.58,15.62,20.98,1.17,21.12Z"/>
        <path class="uuid-6d675e6f-6396-417e-9b8f-f3e91182f42c" d="M446.85,151.74c0-6.16-.37-12.43,6.18-15.28,5.59-2.44,12.29.12,14.55,5.84,1.98,5.04-.49,11.81-5.69,13.94-5.22,2.14-9.33-4.19-15.04-4.51h0Z"/>
        <path class="uuid-2f238484-d79a-4b91-96cd-bdc08f35d5b5" d="M309.95,153.9c.8,12.47-21.75,12.74-21.38-.83.38-13.75,21.39-12.95,21.38.83Z"/>
        <path class="uuid-27556242-74b7-4644-8a73-907b1f28001d" d="M281.4,194.06c1.15,5.5,5.52,10.92.73,15.62-4.3,4.23-11.29,3.91-15.22-.59-3.24-3.7-4.03-10.98-.27-14.75,2.54-2.54,2.77-.97,6.04-.17,3.11.77,5.63-.12,8.71-.12h.01Z"/>
        <path class="uuid-6b7280a8-98a4-481e-a0c7-f85122a5f6de" d="M422.39,149.55c3.26,5.16,7.57,7.94,13.71,8.23-1.51,4.28-2.49,8.5,0,12.94-3.27,1.02-5.72,2.12-8.6,3.97-4.87-3.52-9.79-7.07-14.96-10.81,5.35-4.78,7.47-7.49,9.85-14.32h-.01Z"/>
        <path class="uuid-f5289d4c-61c3-4082-802d-89c2f2e254e1" d="M462.16,187.18c-.2,4.45-4.55,10.74-9.73,9.9-3.25-.52-10.75-8.56-10.99-11.66-.94-11.74,21.29-11.52,20.72,1.75h0Z"/>
        <path class="uuid-13ee1d82-4d87-4e7a-bf21-f06704eae968" d="M483.3,170.35c-1.51-5.06-4.07-12.52,1.07-16.55,3.65-2.87,9.52-2.01,12.83.92,3.59,3.19,4.55,8.34,2.09,12.47-3.76,6.29-9.95,3.17-15.98,3.17h0Z"/>
        <path class="uuid-095cba6c-e700-42fb-8402-ce7b5280cab5" d="M73.97,178.67c5.28,5.51,14.75,8.68,21.74,11.41,2.61,1.01,9.31,2.48,10.76,4.75,1.82,2.85-2.16,7.69-5.02,8.36-5.8,1.36-18.11-6.56-23.19-8.92-7.98-3.26-13.88-11.17-4.29-15.6h.01Z"/>
        <path class="uuid-c6fd024b-cb5d-46fa-b9cb-bf16c2e8f09b" d="M289.86,186.45c5.76,3.21,12.08-1.09,14.99,6.19,2.95,7.39-2.97,7.16-7.79,10.65-2.61,1.89-2.76,3.16-5.86,2.45-1.91-.44-4.28-2.8-5.3-4.38-3.67-5.73-.13-10.81,3.98-14.91h-.01Z"/>
        <path class="uuid-20a39512-c94c-4c44-ae1e-5e5c1d076c58" d="M317.98,158.46c1.05,3.65,3.1,6.79,7.83,7.54-.76,3.33-1.97,10.05-5.18,11.9-3.2,1.84-8.54-.12-10.69-2.76-2.04-2.52-3.03-8.29-1.93-11.31,1.75-4.81,5.45-5.37,9.97-5.37h0Z"/>
        <path class="uuid-fd487143-39d8-4220-8eed-64e14b95ef07" d="M477.53,159c-1.34-5.24-4.5-6.76-9.2-7.79,0-3.88-.63-9.21,2.59-11.87,2.51-2.07,7.32-3.6,10.38-2.75,3.97,1.09,11.69,8.46,9.17,13.21-2.31.56-9.49,3.39-12.94,9.21Z"/>
        <path class="uuid-bad61c2a-850e-402d-b39c-b6a2548d7128" d="M310.03,178.23c3.17,2.33,6.61,2.49,10.35,2.27-1.5,4.11-6.43,19.28-11.79,17.93-.81-.99-2.3-8.53-2.26-10.21.09-3.34,2.44-6.96,3.69-9.99h.01Z"/>
        <path class="uuid-cea839e1-5e55-46b4-aabc-54615a62226e" d="M290.81,209.42c-.39,5.7.11,8.75,2.18,14.13-1.91,1.56-4.19,3.43-6.39,5.24-8.1-4.31-6.53-22.46,4.21-19.37h0Z"/>
        <path class="uuid-d92dfcba-bb78-4a25-81dd-c4428c094a52" d="M442.72,177.26c-1.33,2.38-2.55,4.59-3.93,7.08-2.99-2.53-5.99-5.09-9.22-7.84,4.88-5.11,8.46-2.67,13.15.76Z"/>
        <path class="uuid-9f1a2f12-258d-438e-8e0d-3e313dca3217" d="M323.81,142.92c-2.17,2.82-2.64,3.45-4.12,6.48-.91,1.84-4.6,3.48-8.5-.76-3.86-4.22-1.15-9.3,2.17-11.62,4.42-3.09,11.98,3.49,10.45,5.91Z"/>
        <path class="uuid-79a24c66-e697-4774-baa5-4fff8fd8c876" d="M119.74,156.18c-1.76,2.09-4.31,4.48-5.99,6.47-2.73-3.43-7.31-8.55-10.28-11.78,5.15.09,12.29,2.14,16.28,5.32Z"/>
        <path class="uuid-55b41e9a-0a60-4009-84e5-729c627d5182" d="M475.41,159.3c-4.06-1.36-9.63-.62-11.77-1.7,6.3-10.79,11.8-7.74,14.38-1,2.22,5.79-.96,3.25-2.62,2.69h.01Z"/>
        <path class="uuid-f9ecf1d8-65b5-4a8c-9273-868a49e640c5" d="M494.48,174.96c-3.55,3.12-14.37,5.39-17.49,3.82,1.56-6.95,14.63-10.63,17.49-3.82Z"/>
        <path class="uuid-d2d3a19b-ac67-44d0-815d-541dbf24db06" d="M288.56,166.01c-.24-1.12-.42-5.15.55-5.19.16,0,3.21,2.57,3.19,2.59-.35.4-3.22,2.08-3.74,2.59h.01Z"/>
        <path class="uuid-b7ba8882-e747-4d27-ae13-a3865a51ae5a" d="M469.83,239.44c-.03-.54-.14-1.03-.28-1.5-.18-1.01-.43-2.01-.84-3.05-.04-.11-.08-.19-.13-.3-.16-.68-.31-1.34-.46-2.01-.16-.78-.34-1.55-.54-2.33-.37-1.42-1.13-2.4-2.07-3.01-.06-.24-.15-.47-.21-.71,0-.21-.02-.43-.05-.65,0-.56-.12-1.15-.34-1.79-1.63-4.61-3.71-8.84-6.54-12.84-.49-.68-1.03-1.2-1.65-1.57-.25-.37-.51-.75-.76-1.12-1-1.97-2.13-3.84-3.46-5.67-.59-.81-1.28-1.4-2-1.8-.35-.53-.69-1.04-1.03-1.57-.59-.91-1.32-1.53-2.1-1.94-.23-.52-.55-.96-.93-1.32-.36-.83-.74-1.66-1.16-2.48-.81-1.57-2.38-2.34-4.03-2.46-.19-.31-.4-.61-.65-.92h0c-.41-.88-.94-1.51-1.53-1.95-.66-2.36-2.39-3.5-4.25-3.68-1.43-1.35-2.92-2.64-4.46-3.87-.35-.37-.72-.73-1.12-1.08-.11-.09-.21-.17-.32-.25-.7-.64-1.43-1.27-2.25-1.88-.53-.4-1.07-.65-1.58-.8-.15-.11-.3-.21-.44-.33-.57-.57-1.16-1.12-1.79-1.65-.53-.43-1.13-.75-1.75-.97-.62-.57-1.31-1.09-2.04-1.58-.63-.64-1.36-1.2-2.15-1.72-.24-.2-.49-.4-.73-.6-1.23-1.45-2.7-2.68-4.44-3.78-.18-.12-.38-.2-.57-.28-3.61-2.82-7.38-5.38-11.88-7.14-10.39-4.07-19.9-9.64-30.65-13-8.79-2.74-18.69-6.23-27.79-3.84-2.23,0-4.48.41-7,.69-4.63.51-8.48,3.6-11.01,7.39-2.4,3.6-3.91,9.09.65,11.78,3.54,2.09,8.05-.61,11.09-3.01.71-.04,1.42-.16,2.11-.33.62-.15,1.22-.31,1.79-.39.33.26.69.5,1.07.68,1.55,1.11,3.44.97,5.01.08.14.03.27.05.41.08,1.21.25,3.26.38,4.23,1.05,1.6,1.12,3.19,1.16,4.49.56.56.17,1.12.32,1.68.5.83.75,1.97,1.22,3.43,1.21h.22c.61.21,1.23.4,1.85.63,1.11.4,2.11.42,2.96.18,2.32.73,4.54,1.81,6.79,2.82,4.02,1.77,8.06,3.5,12.06,5.32h0c.26.47.63.91,1.13,1.31.89.7,1.76,1.26,2.66,1.73.24.2.51.41.83.64,2.22,1.62,5.05,1.62,7.25,3.11,1.23.83,2.45,1.04,3.53.83.39,1.5,1.55,2.72,3.66,3.04,1.19.18,2.37.36,3.57.54.22.88.75,1.73,1.69,2.49,4.45,3.6,8.42,7.59,11.98,12.06,1.57,1.97,3.86,2.04,5.74,1.08.49.4.98.8,1.47,1.2.03.06.05.12.08.18.46.92,1.07,1.57,1.74,2,.16.22.31.45.46.68.37.51.8.92,1.28,1.26.23.28.45.57.7.85.25.3.52.56.78.77.04.05.08.12.13.17.57.77,1.05,1.57,1.48,2.44.5.92,1.11,1.58,1.78,2.01.08.11.17.2.25.31.66.91,1.33,1.8,1.99,2.71.43.59.93,1.04,1.46,1.39,1.48,2.1,2.95,4.2,4.43,6.3.65.93,1.45,1.56,2.29,1.95.09.19.18.37.27.56.06.18.13.36.2.54.62,1.45,1.24,2.89,1.86,4.34.51,1.17,1.32,1.9,2.29,2.29.66,1.07,1.35,2.1,2.08,3.12-.04.57-.01,1.16.16,1.79.7,2.64,1.71,5.05,3.08,7.42.16.26.33.5.51.72.58,3.05.39,5.89-.59,9.1-1.81,5.96,6.55,8.79,9.5,4.25,1.4-.43,2.63-1.56,3.2-3.58.37-1.3.64-2.58.89-3.88.14-.24.25-.51.36-.79.86-.84,1.39-2.08,1.3-3.73s-.19-3.31-.28-4.97v-.03Z"/>
        <path class="uuid-f5400570-2cc2-44d3-99c9-060dcb4beb4d" d="M446.42,136.65c-.35.14-.7.28-1.04.42-.36-.54-.11-.86.77-.97.09.18.18.37.27.55h0Z"/>
        <path class="uuid-bbd69165-58e6-4f70-a092-23f8ab1a9e06" d="M305.03,183.53c.81.31-.34,5.05-.9,5.76-1.88-.25-.91-4.99.9-5.76Z"/>
      </g>
      <path class="uuid-844c0f6c-7f7e-4605-9070-aa763aa124fb" d="M497.18,172.47c-.35-.05-.11-.82,1.04-1.34,0,0,3.23-3.33,3.55-4.46,1.18-4.11,2.52-7.83-2.05-13.29-.09-.12-.22-.2-.34-.3-1.7-1.41-5.38-3.42-7.7-3.51,0,0,1.85-4.62-2.35-9.03-1.89-1.98-4.29-3.39-8.03-4.43-3.66-1.02-7.74.58-8.89,1.73-2.94,2.94-4.58,1.04-7.54-1.73-1.3-.66-3.16-1.61-4.86-2.01-.57-.14-1.52-.17-1.62-.22-.72-.34,6.19-12.17,7.67-18.4,1.36-5.73,3.07-18.54-.02-30.24-1.4-5.31-3.32-10.48-5.54-15.51-1.07-2.43-2.16-6.33-4-8.29-2.43-2.59-1.66-1.74-3.97.28-3.19,2.8-6.03,9.27-9,12.53-2.33,2.56-4.68,5.12-6.82,7.84-5.01,6.36-10.76,12.29-15.45,18.98-2.8,3.99-4.34,9.73-7.34,13.31-3.26-3.11-7.42-4.31-11.73-5.26,3.01-8.13,5-15.63,3.87-24.4-.53-4.08-1.59-8.05-2.91-11.94-1.18-3.48-2.53-10.34-5.08-13.02-2.73-2.86-3.36-.51-5.34,2.49-2.58,3.93-5.04,7.94-7.67,11.85-2.55,3.82-5.26,7.53-7.81,11.36-1.92,2.91-3.71,7.91-6.46,10.06-9.73-11.77-27.08-12.1-36.15-8.96,1.94,4.21,5.32,8.09,7.57,12.23,2.59,4.76,4.86,9.68,7.68,14.32.42.7,1.2,1.69,1.94,2.75-3.87-1.45-8.77-.54-14.24,3.63-.84-5.42-2.72-9.75-7.33-12.62l-4.39.59c.13.2.22.42.33.64.11.11.19.21.28.32,1.4.25,4.49,1.12,6.67,4.12,1.34,1.85,2.04,4.21,1.9,6.91,0,0-.51.15-.97.09-2.76-1.55-5.64-2.87-8.54-3.38-.11.08-3.08-1.15-10.09,2.65-6.04,3.27-6.98,12.37-4.82,19.03-1.27.56-3.01,6.18-5.17,5.12-3.17-1.57-9.75-1.67-12.04-.47-5.14,2.67-6.27,5.72-7.01,7.73-5.71-4.64-13.56-5.73-19.04.03-5.43,5.72-3.07,13.08.99,18.84-6.81,6.55-7.29,13.78-1.86,21.48-9.77,10.9-2.11,27.38,12.85,23.81-1.74,6.73.86,10.77,3.96,16.53-3.66,2.23-7.54,5.83-11.93,5.67-4.37-.16-7.53-2.5-12.17-1.36-9.43,2.32-9.77,9.47-11.53,17.14-3.38,3.11-11.77,4.19-16.2,5.2-5.6,1.29-8.04,2.31-12.55-.89-7.93-5.62-20.99-4.78-23.13,6.58-11.88-.75-24.01-1.58-35.41-5.33-7.76-2.55-6.85-12.74-16.24-14.41-4.01-.71-7.49,1.87-11.05.77-2.97-.92-10.33-7.34-10.95-10.42-.95-4.67,1.4-8.08-2.15-12.31-2.8-3.32-6.66-4.08-10.79-4.08-1.8-5.51-4.18-9.13-1.48-14.1,1.86-3.43,3.88-6.31,1.54-10.26-1.28-2.16-3.46-2.82-4.1-5.23-.59-2.18,1.35-6.35,2.08-8.39,1.4-3.94,3.08-7.91,5.92-10.84,2.83-2.92,6.15-6,8.79-9.61,3.44-4.69.21-6.91-4.59-9.25-4.36-2.13-23.1-5.59-18.68,3.93-8.72,5.77-15.28,13.54-20.14,22.79-8.88-1.42-15.73,5.79-11.29,14.64,1.43,2.85,2.46,2.59,2.49,5.86.02,2.26-1.18,5.47-1.53,7.73-.79,5.19-.82,10.38-1.26,15.6-12.82,6.17-10.9,18.3-.88,26.29,5.46,4.36,6.85,13.28,9.96,19.6,3.16,6.41,7.1,12.31,11.03,18.27-2.38,8.55-.94,16.13,8,20.09,3.91,1.74,7.69.66,11.56,1.75,4.04,1.14,8.17,5.57,11.66,7.89,16.99,11.3,35.4,18.86,54.51,25.74,0,10.38,7.06,16.83,17.66,15.97,5.18-.42,9.61-2.7,13.84-5.51,4.97-3.3,7.88-2.12,13.84-1.51,11.4,1.16,22.92,1.29,34.37,1,5.66-.14,11.31-.49,16.94-1.04,4.64-.46,10.08-2.36,14.09.18,3.7,2.35,5.14,4.43,10.08,4.28,3.89-.12,7.58-1.53,10.5-4.11,2.88-2.55,4.12-6.34,7.52-8.28,3.99-2.28,13.17-4.84,17.57-6.22,22.2-6.99,40.37-15.08,60.95-25.81,6.2,4.39,12.96,4.38,18.5-1.34,5-5.17,2.9-11.57,5.91-17.16,1.45-2.69,5.5-4.65,7.9-6.5,2.13-1.63,4.24-3.31,6.33-5-1.43,4.54-2.03,9.35-1.98,14.1.06,7.43,1.53,14.84,3.76,21.91.98,3.11,4.02,16.01,7.48,16.91,2.82.73,10.62-14.85,12.21-17.38,4.23-6.7,8.8-13.37,11.82-20.74,1.07-2.58,1.87-5.28,2.36-8,3.31,4.34,5.38,7.09,5.85,7.78,3.04,4.39,25.27,25.42,26.94,17.91,3.07-13.81,5.07-29.83,5.52-43.95.42-13.79-4.45-23.46-14.58-32.51,1.6-1.92,4.86-2.85,6.96-4.3,3.01-2.08,5.78-4.54,8.2-7.29,4.3-4.92,7.82-10.91,9.19-17.34,3-14.1-6.29-32.17-15.36-33.54l.02-.03ZM497.19,154.72c3.59,3.19,4.55,8.34,2.09,12.47-3.76,6.29-9.95,3.17-15.98,3.17-1.51-5.06-4.07-12.52,1.07-16.55,3.65-2.87,9.52-2.01,12.83.92h0ZM494.48,174.96c-5.03,1.71-13.17,2.91-16.95,4,2.66-6.68,9.67-9.61,16.95-4ZM472.96,139.68c2.51-2.07,5.84-2.38,8.89-1.54,3.97,1.09,10.43,6.92,7.9,11.67-4.27.2-8.19,1.73-10.86,6.71-1.35-5.39-5.27-5.97-9.65-5.65,1.05-4.76.5-8.52,3.72-11.18h0ZM447.23,154.22c13.41,0,13.95,20.23,1,21.22-14.14,1.08-15.36-21.22-1-21.22h0ZM433.76,154.53c-13.77-.09-13.02-21.96.76-21.52,13.82.45,13.01,21.62-.76,21.52ZM436.1,157.78c-1.51,4.28-2.49,8.5,0,12.94-3.27,1.02-5.72,2.12-8.6,3.97-4.87-3.52-9.79-7.07-14.96-10.81,5.35-4.78,7.47-7.49,9.85-14.32,3.26,5.16,7.57,7.94,13.71,8.23h-.01ZM442.72,177.26c-1.33,2.38-2.55,4.59-3.93,7.08-2.99-2.53-5.99-5.09-9.22-7.84,4.88-5.11,8.46-2.67,13.15.76ZM462.16,187.18c-.2,4.45-4.55,10.74-9.73,9.9-3.25-.52-10.75-8.56-10.99-11.66-.94-11.74,21.29-11.52,20.72,1.75h0ZM468.47,159c14.19-1.58,15.62,20.98,1.17,21.12-13.1.13-13.94-19.69-1.17-21.12h0ZM478.2,159.63c-8.34-3.47-11.46-1.49-14.55-2.03,8.88-11.66,14.93-1.97,14.55,2.03ZM467.57,142.3c1.98,5.04-.49,11.81-5.69,13.94-5.22,2.14-9.33-4.19-15.04-4.51,0-6.16-.37-12.43,6.18-15.28,5.59-2.44,12.29.13,14.55,5.84h0ZM455.94,132.57c-2.09.63-4.08,1.34-5.98,2.14-1.36.57-5.18-.11-6.99.18,2.72-5.24,15.65-16.06,19.66-16.66-.04,5.8-4.69,9.37-6.69,14.35h0ZM462.74,117.43c-.38-.97-9.65,3.46-11.24,4.82-3.39,2.88-7.1,8.77-11.38,9.93,1.22-5.81,3.06-14.49,7.07-18.95,3.96-4.4,12.14-8.99,17.57-11.27,1.54,2.9.2,12.76-2.03,15.47h.01ZM456.42,67.96c1.3,2.05,4.01,6.43,3.51,8.83-.49,2.35-4.57,5.57-6.12,7.31-.68-4.28.63-12.27,2.61-16.14h0ZM461.69,79.94c2.26,5.73,3.76,11.54,4.19,17.72-6.22,4.06-12.38,8.07-18.54,12.09l-.39-.3c3.49-10.48,3.23-23.99,14.75-29.51h0ZM451.85,68c.21.07.42.16.63.23.11,2.46.33,4.92-.44,7.32-.23.05-.45.12-.69.17-.81-1.33-1.62-2.67-2.48-4.07,1.09-1.34,2.03-2.5,2.97-3.66h0ZM447.82,73.25c2.56,3.96,4.98,7.55,2.5,12.41-3.6-3.78-6.21-8.5-2.5-12.41ZM444.02,78.36c2.14,4.66,5.61,9.69,4.88,14.87-.49,3.49-2.22,13.7-4.6,16.25-2.75-4.94-7.49-14.27-7.93-19.9-.34-4.32,4.15-8.85,7.65-11.22h0ZM417.78,112.66c2.77-9.05,10.2-15.7,16.26-22.54,6.63,11.64,12.37,27.25,3.73,39.31-2.33-2.5-2.9-6.29-4.54-9.63-1.35-2.77-8.36-17.13-8.92-18.8-1.84,2.81,10.13,24.77,11.37,29.52-2.16.38-4.07.72-6.21,1.09-1.34-2.01-3.41-1.69-5.66-.75,1.28.4,2.54.81,4.19,1.33-1.66,1.56-3.11,2.94-4.83,4.57-.94-4.19-.9-8.65-2.5-12.66-1.85-4.6-4.48-6.25-2.89-11.44h0ZM402.25,103.03c-1.86,6.4-4.79,6.24-11.02,7.59,2.62-4.39,7.32-8.17,10.82-11.85-1.85-2.89-10.22,10.01-12.78,11.43.54-3.96,1.16-9.67,3.25-13.12,2.11-3.48,7.87-7.37,11.4-9.33.46,5-.26,10.42-1.67,15.27h0ZM396.27,63.83c1.74,1.72,2.65,3.42,3.85,7.01-1.41,1.68-2.64,3.64-5,5.33.4-4.32.76-8.14,1.15-12.34ZM400.73,72.8c1.57,2.56,4.16,9.04,3.25,12.05-.75,2.47-8.52,7.78-11.04,8.72.47-3.69.55-7.79,1.49-11.38,1.01-3.84,3.74-6.35,6.31-9.39h0ZM393.51,65.19c.71,2.15.42,8.08-.99,11-2.13-4.65-3.44-7.1.99-11ZM388.64,71.92c3.79,7.48,3.91,12.02,2.68,20.26-.19.04-.37.08-.56.14-1.89-2.53-5.07-8.77-5.59-11.96-.57-3.54,1.48-5.55,3.48-8.43h-.01ZM382.93,80.25c2.74,4.04,5.69,10.07,6.84,14.84.96,4.01-.82,8.48-1.75,12.45-3.79-4.95-6.14-10.12-8.96-14.97-.2.06-.4.13-.6.2,1.35,6.21,7.17,11.03,8.12,17.19-3.07,1.53-9.89-4.42-10.98-6.98-.99,1.58-.64,4.48-3.83,3.17-3.15-8.85,6.47-19.31,11.17-25.91h-.01ZM387.69,116.37c-.13.22-.25.45-.39.68-3.71-.3-9.52-1.96-12.66.42,5.63,4.62,18.59,2.48,25.4,1.94,1.21-.09,7.15.64,5.03-2.12-1.45-1.88-11.49.03-13.72.18-1.09-6.48,6.96-6.63,11.78-5.61,6.62,1.4,12.08,6.91,14.72,12.98,5.21,11.92,1.79,28.86-7.85,37.68-17.84-10.8-36.18-20.32-57.15-23.37-.17-.62-.31-1.24-.42-1.87.17-10.24.64-11.25,4.28-17.73,7.2-10.41,21.31-15.43,30.98-3.15v-.02ZM354.2,104.39c4.93-4.73,8.47-.15,12.02,3.64-4.06.39-7.56-3.42-12.02-3.64ZM368.88,106.82c-3.08-2.34-4.89-10.95-5.11-14.78,5.32,2.72,8.32,9.28,5.11,14.78ZM365.05,103.72c-1.76-.11-7.3-5-8.43-6.54-1.78-2.43-1.84-6.54-2.43-9.49,9.09,1.13,8.98,8.46,10.85,16.03h0ZM352.4,87.07c.62,2.66,1.22,5.18,1.84,7.77-4.53-.85-7.34-3.58-8.36-8.4,2.3.22,4.34.41,6.53.62h0ZM344.54,89.08c-1.85.24-3.12-.93-5.04-1.66,3.54-1.51,4.2-1.27,5.04,1.66ZM338.35,88.51c2.7,1.12,4.94,2.18,7.64,3.72-4.37.55-6-.26-7.64-3.72ZM342.11,94.73c3.5-2.13,8.63-.79,11.69,3.27-3.97-.22-10.09,1.14-11.69-3.27ZM344.54,99.65c3.54-1.17,10.91-.65,13.32.99-2.84,1.76-8.08,2.34-11.37,3.08,4.65,1.39,12.47,1.58,16.36,5.9-1.59,1.31,1.74-1.42,0,0-1.52-1.99-10.39,2.7-11.46.13,4.29-.2,9.73,2.35,9.73,2.35.04,1.92-5.83,4.75-6.19,5.01-4.43-3.51-7.76-12.31-10.39-17.47h0ZM353.59,143.51c.07.09.15.19.22.28.3-.04.58-.07.88-.12.64-.02,1.26.11,1.82.36,4.95.94,9.81,2.31,14.54,3.99,17.68,6.32,34.61,15.81,49.62,27.03,14.74,11.02,28.84,24.26,38.37,40.15,4.53,7.54,9.16,16.62,10.21,25.46.94,7.81-3.08,21.49-13.5,16.54,4.6-15.01-6.18-31.16-15.16-42.33-9.2-11.44-20.25-21.6-32.16-30.18-11.05-7.96-42.78-24.13-62.79-25.67-8.62-1.33-10.28-1.85-16.43,2.48-2.31,1.62-5.51-.42-5.51-.42-1.42-1.01-1.99-3.3-2.04-4.9-.06-2.22.95-7.24,5.02-10.08,3.64-2.55,8.7-3.12,13.02-3.34,4.65-.24,9.29.05,13.89.75h0ZM426.42,236.33c-8.06,10.67-17.14,21.38-20.57,23.71-2.97-4.84-5.95-9.67-9.08-14.76,6.34-7.63,26.24-35.58,29.14-40.05,4.57,4.59,8.68,9.02,12.31,14.01-2.17,3.69-11.99,16.82-11.79,17.09h-.01ZM304.84,192.64c2.95,7.39-2.97,7.16-7.79,10.65-2.61,1.89-2.76,3.16-5.86,2.45-1.91-.44-4.28-2.8-5.3-4.38-3.67-5.73-.13-10.81,3.98-14.91,5.76,3.21,12.08-1.09,14.99,6.19h-.01ZM303.97,185.26c.81.31.94.82.37,1.53-.88-.25-1-.77-.37-1.53ZM296.54,186.05c-13.65.13-14.07-21.26-.37-21.39,13.86-.14,14.35,21.26.37,21.39ZM290.02,162.95c.16,0,.5.47.47.51-.35.4-.74.77-1.27,1.3-.24-1.12-.18-1.75.79-1.79h0ZM310.03,178.23c3.17,2.33,6.61,2.49,10.35,2.27-1.5,4.11-6.43,19.28-11.79,17.93-.81-.99-2.3-8.53-2.26-10.21.09-3.34,2.44-6.96,3.69-9.99h.01ZM328.48,172.92c2.87-7.55,4.46-14.29,14.36-11.41-2.19,9.46-6.52,18.83-10.82,27.5-1.16,2.34-2.88,7.91-5.23,9.35-2.14,1.3-7.04-.19-9.29-.43,2.91-8.53,7.75-16.52,10.98-24.99h.01ZM345.3,161.76c6.68.47,12.96,2.65,19.83,4.94-5.61,13.32-11.62,25.97-19.47,37.7-5.61-1.75-11-3.44-16.43-5.13,5.85-12.38,11.15-24.72,16.09-37.51h-.01ZM366.98,167.53c2.85.98,5.59,2.09,8.27,3.28.53.66,9.11,3.93,9.38,4.56.07.04.15.07.23.12-.02.07-.06.17-.09.26.03.09.07.19.09.28.06.46-3.22,6.3-3.3,6.33-5.58,10.42-16.25,27.89-19.26,31-4.83-2.65-9.5-5.22-14.51-7.97,7.05-12.38,13.35-24.86,19.2-37.87h0ZM384.49,182.45c.27-.36,2.04-4.53,2.67-5.59,5.98,2.84,15.39,8.81,17.76,11.24-.72,1.72-22.12,35.89-24.97,38.86-5.09-4.01-10.2-8.04-15.27-12.04,6.44-10.92,19.8-32.46,19.81-32.48h0ZM399.39,201.59l1.61-2.54c2.03-3.19,4.05-6.37,6.1-9.59,6.15,4.22,11.83,9.07,17.15,14.27-1.36,2.54-4.63,7.51-8.52,13.09,0,0-17.98,24.6-20.36,26.41-4.41-4.8-8.83-9.59-13.28-14.43,5.72-8.99,11.48-18.05,17.3-27.21h0ZM335.14,123.35c-.98.44-1.67.75-2.94,1.32,1.42.82,8.31,1.35,8.31,1.35,3.7-.13,7.4-1.05,8.72-3.2,1.04-1.7,1.13-1.87-.9-2-3.01-.2-6.35,2.83-9.64,3.02l-.32-.39c2.72-4.26,10.34-7.23,15.7-5.01-.57,1.01-4.11,13.01-4.35,17.8v.03c-.11.2-.74,2.84-2.36,2.68-3.19-.28-2.09-.34-5.76-.51-3.79.22-5.44-.07-8.53.62-3.05.69-4.86,1.51-7.46,3.11-3.09-4.66-7.48-7.06-13.08-6.51-2.71-14.82,11.79-22,22.61-12.31h-.01ZM313.08,138.14c2.8-1.28,11.02,2.13,10.21,5.01-2.17,2.82-2.91,4-4.4,7.02-2.89,1.24-4.39-.22-7.21-2.94-1.03-3.22-2.15-7.48,1.4-9.09h0ZM317.98,158.46c1.05,3.65,3.1,6.79,7.83,7.54-.76,3.33-1.97,10.05-5.18,11.9-3.2,1.84-8.54-.12-10.69-2.76-2.04-2.52-3.03-8.29-1.93-11.31,1.75-4.81,5.45-5.37,9.97-5.37h0ZM310.07,153.9c.8,12.47-21.75,12.74-21.38-.83.38-13.75,21.39-12.95,21.38.83ZM276.74,148.37c13.62-.12,14.05,21.23.25,21.34-13.65.11-14.06-21.22-.25-21.34ZM266.16,185.43c-1.75-4.04-1.28-10.46,2.59-13.31,2.56-1.89,2.5-.93,5.65-.49,3.25.45,6.17-.3,9.39-.3-1.15,4.96.04,9.18,3.1,12.72-3.3,9.65-16.4,11.37-20.74,1.37h0ZM266.92,209.09c-3.24-3.7-4.03-10.98-.27-14.75,2.54-2.54,2.77-.97,6.04-.17,3.11.77,5.63-.12,8.71-.12,1.15,5.5,5.52,10.92.73,15.62-4.3,4.23-11.29,3.91-15.22-.59h.01ZM290.81,209.42c-.39,5.7.11,8.75,2.18,14.13-1.91,1.56-4.19,3.43-6.39,5.24-8.1-4.31-6.53-22.46,4.21-19.37h0ZM292.96,229.54c3.79-2.99,8.71-6.69,12.64-8.41,31-21.94,105.6,64.69,83.12,84.74-6.61,2.43-29.2,14.13-36.28,17.68-2.85,1.42-44.39,16.26-42.7,13.62,12.46-19.57-6.16-87.41-31.3-97.62,4.95-3.22,9.89-6.35,14.54-10.01h-.01ZM245.52,258.4c7.09-2.63,10.5-4.26,17.97-2.25-1.52,4.77-16.2,7.1-20.34,7.93-4.09.82-16.37,4.95-17.64-.39,6.74-1.51,13.5-2.89,20-5.3h0ZM270.54,324.02c-14.45,1.38-32.83,3.13-46.93-.84,1.69-5.52,3.32-10.87,5.06-16.57,19.63-.14,39.22-2.09,58.97-6.75.43,2.8.96,5.57,1.27,8.39.27,2.43,1.8,8.98.8,11.15-2.03,4.37-14.41,4.17-19.18,4.62h0ZM288.01,334.26c-1.67,1.8-5.14,1.55-7.38,1.86-7.34,1.03-14.7,1.74-22.11,2.13-13.78.72-28.55,1.54-42.19-.83,2.11-4.01,4.08-7.76,6.2-11.81,22.36,2.4,44.63,1.89,66.78-2.04.16,2.31.4,8.84-1.31,10.69h.01ZM228.88,304.26c1.41-8.17,1.52-15.97,1.03-24.07,16.31-.84,32.31-2.86,47.98-8,5,7.79,7.53,16.33,9.29,25.57-19.12,4.6-38.35,6.54-58.3,6.5h-.01ZM229.62,277.98c-.79-3.13-1.54-6.1-2.37-9.42,10.01-1.57,19.78-2.54,29.33-6.2,3.16-1.21,7.48-4.63,10.72-3.58,3.58,1.16,7.76,8.6,9.51,11.66-15.59,4.9-31.17,6.95-47.19,7.54h0ZM118.54,155.85c-1.76,2.09-3.26,3.86-4.95,5.85-2.73-3.43-5.54-6.69-8.52-9.92,5.15.09,9.47.9,13.46,4.07h.01ZM101.19,155.17c-.74.91,10.16,8.25,9.04,9.95-2.78,4.26-3.93,7.27-5.61,10.85-1.24,2.66-1.48,4.55-3.88,9.95-.16-.46-21.05-6.31-20.52-7,1.66-2.12,6.9-9.56,10.22-12.96,2.85-2.91,5.84-6.8,10.74-10.77h.01ZM74.35,180.5c5.28,5.51,13.37,8.86,20.38,11.6,2.61,1.01,8.92,1.14,10.37,3.4,1.82,2.85-.69,5.67-3.54,6.34-5.8,1.36-16.89-5.33-21.97-7.7-5.16-2.4-14.82-9.22-5.23-13.65h0ZM71.03,225.91c-3.05-11.19,1.04-17.69,1.47-27.35.05-1.29.45-4.4,1.47-3.62,6.27,4.83,21.98,10.42,29.49,9.61-.97,3.34.53,7.45.68,8.25.44,2.3,2.13,5.53,2.17,8.04.16,9.99-26.18,17.12-35.28,5.07h.01ZM63.95,238.4c-2.55-4.1-2.86-11.5,3.08-12.77,4.67,12.2,19.81,11.86,30.77,7.91,3.06-1.1,6.34-2.53,8.89-4.59,1.71-1.37,3.45-5.41,5.21-6.19,5.4-2.38,6.87,6.74,5.41,9.95-5.18,11.35-26.69,13.86-37.29,13.12-6.13-.42-12.58-1.84-16.06-7.44h-.01ZM73.06,249.07c3.69,4.29,42.74-.11,45.76-11.24.97-3.58,9.8,9.27,15.32,12.28,3.6,1.96,2.74,10.14-4.35,20.34-4.45,6.41-29.28,19.01-39.1,12.98-8.36-12.89-12.88-20.57-17.63-34.35ZM91.24,287.52c6.54,1.93,10.55,3.06,17.35.84,5.65-1.85,11.05-4.61,15.8-8.21,10.57-8.02,16.99-17.93,14.62-31.3,9.96-6.72,12.71,10.42,11.3,16.05-2.36,9.4-9.29,17.19-16.58,23.21-7.32,6.04-16.12,11.13-25.53,12.95-7.76,1.51-22.45-2.81-16.97-13.55h.01ZM179.51,337.57c-7.32.9-23.47-8.68-30.2-11.71-12.25-5.52-27.46-12.52-37.51-21.59,31.32-10.27,46.69-35.35,43.83-44.66-.08-.28,9.33,3.04,16.51,4.08,9.16,1.33,18.17,2.55,27.03,3.66,17.64,1.74,6.75,66.98-19.66,70.22ZM204.18,344.56c-4.45,3.92-9.97,6.96-16.06,6.79-4.37-.12-12.96-3.58-10.19-9.51,16.59,4.39,28.43-22.14,32.02-34.09,2.38-7.92,3.7-16.76,2.91-25.03-.91-9.43-3.73-14.83-11.53-19.83,1.09-6.34,9.11-5.98,13.39-3.53,4.63,2.66,7.01,7.57,8.58,12.46,3.97,12.49,2.48,27.32-.93,39.78-3.2,11.69-8.92,24.81-18.18,32.98h0ZM273.52,343.72c-6.74.74-13.51,1.2-20.29,1.39-13.43.38-28.16.68-41.37-1.85,3.85-5,7.26-3.19,13.24-2.8,7.34.49,14.7.59,22.07.4,13.4-.34,26.56-2.63,39.9-3.3-1.61,6.23-8.19,5.56-13.53,6.15h-.01ZM308.11,325.21c-.7,8.7-7.34,32.48-20.73,21.32,12.28-14.76,7.14-42.3,2.18-58.92-2.86-9.59-6.91-18.67-13.43-26.34-6.21-7.31-8.29-8.15-16.39-10.7-2.07-.64-8.82,1.13-6.23-6.02,3.83-10.59,22.55-2.2,28.53,3.44,9.71,9.16,16.12,22.22,20.15,34.76,4.37,13.54,7.05,28.19,5.91,42.46h.01ZM394.95,306.89c7.51-21.39-9.25-47.55-23.52-62.22-16.23-16.67-40.01-34.72-63.87-29.67-6.44,1.36-11.6,8.22-12.56,5.15-4.05-12.91,4.36-15.49,6.92-16.51,10.83-4.27,21.94-1.33,32.36,1.75,22.09,6.51,42.51,21.8,56.61,39.85,7.98,10.23,14.23,21.97,17.11,34.69,1.8,7.97,2.57,33.52-13.05,26.96ZM408.02,261.46c1.58-4.15,8.55-9.43,11.37-12.81,2.9-3.47,5.63-7.06,8.3-10.69.2.25,2.61-3.59,2.61-3.59,3.12-4.36,6.19-8.75,9.32-13.12,1.96,2.42,7.62,8.96,7.44,12.29-.17,3.13-4.88,7.7-8.33,11,0,0-19.09,20.35-27.99,27.54-1.42-3.45-4-7.26-2.7-10.63h-.01ZM413.89,284.46c-2.33-3.68-2.89-8.74-.38-11.91,3.5-4.43,8.84-8.15,12.86-12.18,3.53-3.53,11.34-11.28,11.61-11.63.65-.65,1.78-2.93,1.78-2.93,2.9-3.28,5.8-6.56,8.8-9.76,1.84,3.53,4.56,9.73,3.66,13.94-.42,1.99-2.06,4.04-4.04,5.98,0,0-6.33,5.46-7.23,6.29-8.52,7.86-17.43,15.74-27.07,22.2h0ZM448.82,265.33c-.25,8.17-7.92,18.94-18.13,17.18l16.96-18.71c.39.52.79,1.02,1.17,1.53h0ZM430.44,286.88c5.28,4.09,10.9-7.56,15.49-8.83-1.08,4.85-1.52,9.63-5.41,12.66-3,2.32-6.92,6.05-10.56,6.95-.19-3.58-.61-6.99.47-10.77h0ZM430.27,300.62c4.01-2.65,7.91-5.23,12.15-8.04-.16,4.32-1.36,9.02-2.47,13.23-1.15,4.37-3.03,5.71-6.6,8.36-1.62-4.54-2.67-8.97-3.09-13.55h.01ZM437.11,323.55c-1.65-2.31-1.97-4.54-3.14-6.8,1.42-1.12,2.66-2.09,4.45-3.49-.46,3.67-.84,6.66-1.31,10.29ZM439.73,325.15c.36-3.16.66-5.84,1.01-8.85,3.04,3.46,3.63,3.72-1.01,8.85ZM442.1,312.23c1.48,1.46,2.7,3.04,2.76,5.25-1.65-1.38-2.66-3.09-2.76-5.25ZM446.89,314.82c-4.86-6.68-4.24-10.13-2.55-17.9,1.67,2.93,3.07,6.04,4.25,9.21,1.52,4.05.73,5.08-1.7,8.69ZM451.56,307.21c-1.85-4.08-4.27-8.32-5.44-12.65-1.11-4.09.34-8.05,1.19-12.14.26-.06.54-.13.8-.2,3.07,5.13,6.12,10.25,9.16,15.39-1.4,3.11-3.32,6.21-5.71,9.6ZM458.11,294.83c-2.07-2.83-5.78-8.5-7.42-14.71-1.24-4.74-1.54-9.69-.77-13.35,5.08,6.6,9.44,12.28,12.82,16.71-.12,3.62-2.82,9.3-4.63,11.36h0ZM465.02,279.95c-5.12-6.7-13.03-14.03-13.52-17.98,0-1.54,4.6.7,4.62.24,2.2-.17,4.19.22,6.62-.36,2.27-.03,5.14-2.23,6.49-3.58,3.85-7.15,3.02-5.09,6.09-12.79.2.49.51,1.32.61,2.38.52,5.12-2.3,8.07-5.06,14.45-3.07,7.1-5.28,16.5-4.41,16.97.92.49,2.61-9.45,5.67-15.55,2.53-5.03,3.79-9.59,4.45-12.74.06.35.15.82.23,1.37,0,0,.08.56.16,1.13.12.92.7,8.28.45,11.33-.39,4.74-3.82,11.79-9.77,18.82-.86-.96-1.76-2.24-2.64-3.69h0ZM469.72,285.94c-.16-1.97,3.14-6.28,4.07-8.03,1.86-3.47,3.72-6.93,5.58-10.39,1.18,5.23,2.28,10.48,3.44,15.73,1.47,6.6.46,9.56-2.54,15.71-3.2-3.06-10.18-8.41-10.56-13v-.02ZM482.37,300.86c.95-2.17,1.86-4.26,2.76-6.36.18.03.36.06.54.08,1.27,3.91,2.52,7.83,3.79,11.74-2.63-1.46-4.82-3.32-7.09-5.47h0ZM494.45,308.3c-1.73-1.34-3.73-6.3-4.21-10.32,1.77,1.01,3.25,1.85,5.02,2.85-.25,2.37-.53,4.84-.81,7.47h0ZM495.95,297.55c-4.75-.5-7.24-3.03-8.46-7.34.19-.09.38-.18.58-.27,2.89,2.18,5.75,4.4,8.17,7.09l-.28.53h-.01ZM496.63,293.28c-3.36-2.24-7.98-4.83-10.26-8.21-2.3-3.42-2.64-10.07-3.55-14.03.17-.06.34-.13.51-.2,3.9,3.84,8.01,7.56,11.73,11.57,3.44,3.69,2.33,5.91,1.58,10.86ZM492.84,243.73c3.58,2.2,7.52,12.41,6.46,16.38-.83.57-1.68,1.15-2.5,1.72,1.6,2.9,2.83,1.48,3,5.42.19,4.5-.84,9.43-1.22,13.93-5.15-2.89-12.31-10.2-15.71-15.07-2.91-4.18-4.48-12.86-4.1-17.95.22-.18.45-.36.68-.53,1.18,2.56,14.67,17.71,16.62,14.1-6.28-6.94-14.18-12.56-19.06-20.83.12-.19.22-.37.34-.56,3,.76,5.88,1.85,8.93,2.33,2.15.34,4.68-.12,6.58,1.05h-.01ZM489.58,240.1c-2.38.55-15.38-1.52-13.97-5.43,5.46-.35,10.01,1.31,13.97,5.43ZM495.42,226.52c-6.04,4.78-20.38,10.04-25.24,1.56-2.69-4.69-4.23-10.03-7.1-14.74-2.93-4.82-6.33-9.31-9.67-13.85,9.51-3.59,11.08-6.18,10.8-17.73,6.43.85,10.89-1.04,17.09-1.96,5.61-.83,10.05-1.42,15.64-3.74,19.95,11.86,14.33,37.92-1.53,50.46h.01Z"/>
    </g>
  </g>
</svg>