<?xml version="1.0" encoding="UTF-8"?>
<svg xmlns="http://www.w3.org/2000/svg" xmlns:xlink="http://www.w3.org/1999/xlink" viewBox="0 0 928.34 642.4">
  <defs>
    <linearGradient id="linear-gradient" x1="228.54" y1="-3.93" x2="228.54" y2="288.95" gradientTransform="translate(92.33 487.75) rotate(1.62) scale(1 -1)" gradientUnits="userSpaceOnUse">
      <stop offset="0" stop-color="#df5c8d"/>
      <stop offset="1" stop-color="#f2c220"/>
    </linearGradient>
    <linearGradient id="linear-gradient-2" x1="389.93" y1="25.77" x2="389.93" y2="324.1" gradientTransform="translate(92.33 487.75) rotate(1.62) scale(1 -1)" gradientUnits="userSpaceOnUse">
      <stop offset="0" stop-color="#5facd3"/>
      <stop offset="1" stop-color="#4fb991"/>
    </linearGradient>
    <radialGradient id="radial-gradient" cx="441.2" cy="330.99" fx="448.43" fy="298.18" r="118.68" gradientTransform="translate(10.26 -13.09) rotate(1.62)" gradientUnits="userSpaceOnUse">
      <stop offset=".06" stop-color="#b9bbbf"/>
      <stop offset=".74" stop-color="#999b9e"/>
      <stop offset=".83" stop-color="#96989b"/>
      <stop offset=".88" stop-color="#8e9092"/>
      <stop offset=".93" stop-color="#808284"/>
      <stop offset=".97" stop-color="#6c6e70"/>
      <stop offset="1" stop-color="#545657"/>
    </radialGradient>
    <radialGradient id="radial-gradient-2" cx="-199.71" cy="1240.14" fx="-199.71" fy="1240.14" r="3.84" gradientTransform="translate(697.16 -946.63) rotate(1.62)" gradientUnits="userSpaceOnUse">
      <stop offset=".03" stop-color="#6da6c2"/>
      <stop offset=".28" stop-color="#6da6c2"/>
      <stop offset=".36" stop-color="#73afcd"/>
      <stop offset=".49" stop-color="#7bbbdb"/>
      <stop offset=".66" stop-color="#7fc1e3"/>
      <stop offset=".96" stop-color="#81c4e6"/>
    </radialGradient>
    <radialGradient id="radial-gradient-3" cx="515.15" cy="349.69" fx="515.15" fy="349.69" r="87.25" gradientTransform="translate(10.26 -13.09) rotate(1.62)" gradientUnits="userSpaceOnUse">
      <stop offset="0" stop-color="#ccb483"/>
      <stop offset=".12" stop-color="#c7ae79"/>
      <stop offset=".31" stop-color="#bc9f60"/>
      <stop offset=".55" stop-color="#aa8738"/>
      <stop offset=".83" stop-color="#916600"/>
      <stop offset=".83" stop-color="#916600"/>
    </radialGradient>
    <radialGradient id="radial-gradient-4" cx="-340.53" cy="1281.71" fx="-340.53" fy="1281.71" r="14.07" gradientTransform="translate(697.16 -946.63) rotate(1.62)" xlink:href="#radial-gradient-3"/>
    <radialGradient id="radial-gradient-5" cx="-336.29" cy="1249.77" fx="-336.29" fy="1249.77" r="11.75" gradientTransform="translate(697.16 -946.63) rotate(1.62)" xlink:href="#radial-gradient-3"/>
    <radialGradient id="radial-gradient-6" cx="-79.25" cy="1198.51" fx="-79.25" fy="1198.51" r="22.72" gradientTransform="translate(697.16 -946.63) rotate(1.62)" gradientUnits="userSpaceOnUse">
      <stop offset=".38" stop-color="#7eac72"/>
      <stop offset=".77" stop-color="#8cbf7f"/>
      <stop offset=".93" stop-color="#7ba970"/>
    </radialGradient>
    <radialGradient id="radial-gradient-7" cx="14.23" cy="350.04" fx="14.23" fy="350.04" r="22.9" gradientTransform="translate(92.33 487.75) rotate(1.62) scale(1 -1)" xlink:href="#radial-gradient-6"/>
    <radialGradient id="radial-gradient-8" cx="84.49" cy="489.92" fx="84.49" fy="489.92" r="30.66" gradientTransform="translate(92.33 487.75) rotate(1.62) scale(1 -1)" xlink:href="#radial-gradient-6"/>
    <radialGradient id="radial-gradient-9" cx="-121.06" cy="1223.56" fx="-121.06" fy="1201" r="22.82" gradientTransform="translate(697.16 -946.63) rotate(1.62)" gradientUnits="userSpaceOnUse">
      <stop offset="0" stop-color="#ceb95a"/>
      <stop offset=".11" stop-color="#c9b558"/>
      <stop offset=".17" stop-color="#c5b256"/>
      <stop offset=".21" stop-color="#d2be5b"/>
      <stop offset=".28" stop-color="#e6d064"/>
      <stop offset=".36" stop-color="#f4dd6a"/>
      <stop offset=".46" stop-color="#fce46d"/>
      <stop offset=".63" stop-color="#ffe76f"/>
      <stop offset=".86" stop-color="#f4dd6a"/>
      <stop offset="1" stop-color="#ebd567"/>
      <stop offset="1" stop-color="#edd768"/>
    </radialGradient>
    <radialGradient id="radial-gradient-10" cx="-146.3" cy="1310.9" fx="-146.3" fy="1310.9" r="41.3" gradientTransform="translate(697.16 -946.63) rotate(1.62)" gradientUnits="userSpaceOnUse">
      <stop offset=".06" stop-color="#b9bbbf"/>
      <stop offset=".72" stop-color="#999b9e"/>
      <stop offset=".93" stop-color="#85878a"/>
    </radialGradient>
    <radialGradient id="radial-gradient-11" cx="-48.86" cy="1271.98" fx="-48.86" fy="1295.53" r="23.81" gradientTransform="translate(697.16 -946.63) rotate(1.62)" gradientUnits="userSpaceOnUse">
      <stop offset=".13" stop-color="#1164a2"/>
      <stop offset=".47" stop-color="#0c4c7d"/>
      <stop offset=".67" stop-color="#0a3e65"/>
      <stop offset=".99" stop-color="#0a3a5e"/>
    </radialGradient>
    <radialGradient id="radial-gradient-12" cx="-52.14" cy="501.52" fx="-52.14" fy="501.52" r="32.77" gradientTransform="translate(92.33 487.75) rotate(1.62) scale(1 -1)" xlink:href="#radial-gradient-10"/>
    <radialGradient id="radial-gradient-13" cx="-110.85" cy="508.85" fx="-110.85" fy="508.85" r="28.37" gradientTransform="translate(92.33 487.75) rotate(1.62) scale(1 -1)" xlink:href="#radial-gradient-10"/>
    <radialGradient id="radial-gradient-14" cx="-170.95" cy="486.22" fx="-170.95" fy="486.22" r="22.69" gradientTransform="translate(92.33 487.75) rotate(1.62) scale(1 -1)" xlink:href="#radial-gradient-10"/>
    <radialGradient id="radial-gradient-15" cx="-156.5" cy="1220.09" fx="-156.5" fy="1228.26" r="10.04" gradientTransform="translate(697.16 -946.63) rotate(1.62)" gradientUnits="userSpaceOnUse">
      <stop offset=".07" stop-color="#ceb95a"/>
      <stop offset=".15" stop-color="#c9b558"/>
      <stop offset=".19" stop-color="#c5b256"/>
      <stop offset=".21" stop-color="#d2be5b"/>
      <stop offset=".25" stop-color="#e6d064"/>
      <stop offset=".29" stop-color="#f4dd6a"/>
      <stop offset=".34" stop-color="#fce46d"/>
      <stop offset=".43" stop-color="#ffe76f"/>
      <stop offset=".78" stop-color="#f4dd6a"/>
      <stop offset="1" stop-color="#ebd567"/>
      <stop offset="1" stop-color="#edd768"/>
    </radialGradient>
    <radialGradient id="radial-gradient-16" cx="-193.73" cy="456.47" fx="-193.73" fy="456.47" r="16.71" gradientTransform="translate(92.33 487.75) rotate(1.62) scale(1 -1)" xlink:href="#radial-gradient-10"/>
    <radialGradient id="radial-gradient-17" cx="-84.54" cy="1228.94" fx="-84.54" fy="1228.94" r="7.82" gradientTransform="translate(697.16 -946.63) rotate(1.62)" gradientUnits="userSpaceOnUse">
      <stop offset=".06" stop-color="#7974a0"/>
      <stop offset=".18" stop-color="#7b77a4"/>
      <stop offset=".19" stop-color="#7c78a5"/>
      <stop offset=".27" stop-color="#827eac"/>
      <stop offset=".43" stop-color="#8580af"/>
      <stop offset=".79" stop-color="#8d87b9"/>
      <stop offset=".99" stop-color="#948ec2"/>
      <stop offset=".99" stop-color="#78749f"/>
    </radialGradient>
    <radialGradient id="radial-gradient-18" cx="-186.69" cy="1252.35" fx="-186.69" fy="1252.35" r="7.8" gradientTransform="translate(697.16 -946.63) rotate(1.62)" gradientUnits="userSpaceOnUse">
      <stop offset=".03" stop-color="#81c5e6"/>
      <stop offset=".25" stop-color="#82c8ea"/>
      <stop offset=".28" stop-color="#83c9eb"/>
      <stop offset=".4" stop-color="#88d0f4"/>
      <stop offset=".6" stop-color="#8dd7fc"/>
      <stop offset=".96" stop-color="#8fd9ff"/>
    </radialGradient>
    <radialGradient id="radial-gradient-19" cx="-40.7" cy="412.91" fx="-40.7" fy="412.91" r="8.17" gradientTransform="translate(92.33 487.75) rotate(1.62) scale(1 -1)" xlink:href="#radial-gradient-2"/>
    <radialGradient id="radial-gradient-20" cx="-55.13" cy="400.82" fx="-55.13" fy="400.82" r="7.77" gradientTransform="translate(92.33 487.75) rotate(1.62) scale(1 -1)" xlink:href="#radial-gradient-18"/>
    <radialGradient id="radial-gradient-21" cx="-55.13" cy="400.82" fx="-55.13" fy="400.82" r="8.14" gradientTransform="translate(92.33 487.75) rotate(1.62) scale(1 -1)" xlink:href="#radial-gradient-2"/>
    <radialGradient id="radial-gradient-22" cx="-55.72" cy="417.53" fx="-55.72" fy="417.53" r="7.95" gradientTransform="translate(92.33 487.75) rotate(1.62) scale(1 -1)" xlink:href="#radial-gradient-18"/>
    <radialGradient id="radial-gradient-23" cx="-55.7" cy="417.53" fx="-55.7" fy="417.53" r="8.33" gradientTransform="translate(92.33 487.75) rotate(1.62) scale(1 -1)" xlink:href="#radial-gradient-2"/>
    <radialGradient id="radial-gradient-24" cx="71.22" cy="405.12" fx="71.22" fy="405.12" r="7.76" gradientTransform="translate(92.33 487.75) rotate(1.62) scale(1 -1)" xlink:href="#radial-gradient-17"/>
    <radialGradient id="radial-gradient-25" cx="87.71" cy="408.59" fx="87.71" fy="408.59" r="7.72" gradientTransform="translate(92.33 487.75) rotate(1.62) scale(1 -1)" xlink:href="#radial-gradient-17"/>
    <radialGradient id="radial-gradient-26" cx="78.8" cy="391.23" fx="78.8" fy="391.23" r="7.89" gradientTransform="translate(92.33 487.75) rotate(1.62) scale(1 -1)" xlink:href="#radial-gradient-17"/>
    <radialGradient id="radial-gradient-27" cx="-38.51" cy="396.49" fx="-38.51" fy="396.49" r="7.69" gradientTransform="translate(92.33 487.75) rotate(1.62) scale(1 -1)" xlink:href="#radial-gradient-18"/>
    <radialGradient id="radial-gradient-28" cx="-38.51" cy="396.49" fx="-38.51" fy="396.49" r="8.06" gradientTransform="translate(92.33 487.75) rotate(1.62) scale(1 -1)" xlink:href="#radial-gradient-2"/>
    <radialGradient id="radial-gradient-29" cx="-57.07" cy="433.26" fx="-57.07" fy="433.26" r="7.4" gradientTransform="translate(92.33 487.75) rotate(1.62) scale(1 -1)" xlink:href="#radial-gradient-18"/>
    <radialGradient id="radial-gradient-30" cx="-57.07" cy="433.26" fx="-57.07" fy="433.26" r="7.77" gradientTransform="translate(92.33 487.75) rotate(1.62) scale(1 -1)" xlink:href="#radial-gradient-2"/>
    <radialGradient id="radial-gradient-31" cx="-91.82" cy="1242.54" fx="-91.82" fy="1242.54" r="9.03" gradientTransform="translate(697.16 -946.63) rotate(1.62)" gradientUnits="userSpaceOnUse">
      <stop offset="0" stop-color="#ffe56f"/>
      <stop offset="0" stop-color="#ffe56f"/>
      <stop offset=".63" stop-color="#ffe76f"/>
      <stop offset=".99" stop-color="#ffe770"/>
      <stop offset="1" stop-color="#c5b256"/>
      <stop offset="1" stop-color="#d2be5c"/>
      <stop offset="1" stop-color="#e0cb62"/>
      <stop offset="1" stop-color="#e8d265"/>
      <stop offset="1" stop-color="#ebd567"/>
    </radialGradient>
    <radialGradient id="radial-gradient-32" cx="74.54" cy="421.57" fx="74.54" fy="421.57" r="7.6" gradientTransform="translate(92.33 487.75) rotate(1.62) scale(1 -1)" xlink:href="#radial-gradient-17"/>
    <radialGradient id="radial-gradient-33" cx="103.57" cy="402.7" fx="103.57" fy="402.7" r="7.12" gradientTransform="translate(92.33 487.75) rotate(1.62) scale(1 -1)" xlink:href="#radial-gradient-17"/>
    <radialGradient id="radial-gradient-34" cx="-195.12" cy="424.51" fx="-195.12" fy="424.51" r="11.86" gradientTransform="translate(92.33 487.75) rotate(1.62) scale(1 -1)" xlink:href="#radial-gradient-10"/>
    <radialGradient id="radial-gradient-35" cx="-41.67" cy="428.36" fx="-41.67" fy="428.36" r="7.56" gradientTransform="translate(92.33 487.75) rotate(1.62) scale(1 -1)" xlink:href="#radial-gradient-18"/>
    <radialGradient id="radial-gradient-36" cx="-41.67" cy="428.31" fx="-41.67" fy="428.31" r="7.95" gradientTransform="translate(92.33 487.75) rotate(1.62) scale(1 -1)" xlink:href="#radial-gradient-2"/>
    <radialGradient id="radial-gradient-37" cx="-25.6" cy="407.86" fx="-25.6" fy="407.86" r="7.12" gradientTransform="translate(92.33 487.75) rotate(1.62) scale(1 -1)" xlink:href="#radial-gradient-18"/>
    <radialGradient id="radial-gradient-38" cx="-25.56" cy="407.86" fx="-25.56" fy="407.86" r="7.52" gradientTransform="translate(92.33 487.75) rotate(1.62) scale(1 -1)" xlink:href="#radial-gradient-2"/>
    <radialGradient id="radial-gradient-39" cx="95.16" cy="392.4" fx="95.16" fy="392.4" r="8.4" gradientTransform="translate(92.33 487.75) rotate(1.62) scale(1 -1)" xlink:href="#radial-gradient-17"/>
    <radialGradient id="radial-gradient-40" cx="-28.07" cy="422.56" fx="-28.07" fy="422.56" r="6.46" gradientTransform="translate(92.33 487.75) rotate(1.62) scale(1 -1)" xlink:href="#radial-gradient-18"/>
    <radialGradient id="radial-gradient-41" cx="-27.99" cy="422.45" fx="-27.99" fy="422.45" r="6.92" gradientTransform="translate(92.33 487.75) rotate(1.62) scale(1 -1)" xlink:href="#radial-gradient-2"/>
    <radialGradient id="radial-gradient-42" cx="-47.43" cy="445.22" fx="-47.43" fy="445.22" r="5.98" gradientTransform="translate(92.33 487.75) rotate(1.62) scale(1 -1)" xlink:href="#radial-gradient-18"/>
    <radialGradient id="radial-gradient-43" cx="-47.39" cy="445.25" fx="-47.39" fy="445.25" r="6.38" gradientTransform="translate(92.33 487.75) rotate(1.62) scale(1 -1)" xlink:href="#radial-gradient-2"/>
    <radialGradient id="radial-gradient-44" cx="62.94" cy="415.59" fx="62.94" fy="415.59" r="4.45" gradientTransform="translate(92.33 487.75) rotate(1.62) scale(1 -1)" xlink:href="#radial-gradient-17"/>
    <radialGradient id="radial-gradient-45" cx="-25.63" cy="389.49" fx="-25.63" fy="389.49" r="5.53" gradientTransform="translate(92.33 487.75) rotate(1.62) scale(1 -1)" xlink:href="#radial-gradient-18"/>
    <radialGradient id="radial-gradient-46" cx="-25.63" cy="389.49" fx="-25.63" fy="389.49" r="5.9" gradientTransform="translate(92.33 487.75) rotate(1.62) scale(1 -1)" xlink:href="#radial-gradient-2"/>
    <radialGradient id="radial-gradient-47" cx="-177.6" cy="399.12" fx="-177.6" fy="399.12" r="5.25" gradientTransform="translate(92.33 487.75) rotate(1.62) scale(1 -1)" xlink:href="#radial-gradient-10"/>
    <radialGradient id="radial-gradient-48" cx="88.92" cy="398.13" fx="88.92" fy="398.13" r="4.73" gradientTransform="translate(92.33 487.75) rotate(1.62) scale(1 -1)" xlink:href="#radial-gradient-17"/>
    <radialGradient id="radial-gradient-49" cx="99.69" cy="412.89" fx="99.69" fy="412.89" r="5.03" gradientTransform="translate(92.33 487.75) rotate(1.62) scale(1 -1)" xlink:href="#radial-gradient-17"/>
    <radialGradient id="radial-gradient-50" cx="-45.14" cy="404.06" fx="-45.14" fy="404.06" r="1.7" gradientTransform="translate(92.33 487.75) rotate(1.62) scale(1 -1)" xlink:href="#radial-gradient-18"/>
    <radialGradient id="radial-gradient-51" cx="239.19" cy="2884.56" fx="239.19" fy="2884.56" r="106.03" gradientTransform="translate(819.73 -726.06) rotate(27.96) scale(1 .36)" gradientUnits="userSpaceOnUse">
      <stop offset="0" stop-color="#b9bbbf"/>
      <stop offset=".32" stop-color="#828487"/>
      <stop offset=".58" stop-color="#5d5e60"/>
      <stop offset=".72" stop-color="#4f5052"/>
      <stop offset=".77" stop-color="#494a4c"/>
      <stop offset=".83" stop-color="#3a3b3c"/>
      <stop offset=".9" stop-color="#212223"/>
      <stop offset=".97" stop-color="#000"/>
    </radialGradient>
    <radialGradient id="radial-gradient-52" cx="-34.85" cy="421.11" fx="-34.85" fy="421.11" r="1.62" gradientTransform="translate(92.33 487.75) rotate(1.62) scale(1 -1)" xlink:href="#radial-gradient-18"/>
    <radialGradient id="radial-gradient-53" cx="481.1" cy="475.99" fx="481.1" fy="475.99" r="1.13" gradientTransform="translate(10.26 -13.09) rotate(1.62)" gradientUnits="userSpaceOnUse">
      <stop offset=".26" stop-color="#000"/>
      <stop offset=".42" stop-color="#040404"/>
      <stop offset=".5" stop-color="#0a0a0a"/>
      <stop offset=".95" stop-color="#000"/>
      <stop offset=".98" stop-color="#000"/>
    </radialGradient>
  </defs>
  <g id="mobile_logo" data-name="mobile logo">
    <g>
      <g id="Layer_3" data-name="Layer 3">
        <rect x="291.91" y="186.08" width="194.84" height="297.91" rx="25.21" ry="25.21" transform="translate(-79 124.12) rotate(-16.47)" fill="#fff" stroke="#000" stroke-linecap="round" stroke-miterlimit="10" stroke-width="4.45"/>
        <path d="M388.77,490.38l-26.06,7.7c-13.35,3.94-27.37-3.68-31.33-17.03l-70.14-237.35c-3.94-13.35,3.68-27.37,17.03-31.33l26.06-7.7" fill="url(#linear-gradient)" stroke="#000" stroke-linecap="round" stroke-miterlimit="10" stroke-width="4.45"/>
        <rect x="406.26" y="239.81" width="298.16" height="195.01" rx="25.21" ry="25.21" transform="translate(109.26 809.75) rotate(-77.92)" fill="#fff" stroke="#000" stroke-linecap="round" stroke-miterlimit="10" stroke-width="4.45"/>
        <path d="M479.47,472.92l-26.57-5.69c-13.61-2.91-22.29-16.31-19.38-29.93l51.8-242.01c2.91-13.61,16.31-22.29,29.93-19.38l26.57,5.69" fill="url(#linear-gradient-2)" stroke="#000" stroke-linecap="round" stroke-miterlimit="10" stroke-width="4.45"/>
      </g>
      <g id="logo">
        <g>
          <path d="M589.34,400.96c1.87-1.89,5.38-1.31,6.98.81s.85,4.98.1,7.53c-.99,3.37-2.91,6.18-6.04,5-.87-1.06.21-2.47,1.4-3.16,1.48-.85,3.4,1.44,3.3,1.41,1.19.8.53.07,2.89,2.77,1.19,1.35,1.46,3.5,3.06,4.34,1.3.67,2.87.39,4.29.03,1.52-.39,3.11-.88,4.14-2.06s1.23-3.22,0-4.19c-1.71-.27-2.63,1.91-2.9,3.61-.39,2.46-.68,4.97-.27,7.43s1.61,4.87,3.69,6.26M594.59,391.64c-.46,1.77-1.25,3.46-2.31,4.95-.32.45-.69.93-.73,1.49s.42,1.18.97,1.07M591.24,397.56c-2,1.72-3.6,3.88-4.69,6.27,1.77-2.47,3.54-4.93,5.31-7.4-.86,1.44-1.71,2.87-2.58,4.31.81-.75,1.38-1.76,1.62-2.84l.64-.29M592.07,398.8c.2-.97.4-1.95.61-2.93-.42,1.09-.66,2.25-.67,3.41M591.66,398.1l.19-.83M591.33,398.6c.54-2.31,1.26-4.58,2.14-6.78.37.39.02,1.01-.29,1.44-1.1,1.52-1.83,3.32-2.08,5.18M591.1,397.47c-1.81,2.54-3.4,5.24-4.7,8.08.56-1.87,1.65-3.6,3.12-4.89M594.34,391.09c-1.24,1.22-1.68,3.1-1.46,4.82s1.03,3.33,1.99,4.78c-.84-1.34-1.57-2.8-1.81-4.37s.03-3.27,1.02-4.52c-1.05,2.66-1.9,5.74-.66,8.31-.8-.91-.78-2.27-.62-3.47.24-1.8.73-3.57,1.45-5.24M595.65,387.32c-1.18,1.87-2.16,3.9-2.61,6.07s-.31,4.5.67,6.48c-.7-2.59-.26-5.32.18-7.97.08-.51.18-1.03.5-1.43M595.47,387.76c-2.83,3.48-3.52,8.57-1.72,12.67-.39-.26-.46-.79-.48-1.27-.1-2.54.2-5.1.91-7.54M590.99,398.75c-1.64.7-2.7,2.3-3.66,3.8-1.16,1.83-2.33,3.65-3.49,5.48.74-1.54,2.26-2.68,2.61-4.35M585.08,407.85c.86-.94,1.53-2.03,2.19-3.12.81-1.35,1.63-2.69,2.43-4.04M595.34,411.62c.33.16.22.51.33.16.75-2.46,1.11-5,.54-7.4-.21-.87-.56-1.75-1.21-2.37-1-.96-2.49-1.15-3.86-1.3-.83-.08-1.48.66-2.2,1.54,2.43-1.62,4.72-2.19,6.54-.58-.98-1.1-2.54-1.62-4.01-1.45s-2.83.98-3.77,2.13M593.3,390.29c-.2,1.4-.36,2.81-.28,4.23.14,2.32,1.9,5.4,3.3,7.27M596.87,386.86c-1.59,2.63-2.97,5.4-4.11,8.25M594.3,391.44c1.54-2.93,2.9-5.95,4.07-9.04M594.35,391.9c.75-1.19,1.49-2.39,2.21-3.61-.09.17-.17.34-.25.51.27-.41.54-.83.81-1.25-1.17,1.33-2.17,2.81-2.96,4.39,1.09-1.67,2.14-3.37,3.16-5.09-1.45,2.37-2.97,4.69-4.56,6.98,1.75-2.75,3.42-5.53,5-8.37-2.23,2.67-3.98,5.76-5.13,9.05.94-3.27,2.59-6.33,4.8-8.9-1.8,2.41-3.24,5.08-4.26,7.91,1.42-2.92,2.87-5.88,5-8.32-.46.19-.76.64-1.03,1.06-1.74,2.7-3.29,5.53-4.62,8.46,2.26-3.5,3.11-7.86,5.91-10.93-2.37,3.79-4.44,7.76-6.18,11.87,1.32-2.8,2.64-5.6,3.95-8.41l-4.1,6.65M611.53,431.18h-.5M610.67,431.04c.36.2.82.18,1.16-.05-.61.33-1.43.23-1.94-.24.46.36,1.06.56,1.65.56M612,431.29l-1.88-.53c.29.31.76.44,1.16.32M612.09,430.99l1.02-.18M594.58,390.21c.87-.78,1.73-1.57,2.59-2.35.62-.56,1.26-1.13,2.01-1.5-.89.4-1.65,1.07-2.17,1.9.71-.85,1.41-1.69,2.11-2.54-.71.37-1.29.99-1.61,1.71l1.74-2.14M583.49,409.5c.44-.39.88-.78,1.32-1.16.18-.16.36-.32.45-.54.17-.42.06-1.04.48-1.21-.82,1-1.62,2.02-2.41,3.05M582.88,409.91c1.19-.94,2.25-2.05,3.14-3.28M595.21,390.59c-2.04,3.35-1.32,8,.23,11.4M593.52,394.22c.37,2.78,1.33,5.49,2.82,7.88M452.45,256.38c-1.42-1.9-1.36-4.24.27-6.55,2.89-3.51,6.3-6.38,10.32-8.49,4.02-2.12,8.52-2.5,12.71-1.27.15.04.29.09.44.14.09.02.17.06.23.13.06.07.08.17.08.26.09,1.1-.31,2.21-.98,3.09s-1.57,1.56-2.52,2.11c-1.3.76-2.77,1.29-4.27,1.33-1.48.04-2.95-.41-4.24-1.16-2.61-1.53-4.48-4.52-3.97-7.63.2-1.26,1.02-2.28,2.05-3.02.97-.69,1.92-1.41,2.92-2.06.82-.55,1.7-1.04,2.63-1.35,1.03-.34,2.21-.41,3.23.02.86.37,1.68,1.1,1.05,2.07-.64.98-1.94,1.06-2.98,1.2-.87.12-1.76.19-2.63.16-1.73-.08-3.42-.66-4.49-2.11-.49-.67-.77-1.47-1.18-2.2-.5-.87-1.06-1.72-1.68-2.52-.82-1.06-1.81-2.09-3.16-2.44-1.88-.49-3.56.8-4.78,2.11-.8.86-1.39,1.91-2.18,2.78-.64.71-1.33,1.42-2.07,2.04-1.51,1.28-3.32,2.17-5.32,2.36M482.08,278.88c5.18-6.18,6.96-13.95,3.26-21.09-3.68-7.93-12.51-.35-18.82,1.81-3.15.69-5.53,2.19-9.01.74M482.76,275.22c.06,0,.06-.12,0-.1M482.52,276.14c2.62-3.92,4.07-8.62,4.13-13.33-.08,5.02-1.52,10-4.16,14.28-.47.77-1.11,1.59-2.02,1.66.7-1.57,1.77-2.98,3.1-4.06-1.63,1.06-3.26,2.12-4.91,3.18,2.23-.35,4.2-1.73,5.62-3.49s2.33-3.86,3.02-6.01l-1.66,4.01c1.34-3.38,2.69-7.03,1.85-10.57l-.11,4.76M483.62,272.64c-.51,2.21-2.18,4.11-4.3,4.92,1.49-.28,2.81-1.24,3.75-2.45s1.52-2.65,1.95-4.1c1.37-4.65,1.22-9.73-.42-14.3.99,2.31,1.52,4.81,1.54,7.32M484.89,258.32c.16-.76-.24-1.55-.78-2.11-1.08-1.13-2.69-1.63-4.25-1.63s-3.09.43-4.56.93M484.47,258.95c-.31-1.16-1.19-2.11-2.21-2.75s-2.17-1.01-3.33-1.38c-.45-.15-.9-.29-1.39-.31-1.47-.06-2.68,1.06-3.69,2.13M485.9,267.75c.97-1.81.62-4.05-.08-5.99-.32-.91-.72-1.81-1.33-2.57-.83-1.05-2-1.78-3.15-2.48-.69-.43-1.41-.86-2.2-1.06-1.01-.25-2.07-.09-3.08.16-1.86.46-3.65,1.22-5.26,2.25M487.93,267.85c.12-2.58-.09-5.24-1.15-7.59s-3.07-4.37-5.59-4.96c-1.13-.27-2.31-.23-3.47-.11-4.08.45-8.11,2.16-10.86,5.21,2.33-1.94,4.83-3.67,7.48-5.16.88-.5,1.95-.98,2.86-.53M485.52,267.92c-.54,2.06-1.39,4.04-2.5,5.84.28-.4.6-.78.95-1.11M477.46,276.19c1.27.61,2.77-.04,3.93-.83.79-.55,1.56-1.16,2.25-1.83.47-.47.97-1.13.72-1.74M477.69,275.53c.16.55.92.56,1.46.43,2.03-.49,3.93-1.48,5.5-2.87M477.9,275.3c.71.58,1.78.5,2.62.13s1.58-.95,2.42-1.33c.92-.42,2.03-.62,2.66-1.41M477.94,275.47c1.56.34,3.18-.28,4.54-1.14s2.54-1.95,3.95-2.72M478.12,275.37c.25.39.85.18,1.24-.06.74-.45,1.47-.91,2.21-1.37,1.43-.89,2.88-1.79,4.12-2.95M480.55,274.49c-.6.64-1.66.38-2.49.62-.75.22-1.34.84-2.09,1.11-.73.26-1.61.15-2.22.63-.26.19-.44.47-.62.75-.99,1.54-1.82,3.15-2.51,4.84M478.14,274.87c-.28.3-.77.2-1.19.2-.61,0-1.18.28-1.71.57-2.12,1.18-4.05,2.71-5.67,4.52M482.39,255.68c-1.39-1.35-3.54-1.84-5.37-1.23-.04-.19.26-.27.46-.23.84.16,1.66.45,2.39.88M481.31,255.36l-.25-.13M483.75,256.32c-.55-.99-1.6-1.62-2.68-1.94s-2.24-.32-3.37-.33c-.49,0-1.01,0-1.43.25,2.03-.54,4.15.37,6.06,1.26M462.88,260.13c1.09.56,4.13.23,4.75-1.02M460.78,261.09c1.04.18,2.1.35,3.15.21s2.09-.67,2.62-1.59M455.87,260.94c.31.17.69.2,1.05.21,2.76.09,5.54-.1,8.26-.58M463.88,261.4c-.02.23.29.34.5.27s.37-.26.57-.37c.2-.11.45-.13.67-.22.84-.32,1.23-1.54,2.13-1.53M465.55,260.85c.51.96,2.79-1.76,3.11-2.15M453.08,257.82c.82.33,1.13,1.31,1.76,1.94,1.26,1.27,3.42.82,5.05,1.54M456.17,260.13c1.18.85,3.52,1.51,4.96,1.62M451.88,250.59c-1.15,1.75-.34,1.12-.55,1.68-.42,1.16,0,2.44.47,3.59.37.92.78,1.84,1.21,2.73M456.28,246.54c.09-.18-.5.65-.7.64s-.37.13-.52.25c-.85.72-1.59,1.56-2.21,2.49M457.57,245.16c-1.77,1.34-4.05,3.07-5.31,4.94M460.81,243.67c-1.16.28-2.27.79-3.23,1.49-1.33.96-2.39,2.25-3.43,3.54M454.44,248.03c-1.46,1.84-2.3,4.17-2.37,6.52-.02.67.02,1.35.23,1.99.38,1.2,1.3,2.16,2.3,2.95,1.58,1.25,3.57,2.18,5.56,1.87M451.21,251.89c-.56,1.55-.21,3.31.56,4.77,1.48,2.81,4.53,4.73,7.7,4.84,1.37.05,2.73-.2,4.08-.46l2.67-.51M460.25,260.5c3.37.3,7.2-.86,9.98-2.74,1.63-1.1,4.41-4.15,6.59-3.5M481.82,255.96c-1.71-1.05-3.9-1.12-5.85-.63s-3.73,1.48-5.49,2.46l-5.36,3M484.86,258.07c.22-.31.18-.74,0-1.07s-.47-.59-.75-.84c-.98-.85-2-1.73-3.26-2.01-.43-.1-.86-.12-1.28-.2-.4-.08-.79-.21-1.18-.27-1.48-.22-2.93.53-4.12,1.46M475.7,255.46c-.74.88-1.95,1.14-3.07,1.43-2.1.53-4.13,1.3-6.04,2.29-.45.23-.9.49-1.26.84-.24.25-.44.53-.7.74-.46.4-1.12.56-1.72.43M454.25,259.57c1,.99,3.3,2.94,4.76,2.78,1.06-.12,4.21-.3,4.89-.6.2-.09.85-.47,1.06-.47.39.01,1.87-1.1,2.15-1.36.44-.4-2.62.85-2.43.28M460.46,260.59c1.17.6,2.51.28,3.67-.16M471.98,246.6c2.13-.77,4.07-2.05,5.62-3.7-.83,2-2.8,3.38-4.9,3.92s-4.32.38-6.45,0c-1.03-.18-2.08-.43-3.03-.86-.56-.26-1.15-.67-1.19-1.29,3.4,1.92,7.53,2.51,11.34,1.63,1.24-.28,2.47-.75,3.38-1.62.9-.85,1.43-2.22.95-3.36-.24-.56-.69-1.01-1.21-1.34-1.02-.65-2.26-.89-3.46-.96-3.8-.23-7.59.91-10.9,2.79s-6.15,4.47-8.72,7.28M462.07,235.37c-1.73,1.64-2.3,4.38-1.39,6.58M460.39,260.53c2.18,0,4.36-.47,6.34-1.37.83-.38,1.62-.82,2.41-1.27,2.44-1.38,4.88-2.76,7.33-4.14M463.2,260.3c5-.61,9.73-2.74,13.36-6.24M460.15,243.85c-.21.25-.39-.27.02-.58.06-.05-.25.08-.23.16.37,1.05,1.65,1.66,2.64,2.17-.16-.09-.62-.64-.79-.73M467.04,231.58c-1.46.39-2.71,1.74-3.88,2.46-.56.35-1.12.7-1.55,1.2s-.77,1.3-1.05,2.13M472.66,232.35c-.25-.48-.5-.96-.99-1.04-.24-.04-.47-.03-.71-.02-2.46.14-4.87.89-6.98,2.18-.57.35-1.13.73-1.5,1.28M463.15,235.09c.72.59,1.62.96,2.54,1.04.41.03.83.02,1.24-.02M466.62,236.11c1.43-.1,2.84-.39,4.18-.87.97-.34,2.01-.89,2.05-2.05.02-.6-.29-1.17-.76-1.55-.99-.8-2.29-.75-3.47-.5-2.56.53-4.94,1.87-6.71,3.79M463.07,261.18c-1.45-.17-3.42-.54-5.27-.39M461.03,260.47c1.7.05,3.97-.13,5.64-.54M455.14,247.56c-1.45,1.55-2.65,3.24-2.97,5.67M461.82,259.78c-.49.08-1,.1-1.49.09-.01-.02-.05-.02-.13-.02-.02,0-.05,0-.08,0h-.14c-1.53-.08-3.02-.52-4.36-1.27-.89-.63-1.76-1.35-2.18-2.38-.08-.17-.62,0-.57.13.08.18.16.35.26.52-.13.05-.23.13-.18.19.63.73,1.36,1.34,2.18,1.84-.16.04-.29.12-.23.16.26.18.54.33.82.48-.04.01-.1.03-.14.04-.05.03-.2.12-.06.16,1.46.46,2.98.6,4.51.45.04,0,.14-.04.22-.09.49,0,.99-.02,1.47-.1.07-.01.32-.05.33-.15,0-.1-.16-.09-.24-.07h0s0,.02,0,.02ZM442.74,235.02c-.41.04-1.23.07-1.97.03s-1.69-.49-1.21.05c.31.34,1.22.57,1.61.63.91.15,1.93-.37,2.18-.42.48-.11-.22-.33-.61-.28h0ZM487.52,259.18l-1.63-2.7c-.05-.09-.27-.06-.42,0-.03-.05-.05-.1-.09-.14-.1-.15-.66.01-.53.21.05.09.11.17.16.26.08.26.23.47.42.68.38.63.74,1.27,1.12,1.91.05.1.29.06.43-.01h0c.1.16.64,0,.53-.21h0ZM481.24,252.97c-.84-.39-2.07-.33-2.92-.04-.38.13-.71.37-1.03.62-.39.29-.91.69-1.11,1.15-.2.5.14,1.09.33.54.51-1.52,1.5-1.86,2.96-1.46.65.18,1.27.49,1.94.62,1.24.23.48-1.12-.16-1.44h0ZM474.46,245.22c-.12-.07-.32-.05-.44-.01-1.22.36-2.46.66-3.71.93-.09.02-.29.09-.26.2,0,.01.02.02.03.03h-.01s-.06.02-.1.03c-.05.02-.12.06-.15.11-.01,0-.04,0-.05.01-.09.02-.32.1-.24.23.08.12.39.06.49.04.66-.15,1.32-.27,1.99-.4.57-.12,1.14-.27,1.65-.56.15-.03.3-.07.45-.11.09-.02.32-.1.24-.23,0,0-.01,0-.02-.02.03-.02.07-.04.11-.06.09-.05.14-.13.04-.19h0ZM474.46,239.5s-.04.04-.07.04c0,0,0,.01-.02.02-.03.03-.06.05-.11.06-.02,0-.05.01-.08.02-.06.01-.13.01-.19,0-.03,0-.07,0-.1-.01-.04,0-.09-.02-.13-.03-.04,0-.07-.02-.1-.05-.02-.02-.04-.03-.04-.06,0-.02,0-.04,0-.06,0,0,0-.01.02-.02h0s.03-.04.05-.05c0,0,.02,0,.02-.01.02,0,.05-.02.07-.03.01,0,.03,0,.04-.01.01,0,.03,0,.04-.01.06-.01.13-.01.19,0,.03,0,.07,0,.1.01.06,0,.12.03.17.05.02,0,.04.02.06.03.02.02.04.03.04.06,0,.02,0,.04,0,.06h0s.02,0,.02,0ZM460.5,261.3c-.05.05-.16.08-.23.09-.1.01-.21.02-.3,0-.02,0-.04-.02-.06-.02-.14.03-.3.03-.43-.01h0c-.08,0-.16.01-.24,0-.12,0-.24-.02-.35-.09-.08-.05-.12-.14-.05-.21.11-.12.3-.14.45-.14.09,0,.17,0,.26.04.07-.04.15-.06.24-.08.16-.03.36-.03.52.05.03.02.05.04.06.06h.02s.05.04.06.07c0,0,0,.01-.02.02,0,0,0,0,.01.02.04,0,.08.02.1.05.04.05,0,.1-.03.13h0s0,.02,0,.02ZM485.51,264.57c.01-.13-.53-.01-.57.1-.35,1.01-.35,2.11-.48,3.17-.06.29-.13.59-.2.88-.02.01-.04.03-.05.05l-.11.22s0,.04.03.05c-.06.23-.12.44-.18.67,0,.04.02.07.06.08-.06.12-.13.24-.19.36-.2.37-.42.71-.66,1.04-.39.53-.8,1.03-1.23,1.53-.04.03-.08.06-.12.1-.02.01-.05.03-.07.04-.13.09-.26.17-.4.26-.32.13-.64.25-.97.35-1.04.33-2.11.6-3.18.86h-.07c-.11-.01-.19,0-.21.07-.35.09-.71.17-1.06.25-.16.03-.03.17.02.23.13.11.32.16.48.16.47.01.95-.02,1.42-.08.04.02.09.02.12.02.02,0,.04,0,.06-.01h.01c.54-.07,1.06-.17,1.59-.3,1.1-.15,2.16-.52,3.13-1.08.11-.06-.11-.2-.33-.29.79-.37,1.54-.84,2.1-1.53.15-.17-.44-.44-.64-.35.03-.04.07-.09.11-.14.24-.33.46-.68.65-1.04.2-.37.45-.8.46-1.23,0-.1-.13-.15-.28-.18.1-.35.18-.7.22-1.05.21-1.04.37-2.1.47-3.15h0v-.03s.02-.01.02-.01v-.03ZM482.81,257.45c-.62-.29-1.26-.58-1.9-.82h.06s.09,0,.13,0c.1.04.2.07.3.12.14.06.69-.11.46-.25-.09-.05-.18-.1-.28-.15.24,0,.48,0,.73-.05.04,0,.35-.13.24-.23-.47-.38-1-.55-1.55-.62.05,0,.11,0,.17,0,.09,0,.32-.06.33-.17,0-.13-.15-.12-.24-.11-.68.04-1.36.02-2.04-.05-.48-.2-1.01-.3-1.54-.22-.1.01-.53.21-.23.28.01,0,.04,0,.05,0,0,.04.02.07.09.08.32.06.65.11.97.15h.02c-.15,0-.29,0-.43-.03-.05,0-.12-.01-.17-.01-.11,0-.28.03-.37.12-.05.07-.05.15.06.16h.06c.46.01.91.07,1.36.17-.64-.06-1.29-.08-1.93-.1-.11,0-.32.03-.38.14v.03s-.02,0-.02,0c.08-.1.1-.2-.11-.24-.13-.01-.3.02-.4.1-.09.06-.09.12.03.13l-.11.08c-.47.08-.95.18-1.4.35h0s-.04.01-.07.02c-.31.12-.13.3.13.23.13-.04.28-.06.41-.1,0,0,0,.02,0,.03.01.02.03.02.05.02-.07.03-.18.08-.13.14,0,0,.02.02.04.02,0,0-.02.01-.02.02-.3.1-.59.18-.88.29.05-.08-.09-.17-.26-.23.17-.14.35-.26.53-.4.3-.24-.13-.47-.38-.29-.5.4-1.02.79-1.55,1.15-.1,0-.19,0-.24.02,0,0-.02.01-.03.02-.06-.12-.3-.19-.46-.08-.23.15-.44.31-.67.46-.07.02-.13.04-.16.08-.02.03-.05.05-.07.08-.35.25-.7.5-1.06.73,0,0,0-.02-.02-.02-.12-.03-.31.01-.4.1-.41.34-.83.65-1.28.94-.46.19-.92.4-1.39.59-.05.02-.08.05-.11.09-.16-.09-.59.06-.52.18.04.07.02.13-.02.18-.08.06-.16.11-.24.16-.15.08-.31.16-.47.24-.34.16-.71.29-1.06.4-.06.01-.18.05-.23.13-.06.04-.13.06-.2.1-.05-.02-.12-.03-.18-.02-.11-.04-.26-.03-.34.03-.15.12-.31.22-.48.31h0c-.03-.05-.18-.03-.28,0,.05-.04.12-.09.17-.14.1-.09-.09-.08-.12-.09-.12,0-.29.04-.39.12-.12.11-.25.19-.38.29-.02,0-.04.01-.06.01-.06,0-.13.03-.19.03-.04-.02-.1-.03-.16-.01-.09.01-.16.03-.25.04-.77.04-1.57.04-2.34-.09-.07,0-.16,0-.25.02-.02-.02-.04-.02-.07-.04-.15-.09-.3-.09-.47-.06-.02,0-.14.03-.23.07-.15-.06-.3-.12-.45-.18-.04-.05-.08-.11-.11-.16-.06-.12-.27-.11-.42-.05-.09-.03-.16-.06-.25-.1-.1-.04-.4-.16-.49-.04-.09.12.11.23.19.27.11.04.22.09.32.13-.01,0-.04.01-.05.02-.12-.04-.24-.06-.35-.11-.1-.04-.29-.1-.42-.06-.1-.05-.18-.09-.27-.14-.27-.2-.53-.42-.78-.63.13-.04.14-.13.02-.21-.06-.04-.12-.1-.17-.14,0,0,0-.02-.01-.03,0,0,0,0-.01,0h0s-.02-.06-.05-.09c-.02,0-.04-.02-.06-.04h0s-.05-.02-.08-.02h-.02c-.51-.42-.96-.91-1.33-1.46-.16-.29-.33-.58-.51-.87-.08-.14-.31-.17-.45-.18-.04,0-.13,0-.2.02-.39-.77-.67-1.6-.85-2.45-.03-.13-.22-.18-.42-.18-.08-.3-.14-.6-.18-.9,0-.03-.03-.05-.05-.08,0-.51.03-1.02.07-1.53,0-.05-.03-.1-.11-.14.04-.25.11-.48.18-.71.06-.13.15-.26.23-.39.09,0,.16,0,.19-.05.16.04.31.04.31-.03.01-.24.07-.47.15-.71.13.03.25,0,.28-.06.04-.1.09-.18.13-.27,0,0,.02,0,.02-.01.05-.12.11-.23.17-.33.12-.2.26-.39.39-.57.05,0,.1-.02.13-.06.26-.34.54-.67.81-1.01.54-.39,1.17-.65,1.56-1.22v-.02c.48-.33.98-.67,1.46-1,.13-.09-.16-.24-.21-.27-.08-.03-.18-.06-.28-.07.33-.31.69-.6,1.04-.9.32-.18.65-.37.99-.53.1-.04,0-.14-.08-.2.4-.31.8-.62,1.22-.91.04.07.08.15.12.23.03.05.1.06.18.07-.14.11-.29.2-.43.31-.23.18.5.31.67.18.08-.06.16-.11.24-.17.15.11.33.17.54.17.07,0,.36,0,.3-.15-.02-.05-.03-.11-.06-.16.1,0,.18-.02.22-.05,1.1-.91,2.27-1.7,3.51-2.39,1.21-.59,2.48-1.09,3.74-1.58.11-.04.24-.13.12-.23-.12-.1-.41-.03-.54,0-.55.21-1.09.43-1.63.65-.15-.04-.34-.03-.47,0-1.86.69-3.62,1.6-5.25,2.71-.06-.22-.13-.43-.18-.66.16-.09.31-.19.48-.28.14-.08-.33-.33-.6-.32-.03-.23-.07-.45-.08-.68.03-1.03.18-2.07.27-3.1,0-.06-.04-.11-.11-.15.02-.04.05-.09.07-.12.05-.07,0-.13-.08-.17.06-.17.13-.34.2-.51.04-.02.07-.04.07-.09,0-.03,0-.05,0-.09,0-.02.02-.04.03-.06.02-.02,0-.04-.01-.05.02-.1.04-.19.07-.29.02-.04.04-.09.06-.13.08-.08.15-.16.24-.23.08-.06.09-.13-.03-.15h-.01s.02-.03.02-.04c.03,0,.06-.02.07-.05.07-.15.17-.29.28-.43.08-.06.17-.12.26-.16.05-.02.06-.08.04-.12,0,0-.02-.02-.04-.02.11-.12.24-.25.36-.35.08.05.15.1.25.14s.33.14.45.07h.07c.1-.02.28-.09.15-.2-.12-.1-.22-.21-.32-.31-.06-.1-.13-.18-.18-.28.05-.02.08-.06.03-.13,0-.02-.01-.02-.03-.04.02,0,.04-.02.05-.03.1-.04.04-.12-.09-.17.17-.08.34-.15.53-.19.13-.03.23-.1.13-.23-.09-.11-.42-.06-.54-.03-.16.04-.3.1-.45.16l-.34-.46s.02-.04,0-.07c-.04-.06-.16-.29-.28-.5.1-.01.14-.06.09-.15l-.11-.16s.07-.06.02-.14c-.24-.33-.46-.67-.71-.99,0-.01,0-.02,0-.04-.07-.25-.22-.46-.38-.66-.15-.25-.3-.49-.45-.73-.06-.11-.2-.17-.33-.19,0,0,0,0-.01-.02,0-.02-.03-.02-.04-.04-.14-.2-.28-.4-.41-.6.04-.04.05-.09.02-.13-.11-.14-.22-.27-.33-.41h0c.11,0,.23-.04.31-.1.06-.05.12-.15.05-.22-.05-.06-.14-.09-.23-.07-.04-.04-.09-.08-.14-.12-.09-.08-.18-.17-.27-.25-.19-.17-.38-.34-.56-.51-.01-.02-.04-.02-.07-.03-.06-.05-.12-.11-.18-.17-.01-.02-.02-.04-.04-.05,0,0-.02,0-.04-.02-.02-.02-.04-.04-.06-.05,0,0-.02,0-.03,0-.01-.02-.03-.03-.04-.05-.02-.02-.12-.02-.14-.01-.05,0-.12.02-.17.03-.04-.03-.06-.06-.11-.1-.01,0-.03,0-.04-.02-.14-.1-.28-.19-.43-.26-.15-.07-.39-.08-.56-.02-.14.05-.15.15,0,.22.65.32,1.11.91,1.48,1.52.3.49.56,1.08.94,1.53.01.02.02.04.04.06,0,.02,0,.05.02.09.06.08.11.16.17.23.25.41.5.83.74,1.24.13.23.26.44.4.66.08.14.15.29.23.42.32.56.65,1.12,1.01,1.64.04.06.09.11.13.17-1.1.73-1.86,1.93-2.2,3.23-.29,1.07-.36,2.17-.36,3.27,0,.72.09,1.41.31,2.06-1.34.85-2.59,1.86-3.74,2.97-.52.39-.99.82-1.44,1.29-.09.09-.19.17-.28.26-.56.56-1.06,1.16-1.51,1.8-.09.12-.18.25-.27.39-.35.39-.68.82-.9,1.29-.41.46-.66,1.06-.83,1.67-.24.52-.34,1.09-.31,1.65-.37,1.51.17,3.02.95,4.33.76,1.28,1.71,2.46,2.88,3.39,1.15.92,2.51,1.59,3.97,1.8.93.14,1.87.11,2.81,0,1.47.06,2.95-.2,4.32-.79.05-.02.06-.05.05-.08.01,0,.02,0,.04-.01.58-.21,1.15-.49,1.7-.77.06-.02.12-.04.18-.08.45-.22.88-.49,1.3-.76,3.15-1.56,6.26-3.72,9.76-4.27,1.68-.06,3.33.41,4.86,1.04.15.06.68-.14.46-.25l.02.02v-.04ZM597.75,387.26c-.32.36-.61.72-.89,1.11-.19,0-.43.04-.49.15-1.68,3.06-3.4,6.29-3.4,9.86,0,.19.77.13.77-.11,0-.16.02-.32.03-.47.1-.02.16-.06.16-.13-.14-1.96.9-3.92,1.69-5.65.76-1.67,1.66-3.27,2.88-4.65.13-.14-.59-.29-.75-.12h-.02s0,.01,0,.01Z" fill="none" stroke="#000" stroke-miterlimit="10" stroke-width=".74"/>
          <path d="M489.56,261.61c-.1-.42-.24-.82-.4-1.21-.04-.13-.09-.25-.13-.37-.17-1.23-.64-2.39-1.39-3.38-.04-.05-.09-.09-.13-.13-.59-1.03-1.47-1.87-2.46-2.53-.77-.83-1.72-1.44-2.79-1.73-.73-.24-1.52-.32-2.35-.12-.2.05-.43.16-.62.32-1.01-.29-2.35.17-3.18.58-1.61.79-3.13,1.76-4.74,2.57-2.46,1.26-5.01,2.37-7.64,3.19-.63.12-1.28.22-1.91.24-.47,0-1.2.13-1.53.53-.05.07-.09.12-.09.18-.33.07-.64.19-.77.39-.24.37.19.37.52.35,4.23-.24,8.35-1.35,12.14-3.24h.01c.07-.03.15-.06.23-.1.38-.19.29-.33,0-.45-.31-.12-.84.02-1.23.16-.07-.02-.15-.04-.23-.04,1.1-.52,2.19-1.06,3.27-1.62.69-.37,1.36-.73,2.04-1.11.32-.18.67-.45,1.01-.57.42-.15.48-.13.79.23.16.2.76.13,1.28-.05.18.12.43.18.66.18.14.14.33.24.54.28,1.5.35,2.69,1.52,3.58,2.75-.06.03-.13.08-.18.11-.6-.68-1.36-1.27-2.23-1.68-.54-.26-2.08.18-1.82.99.43,1.41,1.51,2.31,2.42,3.43.57.71.85,1.48.97,2.29,0,.11,0,.2.04.28.09.85.03,1.73-.04,2.62-.21,2.81-.27,7.51-3.23,9.02-.11.05-.19.11-.27.17h0c.17-.43-.28-.63-.65-.65-.65-.04-1.28.03-1.88.19-.21.03-.42.09-.55.13-.07.02-.14.05-.21.08-1.66.46-3.19,1.27-4.5,2.42-.87.75-1.65,1.6-2.44,2.42-1.02.83-1.91,1.8-2.5,3.02-.02.02-.03.04-.05.07h.01c-.02.06-.06.12-.09.18-.19.44.6.57.84.57.47,0,1.09-.17,1.36-.58.5-.74,1.06-1.45,1.66-2.13.28-.04.55-.13.75-.26.71-.45,1.23-1.04,1.74-1.66.26-.15.51-.3.75-.45.24-.14.45-.4.43-.63.17-.14.32-.29.49-.42.61-.47,1.34-1.07,2.13-1.38.46-.12.95-.2,1.44-.22.29-.01.69-.13.97-.34-.28.62.63,1.23,1.51.78,2.31-1.19,3.39-3.32,3.96-5.66.4-.11.87-.35.92-.77.26-2.01.37-4.04.34-6.07.05-.72.06-1.44.05-2.16.24.44.48.89.73,1.32.09.14.22.23.38.29.34,1.08,2.55.56,2.28-.55v-.02s0-.01,0-.01Z" fill="#000" stroke-width="0"/>
          <path d="M473.6,246.17c-1.1.3-2.2.55-3.33.74-.6.11-1.21.2-1.83.28-.6.08-1.35.11-1.78-.4-.01-.02-.01-.03-.02-.04-.56-.08-1.11-.21-1.66-.41-.18-.06-.23-.16-.21-.27-.67-.23-1.27-.61-1.87-.97-.37-.23-.71-.49-.99-.81-.05.02-.1.03-.14.05-2.04.66-3.71,2.07-5.22,3.54-.41.4-.82.83-1.2,1.28-.22.4-.42.82-.58,1.25-.22,1.6-.3,3.23-.18,4.85,0,.17.03.35.04.53.15.6.34,1.18.61,1.74.33.69.74,1.36,1.15,2.02.07.05.14.12.22.16.12.07.11.16.04.25.23.36.45.72.68,1.07.28.45-.22.83-.61.99-.38.15-1.25.31-1.52-.12-.33-.54-.68-1.08-1.03-1.63-.46-.35-.83-.79-1.1-1.29-.39.03-.72-.04-.81-.27,0,0,0-.01,0-.03,0,0,0,0,0-.02,0-.02-.01-.04-.02-.07-.18-.47-.32-.97-.44-1.46-.28,0-.47-.09-.46-.22.05-.55.1-1.09.16-1.63-.02-.22-.05-.44-.06-.66v-.02c0-.23,0-.45,0-.68,0-.01,0-.03,0-.04-.19-.03-.32-.11-.31-.22.03-.34.09-.67.18-.99,0-.27,0-.56.02-.84.02-.17.24-.31.4-.4.23-1.16.62-2.3,1.18-3.37.22-.43.9-.58,1.33-.64.02,0,.05,0,.09,0,1.75-2.08,4.06-3.87,6.75-4.32.18-.02.62-.05.83.11.26-.14.57-.24.68-.26.37-.09,1.03-.2,1.25.2.48.85,1.52,1.18,2.38,1.49.77.28,1.56.51,2.34.73h.21c.54.02,1.08.04,1.62.06.05,0,.11-.03.17-.03.31-.07.61-.14.91-.21.19-.04.39-.07.6-.08.08-.02.15-.03.23-.05.09-.02.2-.04.34-.05.22-.05.44-.11.66-.16.37-.1,1.17-.12,1.29.39.13.52-.61.83-.99.93h0s0,0,0,0ZM477.73,242.79c0-.1,0-.19-.01-.29.02-.24.01-.49-.02-.74h0c.02-.07.03-.13,0-.19,0-.01-.01-.04-.01-.05-.02-.4-.03-.8-.06-1.2,0-.19-.3-.32-.43-.35-.11-.03-.24-.04-.36-.04-.24-.33-.55-.6-.97-.72-.04-.02-.11-.01-.16-.02-.06-.02-.12-.05-.18-.06-.33-.07-.67-.08-.99,0-.17.04-.34.11-.49.19-.1-.23-.4-.37-.68-.41-1.14-.17-2.3-.02-3.42.21-1.01.22-2,.46-3,.69-.19.04-.43.14-.63.29-.06.01-.13.03-.19.04-.22.05-1.12.26-1.06.6.04.24.59.18.95.12.18.45.9.46,1.28.37.93-.22,1.85-.44,2.78-.65.24-.05.48-.11.72-.14.03,0,.17-.02.21-.03.09-.01.17-.02.26-.03.22-.02.45-.03.67-.03h.08s.03,0,.07.01c.15.02.3.03.44.05.3.05.66-.02.97-.17.08.15.25.26.4.29.15.04.3.05.45.05.09.07.17.15.27.23.09.08.18.15.28.24,0,0,0,.02.01.02.1.17.19.34.28.53.01.03.02.05.03.06h0v-.02s0,.02,0,.03c.03.48.1.94.2,1.41h0c-.04.21-.1.4-.16.6-.03.1-.07.21-.11.31.04-.12-.06.16-.07.18-.09.2-.13.37.01.56.14.17.41.28.62.29.3.02.62-.01.89-.14.21-.1.52-.25.61-.49.15-.38.3-.76.41-1.15l.05-.07c.07-.11.1-.23.08-.35h0v-.02ZM444.81,233.64c-.18.11-.08.04,0,0h0ZM443.81,234.14h.03c-.08,0-.12.01-.13.02h.02s.05,0,.08,0h0ZM447.55,233.31s-.01-.03-.02-.05c.03-.07.05-.15.04-.22-.01-.04-.03-.09-.06-.13-.03-.1-.14-.14-.29-.16-.02,0-.04-.02-.07-.02-.55-.11-1.17.06-1.61.38,0,0-.02,0-.02.01-.08.03-.15.09-.2.14-.15.11-.3.23-.45.34,0,0-.02.01-.04.02,0,0,.02,0,.03-.01-.06.04-.12.08-.17.11-.11.06-.23.13-.33.19-.05.03-.11.05-.15.08-.1.03-.19.08-.28.11h-.02s-.02,0-.03,0h.03s-.04,0-.05,0c-.06,0-.12.01-.1.01h-.08s.08,0,.08,0c-.29,0-.57.04-.84.15-.2.08-.5.22-.62.41-.05.08-.09.16-.1.25-.17.1-.29.22-.2.34.05.07.17.11.27.12,0,.06,0,.13,0,.19.16.52.86.66,1.33.51.76-.24,1.46-.54,2.15-.95.6-.35,1.14-.78,1.64-1.24.15-.14.26-.43.2-.63h-.01s-.02.01-.02.01Z" fill="#000" stroke-width="0"/>
          <g>
            <path d="M591.87,414.34c-.15-.03-.08,0,0,0h0Z" fill="#000" stroke-width="0"/>
            <path d="M596.56,412.13c.03-.08.06-.15.09-.23.41-.97.69-1.97.81-3.02.03-.3-.54-.25-.58.02-.03.22-.07.44-.12.66-.12.03-.23.1-.25.22-.12.72-.34,1.41-.65,2.07h-.3c-.28.01-.62.11-.87.26-.07.04-.14.1-.2.14-.08.06-.14.14-.18.22-.05.06-.1.12-.11.2-.04.23-.12.43-.21.65-.11.18-.23.36-.38.52l-.1.09c-.14.04-.27.1-.39.17-.06.04-.13.06-.18.11-.03.01-.06.03-.1.04.05-.02.11-.05.17-.08-.07.06-.18.09-.29.12h-.01c-.05.01-.1.03-.16.03-.01,0-.04,0-.05.01-.02,0-.05,0-.08.01-.05,0-.12.01-.18.02h-.37s.02,0,.05,0c-.06-.02-.13-.02-.18-.03-.13-.03-.26-.05-.39-.09-.26-.07-.59-.02-.85.03-.16.03-.34.1-.51.19-.31-.45-.37-1.09-.05-1.56.06-.1-.05-.13-.14-.13-.11,0-.31.03-.38.13-.17.25-.25.54-.25.83-.03.02-.06.04-.06.08-.05.54.03,1.17.53,1.46.02.02.04.02.07.04.01,0,.02.02.04.02h.01s.1.03.15.05c1.51.42,3.24.13,4.58-.63.04-.02.09-.05.14-.09.24-.07.46-.17.67-.31.42-.3.79-.67,1.11-1.09.08-.12.15-.24.2-.36.03-.07.06-.15.06-.24.01-.12.02-.25-.02-.36-.02-.05-.05-.11-.1-.17h0l.02.02Z" fill="#000" stroke-width="0"/>
          </g>
          <path d="M615.61,429.02c.12-.22.21-.44.27-.67.03-.12-.17-.12-.24-.11-.07.01-.15.03-.21.06-.04.02-.11.06-.11.11,0,.01-.02.03-.02.05-.05.02-.11.05-.13.1-.05.09-.13.18-.19.28-.07.03-.14.08-.16.14,0,.01-.02.03-.02.04h0c-.14.11-.3.21-.45.31-.06.02-.12.05-.16.1,0,0-.02.02-.02.03-.72.45-1.5.8-2.33,1.02-.1.03-.28.11-.24.24.03.13.23.13.32.11.13-.03.26-.08.39-.12-.07.04-.15.09-.23.13-.11.06-.23.18-.14.3.06.09.19.12.3.1.06,0,.13,0,.16,0,.19-.03.38-.09.57-.14,0,0-.02.02-.03.02h0s-.05.04-.09.05h0s-.04.01-.05.03c-.02.01-.06.03-.1.03h-.01s-.03,0-.05.01c-.06.01-.13.03-.18.04h-.01c-.13-.03-.28,0-.4.05-.04.01-.14.09-.11.13,0,.01-.02.02-.02.04-.1.01-.19.04-.27.1-.1.09-.06.16.05.19.46.13.98.09,1.41-.1.23-.1.43-.22.59-.4.04-.04.07-.09.1-.14h0c.33-.13.63-.32.89-.57.45-.44.73-1,.94-1.58h-.02s0,.01,0,.01Z" fill="#000" stroke-width="0"/>
          <path d="M590.04,353.48c.06-1.17.02-2.38-.15-3.62-1.04-7.56-5.55-14.32-10.05-20.26-16.48-21.7-42.51-35.78-69.15-40.26-2.04-.35-4.2-.63-6.15.06-2.7.95-4.48,3.55-5.6,6.17-4.5,10.45-5.4,12.68-9.15,19.67-2.25,4.21-15.54,7.17-16.32,8.28-2.95,4.21.33,12.3-1.89,14.56-1.47,1.49-5.51,5.69-11.01,7.29-8.77,2.54-11.95-.42-16.03.6-3.79.95-2.85,9.89-6.72,11.82-7.01,3.51-12.91,3.16-15.65,3.58-6.42.97-9.29-5.13-15.74-4.46-4.6.48-5.52,8.07-10.14,7.97-9.66-.21-9.89-1.34-28.99-7.67-.85-.28-2.34-6.97-6.14-8.53-2.59-1.06-4.98,2.14-7.23.94,0,0-4.56-2.42-8.72-6.47-.97-.93-1.76-1.87-2.04-3.19-.32-1.49.53-2.62-.63-6.13-2.16-6.55-6.05-1.29-8.67-5.28-4.38-6.69,1.6-16.59.17-18.21-2.49-2.81-2.57-7.9-2.63-8.45-.54-4.93,4.03-6.83,5.5-11.11,1.1-3.22,11.19-7.39,7.16-11.02-4.92-4.41-10-3.13-12.64-.17-2.39,2.69-11.68,6.05-15.12,14.48-1.58,3.87-8.66,3.31-9.74,5.66-1.11,2.42.81,4.33,1.15,8.46.51,6.28-1.57,16.04-3.46,20.2-2.01,4.44-5.97,1.32-4.9,7.59.6,3.54,3.54,9.46,7.15,14.79,5.04,7.42,5.88,12.52,11.99,24.27.8,1.55-.85,11.56,2.43,12.97,1.74.75,3.48,3.14,5.38,3.19,3.99.11,7.52,1.81,10.3,3.58,10.26,6.49,16.79,10.95,23.89,14.58,6.24,3.19,21.27,6.55,20.82,10.18-.22,1.8,1.04,6.7,8.29,9.03,3.7,1.19,10.23-2.37,15.73-3.66,4.45-1.05,19.57,4.75,56.2.63.74.87,1.94,2,3.6,3.08,1.56,1.01,3.4,1.83,5.31,1.96,2.05-1.25,7.05-1.13,9.19-5.02,4.66-8.46,17.96-8.59,21.48-10.15,24.52-9.05,30.21-12.18,37.92-15.57,4.02-1.76,10.53,1.47,13.77.01,11.54-5.2-5.44-9.37,17.98-22.09,12.13-6.6,18.72-14.46,19.27-24.32h0s0,.04,0,.04ZM357.45,364.23c.07-.04.14-.09.21-.13" fill="url(#radial-gradient)" stroke-width="0"/>
          <path d="M462.55,283.45c-5.02-.14-5.26,7.67-.22,7.82s5.26-7.67.22-7.82Z" fill="url(#radial-gradient-2)" stroke-width="0"/>
          <path d="M544.52,386.48c-.15-.83-.54-1.48-1.06-1.94.47-.76.66-1.75.37-2.95-1-4.02-2.12-8.06-4.64-11.43-1.88-2.51-4.09-4.45-5.76-6.89-.7-1.56-1.42-3.12-2.2-4.64-.67-1.3-1.87-1.89-3.1-1.94-2.05-2.65-4.19-5.23-6.49-7.66-4.28-4.54-9.16-8.7-14.59-11.8-.5-.29-1.01-.56-1.53-.84-1.72-1.24-3.51-2.36-5.37-3.23-2.76-1.27-6.17-1.93-9.6-2.02-1.43-.39-3.04-.36-4.8-.11-.54.08-1.01.28-1.4.57-1.27.23-2.5.54-3.62.94-1.54.53-2.62,2.17-2.85,3.77-.83-.19-1.75-.12-2.66.32-2.03.97-3.82,2.17-5.53,3.6-1.02-.03-2.03.38-2.72,1.35-.24.22-.47.46-.68.77-.48.07-.97.22-1.41.46-.95.17-1.91.35-2.87.49-3.7.56-3.97,6.85-.21,7.53.63.11,1.22.18,1.79.2.52.69,1.27,1.16,2.1,1.39.35.45.77.84,1.23,1.13v.28c-.08,1.79,1.18,3.18,2.72,3.74,1.29,2.79,2.86,5.44,4.27,8.22,2.42,4.81,4.29,9.84,5.62,15.05,2.68,10.48,2.42,21.04,2.28,31.76-.01.44.06.84.15,1.2-.46.41-.83.91-1.09,1.46-2.2,2.91,1.85,7.07,5.32,5.51.09-.03.17-.08.26-.12.42-.19.77-.49,1.07-.84,8.53-2.72,17.06-5.43,25.59-8.18,3.75-1.21,7.4-2.5,10.85-4.43,3.35-1.88,7.23-1.76,10.47-3.76.14-.09.27-.18.39-.28,8.96.3,11.02-9.65,9.73-16.66h0s0,0,0,0ZM503.02,348.17c.05-.37.06-.72.03-1.06.26.09.51.16.76.25-.3.24-.56.5-.79.82h0s0,0,0,0ZM515.96,371.62c-.11,0-.21.02-.32.03.14-.4.27-.79.37-1.19-.02.39-.04.77-.05,1.16h0Z" fill="url(#radial-gradient-3)" stroke-width="0"/>
          <path d="M331.42,317.78c-.74-2.56-3.92-3.59-5.95-2.42-1.23-.9-2.63-1.56-4.09-2.06-2.06-.69-5.15-.65-6.7-2.28-2.36-2.47-6.6-.8-6.75,2.57-.24,5.76-1.26,12.23-.27,18.07-.12,2.12.4,4.02,1.49,5.93,1.44,2.55,4.36,2.35,6.07.87.74.41,1.48.89,2.37,1.01.93.12,1.68-.06,2.43-.33,4.07.78,9.4-.65,11.79-4.12,3.55-5.17,1.19-11.83-.36-17.25h0s-.02,0-.02,0Z" fill="url(#radial-gradient-4)" stroke-width="0"/>
          <path d="M336.44,286.06c-.82-.82-1.4-1.52-1.98-2.51-1-1.73-3.49-2.72-5.3-1.55-3.39,2.2-6.14,4.93-8.15,8.44-.34.61-.49,1.28-.47,1.94-.4.46-.83.86-1.29,1.11-2,1.07-3.89.86-5.07,3.3-1.81,3.74,2.47,7.25,5.22,5.72.4.36.9.66,1.54.86,3.51,1.07,8.12,3.31,10.51-.79.98-1.68,1.48-3.7,2.26-5.47.95-2.15,2.07-4.23,3.23-6.29.84-1.48.78-3.51-.47-4.75h-.01s0,0,0,0Z" fill="url(#radial-gradient-5)" stroke-width="0"/>
          <path d="M469.55,339.39c.72-.84,2.14-.67,5.45-2.33,3.48-1.76,10.81-.98,14.23.86,3.43,1.85,6.17,5.15,6.8,8.99s-1.59,9.39-5.03,11.23c-2.92,1.56-6.79,3.11-10.11,2.14-4.51-1.31-6.25-3.34-7.93-7.01-1.09-2.37-.71-4.22-.26-6.16.43-1.84,1.25-2.64,1.53-2.94,1.97-2.11,4.45-2.57,7.23-2.34,3.6.29,6.29,1.9,7.25,3.69,2.79,5.2-2.11,7.61-3.78,7.98-4.49.99-4.93-3.22-4.54-3.49" fill="none" stroke="#212121" stroke-linecap="round" stroke-miterlimit="10" stroke-width="2.22"/>
          <path d="M496.04,346.91c.17,1.98.19,4.19-.17,6.14-.91,5.09-3.56,9.94-3.24,15.1.23,3.61,2.05,7.15,5,9.23s6.52,2.31,9.97,1.25c2.12-.66,2.77-.59,5.07-1.87,1.45-.81,3.87-2.65,4.65-4.13,2.14-4.07,1.93-8.84-1.6-11.77-2.29-1.91-3.56-2.27-5.89-2.35-.96-.03-3.3.89-5.13,1.93-2.25,1.28-3.35,2.84-4.12,5.32s.56,5.15,2.82,6.42c3.88,2.19,8.74-3.7,3.52-5.77" fill="none" stroke="#212121" stroke-linecap="round" stroke-miterlimit="10" stroke-width="2.22"/>
          <path d="M505.82,379.07c5.53-.07,10.94.55,15.86,3.07,1.56.8,3.48,2.56,4.41,4.4,1.75,3.5,2,6.34.33,10.46-1.47,3.63-9.18,10.36-14.58,10.66-8.33.45-12.64-3.89-13.66-10.31-.65-4.17.93-6.25,2.88-8.37,2.51-2.74,8.22-4.34,12.05-3.03,4.78,1.65,5.22,7.24,3.83,10.73-1.76,4.41-9.99,4.1-8.35-2.44" fill="none" stroke="#212121" stroke-linecap="round" stroke-miterlimit="10" stroke-width="2.22"/>
          <path d="M526.33,397.16c-1.16,1.93-2.59,3.84-3.14,6.03-.21.86-.33,1.79-.06,2.63s.6,1.09,1.49,1.2c.34-.38,1.21-.74,1.73-.79,0,.19-.41.6-.24.5" fill="none" stroke="#212121" stroke-miterlimit="10" stroke-width="2.22"/>
          <path d="M406.67,368.57c-4.62-.07-10.89-1.4-13.95-4.87-.09.14-.11.32-.04.47" fill="none" stroke="#231f20" stroke-miterlimit="10" stroke-width="1.63"/>
          <path d="M408.83,375.55c-.77.52-12.9-.87-16.44-2.24-8.66-3.36-13.82-9.1-16.42-12.82" fill="none" stroke="#231f20" stroke-miterlimit="10" stroke-width="1.63"/>
          <path d="M405.26,392.47c-9.96-1.33-16.12-3.87-23.46-10.28-5.23-4.56-10.14-13.66-14.98-23.59.08.2-.06,2.11.02,2.31" fill="none" stroke="#231f20" stroke-miterlimit="10" stroke-width="1.63"/>
          <path d="M402.76,405.65c-25.53-6.42-33.2-20.34-38.7-35.48" fill="none" stroke="#231f20" stroke-miterlimit="10" stroke-width="1.63"/>
          <path d="M396.02,413.3c-1.81,3.75-15.99.3-25.07-9.56-6.21-6.74-11.17-17.33-14.16-25.82" fill="none" stroke="#231f20" stroke-miterlimit="10" stroke-width="1.63"/>
          <path d="M352.67,405.25c-4.1-4.42-7.47-9.66-9.03-18.29" fill="none" stroke="#231f20" stroke-miterlimit="10" stroke-width="1.63"/>
          <path d="M367.05,412.48c-3.62-3.07-9.8-11-11.97-15.22-2.92-5.68-3.75-8.81-4.79-14.16" fill="none" stroke="#231f20" stroke-miterlimit="10" stroke-width="1.63"/>
          <path d="M350.56,367.46s1.64-3.03,1.46-3.04c-1.12-3.73-1.54-10.65-.49-15.65" fill="none" stroke="#231f20" stroke-miterlimit="10" stroke-width="1.48"/>
          <path d="M347.22,370.98c-1.54-8.87-1.87-17.8,1.18-26.1" fill="none" stroke="#231f20" stroke-miterlimit="10" stroke-width="1.48"/>
          <path d="M341.02,374.68c-1.41-11.04-.64-22.74,4.21-32.56" fill="none" stroke="#231f20" stroke-miterlimit="10" stroke-width="1.48"/>
          <path d="M332.72,378.26c-2.75-10.8-.03-23.15,5.08-33.59-.33.04-1.52.07-1.84.11" fill="none" stroke="#231f20" stroke-miterlimit="10" stroke-width="1.48"/>
          <path d="M325.76,377.19c-2.37-9.82.52-20.34,4.37-29.68-.13.54-2.34,1.03-2.47,1.58" fill="none" stroke="#231f20" stroke-miterlimit="10" stroke-width="1.48"/>
          <path d="M317.04,371.35c-.89-4.71-.6-7.49-.05-9.61,2.38-9.13,5.32-12.15,6.26-12.68" fill="none" stroke="#231f20" stroke-miterlimit="10" stroke-width="1.48"/>
          <path d="M310.04,360.31c.16-3.34,3.18-8.71,5.51-11.45" fill="none" stroke="#231f20" stroke-miterlimit="10" stroke-width="1.48"/>
          <path d="M351.72,361.58c.32.59,1,.99,1.68.97-.06.06-.17.09-.26.05" fill="none" stroke="#000" stroke-miterlimit="10" stroke-width=".74"/>
          <path d="M351.38,362.74c.07,1.06-.05,2.15-.33,3.18" fill="none" stroke="#000" stroke-miterlimit="10" stroke-width=".74"/>
          <path d="M347.11,368.06c-.04.76.83,1.41,1.55,1.16.03.1-.05.21-.15.22" fill="none" stroke="#000" stroke-miterlimit="10" stroke-width=".74"/>
          <path d="M346.39,368.39c.12.32.14.68.07,1.01-.06.29-.2.57-.34.84-.16.3-.31.6-.46.91-.02.04-.05.1-.11.1s-.05-.11,0-.09" fill="none" stroke="#000" stroke-miterlimit="10" stroke-width=".74"/>
          <path d="M340.93,371.84c-.04.25.1.51.3.66s.45.24.69.32c.39.12.77.25,1.15.37" fill="none" stroke="#000" stroke-miterlimit="10" stroke-width=".74"/>
          <path d="M340.38,371.89c.11,1.03-.25,2.11-.96,2.86" fill="none" stroke="#000" stroke-miterlimit="10" stroke-width=".74"/>
          <path d="M334.37,376.24c-.05.04.09.07.08,0s-.1-.08-.17-.09c-.92-.01-1.81-.61-2.15-1.47.09.32-.35.98-.52,1.28-.46.86-1.16,1.6-2,2.12" fill="none" stroke="#000" stroke-miterlimit="10" stroke-width=".74"/>
          <path d="M325.46,375.74c.23.87,1.64,1.6,2.53,1.76" fill="none" stroke="#000" stroke-miterlimit="10" stroke-width=".74"/>
          <path d="M325.11,375.47c-.1.24-.07.52-.15.75-.05.16-.14.31-.24.45-.16.25-.33.52-.49.76-.29.45-.63.95-1.14,1.1" fill="none" stroke="#000" stroke-miterlimit="10" stroke-width=".74"/>
          <path d="M316.29,366.13l-.51.72c-.28.39-.57.79-.99,1-.14-.13-.28-.26-.43-.39" fill="none" stroke="#000" stroke-miterlimit="10" stroke-width=".74"/>
          <path d="M311,355.63c-.27.25-.61.51-.97.38-.34-.12-.62-.58-.94-.4" fill="none" stroke="#000" stroke-miterlimit="10" stroke-width=".74"/>
          <path d="M404.54,366.32s-.02.03-.04.04c-.42.53-.59,1.35-1.22,1.54,0,.1-.02.2-.03.3" fill="none" stroke="#000" stroke-miterlimit="10" stroke-width=".74"/>
          <path d="M405.65,375.1c.61-.3,1.18-.7,1.69-1.18.24-.23.47-.49.55-.81s-.08-.71-.39-.81" fill="none" stroke="#000" stroke-miterlimit="10" stroke-width=".74"/>
          <path d="M404.96,368.98c.34.17.68.35.93.64s1.12.46.99.81" fill="none" stroke="#000" stroke-miterlimit="10" stroke-width=".74"/>
          <path d="M404.22,391.94c.56.24,1.24.01,1.69-.39s.72-.97.96-1.53" fill="none" stroke="#000" stroke-miterlimit="10" stroke-width=".74"/>
          <path d="M406.01,375.69c.56.53,1.11,1.11,1.43,1.81s1.17,2.03.74,2.68" fill="none" stroke="#000" stroke-miterlimit="10" stroke-width=".74"/>
          <path d="M399.45,404.24c.52-.01,1.05-.08,1.49-.35s1.45-.34,1.32-.84" fill="none" stroke="#000" stroke-miterlimit="10" stroke-width=".74"/>
          <path d="M403.98,392.32l.66.98c.17.25.33.5.44.78.31.89-.15,1.86-.63,2.67" fill="none" stroke="#000" stroke-miterlimit="10" stroke-width=".74"/>
          <path d="M399.1,404.98c.86.79,1.05,2.2.44,3.19" fill="none" stroke="#000" stroke-miterlimit="10" stroke-width=".74"/>
          <path d="M390.41,414.88c.39.96.37,2.06-.05,3.01" fill="none" stroke="#000" stroke-miterlimit="10" stroke-width=".74"/>
          <path d="M465.9,408.98c-.06-.04-.14.04-.14.11s.06.13.13.17c.39.31.81.6,1.06,1.02s1.3,1.07.92,1.39" fill="none" stroke="#000" stroke-miterlimit="10" stroke-width=".74"/>
          <path d="M464.31,419.05c-.09-.1-.28-.06-.32.06.93.35,1.42,1.57.99,2.47" fill="none" stroke="#000" stroke-miterlimit="10" stroke-width=".74"/>
          <path d="M466.66,393.41c0,.16.29.14.33-.01s-.05-.31-.15-.43c-.55-.68-2.06-1.04-1.8-2,.11-.38.68-.71.88-1.09.27-.47.36-1.06.47-1.59-.1-.03-.18-.06-.27-.11" fill="none" stroke="#000" stroke-miterlimit="10" stroke-width=".74"/>
          <path d="M458.27,371.22c.44.01.9.06,1.28.29s1.26.02,1.15.46" fill="none" stroke="#000" stroke-miterlimit="10" stroke-width=".74"/>
          <path d="M457.82,370.53c.37-.14.62-.49.74-.85s.13-.77.14-1.16c.01-.37.01-.73-.1-1.09" fill="none" stroke="#000" stroke-miterlimit="10" stroke-width=".74"/>
          <path d="M332.43,323.69c-2.27-.11-4.55-.21-6.79.19s-4.43,1.32-5.99,2.97-3.05,4.47-1.66,6.27c1.63,2.11,3.93,2.85,6.07,1.88,1.37-.62,1.85-1.01,2.47-2.15.52-.97.53-2.36.28-3.44-.29-1.19-1.34-1.89-2.92-1.48-1.26.33-2.16,2.9-.21,3.64" fill="none" stroke="#000" stroke-linecap="round" stroke-miterlimit="10" stroke-width=".74"/>
          <path d="M332.22,322.91c-2.27-.17-4.56-.11-6.81.18-1.32.16-2.67.41-4,.22-.83-.12-1.65-.44-2.29-.98-1.17-1-.77-2.69.19-3.7.55-.58,1.39-.82,2.18-1.01,1.35-.33,2.75,1.67,2.03,2.82-.47.76-1.66.96-2.35.39" fill="none" stroke="#000" stroke-linecap="round" stroke-miterlimit="10" stroke-width=".74"/>
          <path d="M321.9,325.15c-2.65,1.3-4.79,2.85-7.11,4.65-1.25.97-4.57.83-5.29-1.08-1.35-3.56,2.2-5.03,4.09-5.01,1.07,0,2.28,1.93,1.25,3.08-.68.77-1.91.62-2.81.41" fill="none" stroke="#000" stroke-linecap="round" stroke-miterlimit="10" stroke-width=".74"/>
          <path d="M602.02,247.33c.35-.57.57-1.22.57-1.89,0-1.14-.18-2.21-.52-3.25.01-.13.03-.27.03-.41.02-.44-.02-.87-.12-1.29-.03-.6-.06-1.2-.1-1.81-.07-1.02-.44-1.84-.98-2.46-.04-.42-.09-.84-.13-1.26-.11-.97-.49-1.75-1.04-2.36-.23-1.23-.51-2.45-.87-3.68-.18-.63-.49-1.13-.84-1.54,0-.2-.01-.4-.04-.59-.02-.24-.05-.46-.08-.7-.1-.51-.32-.97-.66-1.35-.16-.3-.39-.54-.68-.72-.37-.35-.81-.6-1.31-.73-.34-.05-.69-.12-1.03-.17-.29,0-.56.02-.84.07-.62.01-1.21.17-1.77.47-.27.19-.54.39-.81.59-.44.42-.77.93-.98,1.49-.2.28-.38.58-.5.9-.66,1.14-1.35,2.25-2.1,3.34-.94.37-1.78,1.12-2.3,2.31,0,.02-.02.05-.03.08-.35.16-.69.39-1.01.69-.9.86-1.8,1.74-2.7,2.61-.38.37-.65.75-.86,1.14-2.53,2.66-4.91,5.47-7.13,8.39-1.78,1.98-3.34,4.14-4.69,6.44-.63.84-1.23,1.7-1.81,2.6-.54.84-.7,1.69-.6,2.47-.02.04-.03.07-.05.11-.11.25-.22.5-.33.75-.72,1.56-.43,3.09.35,4.21-.15,1.99,1.04,3.19,2.53,3.58-.28,1.94-.55,3.88-.82,5.82-.26,1.9,1.55,3.68,3.28,3.93,2.07.31,3.57-.85,4.37-2.68.16-.37.27-.73.36-1.12.09-.16.17-.34.25-.51.41.12.83.16,1.26.15.26.12.52.2.8.27,1.02,1.07,2.86,1.32,4.43.76.66,1.48,1.99,2.39,3.49,2.4,1.03.44,2.18.51,3.16.1.71-.14,1.39-.45,1.98-.95.12-.11.24-.22.35-.32.89-.06,1.75-.42,2.41-1.14.42-.3.81-.7,1.1-1.26.34-.66.69-1.3,1.03-1.96.17-.14.35-.29.52-.47.2-.22.4-.43.57-.65.65-.43,1.19-1.06,1.5-1.89.41-1.12.68-2.14.87-3.31.04-.24.06-.48.06-.71.38-.4.68-.89.87-1.51.86-3.02,1.47-6.05,1.92-9.16.14-.92-.06-1.68-.42-2.27.04-.52.07-1.03.1-1.55v.02s0,0,0,0Z" fill="url(#radial-gradient-6)" stroke-width="0"/>
          <path d="M556.8,239.13c.22-2.31.27-4.66.1-7.03-.03-.48-.15-.92-.31-1.31-.22-2.16-.72-4.22-1.79-5.57-.05-.21-.11-.42-.18-.63.02-.18.04-.36.07-.54.8-4.8-5.99-7.27-7.48-2.3-.26.87-.44,1.72-.54,2.59-.87.21-1.71.72-2.36,1.56-1.1,1.41-1.9,3.05-2.73,4.64-.67.41-1.24,1.04-1.62,1.9-1.2,2.76-3.83,4.68-5.31,7.28-1.05,1.84-2.15,3.47-2.5,5.51-.57.81-.59,2.13-.46,3.08-.06-.41-.1-1.11-.04-1.58.11-.82.02.06,0,0,.19-.62.1-1.61-.18-2.35-.61-1.6-1.16-2.29-2.58-3.52-1.3-1.13-2.61-2.72-4.16-3.5-1.24-.62-2.39-1.12-3.64-1.66-1.52-.65-3.07-.72-4.7-.93-.34-.04-.92-.11-1.14.09-.22-.15-.57-.19-.82-.28-.46-.26-1.05-.15-1.59-.15-.07,0-.14.01-.21.02-.14-.02-.28-.04-.42-.04h-.13c-.54-.04-1.04.06-1.52.29-.49.14-1.24-.09-1.59.27-.4.34-2.19-.05-2.36.42-.26.46-.07,1.38.64,2.44.03.34.88,1.06.92,1.41.17.67.49,1.25.96,1.75l.09.06c.22.27.47.5.77.7,2.15,3.55,4.12,7.2,5.94,10.93.15.32.36.58.58.82.11.4.22.81.34,1.22h0c.1.32.24.63.4.93.15.33.35.64.6.9.03.03.06.05.09.08.52.59,1.37,1.6,2.04,1.73.27.07.59.02.87.02.34-.03.42-.69.76-.72.67-.17,1.25-.49,1.75-.96.21-.26.42-.51.63-.78.3-.48.48-1,.56-1.55.29-.66.51-1.36.59-2.01.57.16,1.14.22,1.71.16,2.7.58,5.16-1.41,4.85-4.12.08.4.32.6.3,1.05,0,.29.07.94.26,1.2,1.24,1.78,4.3.43,6.24,1.49,1.31.51,2.66,1.11,3.98,1.45,1.3.33,2.61.4,3.92.3.55.3.18.49.21.49,1.27.31,2.13-.2,3.41-.42,1.55-.15,2.9-.73,3.73-2.36l.5-1.02c.02-.05.04-.12.07-.18.42-.62,1.5-1.92,1.79-2.87.62-2.1.68-4.47.99-6.62.1-.71-.01-1.33-.28-1.87v.03s-.02.03-.02.03Z" fill="url(#radial-gradient-7)" stroke-width="0"/>
          <path d="M625.12,374.69c-.3-1.39-.23-2.54-.13-3.94.06-.94-.25-1.76-.8-2.42.5-.76.69-1.77.37-3.01-.93-3.52-2.24-6.87-3.96-10.08-.29-.54-.64-.97-1.01-1.29-1.86-2.79-4.31-5.07-7.52-6.64-.73-.35-1.64-.52-2.51-.46-2.45-.31-5.02,2.02-4.41,4.83.13.6.24,1.21.34,1.82-.61.44-1.08,1.13-1.33,2.1-.28,1.13-.55,2.23-.81,3.32-.26.95-.56,1.87-.87,2.81-2,1.11-3.24,1.57-3.57,3.45-.7-.28-1.2.65-2.02.48-2-.43-3.45.42-5.17.54-.86.06-2.83-.81-2.76-.08-.67-.62.17.81-.68.36-3.89-2.07-4.52,3.35-7.33,5.32-1.54,1.08-2.92,1.86-4,3.45-.54.79-1.02,1.54-1.52,2.26-1.57.34-3,1.52-3.27,3.53-.09.69-.19,1.4-.28,2.09-.04.27-.03.53,0,.78-.54,4.16-1.5,8.08-1.12,12.44.2,2.38.39,4.79.88,7.13.54,2.6,1.8,4.91,2.47,7.45,1.15,4.28,6.37,3.46,7.54-.12.69-.42,1.3-1.05,1.69-1.95.48-1.11,1.02-2.2,1.57-3.26.5-.29.97-.7,1.36-1.28,2.59-3.86,5.12-7.78,7.36-11.85.73-1.31,1.11-2.4,1.22-3.4.53-.52.91-1.18,1.13-1.88.38-1.23.53-2.56.72-3.82.13-.83-.15-1.62-.65-2.29-.02-.71-.07-1.42-.17-2.13,1.48,2.59,2.94,5.2,4.62,7.66,3.99,5.87,9.98,9.74,14.21,15.31,2,2.62,6.96.7,6.75-2.57-.27-3.97-.23-8.67.92-12.52.86-2.88,1.13-5.37,1.12-8.13,1.17-.8,1.95-2.19,1.64-3.99h-.02s0,0,0,0Z" fill="url(#radial-gradient-8)" stroke-width="0"/>
          <path d="M497.58,300.16c6.71-.98,13.32-2.6,19.72-4.81,1.74-.61,3.73-1.51,4.13-3.32" fill="none" stroke="#000" stroke-miterlimit="10" stroke-width=".19"/>
          <path d="M492.79,310.08c11.11-2.15,26.6-4.99,37.71-7.13,1.79-.35,5.93-1.57,7.49-2.55" fill="none" stroke="#000" stroke-miterlimit="10" stroke-width=".19"/>
          <path d="M500.35,314.89c17.89-.97,35.72-3,53.37-6.06" fill="none" stroke="#000" stroke-miterlimit="10" stroke-width=".19"/>
          <path d="M507.35,323.21c19.46-.05,39.18-.8,58.1-5.81" fill="none" stroke="#000" stroke-miterlimit="10" stroke-width=".19"/>
          <path d="M523.54,330.99c10.93.09,21.87-.16,32.79-.77,7.13-.39,14.3-.94,21.16-2.92" fill="none" stroke="#000" stroke-miterlimit="10" stroke-width=".19"/>
          <path d="M538.58,343.73l48.19-2.94" fill="none" stroke="#000" stroke-miterlimit="10" stroke-width=".19"/>
          <path d="M546.33,354.1c14.82-.32,29.64.03,44.44-.6" fill="none" stroke="#000" stroke-miterlimit="10" stroke-width=".19"/>
          <path d="M552.33,367.43c11.97.29,24.15-.4,35.94-2.56" fill="none" stroke="#000" stroke-miterlimit="10" stroke-width=".19"/>
          <path d="M557.04,377.26c5.41-.43,10.83-.85,16.23-1.27" fill="none" stroke="#000" stroke-miterlimit="10" stroke-width=".19"/>
          <path d="M558.25,382.47c2.48.08,4.98,0,7.45-.26" fill="none" stroke="#000" stroke-miterlimit="10" stroke-width=".19"/>
          <path d="M431.81,361.17c7.32,5,21.32,10.76,29.73,13.36-.39-.01-4.51-1.49-4.89-1.53" fill="none" stroke="#000" stroke-miterlimit="10" stroke-width=".19"/>
          <path d="M424.85,362.99c2.4,3.24,5.73,5.77,8.76,8.4,3.42,2.96,6.85,5.91,10.33,8.79,6.34,5.23,15.07,12.48,23.01,15.09-1.02-.22-4.14-1.96-5.17-2.19" fill="none" stroke="#000" stroke-miterlimit="10" stroke-width=".19"/>
          <path d="M419.64,365.12c10.46,20.14,27.17,37.83,49.03,44.41" fill="none" stroke="#000" stroke-miterlimit="10" stroke-width=".19"/>
          <path d="M421.38,386.15c13,14.1,26.66,28.57,45.14,35.86" fill="none" stroke="#000" stroke-miterlimit="10" stroke-width=".19"/>
          <path d="M419.2,401.33c10.99,9.79,22.56,19.21,35.87,25.68" fill="none" stroke="#000" stroke-miterlimit="10" stroke-width=".19"/>
          <path d="M411.07,407.93c5.65,8.25,14.1,13.96,22.56,19.03" fill="none" stroke="#000" stroke-miterlimit="10" stroke-width=".19"/>
          <path d="M410.98,417.46c1.68,4.07,4.73,6.5,7.27,9.72" fill="none" stroke="#000" stroke-miterlimit="10" stroke-width=".19"/>
          <path d="M406.64,392.14c-4.19-8.35-7.42-17.17-9.59-26.25" fill="none" stroke="#000" stroke-miterlimit="10" stroke-width=".19"/>
          <path d="M400.23,409.05c-1.52-1.57-2.31-3.68-3.04-5.74-4.31-12.04-8.31-26.96-8.67-39.75" fill="none" stroke="#000" stroke-miterlimit="10" stroke-width=".19"/>
          <path d="M394.88,414.25c-6.71-16.27-11.69-33.97-13.62-51.49" fill="none" stroke="#000" stroke-miterlimit="10" stroke-width=".19"/>
          <path d="M389.89,418.48c-7.85-14.64-13.36-31.29-14.14-47.96-.16-3.29-.38-6.76.2-10.02" fill="none" stroke="#000" stroke-miterlimit="10" stroke-width=".19"/>
          <path d="M381.07,418.42c-8.13-15.06-13.91-31.37-17.08-48.18.27,1.12.54,2.24.81,3.34" fill="none" stroke="#000" stroke-miterlimit="10" stroke-width=".19"/>
          <path d="M373.82,415.59c-7.64-9.45-17.41-21.7-18.51-33.99" fill="none" stroke="#000" stroke-miterlimit="10" stroke-width=".19"/>
          <path d="M360.46,411.08c-5.54-8.12-9.92-17.03-12.96-26.38.22.77.44,1.55.66,2.32" fill="none" stroke="#000" stroke-miterlimit="10" stroke-width=".19"/>
          <path d="M348.48,403.5c-3.56-4.51-5.4-10.1-6.73-15.61" fill="none" stroke="#000" stroke-miterlimit="10" stroke-width=".19"/>
          <path d="M357.35,352.26c-6.15,5.21-10.61,12.37-12.58,20.2" fill="none" stroke="#000" stroke-miterlimit="10" stroke-width=".19"/>
          <path d="M350.89,351.61c-7.99,8.06-16.34,16.06-21.27,26.48" fill="none" stroke="#000" stroke-miterlimit="10" stroke-width=".19"/>
          <path d="M349.52,348.05c-7.64,7.29-20.47,18.71-24.8,28.64" fill="none" stroke="#000" stroke-miterlimit="10" stroke-width=".19"/>
          <path d="M337.96,346.94c-6.4,7.85-14.3,18.29-18.87,27.39" fill="none" stroke="#000" stroke-miterlimit="10" stroke-width=".19"/>
          <path d="M329.79,347.91c-4.15,4.28-7.71,9.12-10.55,14.37-1.77,3.27-3.29,6.85-3.13,10.57,0,.22.08.49.29.53s.16-.45,0-.3" fill="none" stroke="#000" stroke-miterlimit="10" stroke-width=".19"/>
          <path d="M310.83,360.78c3.87-3.75,6.47-7.63,11.15-10.29-.56-.13-1.08-.48-1.41-.94" fill="none" stroke="#000" stroke-miterlimit="10" stroke-width=".19"/>
          <g>
            <path d="M248.87,532.21c.73.32.79.97.77,1.64-.4-.04-.99.19-.81-.63.07-.32.03-.67.04-1.01Z" fill="#fff" stroke-width="0"/>
            <path d="M543.73,258.68c-2.51.18-6.22-1.32-8.79-.03,4.07,3.54,13.12,2.31,18.18,2.04.9-.04,5.28.62,3.77-1.47-1.03-1.42-8.51-.22-10.17-.15-.67-4.82,5.3-4.77,8.84-3.91,4.88,1.18,8.8,5.37,10.63,9.92,3.61,8.94.72,21.42-6.61,27.75-12.99-8.38-26.61-15.35-42.08-18.07-4.41-15.01,15.35-31.12,26.52-16.58-.1.16-.19.33-.3.5h0s0-.02,0-.02Z" fill="url(#radial-gradient-9)" stroke-width="0"/>
            <path d="M545.34,399.27c6.01-15.69-5.86-35.42-16.13-46.59-11.67-12.69-28.65-23.9-46.66-22.36-2.17.19-7.78,5.39-9.59,3.84-2.35-2.01-1-10.9.54-12.13,6.97-5.52,21.35-1.73,29.01.77,16.23,5.29,31.04,17.04,41.1,30.71,5.7,7.75,10.08,16.57,11.95,26.06,1.17,5.94,1.2,24.89-10.23,19.7h0s0,0,0,0Z" fill="url(#radial-gradient-10)" stroke-width="0"/>
            <path d="M590.99,321.11c7.12-2.46,8.34-4.35,8.37-12.91,4.75.76,8.15-.96,12.79-1.17,4.26-.68,7.59-1.46,11.57-2.37,14.53,9.2,9.82,28.39-2.19,37.35-4.57,3.41-15.31,7.01-18.73.63-1.89-3.53-2.92-7.52-4.95-11.07-2.07-3.63-4.49-7.03-6.87-10.46h.01s0,0,0,0Z" fill="url(#radial-gradient-11)" stroke-width="0"/>
            <path d="M474.53,428.34c-3.35,2.49-11.53.96-9.56-2.72,6-11.23,5.65-31.8,2.7-42.83-1.92-7.16-4.73-13.98-9.4-19.8-4.29-5.35-9.3-5.93-14.93-7.87-2.03-.7-4.14-1.71-.88-5.99,4.42-5.81,16.38.05,20.48,4.15,7,6.99,12.45,16,15.18,25.37,2.95,10.12,4.76,21.91,3.61,32.45-.45,4.22-2.8,13.99-7.19,17.25h0s0-.01,0-.01Z" fill="url(#radial-gradient-12)" stroke-width="0"/>
            <path d="M383.03,419.44c12.2,3.6,21.22-15.09,24.13-23.87,1.93-5.82,3.34-11.29,2.93-17.43-.48-7.01-3.09-11.71-8.75-15.58.94-4.67,9.66-4.55,12.77-2.65,3.37,2.07,5.15,5.98,6.2,9.64,2.68,9.34.86,20.54-1.92,29.69-2.62,8.59-7.68,18.87-14.71,24.72-3.38,2.81-7.87,5.18-12.37,4.93-6.43-.6-10.46-5.11-8.28-9.46h0s0,0,0,0Z" fill="url(#radial-gradient-13)" stroke-width="0"/>
            <path d="M319.52,377.64c4.8,1.57,9.05,2.35,14.14.86,4.22-1.25,8.06-3.58,11.65-6.14,8-5.72,10.59-13.31,11.03-22.28,7.52-4.77,13.18,5.22,10.02,13.18-1.95,6.91-7.91,13.17-13.43,17.47-5.55,4.32-13.08,8.3-20.09,9.46-9.51,1.29-17.58-4.69-13.3-12.54h-.01s0,0,0,0Z" fill="url(#radial-gradient-14)" stroke-width="0"/>
            <path d="M502.66,263.13c2.43,1.5,10.71,1.96,12.66-1.01.81-1.24.88-1.36-.62-1.5-2.34-.22-5.06,2.23-7.63,2.03,2.07-3.2,6.3-6.78,10.34-4.97,1.38.97,2.25-.78,1.33,4.14-.17.9-1.26,2.99-1.87,5.9-.84,3.82-.72,6.47-1.59,6.69-.58.14-2.68-.37-2.79-.38-1.63-.21-3.11-.22-4.99-.1-2.39.16-2.01-.15-4.09.11-2.35.3-4.48,3.6-6.01,1.93-2.5-2.75-6.31-5.82-9.58-4.31-.05.02-.09.04-.11.03-.25-.16-1.01-8.79,3.53-12.1,1.81-1.32,6.16-1.65,9.13-.96,1.4.32,4.6,3.13,5.2,3.71-.74.31-1.97.42-2.92.81h0s.02-.01.02-.01Z" fill="url(#radial-gradient-15)" stroke-width="0"/>
            <path d="M304.01,330.81c3.2,9.14,14.53,9.86,22.74,7.18,2.29-.75,4.31-2.13,6.24-3.59,1.3-.98,3.16-3.86,4.48-4.4,4.05-1.65,5.79,6.92,4.63,9.27-4.08,8.3-21.45,10.2-29.29,9.43-4.53-.44-10.07-2.8-12.54-7.01-1.8-3.09-.68-10.04,3.75-10.87h0s0,0,0,0Z" fill="url(#radial-gradient-16)" stroke-width="0"/>
            <path d="M577.37,287.39c-10.2-.36-9.19-16.54,1.01-15.93,10.23.62,9.18,16.29-1.01,15.93Z" fill="url(#radial-gradient-17)" stroke-width="0"/>
            <path d="M475.13,292c10.27.19,10.19,16.05-.17,15.85-10.12-.19-9.98-16.05.17-15.85h0Z" fill="url(#radial-gradient-18)" stroke="url(#radial-gradient-19)" stroke-miterlimit="10" stroke-width=".74"/>
            <path d="M460.91,295.34c-10.11-.2-9.97-16.02.26-15.81,10.09.2,9.96,16.02-.26,15.81Z" fill="url(#radial-gradient-20)" stroke="url(#radial-gradient-21)" stroke-miterlimit="10" stroke-width=".74"/>
            <path d="M465.92,296.69c-.96,3.65-.16,6.8,2.03,9.49-2.65,7.08-12.39,8.08-15.39.58-1.21-3.03-.73-7.78,2.2-9.81,1.94-1.35,1.87-.64,4.2-.24,2.4.4,4.58-.09,6.96-.03h0Z" fill="url(#radial-gradient-22)" stroke="url(#radial-gradient-23)" stroke-miterlimit="10" stroke-width=".74"/>
            <path d="M587.35,287.43c9.93.28,9.91,15.28.3,15.74-10.5.5-10.93-16.04-.3-15.74h0Z" fill="url(#radial-gradient-24)" stroke-width="0"/>
            <path d="M603.41,307.1c-9.71-.18-9.91-14.88-.42-15.67,10.55-.87,11.13,15.87.42,15.67Z" fill="url(#radial-gradient-25)" stroke-width="0"/>
            <path d="M587.12,285.59c.13-4.56-.01-9.22,4.9-11.19,4.19-1.69,9.1.35,10.66,4.63,1.36,3.78-.61,8.74-4.51,10.21-3.91,1.48-6.82-3.3-11.05-3.66h0Z" fill="url(#radial-gradient-26)" stroke-width="0"/>
            <path d="M485.66,284.32c.33,9.26-16.38,8.98-15.82-1.06.57-10.18,16.12-9.15,15.82,1.06Z" fill="url(#radial-gradient-27)" stroke="url(#radial-gradient-28)" stroke-miterlimit="10" stroke-width=".74"/>
            <path d="M463.67,313.47c.74,4.1,3.86,8.21.21,11.59-3.27,3.04-8.45,2.66-11.26-.76-2.32-2.81-2.76-8.22.11-10.93,1.94-1.83,2.07-.66,4.48,0,2.29.64,4.17.03,6.46.09h0s0,0,0,0Z" fill="url(#radial-gradient-29)" stroke="url(#radial-gradient-30)" stroke-miterlimit="10" stroke-width=".74"/>
            <path d="M569.05,283.46c2.31,3.89,5.44,6.04,9.98,6.38-1.21,3.14-2.02,6.24-.27,9.59-2.44.69-4.28,1.45-6.45,2.76-3.53-2.71-7.1-5.44-10.86-8.32,4.06-3.43,5.69-5.39,7.6-10.4h0s0,0,0,0Z" fill="url(#radial-gradient-31)" stroke-width="0"/>
            <path d="M597.72,312.17c-.24,3.29-3.6,7.86-7.42,7.13-2.4-.45-7.78-6.57-7.9-8.87-.45-8.72,16.01-8.09,15.31,1.73h0Z" fill="url(#radial-gradient-32)" stroke-width="0"/>
            <path d="M613.74,300.14c-1.01-3.78-2.75-9.36,1.14-12.24,2.76-2.05,7.1-1.29,9.49.95,2.59,2.44,3.2,6.27,1.29,9.28-2.92,4.58-7.44,2.14-11.91,2.01h0Z" fill="url(#radial-gradient-33)" stroke-width="0"/>
            <path d="M310.31,297.72c3.8,4.19,10.75,6.74,15.87,8.91,1.91.8,6.85,2.03,7.87,3.74,1.29,2.15-1.76,5.65-3.89,6.09-4.33.89-13.28-5.24-16.99-7.09-5.84-2.58-10.05-8.57-2.85-11.65h0s0,0,0,0Z" fill="url(#radial-gradient-34)" stroke-width="0"/>
            <path d="M470.09,308.01c4.2,2.5,8.97-.55,10.98,4.9,2.03,5.54-2.35,5.24-5.99,7.73-1.97,1.35-2.11,2.28-4.39,1.69-1.41-.37-3.11-2.16-3.83-3.36-2.6-4.32.13-8.01,3.26-10.96h0s0,0,0,0Z" fill="url(#radial-gradient-35)" stroke="url(#radial-gradient-36)" stroke-miterlimit="10" stroke-width=".74"/>
            <path d="M491.52,287.86c.7,2.73,2.15,5.1,5.64,5.75-.63,2.45-1.67,7.4-4.09,8.71-2.41,1.3-6.32-.27-7.86-2.27-1.46-1.91-2.07-6.21-1.19-8.42,1.4-3.53,4.15-3.86,7.5-3.77h0Z" fill="url(#radial-gradient-37)" stroke="url(#radial-gradient-38)" stroke-miterlimit="10" stroke-width=".74"/>
            <path d="M609.7,291.61c-.88-3.91-3.19-5.1-6.65-5.96.08-2.87-.27-6.84,2.17-8.74,1.9-1.48,5.5-2.51,7.75-1.82,2.92.89,8.48,6.51,6.52,9.98-1.72.37-7.1,2.31-9.78,6.55h0Z" fill="url(#radial-gradient-39)" stroke-width="0"/>
            <path d="M485.21,302.35c2.3,1.79,4.84,1.98,7.62,1.9-1.2,3.01-5.17,14.15-9.11,13.04-.58-.75-1.53-6.37-1.46-7.61.14-2.47,1.95-5.11,2.94-7.32h0s0,0,0,0Z" fill="url(#radial-gradient-40)" stroke="url(#radial-gradient-41)" stroke-miterlimit="10" stroke-width=".74"/>
            <path d="M470.31,325.05c-.41,4.21-.1,6.48,1.32,10.51-1.45,1.12-3.18,2.45-4.84,3.75-5.91-3.36-4.37-16.78,3.53-14.26h0Z" fill="url(#radial-gradient-42)" stroke="url(#radial-gradient-43)" stroke-miterlimit="10" stroke-width=".74"/>
            <path d="M583.54,304.41c-1.04,1.74-1.99,3.35-3.06,5.16-2.16-1.94-4.33-3.9-6.67-6,3.72-3.68,6.32-1.8,9.73.84Z" fill="url(#radial-gradient-44)" stroke-width="0"/>
            <path d="M496.15,276.48c-1.67,2.04-2.03,2.5-3.19,4.71-.71,1.34-3.48,2.48-6.28-.74-2.77-3.21-.66-6.91,1.85-8.56,3.34-2.2,8.8,2.84,7.62,4.6h0Z" fill="url(#radial-gradient-45)" stroke="url(#radial-gradient-46)" stroke-miterlimit="10" stroke-width=".74"/>
            <path d="M344.69,282.02c-1.35,1.51-3.29,3.23-4.57,4.67-1.95-2.6-5.24-6.49-7.37-8.94,3.81.17,9.06,1.84,11.95,4.28h0Z" fill="url(#radial-gradient-47)" stroke-width="0"/>
            <path d="M608.12,291.79c-2.98-1.09-7.12-.66-8.68-1.51,4.89-7.86,8.9-5.49,10.67-.44,1.52,4.34-.78,2.39-2,1.94h0s0,0,0,0Z" fill="url(#radial-gradient-48)" stroke-width="0"/>
            <path d="M621.92,303.79c-2.7,2.24-10.76,3.69-13.04,2.46,1.3-5.12,11.06-7.57,13.04-2.46Z" fill="url(#radial-gradient-49)" stroke-width="0"/>
            <path d="M469.56,292.84c-.15-.83-.2-3.82.52-3.83.12,0,2.32,1.97,2.31,1.99-.27.29-2.43,1.47-2.83,1.84h0s0,0,0,0Z" fill="url(#radial-gradient-50)" stroke-width="0"/>
            <path d="M602.31,351.05c-.01-.4-.08-.77-.18-1.12-.11-.75-.28-1.5-.56-2.28-.03-.08-.06-.14-.09-.22-.1-.51-.2-1-.3-1.5-.1-.58-.22-1.16-.35-1.74-.24-1.06-.79-1.8-1.47-2.27-.04-.18-.1-.35-.14-.53,0-.16,0-.32-.02-.48.01-.41-.06-.85-.21-1.33-1.11-3.45-2.56-6.63-4.58-9.65-.35-.51-.74-.91-1.19-1.2-.18-.28-.36-.57-.54-.85-.7-1.48-1.5-2.89-2.44-4.27-.42-.61-.92-1.06-1.44-1.38-.25-.4-.49-.78-.73-1.18-.42-.69-.95-1.16-1.52-1.48-.16-.39-.39-.72-.66-1-.25-.62-.51-1.25-.81-1.86-.57-1.18-1.71-1.78-2.93-1.91-.13-.23-.28-.46-.46-.7h0c-.29-.66-.66-1.14-1.09-1.48-.44-1.76-1.7-2.64-3.07-2.82-1.03-1.03-2.11-2.02-3.22-2.96-.25-.28-.52-.56-.81-.82-.08-.07-.15-.13-.23-.19-.51-.49-1.03-.97-1.63-1.44-.38-.31-.78-.5-1.15-.63-.11-.08-.22-.16-.32-.25-.41-.43-.84-.85-1.29-1.26-.38-.33-.82-.58-1.28-.76-.45-.44-.95-.83-1.48-1.21-.45-.49-.98-.92-1.56-1.32-.17-.15-.35-.31-.53-.46-.88-1.1-1.94-2.04-3.21-2.89-.13-.09-.28-.16-.42-.22-2.62-2.16-5.35-4.14-8.65-5.54-7.61-3.23-14.54-7.56-22.43-10.27-6.45-2.21-13.72-5.01-20.51-3.43-1.65-.05-3.33.21-5.2.36-3.44.28-6.36,2.49-8.31,5.24-1.85,2.62-3.09,6.65.23,8.74,2.58,1.62,5.98-.28,8.28-2,.53-.01,1.06-.09,1.57-.2.46-.1.91-.2,1.33-.25.24.2.5.38.78.53,1.13.85,2.53.79,3.71.16.1.03.2.04.3.07.89.21,2.41.35,3.11.87,1.16.86,2.34.93,3.31.51.41.14.82.26,1.23.41.6.57,1.43.95,2.52.97h.16c.45.17.9.33,1.36.51.81.32,1.55.36,2.19.2,1.7.59,3.33,1.44,4.97,2.23,2.94,1.4,5.9,2.76,8.82,4.19h0c.18.35.45.69.81.99.64.54,1.28.97,1.93,1.34.17.15.37.31.6.49,1.61,1.25,3.71,1.31,5.31,2.46.89.64,1.79.82,2.6.69.26,1.12,1.09,2.05,2.65,2.33.88.16,1.75.32,2.63.47.14.66.52,1.3,1.2,1.88,3.22,2.76,6.08,5.8,8.62,9.19,1.12,1.49,2.82,1.59,4.23.92.35.31.71.61,1.06.92.02.05.03.09.06.14.32.69.76,1.19,1.25,1.52.11.17.22.34.33.51.26.39.57.7.92.96.16.21.32.43.5.64.18.23.37.43.56.59.03.04.06.09.09.13.41.58.74,1.19,1.05,1.84.35.69.79,1.19,1.28,1.53.06.08.12.15.18.23.47.69.95,1.36,1.42,2.05.31.45.67.79,1.05,1.06,1.05,1.59,2.1,3.17,3.15,4.76.46.7,1.04,1.19,1.66,1.49.06.14.13.28.19.42.04.13.09.27.14.4.43,1.09.86,2.17,1.29,3.25.35.88.94,1.44,1.65,1.74.47.81.96,1.58,1.48,2.36-.04.42-.03.86.08,1.33.46,1.97,1.16,3.78,2.13,5.56.11.2.23.38.36.54.37,2.27.17,4.37-.63,6.73-1.47,4.38,4.67,6.65,6.95,3.35,1.05-.29,1.98-1.1,2.45-2.59.3-.96.53-1.9.74-2.86.11-.17.2-.37.28-.58.65-.6,1.07-1.51,1.04-2.74s-.07-2.46-.1-3.69v-.02s-.04,0-.04,0Z" fill="url(#radial-gradient-51)" stroke-width="0"/>
            <path d="M587.12,274.4c-.26.1-.52.19-.78.29-.26-.41-.06-.64.59-.7.06.14.13.28.19.41h0Z" fill="#fff" stroke-width="0"/>
            <path d="M481.39,306.17c.59.25-.36,3.73-.79,4.25-1.39-.22-.57-3.72.79-4.25Z" fill="url(#radial-gradient-52)" stroke-width="0"/>
          </g>
          <path d="M623.98,302.01c-.26-.04-.06-.61.8-.97,0,0,2.46-2.4,2.72-3.23.96-3.02,2.03-5.75-1.24-9.89-.06-.09-.16-.15-.25-.23-1.23-1.08-3.91-2.65-5.63-2.76,0,0,1.47-3.38-1.55-6.74-1.36-1.51-3.11-2.6-5.86-3.45-2.69-.83-5.75.27-6.62,1.1-2.24,2.12-3.41.67-5.55-1.44-.95-.52-2.31-1.26-3.56-1.59-.42-.12-1.12-.16-1.2-.2-.53-.27,4.84-8.89,6.07-13.47,1.13-4.22,2.66-13.67.62-22.4-.93-3.96-2.24-7.83-3.78-11.61-.74-1.82-1.47-4.73-2.79-6.23-1.75-1.97-1.19-1.32-2.95.12-2.42,2.01-4.66,6.74-6.93,9.09-1.78,1.85-3.57,3.69-5.22,5.67-3.85,4.61-8.23,8.88-11.84,13.74-2.16,2.9-3.42,7.12-5.72,9.71-2.35-2.37-5.41-3.35-8.58-4.14,2.4-5.96,4.03-11.47,3.38-18-.31-3.03-1.01-6-1.91-8.91-.8-2.6-1.66-7.71-3.49-9.75-1.96-2.18-2.48-.45-4.01,1.73-1.99,2.86-3.9,5.78-5.93,8.62-1.97,2.78-4.05,5.47-6.02,8.25-1.48,2.12-2.91,5.78-5,7.32-6.96-8.92-19.81-9.53-26.59-7.4,1.35,3.16,3.77,6.11,5.35,9.22,1.82,3.58,3.4,7.27,5.39,10.77.3.53.85,1.28,1.38,2.08-2.84-1.16-6.49-.58-10.63,2.39-.51-4.03-1.81-7.28-5.17-9.5l-3.26.35c.09.15.15.32.23.48.08.08.14.16.2.24,1.03.21,3.3.92,4.86,3.19.95,1.4,1.42,3.16,1.26,5.16,0,0-.38.1-.72.05-2.01-1.21-4.12-2.24-6.26-2.68-.08.06-2.26-.92-7.53,1.75-4.54,2.3-5.43,9.02-3.97,14-.95.39-2.36,4.52-3.94,3.68-2.32-1.23-7.19-1.44-8.91-.6-3.86,1.87-4.77,4.11-5.36,5.58-4.13-3.56-9.93-4.53-14.11-.38-4.14,4.12-2.55,9.63.34,13.98-5.18,4.71-5.69,10.06-1.83,15.87-7.47,7.87-2.14,20.24,9.02,17.91-1.43,4.95.41,8,2.59,12.33-2.76,1.58-5.71,4.16-8.96,3.95-3.23-.21-5.53-2.01-8.99-1.26-7.03,1.52-7.44,6.81-8.9,12.46-2.57,2.23-8.81,2.86-12.11,3.51-4.18.84-6,1.54-9.28-.92-5.76-4.33-15.45-3.98-17.27,4.39-8.79-.8-17.75-1.67-26.12-4.69-5.7-2.05-4.81-9.58-11.73-11.02-2.96-.61-5.59,1.23-8.2.34-2.18-.74-7.5-5.65-7.89-7.95-.61-3.48,1.21-5.96-1.33-9.16-2-2.52-4.85-3.16-7.91-3.25-1.22-4.12-2.91-6.85-.8-10.48,1.45-2.5,3.01-4.59,1.36-7.57-.9-1.63-2.5-2.16-2.93-3.96-.39-1.63,1.13-4.68,1.72-6.17,1.12-2.89,2.45-5.8,4.61-7.91,2.16-2.1,4.68-4.32,6.71-6.94,2.65-3.4.3-5.11-3.21-6.95-3.19-1.67-17-4.63-13.92,2.52-6.58,4.09-11.6,9.71-15.4,16.46-6.55-1.24-11.77,3.96-8.67,10.61,1,2.14,1.77,1.97,1.72,4.39-.03,1.67-.99,4.03-1.3,5.69-.69,3.83-.83,7.67-1.26,11.53-9.63,4.3-8.46,13.33-1.2,19.46,3.95,3.34,4.8,9.98,6.97,14.73,2.21,4.82,5,9.27,7.79,13.77-1.94,6.28-1.03,11.93,5.51,15.05,2.86,1.37,5.68.65,8.53,1.54,2.97.93,5.94,4.3,8.47,6.09,12.35,8.73,25.83,14.71,39.84,20.21-.22,7.69,4.88,12.62,12.75,12.2,3.85-.2,7.18-1.8,10.37-3.79,3.75-2.34,5.88-1.41,10.28-.83,8.42,1.1,16.95,1.44,25.44,1.46,4.2.01,8.39-.13,12.57-.42,3.45-.24,7.52-1.54,10.43.43,2.69,1.82,3.72,3.39,7.38,3.38,2.88,0,5.65-.97,7.87-2.82,2.19-1.83,3.19-4.61,5.74-5.98,3-1.61,9.86-3.31,13.15-4.24,16.59-4.71,30.22-10.33,45.7-17.84,4.5,3.38,9.51,3.52,13.73-.6,3.81-3.73,2.39-8.51,4.74-12.59,1.13-1.96,4.17-3.33,5.99-4.65,1.61-1.16,3.21-2.36,4.79-3.57-1.15,3.33-1.7,6.88-1.76,10.4-.11,5.51.82,11.03,2.33,16.31.66,2.32,2.64,11.95,5.19,12.68,2.07.6,8.18-10.78,9.41-12.62,3.27-4.87,6.8-9.72,9.19-15.12.85-1.89,1.5-3.87,1.92-5.88,2.36,3.28,3.84,5.37,4.17,5.89,2.16,3.32,18.19,19.36,19.58,13.83,2.56-10.17,4.38-21.99,5.01-32.44.6-10.21-2.8-17.47-10.12-24.39,1.23-1.39,3.66-2.01,5.25-3.04,2.27-1.48,4.38-3.24,6.23-5.23,3.29-3.55,6.02-7.92,7.17-12.65,2.52-10.38-3.99-23.96-10.68-25.17l.02-.02h0ZM624.36,288.86c2.59,2.44,3.2,6.27,1.29,9.28-2.92,4.58-7.44,2.14-11.91,2.01-1.01-3.78-2.75-9.36,1.14-12.24,2.76-2.05,7.1-1.29,9.49.95h0ZM621.92,303.79c-3.76,1.16-9.82,1.88-12.64,2.61,2.11-4.89,7.37-6.92,12.64-2.61ZM606.73,277.21c1.9-1.48,4.38-1.64,6.62-.95,2.92.89,7.58,5.35,5.61,8.81-3.17.06-6.1,1.11-8.19,4.74-.89-4.02-3.78-4.53-7.03-4.39.88-3.5.55-6.3,2.99-8.2h0ZM587.35,287.43c9.93.28,9.91,15.28.3,15.74-10.5.5-10.93-16.04-.3-15.74h0ZM577.37,287.39c-10.2-.36-9.19-16.54,1.01-15.93,10.23.62,9.18,16.29-1.01,15.93ZM579.03,289.84c-1.21,3.14-2.02,6.24-.27,9.59-2.44.69-4.28,1.45-6.45,2.76-3.53-2.71-7.1-5.44-10.86-8.32,4.06-3.43,5.69-5.39,7.6-10.4,2.31,3.89,5.44,6.04,9.98,6.38h0s0,0,0,0ZM583.54,304.41c-1.04,1.74-1.99,3.35-3.06,5.16-2.16-1.94-4.33-3.9-6.67-6,3.72-3.68,6.32-1.8,9.73.84ZM597.72,312.17c-.24,3.29-3.6,7.86-7.42,7.13-2.4-.45-7.78-6.57-7.9-8.87-.45-8.72,16.01-8.09,15.31,1.73h0ZM602.99,291.42c10.55-.87,11.13,15.87.42,15.67-9.71-.18-9.91-14.88-.42-15.67h0ZM610.18,292.1c-6.11-2.75-8.46-1.34-10.74-1.81,6.82-8.45,11.1-1.15,10.74,1.81ZM602.68,279.03c1.36,3.78-.61,8.74-4.51,10.21-3.91,1.48-6.82-3.3-11.05-3.66.13-4.56-.01-9.22,4.9-11.19,4.19-1.69,9.1.35,10.66,4.63h0ZM594.26,271.58c-1.56.42-3.05.91-4.48,1.46-1.02.39-3.84-.19-5.18-.01,2.13-3.82,11.93-11.57,14.91-11.93-.15,4.3-3.67,6.84-5.26,10.49h0ZM599.62,260.5c-.26-.73-7.22,2.36-8.43,3.34-2.57,2.06-5.44,6.35-8.64,7.12,1.03-4.28,2.57-10.67,5.64-13.89,3.03-3.18,9.18-6.41,13.25-7.98,1.08,2.18-.12,9.46-1.83,11.42h0s0,0,0,0ZM595.97,223.72c.92,1.55,2.84,4.85,2.42,6.62-.41,1.73-3.5,4.03-4.69,5.29-.41-3.19.72-9.08,2.27-11.9h0ZM599.62,232.71c1.55,4.29,2.54,8.63,2.73,13.22-4.69,2.88-9.34,5.72-13.99,8.57l-.28-.23c2.81-7.69,2.9-17.71,11.55-21.55h0ZM592.58,223.66c.15.06.31.13.46.18.03,1.82.14,3.65-.48,5.41-.17.03-.34.08-.51.11-.57-1-1.14-2.01-1.75-3.07.84-.97,1.56-1.81,2.28-2.65h0ZM589.49,227.46c1.81,2.99,3.53,5.7,1.59,9.25-2.59-2.88-4.42-6.43-1.59-9.25ZM586.57,231.16c1.49,3.5,3.95,7.3,3.3,11.12-.44,2.58-1.93,10.1-3.75,11.94-1.93-3.72-5.25-10.73-5.46-14.91-.16-3.21,3.26-6.47,5.9-8.15h0ZM566.41,256.03c2.24-6.65,7.89-11.42,12.52-16.36,4.67,8.76,8.59,20.45,1.94,29.2-1.67-1.9-2.02-4.72-3.16-7.23-.94-2.08-5.83-12.87-6.21-14.12-1.42,2.04,6.99,18.56,7.8,22.11-1.61.24-3.03.45-4.62.68-.95-1.52-2.49-1.32-4.18-.67.94.32,1.86.65,3.08,1.07-1.26,1.12-2.37,2.11-3.67,3.28-.61-3.12-.49-6.43-1.59-9.43-1.27-3.45-3.19-4.72-1.9-8.54h0ZM555.1,248.57c-1.51,4.7-3.68,4.52-8.32,5.39,2.03-3.2,5.59-5.9,8.26-8.55-1.31-2.18-7.78,7.2-9.71,8.2.48-2.92,1.06-7.14,2.68-9.65,1.64-2.53,5.99-5.29,8.64-6.67.24,3.71-.41,7.71-1.56,11.28h0ZM551.5,219.4c1.25,1.31,1.89,2.59,2.71,5.27-1.08,1.22-2.03,2.64-3.82,3.84.39-3.19.73-6.01,1.11-9.12ZM554.61,226.14c1.11,1.93,2.89,6.78,2.16,9-.61,1.81-6.48,5.59-8.36,6.23.43-2.72.57-5.76,1.34-8.4.83-2.82,2.9-4.63,4.87-6.82h0ZM549.42,220.35c.48,1.61.14,5.99-.96,8.13-1.48-3.49-2.4-5.33.96-8.13ZM545.68,225.24c2.65,5.62,2.64,8.99,1.56,15.07-.14.03-.28.05-.42.09-1.35-1.91-3.57-6.6-3.89-8.98-.35-2.63,1.21-4.08,2.75-6.17h0s0,0,0,0ZM541.27,231.29c1.95,3.05,4,7.58,4.76,11.14.63,2.99-.79,6.27-1.56,9.19-2.7-3.75-4.34-7.63-6.32-11.28-.15.04-.3.09-.45.14.87,4.63,5.08,8.32,5.66,12.91-2.31,1.07-7.23-3.48-7.99-5.4-.77,1.15-.57,3.31-2.9,2.27-2.15-6.62,5.2-14.17,8.82-18.96h0s0,0,0,0ZM544.04,258.15c-.1.16-.19.33-.3.5-2.74-.3-7.01-1.65-9.39.05,4.07,3.54,13.72,2.23,18.78,1.97.9-.04,5.28.62,3.77-1.47-1.03-1.42-8.51-.22-10.17-.15-.67-4.82,5.3-4.77,8.84-3.91,4.88,1.18,8.8,5.37,10.63,9.92,3.61,8.94.72,21.42-6.61,27.75-12.99-8.38-26.38-15.81-41.85-18.51-.11-.46-.2-.93-.27-1.39.34-7.58.71-8.32,3.54-13.05,5.55-7.56,16.11-10.98,23.02-1.68h0s0-.02,0-.02ZM519.48,248.57c3.75-3.4,6.28.07,8.83,2.95-3.02.2-5.53-2.69-8.83-2.95ZM530.3,250.68c-2.23-1.8-3.39-8.21-3.48-11.06,3.88,2.13,5.97,7.05,3.48,11.06ZM527.53,248.3c-1.3-.12-5.3-3.86-6.11-5.02-1.27-1.84-1.23-4.88-1.6-7.08,6.71,1.03,6.48,6.46,7.7,12.1h0ZM518.51,235.7c.4,1.98.8,3.86,1.2,5.79-3.34-.72-5.36-2.81-6.02-6.4,1.7.21,3.21.39,4.82.6h0ZM512.64,237.03c-1.38.14-2.29-.75-3.7-1.34,2.65-1.04,3.14-.85,3.7,1.34ZM508.07,236.47c1.98.89,3.61,1.72,5.58,2.92-3.25.32-4.44-.32-5.58-2.92ZM510.72,241.15c2.64-1.5,6.41-.4,8.59,2.67-2.94-.25-7.5.63-8.59-2.67ZM512.42,244.86c2.65-.79,8.1-.25,9.85,1.01-2.14,1.24-6.04,1.56-8.49,2.04,3.42,1.13,9.21,1.43,12,4.71-1.21.94,1.32-1.02,0,0-1.08-1.51-7.75,1.78-8.49-.14,3.18-.06,7.16,1.95,7.16,1.95-.01,1.42-4.42,3.4-4.69,3.58-3.21-2.69-5.49-9.28-7.33-13.16h0ZM518.21,277.54c.05.07.11.14.16.21.22-.02.43-.04.65-.07.47,0,.93.11,1.34.3,3.65.8,7.22,1.92,10.69,3.26,12.97,5.05,25.31,12.44,36.19,21.07,10.69,8.47,20.86,18.58,27.58,30.55,3.2,5.68,6.44,12.5,7.03,19.08.53,5.81-2.73,15.86-10.35,11.97,3.72-11.02-3.92-23.21-10.34-31.68-6.58-8.67-14.55-16.43-23.19-23.03-8.02-6.13-31.19-18.77-45.98-20.33-6.36-1.17-7.58-1.59-12.22,1.49-1.75,1.15-4.07-.43-4.07-.43-1.03-.78-1.41-2.49-1.41-3.67,0-1.65.86-5.34,3.93-7.36,2.75-1.81,6.51-2.13,9.72-2.2,3.45-.08,6.88.23,10.27.85h0ZM570.21,347.83c-6.2,7.74-13.15,15.48-15.74,17.13-2.1-3.65-4.21-7.29-6.42-11.13,4.86-5.52,20.19-25.81,22.43-29.06,3.29,3.5,6.24,6.86,8.83,10.64-1.69,2.69-9.24,12.21-9.09,12.41h0s0,0,0,0ZM481.06,312.92c2.03,5.54-2.35,5.24-5.99,7.73-1.97,1.35-2.11,2.28-4.39,1.69-1.41-.37-3.11-2.16-3.83-3.36-2.6-4.32.13-8.01,3.26-10.96,4.2,2.5,8.97-.55,10.98,4.9h0s0,0,0,0ZM480.57,307.43c.59.25.68.63.24,1.14-.65-.2-.72-.59-.24-1.14ZM475.05,307.86c-10.12-.19-9.98-16.05.17-15.85,10.27.19,10.19,16.05-.17,15.85ZM470.7,290.61c.12,0,.36.36.34.39-.27.29-.56.55-.97.94-.15-.83-.1-1.3.62-1.31h0ZM485.21,302.35c2.3,1.79,4.84,1.98,7.62,1.9-1.2,3.01-5.17,14.15-9.11,13.04-.58-.75-1.53-6.37-1.46-7.61.14-2.47,1.95-5.11,2.94-7.32h0s0,0,0,0ZM498.99,298.8c2.28-5.53,3.6-10.49,10.88-8.15-1.82,6.96-5.23,13.81-8.59,20.15-.91,1.71-2.3,5.8-4.07,6.82-1.61.92-5.21-.29-6.87-.51,2.33-6.26,6.09-12.08,8.66-18.28h0s0-.01,0-.01ZM511.68,290.89c4.94.49,9.55,2.24,14.59,4.08-4.44,9.75-9.15,19-15.21,27.52-4.12-1.41-8.08-2.78-12.06-4.15,4.59-9.05,8.78-18.08,12.71-27.45h0s0,0,0,0ZM527.62,295.62c2.09.79,4.1,1.67,6.06,2.6.38.5,6.67,3.1,6.85,3.57.05.03.11.06.17.09-.02.05-.05.12-.07.19.02.07.05.14.06.21.03.34-2.52,4.6-2.58,4.62-4.35,7.6-12.62,20.32-14.92,22.56-3.52-2.06-6.93-4.07-10.58-6.21,5.48-9.02,10.41-18.14,15.02-27.65h0ZM540.28,307.04c.21-.26,1.61-3.31,2.1-4.09,4.37,2.23,11.22,6.85,12.92,8.7-.57,1.26-17.14,26.13-19.31,28.27-3.69-3.08-7.39-6.17-11.06-9.24,5-7.95,15.35-23.63,15.36-23.65h0ZM550.92,321.53l1.25-1.85c1.57-2.32,3.13-4.63,4.72-6.98,4.47,3.26,8.57,6.97,12.41,10.93-1.06,1.85-3.59,5.47-6.59,9.52,0,0-13.84,17.85-15.64,19.14-3.17-3.65-6.34-7.29-9.54-10.97,4.43-6.54,8.88-13.13,13.39-19.8h0ZM504.96,262.22c-.74.31-1.25.52-2.21.92,1.03.64,6.13,1.17,6.13,1.17,2.74-.02,5.5-.62,6.53-2.19.81-1.24.88-1.36-.62-1.5-2.23-.21-4.76,1.96-7.21,2.04l-.23-.3c2.1-3.1,7.81-5.14,11.74-3.38-.44.74-3.32,9.55-3.6,13.1v.02c-.09.15-.61,2.09-1.81,1.94-2.36-.27-1.54-.3-4.26-.5-2.81.08-4.03-.17-6.33.28-2.27.45-3.63,1.02-5.59,2.15-2.19-3.52-5.39-5.39-9.55-5.1-1.7-11.04,9.2-16.05,17.01-8.65h0s0,0,0,0ZM488.31,272.71c2.1-.89,8.12,1.81,7.46,3.93-1.67,2.04-2.24,2.9-3.41,5.11-2.17.86-3.25-.26-5.28-2.33-.7-2.41-1.44-5.59,1.23-6.7h0ZM491.52,287.86c.7,2.73,2.15,5.1,5.64,5.75-.63,2.45-1.67,7.4-4.09,8.71-2.41,1.3-6.32-.27-7.86-2.27-1.46-1.91-2.07-6.21-1.19-8.42,1.4-3.53,4.15-3.86,7.5-3.77h0ZM485.75,284.32c.33,9.26-16.38,8.98-15.82-1.06.57-10.18,16.12-9.15,15.82,1.06ZM461.17,279.53c10.09.2,9.96,16.02-.26,15.81-10.11-.2-9.97-16.02.26-15.81ZM452.55,306.76c-1.21-3.03-.73-7.78,2.2-9.81,1.94-1.35,1.87-.64,4.2-.24,2.4.4,4.58-.09,6.96-.03-.96,3.65-.16,6.8,2.03,9.49-2.65,7.08-12.39,8.08-15.39.58h0ZM452.62,324.31c-2.32-2.81-2.76-8.22.11-10.93,1.94-1.83,2.07-.66,4.48,0,2.29.64,4.17.03,6.46.09.74,4.1,3.86,8.21.21,11.59-3.27,3.04-8.45,2.66-11.26-.76h0s0,0,0,0ZM470.31,325.05c-.41,4.21-.1,6.48,1.32,10.51-1.45,1.12-3.18,2.45-4.84,3.75-5.91-3.36-4.37-16.78,3.53-14.26h0ZM471.49,340c2.87-2.14,6.59-4.77,9.54-5.97,23.43-15.6,76.88,50.14,59.8,64.52-4.95,1.66-21.93,9.86-27.25,12.34-2.14.99-33.23,11.12-31.92,9.19,9.64-14.24-2.73-64.89-21.14-72.98,3.73-2.28,7.46-4.5,10.98-7.11h0s0,0,0,0ZM435.73,360.39c5.31-1.8,7.87-2.94,13.36-1.29-1.23,3.5-12.15,4.92-15.24,5.45-3.05.52-12.23,3.32-13.06-.66,5.02-.98,10.06-1.86,14.93-3.51h0ZM452.89,409.53c-10.73.72-24.39,1.63-34.75-1.61,1.37-4.05,2.69-7.98,4.1-12.17,14.55.31,29.1-.73,43.83-3.76.26,2.08.59,4.15.76,6.24.15,1.81,1.15,6.69.36,8.28-1.6,3.19-10.76,2.79-14.31,3.02h0ZM465.62,417.48c-1.27,1.3-3.84,1.04-5.51,1.22-5.46.61-10.93.98-16.42,1.11-10.22.24-21.18.54-31.24-1.5,1.65-2.93,3.19-5.66,4.84-8.62,16.52,2.25,33.02,2.34,49.52-.11.07,1.71.11,6.56-1.19,7.89h0ZM422.44,394.02c1.22-6.02,1.46-11.8,1.27-17.81,12.1-.28,24-1.44,35.71-4.92,3.54,5.88,5.24,12.26,6.35,19.14-14.26,3.01-28.55,4.04-43.33,3.59h0s0,0,0,0ZM423.55,374.55c-.52-2.34-1.01-4.55-1.56-7.03,7.45-.95,14.71-1.47,21.86-3.98,2.37-.83,5.64-3.27,8.02-2.43,2.63.93,5.57,6.53,6.8,8.84-11.65,3.3-23.24,4.5-35.12,4.6h0ZM343.82,281.75c-1.35,1.51-2.5,2.79-3.79,4.23-1.95-2.6-3.96-5.07-6.1-7.53,3.81.17,7,.87,9.89,3.3h0s0,0,0,0ZM330.97,280.88c-.57.66,7.35,6.33,6.49,7.56-2.15,3.1-3.06,5.3-4.38,7.92-.97,1.94-1.19,3.34-3.08,7.29-.11-.34-15.46-5.12-15.06-5.62,1.27-1.54,5.31-6.94,7.84-9.39,2.17-2.1,4.47-4.92,8.18-7.75h0s0-.01,0-.01ZM310.56,299.09c3.8,4.19,9.72,6.84,14.86,9.02,1.91.8,6.58,1.03,7.61,2.74,1.29,2.15-.63,4.19-2.76,4.62-4.33.89-12.4-4.3-16.11-6.17-3.77-1.89-10.79-7.14-3.59-10.22h0ZM307.14,332.66c-2.02-8.35,1.14-13.08,1.66-20.23.06-.95.43-3.25,1.16-2.65,4.54,3.71,16.07,8.18,21.65,7.74-.79,2.45.24,5.53.33,6.13.28,1.71,1.46,4.14,1.44,6-.09,7.4-19.75,12.13-26.24,3.02h0s0,0,0,0ZM301.64,341.76c-1.8-3.09-1.88-8.58,2.55-9.4,3.2,9.14,14.43,9.2,22.63,6.51,2.29-.75,4.75-1.74,6.68-3.21,1.3-.98,2.67-3.94,3.99-4.48,4.05-1.65,4.95,5.14,3.8,7.48-4.08,8.3-20.06,9.71-27.9,8.94-4.53-.44-9.28-1.63-11.74-5.85h0s0,0,0,0ZM308.16,349.86c2.64,3.26,31.67.81,34.14-7.37.79-2.63,7.07,7.07,11.09,9.42,2.63,1.53,1.82,7.57-3.65,14.98-3.43,4.66-22.09,13.47-29.24,8.8-5.92-9.72-9.11-15.51-12.34-25.82h0ZM320.82,378.73c4.8,1.57,7.75,2.49,12.84.99,4.22-1.25,8.28-3.18,11.88-5.75,8-5.72,12.96-12.93,11.49-22.88,7.52-4.77,9.2,7.99,8.03,12.13-1.95,6.91-7.24,12.54-12.77,16.85-5.55,4.32-12.18,7.91-19.19,9.06-5.78.96-16.57-2.55-12.29-10.39h0s0,0,0,0ZM385.17,417.66c-5.44.51-17.21-6.92-22.13-9.31-8.96-4.35-20.08-9.85-27.34-16.78,23.42-6.95,35.33-25.21,33.41-32.17-.05-.21,6.85,2.45,12.15,3.37,6.76,1.18,13.41,2.27,19.95,3.28,13.03,1.66,3.6,49.76-16.04,51.61ZM403.3,423.35c-3.38,2.81-7.53,4.95-12.04,4.69-3.23-.18-9.53-2.92-7.35-7.26,12.2,3.6,21.53-15.81,24.44-24.58,1.93-5.82,3.09-12.34,2.68-18.48-.48-7.01-2.45-11.06-8.13-14.93.94-4.67,6.87-4.24,9.99-2.33,3.37,2.07,5.03,5.76,6.1,9.41,2.68,9.34,1.26,20.29-1.52,29.45-2.62,8.59-7.13,18.19-14.16,24.05h0v-.02ZM454.69,424.19c-5.01.41-10.03.61-15.06.6-9.96,0-20.88-.09-30.61-2.24,2.96-3.62,5.45-2.21,9.87-1.8,5.43.52,10.88.75,16.34.76,9.93.03,19.73-1.39,29.63-1.61-1.32,4.58-6.18,3.95-10.15,4.27h0s0,0,0,0ZM480.7,411.2c-.7,6.43-6.12,23.91-15.8,15.36,9.41-10.68,6.18-31.19,2.85-43.61-1.92-7.16-4.73-13.98-9.4-19.8-4.45-5.55-5.97-6.21-11.92-8.27-1.52-.52-6.56.65-4.49-4.59,3.06-7.77,16.75-1.16,21.06,3.15,7,6.99,11.48,16.8,14.2,26.17,2.95,10.12,4.63,21.03,3.49,31.58h0s0,0,0,0ZM545.42,399.45c6.01-15.69-5.86-35.42-16.12-46.59-11.67-12.69-28.91-26.56-46.7-23.32-4.8.87-8.77,5.85-9.41,3.55-2.73-9.65,3.55-11.38,5.47-12.09,8.11-2.94,16.28-.53,23.94,1.98,16.23,5.29,31.04,17.04,41.1,30.71,5.7,7.75,10.08,16.57,11.95,26.06,1.17,5.94,1.2,24.89-10.23,19.7ZM556.06,366.06c1.26-3.04,6.53-6.81,8.69-9.25,2.22-2.51,4.32-5.11,6.37-7.75.14.19,2.01-2.6,2.01-2.6,2.4-3.16,4.77-6.35,7.18-9.52,1.4,1.83,5.46,6.8,5.25,9.26-.19,2.32-3.78,5.6-6.4,7.97,0,0-14.57,14.68-21.31,19.82-.98-2.59-2.81-5.46-1.78-7.93h0s0,0,0,0ZM559.92,383.23c-1.65-2.78-1.96-6.54-.03-8.83,2.69-3.21,6.72-5.85,9.78-8.75,2.69-2.54,8.64-8.12,8.85-8.37.5-.47,1.38-2.13,1.38-2.13,2.22-2.37,4.43-4.74,6.72-7.05,1.29,2.65,3.17,7.3,2.42,10.4-.35,1.47-1.61,2.95-3.12,4.35,0,0-4.8,3.91-5.49,4.51-6.48,5.64-13.24,11.3-20.52,15.88h0ZM586.2,369.79c-.36,6.05-6.26,13.87-13.79,12.35l12.96-13.51c.28.39.56.77.83,1.16h0ZM572.13,385.37c3.83,3.14,8.23-5.37,11.66-6.22-.9,3.57-1.33,7.1-4.27,9.27-2.27,1.66-5.25,4.34-7.97,4.93-.07-2.66-.31-5.19.57-7.97h0ZM571.72,395.54c3.03-1.88,5.97-3.71,9.17-5.7-.21,3.2-1.2,6.65-2.11,9.75-.94,3.21-2.36,4.17-5.06,6.06-1.1-3.4-1.79-6.7-2.01-10.1h0ZM576.3,412.67c-1.17-1.75-1.36-3.4-2.18-5.1,1.08-.8,2.01-1.49,3.37-2.49-.42,2.71-.76,4.92-1.19,7.6h0ZM578.21,413.91c.33-2.33.61-4.31.93-6.54,2.18,2.63,2.61,2.83-.93,6.54ZM580.24,404.39c1.07,1.11,1.94,2.31,1.93,3.95-1.19-1.06-1.91-2.35-1.93-3.95ZM583.73,406.41c-3.46-5.05-2.93-7.59-1.51-13.31,1.18,2.21,2.15,4.54,2.96,6.91,1.04,3.03.43,3.78-1.44,6.4ZM587.35,400.87c-1.29-3.06-2.99-6.25-3.76-9.49-.74-3.05.42-5.96,1.14-8.97.19-.04.4-.08.6-.13,2.17,3.86,4.32,7.72,6.46,11.59-1.1,2.27-2.59,4.53-4.43,6.99ZM592.46,391.84c-1.47-2.14-4.1-6.42-5.19-11.05-.82-3.54-.94-7.21-.29-9.91,3.63,5,6.74,9.3,9.15,12.65-.16,2.68-2.28,6.83-3.67,8.32h0ZM597.9,380.96c-3.65-5.07-9.36-10.67-9.64-13.6.03-1.14,3.39.62,3.42.27,1.63-.08,3.1.25,4.91-.13,1.68.03,3.85-1.54,4.88-2.52,3-5.22,2.34-3.71,4.78-9.35.14.37.35.99.4,1.78.28,3.8-1.87,5.93-4.05,10.6-2.42,5.2-4.26,12.11-3.62,12.48.67.38,2.13-6.95,4.53-11.4,1.98-3.67,3.01-7.03,3.56-9.35.04.26.09.61.14,1.02,0,0,.05.42.09.84.07.68.34,6.15.1,8.4-.39,3.5-3.08,8.65-7.63,13.74-.62-.73-1.26-1.7-1.88-2.79h0ZM601.25,385.49c-.08-1.46,2.46-4.59,3.18-5.86,1.45-2.53,2.9-5.06,4.35-7.58.76,3.9,1.47,7.81,2.22,11.73.95,4.92.14,7.09-2.21,11.59-2.31-2.33-7.37-6.44-7.55-9.85h0s0-.01,0-.01ZM610.31,396.81c.75-1.59,1.47-3.12,2.18-4.65.13.03.27.05.4.07.86,2.92,1.7,5.85,2.56,8.78-1.92-1.14-3.5-2.56-5.14-4.2h0ZM619.1,402.58c-1.25-1.03-2.63-4.75-2.9-7.73,1.29.79,2.37,1.44,3.66,2.22-.23,1.75-.49,3.57-.76,5.52h0ZM620.44,394.65c-3.51-.47-5.3-2.4-6.11-5.62.14-.06.29-.13.44-.19,2.1,1.68,4.17,3.38,5.9,5.42l-.22.39h0s0,0,0,0ZM621.04,391.5c-2.44-1.73-5.81-3.75-7.43-6.3-1.63-2.58-1.74-7.52-2.34-10.47.13-.04.25-.09.38-.14,2.81,2.93,5.78,5.77,8.45,8.82,2.47,2.81,1.6,4.43.94,8.08h0ZM619.27,354.7c2.61,1.7,5.31,9.35,4.44,12.27-.63.4-1.27.82-1.89,1.22,1.12,2.18,2.07,1.16,2.11,4.08.05,3.34-.82,6.97-1.2,10.29-3.75-2.25-8.91-7.81-11.32-11.49-2.07-3.16-3.05-9.62-2.66-13.38.17-.13.34-.26.51-.38.82,1.92,10.5,13.43,12.02,10.79-4.51-5.27-10.24-9.6-13.68-15.83.09-.14.17-.27.26-.41,2.21.63,4.32,1.49,6.57,1.91,1.59.3,3.47,0,4.85.92h0s0,0,0,0ZM616.93,351.95c-1.77.36-11.36-1.45-10.24-4.32,4.05-.14,7.39,1.18,10.24,4.32ZM621.54,342.01c-4.57,3.41-15.31,7.01-18.73.63-1.89-3.53-2.92-7.52-4.95-11.07-2.07-3.63-4.49-7.03-6.87-10.46,7.12-2.46,8.34-4.35,8.37-12.91,4.75.76,8.09-.54,12.7-1.09,4.17-.5,7.48-.84,11.67-2.44,14.53,9.2,9.82,28.39-2.19,37.35h0s0,0,0,0Z" fill="url(#radial-gradient-53)" stroke-width="0"/>
        </g>
      </g>
    </g>
  </g>
  <g id="logo-2" data-name="logo">
    <g id="trust">
      <path d="M655.82,640.26c-29.26,2.39-37.6,4.46-60.83-30.3-9.81-14.68,24.43-77.05,33.07-76.1" fill="#e6e6e6" stroke="#58595b" stroke-miterlimit="10" stroke-width="1.92"/>
      <path d="M618.56,637.78c-6.86-4.83-27.52-28.79-26.36-33.43,2.49-9.98,40.27-9.95,42.27-3.14,1.26,4.3-10.81,9.15-14.29,16.97-3.34,7.49-4.38,15.43-1.62,19.6,2.3,3.48,38.98,10.21,94.03-13.52l-51.13-47.33,45.87-60.06-80.28,16.91" fill="#ebebeb" stroke="#58595b" stroke-linecap="round" stroke-miterlimit="10" stroke-width="1.92"/>
      <path d="M588.73,603.28c2.61,2.12,8.24,10.52,14.83,18.93,6.6,8.44,18.63,17.91,16.29,16.47-13.91-8.53,32.65-10.96,26.47-33.33-6.82-24.67-60.45-4.41-57.59-2.08Z" fill="#999" stroke="#58595b" stroke-linecap="round" stroke-miterlimit="10" stroke-width="1.92"/>
      <path d="M369.61,603.89c-2.79,2.09-8.82,10.35-15.87,18.63-7.07,8.3-19.94,17.62-17.44,16.21,14.89-8.4-34.95-10.79-28.33-32.8,7.3-24.28,64.71-4.34,61.64-2.04Z" fill="#999" stroke="#58595b" stroke-linecap="round" stroke-miterlimit="10" stroke-width="1.97"/>
      <path d="M297.79,640.27c31.32,2.35,40.24,4.39,65.12-29.82,10.51-14.45-26.15-75.82-35.4-74.88" fill="#e6e6e6" stroke="#58595b" stroke-miterlimit="10" stroke-width="1.97"/>
      <path d="M337.67,637.84c7.34-4.75,29.45-28.33,28.22-32.89-2.66-9.82-43.11-9.79-45.25-3.09-1.35,4.23,11.57,9.01,15.3,16.69,3.57,7.37,4.69,15.19,1.73,19.29-2.46,3.42-41.73,10.04-100.65-13.3l54.73-46.57-49.1-59.1,85.93,16.64" fill="#ebebeb" stroke="#58595b" stroke-linecap="round" stroke-miterlimit="10" stroke-width="1.97"/>
      <path d="M377.42,594.95c-3.53,2.58-11.31,13.06-20.35,23.51-9.06,10.48-25.32,21.97-22.17,20.25,18.69-10.17-42.56-16.07-33.46-44.52,10.04-31.38,79.86-2.08,75.98.75Z" fill="#999" stroke="#58595b" stroke-linecap="round" stroke-miterlimit="10" stroke-width="2.51"/>
      <path d="M617.08,517.47c-2.21-6.39-9.21-9.79-15.58-7.51-38.26,13.72-81.04,19.12-123.92,19.12s-86.37-6.06-124.74-19.86c-6.7-2.41-14.12.74-17.11,7.2-9.91,22.76-22.6,50.61-32.82,74.08-.37.86-2.38,6.99-2.14,6.09,2.92-11.25,18.51-3.72,24.93-1.46,83.33,29.31-2.05-.8,11.88,4.23,30.05,10.85,61.91,21.92,141.03,21.92,57.35,0,90.99-3.79,141.68-22.03,1.76-.63,8.2-2.87,10-3.38,10.13-2.86,16.04,5.19,16.1,6.1l-29.29-84.51Z" fill="#fff" stroke="#58595b" stroke-miterlimit="10" stroke-width="1.99"/>
      <text transform="translate(371.92 585.88) rotate(11.43)" fill="#231f20" font-family="NotoSansCondensed-ExtraBold, &apos;Noto Sans Condensed&apos;" font-size="75.02" font-weight="700"><tspan x="0" y="0">T</tspan></text>
      <text transform="translate(411.14 593.66) rotate(5.3)" fill="#231f20" font-family="NotoSansCondensed-ExtraBold, &apos;Noto Sans Condensed&apos;" font-size="75.02" font-weight="700"><tspan x="0" y="0">R</tspan></text>
      <text transform="translate(456.77 597.81) rotate(-.19)" fill="#231f20" font-family="NotoSansCondensed-ExtraBold, &apos;Noto Sans Condensed&apos;" font-size="75.02" font-weight="700"><tspan x="0" y="0">U</tspan></text>
      <text transform="translate(506.97 597.3) rotate(-5.44)" fill="#231f20" font-family="NotoSansCondensed-ExtraBold, &apos;Noto Sans Condensed&apos;" font-size="75.02" font-weight="700"><tspan x="0" y="0">S</tspan></text>
      <text transform="translate(546.31 593.5) rotate(-11.44)" fill="#231f20" font-family="NotoSansCondensed-ExtraBold, &apos;Noto Sans Condensed&apos;" font-size="75.02" font-weight="700"><tspan x="0" y="0">T</tspan></text>
    </g>
    <g id="in_devs_we" data-name="in devs we">
      <path d="M198.72,315.78c38.96-27.34,51.53-33.43,43.83-99.94-3.25-28.09-113.12-61.21-122.88-51.1" fill="#e6e6e6" stroke="#58595b" stroke-miterlimit="10" stroke-width="3.11"/>
      <path d="M242.14,274.59c3.45-12.99,4.3-64.01-2.03-68.49-13.62-9.62-60.65,29.49-55.96,39.88,2.96,6.56,23.12,0,35.69,5.95,12.06,5.7,22.09,14.29,22.68,22.28.53,7.09-37.79,52.78-131.37,80.73l13.79-110.71L4.5,218.27l117.81-62.36" fill="#ebebeb" stroke="#58595b" stroke-linecap="round" stroke-miterlimit="10" stroke-width="3.11"/>
      <path d="M241.74,274.24c-4.37-3.26-9.26-14.43-25.14-21.49-15.92-7.08-28.54-1.02-30.64-4.91-3.82-7.03,45.26-57.98,55.93-38.66,6.39,11.56,4.65,68.63-.15,65.06Z" fill="#999" stroke="#58595b" stroke-linecap="round" stroke-miterlimit="10" stroke-width="3.11"/>
      <path d="M738.18,322.95c-37.29-26.68-49.32-32.61-41.94-97.49,3.11-27.4,106.86-67.2,116.2-57.34" fill="#e6e6e6" stroke="#58595b" stroke-miterlimit="10" stroke-width="3"/>
      <path d="M696.63,282.78c-3.3-12.67-4.12-62.45,1.94-66.81,13.03-9.39,58.05,28.77,53.56,38.9-2.83,6.4-22.12,0-34.15,5.8-11.54,5.57-21.14,13.94-21.71,21.73-.51,6.92,36.17,51.49,125.73,78.75l-13.2-108.01,115.27-25.32-112.75-60.84" fill="#ebebeb" stroke="#58595b" stroke-linecap="round" stroke-miterlimit="10" stroke-width="3"/>
      <path d="M697.01,282.43c4.18-3.18,8.86-14.07,24.06-20.97,15.24-6.91,27.31-1,29.33-4.79,3.66-6.86-43.31-56.57-53.53-37.71-6.11,11.28-4.45,66.95.14,63.46Z" fill="#999" stroke="#58595b" stroke-linecap="round" stroke-miterlimit="10" stroke-width="3"/>
      <path d="M751.63,250.85c-.55,2.96-3.35,5.22-6.28,4.54-.95-.22-1.86-.69-2.63-1.43-87.43-84-231.78-104.99-283.33-106.33-52.36-1.35-168.61,24.02-263.8,97.09-6.66,5.11-16.46,1.24-17.65-7.08-.44-3.04-1.07-6.16-1.93-9.35-10.62-38.98-34-50.32-46.36-55.32-1.92-.77-11.53-8.76-12.57-10.54-11.36-19.47-4.45-35.85,2.44-40.71,64.54-45.48,92.04-56.24,119.62-67.21,64.73-25.74,144-44.84,217.65-44.84s157.17,18.83,221.33,46.05c60.58,25.7,71.7,31.74,113.78,63.72,20.28,15.41,26.74,20.99,26.66,29.2-.05,4.88-1.63,13.97-9.12,19.47-11.05,8.11-20.38,5.67-33.76,21.29-18.44,21.51-21.31,46.69-24.04,61.44Z" fill="#fff" stroke="#58595b" stroke-miterlimit="10" stroke-width="3.23"/>
      <text transform="translate(149.53 284.75) rotate(-58.69)" fill="#231f20" font-family="NotoSansExtraCondensed-ExtraBold, &apos;Noto Sans ExtraCondensed&apos;" font-size="117.12" font-weight="700"><tspan x="0" y="0"> </tspan></text>
      <text transform="translate(159.5 268.25) rotate(-54.14)" fill="#231f20" font-family="NotoSansExtraCondensed-ExtraBold, &apos;Noto Sans ExtraCondensed&apos;" font-size="117.12" font-weight="700"><tspan x="0" y="0"> </tspan></text>
      <text transform="translate(170.77 252.56) rotate(-49.7)" fill="#231f20" font-family="NotoSansExtraCondensed-ExtraBold, &apos;Noto Sans ExtraCondensed&apos;" font-size="117.12" font-weight="700"><tspan x="0" y="0"> </tspan></text>
      <text transform="translate(183.26 237.76) rotate(-45.41)" fill="#231f20" font-family="NotoSansExtraCondensed-ExtraBold, &apos;Noto Sans ExtraCondensed&apos;" font-size="117.12" font-weight="700"><tspan x="0" y="0"> </tspan></text>
      <text transform="translate(196.85 223.91) rotate(-41.3)" fill="#231f20" font-family="NotoSansExtraCondensed-ExtraBold, &apos;Noto Sans ExtraCondensed&apos;" font-size="117.12" font-weight="700"><tspan x="0" y="0"> </tspan></text>
      <text transform="translate(211.47 211.01) rotate(-37.38)" fill="#231f20" font-family="NotoSansExtraCondensed-ExtraBold, &apos;Noto Sans ExtraCondensed&apos;" font-size="117.12" font-weight="700"><tspan x="0" y="0"> </tspan></text>
      <text transform="translate(226.28 199.06) rotate(-32.04)" fill="#231f20" font-family="NotoSansExtraCondensed-ExtraBold, &apos;Noto Sans ExtraCondensed&apos;" font-size="117.12" font-weight="700"><tspan x="0" y="0">I</tspan></text>
      <text transform="translate(256.65 178.28) rotate(-23.01)" fill="#231f20" font-family="NotoSansExtraCondensed-ExtraBold, &apos;Noto Sans ExtraCondensed&apos;" font-size="117.12" font-weight="700"><tspan x="0" y="0">N</tspan></text>
      <text transform="translate(323.85 151.35) rotate(-16.36)" fill="#231f20" font-family="NotoSansExtraCondensed-ExtraBold, &apos;Noto Sans ExtraCondensed&apos;" font-size="117.12" font-weight="700"><tspan x="0" y="0"> </tspan></text>
      <text transform="translate(341.73 144.87) rotate(-10.79)" fill="#231f20" font-family="NotoSansExtraCondensed-ExtraBold, &apos;Noto Sans ExtraCondensed&apos;" font-size="117.12" font-weight="700"><tspan x="0" y="0">D</tspan></text>
      <text transform="translate(405.3 133.14) rotate(-3.87)" fill="#231f20" font-family="NotoSansExtraCondensed-ExtraBold, &apos;Noto Sans ExtraCondensed&apos;" font-size="117.12" font-weight="700"><tspan x="0" y="0">E</tspan></text>
      <text transform="translate(453.86 129.43) rotate(2.46)" fill="#231f20" font-family="NotoSansExtraCondensed-ExtraBold, &apos;Noto Sans ExtraCondensed&apos;" font-size="117.12" font-weight="700"><tspan x="0" y="0">V</tspan></text>
      <text transform="translate(514.3 132.19) rotate(8.79)" fill="#231f20" font-family="NotoSansExtraCondensed-ExtraBold, &apos;Noto Sans ExtraCondensed&apos;" font-size="117.12" font-weight="700"><tspan x="0" y="0">S</tspan></text>
      <text transform="translate(564.32 140.43) rotate(12.87)" fill="#231f20" font-family="NotoSansExtraCondensed-ExtraBold, &apos;Noto Sans ExtraCondensed&apos;" font-size="117.12" font-weight="700"><tspan x="0" y="0"> </tspan></text>
      <text transform="translate(583.05 142.44) rotate(19.47)" fill="#231f20" font-family="NotoSansExtraCondensed-ExtraBold, &apos;Noto Sans ExtraCondensed&apos;" font-size="117.12" font-weight="700"><tspan x="0" y="0">W</tspan></text>
      <text transform="translate(667.05 173.52) rotate(28.47)" fill="#231f20" font-family="NotoSansExtraCondensed-ExtraBold, &apos;Noto Sans ExtraCondensed&apos;" font-size="117.12" font-weight="700"><tspan x="0" y="0">E</tspan></text>
    </g>
  </g>
</svg>