<?xml version="1.0" encoding="UTF-8"?><svg xmlns="http://www.w3.org/2000/svg" xmlns:xlink="http://www.w3.org/1999/xlink" viewBox="0 0 576.68 481.74"><defs><radialGradient id="radial-gradient" cx="-3061.35" cy="1028.11" fx="-2996.82" fy="735.12" r="1059.94" gradientTransform="translate(846.96 115.76) rotate(1.69) scale(.19 .11)" gradientUnits="userSpaceOnUse"><stop offset=".06" stop-color="#b9babe"/><stop offset=".74" stop-color="#97999c"/><stop offset=".83" stop-color="#95979a"/><stop offset=".88" stop-color="#8d8f91"/><stop offset=".93" stop-color="#808283"/><stop offset=".97" stop-color="#6d6e70"/><stop offset="1" stop-color="#555657"/></radialGradient><radialGradient id="radial-gradient-2" cx="-2927.01" cy="441.54" fx="-2927.01" fy="441.54" r="26.75" gradientTransform="translate(847.85 85.53) rotate(1.69) scale(.19)" gradientUnits="userSpaceOnUse"><stop offset=".03" stop-color="#6da5c1"/><stop offset=".28" stop-color="#6da5c1"/><stop offset=".36" stop-color="#73adcb"/><stop offset=".49" stop-color="#7dbbda"/><stop offset=".66" stop-color="#80c0e1"/><stop offset=".96" stop-color="#81c3e4"/></radialGradient><radialGradient id="radial-gradient-3" cx="-2139.34" cy="-646.96" fx="-2139.34" fy="-646.96" r="375.17" gradientTransform="translate(781.23 140.13) rotate(-42.02) scale(.19 .37)" gradientUnits="userSpaceOnUse"><stop offset="0" stop-color="#cbb482"/><stop offset=".12" stop-color="#c6ad79"/><stop offset=".31" stop-color="#bb9d5f"/><stop offset=".55" stop-color="#a98637"/><stop offset=".83" stop-color="#8f6828"/><stop offset=".83" stop-color="#8f6828"/></radialGradient><radialGradient id="radial-gradient-4" cx="-3910.78" cy="728.89" fx="-3910.78" fy="728.89" r="101.82" gradientTransform="translate(847.85 85.53) rotate(1.69) scale(.19)" xlink:href="#radial-gradient-3"/><radialGradient id="radial-gradient-5" cx="-3877.6" cy="505.31" fx="-3877.6" fy="505.31" r="83.45" gradientTransform="translate(847.85 85.53) rotate(1.69) scale(.19)" xlink:href="#radial-gradient-3"/><radialGradient id="radial-gradient-6" cx="-2088.57" cy="151.79" fx="-2088.57" fy="151.79" r="158.16" gradientTransform="translate(847.85 85.53) rotate(1.69) scale(.19)" gradientUnits="userSpaceOnUse"><stop offset=".38" stop-color="#7eaa72"/><stop offset=".77" stop-color="#8bbe7f"/><stop offset=".93" stop-color="#7ba870"/></radialGradient><radialGradient id="radial-gradient-7" cx="-4799.43" cy="1510.31" fx="-4799.43" fy="1510.31" r="159.39" gradientTransform="translate(734.36 270.43) rotate(1.69) scale(.19 -.19)" xlink:href="#radial-gradient-6"/><radialGradient id="radial-gradient-8" cx="-4310.41" cy="2483.9" fx="-4310.41" fy="2483.9" r="213.4" gradientTransform="translate(734.36 270.43) rotate(1.69) scale(.19 -.19)" xlink:href="#radial-gradient-6"/><radialGradient id="radial-gradient-9" cx="-2379.57" cy="326.13" fx="-2379.57" fy="169.16" r="158.83" gradientTransform="translate(847.85 85.53) rotate(1.69) scale(.19)" gradientUnits="userSpaceOnUse"><stop offset="0" stop-color="#cdb859"/><stop offset=".11" stop-color="#c9b457"/><stop offset=".17" stop-color="#c4b155"/><stop offset=".21" stop-color="#d1bd5a"/><stop offset=".28" stop-color="#e5cf64"/><stop offset=".36" stop-color="#f3dc6b"/><stop offset=".46" stop-color="#fbe36d"/><stop offset=".63" stop-color="#fde56f"/><stop offset=".86" stop-color="#f3dc6b"/><stop offset="1" stop-color="#ead466"/><stop offset="1" stop-color="#ecd667"/></radialGradient><radialGradient id="radial-gradient-10" cx="-2555.27" cy="934.02" fx="-2555.27" fy="934.02" r="287.45" gradientTransform="translate(847.85 85.53) rotate(1.69) scale(.19)" gradientUnits="userSpaceOnUse"><stop offset=".06" stop-color="#b9babe"/><stop offset=".72" stop-color="#97999c"/><stop offset=".93" stop-color="#848689"/></radialGradient><radialGradient id="radial-gradient-11" cx="-1875.83" cy="652.97" fx="-1875.83" fy="825.06" r="174.04" gradientTransform="translate(847.85 85.53) rotate(1.69) scale(.19)" gradientUnits="userSpaceOnUse"><stop offset=".13" stop-color="#1164a1"/><stop offset=".47" stop-color="#084c7d"/><stop offset=".67" stop-color="#0f3f65"/><stop offset=".99" stop-color="#0e3b5e"/></radialGradient><radialGradient id="radial-gradient-12" cx="-5261.36" cy="2564.63" fx="-5261.36" fy="2564.63" r="228.05" gradientTransform="translate(734.36 270.43) rotate(1.69) scale(.19 -.19)" xlink:href="#radial-gradient-10"/><radialGradient id="radial-gradient-13" cx="-5670.03" cy="2615.64" fx="-5670.03" fy="2615.64" r="197.46" gradientTransform="translate(734.36 270.43) rotate(1.69) scale(.19 -.19)" xlink:href="#radial-gradient-10"/><radialGradient id="radial-gradient-14" cx="-6088.35" cy="2458.11" fx="-6088.35" fy="2458.11" r="157.95" gradientTransform="translate(734.36 270.43) rotate(1.69) scale(.19 -.19)" xlink:href="#radial-gradient-10"/><radialGradient id="radial-gradient-15" cx="-2628.62" cy="218.25" fx="-2628.62" fy="259.45" r="91.08" gradientTransform="translate(847.85 85.53) rotate(1.69) scale(.19)" gradientUnits="userSpaceOnUse"><stop offset=".07" stop-color="#cdb859"/><stop offset=".15" stop-color="#c9b457"/><stop offset=".19" stop-color="#c4b155"/><stop offset=".21" stop-color="#d1bd5a"/><stop offset=".25" stop-color="#e5cf64"/><stop offset=".29" stop-color="#f3dc6b"/><stop offset=".34" stop-color="#fbe36d"/><stop offset=".43" stop-color="#fde56f"/><stop offset=".78" stop-color="#f3dc6b"/><stop offset="1" stop-color="#ead466"/><stop offset="1" stop-color="#ecd667"/></radialGradient><radialGradient id="radial-gradient-16" cx="-6246.81" cy="2251.1" fx="-6246.81" fy="2251.1" r="116.32" gradientTransform="translate(734.36 270.43) rotate(1.69) scale(.19 -.19)" xlink:href="#radial-gradient-10"/><radialGradient id="radial-gradient-17" cx="-2125.43" cy="363.56" fx="-2125.43" fy="363.56" r="54.46" gradientTransform="translate(847.85 85.53) rotate(1.69) scale(.19)" gradientUnits="userSpaceOnUse"><stop offset=".06" stop-color="#7a749f"/><stop offset=".18" stop-color="#7b77a3"/><stop offset=".19" stop-color="#7c78a4"/><stop offset=".27" stop-color="#827eac"/><stop offset=".43" stop-color="#8580ae"/><stop offset=".79" stop-color="#8c86b7"/><stop offset=".99" stop-color="#938dc0"/><stop offset=".99" stop-color="#78749e"/></radialGradient><radialGradient id="radial-gradient-18" cx="-2836.41" cy="526.5" fx="-2836.41" fy="526.5" r="54.29" gradientTransform="translate(847.85 85.53) rotate(1.69) scale(.19)" gradientUnits="userSpaceOnUse"><stop offset=".03" stop-color="#81c4e5"/><stop offset=".25" stop-color="#81c6e8"/><stop offset=".28" stop-color="#83c8e9"/><stop offset=".4" stop-color="#89cef1"/><stop offset=".6" stop-color="#8fd4f5"/><stop offset=".96" stop-color="#93d6f6"/></radialGradient><radialGradient id="radial-gradient-19" cx="-5073.31" cy="1894.02" fx="-5073.31" fy="1894.02" r="54.74" gradientTransform="translate(734.36 270.43) rotate(1.69) scale(.19 -.19)" xlink:href="#radial-gradient-2"/><radialGradient id="radial-gradient-20" cx="-5282.15" cy="1863.76" fx="-5282.15" fy="1863.76" r="54.06" gradientTransform="translate(734.36 270.43) rotate(1.69) scale(.19 -.19)" xlink:href="#radial-gradient-18"/><radialGradient id="radial-gradient-21" cx="-5173.15" cy="1815.86" fx="-5173.15" fy="1815.86" r="54.53" gradientTransform="translate(734.36 270.43) rotate(1.69) scale(.19 -.19)" xlink:href="#radial-gradient-2"/><radialGradient id="radial-gradient-22" cx="-5286.27" cy="1980.03" fx="-5286.27" fy="1980.03" r="55.3" gradientTransform="translate(734.36 270.43) rotate(1.69) scale(.19 -.19)" xlink:href="#radial-gradient-18"/><radialGradient id="radial-gradient-23" cx="-5176.17" cy="1923.27" fx="-5176.17" fy="1923.27" r="55.8" gradientTransform="translate(734.36 270.43) rotate(1.69) scale(.19 -.19)" xlink:href="#radial-gradient-2"/><radialGradient id="radial-gradient-24" cx="-4402.8" cy="1893.68" fx="-4402.8" fy="1893.68" r="54.01" gradientTransform="translate(734.36 270.43) rotate(1.69) scale(.19 -.19)" xlink:href="#radial-gradient-17"/><radialGradient id="radial-gradient-25" cx="-4287.98" cy="1917.82" fx="-4287.98" fy="1917.82" r="53.75" gradientTransform="translate(734.36 270.43) rotate(1.69) scale(.19 -.19)" xlink:href="#radial-gradient-17"/><radialGradient id="radial-gradient-26" cx="-4350.03" cy="1797.01" fx="-4350.03" fy="1797.01" r="54.89" gradientTransform="translate(734.36 270.43) rotate(1.69) scale(.19 -.19)" xlink:href="#radial-gradient-17"/><radialGradient id="radial-gradient-27" cx="-5166.55" cy="1833.58" fx="-5166.55" fy="1833.58" r="53.54" gradientTransform="translate(734.36 270.43) rotate(1.69) scale(.19 -.19)" xlink:href="#radial-gradient-18"/><radialGradient id="radial-gradient-28" cx="-5061.55" cy="1785.17" fx="-5061.55" fy="1785.17" r="54.08" gradientTransform="translate(734.36 270.43) rotate(1.69) scale(.19 -.19)" xlink:href="#radial-gradient-2"/><radialGradient id="radial-gradient-29" cx="-5295.66" cy="2089.49" fx="-5295.66" fy="2089.49" r="51.48" gradientTransform="translate(734.36 270.43) rotate(1.69) scale(.19 -.19)" xlink:href="#radial-gradient-18"/><radialGradient id="radial-gradient-30" cx="-5184.65" cy="2020.2" fx="-5184.65" fy="2020.2" r="51.98" gradientTransform="translate(734.36 270.43) rotate(1.69) scale(.19 -.19)" xlink:href="#radial-gradient-2"/><radialGradient id="radial-gradient-31" cx="-2176.12" cy="458.23" fx="-2176.12" fy="458.23" r="62.84" gradientTransform="translate(847.85 85.53) rotate(1.69) scale(.19)" gradientUnits="userSpaceOnUse"><stop offset="0" stop-color="#fde470"/><stop offset="0" stop-color="#fde470"/><stop offset=".63" stop-color="#fde56f"/><stop offset=".99" stop-color="#fde571"/><stop offset="1" stop-color="#c4b155"/><stop offset="1" stop-color="#d2bd5a"/><stop offset="1" stop-color="#deca62"/><stop offset="1" stop-color="#e7d165"/><stop offset="1" stop-color="#ead466"/></radialGradient><radialGradient id="radial-gradient-32" cx="-4379.69" cy="2008.14" fx="-4379.69" fy="2008.14" r="52.87" gradientTransform="translate(734.36 270.43) rotate(1.69) scale(.19 -.19)" xlink:href="#radial-gradient-17"/><radialGradient id="radial-gradient-33" cx="-4177.59" cy="1876.86" fx="-4177.59" fy="1876.86" r="49.57" gradientTransform="translate(734.36 270.43) rotate(1.69) scale(.19 -.19)" xlink:href="#radial-gradient-17"/><radialGradient id="radial-gradient-34" cx="-6256.51" cy="2028.62" fx="-6256.51" fy="2028.62" r="82.53" gradientTransform="translate(734.36 270.43) rotate(1.69) scale(.19 -.19)" xlink:href="#radial-gradient-10"/><radialGradient id="radial-gradient-35" cx="-5188.52" cy="2055.39" fx="-5188.52" fy="2055.39" r="52.62" gradientTransform="translate(734.36 270.43) rotate(1.69) scale(.19 -.19)" xlink:href="#radial-gradient-18"/><radialGradient id="radial-gradient-36" cx="-5082.92" cy="1987.74" fx="-5082.92" fy="1987.74" r="53.3" gradientTransform="translate(734.36 270.43) rotate(1.69) scale(.19 -.19)" xlink:href="#radial-gradient-2"/><radialGradient id="radial-gradient-37" cx="-5076.64" cy="1912.71" fx="-5076.64" fy="1912.71" r="49.57" gradientTransform="translate(734.36 270.43) rotate(1.69) scale(.19 -.19)" xlink:href="#radial-gradient-18"/><radialGradient id="radial-gradient-38" cx="-4942.17" cy="1858.4" fx="-4942.17" fy="1858.4" r="49.96" gradientTransform="translate(734.36 270.43) rotate(1.69) scale(.19 -.19)" xlink:href="#radial-gradient-2"/><radialGradient id="radial-gradient-39" cx="-4236.13" cy="1805.11" fx="-4236.13" fy="1805.11" r="58.44" gradientTransform="translate(734.36 270.43) rotate(1.69) scale(.19 -.19)" xlink:href="#radial-gradient-17"/><radialGradient id="radial-gradient-40" cx="-5093.87" cy="2015.05" fx="-5093.87" fy="2015.05" r="44.98" gradientTransform="translate(734.36 270.43) rotate(1.69) scale(.19 -.19)" xlink:href="#radial-gradient-18"/><radialGradient id="radial-gradient-41" cx="-4904.27" cy="1952.53" fx="-4904.27" fy="1952.53" r="45.33" gradientTransform="translate(734.36 270.43) rotate(1.69) scale(.19 -.19)" xlink:href="#radial-gradient-2"/><radialGradient id="radial-gradient-42" cx="-5228.55" cy="2172.74" fx="-5228.55" fy="2172.74" r="41.63" gradientTransform="translate(734.36 270.43) rotate(1.69) scale(.19 -.19)" xlink:href="#radial-gradient-18"/><radialGradient id="radial-gradient-43" cx="-5023.96" cy="2090.38" fx="-5023.96" fy="2090.38" r="41.65" gradientTransform="translate(734.36 270.43) rotate(1.69) scale(.19 -.19)" xlink:href="#radial-gradient-2"/><radialGradient id="radial-gradient-44" cx="-4460.42" cy="1966.46" fx="-4460.42" fy="1966.46" r="31" gradientTransform="translate(734.36 270.43) rotate(1.69) scale(.19 -.19)" xlink:href="#radial-gradient-17"/><radialGradient id="radial-gradient-45" cx="-5076.84" cy="1784.89" fx="-5076.84" fy="1784.89" r="38.48" gradientTransform="translate(734.36 270.43) rotate(1.69) scale(.19 -.19)" xlink:href="#radial-gradient-18"/><radialGradient id="radial-gradient-46" cx="-4927.15" cy="1726.34" fx="-4927.15" fy="1726.34" r="38.95" gradientTransform="translate(734.36 270.43) rotate(1.69) scale(.19 -.19)" xlink:href="#radial-gradient-2"/><radialGradient id="radial-gradient-47" cx="-6134.57" cy="1851.95" fx="-6134.57" fy="1851.95" r="36.57" gradientTransform="translate(734.36 270.43) rotate(1.69) scale(.19 -.19)" xlink:href="#radial-gradient-10"/><radialGradient id="radial-gradient-48" cx="-4279.57" cy="1845.03" fx="-4279.57" fy="1845.03" r="32.91" gradientTransform="translate(734.36 270.43) rotate(1.69) scale(.19 -.19)" xlink:href="#radial-gradient-17"/><radialGradient id="radial-gradient-49" cx="-5212.61" cy="1886.3" fx="-5212.61" fy="1886.3" r="11.86" gradientTransform="translate(734.36 270.43) rotate(1.69) scale(.19 -.19)" xlink:href="#radial-gradient-18"/><radialGradient id="radial-gradient-50" cx="-1944" cy="4645.69" fx="-1944" fy="4645.69" r="737.96" gradientTransform="translate(872.99 67.15) rotate(28.03) scale(.19 .07)" gradientUnits="userSpaceOnUse"><stop offset="0" stop-color="#b9babe"/><stop offset=".32" stop-color="#818386"/><stop offset=".58" stop-color="#5d5e60"/><stop offset=".72" stop-color="#4f5152"/><stop offset=".77" stop-color="#4a4b4c"/><stop offset=".83" stop-color="#3a3b3c"/><stop offset=".9" stop-color="#212223"/><stop offset=".97" stop-color="#000"/></radialGradient><radialGradient id="radial-gradient-51" cx="-5141.02" cy="2004.89" fx="-5141.02" fy="2004.89" r="11.25" gradientTransform="translate(734.36 270.43) rotate(1.69) scale(.19 -.19)" xlink:href="#radial-gradient-18"/><radialGradient id="radial-gradient-52" cx="-2783.68" cy="1753.19" fx="-2783.68" fy="1753.19" r="7.84" gradientTransform="translate(847.85 85.53) rotate(1.69) scale(.19)" gradientUnits="userSpaceOnUse"><stop offset=".26" stop-color="#000"/><stop offset=".42" stop-color="#050505"/><stop offset=".5" stop-color="#0b0b0b"/><stop offset=".95" stop-color="#000"/><stop offset=".98" stop-color="#000"/></radialGradient></defs><g id="Layer_3"><rect x="57.96" y="25.01" width="262.89" height="401.96" rx="34.02" ry="34.02" transform="translate(-60.8 69.97) rotate(-18.09)" fill="#fff" stroke="#000" stroke-linecap="round" stroke-miterlimit="10" stroke-width="6"/><path d="M194.58,435.52l-34.85,11.38c-17.86,5.83-37.06-3.92-42.9-21.77L13.17,107.7c-5.83-17.86,3.92-37.06,21.77-42.9l34.85-11.38" fill="#6da6c2" stroke="#000" stroke-linecap="round" stroke-miterlimit="10" stroke-width="6"/><rect x="281.84" y="21.56" width="263.12" height="402.3" rx="34.02" ry="34.02" transform="translate(47.3 -71.35) rotate(10.46)" fill="#fff" stroke="#000" stroke-linecap="round" stroke-miterlimit="10" stroke-width="6"/><path d="M316.35,409.28l-36.15-7.42c-18.47-3.41-30.69-21.15-27.28-39.63l60.62-328.38c3.41-18.47,21.15-30.69,39.63-27.28l36.05,7.12" fill="#0a3a5e" stroke="#000" stroke-linecap="round" stroke-miterlimit="10" stroke-width="6"/></g><g id="logo"><path d="M455.31,303.85c2.5-2.52,5.94-.44,8.07,2.39,2.13,2.83,1.13,6.64.12,10.03-1.33,4.49-3.89,8.24-8.06,6.65-1.15-1.42.28-3.29,1.87-4.2,1.69-.97,3.44.86,3.93,1.16.1.06.19.14.28.23.62.59,1.15.89,4.03,4.2,1.58,1.81,1.94,4.67,4.07,5.79,1.73.9,3.83.52,5.72.04,2.03-.51,4.15-1.17,5.53-2.73,1.22-1.37,1.59-3.61.46-5.14-.89-1.2-2.5,0-3.1.88-.69,1.02-1.04,2.28-1.23,3.48-.52,3.28-.92,6.62-.37,9.9.55,3.28,2.14,6.5,4.9,8.35M461.08,292.73c-.61,2.35-1.67,4.61-3.08,6.59-.43.6-.93,1.24-.98,1.99s.56,1.58,1.29,1.43M456.6,300.61c-2.67,2.28-4.81,5.17-6.26,8.35,2.36-3.29,4.72-6.57,7.09-9.86-1.15,1.91-2.29,3.82-3.44,5.74,1.09-1,1.85-2.35,2.17-3.78l.85-.39M457.71,302.27c.27-1.3.53-2.6.82-3.9-.57,1.46-1.79,2.63-1.82,4.18M457.16,301.34l.26-1.11M456.73,302c.72-3.07,1.68-6.1,2.86-9.03.49.52.03,1.34-.39,1.92-1.47,2.02-2.44,4.42-2.78,6.9M456.42,300.49c-2.42,3.38-4.53,6.98-6.28,10.76.75-2.5,2.21-4.8,4.16-6.52M460.75,291.99c-1.66,1.62-1.92,4.11-1.96,6.42-.04,2.25-1.61,4.01,2.64,6.37-1.11-1.79-2.08-3.74-2.41-5.82-.32-2.08.05-4.36,1.36-6.02-1.41,3.55-6.1,7.73-4.45,11.16,2.23-.1,2.91,1.01,3.12-.58.33-2.4.6-8.87,1.56-11.1M462.51,286.97c-1.58,2.49-2.89,5.19-3.49,8.08-.6,2.89-.41,6,.88,8.63-.93-3.45-.34-7.1.25-10.63.11-.68.24-1.38.67-1.91M462.26,287.56c-3.77,4.63-4.79,12.11-2.4,17.58-.52-.35-.53-1.75-.56-2.39-.13-3.38,1.34-6.93,1.22-10.04M456.27,302.2c-2.18.93-3.6,3.07-4.88,5.06-1.55,2.43-3.11,4.86-4.66,7.29.99-2.05,3.01-3.57,3.48-5.79M448.38,314.32c1.15-1.25,2.04-2.71,2.92-4.15,1.08-1.8,2.17-3.58,3.24-5.38M461.08,322.26c1.09-1.28,1.85-3.01,1.66-2.72,1.01-3.28,1.23-6.64.48-9.84-.27-1.16-.74-2.33-1.61-3.16-1.33-1.28-3.31-1.54-5.15-1.73-1.1-.11-2.58,1.43-3.54,2.61,3.32-3.12,10.41-3.86,11.2,3.63-1.37-2.56-4.66-8.83-7.11-7.51-1.74.94-3.89,1.93-5.14,3.45M459.37,290.93c-.27,1.87-.49,3.75-.37,5.63.19,3.1,2.53,7.2,4.39,9.7M464.12,286.36c-2.13,3.5-3.97,7.19-5.49,11M460.69,292.46c2.05-3.9,3.87-7.93,5.44-12.04M460.74,293.07c1.01-1.58,1.99-3.18,2.95-4.8-.12.22-.22.45-.34.68.36-.55.72-1.11,1.08-1.67-1.56,1.77-2.9,3.74-3.95,5.84,1.45-2.23,2.86-4.49,4.22-6.78-1.94,3.15-3.97,6.25-6.08,9.3,2.34-3.66,4.57-7.37,6.67-11.15-2.98,3.56-5.32,7.67-6.85,12.05,1.25-4.35,3.46-8.43,6.41-11.86-2.4,3.21-4.33,6.77-5.7,10.53,1.89-3.89,3.83-7.83,6.67-11.08-.61.26-1.01.85-1.38,1.41-2.33,3.6-4.39,7.37-6.17,11.27,3.01-4.65,4.16-10.47,7.9-14.56-3.16,5.05-5.93,10.33-8.25,15.81,1.76-3.73,3.52-7.47,5.28-11.2l-5.48,8.86M483.6,345.45l-.67-.02M482.45,345.26c.48.26,1.09.24,1.54-.06-.81.44-1.91.31-2.59-.32.62.48,1.41.75,2.19.75M484.22,345.6l-2.5-.71c.38.42,1.01.59,1.55.43M484.34,345.21l1.36-.24M462,291.21c1.16-1.04,1.91-2.23,2.53-3.51.82-.75,1.67-1.5,2.68-2-1.19.53-2.21,1.43-2.9,2.53.94-1.13,1.05-2.99,1.98-4.12-.94.5-.88,2.05-1.31,3.01l2.32-2.85M446.26,316.52c.59-.52,1.18-1.04,1.77-1.55.23-.21.48-.42.6-.71.23-.56.08-1.39.64-1.61-1.1,1.33-2.16,2.68-3.21,4.07M445.44,317.07c1.59-1.25,3.01-2.73,4.19-4.36M463.15,290.31c-2.73,4.47-3.01,11.68-.94,16.2M459.66,296.18c.48,3.71,1.96,8.06,3.94,11.24M271.83,112.24c-1.89-2.54-1.8-5.66.38-8.72,3.86-4.67,8.4-8.49,13.76-11.3,5.36-2.82,11.36-3.32,16.95-1.67.2.06.39.12.59.19.12.03.23.08.31.17.08.09.1.22.11.35.12,1.47-.42,2.94-1.31,4.12s-1.6,2.39-3.36,2.81c-1.74,1.01-3.69,1.72-5.69,1.77-1.97.05-3.94-.55-5.65-1.55-3.82-1.73-4.33-5.09-4.9-9.95-.05-2.1.98-3.26,2.35-4.25,1.29-.92,2.57-1.87,3.9-2.74,1.1-.73,2.26-1.39,3.51-1.79,1.38-.45,2.94-.55,4.31.04,1.15.49,2.24,1.47,1.4,2.76-.85,1.31-2.58,1.41-3.98,1.59-1.16.15-2.34.26-3.5.2-2.31-.11-4.56-.89-5.97-2.81-.66-.89-1.02-1.97-1.56-2.93-.67-1.17-1.41-2.29-2.23-3.36-1.09-1.42-2.41-2.79-4.2-3.26-2.51-.66-4.75,1.07-6.37,2.81-1.07,1.14-1.85,2.54-2.91,3.7-.85.94-1.77,1.88-2.76,2.72-2.02,1.7-4.43,2.88-7.09,3.14M311.3,142.29c6.91-8.23,9.3-18.58,4.38-28.1-4.9-10.57-16.67-.49-25.09,2.38-4.2.91-7.38,2.91-12.01.97M312.22,137.4c.08.01.07-.16,0-.14M311.9,138.63c3.49-5.22,5.44-11.48,5.52-17.76-.11,6.69-2.04,13.33-5.56,19.03-.63,1.02-1.48,2.12-2.69,2.21.94-2.09,2.36-3.96,4.13-5.41-2.18,1.41-4.35,2.83-6.55,4.22,2.97-.47,5.6-2.3,7.5-4.64,1.9-2.35,3.11-5.15,4.04-8l-2.22,5.34c1.79-4.5,3.6-9.37,2.48-14.08l-.15,6.34M313.37,133.97c-.69,2.94-2.91,5.47-5.74,6.55,1.99-.38,3.74-1.65,5-3.26s2.03-3.53,2.6-5.47c1.83-6.2,1.64-12.97-.54-19.06,1.31,3.08,2.01,6.41,2.03,9.76M315.08,114.88c.22-1.01-.31-2.06-1.03-2.82-1.44-1.5-3.58-2.17-5.66-2.18s-4.12.57-6.07,1.23M314.52,115.73c-.41-1.54-1.59-2.81-2.94-3.66-1.35-.85-2.89-.73-4.42-1.22-.6-.2-1.21-1.01-1.85-1.03-1.95-.08-3.58,1.41-4.93,2.83M316.4,127.45c1.3-2.41.83-5.39-.1-7.99-.43-1.21-.96-2.42-1.77-3.43-1.11-1.4-2.66-2.37-4.19-3.31-.92-.57-2.21-.87-3.27-1.13-1.34-.34-2.43-.4-3.77-.06-2.48.61-4.86,1.62-7.02,2.99M319.12,127.59c.17-3.43-.11-6.98-1.52-10.11-1.41-3.13-4.09-5.83-7.44-6.62-1.51-.36-3.08-.31-4.63-.15-5.43.59-10.82,2.86-14.48,6.93,3.11-2.58,6.45-4.89,9.98-6.87,1.18-.67,2.6-1.3,3.82-.71M315.89,127.67c-.72,2.75-1.86,5.38-3.34,7.78.37-.53.8-1.03,1.27-1.47M305.15,138.69c1.69.81,3.69-.05,5.24-1.1,1.06-.73,2.08-1.54,3-2.44.63-.62,1.29-1.5.96-2.32M305.46,137.8c.21.73,1.22.75,1.95.57,2.71-.65,5.25-1.97,7.34-3.82M305.74,137.5c.95.78,2.37.66,3.49.18s2.11-1.26,3.23-1.76c1.23-.56,2.7-.82,3.54-1.87M305.79,137.72c2.08.46,4.24-.37,6.05-1.51s3.39-2.6,5.27-3.62M306.04,137.59c.33.52,1.13.24,1.65-.08.99-.6,1.96-1.22,2.95-1.82,1.91-1.19,3.84-2.38,5.49-3.92M309.27,136.43c-.8.86-2.21.51-3.32.82-1.01.29-1.78,1.12-2.78,1.47-.98.35-2.14.2-2.96.83-.35.26-.59.62-.83.99-1.32,2.05-2.43,4.2-3.35,6.44M306.06,136.92c-.38.4-1.03.27-1.59.27-.81,0-1.57.37-2.29.76-2.83,1.57-5.4,3.61-7.57,6.01M311.75,111.35c-1.84-1.8-4.72-2.46-7.16-1.64-.05-.26.35-.36.61-.31,1.12.21,2.21.61,3.19,1.18M310.3,110.92l-.33-.18M313.56,112.21c-.73-1.32-2.13-2.17-3.57-2.59s-2.98-.43-4.49-.45c-.65,0-1.34,0-1.91.33,2.71-.72,5.53.5,8.07,1.69M285.74,117.25c1.45.75,5.51.31,6.33-1.36M282.94,118.54c1.39.24,2.8.47,4.19.28,1.39-.19,2.79-.89,3.49-2.11M276.39,118.32c.42.23.92.26,1.4.28,3.68.13,7.39-.13,11.01-.76M287.08,118.95c-.03.31.38.46.67.36s.49-.35.76-.49c.27-.15.6-.17.89-.29,1.12-.42,1.64-2.06,2.85-2.04M289.29,118.23c.67,1.28,3.72-2.34,4.15-2.86M272.68,114.16c1.09.44,1.51,1.75,2.34,2.59,1.68,1.69,4.55,1.09,6.73,2.06M276.8,117.25c1.57,1.13,4.68,2.02,6.61,2.17M271.1,104.52c-1.54,2.33-.46,1.5-.74,2.24-.56,1.54,0,3.25.62,4.78.5,1.23,1.03,2.45,1.61,3.64M276.96,99.14c.13-.23-.67.86-.93.85s-.49.17-.69.34c-1.13.95-2.13,2.07-2.95,3.31M278.68,97.29c-2.37,1.79-5.4,4.08-7.09,6.57M283.01,95.31c-1.54.37-3.03,1.05-4.31,1.98-1.78,1.28-3.19,3-4.58,4.71M274.51,101.11c-1.95,2.45-3.07,5.55-3.17,8.68-.03.9.03,1.8.3,2.66.51,1.61,1.73,2.89,3.06,3.93,2.11,1.66,4.76,2.91,7.41,2.5M270.2,106.26c-.75,2.06-.29,4.41.74,6.36,1.96,3.74,6.03,6.3,10.25,6.47,1.83.07,3.64-.27,5.43-.61l3.56-.68M282.24,117.74c4.49.41,9.6-1.13,13.31-3.63,2.18-1.47,5.88-5.53,8.78-4.65M310.99,111.72c-2.28-1.4-5.19-1.5-7.79-.84s-4.98,1.97-7.32,3.27l-7.14,3.99M315.05,114.55c.29-.41.24-.98.01-1.43s-.62-.79-.99-1.12c-1.3-1.14-2.67-2.31-4.35-2.69-.57-.14-1.14-.16-1.71-.27-.53-.1-1.05-.28-1.57-.36-1.97-.3-3.9.71-5.49,1.93M302.84,111.06c-.98,1.17-2.6,1.51-4.09,1.9-2.8.7-5.51,1.73-8.05,3.04-.6.31-1.2.65-1.68,1.12-.33.33-.58.7-.93.99-.62.54-1.49.75-2.29.57M274.23,116.5c1.32,1.32,4.39,3.92,6.33,3.71,1.42-.16,5.61-.39,6.52-.79.26-.12,1.13-.62,1.41-.63.51.02,2.49-1.46,2.87-1.8.59-.54-3.49,1.12-3.24.37M282.5,117.86c1.56.8,3.34.38,4.9-.2M297.89,99.23c2.85-1.02,5.43-2.73,7.5-4.93-1.11,2.67-3.74,4.49-6.54,5.22s-5.76.5-8.6-.02c-1.38-.25-2.77-.58-4.04-1.15-.75-.35-1.53-.9-1.59-1.73,4.53,2.56,10.03,3.36,15.11,2.18,1.65-.38,3.29-.99,4.51-2.15,1.2-1.13,1.92-2.96,1.27-4.48-.31-.75-.92-1.35-1.61-1.79-1.36-.87-3.01-1.19-4.61-1.28-5.06-.32-10.12,1.2-14.53,3.7s-8.2,5.95-11.63,9.69M284.7,84.26c-2.27,2.14-2.52,4.8-1.69,9.42M282.43,117.78c2.91,0,5.81-.62,8.45-1.82,1.1-.5,2.16-1.09,3.21-1.68,3.26-1.83,6.51-3.67,9.78-5.5M286.17,117.48c6.66-.8,12.97-3.64,17.81-8.3M282.12,95.57c-.29.33-.51-.36.02-.77.08-.07-.34.11-.31.21,1.55,1.51,2.2,2.21,3.52,2.89-.21-.12-.82-.85-1.05-.98M291.33,79.21c-1.94.52-3.62,2.31-5.18,3.27-.74.46-1.49.93-2.06,1.6s-1.03,1.73-1.41,2.83M298.82,80.25c-.33-.64-.66-1.27-1.31-1.38-.31-.05-.63-.04-.95-.03-3.28.18-6.5,1.18-9.3,2.89-.75.46-1.5.97-2,1.7M286.13,83.89c.96.79,2.16,1.28,3.39,1.39.55.05.89-.49,1.44-.54M290.05,85.16c1.9-.13,4.5-.43,6.28-1.07,1.29-.46,2.68-1.19,2.74-2.73.02-.8-.38-1.56-1.01-2.07-1.32-1.07-3.05-1-4.62-.67-3.41.7-6.59,2.48-8.94,5.04M285.99,118.65c-1.93-.23-4.55-.73-7.02-.52M283.27,117.71c2.26.07,5.29-.17,7.52-.72M275.45,100.51c-1.94,2.07-3.54,4.31-3.97,7.55M284.34,116.79c-.66.1-1.33.13-1.98.12-.02-.02-.07-.03-.18-.02-.03,0-.07,0-.11,0h-.19c-2.03-.1-4.02-.7-5.81-1.7-1.19-.84-2.34-1.81-2.9-3.18-.1-.22-.83,0-.76.18.1.24.21.46.35.69-.17.06-.31.17-.23.25.84.97,1.81,1.79,2.9,2.46-.21.05-.39.16-.31.22.35.24.72.45,1.09.63-.06.02-.14.04-.19.05-.07.04-.26.16-.09.21,1.94.61,3.97.81,6.01.61.05,0,.19-.05.3-.12.65,0,1.32-.03,1.96-.13.09-.02.43-.07.44-.2,0-.14-.21-.12-.31-.1h0s0,.02,0,.02ZM258.93,83.76c-.55.05-1.64.09-2.62.04s-2.25-.65-1.61.06c.41.46,1.63.76,2.15.84,1.21.2,2.57-.49,2.9-.56.64-.14-.29-.43-.82-.38h0ZM318.59,116.03l-2.17-3.6c-.07-.12-.36-.08-.55,0-.04-.06-.07-.13-.11-.18-.13-.2-.88.01-.71.28.07.12.14.23.21.34.11.35.31.63.56.91.5.84.99,1.7,1.49,2.54.07.13.38.08.57-.01h0c.13.21.85,0,.71-.28h0ZM310.23,107.75c-1.12-.52-2.75-.45-3.89-.06-.51.17-.95.5-1.38.83-.52.39-1.21.92-1.48,1.54-.27.66.18,1.45.43.71.68-2.03,2-2.48,3.94-1.94.87.24,1.69.65,2.58.83,1.65.31.65-1.49-.21-1.91h0ZM301.18,97.4c-.16-.09-.43-.06-.59-.02-1.62.48-3.28.88-4.95,1.23-.12.03-.39.12-.34.27,0,.02.03.02.04.04h-.02s-.08.03-.13.04c-.07.03-.16.07-.2.14-.02,0-.05,0-.07.02-.12.03-.43.14-.33.31.1.16.52.08.65.06.89-.2,1.76-.35,2.65-.53.77-.16,1.52-.36,2.2-.75.2-.04.4-.1.6-.14.12-.03.43-.14.33-.31,0,0-.02-.01-.03-.02.04-.03.09-.06.14-.07.12-.07.18-.17.05-.26h0ZM301.21,89.77s-.05.05-.09.06c0,0-.01.02-.02.03-.04.04-.08.07-.14.07-.03,0-.07.02-.11.03-.08.02-.18.01-.26.01-.04,0-.09,0-.14-.01-.06,0-.12-.02-.18-.04-.05-.01-.09-.03-.14-.06-.03-.02-.05-.04-.06-.08,0-.03,0-.05.01-.08,0,0,.01-.02.02-.03h0s.04-.05.06-.07c0,0,.02,0,.03-.02.02,0,.06-.03.09-.04.02,0,.04,0,.06-.02.02,0,.04,0,.06-.02.08-.02.18-.01.26-.01.04,0,.09,0,.14.01.08.01.16.03.23.07.03.01.05.03.08.04.03.02.05.04.06.08,0,.03,0,.05-.01.08h0s.03,0,.03,0ZM282.57,118.81c-.07.07-.21.1-.31.12-.13.02-.28.03-.41,0-.03,0-.06-.02-.08-.02-.19.03-.4.04-.57-.02h0c-.11,0-.21.01-.32,0-.16,0-.33-.03-.46-.12-.11-.06-.16-.18-.06-.28.14-.15.4-.19.6-.19.12,0,.23,0,.34.05.09-.05.2-.08.32-.11.22-.03.49-.04.69.07.04.02.07.05.09.08h.03s.07.05.08.09c0,0-.01.02-.02.03,0,0,0,.01.02.02.05.01.11.03.14.07.05.06,0,.13-.04.17h0s-.01.03-.01.03ZM315.9,123.21c.02-.18-.7-.02-.76.14-.47,1.35-.47,2.81-.64,4.22-.08.39-.17.79-.26,1.18-.03.02-.05.04-.06.07l-.15.29s0,.05.04.07c-.08.3-.17.59-.24.89-.01.06.03.09.09.11-.08.17-.17.32-.25.48-.26.49-.56.94-.88,1.39-.51.71-1.07,1.37-1.64,2.04-.05.04-.11.09-.16.13-.03.02-.06.04-.09.06-.17.12-.35.23-.53.34-.42.18-.86.33-1.3.47-1.39.44-2.81.8-4.23,1.14h-.09c-.15-.02-.26-.01-.28.1-.47.11-.95.23-1.41.33-.21.04-.05.23.03.31.17.15.43.21.65.22.63.02,1.27-.02,1.89-.1.06.02.12.03.16.02.03,0,.06,0,.08-.02h.02c.71-.1,1.41-.22,2.12-.39,1.47-.2,2.88-.69,4.17-1.44.15-.08-.14-.27-.43-.39,1.05-.49,2.05-1.12,2.81-2.03.19-.23-.59-.59-.86-.47.04-.06.09-.13.14-.18.32-.45.61-.91.87-1.39.26-.5.59-1.06.62-1.63,0-.13-.17-.2-.37-.24.13-.46.23-.93.29-1.4.29-1.38.5-2.79.64-4.2h0v-.04s.03-.02.03-.02v-.04ZM312.2,113.91c-.76-.43-1.51-.86-2.27-1.29.2.11.44.2.66.13s.38-.35.24-.54c.41.09.87-.06,1.15-.37-2.04-1.24-.41.15-2.77.53,3.15,1.83-1.57-.51-1.13-.33-.32-.18-1.4-.02-1.67.23.57.11-2.32-.38-1.75-.27-1.92-.29-1.47-.51-3.22.31.2.16.49.21.73.14-.33.41-.93.55-1.41.34.3-.24.5-.59.57-.97-3.26,1.3-6.17,3.34-9.24,5.05-2.05,1.15-4.22,2.16-6.52,2.68-2.45.56-4.9.34-7.37.03-.77-.09-1.56-.19-2.25-.55-1.02-.52-1.58-1.47-2.28-2.32-.83-1.01-1.7-1.98-2.52-3.01-.92-1.16-1.27-2.86-1.73-4.25-.31-.91-.23-1.75.01-2.69.12-.45.39-.97.86-.98.1,0,.57-.92.65-1.04.24-.35.49-.69.75-1.02.52-.66,1.08-1.28,1.68-1.87.59-.58,1.23-1.1,1.88-1.6.66-.5.82-1.2,1.45-1.73-.2.17.18-.25.25-.39.09-.17.24-.29.39-.41.71-.56,1.43-1.11,2.14-1.67.33-.25.64-.55.99-.78.31-.2.39-.06.69.09-.2.2-.39.39-.59.59.77.26,1.64.08,2.37-.29.73-.37,1.09-1.12,1.74-1.61,2.44-1.85,5.56-2.88,8.47-3.86-.14-.25-.5-.22-.78-.15-1.76.43-3.47,1.03-5.12,1.76-.84.37-1.66.78-2.46,1.23-.4.22-.8.45-1.19.7-.24.14-.51.34-.79.39-1.37.25-.68-5.71-.54-6.53.18-1,.53-1.98,1.05-2.85.15-.26.63-1.21.95-1.27.21-.04.37.16.56.21.26.07.55.04.79-.08-.34-.32-.58-.74-.7-1.2-.01-.05-.02-.1,0-.14.02-.05.07-.08.11-.1.22-.13.58-.26.66-.51-.06-.04-.12-.05-.19-.05-.37-.01-.74.06-1.08.2.14-.06-1.73-3.39-1.91-3.67-.77-1.19-1.68-2.26-2.57-3.36-.37-.46-.62-1.01-.98-1.48-.42-.54-.48-.75-1.12-.95-.2-.06-.22-.1-.35-.27-.22-.29-1.05-.24-.7-.12,2.22.81,3.62,3.48,4.8,5.31.91,1.42,1.83,2.84,2.69,4.3.05.09.71,1.1.59,1.19-1.66,1.25-2.57,2.47-2.99,4.51s-.4,3.77.52,6.97c-1.49.96-4.74,1.91-6,3.17-1.24,1.48-2.64,2.62-3.85,4-1.46,1.67-3.02,3.29-3.61,5.48-.67,2.48-.93,4.96.09,7.4,1.93,4.61,7.07,7.39,11.92,7.53,1.02.03,2.04-.06,3.04-.26,4.87-1,8.8-4.51,13.3-6.62,4.67-2.19,10.2-2.83,15.01-.96-.03-.02-.06-.04-.1-.05ZM465.28,286.9c-.43.48-.82.96-1.19,1.48-.26,0-.57.05-.65.2-2.24,4.07-4.98,8.7-4.98,13.46,0,.26,1.46-.14,1.47-.47,0-.22.03-.42.04-.63.13-.03.22-.08.21-.17-.19-2.61,1.21-5.22,2.27-7.53,1.01-2.22,2.21-4.36,3.85-6.19.17-.18-.79-.39-.99-.16l-.02.02h0Z" fill="none" stroke="#000" stroke-miterlimit="10" stroke-width=".99"/><path d="M321.3,119.27c-.13-.56-.31-1.1-.53-1.62-.05-.17-.12-.33-.17-.5-.24-.74-.3-1.52-.6-2.26s-.71-1.47-1.15-2.14c-1.73-2.69-4.65-5.43-7.86-6.11-.74-.16-1.51-.3-2.26-.24-4.4.39-7.85,2.9-11.66,4.84-3.28,1.67-6.67,3.15-10.18,4.24-.84.16-1.73.65-2.57.66-.75.26-.54.04-2.02.35-.07.09-.11.16-.12.23-.44.1-.86.25-1.03.51-.32.49.25.49.69.46,5.64-.32,11.13-1.79,16.2-4.31.09-.05.2-.08.3-.14.51-.25.39-.43-.01-.6-.41-.16-1.12.03-1.64.21-.09-.03-.2-.06-.3-.06,1.47-.69,2.92-1.41,4.36-2.15.91-.49,1.82-.97,2.72-1.48.43-.23.89-.6,1.35-.76.56-.2.64-.18,1.06.31.22.26,1.01.17,1.71-.06.24.17.57.23.88.24.19.18.45.32.72.38,1.99.47,3.59,2.03,4.76,3.67-.08.04-.17.1-.24.15-.8-.91-1.81-1.69-2.97-2.24-.72-.35-2.77.23-2.43,1.31.58,1.88,2.01,3.08,3.22,4.57.76.95,1.13,1.98,1.29,3.05,0,.15.01.27.05.38.12,1.13.04,2.3-.05,3.5-.28,3.75-.37,10.01-4.32,12.02-.14.07-.25.15-.36.23.22-.57-.37-.84-.86-.87-.87-.06-1.7.04-2.51.25-.28.04-.56.12-.74.18-.09.03-.19.06-.28.1-2.21.61-4.26,1.69-6,3.21-1.16.99-2.2,2.13-3.26,3.22-1.37,1.11-2.55,2.4-3.34,4.02-.02.03-.04.06-.04.09-.03.08-.08.16-.13.23-.25.59.8.76,1.11.76.62,0,1.45-.22,1.81-.78.66-.99,1.42-1.92,2.22-2.83.37-.05.73-.18,1-.35.95-.59,1.64-1.38,2.33-2.2.34-.2.68-.39,1.01-.59.32-.19.6-.53.57-.83.22-.18.43-.38.66-.56.82-.63,1.79-1.42,2.84-1.83.62-.16,1.26-.26,1.93-.29.39-.02.92-.17,1.3-.45-.38.83,4.38,3.62,5.54,3.02,3.08-1.58,3.29-2.17,4.04-5.28.53-.14-.07-5.03,0-5.59.35-2.68.16-1.97.12-4.67.07-.96.1-1.76.08-2.72.32.59-.1-2.05.23-1.48.11.18.3.31.5.39.45,1.45,3.4.75,3.04-.78Z" fill="#000" stroke-width="0"/><path d="M300.05,98.69c-1.14.44-2.4.57-3.58.8-1.14.22-2.35.54-3.52.57-2.2.06-4.23-1.17-6.09-2.19-.81-.44-2.82-1.72-3.76-1.7-.86.02-.88.1-1.71.67-1.5,1.03-2.79,2.84-4.08,4.1-.55.54-1.09,1.1-1.6,1.7-.29.53-.56,1.09-.78,1.67-.3,2.14-.4,4.31-.25,6.47.01.23.04.47.06.7.09,1-.02,1.39,1.01,2.8.54.75,2.03,1.04,2.84,1.31,1.66.54,3.35,1,5.04,1.47,1.27.35,2.54.7,3.79,1.11.41.13,2.66.75,1.58,1.32-1.84.97-4.07,1.72-6.15,1.91-1.53.14-2.98-.14-4.49-.27-1.26-.11-2.54-.25-3.64-.94-.59-.37-1.06-.88-1.59-1.32-.6-.5-1.33-.78-1.93-1.27-.91-.74-1.34-2.05-1.69-3.12-.38-1.15-.72-2.31-.81-3.52-.16-2.03.72-3.68,1.55-5.46.74-1.59,1.67-3.1,2.91-4.35.89-.9,1.93-1.72,2.89-2.52.66-.55,1.34-1.08,2.03-1.59,1.39-1.02,2.83-1.95,4.33-2.8,1.05-.59.97-1.94,1.65-.95s3.47,3.62,4.08,3.77c3.21.84,6.19.8,10.31-.08.97-.21,3.69-1.22,3.6-1.4-.37-.69.5.98-.77,2.37-.15.17-.32.32-.52.43-.22.12-.45.22-.69.31ZM305.56,94.18c0-.13-.01-.25-.02-.39.03-.33.02-.65-.03-.99.02-.09.03-.18,0-.26,0-.02-.02-.05-.02-.07-.02-.53-.04-1.07-.07-1.59-.01-.25-.4-.43-.58-.47-.15-.04-.31-.05-.48-.05-.32-.44-.74-.8-1.29-.97-.06-.02-.15-.01-.22-.03-.08-.03-.17-.06-.24-.08-.44-.09-.89-.11-1.32,0-.23.05-.45.14-.65.25-.14-.31-.53-.5-.9-.55-1.52-.23-3.06-.03-4.56.28-1.34.29-2.67.61-4,.92-.25.05-.58.19-.84.39-.08.02-.17.03-.25.05-.3.06-1.49.34-1.42.8.05.32.78.24,1.26.16.24.6,1.2.61,1.7.49,1.23-.29,2.47-.58,3.7-.86,1.31-.29,2.69-.3,4.03-.32.2,0,.41,0,.61.04.16.03.32.1.48.16.59.24,1.22.55,1.53,1.13.42.78.55,1.78.33,2.63-.13.49-.68,1.41-.31,1.89.18.23.55.37.83.39.39.03.82-.02,1.19-.18.28-.13.69-.34.81-.65.2-.51.41-1.02.55-1.54l.07-.09c.09-.15.14-.3.1-.49ZM261.69,81.93c-.24.14-.11.06,0,0h0ZM267.76,79.21c.01-.29-2.35,1.49-2.64,1.51-.43.04.01-.46-.26-.12-.56.68-2.72,1.5-3.61,1.92-.88.42-2.02.34-2.88.82-.13.08-.27.16-.36.29-.26.39.24.59.29.93.04.3-1.04.55-.75.64s1.94.05,2.24,0c1.71-.28,3.24-1.21,4.61-2.27.36-.28.62-.65.91-1,.67-.82,2.43-2.57,2.44-2.73Z" fill="#000" stroke-width="0"/><path d="M457.42,322.97c-.21-.05-.11-.01,0,0h0Z" fill="#000" stroke-width="0"/><path d="M463.82,319.44c.54-1.22.84-2.51,1.03-3.84.19-1.33.3-3.9.27-5.23-.39.89-.69,2.92-.98,3.84-.27.86-.09,1.77-.36,2.62-.22.71-.47,1.42-.74,2.12-.03.09-.07.18-.13.24-.24.24-.05.79-.37.9-.35.13-.46.86-.67,1.17-.35.51-1,.59-1.55.72-.66.15-1.3.44-1.97.54-1.11.18-3.29.56-3.67-.95-.15-.59.38-1.71.91-2.01-.76.56-1.76,1.79-1.73,2.73.03.77.61,1.44,1.32,1.74s1.51.27,2.27.17c3.24-.41,5.24-2.23,6.37-4.77Z" fill="#000" stroke-width="0"/><path d="M489.04,342.58c.17-.29.28-.58.36-.9.03-.16-.22-.15-.32-.15-.09.02-.2.03-.28.08-.05.03-.14.07-.15.14,0,.02-.02.04-.02.07-.06.03-.14.07-.17.13-.07.13-.18.24-.25.38-.09.04-.18.1-.21.19,0,.02-.02.04-.02.06h0c-.19.15-.39.28-.6.41-.08.03-.16.06-.21.13-.01,0-.02.03-.03.04-.96.6-2,1.07-3.11,1.36-.14.04-.37.15-.33.32.03.17.31.17.43.14.18-.04.35-.11.52-.16-.09.06-.2.12-.3.17-.14.07-.3.24-.19.4.08.12.25.16.4.13.08.01.18,0,.22,0,.25-.04.51-.11.76-.19-.01,0-.03.03-.04.03h0s-.07.05-.12.07h0s-.05.02-.07.04c-.03.02-.08.04-.13.05h-.02s-.04,0-.07.02c-.08.02-.17.03-.24.05h-.02c-.18-.04-.38,0-.54.07-.05.02-.19.12-.14.17,0,.02-.02.03-.02.05-.14.02-.26.05-.36.13-.13.11-.09.21.06.26.61.18,1.3.12,1.88-.13.3-.13.57-.29.79-.53.05-.05.09-.13.13-.18h0c.44-.17.84-.43,1.19-.76.6-.59.98-1.33,1.26-2.11h-.03s0,.02,0,.02Z" fill="#000" stroke-width="0"/><path d="M455.08,241.86c.09-1.56.03-3.17-.19-4.82-1.37-10.07-7.37-19.09-13.37-27.02-21.93-28.95-56.6-47.76-92.1-53.76-2.72-.47-5.6-.85-8.19.07-3.6,1.26-5.97,4.73-7.48,8.22-6.01,13.92-7.22,16.89-12.22,26.2-3.01,5.6-20.72,9.53-21.76,11.01-3.94,5.61.43,16.4-2.54,19.4-1.96,1.99-7.35,7.58-14.68,9.7-11.69,3.37-15.93-.58-21.37.77-5.05,1.25-3.81,13.18-8.97,15.74-9.35,4.67-17.21,4.19-20.86,4.74-8.56,1.29-12.37-6.86-20.97-5.97-6.13.63-7.37,10.75-13.52,10.6-12.88-.3-13.18-1.8-38.62-10.27-1.14-.38-3.11-9.29-8.17-11.38-3.45-1.42-6.64,2.85-9.63,1.25,0,0-6.07-3.23-11.61-8.63-1.29-1.24-2.35-2.49-2.71-4.25-.43-1.99.72-3.49-.83-8.17-2.87-8.73-8.06-1.73-11.54-7.05-5.82-8.92,2.16-22.11.26-24.27-3.32-3.75-3.42-10.54-3.49-11.27-.71-6.57,5.39-9.09,7.34-14.8,1.47-4.29,14.92-9.84,9.55-14.67-6.55-5.88-13.33-4.19-16.85-.24-3.19,3.58-15.57,8.05-20.17,19.28-2.11,5.16-11.54,4.4-12.99,7.53-1.48,3.22,1.08,5.77,1.52,11.28.67,8.37-2.12,21.37-4.64,26.92-2.68,5.92-7.96,1.75-6.54,10.11.8,4.72,4.7,12.61,9.51,19.72,6.7,9.9,7.82,16.69,15.95,32.36,1.07,2.07-1.16,15.41,3.22,17.29,2.32,1,4.64,4.19,7.17,4.26,5.31.16,10.02,2.43,13.72,4.78,13.66,8.66,22.36,14.62,31.82,19.47,8.31,4.27,28.34,8.76,27.73,13.6-.3,2.39,1.38,8.93,11.03,12.04,4.92,1.59,13.64-3.15,20.96-4.86,5.93-1.39,26.07,6.36,74.9.92.98,1.17,2.58,2.67,4.79,4.1,2.08,1.35,4.53,2.45,7.08,2.62,2.74-1.66,9.4-1.5,12.25-6.68,6.22-11.27,23.94-11.42,28.64-13.5,32.69-12.02,40.28-16.19,50.56-20.7,5.36-2.34,14.03,1.97,18.35.04,15.39-6.91-7.23-12.5,23.99-29.41,16.18-8.77,24.97-19.25,25.72-32.39h0s-.01.05-.01.05ZM145.06,255.84c.09-.06.19-.12.28-.18" fill="url(#radial-gradient)" stroke-width="0"/><path d="M285.26,148.34c-6.69-.2-7.02,10.22-.31,10.42,6.71.2,7.02-10.22.31-10.42Z" fill="url(#radial-gradient-2)" stroke-width="0"/><path d="M394.35,285.78c-.2-1.11-.71-1.97-1.41-2.59.63-1.01.88-2.33.49-3.93-1.32-5.37-2.82-10.75-6.17-15.24-2.5-3.35-5.45-5.93-7.66-9.19-.93-2.08-1.89-4.16-2.93-6.19-.89-1.74-2.49-2.52-4.13-2.59-2.72-3.54-5.58-6.98-8.64-10.23-5.7-6.06-12.19-11.6-19.43-15.75-.67-.39-1.35-.75-2.04-1.12-2.29-1.66-4.67-3.15-7.16-4.31-3.68-1.7-8.21-2.58-12.8-2.71-1.91-.52-4.05-.48-6.4-.16-.72.11-1.35.38-1.87.76-1.7.31-3.33.71-4.83,1.24-2.05.71-3.49,2.88-3.8,5.02-1.11-.25-2.33-.16-3.54.42-2.71,1.28-5.1,2.88-7.37,4.78-1.36-.04-2.7.5-3.63,1.79-.32.3-.63.61-.91,1.03-.64.09-1.29.3-1.89.62-1.27.23-2.54.46-3.82.65-4.93.74-5.3,9.12-.3,10.04.84.15,1.62.24,2.38.27.69.92,1.69,1.55,2.8,1.85.47.6,1.02,1.12,1.64,1.51v.38c-.11,2.39,1.57,4.24,3.62,4.99,1.72,3.73,3.81,7.26,5.68,10.96,3.22,6.41,5.7,13.12,7.46,20.06,3.56,13.97,3.2,28.04,2.99,42.33-.02.58.08,1.12.2,1.6-.61.55-1.11,1.21-1.46,1.94-2.94,3.88,2.46,9.43,7.09,7.35.12-.05.23-.11.35-.16.56-.25,1.03-.65,1.43-1.12,11.37-3.62,22.74-7.22,34.12-10.86,5-1.6,9.86-3.32,14.46-5.89,4.47-2.51,9.64-2.33,13.96-4.99.19-.12.36-.24.52-.37,11.94.41,14.71-12.85,13-22.19v.02s0,0,0,0ZM339.11,234.65c.07-.49.09-.96.04-1.41.34.12.68.22,1.01.34-.39.31-.75.67-1.06,1.09h0s0,0,0,0ZM356.32,265.93c-.15,0-.28.02-.43.04.19-.53.37-1.06.5-1.59-.03.51-.06,1.03-.07,1.54h0Z" fill="url(#radial-gradient-3)" stroke-width="0"/><path d="M112.32,192.93c-.98-3.41-7.09-3.83-9.79-2.27-1.63-1.2-3.5-2.08-5.44-2.75-2.74-.92-6.86-.87-8.93-3.05-3.14-3.29-8.87-3.42-9.08,1.08-.33,7.68-3.79,16.61-2.49,24.39-.16,2.83,2.7,7.38,4.14,9.93,1.92,3.4,5.81,3.14,8.09,1.17.99.54,1.97,1.18,3.16,1.35,1.24.16,2.25-.07,3.23-.44,5.42,1.04,12.53-.85,15.72-5.48,4.74-6.89,2.93-17.39.86-24.61l.5,1.84.03-1.17Z" fill="url(#radial-gradient-4)" stroke-width="0"/><path d="M117.19,151.62c-1.09-1.09-1.87-2.02-2.63-3.35-1.33-2.3-4.18-5.12-6.6-3.56-4.52,2.92-8.66,8.04-11.34,12.72-.46.81-1.42.42-1.4,1.31-.53.62.18-1.52-2.02.78-2.66,1.42-4.12,3.13-5.69,6.37-2.42,4.98,3.28,9.66,6.95,7.63.53.48,1.2.89,2.05,1.15,4.67,1.43,10.82,4.42,14-1.04,1.31-2.23,1.97-4.92,3.02-7.29,1.27-2.87,2.77-5.64,4.31-8.37,1.13-1.97,1.05-4.67-.62-6.33h-.02s0-.01,0-.01Z" fill="url(#radial-gradient-5)" stroke-width="0"/><path d="M294.51,222.9c.96-1.12,2.85-.88,7.27-3.1,4.63-2.33,14.41-1.3,18.97,1.17,4.56,2.47,8.22,6.87,9.05,12,.84,5.12-2.13,12.52-6.72,14.96-3.9,2.08-9.06,4.13-13.48,2.83-6.01-1.75-8.33-4.46-10.56-9.35-1.45-3.17-.94-5.62-.33-8.21.58-2.45,1.66-3.52,2.04-3.92,2.62-2.81,5.93-3.41,9.64-3.11,4.8.39,8.37,2.54,9.66,4.93,3.71,6.94-2.83,10.14-5.05,10.63-5.99,1.32-6.56-4.29-6.04-4.65" fill="none" stroke="#212120" stroke-linecap="round" stroke-miterlimit="10" stroke-width="2.96"/><path d="M329.8,232.97c.22,2.64.24,5.58-.24,8.19-1.22,6.78-4.76,13.24-4.34,20.12.3,4.81,2.72,9.53,6.65,12.31,3.93,2.78,8.68,3.09,13.29,1.68,2.83-.88,3.7-.78,6.76-2.49,1.93-1.08,5.16-3.52,6.2-5.5,2.86-5.42,2.59-11.77-2.12-15.7-3.05-2.55-4.74-3.03-7.84-3.14-1.28-.04-4.4,1.17-6.83,2.57-3,1.7-4.47,3.78-5.5,7.08-1.03,3.3.74,6.87,3.75,8.56,5.17,2.92,11.65-4.92,4.7-7.68" fill="none" stroke="#212120" stroke-linecap="round" stroke-miterlimit="10" stroke-width="2.96"/><path d="M342.79,275.84c7.37-.09,14.57.75,21.14,4.11,2.07,1.07,4.63,3.42,5.87,5.86,2.33,4.66,2.66,8.46.42,13.95-1.97,4.83-12.25,13.8-19.45,14.19-11.11.59-16.84-5.21-18.19-13.77-.86-5.56,1.24-8.32,3.86-11.15,3.35-3.65,10.96-5.77,16.06-4.01,6.37,2.2,6.95,9.65,5.08,14.31-2.35,5.87-13.32,5.45-11.13-3.26" fill="none" stroke="#212120" stroke-linecap="round" stroke-miterlimit="10" stroke-width="2.96"/><path d="M370.09,299.98c-1.55,2.57-3.46,5.12-4.2,8.03-.28,1.15-.44,2.39-.08,3.51s.8,1.46,1.98,1.6c.46-.51,1.62-.98,2.3-1.05,0,.26-.55.8-.33.67" fill="none" stroke="#212120" stroke-miterlimit="10" stroke-width="2.96"/><path d="M210.67,261.69c-6.16-.1-14.51-1.88-18.58-6.51-.12.18-.14.42-.05.62" fill="none" stroke="#221f1f" stroke-miterlimit="10" stroke-width="2.17"/><path d="M213.51,271c-1.03.69-17.19-1.18-21.91-3.01-11.54-4.49-18.4-12.14-21.87-17.12" fill="none" stroke="#221f1f" stroke-miterlimit="10" stroke-width="2.17"/><path d="M208.75,293.55c-13.27-1.79-21.48-5.19-31.25-13.74-6.97-6.08-13.5-18.22-19.93-31.46.11.26-.08,2.81.03,3.07" fill="none" stroke="#221f1f" stroke-miterlimit="10" stroke-width="2.17"/><path d="M205.4,311.12c-34.02-8.6-44.22-27.15-51.52-47.35" fill="none" stroke="#221f1f" stroke-miterlimit="10" stroke-width="2.17"/><path d="M196.4,321.3c-2.42,5-21.32.37-33.4-12.77-8.26-8.99-14.86-23.12-18.84-34.43" fill="none" stroke="#221f1f" stroke-miterlimit="10" stroke-width="2.17"/><path d="M138.64,310.51c-5.46-5.9-9.95-12.88-12.01-24.39" fill="none" stroke="#221f1f" stroke-miterlimit="10" stroke-width="2.17"/><path d="M157.79,320.16c-4.82-4.09-13.05-14.67-15.93-20.3-3.89-7.58-4.99-11.75-6.36-18.88" fill="none" stroke="#221f1f" stroke-miterlimit="10" stroke-width="2.17"/><path d="M135.88,260.13s2.19-4.04,1.95-4.04c-1.48-4.97-2.04-14.2-.63-20.86" fill="none" stroke="#221f1f" stroke-miterlimit="10" stroke-width="1.97"/><path d="M131.43,264.82c-2.04-11.82-2.46-23.72,1.62-34.79" fill="none" stroke="#221f1f" stroke-miterlimit="10" stroke-width="1.97"/><path d="M123.16,269.74c-1.86-14.71-.82-30.3,5.66-43.39" fill="none" stroke="#221f1f" stroke-miterlimit="10" stroke-width="1.97"/><path d="M112.09,274.51c-3.65-14.4-.01-30.85,6.82-44.76-.44.06-2.03.09-2.46.15" fill="none" stroke="#221f1f" stroke-miterlimit="10" stroke-width="1.97"/><path d="M102.81,273.06c-3.14-13.1.73-27.1,5.87-39.55-.18.73-3.11,1.37-3.29,2.11" fill="none" stroke="#221f1f" stroke-miterlimit="10" stroke-width="1.97"/><path d="M91.2,265.27c-1.18-6.28-.79-9.98-.05-12.81,3.18-12.17,7.11-16.18,8.36-16.89" fill="none" stroke="#221f1f" stroke-miterlimit="10" stroke-width="1.97"/><path d="M81.89,250.54c.22-4.45,4.26-11.6,7.37-15.26" fill="none" stroke="#221f1f" stroke-miterlimit="10" stroke-width="1.97"/><path d="M137.43,252.3c.43.79,1.32,1.32,2.23,1.29-.08.09-.23.12-.35.07" fill="none" stroke="#000" stroke-miterlimit="10" stroke-width=".99"/><path d="M136.97,253.84c.09,1.42-.06,2.86-.45,4.24" fill="none" stroke="#000" stroke-miterlimit="10" stroke-width=".99"/><path d="M131.28,260.93c-.05,1.01,1.11,1.88,2.06,1.54.04.13-.07.27-.21.29" fill="none" stroke="#000" stroke-miterlimit="10" stroke-width=".99"/><path d="M130.32,261.37c.16.43.18.9.09,1.35-.08.39-.27.76-.46,1.12-.21.4-.41.8-.62,1.21-.03.06-.07.14-.15.13s-.07-.14,0-.12" fill="none" stroke="#000" stroke-miterlimit="10" stroke-width=".99"/><path d="M123.04,265.96c-.05.33.14.68.4.88s.59.32.92.42c.52.16,1.03.34,1.54.49" fill="none" stroke="#000" stroke-miterlimit="10" stroke-width=".99"/><path d="M122.31,266.02c.15,1.38-.34,2.81-1.29,3.82" fill="none" stroke="#000" stroke-miterlimit="10" stroke-width=".99"/><path d="M114.3,271.81c-.07.05.13.09.11,0s-.14-.11-.22-.12c-1.22-.02-2.41-.82-2.86-1.96.13.43-.47,1.31-.69,1.7-.62,1.15-1.54,2.13-2.66,2.82" fill="none" stroke="#000" stroke-miterlimit="10" stroke-width=".99"/><path d="M102.41,271.13c.3,1.17,2.18,2.14,3.37,2.35" fill="none" stroke="#000" stroke-miterlimit="10" stroke-width=".99"/><path d="M101.95,270.77c-.14.32-.1.69-.21,1-.07.22-.19.41-.32.6-.22.34-.44.69-.65,1.02-.39.6-.84,1.26-1.53,1.47" fill="none" stroke="#000" stroke-miterlimit="10" stroke-width=".99"/><path d="M90.21,258.31l-.68.96c-.37.52-.76,1.05-1.32,1.32-.19-.17-.38-.35-.57-.52" fill="none" stroke="#000" stroke-miterlimit="10" stroke-width=".99"/><path d="M83.18,244.31c-.36.34-.82.68-1.29.51-.45-.16-.83-.78-1.26-.54" fill="none" stroke="#000" stroke-miterlimit="10" stroke-width=".99"/><path d="M207.83,258.7s-.03.04-.05.06c-.55.71-.78,1.8-1.63,2.06,0,.14-.03.27-.04.4" fill="none" stroke="#000" stroke-miterlimit="10" stroke-width=".99"/><path d="M209.29,270.4c.81-.4,1.58-.93,2.25-1.56.33-.31.63-.65.73-1.09s-.11-.95-.52-1.08" fill="none" stroke="#000" stroke-miterlimit="10" stroke-width=".99"/><path d="M208.39,262.24c.45.23.91.47,1.24.86s1.49.62,1.31,1.08" fill="none" stroke="#000" stroke-miterlimit="10" stroke-width=".99"/><path d="M207.36,292.84c.75.32,1.65.02,2.25-.52s.97-1.3,1.29-2.04" fill="none" stroke="#000" stroke-miterlimit="10" stroke-width=".99"/><path d="M209.77,271.18c.74.71,1.48,1.48,1.91,2.41s1.55,2.7.98,3.58" fill="none" stroke="#000" stroke-miterlimit="10" stroke-width=".99"/><path d="M200.98,309.23c.69-.02,1.4-.11,1.98-.47s1.93-.46,1.76-1.11" fill="none" stroke="#000" stroke-miterlimit="10" stroke-width=".99"/><path d="M207.05,293.35l.88,1.3c.23.33.44.67.58,1.04.41,1.19-.2,2.47-.85,3.56" fill="none" stroke="#000" stroke-miterlimit="10" stroke-width=".99"/><path d="M200.51,310.22c1.14,1.05,1.4,2.94.58,4.26" fill="none" stroke="#000" stroke-miterlimit="10" stroke-width=".99"/><path d="M188.93,323.4c.52,1.28.49,2.75-.07,4.01" fill="none" stroke="#000" stroke-miterlimit="10" stroke-width=".99"/><path d="M289.55,315.64c-.08-.05-.19.05-.18.15s.08.17.17.23c.52.41,1.07.8,1.41,1.37s1.74,1.42,1.23,1.85" fill="none" stroke="#000" stroke-miterlimit="10" stroke-width=".99"/><path d="M287.41,329.06c-.12-.13-.37-.08-.43.08,1.24.47,1.88,2.1,1.32,3.3" fill="none" stroke="#000" stroke-miterlimit="10" stroke-width=".99"/><path d="M290.57,294.9c0,.21.38.19.45-.02s-.07-.41-.2-.57c-.73-.9-2.75-1.4-2.4-2.67.14-.51.91-.95,1.17-1.45.36-.63.49-1.42.63-2.12-.13-.04-.23-.09-.36-.15" fill="none" stroke="#000" stroke-miterlimit="10" stroke-width=".99"/><path d="M279.43,265.31c.58.02,1.19.07,1.71.39s1.68.03,1.53.61" fill="none" stroke="#000" stroke-miterlimit="10" stroke-width=".99"/><path d="M278.83,264.4c.49-.18.83-.65.99-1.14s.18-1.02.18-1.55c.01-.49.02-.98-.13-1.46" fill="none" stroke="#000" stroke-miterlimit="10" stroke-width=".99"/><path d="M111.78,201.77c-3.02-.15-6.07-.29-9.05.25s-5.91,1.75-7.98,3.95-4.07,5.96-2.22,8.35c2.17,2.81,5.23,3.8,8.09,2.52,1.82-.83,2.47-1.34,3.3-2.87.69-1.29.72-3.14.37-4.58-.38-1.58-1.78-2.52-3.89-1.97-1.68.44-2.88,3.86-.28,4.85" fill="none" stroke="#000" stroke-linecap="round" stroke-miterlimit="10" stroke-width=".99"/><path d="M111.51,200.73c-3.03-.23-6.07-.16-9.08.23-1.77.21-3.56.55-5.32.29-1.1-.16-2.2-.59-3.04-1.31-1.56-1.33-1.02-3.59.26-4.93.73-.78,1.86-1.09,2.91-1.35,1.8-.44,3.66,2.23,2.7,3.76-.63,1.01-2.21,1.28-3.14.51" fill="none" stroke="#000" stroke-linecap="round" stroke-miterlimit="10" stroke-width=".99"/><path d="M97.73,203.71c-3.53,1.73-6.39,3.79-9.48,6.18-1.67,1.28-6.09,1.1-7.04-1.45-1.79-4.75,2.94-6.7,5.46-6.68,1.43.01,3.04,2.57,1.67,4.11-.91,1.03-2.54.82-3.74.54" fill="none" stroke="#000" stroke-linecap="round" stroke-miterlimit="10" stroke-width=".99"/><path d="M471.2,100.4c.47-.76.76-1.63.76-2.52,0-1.52-.24-2.94-.68-4.34.02-.18.04-.35.05-.54.03-.58-.03-1.16-.16-1.71-.04-.8-.08-1.6-.13-2.41-.09-1.36-.58-2.45-1.31-3.28-.05-.56-.12-1.12-.18-1.69-.14-1.29-.65-2.33-1.38-3.14-.31-1.64-.67-3.26-1.16-4.91-.24-.84-.65-1.51-1.12-2.06,0-.27-.01-.53-.06-.78-.03-.32-.06-.61-.1-.93-.14-.69-.43-1.29-.88-1.79-.22-.4-.52-.72-.91-.97-.49-.47-1.07-.8-1.74-.98-.45-.07-.92-.16-1.38-.23-.39-.01-.75.03-1.12.1-.83.02-1.62.22-2.36.62-.36.26-.72.52-1.08.78-.59.57-1.02,1.23-1.3,1.99-.27.38-.51.78-.67,1.2-.87,1.52-1.81,3-2.8,4.44-1.26.5-2.38,1.49-3.07,3.07-.01.03-.03.07-.04.11-.46.21-.92.52-1.34.92-1.2,1.15-2.4,2.32-3.6,3.47-.51.49-.87.99-1.15,1.52-3.38,3.55-6.55,7.28-9.52,11.17-2.37,2.64-4.46,5.51-6.26,8.57-.84,1.12-1.65,2.26-2.41,3.46-.72,1.12-.94,2.26-.8,3.3-.02.05-.04.09-.06.15-.15.33-.3.66-.44.99-.96,2.08-.58,4.11.46,5.61-.21,2.65,1.38,4.25,3.37,4.77-.37,2.59-.74,5.17-1.11,7.75-.35,2.53,2.06,4.9,4.37,5.25,2.75.42,4.76-1.12,5.83-3.56.21-.5.36-.98.48-1.49.12-.21.23-.45.34-.68.55.15,1.11.22,1.68.21.34.16.69.27,1.07.36,1.36,1.43,3.81,1.76,5.9,1.01.87,1.97,2.65,3.19,4.65,3.21,1.37.58,2.9.69,4.21.13.94-.18,1.86-.6,2.64-1.27.16-.14.32-.3.47-.43,1.19-.08,2.34-.55,3.22-1.52.57-.4,1.08-.94,1.46-1.68.46-.88.92-1.73,1.38-2.61.23-.18.47-.38.7-.62.27-.3.53-.58.76-.87.87-.58,1.59-1.41,2-2.52.55-1.5.9-2.85,1.17-4.41.05-.32.08-.64.09-.95.51-.53.91-1.18,1.16-2.01,1.16-4.03,1.97-8.07,2.57-12.21.18-1.22-.07-2.24-.56-3.03.06-.69.1-1.37.14-2.06v.03s-.01,0-.01,0Z" fill="url(#radial-gradient-6)" stroke-width="0"/><path d="M410.95,89.41c.3-3.08.36-6.22.14-9.36-.04-.64-.2-1.22-.41-1.75-.29-2.88-.95-5.63-2.38-7.42-.06-.28-.15-.56-.23-.84.03-.24.05-.48.09-.72,1.08-6.39-7.97-9.7-9.96-3.07-.35,1.16-.59,2.29-.72,3.46-1.15.28-2.28.95-3.15,2.07-1.47,1.88-2.53,4.06-3.65,6.18-.9.55-1.65,1.38-2.16,2.54-1.6,3.68-5.11,6.23-7.09,9.69-1.4,2.45-2.87,4.62-3.34,7.34-.76,1.07-.79,2.83-.61,4.1-.07-.55-.13-1.48-.06-2.11.15-1.09.03.08,0,0,.25-.82.14-2.14-.23-3.13-.82-2.13-1.54-3.05-3.44-4.7-1.73-1.51-3.48-3.63-5.53-4.67-1.66-.83-3.18-1.5-4.85-2.22-2.03-.87-4.09-.96-6.27-1.25-.45-.05-1.22-.15-1.52.12-.29-.2-.76-.25-1.1-.37-.61-.34-1.4-.2-2.12-.2-.09,0-.19.01-.28.03-.19-.03-.37-.05-.56-.06h-.17c-.72-.06-1.39.08-2.03.38-.65.19-1.65-.13-2.13.35-.53.45-2.92-.08-3.15.56-.34.61-.09,1.84.85,3.26.05.46,1.17,1.42,1.23,1.88.22.9.65,1.67,1.28,2.34l.12.08c.3.35.62.67,1.03.94,2.85,4.74,5.48,9.6,7.9,14.58.21.42.48.78.77,1.09.14.54.29,1.09.46,1.62h0c.14.43.32.84.54,1.24.19.44.46.85.8,1.2.04.04.08.06.13.11.69.78,1.82,2.14,2.72,2.3.35.09.79.03,1.17.03.46-.05.56-.91,1.02-.96.9-.22,1.67-.65,2.34-1.28.28-.35.56-.69.84-1.03.39-.64.64-1.33.74-2.06.39-.88.68-1.81.79-2.68.75.22,1.52.29,2.28.22,3.59.78,6.87-1.87,6.47-5.48.1.54.42.8.4,1.4-.01.39.09,1.25.34,1.6,1.65,2.37,5.72.58,8.31,1.99,1.74.68,3.54,1.48,5.3,1.93,1.73.45,3.47.54,5.23.4.73.4.24.65.28.65,1.69.42,2.83-.26,4.54-.56,2.07-.2,3.87-.96,4.97-3.14l.67-1.35c.03-.07.05-.16.1-.23.56-.82,2-2.56,2.39-3.82.83-2.79.92-5.95,1.33-8.83.14-.94-.02-1.78-.37-2.49v.04s-.02.04-.02.04Z" fill="url(#radial-gradient-7)" stroke-width="0"/><path d="M501.8,270.19c-.4-1.85-.31-3.39-.17-5.25.09-1.25-.34-2.35-1.06-3.23.66-1.01.92-2.36.49-4.01-1.24-4.69-2.97-9.16-5.26-13.45-.38-.72-.85-1.29-1.34-1.72-2.47-3.72-5.73-6.76-10.02-8.86-.97-.47-2.18-.7-3.34-.62-3.26-.41-6.7,2.69-5.88,6.43.17.81.32,1.61.45,2.42-.81.59-1.45,1.5-1.78,2.8-.38,1.5-.74,2.97-1.09,4.42-.35,1.26-.75,2.5-1.17,3.74-2.67,1.48-4.32,2.09-4.76,4.59-.93-.37-1.6.86-2.69.63-2.67-.57-4.6.56-6.89.71-1.15.07-3.77-1.08-3.67-.11-.89-.83.23,1.07-.9.48-5.18-2.77-6.03,4.46-9.77,7.07-2.06,1.43-3.9,2.47-5.33,4.6-.72,1.06-1.36,2.05-2.04,3.01-2.09.45-4,2.02-4.36,4.7-.12.93-.25,1.86-.38,2.79-.05.36-.04.71,0,1.04-.73,5.54-2.01,10.76-1.52,16.58.26,3.17.51,6.38,1.16,9.5.72,3.47,2.39,6.54,3.28,9.94,1.52,5.71,8.49,4.62,10.04-.15.93-.56,1.73-1.4,2.25-2.59.65-1.47,1.36-2.92,2.09-4.35.66-.39,1.29-.93,1.81-1.71,3.46-5.14,6.84-10.36,9.83-15.78.97-1.74,1.48-3.2,1.64-4.53.7-.69,1.21-1.57,1.51-2.51.5-1.64.71-3.41.97-5.09.17-1.11-.2-2.16-.86-3.05-.02-.95-.09-1.89-.22-2.83,1.96,3.46,3.92,6.93,6.14,10.21,5.3,7.82,13.28,13,18.92,20.42,2.66,3.5,9.28.95,9-3.42-.35-5.3-.29-11.56,1.24-16.68,1.15-3.84,1.52-7.15,1.5-10.84,1.56-1.07,2.61-2.92,2.19-5.31h-.03s0-.01,0-.01Z" fill="url(#radial-gradient-8)" stroke-width="0"/><path d="M331.92,170.67c8.94-1.3,17.75-3.44,26.29-6.38,2.33-.81,4.97-2.01,5.52-4.41" fill="none" stroke="#000" stroke-miterlimit="10" stroke-width=".25"/><path d="M325.52,183.87c14.81-2.84,35.45-6.6,50.27-9.45,2.39-.46,7.91-2.09,9.98-3.38" fill="none" stroke="#000" stroke-miterlimit="10" stroke-width=".25"/><path d="M335.6,190.3c23.84-1.26,47.61-3.94,71.14-7.99" fill="none" stroke="#000" stroke-miterlimit="10" stroke-width=".25"/><path d="M344.91,201.39c25.94-.04,52.22-1.01,77.44-7.66" fill="none" stroke="#000" stroke-miterlimit="10" stroke-width=".25"/><path d="M366.47,211.78c14.57.13,29.15-.18,43.71-.98,9.5-.51,19.06-1.24,28.21-3.85" fill="none" stroke="#000" stroke-miterlimit="10" stroke-width=".25"/><path d="M386.51,228.79l64.23-3.85" fill="none" stroke="#000" stroke-miterlimit="10" stroke-width=".25"/><path d="M396.81,242.62c19.75-.41,39.51.09,59.23-.73" fill="none" stroke="#000" stroke-miterlimit="10" stroke-width=".25"/><path d="M404.8,260.39c15.95.4,32.19-.49,47.9-3.36" fill="none" stroke="#000" stroke-miterlimit="10" stroke-width=".25"/><path d="M411.06,273.5c7.21-.56,14.43-1.12,21.63-1.67" fill="none" stroke="#000" stroke-miterlimit="10" stroke-width=".25"/><path d="M412.66,280.45c3.31.11,6.64,0,9.93-.33" fill="none" stroke="#000" stroke-miterlimit="10" stroke-width=".25"/><path d="M244.18,251.87c9.74,6.68,28.4,14.37,39.6,17.86-.51-.02-6.01-2-6.52-2.04" fill="none" stroke="#000" stroke-miterlimit="10" stroke-width=".25"/><path d="M234.9,254.29c3.19,4.32,7.63,7.71,11.66,11.2,4.56,3.95,9.12,7.89,13.76,11.73,8.44,6.98,20.06,16.66,30.64,20.15-1.36-.3-5.52-2.61-6.88-2.92" fill="none" stroke="#000" stroke-miterlimit="10" stroke-width=".25"/><path d="M227.96,257.12c13.91,26.86,36.15,50.46,65.27,59.26" fill="none" stroke="#000" stroke-miterlimit="10" stroke-width=".25"/><path d="M230.24,285.15c17.3,18.81,35.49,38.11,60.11,47.86" fill="none" stroke="#000" stroke-miterlimit="10" stroke-width=".25"/><path d="M227.32,305.38c14.63,13.07,30.04,25.64,47.77,34.28" fill="none" stroke="#000" stroke-miterlimit="10" stroke-width=".25"/><path d="M216.46,314.16c7.52,11,18.77,18.63,30.03,25.4" fill="none" stroke="#000" stroke-miterlimit="10" stroke-width=".25"/><path d="M216.34,326.87c2.23,5.42,6.3,8.67,9.67,12.96" fill="none" stroke="#000" stroke-miterlimit="10" stroke-width=".25"/><path d="M210.58,293.11c-5.57-11.13-9.86-22.9-12.74-35" fill="none" stroke="#000" stroke-miterlimit="10" stroke-width=".25"/><path d="M202.02,315.63c-2.02-2.1-3.08-4.91-4.04-7.66-5.72-16.06-11.04-35.94-11.49-52.99" fill="none" stroke="#000" stroke-miterlimit="10" stroke-width=".25"/><path d="M194.87,322.56c-8.92-21.7-15.52-45.29-18.07-68.64" fill="none" stroke="#000" stroke-miterlimit="10" stroke-width=".25"/><path d="M188.22,328.19c-10.43-19.53-17.75-41.72-18.77-63.95-.21-4.38-.5-9.01.28-13.35" fill="none" stroke="#000" stroke-miterlimit="10" stroke-width=".25"/><path d="M176.47,328.1c-10.81-20.08-18.49-41.83-22.68-64.24.36,1.49.71,2.99,1.07,4.46" fill="none" stroke="#000" stroke-miterlimit="10" stroke-width=".25"/><path d="M166.8,324.32c-10.17-12.61-23.17-28.94-24.62-45.32" fill="none" stroke="#000" stroke-miterlimit="10" stroke-width=".25"/><path d="M149.01,318.28c-7.37-10.83-13.2-22.71-17.23-35.17.3,1.03.58,2.07.88,3.1" fill="none" stroke="#000" stroke-miterlimit="10" stroke-width=".25"/><path d="M133.06,308.16c-4.74-6.02-7.18-13.46-8.94-20.82" fill="none" stroke="#000" stroke-miterlimit="10" stroke-width=".25"/><path d="M144.96,239.88c-8.21,6.93-14.16,16.47-16.79,26.9" fill="none" stroke="#000" stroke-miterlimit="10" stroke-width=".25"/><path d="M136.34,239.01c-10.66,10.72-21.8,21.39-28.39,35.25" fill="none" stroke="#000" stroke-miterlimit="10" stroke-width=".25"/><path d="M134.52,234.26c-10.19,9.71-27.31,24.91-33.09,38.14" fill="none" stroke="#000" stroke-miterlimit="10" stroke-width=".25"/><path d="M119.12,232.76c-8.54,10.45-19.09,24.36-25.19,36.47" fill="none" stroke="#000" stroke-miterlimit="10" stroke-width=".25"/><path d="M108.23,234.05c-5.53,5.7-10.29,12.15-14.08,19.14-2.36,4.36-4.39,9.12-4.19,14.08.01.3.1.66.38.71s.22-.6.01-.39" fill="none" stroke="#000" stroke-miterlimit="10" stroke-width=".25"/><path d="M82.94,251.16c5.16-5,8.64-10.16,14.88-13.7-.75-.18-1.43-.64-1.88-1.25" fill="none" stroke="#000" stroke-miterlimit="10" stroke-width=".25"/><path d="M.1,479.55c.98.43,1.05,1.3,1.02,2.18-.53-.06-1.32.26-1.07-.84.09-.43.04-.9.05-1.34Z" fill="#fff" stroke-width="0"/><path d="M393.49,115.45c-3.35.24-8.29-1.77-11.72-.05,5.42,4.73,17.48,3.09,24.23,2.75,1.2-.05,7.04.84,5.03-1.95-1.38-1.9-11.35-.3-13.55-.22-.89-6.43,7.06-6.34,11.79-5.2,6.5,1.57,11.73,7.17,14.16,13.24,4.8,11.92.93,28.55-8.85,36.97-17.3-11.18-35.44-20.5-56.05-24.14-5.85-20.01,20.51-41.45,35.37-22.05-.13.21-.26.44-.4.66h0s0-.02,0-.02Z" fill="url(#radial-gradient-9)" stroke-width="0"/><path d="M395.42,302.82c8.04-20.9-7.75-47.22-21.42-62.12-15.54-16.93-38.14-31.9-62.15-29.87-2.89.25-10.38,7.17-12.79,5.11-3.12-2.68-1.32-14.53.74-16.16,9.3-7.35,28.46-2.27,38.66,1.07,21.62,7.07,41.34,22.76,54.73,40.99,7.58,10.33,13.41,22.11,15.88,34.75,1.55,7.92,1.56,33.17-13.67,26.24h0s0,0,0,0Z" fill="url(#radial-gradient-10)" stroke-width="0"/><path d="M456.39,198.72c9.49-3.27,11.12-5.78,11.18-17.19,6.32,1.03,17.87-8.4,24.05-8.68,5.68-.9,4.89.93,8.42,3.99,19.35,12.29,14.08,39.37-1.95,51.29-6.1,4.54-21.45,7.81-26-.71-2.52-4.71-3.88-10.03-6.58-14.76-2.75-4.84-5.98-9.38-9.14-13.96h.02s0,.01,0,.01Z" fill="url(#radial-gradient-11)" stroke-width="0"/><path d="M301.01,341.45c-4.47,3.31-15.36,1.26-12.74-3.65,8.02-14.96,7.57-42.37,3.66-57.08-2.54-9.55-6.28-18.63-12.49-26.4-5.71-7.13-12.39-7.91-19.89-10.51-2.7-.93-5.52-2.29-1.17-7.98,5.9-7.73,21.83.09,27.29,5.56,9.32,9.33,16.57,21.34,20.19,33.84,3.92,13.5,6.3,29.21,4.76,43.26-.61,5.62-3.75,18.65-9.61,22.98v-.02s0,0,0,0Z" fill="url(#radial-gradient-12)" stroke-width="0"/><path d="M179.07,329.45c16.25,4.82,28.31-20.08,32.2-31.77,2.58-7.75,4.47-15.04,3.93-23.23-.62-9.34-4.11-15.61-11.64-20.78,1.26-6.23,12.88-6.05,17.02-3.51,4.49,2.76,6.85,7.98,8.25,12.85,3.56,12.45,1.12,27.38-2.6,39.57-3.5,11.45-10.27,25.13-19.64,32.92-4.51,3.74-10.49,6.9-16.5,6.55-8.57-.82-13.93-6.82-11.02-12.62h0s0,0,0,0Z" fill="url(#radial-gradient-13)" stroke-width="0"/><path d="M94.5,273.65c6.4,2.1,12.06,3.15,18.84,1.17,5.63-1.66,10.75-4.76,15.54-8.17,10.67-7.61,14.14-17.73,14.73-29.68,10.03-6.35,17.55,6.98,13.34,17.58-2.6,9.21-10.57,17.54-17.93,23.26-7.4,5.75-17.45,11.04-26.79,12.57-12.68,1.7-23.42-6.27-17.71-16.73h-.02s0,0,0,0Z" fill="url(#radial-gradient-14)" stroke-width="0"/><path d="M338.75,121.32c3.23,2,14.27,2.63,16.87-1.33,1.08-1.65,1.17-1.81-.83-2-3.12-.3-6.75,2.96-10.17,2.69,2.76-4.27,8.41-9.02,13.78-6.61,1.84,1.3,3-1.04,1.76,5.52-.22,1.2-1.68,3.98-2.5,7.86-1.13,5.09-.97,8.62-2.13,8.91-.78.18-3.57-.49-3.72-.5-2.17-.28-4.14-.3-6.66-.14-3.19.21-2.68-.2-5.45.15-3.13.39-5.98,4.78-8.01,2.56-3.33-3.68-8.4-7.77-12.76-5.76-.07.03-.12.06-.15.04-.34-.22-1.34-11.71,4.72-16.12,2.41-1.76,8.22-2.19,12.17-1.27,1.86.43,6.12,4.18,6.92,4.95-.98.41-2.63.56-3.9,1.08h0s.03-.02.03-.02Z" fill="url(#radial-gradient-15)" stroke-width="0"/><path d="M73.89,211.22c4.26,12.18,19.35,13.17,30.29,9.61,3.05-1,5.75-2.83,8.32-4.77,1.73-1.3,4.21-5.14,5.98-5.86,5.4-2.19,7.7,9.23,6.16,12.36-5.44,11.06-28.6,13.57-39.05,12.53-6.04-.59-13.42-3.75-16.7-9.37-2.4-4.12-.89-13.39,5.01-14.49h0s0,0,0,0Z" fill="url(#radial-gradient-16)" stroke-width="0"/><path d="M438.29,153.75c-13.59-.49-12.22-22.06,1.38-21.23,13.63.85,12.22,21.72-1.38,21.23Z" fill="url(#radial-gradient-17)" stroke-width="0"/><path d="M302.01,159.75c13.69.26,13.55,21.41-.26,21.13-13.48-.27-13.27-21.4.26-21.13h0Z" fill="url(#radial-gradient-18)" stroke="url(#radial-gradient-19)" stroke-miterlimit="10" stroke-width=".99"/><path d="M283.05,164.18c-13.48-.29-13.26-21.36.37-21.08,13.45.28,13.25,21.37-.37,21.08Z" fill="url(#radial-gradient-20)" stroke="url(#radial-gradient-21)" stroke-miterlimit="10" stroke-width=".99"/><path d="M289.73,166c-1.28,4.86-.23,9.06,2.69,12.65-3.54,9.43-16.52,10.75-20.52.75-1.61-4.04-.96-10.36,2.94-13.07,2.58-1.79,2.5-.85,5.59-.32,3.2.54,6.1-.12,9.28-.02h0Z" fill="url(#radial-gradient-22)" stroke="url(#radial-gradient-23)" stroke-miterlimit="10" stroke-width=".99"/><path d="M451.59,153.84c13.24.39,13.19,20.38.37,20.98-13.99.66-14.55-21.4-.37-20.98h0Z" fill="url(#radial-gradient-24)" stroke-width="0"/><path d="M472.97,180.06c-12.94-.25-13.19-19.85-.54-20.89,14.06-1.15,14.81,21.17.54,20.89Z" fill="url(#radial-gradient-25)" stroke-width="0"/><path d="M451.29,151.38c.18-6.08,0-12.28,6.55-14.91,5.59-2.25,12.13.48,14.2,6.19,1.81,5.03-.83,11.65-6.02,13.6-5.22,1.96-9.09-4.41-14.72-4.89h0Z" fill="url(#radial-gradient-26)" stroke-width="0"/><path d="M316.06,149.53c.43,12.34-21.85,11.95-21.09-1.44.78-13.56,21.5-12.16,21.09,1.44Z" fill="url(#radial-gradient-27)" stroke="url(#radial-gradient-28)" stroke-miterlimit="10" stroke-width=".99"/><path d="M286.7,188.35c.98,5.46,5.13,10.94.27,15.44-4.37,4.05-11.26,3.53-15.01-1.03-3.09-3.75-3.66-10.96.16-14.57,2.58-2.43,2.76-.88,5.97,0,3.05.85,5.56.05,8.6.13h0s0,.01,0,.01Z" fill="url(#radial-gradient-29)" stroke="url(#radial-gradient-30)" stroke-miterlimit="10" stroke-width=".99"/><path d="M427.2,148.51c3.07,5.19,7.24,8.06,13.3,8.52-1.62,4.18-2.71,8.32-.38,12.78-3.26.91-5.71,1.93-8.61,3.67-4.71-3.62-9.46-7.27-14.46-11.11,5.42-4.56,7.59-7.18,10.14-13.85h0s.01,0,.01,0Z" fill="url(#radial-gradient-31)" stroke-width="0"/><path d="M465.38,186.82c-.33,4.39-4.8,10.47-9.89,9.49-3.19-.61-10.37-8.76-10.51-11.83-.59-11.62,21.36-10.76,20.41,2.33h0Z" fill="url(#radial-gradient-32)" stroke-width="0"/><path d="M486.74,170.82c-1.34-5.04-3.65-12.48,1.54-16.31,3.69-2.73,9.46-1.71,12.64,1.28,3.45,3.25,4.25,8.37,1.7,12.37-3.9,6.1-9.92,2.84-15.87,2.67h0Z" fill="url(#radial-gradient-33)" stroke-width="0"/><path d="M82.35,167.13c5.05,5.59,14.31,9,21.13,11.9,2.55,1.07,9.12,2.72,10.49,5,1.71,2.87-2.36,7.53-5.2,8.11-5.77,1.17-17.69-7-22.64-9.48-7.78-3.45-13.38-11.43-3.78-15.53h0s0,0,0,0Z" fill="url(#radial-gradient-34)" stroke-width="0"/><path d="M295.28,181.09c5.59,3.34,11.96-.72,14.62,6.55,2.7,7.38-3.14,6.98-8,10.29-2.63,1.79-2.82,3.04-5.86,2.25-1.87-.49-4.14-2.89-5.11-4.48-3.46-5.76.19-10.68,4.36-14.61h0s0,0,0,0Z" fill="url(#radial-gradient-35)" stroke="url(#radial-gradient-36)" stroke-miterlimit="10" stroke-width=".99"/><path d="M323.86,154.27c.93,3.63,2.86,6.79,7.51,7.67-.85,3.27-2.24,9.87-5.46,11.6-3.21,1.72-8.43-.37-10.47-3.04-1.94-2.55-2.75-8.27-1.58-11.22,1.87-4.7,5.54-5.14,10-5.01h0Z" fill="url(#radial-gradient-37)" stroke="url(#radial-gradient-38)" stroke-miterlimit="10" stroke-width=".99"/><path d="M481.37,159.44c-1.17-5.21-4.25-6.81-8.86-7.96.11-3.83-.35-9.11,2.9-11.64,2.54-1.97,7.33-3.34,10.33-2.41,3.89,1.19,11.3,8.69,8.67,13.31-2.3.49-9.47,3.07-13.04,8.72h0Z" fill="url(#radial-gradient-39)" stroke-width="0"/><path d="M315.43,173.56c3.06,2.39,6.45,2.65,10.15,2.54-1.6,4.01-6.91,18.85-12.16,17.36-.77-1-2.02-8.49-1.93-10.15.19-3.3,2.61-6.8,3.93-9.76h0s0,0,0,0Z" fill="url(#radial-gradient-40)" stroke="url(#radial-gradient-41)" stroke-miterlimit="10" stroke-width=".99"/><path d="M295.55,203.79c-.55,5.62-.15,8.64,1.74,14.01-1.93,1.48-4.24,3.26-6.46,4.99-7.87-4.49-5.79-22.37,4.72-19h0Z" fill="url(#radial-gradient-42)" stroke="url(#radial-gradient-43)" stroke-miterlimit="10" stroke-width=".99"/><path d="M446.47,176.46c-1.38,2.31-2.65,4.46-4.09,6.88-2.88-2.58-5.77-5.2-8.88-8.01,4.97-4.9,8.43-2.39,12.96,1.13Z" fill="url(#radial-gradient-44)" stroke-width="0"/><path d="M330.06,139.09c-2.22,2.72-2.71,3.33-4.26,6.28-.95,1.79-4.64,3.3-8.37-1-3.69-4.28-.87-9.22,2.48-11.41,4.45-2.92,11.73,3.79,10.15,6.14h0Z" fill="url(#radial-gradient-45)" stroke="url(#radial-gradient-46)" stroke-miterlimit="10" stroke-width=".99"/><path d="M128.19,146.25c-1.8,2.01-4.39,4.3-6.1,6.21-2.6-3.47-6.97-8.65-9.81-11.93,5.08.24,12.07,2.47,15.92,5.73h0Z" fill="url(#radial-gradient-47)" stroke-width="0"/><path d="M479.27,159.68c-3.97-1.46-9.49-.89-11.57-2.02,6.53-10.47,11.88-7.3,14.23-.57,2.02,5.78-1.04,3.18-2.67,2.58h0s0,.01,0,.01Z" fill="url(#radial-gradient-48)" stroke-width="0"/><path d="M294.59,160.87c-.2-1.11-.26-5.1.69-5.11.16,0,3.09,2.63,3.07,2.65-.36.38-3.24,1.96-3.77,2.45h0s-.01,0-.01,0Z" fill="url(#radial-gradient-49)" stroke-width="0"/><path d="M471.43,238.64c-.01-.53-.11-1.02-.23-1.49-.15-1-.37-2-.74-3.04-.04-.11-.07-.19-.12-.3-.14-.68-.27-1.33-.4-2-.14-.77-.29-1.54-.47-2.32-.32-1.41-1.05-2.4-1.96-3.03-.05-.24-.13-.47-.19-.71,0-.21,0-.43-.03-.64.02-.55-.09-1.14-.28-1.78-1.48-4.6-3.41-8.84-6.08-12.87-.46-.69-.98-1.21-1.58-1.6-.24-.37-.48-.76-.72-1.13-.93-1.97-1.99-3.85-3.25-5.7-.56-.82-1.22-1.42-1.92-1.84-.33-.53-.65-1.05-.97-1.58-.56-.92-1.26-1.55-2.02-1.98-.21-.52-.52-.96-.88-1.33-.33-.83-.68-1.66-1.07-2.48-.75-1.57-2.28-2.38-3.91-2.55-.18-.31-.38-.61-.62-.93h0c-.38-.88-.88-1.52-1.45-1.97-.58-2.35-2.26-3.53-4.09-3.76-1.37-1.37-2.81-2.69-4.29-3.95-.33-.38-.69-.74-1.07-1.1-.11-.09-.2-.17-.31-.26-.67-.65-1.37-1.3-2.17-1.92-.51-.41-1.04-.67-1.54-.84-.14-.11-.29-.22-.42-.34-.55-.58-1.11-1.14-1.72-1.68-.51-.44-1.09-.77-1.7-1.01-.6-.58-1.26-1.11-1.97-1.62-.6-.65-1.31-1.22-2.07-1.76-.23-.2-.47-.41-.7-.61-1.17-1.47-2.59-2.72-4.27-3.86-.17-.12-.37-.21-.55-.29-3.48-2.89-7.13-5.53-11.52-7.4-10.14-4.32-19.37-10.1-29.88-13.73-8.6-2.96-18.27-6.69-27.33-4.6-2.2-.06-4.44.27-6.93.48-4.59.37-8.48,3.31-11.09,6.98-2.47,3.48-4.12,8.86.3,11.65,3.43,2.17,7.97-.37,11.04-2.65.7-.02,1.41-.12,2.09-.26.62-.13,1.21-.27,1.78-.33.32.27.67.51,1.04.7,1.5,1.14,3.37,1.06,4.94.22.14.03.27.06.4.09,1.19.28,3.21.47,4.15,1.16,1.55,1.15,3.12,1.24,4.42.68.55.18,1.1.35,1.64.54.8.76,1.91,1.26,3.35,1.29h.22c.6.23,1.2.44,1.81.68,1.08.43,2.07.48,2.92.26,2.27.79,4.43,1.92,6.62,2.98,3.92,1.86,7.86,3.69,11.75,5.6h0c.24.47.6.92,1.08,1.33.86.72,1.7,1.3,2.58,1.79.23.2.49.42.8.66,2.14,1.66,4.94,1.75,7.07,3.28,1.19.86,2.39,1.1,3.46.92.34,1.49,1.45,2.73,3.53,3.11,1.17.21,2.33.42,3.51.64.19.88.69,1.73,1.6,2.51,4.29,3.68,8.09,7.74,11.48,12.26,1.49,1.99,3.75,2.13,5.64,1.23.47.41.94.82,1.42,1.23.03.06.05.12.07.18.43.92,1.01,1.58,1.66,2.03.15.22.29.45.43.68.35.51.76.93,1.23,1.28.22.28.43.58.67.86.24.3.5.57.75.78.04.05.08.12.12.17.54.78.99,1.58,1.39,2.45.47.92,1.05,1.59,1.7,2.04.08.11.16.2.24.31.63.92,1.26,1.82,1.89,2.73.41.6.89,1.05,1.4,1.41,1.4,2.12,2.79,4.23,4.19,6.35.61.94,1.39,1.58,2.2,1.99.08.19.17.37.25.56.05.18.12.36.18.54.57,1.45,1.14,2.89,1.71,4.34.47,1.17,1.25,1.91,2.19,2.33.62,1.08,1.27,2.11,1.96,3.14-.06.56-.04,1.15.11,1.77.61,2.63,1.54,5.04,2.83,7.42.15.26.31.5.48.73.48,3.03.21,5.83-.85,8.97-1.96,5.83,6.21,8.87,9.26,4.47,1.39-.38,2.64-1.46,3.26-3.44.4-1.27.71-2.53.99-3.81.15-.23.26-.5.38-.77.87-.8,1.43-2.01,1.39-3.64s-.09-3.27-.13-4.92v-.03s-.05,0-.05,0Z" fill="url(#radial-gradient-50)" stroke-width="0"/><path d="M451.3,136.47c-.35.13-.7.26-1.04.38-.34-.54-.08-.85.79-.94.08.18.17.37.25.55h0Z" fill="#fff" stroke-width="0"/><path d="M310.34,178.64c.79.33-.48,4.98-1.06,5.66-1.85-.3-.75-4.95,1.06-5.66Z" fill="url(#radial-gradient-51)" stroke-width="0"/><path d="M500.38,173.31c-.34-.06-.08-.81,1.07-1.29,0,0,3.29-3.19,3.63-4.3,1.28-4.02,2.72-7.66-1.64-13.18-.09-.12-.21-.2-.33-.31-1.64-1.44-5.21-3.53-7.5-3.69,0,0,1.96-4.51-2.06-8.98-1.81-2.01-4.14-3.47-7.8-4.61-3.58-1.11-7.66.35-8.83,1.45-2.99,2.82-4.55.89-7.39-1.93-1.26-.69-3.07-1.68-4.74-2.13-.56-.15-1.5-.21-1.59-.26-.7-.36,6.47-11.84,8.11-17.94,1.51-5.62,3.57-18.22.86-29.86-1.23-5.28-2.97-10.44-5.02-15.47-.99-2.43-1.95-6.31-3.71-8.3-2.32-2.63-1.59-1.77-3.93.16-3.23,2.67-6.22,8.98-9.25,12.11-2.37,2.46-4.77,4.92-6.96,7.54-5.13,6.13-10.98,11.82-15.81,18.29-2.88,3.86-4.57,9.48-7.63,12.93-3.13-3.17-7.2-4.47-11.43-5.53,3.21-7.94,5.39-15.29,4.53-23.98-.4-4.04-1.34-7.99-2.53-11.87-1.06-3.47-2.2-10.28-4.64-13-2.61-2.9-3.3-.6-5.34,2.3-2.66,3.81-5.21,7.69-7.92,11.48-2.63,3.7-5.41,7.28-8.04,10.99-1.98,2.82-3.89,7.7-6.67,9.74-9.26-11.9-26.39-12.73-35.43-9.9,1.79,4.21,5.02,8.14,7.12,12.3,2.42,4.78,4.52,9.7,7.17,14.36.39.7,1.14,1.7,1.84,2.77-3.78-1.54-8.64-.79-14.17,3.17-.67-5.38-2.4-9.71-6.87-12.67l-4.35.45c.12.2.21.42.31.64.11.11.18.21.27.32,1.38.29,4.4,1.24,6.47,4.26,1.27,1.87,1.89,4.22,1.68,6.88,0,0-.51.13-.96.06-2.68-1.61-5.49-3-8.33-3.59-.11.08-3.01-1.23-10.04,2.32-6.06,3.05-7.25,12.01-5.31,18.65-1.27.52-3.15,6.01-5.25,4.9-3.08-1.64-9.58-1.93-11.87-.81-5.15,2.49-6.36,5.47-7.15,7.43-5.5-4.75-13.22-6.05-18.8-.52-5.53,5.49-3.41,12.83.43,18.63-6.91,6.27-7.6,13.39-2.46,21.15-9.96,10.48-2.88,26.97,12,23.88-1.91,6.59.54,10.66,3.43,16.44-3.68,2.1-7.61,5.54-11.94,5.25-4.31-.29-7.36-2.69-11.98-1.7-9.38,2.02-9.92,9.07-11.88,16.59-3.43,2.97-11.74,3.79-16.15,4.66-5.57,1.11-8.01,2.05-12.37-1.24-7.67-5.78-20.59-5.33-23.03,5.82-11.71-1.09-23.66-2.26-34.81-6.29-7.59-2.74-6.39-12.78-15.62-14.7-3.94-.82-7.45,1.63-10.93.44-2.91-.99-9.99-7.55-10.51-10.61-.8-4.64,1.62-7.94-1.76-12.22-2.67-3.36-6.46-4.22-10.53-4.34-1.62-5.49-3.86-9.14-1.05-13.96,1.94-3.33,4.01-6.12,1.82-10.09-1.2-2.17-3.33-2.88-3.9-5.28-.52-2.17,1.52-6.23,2.3-8.22,1.5-3.85,3.27-7.72,6.16-10.53,2.88-2.8,6.25-5.75,8.96-9.23,3.53-4.53.41-6.82-4.26-9.27-4.24-2.23-22.65-6.19-18.56,3.34-8.78,5.44-15.48,12.92-20.55,21.92-8.73-1.66-15.7,5.26-11.57,14.13,1.33,2.86,2.35,2.63,2.29,5.86-.05,2.23-1.32,5.37-1.74,7.59-.93,5.1-1.11,10.22-1.7,15.37-12.84,5.72-11.29,17.75-1.63,25.93,5.26,4.46,6.38,13.31,9.26,19.64,2.93,6.42,6.65,12.36,10.36,18.36-2.6,8.37-1.4,15.9,7.31,20.07,3.81,1.83,7.57.88,11.36,2.06,3.96,1.24,7.9,5.74,11.28,8.13,16.45,11.65,34.4,19.65,53.07,27-.3,10.25,6.48,16.82,16.97,16.28,5.13-.26,9.57-2.39,13.83-5.04,5-3.11,7.84-1.86,13.71-1.09,11.22,1.48,22.59,1.94,33.91,1.99,5.59.03,11.18-.15,16.76-.53,4.59-.32,10.02-2.04,13.91.59,3.58,2.43,4.95,4.52,9.83,4.52,3.84,0,7.53-1.29,10.49-3.75,2.92-2.43,4.25-6.14,7.67-7.96,4.01-2.14,13.14-4.4,17.53-5.63,22.12-6.26,40.3-13.72,60.93-23.71,5.99,4.51,12.67,4.7,18.3-.79,5.09-4.96,3.2-11.34,6.33-16.77,1.51-2.61,5.57-4.43,7.99-6.19,2.15-1.55,4.28-3.14,6.4-4.75-1.54,4.44-2.28,9.17-2.36,13.86-.16,7.34,1.08,14.7,3.08,21.74.88,3.1,3.5,15.92,6.89,16.91,2.76.8,10.92-14.35,12.56-16.8,4.37-6.49,9.08-12.94,12.27-20.13,1.13-2.52,2-5.16,2.56-7.83,3.14,4.38,5.11,7.16,5.55,7.85,2.87,4.42,24.21,25.83,26.08,18.47,3.43-13.55,5.87-29.31,6.73-43.23.82-13.6-3.71-23.29-13.45-32.52,1.64-1.85,4.88-2.67,7-4.04,3.03-1.97,5.84-4.31,8.31-6.96,4.39-4.73,8.04-10.54,9.58-16.85,3.37-13.83-5.27-31.95-14.19-33.56l.02-.03v.02ZM500.91,155.79c3.45,3.25,4.25,8.37,1.7,12.37-3.9,6.1-9.92,2.84-15.87,2.67-1.34-5.04-3.65-12.48,1.54-16.31,3.69-2.73,9.46-1.71,12.64,1.28h0ZM477.42,140.23c2.54-1.97,5.84-2.18,8.82-1.26,3.89,1.19,10.1,7.14,7.46,11.75-4.22.07-8.14,1.47-10.92,6.31-1.18-5.36-5.03-6.05-9.36-5.86,1.18-4.67.74-8.4,4-10.93h0ZM451.59,153.84c13.24.39,13.19,20.38.37,20.98-13.99.66-14.55-21.4-.37-20.98h0ZM438.29,153.75c-13.59-.49-12.22-22.06,1.38-21.23,13.63.85,12.22,21.72-1.38,21.23ZM440.5,157.03c-1.62,4.18-2.71,8.32-.38,12.78-3.26.91-5.71,1.93-8.61,3.67-4.71-3.62-9.46-7.27-14.46-11.11,5.42-4.56,7.59-7.18,10.14-13.85,3.07,5.19,7.24,8.06,13.3,8.52h0s.01,0,.01,0ZM446.47,176.46c-1.38,2.31-2.65,4.46-4.09,6.88-2.88-2.58-5.77-5.2-8.88-8.01,4.97-4.9,8.43-2.39,12.96,1.13ZM465.38,186.82c-.33,4.39-4.8,10.47-9.89,9.49-3.19-.61-10.37-8.76-10.51-11.83-.59-11.62,21.36-10.76,20.41,2.33h0ZM472.43,159.18c14.06-1.15,14.81,21.17.54,20.89-12.94-.25-13.19-19.85-.54-20.89h0ZM482.01,160.08c-8.13-3.67-11.27-1.8-14.31-2.43,9.11-11.25,14.8-1.51,14.31,2.43ZM472.02,142.66c1.81,5.03-.83,11.65-6.02,13.6-5.22,1.96-9.09-4.41-14.72-4.89.18-6.08,0-12.28,6.55-14.91,5.59-2.25,12.13.49,14.2,6.19h0ZM460.82,132.72c-2.08.56-4.07,1.2-5.97,1.94-1.36.52-5.11-.26-6.91-.03,2.84-5.09,15.92-15.4,19.9-15.88-.21,5.73-4.9,9.12-7.02,13.97h0ZM467.98,117.97c-.35-.97-9.63,3.14-11.24,4.43-3.43,2.74-7.27,8.45-11.52,9.47,1.37-5.7,3.44-14.22,7.53-18.5,4.04-4.23,12.25-8.52,17.68-10.62,1.44,2.91-.17,12.6-2.45,15.22h0s0,0,0,0ZM463.18,68.94c1.22,2.06,3.77,6.47,3.21,8.82-.55,2.31-4.67,5.37-6.26,7.04-.55-4.25.98-12.1,3.05-15.86h0ZM468.03,80.92c2.06,5.72,3.38,11.5,3.62,17.62-6.26,3.83-12.46,7.61-18.66,11.4l-.38-.31c3.75-10.25,3.89-23.59,15.42-28.71h0ZM458.66,68.85c.21.08.41.17.62.25.04,2.43.18,4.87-.65,7.21-.23.04-.45.11-.69.15-.76-1.34-1.52-2.68-2.33-4.09,1.12-1.29,2.08-2.41,3.04-3.53h0ZM454.53,73.91c2.41,3.98,4.7,7.6,2.11,12.33-3.44-3.84-5.88-8.57-2.11-12.33ZM450.63,78.85c1.98,4.66,5.26,9.73,4.39,14.82-.59,3.43-2.59,13.46-5.01,15.91-2.57-4.96-6.98-14.31-7.25-19.88-.21-4.28,4.35-8.62,7.88-10.86h0ZM423.73,111.95c3-8.85,10.53-15.2,16.71-21.78,6.21,11.69,11.42,27.26,2.54,38.92-2.23-2.54-2.68-6.29-4.2-9.64-1.25-2.77-7.76-17.16-8.26-18.82-1.9,2.72,9.28,24.75,10.37,29.48-2.14.31-4.04.59-6.16.9-1.26-2.02-3.32-1.77-5.57-.91,1.25.43,2.48.87,4.1,1.44-1.68,1.49-3.16,2.81-4.9,4.37-.81-4.16-.64-8.57-2.1-12.57-1.69-4.6-4.24-6.3-2.52-11.38h0ZM408.67,101.99c-2.02,6.26-4.91,6.02-11.1,7.17,2.71-4.26,7.46-7.85,11.03-11.39-1.74-2.91-10.38,9.59-12.95,10.91.65-3.89,1.43-9.51,3.59-12.86,2.18-3.37,7.98-7.05,11.53-8.88.31,4.95-.56,10.28-2.09,15.03h0ZM403.91,63.11c1.67,1.75,2.52,3.45,3.6,7.03-1.44,1.62-2.71,3.52-5.09,5.12.52-4.25.99-8.01,1.49-12.15ZM408.05,72.1c1.48,2.57,3.84,9.05,2.86,11.99-.81,2.42-8.64,7.43-11.15,8.29.57-3.63.77-7.68,1.8-11.19,1.11-3.76,3.88-6.16,6.5-9.09h0ZM401.14,64.37c.64,2.14.18,7.99-1.3,10.83-1.97-4.65-3.19-7.11,1.3-10.83ZM396.14,70.88c3.52,7.5,3.51,11.98,2.06,20.08-.19.03-.37.07-.56.12-1.79-2.55-4.75-8.81-5.17-11.97-.46-3.51,1.62-5.44,3.68-8.22h0s0-.01,0-.01ZM390.26,78.94c2.59,4.07,5.33,10.11,6.32,14.85.83,3.99-1.06,8.35-2.09,12.24-3.6-5-5.77-10.17-8.41-15.04-.2.05-.4.12-.6.18,1.15,6.17,6.76,11.1,7.52,17.21-3.08,1.42-9.64-4.65-10.64-7.21-1.02,1.53-.76,4.4-3.87,3.02-2.85-8.83,6.95-18.88,11.78-25.26h0s0,0,0,0ZM393.91,114.74c-.13.21-.26.44-.4.66-3.65-.4-9.34-2.21-12.51.05,5.42,4.73,18.28,2.99,25.02,2.65,1.2-.05,7.04.84,5.03-1.95-1.38-1.9-11.35-.3-13.55-.22-.89-6.43,7.06-6.34,11.79-5.2,6.5,1.57,11.73,7.17,14.16,13.24,4.8,11.92.93,28.55-8.85,36.97-17.3-11.18-35.13-21.11-55.75-24.74-.15-.62-.27-1.23-.36-1.86.47-10.11.96-11.09,4.74-17.38,7.41-10.07,21.49-14.62,30.68-2.21v-.02s0,0,0,0ZM361.19,101.94c5.01-4.53,8.37.1,11.76,3.94-4.02.27-7.36-3.6-11.76-3.94ZM375.61,104.76c-2.97-2.4-4.51-10.95-4.62-14.74,5.17,2.84,7.94,9.4,4.62,14.74ZM371.92,101.59c-1.73-.16-7.06-5.15-8.13-6.7-1.69-2.45-1.63-6.51-2.12-9.44,8.94,1.38,8.62,8.61,10.25,16.14h0ZM359.92,84.78c.53,2.64,1.05,5.15,1.59,7.73-4.45-.97-7.14-3.75-8.01-8.54,2.26.28,4.27.53,6.43.8h-.01ZM352.1,86.54c-1.83.18-3.05-1.01-4.93-1.79,3.54-1.39,4.18-1.13,4.93,1.79ZM346,85.8c2.63,1.18,4.81,2.3,7.44,3.9-4.33.42-5.92-.43-7.44-3.9ZM349.53,92.05c3.52-2,8.54-.53,11.45,3.57-3.91-.33-10,.83-11.45-3.57ZM351.79,96.97c3.53-1.05,10.79-.32,13.12,1.36-2.86,1.66-8.05,2.08-11.32,2.71,4.55,1.51,12.27,1.92,15.98,6.3-1.61,1.25,1.76-1.35,0,0-1.44-2.01-10.34,2.36-11.32-.2,4.24-.07,9.54,2.6,9.54,2.6-.02,1.9-5.89,4.52-6.26,4.77-4.27-3.59-7.3-12.38-9.75-17.55h0ZM359.45,140.54c.07.09.14.19.21.28.3-.03.57-.05.87-.09.63,0,1.24.15,1.79.41,4.86,1.07,9.62,2.57,14.24,4.36,17.27,6.75,33.71,16.62,48.21,28.13,14.23,11.31,27.77,24.79,36.72,40.76,4.25,7.58,8.56,16.68,9.34,25.43.7,7.74-3.67,21.13-13.81,15.94,4.98-14.69-5.2-30.95-13.74-42.24-8.75-11.56-19.37-21.92-30.88-30.73-10.68-8.18-41.54-25.07-61.25-27.17-8.47-1.56-10.1-2.13-16.29,1.97-2.33,1.53-5.43-.57-5.43-.57-1.37-1.04-1.87-3.32-1.87-4.9,0-2.19,1.15-7.12,5.25-9.81,3.67-2.41,8.68-2.83,12.95-2.92,4.6-.1,9.17.32,13.69,1.14h0ZM428.66,234.31c-8.27,10.3-17.54,20.61-21,22.81-2.79-4.87-5.59-9.72-8.54-14.84,6.48-7.35,26.94-34.37,29.94-38.7,4.38,4.66,8.31,9.16,11.75,14.19-2.25,3.58-12.33,16.26-12.14,16.53h0ZM309.89,187.63c2.7,7.38-3.14,6.98-8,10.29-2.63,1.79-2.82,3.04-5.86,2.25-1.87-.49-4.14-2.89-5.11-4.48-3.46-5.76.19-10.68,4.36-14.61,5.59,3.34,11.96-.72,14.62,6.55h0s0,0,0,0ZM309.24,180.32c.79.33.9.84.32,1.52-.86-.27-.96-.79-.32-1.52ZM301.89,180.89c-13.48-.27-13.27-21.4.26-21.13,13.69.26,13.55,21.41-.26,21.13ZM296.12,157.89c.16,0,.48.48.45.52-.36.38-.75.74-1.29,1.25-.2-1.11-.13-1.73.83-1.74h0v-.02ZM315.43,173.56c3.06,2.39,6.45,2.65,10.15,2.54-1.6,4.01-6.91,18.85-12.16,17.36-.77-1-2.02-8.49-1.93-10.15.19-3.3,2.61-6.8,3.93-9.76h0s0,0,0,0ZM333.8,168.85c3.05-7.37,4.82-13.98,14.51-10.85-2.44,9.28-6.99,18.4-11.48,26.84-1.21,2.28-3.07,7.73-5.44,9.08-2.15,1.22-6.95-.39-9.16-.69,3.12-8.34,8.13-16.09,11.57-24.35h0s0-.02,0-.02ZM350.73,158.32c6.58.66,12.72,2.99,19.44,5.45-5.93,12.99-12.23,25.3-20.32,36.66-5.49-1.89-10.76-3.72-16.07-5.54,6.14-12.05,11.73-24.08,16.98-36.57h0s0,0,0,0ZM371.97,164.65c2.79,1.05,5.46,2.23,8.07,3.48.5.67,8.88,4.15,9.13,4.78.07.04.15.07.22.13-.02.07-.06.17-.1.25.03.09.06.19.08.28.05.46-3.36,6.13-3.44,6.15-5.81,10.13-16.86,27.06-19.92,30.05-4.69-2.76-9.23-5.43-14.09-8.29,7.32-12.02,13.9-24.16,20.06-36.83h-.01ZM388.83,179.89c.28-.35,2.15-4.41,2.8-5.44,5.82,2.98,14.94,9.15,17.21,11.61-.76,1.68-22.88,34.79-25.78,37.64-4.91-4.11-9.84-8.23-14.73-12.33,6.68-10.59,20.49-31.47,20.5-31.49h0ZM402.98,199.22l1.66-2.46c2.1-3.09,4.18-6.17,6.3-9.29,5.95,4.35,11.42,9.3,16.52,14.59-1.42,2.47-4.79,7.28-8.79,12.68,0,0-18.47,23.77-20.87,25.48-4.21-4.87-8.44-9.73-12.69-14.63,5.91-8.71,11.86-17.49,17.87-26.36h0ZM341.82,120.1c-.98.41-1.67.69-2.94,1.22,1.38.85,8.17,1.57,8.17,1.57,3.66-.02,7.34-.82,8.7-2.91,1.08-1.65,1.17-1.81-.83-2-2.97-.28-6.35,2.61-9.61,2.7l-.3-.39c2.81-4.13,10.42-6.84,15.65-4.49-.59.98-4.44,12.73-4.81,17.45v.03c-.12.19-.81,2.78-2.41,2.58-3.14-.37-2.05-.4-5.67-.67-3.75.11-5.37-.23-8.44.36-3.03.59-4.84,1.35-7.46,2.85-2.92-4.69-7.18-7.19-12.73-6.81-2.24-14.71,12.28-21.38,22.68-11.5h0s0,0,0,0ZM319.61,134.06c2.8-1.18,10.82,2.42,9.94,5.24-2.22,2.72-2.99,3.86-4.55,6.8-2.89,1.14-4.33-.34-7.03-3.11-.92-3.21-1.91-7.45,1.65-8.93h0ZM323.86,154.27c.93,3.63,2.86,6.79,7.51,7.67-.85,3.27-2.24,9.87-5.46,11.6-3.21,1.72-8.43-.37-10.47-3.04-1.94-2.55-2.75-8.27-1.58-11.22,1.87-4.7,5.54-5.14,10-5.01h0ZM316.18,149.54c.43,12.34-21.85,11.95-21.09-1.44.78-13.56,21.5-12.16,21.09,1.44ZM283.43,143.11c13.45.28,13.25,21.37-.37,21.08-13.48-.29-13.26-21.36.37-21.08ZM271.91,179.39c-1.61-4.04-.96-10.36,2.94-13.07,2.58-1.79,2.5-.85,5.59-.32,3.2.54,6.1-.12,9.28-.02-1.28,4.86-.23,9.06,2.69,12.65-3.54,9.43-16.52,10.75-20.52.75h0ZM271.97,202.77c-3.09-3.75-3.66-10.96.16-14.57,2.58-2.43,2.76-.88,5.97,0,3.05.85,5.56.05,8.6.13.98,5.46,5.13,10.94.27,15.44-4.37,4.05-11.26,3.53-15.01-1.03h0s0,.01,0,.01ZM295.55,203.79c-.55,5.62-.15,8.64,1.74,14.01-1.93,1.48-4.24,3.26-6.46,4.99-7.87-4.49-5.79-22.37,4.72-19h0ZM297.09,223.72c3.83-2.84,8.79-6.35,12.72-7.94,31.25-20.76,102.38,66.94,79.6,86.08-6.6,2.21-29.24,13.1-36.33,16.4-2.86,1.32-44.3,14.76-42.56,12.21,12.87-18.96-3.54-86.48-28.07-97.29,4.98-3.04,9.95-5.98,14.65-9.46h0s0,0,0,0ZM249.41,250.84c7.08-2.39,10.49-3.9,17.81-1.7-1.64,4.67-16.2,6.54-20.31,7.24-4.06.69-16.31,4.41-17.41-.9,6.7-1.29,13.41-2.46,19.9-4.65h0ZM272.2,316.35c-14.31.94-32.51,2.14-46.31-2.19,1.83-5.4,3.59-10.64,5.48-16.21,19.39.43,38.78-.92,58.42-4.95.34,2.78.79,5.53,1.01,8.32.2,2.41,1.52,8.92.47,11.03-2.13,4.26-14.35,3.7-19.07,4h0ZM289.15,326.97c-1.7,1.73-5.12,1.38-7.34,1.62-7.28.8-14.56,1.29-21.89,1.46-13.63.31-28.23.69-41.63-2.05,2.2-3.9,4.25-7.54,6.46-11.48,22.01,3.02,44.01,3.16,65.99-.07.09,2.29.14,8.74-1.6,10.52h0ZM231.64,295.63c1.63-8.03,1.97-15.72,1.72-23.74,16.13-.36,31.98-1.88,47.61-6.5,4.71,7.84,6.96,16.34,8.43,25.52-19.01,3.99-38.05,5.34-57.75,4.72h0s0,0,0,0ZM233.14,269.71c-.69-3.11-1.34-6.07-2.07-9.37,9.93-1.26,19.6-1.93,29.14-5.27,3.16-1.1,7.52-4.35,10.69-3.22,3.5,1.25,7.41,8.72,9.05,11.79-15.54,4.38-30.98,5.96-46.81,6.07h0ZM127.02,145.89c-1.8,2.01-3.33,3.72-5.06,5.63-2.6-3.47-5.28-6.77-8.12-10.04,5.08.24,9.32,1.16,13.17,4.41h0s0,0,0,0ZM109.91,144.72c-.76.88,9.79,8.44,8.64,10.09-2.87,4.13-4.09,7.06-5.85,10.55-1.3,2.59-1.59,4.45-4.12,9.71-.14-.46-20.6-6.84-20.06-7.51,1.7-2.04,7.09-9.24,10.47-12.5,2.9-2.79,5.96-6.54,10.92-10.32h0s0-.02,0-.02ZM82.67,168.94c5.05,5.59,12.94,9.14,19.78,12.05,2.55,1.07,8.77,1.38,10.14,3.66,1.71,2.87-.85,5.58-3.68,6.16-5.77,1.17-16.52-5.75-21.47-8.24-5.02-2.52-14.36-9.53-4.77-13.63h-.01ZM78.07,213.68c-2.69-11.14,1.54-17.44,2.25-26.96.09-1.27.57-4.33,1.56-3.53,6.05,4.95,21.4,10.93,28.84,10.35-1.05,3.27.31,7.37.43,8.17.37,2.28,1.94,5.52,1.91,8-.13,9.87-26.35,16.14-34.98,3.98h0s0,0,0,0ZM70.72,225.81c-2.4-4.12-2.49-11.44,3.41-12.52,4.26,12.18,19.21,12.29,30.15,8.7,3.05-1,6.33-2.31,8.91-4.27,1.73-1.3,3.56-5.24,5.32-5.96,5.4-2.19,6.59,6.85,5.05,9.98-5.44,11.06-26.76,12.91-37.2,11.87-6.04-.59-12.37-2.18-15.64-7.81h0s0,0,0,0ZM79.4,236.61c3.52,4.34,42.2,1.13,45.51-9.77,1.06-3.51,9.41,9.44,14.77,12.57,3.5,2.04,2.41,10.09-4.89,19.96-4.58,6.2-29.46,17.92-38.98,11.68-7.88-12.97-12.12-20.68-16.41-34.43h0ZM96.23,275.1c6.4,2.1,10.33,3.33,17.11,1.33,5.63-1.66,11.04-4.23,15.84-7.65,10.67-7.61,17.3-17.21,15.35-30.48,10.03-6.35,12.25,10.66,10.69,16.18-2.6,9.21-9.67,16.7-17.05,22.43-7.4,5.75-16.24,10.52-25.58,12.04-7.71,1.27-22.08-3.43-16.36-13.87h0s0,.01,0,.01ZM181.93,327.08c-7.25.68-22.92-9.25-29.48-12.44-11.93-5.81-26.75-13.16-36.41-22.41,31.22-9.23,47.13-33.54,44.57-42.82-.07-.28,9.12,3.27,16.18,4.51,9.01,1.58,17.87,3.05,26.58,4.4,17.37,2.23,4.72,66.33-21.45,68.76ZM206.08,334.7c-4.51,3.74-10.05,6.58-16.05,6.24-4.31-.25-12.69-3.91-9.78-9.69,16.25,4.82,28.71-21.03,32.61-32.73,2.58-7.75,4.14-16.44,3.6-24.63-.62-9.34-3.25-14.75-10.81-19.91,1.26-6.23,9.17-5.64,13.32-3.1,4.49,2.76,6.7,7.68,8.11,12.55,3.56,12.45,1.65,27.05-2.08,39.25-3.5,11.45-9.53,24.24-18.91,32.03h0v-.02ZM274.57,335.89c-6.68.53-13.37.79-20.07.78-13.27-.02-27.82-.15-40.79-3.03,3.95-4.82,7.26-2.94,13.15-2.38,7.23.7,14.5,1.01,21.78,1.04,13.24.05,26.3-1.82,39.49-2.1-1.77,6.1-8.25,5.25-13.54,5.68h0s-.01,0-.01,0ZM309.26,318.62c-.94,8.57-8.19,31.86-21.09,20.45,12.55-14.22,8.28-41.56,3.87-58.11-2.54-9.55-6.28-18.63-12.49-26.4-5.92-7.4-7.95-8.29-15.87-11.04-2.03-.69-8.74.86-5.98-6.12,4.09-10.34,22.33-1.52,28.07,4.23,9.32,9.33,15.27,22.41,18.88,34.91,3.92,13.5,6.14,28.04,4.6,42.09h0s0,0,0,0ZM395.54,303.06c8.04-20.9-7.75-47.22-21.41-62.12-15.54-16.93-38.49-35.44-62.2-31.15-6.4,1.16-11.69,7.78-12.55,4.72-3.62-12.86,4.76-15.17,7.31-16.1,10.82-3.9,21.7-.68,31.9,2.67,21.62,7.07,41.34,22.76,54.73,40.99,7.58,10.33,13.41,22.11,15.88,34.75,1.55,7.92,1.56,33.17-13.67,26.24ZM409.76,258.58c1.68-4.05,8.72-9.06,11.6-12.32,2.96-3.34,5.76-6.81,8.51-10.31.19.25,2.68-3.47,2.68-3.47,3.21-4.21,6.37-8.46,9.58-12.68,1.86,2.45,7.26,9.07,6.99,12.35-.26,3.09-5.04,7.46-8.54,10.62,0,0-19.44,19.54-28.44,26.38-1.3-3.45-3.74-7.28-2.36-10.57h0s-.01,0-.01,0ZM414.89,281.46c-2.19-3.7-2.6-8.71-.03-11.77,3.58-4.27,8.97-7.79,13.05-11.65,3.59-3.38,11.52-10.81,11.8-11.15.66-.62,1.84-2.84,1.84-2.84,2.96-3.15,5.92-6.31,8.97-9.38,1.71,3.54,4.22,9.74,3.21,13.87-.47,1.95-2.15,3.93-4.16,5.79,0,0-6.41,5.21-7.32,6-8.64,7.51-17.67,15.03-27.37,21.13h0ZM449.93,263.59c-.48,8.06-8.37,18.47-18.4,16.44l17.29-17.98c.37.52.75,1.03,1.11,1.54h0ZM431.16,284.33c5.09,4.19,10.98-7.15,15.55-8.27-1.21,4.76-1.78,9.46-5.71,12.34-3.03,2.2-7.01,5.77-10.63,6.55-.08-3.54-.4-6.92.78-10.62h.01ZM430.59,297.89c4.04-2.5,7.96-4.93,12.23-7.58-.28,4.26-1.61,8.87-2.82,12.99-1.26,4.28-3.16,5.55-6.76,8.06-1.47-4.53-2.38-8.93-2.66-13.47h0ZM436.68,320.73c-1.56-2.33-1.81-4.54-2.9-6.81,1.43-1.06,2.69-1.99,4.5-3.32-.56,3.61-1.02,6.55-1.59,10.12h0ZM439.22,322.39c.45-3.11.82-5.75,1.25-8.71,2.9,3.5,3.48,3.78-1.25,8.71ZM441.93,309.7c1.42,1.48,2.58,3.08,2.57,5.26-1.59-1.41-2.54-3.13-2.57-5.26ZM446.59,312.4c-4.6-6.74-3.89-10.13-2-17.75,1.56,2.94,2.86,6.05,3.93,9.22,1.38,4.04.57,5.04-1.93,8.53ZM451.42,305.02c-1.71-4.08-3.97-8.34-5-12.65-.98-4.07.57-7.94,1.53-11.95.26-.05.54-.11.8-.17,2.88,5.15,5.74,10.3,8.6,15.46-1.47,3.03-3.46,6.03-5.92,9.31ZM458.25,292.99c-1.96-2.85-5.46-8.56-6.9-14.74-1.09-4.72-1.24-9.61-.37-13.2,4.82,6.66,8.96,12.4,12.17,16.87-.22,3.57-3.05,9.1-4.9,11.08h0ZM465.5,278.5c-4.86-6.76-12.46-14.23-12.83-18.15.04-1.52,4.52.82,4.55.37,2.18-.1,4.13.34,6.55-.16,2.24.04,5.14-2.05,6.51-3.35,4.01-6.95,3.13-4.94,6.38-12.45.18.49.47,1.32.53,2.37.36,5.07-2.51,7.9-5.42,14.12-3.24,6.92-5.69,16.14-4.85,16.63.89.51,2.85-9.25,6.05-15.19,2.64-4.89,4.02-9.36,4.76-12.45.05.35.12.81.19,1.36,0,0,.06.56.13,1.12.09.91.45,8.2.11,11.2-.52,4.67-4.11,11.53-10.19,18.3-.82-.97-1.67-2.26-2.5-3.72h0ZM469.97,284.55c-.1-1.95,3.28-6.11,4.25-7.81,1.94-3.37,3.87-6.73,5.81-10.1,1.01,5.2,1.95,10.41,2.94,15.63,1.26,6.56.18,9.45-2.96,15.44-3.07-3.11-9.81-8.6-10.05-13.14v-.02s.01,0,.01,0ZM482.02,299.65c1-2.11,1.96-4.15,2.91-6.2.18.03.35.07.53.09,1.14,3.9,2.26,7.8,3.4,11.7-2.55-1.52-4.66-3.42-6.84-5.61h0ZM493.74,307.34c-1.67-1.37-3.5-6.33-3.86-10.31,1.72,1.05,3.16,1.92,4.87,2.96-.32,2.33-.66,4.76-1.02,7.35h0ZM495.53,296.77c-4.68-.63-7.06-3.2-8.14-7.49.19-.08.38-.17.58-.25,2.79,2.24,5.55,4.51,7.86,7.24l-.29.52h0s0-.01,0-.01ZM496.32,292.58c-3.25-2.31-7.74-5-9.89-8.4-2.17-3.44-2.31-10.02-3.1-13.96.17-.05.34-.12.51-.18,3.74,3.9,7.69,7.7,11.25,11.76,3.29,3.74,2.13,5.9,1.24,10.77h-.01ZM494.02,243.54c3.47,2.28,7.06,12.47,5.9,16.36-.84.54-1.69,1.09-2.52,1.63,1.5,2.91,2.75,1.54,2.8,5.44.06,4.45-1.1,9.29-1.61,13.72-5-3-11.86-10.43-15.07-15.34-2.75-4.21-4.05-12.83-3.53-17.84.22-.17.45-.34.69-.5,1.09,2.56,13.97,17.91,16,14.4-6-7.03-13.64-12.81-18.21-21.12.12-.18.23-.36.35-.54,2.94.84,5.75,2,8.75,2.56,2.11.4,4.62.02,6.47,1.23h0s-.01,0-.01,0ZM490.91,239.86c-2.37.47-15.14-1.95-13.64-5.77,5.4-.19,9.85,1.58,13.64,5.77ZM497.07,226.63c-6.1,4.54-20.41,9.32-24.97.81-2.52-4.71-3.88-10.03-6.58-14.76-2.75-4.84-5.98-9.38-9.14-13.96,9.49-3.27,11.12-5.78,11.18-17.19,2.03.45,5.09.82,8.53-.06,1.69-.43,3.5-.56,5.84-2.6,4.31-3.75,4.72-5.09,9.79-5.03,1.89.02,4.65.14,8.32,3.01,1.1.85,12.35,9.85,11.78,25.03-.61,15.98-13.78,24.18-14.75,24.75Z" fill="url(#radial-gradient-52)" stroke-width="0"/></g></svg>