<?xml version="1.0" encoding="UTF-8"?>
<svg id="Layer_1" data-name="Layer 1" xmlns="http://www.w3.org/2000/svg" version="1.1" xmlns:xlink="http://www.w3.org/1999/xlink" viewBox="0 0 580.2 506.1">
  <defs>
    <style>
      .cls-1, .cls-2, .cls-3, .cls-4, .cls-5, .cls-6, .cls-7, .cls-8, .cls-9, .cls-10, .cls-11, .cls-12, .cls-13, .cls-14, .cls-15, .cls-16, .cls-17, .cls-18, .cls-19 {
        stroke-miterlimit: 10;
      }

      .cls-1, .cls-5, .cls-6, .cls-7, .cls-10, .cls-15, .cls-16 {
        fill: none;
      }

      .cls-1, .cls-10 {
        stroke: #212120;
        stroke-width: 3px;
      }

      .cls-20 {
        fill: url(#radial-gradient-16);
      }

      .cls-20, .cls-21, .cls-22, .cls-23, .cls-24, .cls-25, .cls-26, .cls-27, .cls-28, .cls-29, .cls-30, .cls-31, .cls-32, .cls-33, .cls-34, .cls-35, .cls-36, .cls-37, .cls-38, .cls-39, .cls-40, .cls-41, .cls-42, .cls-43, .cls-44, .cls-45, .cls-46, .cls-47, .cls-48, .cls-49, .cls-50, .cls-51, .cls-52, .cls-53 {
        stroke-width: 0px;
      }

      .cls-2 {
        fill: url(#radial-gradient-37);
        stroke: url(#radial-gradient-38);
      }

      .cls-2, .cls-3, .cls-4, .cls-5, .cls-6, .cls-8, .cls-9, .cls-11, .cls-12, .cls-13, .cls-18, .cls-19 {
        stroke-width: 1px;
      }

      .cls-21 {
        fill: #000;
      }

      .cls-3 {
        fill: url(#radial-gradient-18);
        stroke: url(#radial-gradient-19);
      }

      .cls-4 {
        fill: url(#radial-gradient-22);
        stroke: url(#radial-gradient-23);
      }

      .cls-22 {
        fill: url(#radial-gradient-39);
      }

      .cls-54 {
        stroke-miterlimit: 10;
        stroke-width: 6px;
      }

      .cls-54, .cls-5, .cls-6, .cls-14, .cls-16, .cls-17, .cls-55 {
        stroke: #000;
      }

      .cls-54, .cls-5, .cls-10, .cls-14, .cls-17, .cls-55 {
        stroke-linecap: round;
      }

      .cls-54, .cls-55, .cls-43 {
        fill: #fff;
      }

      .cls-7 {
        stroke-width: 2.2px;
      }

      .cls-7, .cls-15 {
        stroke: #221f1f;
      }

      .cls-23 {
        fill: url(#radial-gradient-8);
      }

      .cls-8 {
        fill: url(#radial-gradient-20);
        stroke: url(#radial-gradient-21);
      }

      .cls-9 {
        fill: url(#radial-gradient-35);
        stroke: url(#radial-gradient-36);
      }

      .cls-24 {
        fill: url(#radial-gradient-13);
      }

      .cls-25 {
        fill: url(#radial-gradient-12);
      }

      .cls-11 {
        fill: url(#radial-gradient-29);
        stroke: url(#radial-gradient-30);
      }

      .cls-12 {
        fill: url(#radial-gradient-40);
        stroke: url(#radial-gradient-41);
      }

      .cls-13 {
        fill: url(#radial-gradient-42);
        stroke: url(#radial-gradient-43);
      }

      .cls-26 {
        fill: url(#radial-gradient-47);
      }

      .cls-27 {
        fill: url(#radial-gradient-25);
      }

      .cls-28 {
        fill: url(#radial-gradient-33);
      }

      .cls-29 {
        fill: url(#radial-gradient-17);
      }

      .cls-30 {
        fill: url(#radial-gradient-32);
      }

      .cls-14 {
        fill: url(#linear-gradient);
      }

      .cls-14, .cls-17 {
        stroke-width: 6px;
      }

      .cls-15 {
        stroke-width: 2px;
      }

      .cls-16 {
        stroke-width: .2px;
      }

      .cls-31 {
        fill: url(#radial-gradient-2);
      }

      .cls-32 {
        fill: url(#radial-gradient-50);
      }

      .cls-33 {
        fill: url(#radial-gradient-7);
      }

      .cls-34 {
        fill: url(#radial-gradient-34);
      }

      .cls-35 {
        fill: url(#radial-gradient-26);
      }

      .cls-36 {
        fill: url(#radial-gradient-5);
      }

      .cls-37 {
        fill: url(#radial-gradient-24);
      }

      .cls-38 {
        fill: url(#radial-gradient);
      }

      .cls-17 {
        fill: url(#linear-gradient-2);
      }

      .cls-39 {
        fill: url(#radial-gradient-31);
      }

      .cls-40 {
        fill: url(#radial-gradient-14);
      }

      .cls-18 {
        fill: url(#radial-gradient-27);
        stroke: url(#radial-gradient-28);
      }

      .cls-41 {
        fill: url(#radial-gradient-10);
      }

      .cls-55 {
        stroke-miterlimit: 10;
        stroke-width: 6px;
      }

      .cls-42 {
        fill: url(#radial-gradient-52);
      }

      .cls-44 {
        fill: url(#radial-gradient-51);
      }

      .cls-45 {
        fill: url(#radial-gradient-6);
      }

      .cls-46 {
        fill: url(#radial-gradient-44);
      }

      .cls-19 {
        fill: url(#radial-gradient-45);
        stroke: url(#radial-gradient-46);
      }

      .cls-47 {
        fill: url(#radial-gradient-15);
      }

      .cls-48 {
        fill: url(#radial-gradient-9);
      }

      .cls-49 {
        fill: url(#radial-gradient-3);
      }

      .cls-50 {
        fill: url(#radial-gradient-49);
      }

      .cls-51 {
        fill: url(#radial-gradient-11);
      }

      .cls-52 {
        fill: url(#radial-gradient-48);
      }

      .cls-53 {
        fill: url(#radial-gradient-4);
      }
    </style>
    <linearGradient id="linear-gradient" x1="101.3" y1="37.3" x2="101.3" y2="432.5" gradientTransform="translate(0 506) scale(1 -1)" gradientUnits="userSpaceOnUse">
      <stop offset="0" stop-color="#df5c8d"/>
      <stop offset="1" stop-color="#f2c220"/>
    </linearGradient>
    <linearGradient id="linear-gradient-2" x1="319.1" y1="76.6" x2="319.1" y2="479.9" gradientTransform="translate(0 506) scale(1 -1)" gradientUnits="userSpaceOnUse">
      <stop offset="0" stop-color="#5facd3"/>
      <stop offset="1" stop-color="#4fb991"/>
    </linearGradient>
    <radialGradient id="radial-gradient" cx="-5750.5" cy="283.8" fx="-5686" fy="-9" r="1059" gradientTransform="translate(1353.2 299.7) rotate(1.7) scale(.2 -.1)" gradientUnits="userSpaceOnUse">
      <stop offset="0" stop-color="#b9babe"/>
      <stop offset=".7" stop-color="#97999c"/>
      <stop offset=".8" stop-color="#95979a"/>
      <stop offset=".9" stop-color="#8d8f91"/>
      <stop offset=".9" stop-color="#808283"/>
      <stop offset="1" stop-color="#6d6e70"/>
      <stop offset="1" stop-color="#555657"/>
    </radialGradient>
    <radialGradient id="radial-gradient-2" cx="-5616.2" cy="468.7" fx="-5616.2" fy="468.7" r="26.7" gradientTransform="translate(1353.2 298.1) rotate(1.7) scale(.2 -.2)" gradientUnits="userSpaceOnUse">
      <stop offset="0" stop-color="#6da5c1"/>
      <stop offset=".3" stop-color="#6da5c1"/>
      <stop offset=".4" stop-color="#73adcb"/>
      <stop offset=".5" stop-color="#7dbbda"/>
      <stop offset=".7" stop-color="#80c0e1"/>
      <stop offset="1" stop-color="#81c3e4"/>
    </radialGradient>
    <radialGradient id="radial-gradient-3" cx="-3527.8" cy="2386.5" fx="-3527.8" fy="2386.5" r="374.8" gradientTransform="translate(1407.8 466.3) rotate(-42) scale(.2 -.4)" gradientUnits="userSpaceOnUse">
      <stop offset="0" stop-color="#cbb482"/>
      <stop offset=".1" stop-color="#c6ad79"/>
      <stop offset=".3" stop-color="#bb9d5f"/>
      <stop offset=".6" stop-color="#a98637"/>
      <stop offset=".8" stop-color="#8f6828"/>
      <stop offset=".8" stop-color="#8f6828"/>
    </radialGradient>
    <radialGradient id="radial-gradient-4" cx="-6599.1" cy="181.7" fx="-6599.1" fy="181.7" r="101.7" gradientTransform="translate(1353.2 298.1) rotate(1.7) scale(.2 -.2)" gradientUnits="userSpaceOnUse">
      <stop offset="0" stop-color="#cbb482"/>
      <stop offset=".1" stop-color="#c6ad79"/>
      <stop offset=".3" stop-color="#bb9d5f"/>
      <stop offset=".6" stop-color="#a98637"/>
      <stop offset=".8" stop-color="#8f6828"/>
      <stop offset=".8" stop-color="#8f6828"/>
    </radialGradient>
    <radialGradient id="radial-gradient-5" cx="-6566" cy="405" fx="-6566" fy="405" r="83.4" gradientTransform="translate(1353.2 298.1) rotate(1.7) scale(.2 -.2)" gradientUnits="userSpaceOnUse">
      <stop offset="0" stop-color="#cbb482"/>
      <stop offset=".1" stop-color="#c6ad79"/>
      <stop offset=".3" stop-color="#bb9d5f"/>
      <stop offset=".6" stop-color="#a98637"/>
      <stop offset=".8" stop-color="#8f6828"/>
      <stop offset=".8" stop-color="#8f6828"/>
    </radialGradient>
    <radialGradient id="radial-gradient-6" cx="-4778.6" cy="758.2" fx="-4778.6" fy="758.2" r="158" gradientTransform="translate(1353.2 298.1) rotate(1.7) scale(.2 -.2)" gradientUnits="userSpaceOnUse">
      <stop offset=".4" stop-color="#7eaa72"/>
      <stop offset=".8" stop-color="#8bbe7f"/>
      <stop offset=".9" stop-color="#7ba870"/>
    </radialGradient>
    <radialGradient id="radial-gradient-7" cx="-7486.4" cy="-1704" fx="-7486.4" fy="-1704" r="159.3" gradientTransform="translate(1243.7 347.1) rotate(1.7) scale(.2)" gradientUnits="userSpaceOnUse">
      <stop offset=".4" stop-color="#7eaa72"/>
      <stop offset=".8" stop-color="#8bbe7f"/>
      <stop offset=".9" stop-color="#7ba870"/>
    </radialGradient>
    <radialGradient id="radial-gradient-8" cx="-6997.9" cy="-2676.7" fx="-6997.9" fy="-2676.7" r="213.2" gradientTransform="translate(1243.7 347.1) rotate(1.7) scale(.2)" gradientUnits="userSpaceOnUse">
      <stop offset=".4" stop-color="#7eaa72"/>
      <stop offset=".8" stop-color="#8bbe7f"/>
      <stop offset=".9" stop-color="#7ba870"/>
    </radialGradient>
    <radialGradient id="radial-gradient-9" cx="-5069.3" cy="584.1" fx="-5069.3" fy="427.2" r="158.7" gradientTransform="translate(1353.2 298.1) rotate(1.7) scale(.2 -.2)" gradientUnits="userSpaceOnUse">
      <stop offset="0" stop-color="#cdb859"/>
      <stop offset=".1" stop-color="#c9b457"/>
      <stop offset=".2" stop-color="#c4b155"/>
      <stop offset=".2" stop-color="#d1bd5a"/>
      <stop offset=".3" stop-color="#e5cf64"/>
      <stop offset=".4" stop-color="#f3dc6b"/>
      <stop offset=".5" stop-color="#fbe36d"/>
      <stop offset=".6" stop-color="#fde56f"/>
      <stop offset=".9" stop-color="#f3dc6b"/>
      <stop offset="1" stop-color="#ead466"/>
      <stop offset="1" stop-color="#ecd667"/>
    </radialGradient>
    <radialGradient id="radial-gradient-10" cx="-5244.8" cy="-23.3" fx="-5244.8" fy="-23.3" r="287.2" gradientTransform="translate(1353.2 298.1) rotate(1.7) scale(.2 -.2)" gradientUnits="userSpaceOnUse">
      <stop offset="0" stop-color="#b9babe"/>
      <stop offset=".7" stop-color="#97999c"/>
      <stop offset=".9" stop-color="#848689"/>
    </radialGradient>
    <radialGradient id="radial-gradient-11" cx="-4566" cy="257.5" fx="-4566" fy="429.4" r="173.9" gradientTransform="translate(1353.2 298.1) rotate(1.7) scale(.2 -.2)" gradientUnits="userSpaceOnUse">
      <stop offset=".1" stop-color="#1164a1"/>
      <stop offset=".5" stop-color="#084c7d"/>
      <stop offset=".7" stop-color="#0f3f65"/>
      <stop offset="1" stop-color="#0e3b5e"/>
    </radialGradient>
    <radialGradient id="radial-gradient-12" cx="-7947.9" cy="-2757.3" fx="-7947.9" fy="-2757.3" r="227.8" gradientTransform="translate(1243.7 347.1) rotate(1.7) scale(.2)" gradientUnits="userSpaceOnUse">
      <stop offset="0" stop-color="#b9babe"/>
      <stop offset=".7" stop-color="#97999c"/>
      <stop offset=".9" stop-color="#848689"/>
    </radialGradient>
    <radialGradient id="radial-gradient-13" cx="-8356.2" cy="-2808.3" fx="-8356.2" fy="-2808.3" r="197.3" gradientTransform="translate(1243.7 347.1) rotate(1.7) scale(.2)" gradientUnits="userSpaceOnUse">
      <stop offset="0" stop-color="#b9babe"/>
      <stop offset=".7" stop-color="#97999c"/>
      <stop offset=".9" stop-color="#848689"/>
    </radialGradient>
    <radialGradient id="radial-gradient-14" cx="-8774.2" cy="-2650.9" fx="-8774.2" fy="-2650.9" r="157.8" gradientTransform="translate(1243.7 347.1) rotate(1.7) scale(.2)" gradientUnits="userSpaceOnUse">
      <stop offset="0" stop-color="#b9babe"/>
      <stop offset=".7" stop-color="#97999c"/>
      <stop offset=".9" stop-color="#848689"/>
    </radialGradient>
    <radialGradient id="radial-gradient-15" cx="-5318.1" cy="691.8" fx="-5318.1" fy="733" r="91" gradientTransform="translate(1353.2 298.1) rotate(1.7) scale(.2 -.2)" gradientUnits="userSpaceOnUse">
      <stop offset="0" stop-color="#cdb859"/>
      <stop offset=".2" stop-color="#c9b457"/>
      <stop offset=".2" stop-color="#c4b155"/>
      <stop offset=".2" stop-color="#d1bd5a"/>
      <stop offset=".2" stop-color="#e5cf64"/>
      <stop offset=".3" stop-color="#f3dc6b"/>
      <stop offset=".3" stop-color="#fbe36d"/>
      <stop offset=".4" stop-color="#fde56f"/>
      <stop offset=".8" stop-color="#f3dc6b"/>
      <stop offset="1" stop-color="#ead466"/>
      <stop offset="1" stop-color="#ecd667"/>
    </radialGradient>
    <radialGradient id="radial-gradient-16" cx="-8932.5" cy="-2444.1" fx="-8932.5" fy="-2444.1" r="116.2" gradientTransform="translate(1243.7 347.1) rotate(1.7) scale(.2)" gradientUnits="userSpaceOnUse">
      <stop offset="0" stop-color="#b9babe"/>
      <stop offset=".7" stop-color="#97999c"/>
      <stop offset=".9" stop-color="#848689"/>
    </radialGradient>
    <radialGradient id="radial-gradient-17" cx="-4815.4" cy="546.7" fx="-4815.4" fy="546.7" r="54.4" gradientTransform="translate(1353.2 298.1) rotate(1.7) scale(.2 -.2)" gradientUnits="userSpaceOnUse">
      <stop offset="0" stop-color="#7a749f"/>
      <stop offset=".2" stop-color="#7b77a3"/>
      <stop offset=".2" stop-color="#7c78a4"/>
      <stop offset=".3" stop-color="#827eac"/>
      <stop offset=".4" stop-color="#8580ae"/>
      <stop offset=".8" stop-color="#8c86b7"/>
      <stop offset="1" stop-color="#938dc0"/>
      <stop offset="1" stop-color="#78749e"/>
    </radialGradient>
    <radialGradient id="radial-gradient-18" cx="-5525.7" cy="383.9" fx="-5525.7" fy="383.9" r="54.2" gradientTransform="translate(1353.2 298.1) rotate(1.7) scale(.2 -.2)" gradientUnits="userSpaceOnUse">
      <stop offset="0" stop-color="#81c4e5"/>
      <stop offset=".2" stop-color="#81c6e8"/>
      <stop offset=".3" stop-color="#83c8e9"/>
      <stop offset=".4" stop-color="#89cef1"/>
      <stop offset=".6" stop-color="#8fd4f5"/>
      <stop offset="1" stop-color="#93d6f6"/>
    </radialGradient>
    <radialGradient id="radial-gradient-19" cx="-7760.1" cy="-2087.3" fx="-7760.1" fy="-2087.3" r="54.7" gradientTransform="translate(1243.7 347.1) rotate(1.7) scale(.2)" gradientUnits="userSpaceOnUse">
      <stop offset="0" stop-color="#6da5c1"/>
      <stop offset=".3" stop-color="#6da5c1"/>
      <stop offset=".4" stop-color="#73adcb"/>
      <stop offset=".5" stop-color="#7dbbda"/>
      <stop offset=".7" stop-color="#80c0e1"/>
      <stop offset="1" stop-color="#81c3e4"/>
    </radialGradient>
    <radialGradient id="radial-gradient-20" cx="-7968.7" cy="-2057.1" fx="-7968.7" fy="-2057.1" r="54" gradientTransform="translate(1243.7 347.1) rotate(1.7) scale(.2)" gradientUnits="userSpaceOnUse">
      <stop offset="0" stop-color="#81c4e5"/>
      <stop offset=".2" stop-color="#81c6e8"/>
      <stop offset=".3" stop-color="#83c8e9"/>
      <stop offset=".4" stop-color="#89cef1"/>
      <stop offset=".6" stop-color="#8fd4f5"/>
      <stop offset="1" stop-color="#93d6f6"/>
    </radialGradient>
    <radialGradient id="radial-gradient-21" cx="-7859.8" cy="-2009.2" fx="-7859.8" fy="-2009.2" r="54.5" gradientTransform="translate(1243.7 347.1) rotate(1.7) scale(.2)" gradientUnits="userSpaceOnUse">
      <stop offset="0" stop-color="#6da5c1"/>
      <stop offset=".3" stop-color="#6da5c1"/>
      <stop offset=".4" stop-color="#73adcb"/>
      <stop offset=".5" stop-color="#7dbbda"/>
      <stop offset=".7" stop-color="#80c0e1"/>
      <stop offset="1" stop-color="#81c3e4"/>
    </radialGradient>
    <radialGradient id="radial-gradient-22" cx="-7972.8" cy="-2173.3" fx="-7972.8" fy="-2173.3" r="55.3" gradientTransform="translate(1243.7 347.1) rotate(1.7) scale(.2)" gradientUnits="userSpaceOnUse">
      <stop offset="0" stop-color="#81c4e5"/>
      <stop offset=".2" stop-color="#81c6e8"/>
      <stop offset=".3" stop-color="#83c8e9"/>
      <stop offset=".4" stop-color="#89cef1"/>
      <stop offset=".6" stop-color="#8fd4f5"/>
      <stop offset="1" stop-color="#93d6f6"/>
    </radialGradient>
    <radialGradient id="radial-gradient-23" cx="-7862.8" cy="-2116.5" fx="-7862.8" fy="-2116.5" r="55.8" gradientTransform="translate(1243.7 347.1) rotate(1.7) scale(.2)" gradientUnits="userSpaceOnUse">
      <stop offset="0" stop-color="#6da5c1"/>
      <stop offset=".3" stop-color="#6da5c1"/>
      <stop offset=".4" stop-color="#73adcb"/>
      <stop offset=".5" stop-color="#7dbbda"/>
      <stop offset=".7" stop-color="#80c0e1"/>
      <stop offset="1" stop-color="#81c3e4"/>
    </radialGradient>
    <radialGradient id="radial-gradient-24" cx="-7090.2" cy="-2087" fx="-7090.2" fy="-2087" r="54" gradientTransform="translate(1243.7 347.1) rotate(1.7) scale(.2)" gradientUnits="userSpaceOnUse">
      <stop offset="0" stop-color="#7a749f"/>
      <stop offset=".2" stop-color="#7b77a3"/>
      <stop offset=".2" stop-color="#7c78a4"/>
      <stop offset=".3" stop-color="#827eac"/>
      <stop offset=".4" stop-color="#8580ae"/>
      <stop offset=".8" stop-color="#8c86b7"/>
      <stop offset="1" stop-color="#938dc0"/>
      <stop offset="1" stop-color="#78749e"/>
    </radialGradient>
    <radialGradient id="radial-gradient-25" cx="-6975.5" cy="-2111.1" fx="-6975.5" fy="-2111.1" r="53.7" gradientTransform="translate(1243.7 347.1) rotate(1.7) scale(.2)" gradientUnits="userSpaceOnUse">
      <stop offset="0" stop-color="#7a749f"/>
      <stop offset=".2" stop-color="#7b77a3"/>
      <stop offset=".2" stop-color="#7c78a4"/>
      <stop offset=".3" stop-color="#827eac"/>
      <stop offset=".4" stop-color="#8580ae"/>
      <stop offset=".8" stop-color="#8c86b7"/>
      <stop offset="1" stop-color="#938dc0"/>
      <stop offset="1" stop-color="#78749e"/>
    </radialGradient>
    <radialGradient id="radial-gradient-26" cx="-7037.4" cy="-1990.4" fx="-7037.4" fy="-1990.4" r="54.8" gradientTransform="translate(1243.7 347.1) rotate(1.7) scale(.2)" gradientUnits="userSpaceOnUse">
      <stop offset="0" stop-color="#7a749f"/>
      <stop offset=".2" stop-color="#7b77a3"/>
      <stop offset=".2" stop-color="#7c78a4"/>
      <stop offset=".3" stop-color="#827eac"/>
      <stop offset=".4" stop-color="#8580ae"/>
      <stop offset=".8" stop-color="#8c86b7"/>
      <stop offset="1" stop-color="#938dc0"/>
      <stop offset="1" stop-color="#78749e"/>
    </radialGradient>
    <radialGradient id="radial-gradient-27" cx="-7853.2" cy="-2026.9" fx="-7853.2" fy="-2026.9" r="53.5" gradientTransform="translate(1243.7 347.1) rotate(1.7) scale(.2)" gradientUnits="userSpaceOnUse">
      <stop offset="0" stop-color="#81c4e5"/>
      <stop offset=".2" stop-color="#81c6e8"/>
      <stop offset=".3" stop-color="#83c8e9"/>
      <stop offset=".4" stop-color="#89cef1"/>
      <stop offset=".6" stop-color="#8fd4f5"/>
      <stop offset="1" stop-color="#93d6f6"/>
    </radialGradient>
    <radialGradient id="radial-gradient-28" cx="-7748.3" cy="-1978.6" fx="-7748.3" fy="-1978.6" r="54" gradientTransform="translate(1243.7 347.1) rotate(1.7) scale(.2)" gradientUnits="userSpaceOnUse">
      <stop offset="0" stop-color="#6da5c1"/>
      <stop offset=".3" stop-color="#6da5c1"/>
      <stop offset=".4" stop-color="#73adcb"/>
      <stop offset=".5" stop-color="#7dbbda"/>
      <stop offset=".7" stop-color="#80c0e1"/>
      <stop offset="1" stop-color="#81c3e4"/>
    </radialGradient>
    <radialGradient id="radial-gradient-29" cx="-7982.2" cy="-2282.6" fx="-7982.2" fy="-2282.6" r="51.4" gradientTransform="translate(1243.7 347.1) rotate(1.7) scale(.2)" gradientUnits="userSpaceOnUse">
      <stop offset="0" stop-color="#81c4e5"/>
      <stop offset=".2" stop-color="#81c6e8"/>
      <stop offset=".3" stop-color="#83c8e9"/>
      <stop offset=".4" stop-color="#89cef1"/>
      <stop offset=".6" stop-color="#8fd4f5"/>
      <stop offset="1" stop-color="#93d6f6"/>
    </radialGradient>
    <radialGradient id="radial-gradient-30" cx="-7871.3" cy="-2213.4" fx="-7871.3" fy="-2213.4" r="51.9" gradientTransform="translate(1243.7 347.1) rotate(1.7) scale(.2)" gradientUnits="userSpaceOnUse">
      <stop offset="0" stop-color="#6da5c1"/>
      <stop offset=".3" stop-color="#6da5c1"/>
      <stop offset=".4" stop-color="#73adcb"/>
      <stop offset=".5" stop-color="#7dbbda"/>
      <stop offset=".7" stop-color="#80c0e1"/>
      <stop offset="1" stop-color="#81c3e4"/>
    </radialGradient>
    <radialGradient id="radial-gradient-31" cx="-4866" cy="452.1" fx="-4866" fy="452.1" r="62.8" gradientTransform="translate(1353.2 298.1) rotate(1.7) scale(.2 -.2)" gradientUnits="userSpaceOnUse">
      <stop offset="0" stop-color="#fde470"/>
      <stop offset="0" stop-color="#fde470"/>
      <stop offset=".6" stop-color="#fde56f"/>
      <stop offset="1" stop-color="#fde571"/>
      <stop offset="1" stop-color="#c4b155"/>
      <stop offset="1" stop-color="#d2bd5a"/>
      <stop offset="1" stop-color="#deca62"/>
      <stop offset="1" stop-color="#e7d165"/>
      <stop offset="1" stop-color="#ead466"/>
    </radialGradient>
    <radialGradient id="radial-gradient-32" cx="-7067.1" cy="-2201.3" fx="-7067.1" fy="-2201.3" r="52.8" gradientTransform="translate(1243.7 347.1) rotate(1.7) scale(.2)" gradientUnits="userSpaceOnUse">
      <stop offset="0" stop-color="#7a749f"/>
      <stop offset=".2" stop-color="#7b77a3"/>
      <stop offset=".2" stop-color="#7c78a4"/>
      <stop offset=".3" stop-color="#827eac"/>
      <stop offset=".4" stop-color="#8580ae"/>
      <stop offset=".8" stop-color="#8c86b7"/>
      <stop offset="1" stop-color="#938dc0"/>
      <stop offset="1" stop-color="#78749e"/>
    </radialGradient>
    <radialGradient id="radial-gradient-33" cx="-6865.2" cy="-2070.2" fx="-6865.2" fy="-2070.2" r="49.5" gradientTransform="translate(1243.7 347.1) rotate(1.7) scale(.2)" gradientUnits="userSpaceOnUse">
      <stop offset="0" stop-color="#7a749f"/>
      <stop offset=".2" stop-color="#7b77a3"/>
      <stop offset=".2" stop-color="#7c78a4"/>
      <stop offset=".3" stop-color="#827eac"/>
      <stop offset=".4" stop-color="#8580ae"/>
      <stop offset=".8" stop-color="#8c86b7"/>
      <stop offset="1" stop-color="#938dc0"/>
      <stop offset="1" stop-color="#78749e"/>
    </radialGradient>
    <radialGradient id="radial-gradient-34" cx="-8942.2" cy="-2221.8" fx="-8942.2" fy="-2221.8" r="82.5" gradientTransform="translate(1243.7 347.1) rotate(1.7) scale(.2)" gradientUnits="userSpaceOnUse">
      <stop offset="0" stop-color="#b9babe"/>
      <stop offset=".7" stop-color="#97999c"/>
      <stop offset=".9" stop-color="#848689"/>
    </radialGradient>
    <radialGradient id="radial-gradient-35" cx="-7875.2" cy="-2248.6" fx="-7875.2" fy="-2248.6" r="52.6" gradientTransform="translate(1243.7 347.1) rotate(1.7) scale(.2)" gradientUnits="userSpaceOnUse">
      <stop offset="0" stop-color="#81c4e5"/>
      <stop offset=".2" stop-color="#81c6e8"/>
      <stop offset=".3" stop-color="#83c8e9"/>
      <stop offset=".4" stop-color="#89cef1"/>
      <stop offset=".6" stop-color="#8fd4f5"/>
      <stop offset="1" stop-color="#93d6f6"/>
    </radialGradient>
    <radialGradient id="radial-gradient-36" cx="-7769.7" cy="-2181" fx="-7769.7" fy="-2181" r="53.2" gradientTransform="translate(1243.7 347.1) rotate(1.7) scale(.2)" gradientUnits="userSpaceOnUse">
      <stop offset="0" stop-color="#6da5c1"/>
      <stop offset=".3" stop-color="#6da5c1"/>
      <stop offset=".4" stop-color="#73adcb"/>
      <stop offset=".5" stop-color="#7dbbda"/>
      <stop offset=".7" stop-color="#80c0e1"/>
      <stop offset="1" stop-color="#81c3e4"/>
    </radialGradient>
    <radialGradient id="radial-gradient-37" cx="-7763.4" cy="-2106" fx="-7763.4" fy="-2106" r="49.5" gradientTransform="translate(1243.7 347.1) rotate(1.7) scale(.2)" gradientUnits="userSpaceOnUse">
      <stop offset="0" stop-color="#81c4e5"/>
      <stop offset=".2" stop-color="#81c6e8"/>
      <stop offset=".3" stop-color="#83c8e9"/>
      <stop offset=".4" stop-color="#89cef1"/>
      <stop offset=".6" stop-color="#8fd4f5"/>
      <stop offset="1" stop-color="#93d6f6"/>
    </radialGradient>
    <radialGradient id="radial-gradient-38" cx="-7629" cy="-2051.7" fx="-7629" fy="-2051.7" r="49.9" gradientTransform="translate(1243.7 347.1) rotate(1.7) scale(.2)" gradientUnits="userSpaceOnUse">
      <stop offset="0" stop-color="#6da5c1"/>
      <stop offset=".3" stop-color="#6da5c1"/>
      <stop offset=".4" stop-color="#73adcb"/>
      <stop offset=".5" stop-color="#7dbbda"/>
      <stop offset=".7" stop-color="#80c0e1"/>
      <stop offset="1" stop-color="#81c3e4"/>
    </radialGradient>
    <radialGradient id="radial-gradient-39" cx="-6923.7" cy="-1998.5" fx="-6923.7" fy="-1998.5" r="58.4" gradientTransform="translate(1243.7 347.1) rotate(1.7) scale(.2)" gradientUnits="userSpaceOnUse">
      <stop offset="0" stop-color="#7a749f"/>
      <stop offset=".2" stop-color="#7b77a3"/>
      <stop offset=".2" stop-color="#7c78a4"/>
      <stop offset=".3" stop-color="#827eac"/>
      <stop offset=".4" stop-color="#8580ae"/>
      <stop offset=".8" stop-color="#8c86b7"/>
      <stop offset="1" stop-color="#938dc0"/>
      <stop offset="1" stop-color="#78749e"/>
    </radialGradient>
    <radialGradient id="radial-gradient-40" cx="-7780.6" cy="-2208.3" fx="-7780.6" fy="-2208.3" r="44.9" gradientTransform="translate(1243.7 347.1) rotate(1.7) scale(.2)" gradientUnits="userSpaceOnUse">
      <stop offset="0" stop-color="#81c4e5"/>
      <stop offset=".2" stop-color="#81c6e8"/>
      <stop offset=".3" stop-color="#83c8e9"/>
      <stop offset=".4" stop-color="#89cef1"/>
      <stop offset=".6" stop-color="#8fd4f5"/>
      <stop offset="1" stop-color="#93d6f6"/>
    </radialGradient>
    <radialGradient id="radial-gradient-41" cx="-7591.2" cy="-2145.8" fx="-7591.2" fy="-2145.8" r="45.3" gradientTransform="translate(1243.7 347.1) rotate(1.7) scale(.2)" gradientUnits="userSpaceOnUse">
      <stop offset="0" stop-color="#6da5c1"/>
      <stop offset=".3" stop-color="#6da5c1"/>
      <stop offset=".4" stop-color="#73adcb"/>
      <stop offset=".5" stop-color="#7dbbda"/>
      <stop offset=".7" stop-color="#80c0e1"/>
      <stop offset="1" stop-color="#81c3e4"/>
    </radialGradient>
    <radialGradient id="radial-gradient-42" cx="-7915.2" cy="-2365.8" fx="-7915.2" fy="-2365.8" r="41.6" gradientTransform="translate(1243.7 347.1) rotate(1.7) scale(.2)" gradientUnits="userSpaceOnUse">
      <stop offset="0" stop-color="#81c4e5"/>
      <stop offset=".2" stop-color="#81c6e8"/>
      <stop offset=".3" stop-color="#83c8e9"/>
      <stop offset=".4" stop-color="#89cef1"/>
      <stop offset=".6" stop-color="#8fd4f5"/>
      <stop offset="1" stop-color="#93d6f6"/>
    </radialGradient>
    <radialGradient id="radial-gradient-43" cx="-7710.8" cy="-2283.5" fx="-7710.8" fy="-2283.5" r="41.6" gradientTransform="translate(1243.7 347.1) rotate(1.7) scale(.2)" gradientUnits="userSpaceOnUse">
      <stop offset="0" stop-color="#6da5c1"/>
      <stop offset=".3" stop-color="#6da5c1"/>
      <stop offset=".4" stop-color="#73adcb"/>
      <stop offset=".5" stop-color="#7dbbda"/>
      <stop offset=".7" stop-color="#80c0e1"/>
      <stop offset="1" stop-color="#81c3e4"/>
    </radialGradient>
    <radialGradient id="radial-gradient-44" cx="-7147.7" cy="-2159.7" fx="-7147.7" fy="-2159.7" r="31" gradientTransform="translate(1243.7 347.1) rotate(1.7) scale(.2)" gradientUnits="userSpaceOnUse">
      <stop offset="0" stop-color="#7a749f"/>
      <stop offset=".2" stop-color="#7b77a3"/>
      <stop offset=".2" stop-color="#7c78a4"/>
      <stop offset=".3" stop-color="#827eac"/>
      <stop offset=".4" stop-color="#8580ae"/>
      <stop offset=".8" stop-color="#8c86b7"/>
      <stop offset="1" stop-color="#938dc0"/>
      <stop offset="1" stop-color="#78749e"/>
    </radialGradient>
    <radialGradient id="radial-gradient-45" cx="-7763.6" cy="-1978.3" fx="-7763.6" fy="-1978.3" r="38.5" gradientTransform="translate(1243.7 347.1) rotate(1.7) scale(.2)" gradientUnits="userSpaceOnUse">
      <stop offset="0" stop-color="#81c4e5"/>
      <stop offset=".2" stop-color="#81c6e8"/>
      <stop offset=".3" stop-color="#83c8e9"/>
      <stop offset=".4" stop-color="#89cef1"/>
      <stop offset=".6" stop-color="#8fd4f5"/>
      <stop offset="1" stop-color="#93d6f6"/>
    </radialGradient>
    <radialGradient id="radial-gradient-46" cx="-7614" cy="-1919.8" fx="-7614" fy="-1919.8" r="38.9" gradientTransform="translate(1243.7 347.1) rotate(1.7) scale(.2)" gradientUnits="userSpaceOnUse">
      <stop offset="0" stop-color="#6da5c1"/>
      <stop offset=".3" stop-color="#6da5c1"/>
      <stop offset=".4" stop-color="#73adcb"/>
      <stop offset=".5" stop-color="#7dbbda"/>
      <stop offset=".7" stop-color="#80c0e1"/>
      <stop offset="1" stop-color="#81c3e4"/>
    </radialGradient>
    <radialGradient id="radial-gradient-47" cx="-8820.4" cy="-2045.3" fx="-8820.4" fy="-2045.3" r="36.5" gradientTransform="translate(1243.7 347.1) rotate(1.7) scale(.2)" gradientUnits="userSpaceOnUse">
      <stop offset="0" stop-color="#b9babe"/>
      <stop offset=".7" stop-color="#97999c"/>
      <stop offset=".9" stop-color="#848689"/>
    </radialGradient>
    <radialGradient id="radial-gradient-48" cx="-6967.1" cy="-2038.4" fx="-6967.1" fy="-2038.4" r="32.9" gradientTransform="translate(1243.7 347.1) rotate(1.7) scale(.2)" gradientUnits="userSpaceOnUse">
      <stop offset="0" stop-color="#7a749f"/>
      <stop offset=".2" stop-color="#7b77a3"/>
      <stop offset=".2" stop-color="#7c78a4"/>
      <stop offset=".3" stop-color="#827eac"/>
      <stop offset=".4" stop-color="#8580ae"/>
      <stop offset=".8" stop-color="#8c86b7"/>
      <stop offset="1" stop-color="#938dc0"/>
      <stop offset="1" stop-color="#78749e"/>
    </radialGradient>
    <radialGradient id="radial-gradient-49" cx="-7899.2" cy="-2079.6" fx="-7899.2" fy="-2079.6" r="11.9" gradientTransform="translate(1243.7 347.1) rotate(1.7) scale(.2)" gradientUnits="userSpaceOnUse">
      <stop offset="0" stop-color="#81c4e5"/>
      <stop offset=".2" stop-color="#81c6e8"/>
      <stop offset=".3" stop-color="#83c8e9"/>
      <stop offset=".4" stop-color="#89cef1"/>
      <stop offset=".6" stop-color="#8fd4f5"/>
      <stop offset="1" stop-color="#93d6f6"/>
    </radialGradient>
    <radialGradient id="radial-gradient-50" cx="-4534.6" cy="-6938.6" fx="-4534.6" fy="-6938.6" r="737.3" gradientTransform="translate(1382.5 181.5) rotate(28) scale(.2 0)" gradientUnits="userSpaceOnUse">
      <stop offset="0" stop-color="#b9babe"/>
      <stop offset=".3" stop-color="#818386"/>
      <stop offset=".6" stop-color="#5d5e60"/>
      <stop offset=".7" stop-color="#4f5152"/>
      <stop offset=".8" stop-color="#4a4b4c"/>
      <stop offset=".8" stop-color="#3a3b3c"/>
      <stop offset=".9" stop-color="#212223"/>
      <stop offset="1" stop-color="#000"/>
    </radialGradient>
    <radialGradient id="radial-gradient-51" cx="-7827.7" cy="-2198.1" fx="-7827.7" fy="-2198.1" r="11.2" gradientTransform="translate(1243.7 347.1) rotate(1.7) scale(.2)" gradientUnits="userSpaceOnUse">
      <stop offset="0" stop-color="#81c4e5"/>
      <stop offset=".2" stop-color="#81c6e8"/>
      <stop offset=".3" stop-color="#83c8e9"/>
      <stop offset=".4" stop-color="#89cef1"/>
      <stop offset=".6" stop-color="#8fd4f5"/>
      <stop offset="1" stop-color="#93d6f6"/>
    </radialGradient>
    <radialGradient id="radial-gradient-52" cx="-5473" cy="-841.7" fx="-5473" fy="-841.7" r="7.8" gradientTransform="translate(1353.2 298.1) rotate(1.7) scale(.2 -.2)" gradientUnits="userSpaceOnUse">
      <stop offset=".3" stop-color="#000"/>
      <stop offset=".4" stop-color="#050505"/>
      <stop offset=".5" stop-color="#0b0b0b"/>
      <stop offset=".9" stop-color="#000"/>
      <stop offset="1" stop-color="#000"/>
    </radialGradient>
  </defs>
  <g id="Layer_3" data-name="Layer 3">
    <rect class="cls-54" x="56.3" y="45.1" width="262.9" height="402" rx="34" ry="34" transform="translate(-67.1 70.5) rotate(-18.1)"/>
    <path class="cls-14" d="M192.9,455.6l-34.8,11.4c-17.9,5.8-37.1-3.9-42.9-21.8L11.5,127.8c-5.8-17.9,3.9-37.1,21.8-42.9l34.8-11.4"/>
    <rect class="cls-55" x="210.6" y="111.3" width="402.3" height="263.1" rx="34" ry="34" transform="translate(98.2 603.6) rotate(-79.5)"/>
    <path class="cls-17" d="M314.3,429.4l-35.9-6.6c-18.5-3.4-30.6-21.9-27.2-40.4l60.6-328.4c3.4-18.5,21.1-30.7,39.6-27.3l36,7.1"/>
  </g>
  <g id="logo">
    <g>
      <path class="cls-6" d="M454.9,328.4c2.5-2.5,5.9-.4,8.1,2.4,2.1,2.8,1.1,6.6.1,10-1.3,4.5-3.9,8.2-8,6.6-1.1-1.4.3-3.3,1.9-4.2,1.7-1,3.4.9,3.9,1.2.1,0,.2.1.3.2.6.6,1.1.9,4,4.2,1.6,1.8,1.9,4.7,4.1,5.8,1.7.9,3.8.5,5.7,0,2-.5,4.1-1.2,5.5-2.7,1.2-1.4,1.6-3.6.5-5.1-.9-1.2-2.5,0-3.1.9-.7,1-1,2.3-1.2,3.5-.5,3.3-.9,6.6-.4,9.9.5,3.3,2.1,6.5,4.9,8.3M460.7,317.3c-.6,2.4-1.7,4.6-3.1,6.6-.4.6-.9,1.2-1,2s.6,1.6,1.3,1.4M456.2,325.1c-2.7,2.3-4.8,5.2-6.3,8.4,2.4-3.3,4.7-6.6,7.1-9.9-1.1,1.9-2.3,3.8-3.4,5.7,1.1-1,1.9-2.3,2.2-3.8l.9-.4M457.3,326.8c.3-1.3.5-2.6.8-3.9-.6,1.5-1.8,2.6-1.8,4.2M456.7,325.9l.3-1.1M456.3,326.5c.7-3.1,1.7-6.1,2.9-9,.5.5,0,1.3-.4,1.9-1.5,2-2.4,4.4-2.8,6.9M456,325c-2.4,3.4-4.5,7-6.3,10.8.7-2.5,2.2-4.8,4.2-6.5M460.3,316.5c-1.7,1.6-1.9,4.1-2,6.4,0,2.2-1.6,4,2.6,6.4-1.1-1.8-2.1-3.7-2.4-5.8-.3-2.1,0-4.4,1.4-6-1.4,3.5-6.1,7.7-4.5,11.1,2.2-.1,2.9,1,3.1-.6.3-2.4.6-8.9,1.6-11.1M462.1,311.5c-1.6,2.5-2.9,5.2-3.5,8.1s-.4,6,.9,8.6c-.9-3.4-.3-7.1.2-10.6.1-.7.2-1.4.7-1.9M461.8,312.1c-3.8,4.6-4.8,12.1-2.4,17.6-.5-.4-.5-1.8-.6-2.4-.1-3.4,1.3-6.9,1.2-10M455.9,326.7c-2.2.9-3.6,3.1-4.9,5.1-1.5,2.4-3.1,4.9-4.7,7.3,1-2,3-3.6,3.5-5.8M448,338.8c1.1-1.2,2-2.7,2.9-4.1,1.1-1.8,2.2-3.6,3.2-5.4M460.7,346.8c1.1-1.3,1.9-3,1.7-2.7,1-3.3,1.2-6.6.5-9.8-.3-1.2-.7-2.3-1.6-3.2-1.3-1.3-3.3-1.5-5.1-1.7-1.1-.1-2.6,1.4-3.5,2.6,3.3-3.1,10.4-3.9,11.2,3.6-1.4-2.6-4.7-8.8-7.1-7.5-1.7.9-3.9,1.9-5.1,3.5M459,315.5c-.3,1.9-.5,3.8-.4,5.6.2,3.1,2.5,7.2,4.4,9.7M463.7,310.9c-2.1,3.5-4,7.2-5.5,11M460.3,317c2-3.9,3.9-7.9,5.4-12M460.3,317.6c1-1.6,2-3.2,3-4.8-.1.2-.2.5-.3.7.4-.5.7-1.1,1.1-1.7-1.6,1.8-2.9,3.7-3.9,5.8,1.5-2.2,2.9-4.5,4.2-6.8-1.9,3.1-4,6.2-6.1,9.3,2.3-3.6,4.6-7.4,6.7-11.1-3,3.6-5.3,7.7-6.8,12,1.2-4.4,3.5-8.4,6.4-11.9-2.4,3.2-4.3,6.8-5.7,10.5,1.9-3.9,3.8-7.8,6.7-11.1-.6.3-1,.9-1.4,1.4-2.3,3.6-4.4,7.4-6.2,11.3,3-4.6,4.2-10.5,7.9-14.5-3.2,5-5.9,10.3-8.2,15.8,1.8-3.7,3.5-7.5,5.3-11.2l-5.5,8.9M483.2,369.9h-.7M482,369.8c.5.3,1.1.2,1.5,0-.8.4-1.9.3-2.6-.3.6.5,1.4.8,2.2.8M483.8,370.1l-2.5-.7c.4.4,1,.6,1.5.4M483.9,369.7l1.4-.2M461.6,315.8c1.2-1,1.9-2.2,2.5-3.5.8-.8,1.7-1.5,2.7-2-1.2.5-2.2,1.4-2.9,2.5.9-1.1,1-3,2-4.1-.9.5-.9,2-1.3,3l2.3-2.8M445.9,341c.6-.5,1.2-1,1.8-1.5.2-.2.5-.4.6-.7.2-.6,0-1.4.6-1.6-1.1,1.3-2.2,2.7-3.2,4.1M445,341.6c1.6-1.2,3-2.7,4.2-4.4M462.7,314.9c-2.7,4.5-3,11.7-.9,16.2M459.2,320.7c.5,3.7,2,8,3.9,11.2M271.6,136.9c-1.9-2.5-1.8-5.6.4-8.7,3.9-4.7,8.4-8.5,13.8-11.3,5.4-2.8,11.4-3.3,16.9-1.7.2,0,.4.1.6.2.1,0,.2,0,.3.2,0,0,.1.2.1.3.1,1.5-.4,2.9-1.3,4.1s-1.6,2.4-3.4,2.8c-1.7,1-3.7,1.7-5.7,1.8-2,0-3.9-.6-5.6-1.6-3.8-1.7-4.3-5.1-4.9-9.9,0-2.1,1-3.3,2.4-4.2,1.3-.9,2.6-1.9,3.9-2.7,1.1-.7,2.3-1.4,3.5-1.8,1.4-.4,2.9-.6,4.3,0,1.1.5,2.2,1.5,1.4,2.8-.9,1.3-2.6,1.4-4,1.6-1.2.2-2.3.3-3.5.2-2.3-.1-4.6-.9-6-2.8-.7-.9-1-2-1.6-2.9-.7-1.2-1.4-2.3-2.2-3.3-1.1-1.4-2.4-2.8-4.2-3.2-2.5-.7-4.7,1.1-6.4,2.8-1.1,1.1-1.9,2.5-2.9,3.7-.9.9-1.8,1.9-2.8,2.7-2,1.7-4.4,2.9-7.1,3.1M311,167c6.9-8.2,9.3-18.6,4.4-28.1-4.9-10.6-16.6-.5-25.1,2.4-4.2.9-7.4,2.9-12,1M311.9,162.1c0,0,0-.2,0-.1M311.6,163.3c3.5-5.2,5.4-11.5,5.5-17.8-.1,6.7-2,13.3-5.6,19-.6,1-1.5,2.1-2.7,2.2.9-2.1,2.4-4,4.1-5.4-2.2,1.4-4.4,2.8-6.5,4.2,3-.5,5.6-2.3,7.5-4.6,1.9-2.3,3.1-5.1,4-8l-2.2,5.3c1.8-4.5,3.6-9.4,2.5-14.1v6.3M313.1,158.7c-.7,2.9-2.9,5.5-5.7,6.5,2-.4,3.7-1.6,5-3.3s2-3.5,2.6-5.5c1.8-6.2,1.6-12.9-.5-19,1.3,3.1,2,6.4,2,9.8M314.8,139.6c.2-1-.3-2.1-1-2.8-1.4-1.5-3.6-2.2-5.6-2.2s-4.1.6-6.1,1.2M314.2,140.4c-.4-1.5-1.6-2.8-2.9-3.7-1.4-.9-2.9-.7-4.4-1.2-.6-.2-1.2-1-1.9-1-2,0-3.6,1.4-4.9,2.8M316.1,152.1c1.3-2.4.8-5.4-.1-8-.4-1.2-1-2.4-1.8-3.4-1.1-1.4-2.7-2.4-4.2-3.3-.9-.6-2.2-.9-3.3-1.1-1.3-.3-2.4-.4-3.8,0-2.5.6-4.9,1.6-7,3M318.8,152.3c.2-3.4-.1-7-1.5-10.1-1.4-3.1-4.1-5.8-7.4-6.6-1.5-.4-3.1-.3-4.6-.1-5.4.6-10.8,2.9-14.5,6.9,3.1-2.6,6.4-4.9,10-6.9,1.2-.7,2.6-1.3,3.8-.7M315.6,152.4c-.7,2.7-1.9,5.4-3.3,7.8.4-.5.8-1,1.3-1.5M304.9,163.4c1.7.8,3.7,0,5.2-1.1,1.1-.7,2.1-1.5,3-2.4.6-.6,1.3-1.5,1-2.3M305.2,162.5c.2.7,1.2.8,2,.6,2.7-.6,5.2-2,7.3-3.8M305.5,162.2c.9.8,2.4.7,3.5.2s2.1-1.3,3.2-1.8c1.2-.6,2.7-.8,3.5-1.9M305.5,162.4c2.1.5,4.2-.4,6-1.5s3.4-2.6,5.3-3.6M305.8,162.3c.3.5,1.1.2,1.6,0,1-.6,2-1.2,3-1.8,1.9-1.2,3.8-2.4,5.5-3.9M309,161.1c-.8.9-2.2.5-3.3.8-1,.3-1.8,1.1-2.8,1.5-1,.4-2.1.2-3,.8-.4.3-.6.6-.8,1-1.3,2-2.4,4.2-3.4,6.4M305.8,161.6c-.4.4-1,.3-1.6.3-.8,0-1.6.4-2.3.8-2.8,1.6-5.4,3.6-7.6,6M311.5,136.1c-1.8-1.8-4.7-2.5-7.1-1.6,0-.3.4-.4.6-.3,1.1.2,2.2.6,3.2,1.2M310,135.6l-.3-.2M313.3,136.9c-.7-1.3-2.1-2.2-3.6-2.6s-3-.4-4.5-.4c-.6,0-1.3,0-1.9.3,2.7-.7,5.5.5,8.1,1.7M285.5,142c1.5.8,5.5.3,6.3-1.4M282.7,143.2c1.4.2,2.8.5,4.2.3s2.8-.9,3.5-2.1M276.1,143c.4.2.9.3,1.4.3,3.7.1,7.4-.1,11-.8M286.8,143.7c0,.3.4.5.7.4s.5-.4.8-.5c.3-.1.6-.2.9-.3,1.1-.4,1.6-2.1,2.8-2M289,142.9c.7,1.3,3.7-2.3,4.1-2.9M272.4,138.9c1.1.4,1.5,1.8,2.3,2.6,1.7,1.7,4.5,1.1,6.7,2.1M276.5,141.9c1.6,1.1,4.7,2,6.6,2.2M270.9,129.2c-1.5,2.3-.5,1.5-.7,2.2-.6,1.5,0,3.2.6,4.8.5,1.2,1,2.4,1.6,3.6M276.7,123.9c.1-.2-.7.9-.9.8s-.5.2-.7.3c-1.1.9-2.1,2.1-3,3.3M278.4,122c-2.4,1.8-5.4,4.1-7.1,6.6M282.8,120c-1.5.4-3,1.1-4.3,2-1.8,1.3-3.2,3-4.6,4.7M274.3,125.8c-2,2.4-3.1,5.6-3.2,8.7,0,.9,0,1.8.3,2.6.5,1.6,1.7,2.9,3,3.9,2.1,1.7,4.8,2.9,7.4,2.5M270,131c-.8,2.1-.3,4.4.7,6.4,2,3.7,6,6.3,10.2,6.5,1.8,0,3.6-.3,5.4-.6l3.5-.7M282,142.4c4.5.4,9.6-1.1,13.3-3.6,2.2-1.5,5.9-5.5,8.8-4.6M310.7,136.4c-2.3-1.4-5.2-1.5-7.8-.8s-5,2-7.3,3.3l-7.1,4M314.8,139.3c.3-.4.2-1,0-1.4s-.6-.8-1-1.1c-1.3-1.1-2.7-2.3-4.3-2.7-.6-.1-1.1-.2-1.7-.3-.5-.1-1-.3-1.6-.4-2-.3-3.9.7-5.5,1.9M302.6,135.8c-1,1.2-2.6,1.5-4.1,1.9-2.8.7-5.5,1.7-8,3-.6.3-1.2.6-1.7,1.1-.3.3-.6.7-.9,1-.6.5-1.5.8-2.3.6M274,141.2c1.3,1.3,4.4,3.9,6.3,3.7,1.4-.2,5.6-.4,6.5-.8.3-.1,1.1-.6,1.4-.6.5,0,2.5-1.5,2.9-1.8.6-.5-3.5,1.1-3.2.4M282.2,142.6c1.6.8,3.3.4,4.9-.2M297.6,123.9c2.8-1,5.4-2.7,7.5-4.9-1.1,2.7-3.7,4.5-6.5,5.2s-5.8.5-8.6,0c-1.4-.2-2.8-.6-4-1.2-.8-.3-1.5-.9-1.6-1.7,4.5,2.6,10,3.4,15.1,2.2,1.6-.4,3.3-1,4.5-2.2,1.2-1.1,1.9-2.9,1.3-4.5-.3-.8-.9-1.3-1.6-1.8-1.4-.9-3-1.2-4.6-1.3-5.1-.3-10.1,1.2-14.5,3.7s-8.2,5.9-11.6,9.7M284.4,109c-2.3,2.1-2.5,4.8-1.7,9.4M282.2,142.5c2.9,0,5.8-.6,8.5-1.8,1.1-.5,2.1-1.1,3.2-1.7,3.2-1.8,6.5-3.7,9.8-5.5M285.9,142.2c6.7-.8,13-3.6,17.8-8.3M281.9,120.3c-.3.3-.5-.4,0-.8,0,0-.3.1-.3.2,1.5,1.5,2.2,2.2,3.5,2.9-.2-.1-.8-.8-1-1M291.1,104c-1.9.5-3.6,2.3-5.2,3.3-.7.5-1.5.9-2.1,1.6s-1,1.7-1.4,2.8M298.5,105c-.3-.6-.7-1.3-1.3-1.4-.3,0-.6,0-1,0-3.3.2-6.5,1.2-9.3,2.9-.8.5-1.5,1-2,1.7M285.9,108.6c1,.8,2.1,1.3,3.4,1.4.5,0,.9-.5,1.4-.5M289.8,109.9c1.9-.1,4.5-.4,6.3-1.1,1.3-.5,2.7-1.2,2.7-2.7,0-.8-.4-1.6-1-2.1-1.3-1.1-3-1-4.6-.7-3.4.7-6.6,2.5-8.9,5M285.7,143.4c-1.9-.2-4.5-.7-7-.5M283,142.4c2.3,0,5.3-.2,7.5-.7M275.2,125.2c-1.9,2.1-3.5,4.3-4,7.5M284.1,141.5c-.6.1-1.3.1-2,.1,0,0,0,0-.2,0h-.3c-2-.1-4-.7-5.8-1.7-1.2-.8-2.3-1.8-2.9-3.2-.1-.2-.8,0-.8.2.1.2.2.5.3.7-.2,0-.3.2-.2.2.8,1,1.8,1.8,2.9,2.4-.2,0-.4.2-.3.2.4.2.7.4,1.1.6,0,0-.1,0-.2,0,0,0-.3.2,0,.2,1.9.6,4,.8,6,.6,0,0,.2,0,.3-.1.6,0,1.3,0,2-.1,0,0,.4,0,.4-.2,0-.1-.2-.1-.3-.1h0s0,0,0,0ZM258.7,108.5c-.5,0-1.6,0-2.6,0s-2.2-.7-1.6,0c.4.5,1.6.8,2.2.8,1.2.2,2.6-.5,2.9-.6.6-.1-.3-.4-.8-.4h0ZM318.3,140.7l-2.2-3.6c0-.1-.4,0-.5,0,0,0,0-.1-.1-.2-.1-.2-.9,0-.7.3,0,.1.1.2.2.3.1.4.3.6.6.9.5.8,1,1.7,1.5,2.5,0,.1.4,0,.6,0h0c.1.2.9,0,.7-.3h0ZM309.9,132.5c-1.1-.5-2.8-.4-3.9,0-.5.2-1,.5-1.4.8-.5.4-1.2.9-1.5,1.5-.3.7.2,1.4.4.7.7-2,2-2.5,3.9-1.9.9.2,1.7.6,2.6.8,1.6.3.6-1.5-.2-1.9h0ZM300.9,122.1c-.2,0-.4,0-.6,0-1.6.5-3.3.9-4.9,1.2-.1,0-.4.1-.3.3,0,0,0,0,0,0h0s0,0-.1,0c0,0-.2,0-.2.1,0,0,0,0,0,0-.1,0-.4.1-.3.3.1.2.5,0,.6,0,.9-.2,1.8-.3,2.6-.5.8-.2,1.5-.4,2.2-.7.2,0,.4,0,.6-.1.1,0,.4-.1.3-.3,0,0,0,0,0,0,0,0,0,0,.1,0,.1,0,.2-.2,0-.3h0ZM300.9,114.5s0,0,0,0c0,0,0,0,0,0,0,0,0,0-.1,0s0,0-.1,0c0,0-.2,0-.3,0s0,0-.1,0c0,0-.1,0-.2,0,0,0,0,0-.1,0,0,0,0,0,0,0,0,0,0,0,0,0,0,0,0,0,0,0h0s0,0,0,0c0,0,0,0,0,0,0,0,0,0,0,0,0,0,0,0,0,0,0,0,0,0,0,0,0,0,.2,0,.3,0s0,0,.1,0c0,0,.2,0,.2,0,0,0,0,0,0,0,0,0,0,0,0,0,0,0,0,0,0,0h0ZM282.3,143.5c0,0-.2.1-.3.1-.1,0-.3,0-.4,0,0,0,0,0,0,0-.2,0-.4,0-.6,0h0c-.1,0-.2,0-.3,0-.2,0-.3,0-.5-.1-.1,0-.2-.2,0-.3.1-.1.4-.2.6-.2s.2,0,.3,0c0,0,.2,0,.3-.1.2,0,.5,0,.7,0,0,0,0,0,0,0h0s0,0,0,0c0,0,0,0,0,0,0,0,0,0,0,0,0,0,.1,0,.1,0,0,0,0,.1,0,.2h0s0,0,0,0ZM315.6,147.9c0-.2-.7,0-.8.1-.5,1.4-.5,2.8-.6,4.2,0,.4-.2.8-.3,1.2,0,0,0,0,0,0v.3c-.1,0-.1,0-.1,0,0,.3-.2.6-.2.9,0,0,0,0,0,.1,0,.2-.2.3-.2.5-.3.5-.6.9-.9,1.4-.5.7-1.1,1.4-1.6,2,0,0-.1,0-.2.1,0,0,0,0,0,0-.2.1-.4.2-.5.3-.4.2-.9.3-1.3.5-1.4.4-2.8.8-4.2,1.1h0c-.1,0-.3,0-.3.1-.5.1-.9.2-1.4.3-.2,0,0,.2,0,.3.2.1.4.2.6.2.6,0,1.3,0,1.9-.1,0,0,.1,0,.2,0,0,0,0,0,0,0h0c.7-.1,1.4-.2,2.1-.4,1.5-.2,2.9-.7,4.2-1.4.1,0-.1-.3-.4-.4,1-.5,2-1.1,2.8-2,.2-.2-.6-.6-.9-.5,0,0,0-.1.1-.2.3-.4.6-.9.9-1.4.3-.5.6-1.1.6-1.6,0-.1-.2-.2-.4-.2.1-.5.2-.9.3-1.4.3-1.4.5-2.8.6-4.2h0s0,0,0,0h0s0,0,0,0ZM311.9,138.6c-.8-.4-1.5-.9-2.3-1.3.2.1.4.2.7.1s.4-.4.2-.5c.4,0,.9,0,1.1-.4-2-1.2-.4.1-2.8.5,3.1,1.8-1.6-.5-1.1-.3-.3-.2-1.4,0-1.7.2.6.1-2.3-.4-1.8-.3-1.9-.3-1.5-.5-3.2.3.2.2.5.2.7.1-.3.4-.9.6-1.4.3.3-.2.5-.6.6-1-3.3,1.3-6.2,3.3-9.2,5.1-2,1.1-4.2,2.2-6.5,2.7-2.5.6-4.9.3-7.4,0-.8,0-1.6-.2-2.2-.5-1-.5-1.6-1.5-2.3-2.3-.8-1-1.7-2-2.5-3-.9-1.2-1.3-2.9-1.7-4.2-.3-.9-.2-1.7,0-2.7.1-.4.4-1,.9-1,.1,0,.6-.9.6-1,.2-.4.5-.7.8-1,.5-.7,1.1-1.3,1.7-1.9.6-.6,1.2-1.1,1.9-1.6s.8-1.2,1.5-1.7c-.2.2.2-.2.2-.4,0-.2.2-.3.4-.4.7-.6,1.4-1.1,2.1-1.7.3-.2.6-.6,1-.8.3-.2.4,0,.7,0-.2.2-.4.4-.6.6.8.3,1.6,0,2.4-.3.7-.4,1.1-1.1,1.7-1.6,2.4-1.8,5.6-2.9,8.5-3.9-.1-.2-.5-.2-.8-.2-1.8.4-3.5,1-5.1,1.8-.8.4-1.7.8-2.5,1.2-.4.2-.8.4-1.2.7-.2.1-.5.3-.8.4-1.4.2-.7-5.7-.5-6.5.2-1,.5-2,1-2.8.1-.3.6-1.2,1-1.3.2,0,.4.2.6.2.3,0,.5,0,.8,0-.3-.3-.6-.7-.7-1.2,0,0,0,0,0-.1,0,0,0,0,.1,0,.2-.1.6-.3.7-.5,0,0-.1,0-.2,0-.4,0-.7,0-1.1.2.1,0-1.7-3.4-1.9-3.7-.8-1.2-1.7-2.3-2.6-3.3-.4-.5-.6-1-1-1.5-.4-.5-.5-.8-1.1-.9-.2,0-.2,0-.4-.3-.2-.3-1-.2-.7-.1,2.2.8,3.6,3.5,4.8,5.3.9,1.4,1.8,2.8,2.7,4.3,0,0,.7,1.1.6,1.2-1.7,1.2-2.6,2.5-3,4.5s-.4,3.8.5,7c-1.5,1-4.7,1.9-6,3.2-1.2,1.5-2.6,2.6-3.8,4-1.5,1.7-3,3.3-3.6,5.5-.7,2.5-.9,5,0,7.4,1.9,4.6,7.1,7.4,11.9,7.5,1,0,2,0,3-.3,4.9-1,8.8-4.5,13.3-6.6,4.7-2.2,10.2-2.8,15-1,0,0,0,0-.1,0h0ZM464.9,311.5c-.4.5-.8,1-1.2,1.5-.3,0-.6,0-.6.2-2.2,4.1-5,8.7-5,13.5,0,.3,1.5-.1,1.5-.5,0-.2,0-.4,0-.6.1,0,.2,0,.2-.2-.2-2.6,1.2-5.2,2.3-7.5,1-2.2,2.2-4.4,3.9-6.2.2-.2-.8-.4-1-.2h0Z"/>
      <path class="cls-21" d="M321,144c-.1-.6-.3-1.1-.5-1.6,0-.2-.1-.3-.2-.5-.2-.7-.3-1.5-.6-2.3s-.7-1.5-1.1-2.1c-1.7-2.7-4.6-5.4-7.9-6.1-.7-.2-1.5-.3-2.3-.2-4.4.4-7.8,2.9-11.6,4.8-3.3,1.7-6.7,3.1-10.2,4.2-.8.2-1.7.6-2.6.7-.8.3-.5,0-2,.4,0,0-.1.2-.1.2-.4.1-.9.2-1,.5-.3.5.2.5.7.5,5.6-.3,11.1-1.8,16.2-4.3,0,0,.2,0,.3-.1.5-.2.4-.4,0-.6-.4-.2-1.1,0-1.6.2,0,0-.2,0-.3,0,1.5-.7,2.9-1.4,4.4-2.1.9-.5,1.8-1,2.7-1.5.4-.2.9-.6,1.4-.8.6-.2.6-.2,1.1.3.2.3,1,.2,1.7,0,.2.2.6.2.9.2.2.2.4.3.7.4,2,.5,3.6,2,4.8,3.7,0,0-.2.1-.2.1-.8-.9-1.8-1.7-3-2.2-.7-.4-2.8.2-2.4,1.3.6,1.9,2,3.1,3.2,4.6.8.9,1.1,2,1.3,3.1,0,.1,0,.3,0,.4.1,1.1,0,2.3,0,3.5-.3,3.7-.4,10-4.3,12-.1,0-.2.1-.4.2.2-.6-.4-.8-.9-.9-.9,0-1.7,0-2.5.2-.3,0-.6.1-.7.2s-.2,0-.3.1c-2.2.6-4.3,1.7-6,3.2-1.1,1-2.2,2.1-3.2,3.2-1.4,1.1-2.5,2.4-3.3,4,0,0,0,0,0,0,0,0,0,.2-.1.2-.2.6.8.8,1.1.8.6,0,1.5-.2,1.8-.8.7-1,1.4-1.9,2.2-2.8.4,0,.7-.2,1-.4,1-.6,1.6-1.4,2.3-2.2.3-.2.7-.4,1-.6.3-.2.6-.5.6-.8.2-.2.4-.4.7-.6.8-.6,1.8-1.4,2.8-1.8.6-.2,1.3-.3,1.9-.3.4,0,.9-.2,1.3-.4-.4.8,4.4,3.6,5.5,3,3.1-1.6,3.3-2.2,4-5.3.5-.1,0-5,0-5.6.4-2.7.2-2,.1-4.7,0-1,.1-1.8,0-2.7.3.6-.1-2.1.2-1.5.1.2.3.3.5.4.5,1.4,3.4.8,3-.8h0Z"/>
      <path class="cls-21" d="M299.8,123.4c-1.1.4-2.4.6-3.6.8-1.1.2-2.4.5-3.5.6-2.2,0-4.2-1.2-6.1-2.2-.8-.4-2.8-1.7-3.8-1.7-.9,0-.9,0-1.7.7-1.5,1-2.8,2.8-4.1,4.1-.5.5-1.1,1.1-1.6,1.7-.3.5-.6,1.1-.8,1.7-.3,2.1-.4,4.3-.2,6.5,0,.2,0,.5,0,.7,0,1,0,1.4,1,2.8.5.7,2,1,2.8,1.3,1.7.5,3.4,1,5,1.5,1.3.4,2.5.7,3.8,1.1.4.1,2.7.8,1.6,1.3-1.8,1-4.1,1.7-6.1,1.9-1.5.1-3-.1-4.5-.3-1.2-.1-2.5-.2-3.6-.9-.6-.4-1.1-.9-1.6-1.3-.6-.5-1.3-.8-1.9-1.3-.9-.7-1.3-2-1.7-3.1-.4-1.1-.7-2.3-.8-3.5-.2-2,.7-3.7,1.5-5.5.7-1.6,1.7-3.1,2.9-4.3.9-.9,1.9-1.7,2.9-2.5.7-.6,1.3-1.1,2-1.6,1.4-1,2.8-1.9,4.3-2.8,1-.6,1-1.9,1.6-.9s3.5,3.6,4.1,3.8c3.2.8,6.2.8,10.3,0,1-.2,3.7-1.2,3.6-1.4-.4-.7.5,1-.8,2.4-.1.2-.3.3-.5.4-.2.1-.5.2-.7.3h0ZM305.3,118.9c0-.1,0-.2,0-.4,0-.3,0-.7,0-1,0,0,0-.2,0-.3,0,0,0,0,0,0,0-.5,0-1.1,0-1.6,0-.2-.4-.4-.6-.5-.1,0-.3,0-.5,0-.3-.4-.7-.8-1.3-1,0,0-.1,0-.2,0,0,0-.2,0-.2,0-.4,0-.9-.1-1.3,0-.2,0-.5.1-.6.2-.1-.3-.5-.5-.9-.6-1.5-.2-3.1,0-4.6.3-1.3.3-2.7.6-4,.9-.2,0-.6.2-.8.4,0,0-.2,0-.2,0-.3,0-1.5.3-1.4.8,0,.3.8.2,1.3.2.2.6,1.2.6,1.7.5,1.2-.3,2.5-.6,3.7-.9,1.3-.3,2.7-.3,4-.3.2,0,.4,0,.6,0,.2,0,.3,0,.5.2.6.2,1.2.6,1.5,1.1.4.8.5,1.8.3,2.6-.1.5-.7,1.4-.3,1.9.2.2.5.4.8.4.4,0,.8,0,1.2-.2.3-.1.7-.3.8-.7.2-.5.4-1,.5-1.5h0c0-.2.1-.4.1-.6h0ZM261.5,106.7c-.2.1-.1,0,0,0h0ZM267.5,104c0-.3-2.4,1.5-2.6,1.5-.4,0,0-.5-.3-.1-.6.7-2.7,1.5-3.6,1.9-.9.4-2,.3-2.9.8-.1,0-.3.2-.4.3-.3.4.2.6.3.9,0,.3-1,.6-.8.6s1.9,0,2.2,0c1.7-.3,3.2-1.2,4.6-2.3.4-.3.6-.7.9-1,.7-.8,2.4-2.6,2.4-2.7h0Z"/>
      <g>
        <path class="cls-21" d="M457,347.5c-.2,0-.1,0,0,0h0Z"/>
        <path class="cls-21" d="M463.4,344c.5-1.2.8-2.5,1-3.8.2-1.3.3-3.9.3-5.2-.4.9-.7,2.9-1,3.8-.3.9,0,1.8-.4,2.6-.2.7-.5,1.4-.7,2.1,0,0,0,.2-.1.2-.2.2,0,.8-.4.9-.4.1-.5.9-.7,1.2-.4.5-1,.6-1.5.7-.7.1-1.3.4-2,.5-1.1.2-3.3.6-3.7-1-.1-.6.4-1.7.9-2-.8.6-1.8,1.8-1.7,2.7,0,.8.6,1.4,1.3,1.7s1.5.3,2.3.2c3.2-.4,5.2-2.2,6.4-4.8h0Z"/>
      </g>
      <path class="cls-21" d="M488.6,367.1c.2-.3.3-.6.4-.9,0-.2-.2-.1-.3-.1,0,0-.2,0-.3,0,0,0-.1,0-.1.1,0,0,0,0,0,0,0,0-.1,0-.2.1,0,.1-.2.2-.2.4,0,0-.2.1-.2.2,0,0,0,0,0,0h0c-.2.1-.4.3-.6.4,0,0-.2,0-.2.1,0,0,0,0,0,0-1,.6-2,1.1-3.1,1.4-.1,0-.4.1-.3.3,0,.2.3.2.4.1.2,0,.4-.1.5-.2,0,0-.2.1-.3.2-.1,0-.3.2-.2.4,0,.1.2.2.4.1,0,0,.2,0,.2,0,.2,0,.5-.1.8-.2,0,0,0,0,0,0h0s0,0-.1,0h0s0,0,0,0c0,0,0,0-.1,0h0s0,0,0,0c0,0-.2,0-.2,0h0c-.2,0-.4,0-.5,0,0,0-.2.1-.1.2,0,0,0,0,0,0-.1,0-.3,0-.4.1-.1.1,0,.2,0,.3.6.2,1.3.1,1.9-.1.3-.1.6-.3.8-.5,0,0,0-.1.1-.2h0c.4-.2.8-.4,1.2-.8.6-.6,1-1.3,1.3-2.1h0s0,0,0,0Z"/>
      <path class="cls-38" d="M454.7,266.5c0-1.6,0-3.2-.2-4.8-1.4-10.1-7.4-19.1-13.4-27-21.9-28.9-56.5-47.7-92-53.7-2.7-.5-5.6-.9-8.2,0-3.6,1.3-6,4.7-7.5,8.2-6,13.9-7.2,16.9-12.2,26.2-3,5.6-20.7,9.5-21.7,11-3.9,5.6.4,16.4-2.5,19.4-2,2-7.3,7.6-14.7,9.7-11.7,3.4-15.9-.6-21.4.8-5,1.2-3.8,13.2-9,15.7-9.3,4.7-17.2,4.2-20.8,4.7-8.6,1.3-12.4-6.9-20.9-6-6.1.6-7.4,10.7-13.5,10.6-12.9-.3-13.2-1.8-38.6-10.3-1.1-.4-3.1-9.3-8.2-11.4-3.4-1.4-6.6,2.9-9.6,1.2,0,0-6.1-3.2-11.6-8.6-1.3-1.2-2.3-2.5-2.7-4.2-.4-2,.7-3.5-.8-8.2-2.9-8.7-8.1-1.7-11.5-7-5.8-8.9,2.2-22.1.3-24.2-3.3-3.8-3.4-10.5-3.5-11.3-.7-6.6,5.4-9.1,7.3-14.8,1.5-4.3,14.9-9.8,9.5-14.7-6.5-5.9-13.3-4.2-16.8-.2-3.2,3.6-15.6,8-20.2,19.3-2.1,5.1-11.5,4.4-13,7.5-1.5,3.2,1.1,5.8,1.5,11.3.7,8.4-2.1,21.4-4.6,26.9-2.7,5.9-7.9,1.8-6.5,10.1.8,4.7,4.7,12.6,9.5,19.7,6.7,9.9,7.8,16.7,15.9,32.3,1.1,2.1-1.2,15.4,3.2,17.3,2.3,1,4.6,4.2,7.2,4.3,5.3.2,10,2.4,13.7,4.8,13.7,8.7,22.3,14.6,31.8,19.5,8.3,4.3,28.3,8.8,27.7,13.6-.3,2.4,1.4,8.9,11,12,4.9,1.6,13.6-3.1,20.9-4.9,5.9-1.4,26.1,6.4,74.8.9,1,1.2,2.6,2.7,4.8,4.1,2.1,1.3,4.5,2.4,7.1,2.6,2.7-1.7,9.4-1.5,12.2-6.7,6.2-11.3,23.9-11.4,28.6-13.5,32.7-12,40.2-16.2,50.5-20.7,5.4-2.3,14,2,18.3,0,15.4-6.9-7.2-12.5,24-29.4,16.2-8.8,24.9-19.2,25.7-32.4h0ZM144.9,280.4c0,0,.2-.1.3-.2"/>
      <path class="cls-31" d="M285,173c-6.7-.2-7,10.2-.3,10.4,6.7.2,7-10.2.3-10.4Z"/>
      <path class="cls-49" d="M394,310.3c-.2-1.1-.7-2-1.4-2.6.6-1,.9-2.3.5-3.9-1.3-5.4-2.8-10.7-6.2-15.2-2.5-3.4-5.4-5.9-7.7-9.2-.9-2.1-1.9-4.1-2.9-6.2-.9-1.7-2.5-2.5-4.1-2.6-2.7-3.5-5.6-7-8.6-10.2-5.7-6.1-12.2-11.6-19.4-15.7-.7-.4-1.4-.8-2-1.1-2.3-1.7-4.7-3.1-7.1-4.3-3.7-1.7-8.2-2.6-12.8-2.7-1.9-.5-4-.5-6.4-.2-.7.1-1.3.4-1.9.8-1.7.3-3.3.7-4.8,1.2-2,.7-3.5,2.9-3.8,5-1.1-.2-2.3-.2-3.5.4-2.7,1.3-5.1,2.9-7.4,4.8-1.4,0-2.7.5-3.6,1.8-.3.3-.6.6-.9,1-.6,0-1.3.3-1.9.6-1.3.2-2.5.5-3.8.6-4.9.7-5.3,9.1-.3,10,.8.1,1.6.2,2.4.3.7.9,1.7,1.5,2.8,1.9.5.6,1,1.1,1.6,1.5v.4c-.1,2.4,1.6,4.2,3.6,5,1.7,3.7,3.8,7.2,5.7,11,3.2,6.4,5.7,13.1,7.5,20,3.6,14,3.2,28,3,42.3,0,.6,0,1.1.2,1.6-.6.5-1.1,1.2-1.5,1.9-2.9,3.9,2.5,9.4,7.1,7.4.1,0,.2-.1.4-.2.6-.2,1-.6,1.4-1.1,11.4-3.6,22.7-7.2,34.1-10.9,5-1.6,9.9-3.3,14.5-5.9,4.5-2.5,9.6-2.3,14-5,.2-.1.4-.2.5-.4,11.9.4,14.7-12.8,13-22.2h0s0,0,0,0ZM338.8,259.2c0-.5,0-1,0-1.4.3.1.7.2,1,.3-.4.3-.8.7-1.1,1.1h0ZM356,290.5c-.1,0-.3,0-.4,0,.2-.5.4-1.1.5-1.6,0,.5,0,1,0,1.5h0Z"/>
      <path class="cls-53" d="M112.2,217.6c-1-3.4-7.1-3.8-9.8-2.3-1.6-1.2-3.5-2.1-5.4-2.8-2.7-.9-6.9-.9-8.9-3.1-3.1-3.3-8.9-3.4-9.1,1.1-.3,7.7-3.8,16.6-2.5,24.4-.2,2.8,2.7,7.4,4.1,9.9,1.9,3.4,5.8,3.1,8.1,1.2,1,.5,2,1.2,3.2,1.4,1.2.2,2.2,0,3.2-.4,5.4,1,12.5-.9,15.7-5.5,4.7-6.9,2.9-17.4.9-24.6l.5,1.8v-1.2s0,0,0,0Z"/>
      <path class="cls-36" d="M117.1,176.3c-1.1-1.1-1.9-2-2.6-3.4-1.3-2.3-4.2-5.1-6.6-3.6-4.5,2.9-8.7,8-11.3,12.7-.5.8-1.4.4-1.4,1.3-.5.6.2-1.5-2,.8-2.7,1.4-4.1,3.1-5.7,6.4-2.4,5,3.3,9.6,6.9,7.6.5.5,1.2.9,2.1,1.1,4.7,1.4,10.8,4.4,14-1,1.3-2.2,2-4.9,3-7.3,1.3-2.9,2.8-5.6,4.3-8.4,1.1-2,1.1-4.7-.6-6.3h0Z"/>
      <path class="cls-10" d="M294.2,247.5c1-1.1,2.9-.9,7.3-3.1,4.6-2.3,14.4-1.3,19,1.2s8.2,6.9,9,12-2.1,12.5-6.7,15c-3.9,2.1-9,4.1-13.5,2.8-6-1.8-8.3-4.5-10.5-9.3-1.5-3.2-.9-5.6-.3-8.2.6-2.4,1.7-3.5,2-3.9,2.6-2.8,5.9-3.4,9.6-3.1,4.8.4,8.4,2.5,9.6,4.9,3.7,6.9-2.8,10.1-5,10.6-6,1.3-6.6-4.3-6-4.6"/>
      <path class="cls-10" d="M329.5,257.6c.2,2.6.2,5.6-.2,8.2-1.2,6.8-4.8,13.2-4.3,20.1.3,4.8,2.7,9.5,6.6,12.3s8.7,3.1,13.3,1.7c2.8-.9,3.7-.8,6.8-2.5,1.9-1.1,5.2-3.5,6.2-5.5,2.9-5.4,2.6-11.8-2.1-15.7-3-2.5-4.7-3-7.8-3.1-1.3,0-4.4,1.2-6.8,2.6-3,1.7-4.5,3.8-5.5,7.1-1,3.3.7,6.9,3.8,8.5,5.2,2.9,11.6-4.9,4.7-7.7"/>
      <path class="cls-10" d="M342.5,300.4c7.4,0,14.6.7,21.1,4.1,2.1,1.1,4.6,3.4,5.9,5.9,2.3,4.7,2.6,8.5.4,13.9-2,4.8-12.2,13.8-19.4,14.2-11.1.6-16.8-5.2-18.2-13.8-.9-5.5,1.2-8.3,3.9-11.1,3.4-3.6,11-5.8,16-4,6.4,2.2,6.9,9.6,5.1,14.3-2.3,5.9-13.3,5.4-11.1-3.3"/>
      <path class="cls-1" d="M369.8,324.5c-1.5,2.6-3.5,5.1-4.2,8-.3,1.1-.4,2.4,0,3.5s.8,1.5,2,1.6c.5-.5,1.6-1,2.3-1,0,.3-.5.8-.3.7"/>
      <path class="cls-7" d="M210.5,286.3c-6.2-.1-14.5-1.9-18.6-6.5-.1.2-.1.4,0,.6"/>
      <path class="cls-7" d="M213.3,295.6c-1,.7-17.2-1.2-21.9-3-11.5-4.5-18.4-12.1-21.9-17.1"/>
      <path class="cls-7" d="M208.6,318.1c-13.3-1.8-21.5-5.2-31.2-13.7-7-6.1-13.5-18.2-19.9-31.4.1.3,0,2.8,0,3.1"/>
      <path class="cls-7" d="M205.2,335.6c-34-8.6-44.2-27.1-51.5-47.3"/>
      <path class="cls-7" d="M196.2,345.8c-2.4,5-21.3.4-33.4-12.8-8.3-9-14.9-23.1-18.8-34.4"/>
      <path class="cls-7" d="M138.5,335c-5.4-5.9-9.9-12.9-12-24.4"/>
      <path class="cls-7" d="M157.6,344.7c-4.8-4.1-13-14.7-15.9-20.3-3.9-7.6-5-11.7-6.4-18.9"/>
      <path class="cls-15" d="M135.8,284.7s2.2-4,1.9-4c-1.5-5-2-14.2-.6-20.8"/>
      <path class="cls-15" d="M131.3,289.4c-2-11.8-2.5-23.7,1.6-34.8"/>
      <path class="cls-15" d="M123.1,294.3c-1.9-14.7-.8-30.3,5.6-43.4"/>
      <path class="cls-15" d="M112,299.1c-3.6-14.4,0-30.8,6.8-44.7-.4,0-2,0-2.4.1"/>
      <path class="cls-15" d="M102.7,297.6c-3.1-13.1.7-27.1,5.9-39.5-.2.7-3.1,1.4-3.3,2.1"/>
      <path class="cls-15" d="M91.1,289.8c-1.2-6.3-.8-10,0-12.8,3.2-12.2,7.1-16.2,8.4-16.9"/>
      <path class="cls-15" d="M81.8,275.1c.2-4.5,4.2-11.6,7.4-15.2"/>
      <path class="cls-6" d="M137.3,276.9c.4.8,1.3,1.3,2.2,1.3,0,0-.2.1-.4,0"/>
      <path class="cls-6" d="M136.8,278.4c0,1.4,0,2.9-.4,4.2"/>
      <path class="cls-6" d="M131.2,285.5c0,1,1.1,1.9,2.1,1.5,0,.1,0,.3-.2.3"/>
      <path class="cls-6" d="M130.2,286c.2.4.2.9,0,1.4,0,.4-.3.8-.5,1.1-.2.4-.4.8-.6,1.2,0,0,0,.1-.1.1s0-.1,0-.1"/>
      <path class="cls-6" d="M122.9,290.5c0,.3.1.7.4.9s.6.3.9.4c.5.2,1,.3,1.5.5"/>
      <path class="cls-6" d="M122.2,290.6c.2,1.4-.3,2.8-1.3,3.8"/>
      <path class="cls-6" d="M114.2,296.4c0,0,.1,0,.1,0s-.1-.1-.2-.1c-1.2,0-2.4-.8-2.8-2,.1.4-.5,1.3-.7,1.7-.6,1.1-1.5,2.1-2.7,2.8"/>
      <path class="cls-6" d="M102.3,295.7c.3,1.2,2.2,2.1,3.4,2.4"/>
      <path class="cls-6" d="M101.9,295.3c-.1.3,0,.7-.2,1,0,.2-.2.4-.3.6-.2.3-.4.7-.7,1-.4.6-.8,1.3-1.5,1.5"/>
      <path class="cls-6" d="M90.1,282.9l-.7,1c-.4.5-.8,1-1.3,1.3-.2-.2-.4-.4-.6-.5"/>
      <path class="cls-6" d="M83.1,268.9c-.4.3-.8.7-1.3.5-.4-.2-.8-.8-1.3-.5"/>
      <path class="cls-6" d="M207.6,283.3s0,0,0,0c-.6.7-.8,1.8-1.6,2,0,.1,0,.3,0,.4"/>
      <path class="cls-6" d="M209.1,295c.8-.4,1.6-.9,2.2-1.6.3-.3.6-.6.7-1.1s-.1-1-.5-1.1"/>
      <path class="cls-6" d="M208.2,286.8c.4.2.9.5,1.2.9s1.5.6,1.3,1.1"/>
      <path class="cls-6" d="M207.2,317.4c.8.3,1.6,0,2.2-.5.6-.5,1-1.3,1.3-2"/>
      <path class="cls-6" d="M209.6,295.8c.7.7,1.5,1.5,1.9,2.4s1.6,2.7,1,3.6"/>
      <path class="cls-6" d="M200.8,333.8c.7,0,1.4-.1,2-.5s1.9-.5,1.8-1.1"/>
      <path class="cls-6" d="M206.9,317.9l.9,1.3c.2.3.4.7.6,1,.4,1.2-.2,2.5-.9,3.6"/>
      <path class="cls-6" d="M200.3,334.8c1.1,1,1.4,2.9.6,4.2"/>
      <path class="cls-6" d="M188.8,347.9c.5,1.3.5,2.8,0,4"/>
      <path class="cls-6" d="M289.3,340.2c0,0-.2,0-.2.1s0,.2.2.2c.5.4,1.1.8,1.4,1.4s1.7,1.4,1.2,1.9"/>
      <path class="cls-6" d="M287.1,353.6c-.1-.1-.4,0-.4,0,1.2.5,1.9,2.1,1.3,3.3"/>
      <path class="cls-6" d="M290.3,319.4c0,.2.4.2.4,0s0-.4-.2-.6c-.7-.9-2.7-1.4-2.4-2.7.1-.5.9-1,1.2-1.5.4-.6.5-1.4.6-2.1-.1,0-.2,0-.4-.1"/>
      <path class="cls-6" d="M279.2,289.9c.6,0,1.2,0,1.7.4s1.7,0,1.5.6"/>
      <path class="cls-6" d="M278.6,289c.5-.2.8-.6,1-1.1s.2-1,.2-1.5c0-.5,0-1-.1-1.5"/>
      <path class="cls-5" d="M111.7,226.4c-3-.1-6.1-.3-9,.2s-5.9,1.8-8,3.9-4.1,5.9-2.2,8.4c2.2,2.8,5.2,3.8,8.1,2.5,1.8-.8,2.5-1.3,3.3-2.9.7-1.3.7-3.1.4-4.6-.4-1.6-1.8-2.5-3.9-2-1.7.4-2.9,3.9-.3,4.9"/>
      <path class="cls-5" d="M111.4,225.4c-3-.2-6.1-.2-9.1.2-1.8.2-3.6.6-5.3.3-1.1-.2-2.2-.6-3-1.3-1.6-1.3-1-3.6.3-4.9.7-.8,1.9-1.1,2.9-1.4,1.8-.4,3.7,2.2,2.7,3.8-.6,1-2.2,1.3-3.1.5"/>
      <path class="cls-5" d="M97.6,228.3c-3.5,1.7-6.4,3.8-9.5,6.2-1.7,1.3-6.1,1.1-7-1.4-1.8-4.7,2.9-6.7,5.5-6.7,1.4,0,3,2.6,1.7,4.1-.9,1-2.5.8-3.7.5"/>
      <path class="cls-45" d="M470.8,125.1c.5-.8.8-1.6.8-2.5,0-1.5-.2-2.9-.7-4.3,0-.2,0-.3,0-.5,0-.6,0-1.2-.2-1.7,0-.8,0-1.6-.1-2.4,0-1.4-.6-2.4-1.3-3.3,0-.6-.1-1.1-.2-1.7-.1-1.3-.6-2.3-1.4-3.1-.3-1.6-.7-3.3-1.2-4.9-.2-.8-.6-1.5-1.1-2.1,0-.3,0-.5,0-.8,0-.3,0-.6-.1-.9-.1-.7-.4-1.3-.9-1.8-.2-.4-.5-.7-.9-1-.5-.5-1.1-.8-1.7-1-.5,0-.9-.2-1.4-.2-.4,0-.8,0-1.1,0-.8,0-1.6.2-2.4.6-.4.3-.7.5-1.1.8-.6.6-1,1.2-1.3,2-.3.4-.5.8-.7,1.2-.9,1.5-1.8,3-2.8,4.4-1.3.5-2.4,1.5-3.1,3.1,0,0,0,0,0,.1-.5.2-.9.5-1.3.9-1.2,1.2-2.4,2.3-3.6,3.5-.5.5-.9,1-1.1,1.5-3.4,3.5-6.5,7.3-9.5,11.2-2.4,2.6-4.5,5.5-6.2,8.6-.8,1.1-1.6,2.3-2.4,3.4-.7,1.1-.9,2.2-.8,3.3,0,0,0,0,0,.1-.1.3-.3.7-.4,1-1,2.1-.6,4.1.5,5.6-.2,2.6,1.4,4.2,3.4,4.8-.4,2.6-.7,5.2-1.1,7.8-.4,2.5,2.1,4.9,4.4,5.2,2.8.4,4.8-1.1,5.8-3.6.2-.5.4-1,.5-1.5.1-.2.2-.4.3-.7.5.1,1.1.2,1.7.2.3.2.7.3,1.1.4,1.4,1.4,3.8,1.8,5.9,1,.9,2,2.6,3.2,4.6,3.2,1.4.6,2.9.7,4.2.1.9-.2,1.9-.6,2.6-1.3.2-.1.3-.3.5-.4,1.2,0,2.3-.6,3.2-1.5.6-.4,1.1-.9,1.5-1.7.5-.9.9-1.7,1.4-2.6.2-.2.5-.4.7-.6.3-.3.5-.6.8-.9.9-.6,1.6-1.4,2-2.5.5-1.5.9-2.9,1.2-4.4,0-.3,0-.6,0-.9.5-.5.9-1.2,1.2-2,1.2-4,2-8.1,2.6-12.2.2-1.2,0-2.2-.6-3,0-.7.1-1.4.1-2.1h0s0,0,0,0h0Z"/>
      <path class="cls-33" d="M410.6,114.1c.3-3.1.4-6.2.1-9.4,0-.6-.2-1.2-.4-1.8-.3-2.9-1-5.6-2.4-7.4,0-.3-.1-.6-.2-.8,0-.2,0-.5,0-.7,1.1-6.4-8-9.7-10-3.1-.4,1.2-.6,2.3-.7,3.4-1.1.3-2.3.9-3.1,2.1-1.5,1.9-2.5,4.1-3.6,6.2-.9.6-1.6,1.4-2.2,2.5-1.6,3.7-5.1,6.2-7.1,9.7-1.4,2.4-2.9,4.6-3.3,7.3-.8,1.1-.8,2.8-.6,4.1,0-.6-.1-1.5,0-2.1.1-1.1,0,0,0,0,.2-.8.1-2.1-.2-3.1-.8-2.1-1.5-3.1-3.4-4.7-1.7-1.5-3.5-3.6-5.5-4.7-1.6-.8-3.2-1.5-4.8-2.2-2-.9-4.1-1-6.3-1.2-.5,0-1.2-.2-1.5.1-.3-.2-.8-.2-1.1-.4-.6-.3-1.4-.2-2.1-.2s-.2,0-.3,0c-.2,0-.4,0-.6,0h-.2c-.7,0-1.4,0-2,.4-.6.2-1.6-.1-2.1.3-.5.4-2.9,0-3.1.6-.3.6,0,1.8.9,3.2,0,.5,1.2,1.4,1.2,1.9.2.9.6,1.7,1.3,2.3h.1c.3.4.6.8,1,1,2.9,4.7,5.5,9.6,7.9,14.6.2.4.5.8.8,1.1.1.5.3,1.1.5,1.6h0c.1.4.3.8.5,1.2.2.4.5.9.8,1.2,0,0,0,0,.1.1.7.8,1.8,2.1,2.7,2.3.4,0,.8,0,1.2,0,.5,0,.6-.9,1-1,.9-.2,1.7-.6,2.3-1.3.3-.4.6-.7.8-1,.4-.6.6-1.3.7-2.1.4-.9.7-1.8.8-2.7.8.2,1.5.3,2.3.2,3.6.8,6.9-1.9,6.5-5.5.1.5.4.8.4,1.4,0,.4,0,1.2.3,1.6,1.6,2.4,5.7.6,8.3,2,1.7.7,3.5,1.5,5.3,1.9,1.7.4,3.5.5,5.2.4.7.4.2.6.3.6,1.7.4,2.8-.3,4.5-.6,2.1-.2,3.9-1,5-3.1l.7-1.4c0,0,0-.2.1-.2.6-.8,2-2.6,2.4-3.8.8-2.8.9-5.9,1.3-8.8.1-.9,0-1.8-.4-2.5h0s0,0,0,0h0Z"/>
      <path class="cls-23" d="M501.3,294.8c-.4-1.9-.3-3.4-.2-5.2,0-1.2-.3-2.4-1.1-3.2.7-1,.9-2.4.5-4-1.2-4.7-3-9.1-5.2-13.4-.4-.7-.9-1.3-1.3-1.7-2.5-3.7-5.7-6.8-10-8.9-1-.5-2.2-.7-3.3-.6-3.3-.4-6.7,2.7-5.9,6.4.2.8.3,1.6.5,2.4-.8.6-1.5,1.5-1.8,2.8-.4,1.5-.7,3-1.1,4.4-.4,1.3-.7,2.5-1.2,3.7-2.7,1.5-4.3,2.1-4.8,4.6-.9-.4-1.6.9-2.7.6-2.7-.6-4.6.6-6.9.7-1.1,0-3.8-1.1-3.7-.1-.9-.8.2,1.1-.9.5-5.2-2.8-6,4.5-9.8,7.1-2.1,1.4-3.9,2.5-5.3,4.6-.7,1-1.4,2-2,3-2.1.5-4,2-4.4,4.7-.1.9-.2,1.9-.4,2.8,0,.4,0,.7,0,1-.7,5.5-2,10.8-1.5,16.6.3,3.2.5,6.4,1.2,9.5.7,3.5,2.4,6.5,3.3,9.9,1.5,5.7,8.5,4.6,10-.1.9-.6,1.7-1.4,2.2-2.6.6-1.5,1.4-2.9,2.1-4.3.7-.4,1.3-.9,1.8-1.7,3.5-5.1,6.8-10.4,9.8-15.8,1-1.7,1.5-3.2,1.6-4.5.7-.7,1.2-1.6,1.5-2.5.5-1.6.7-3.4,1-5.1.2-1.1-.2-2.2-.9-3,0-1,0-1.9-.2-2.8,2,3.5,3.9,6.9,6.1,10.2,5.3,7.8,13.3,13,18.9,20.4,2.7,3.5,9.3.9,9-3.4-.4-5.3-.3-11.5,1.2-16.7,1.1-3.8,1.5-7.1,1.5-10.8,1.6-1.1,2.6-2.9,2.2-5.3h0s0,0,0,0Z"/>
      <path class="cls-16" d="M331.6,195.3c8.9-1.3,17.7-3.4,26.3-6.4,2.3-.8,5-2,5.5-4.4"/>
      <path class="cls-16" d="M325.2,208.5c14.8-2.8,35.4-6.6,50.2-9.4,2.4-.5,7.9-2.1,10-3.4"/>
      <path class="cls-16" d="M335.3,214.9c23.8-1.3,47.6-3.9,71.1-8"/>
      <path class="cls-16" d="M344.6,226c25.9,0,52.2-1,77.4-7.6"/>
      <path class="cls-16" d="M366.1,236.4c14.6.1,29.1-.2,43.7-1,9.5-.5,19-1.2,28.2-3.9"/>
      <path class="cls-16" d="M386.1,253.4l64.2-3.9"/>
      <path class="cls-16" d="M396.5,267.2c19.7-.4,39.5,0,59.2-.7"/>
      <path class="cls-16" d="M404.4,285c15.9.4,32.2-.5,47.9-3.4"/>
      <path class="cls-16" d="M410.7,298.1c7.2-.6,14.4-1.1,21.6-1.7"/>
      <path class="cls-16" d="M412.3,305c3.3.1,6.6,0,9.9-.3"/>
      <path class="cls-16" d="M244,276.5c9.7,6.7,28.4,14.4,39.6,17.8-.5,0-6-2-6.5-2"/>
      <path class="cls-16" d="M234.7,278.9c3.2,4.3,7.6,7.7,11.6,11.2,4.6,4,9.1,7.9,13.7,11.7,8.4,7,20,16.6,30.6,20.1-1.4-.3-5.5-2.6-6.9-2.9"/>
      <path class="cls-16" d="M227.8,281.7c13.9,26.8,36.1,50.4,65.2,59.2"/>
      <path class="cls-16" d="M230,309.7c17.3,18.8,35.5,38.1,60,47.8"/>
      <path class="cls-16" d="M227.1,329.9c14.6,13.1,30,25.6,47.7,34.2"/>
      <path class="cls-16" d="M216.3,338.7c7.5,11,18.8,18.6,30,25.4"/>
      <path class="cls-16" d="M216.1,351.4c2.2,5.4,6.3,8.7,9.7,13"/>
      <path class="cls-16" d="M210.4,317.7c-5.6-11.1-9.9-22.9-12.7-35"/>
      <path class="cls-16" d="M201.8,340.1c-2-2.1-3.1-4.9-4-7.6-5.7-16-11-35.9-11.5-52.9"/>
      <path class="cls-16" d="M194.7,347.1c-8.9-21.7-15.5-45.2-18.1-68.6"/>
      <path class="cls-16" d="M188.1,352.7c-10.4-19.5-17.7-41.7-18.8-63.9-.2-4.4-.5-9,.3-13.3"/>
      <path class="cls-16" d="M176.3,352.6c-10.8-20.1-18.5-41.8-22.7-64.2.4,1.5.7,3,1.1,4.5"/>
      <path class="cls-16" d="M166.6,348.8c-10.2-12.6-23.1-28.9-24.6-45.3"/>
      <path class="cls-16" d="M148.9,342.8c-7.4-10.8-13.2-22.7-17.2-35.1.3,1,.6,2.1.9,3.1"/>
      <path class="cls-16" d="M132.9,332.7c-4.7-6-7.2-13.5-8.9-20.8"/>
      <path class="cls-16" d="M144.8,264.5c-8.2,6.9-14.1,16.5-16.8,26.9"/>
      <path class="cls-16" d="M136.2,263.6c-10.7,10.7-21.8,21.4-28.4,35.2"/>
      <path class="cls-16" d="M134.4,258.9c-10.2,9.7-27.3,24.9-33.1,38.1"/>
      <path class="cls-16" d="M119,257.4c-8.5,10.4-19.1,24.3-25.2,36.4"/>
      <path class="cls-16" d="M108.1,258.6c-5.5,5.7-10.3,12.1-14.1,19.1-2.4,4.4-4.4,9.1-4.2,14.1,0,.3,0,.6.4.7s.2-.6,0-.4"/>
      <path class="cls-16" d="M82.9,275.7c5.2-5,8.6-10.1,14.9-13.7-.8-.2-1.4-.6-1.9-1.2"/>
      <g>
        <path class="cls-43" d="M.1,503.9c1,.4,1,1.3,1,2.2-.5,0-1.3.3-1.1-.8,0-.4,0-.9,0-1.3Z"/>
        <path class="cls-48" d="M393.1,140.1c-3.3.2-8.3-1.8-11.7,0,5.4,4.7,17.5,3.1,24.2,2.8,1.2,0,7,.8,5-1.9-1.4-1.9-11.3-.3-13.5-.2-.9-6.4,7.1-6.3,11.8-5.2,6.5,1.6,11.7,7.2,14.1,13.2,4.8,11.9.9,28.5-8.8,36.9-17.3-11.2-35.4-20.5-56-24.1-5.9-20,20.5-41.4,35.3-22-.1.2-.3.4-.4.7h0Z"/>
        <path class="cls-41" d="M395.1,327.4c8-20.9-7.7-47.2-21.4-62.1-15.5-16.9-38.1-31.9-62.1-29.8-2.9.2-10.4,7.2-12.8,5.1-3.1-2.7-1.3-14.5.7-16.1,9.3-7.3,28.4-2.3,38.6,1.1,21.6,7.1,41.3,22.7,54.7,41,7.6,10.3,13.4,22.1,15.9,34.7,1.5,7.9,1.6,33.1-13.7,26.2h0Z"/>
        <path class="cls-51" d="M456,223.4c9.5-3.3,11.1-5.8,11.2-17.2,6.3,1,17.9-8.4,24-8.7,5.7-.9,4.9.9,8.4,4,19.3,12.3,14.1,39.3-1.9,51.2-6.1,4.5-21.4,7.8-26-.7-2.5-4.7-3.9-10-6.6-14.8-2.8-4.8-6-9.4-9.1-13.9h0Z"/>
        <path class="cls-25" d="M300.7,366c-4.5,3.3-15.4,1.3-12.7-3.6,8-15,7.6-42.3,3.6-57-2.5-9.5-6.3-18.6-12.5-26.4-5.7-7.1-12.4-7.9-19.9-10.5-2.7-.9-5.5-2.3-1.2-8,5.9-7.7,21.8,0,27.3,5.5,9.3,9.3,16.5,21.3,20.2,33.8,3.9,13.5,6.3,29.2,4.8,43.2-.6,5.6-3.8,18.6-9.6,23h0s0,0,0,0Z"/>
        <path class="cls-24" d="M178.9,354c16.2,4.8,28.3-20.1,32.2-31.7,2.6-7.7,4.5-15,3.9-23.2-.6-9.3-4.1-15.6-11.6-20.8,1.3-6.2,12.9-6,17-3.5,4.5,2.8,6.8,8,8.2,12.8,3.6,12.4,1.1,27.4-2.6,39.5-3.5,11.4-10.3,25.1-19.6,32.9-4.5,3.7-10.5,6.9-16.5,6.5-8.6-.8-13.9-6.8-11-12.6h0Z"/>
        <path class="cls-40" d="M94.4,298.2c6.4,2.1,12.1,3.1,18.8,1.2,5.6-1.7,10.7-4.8,15.5-8.2,10.7-7.6,14.1-17.7,14.7-29.6,10-6.3,17.5,7,13.3,17.6-2.6,9.2-10.6,17.5-17.9,23.2-7.4,5.8-17.4,11-26.8,12.6-12.7,1.7-23.4-6.3-17.7-16.7h0,0Z"/>
        <path class="cls-47" d="M338.4,146c3.2,2,14.3,2.6,16.9-1.3,1.1-1.6,1.2-1.8-.8-2-3.1-.3-6.7,3-10.2,2.7,2.8-4.3,8.4-9,13.8-6.6,1.8,1.3,3-1,1.8,5.5-.2,1.2-1.7,4-2.5,7.9-1.1,5.1-1,8.6-2.1,8.9-.8.2-3.6-.5-3.7-.5-2.2-.3-4.1-.3-6.6-.1-3.2.2-2.7-.2-5.4.1-3.1.4-6,4.8-8,2.6-3.3-3.7-8.4-7.8-12.7-5.8,0,0-.1,0-.1,0-.3-.2-1.3-11.7,4.7-16.1,2.4-1.8,8.2-2.2,12.2-1.3,1.9.4,6.1,4.2,6.9,4.9-1,.4-2.6.6-3.9,1.1h0s0,0,0,0Z"/>
        <path class="cls-20" d="M73.8,235.8c4.2,12.2,19.3,13.2,30.3,9.6,3.1-1,5.7-2.8,8.3-4.8,1.7-1.3,4.2-5.1,6-5.9,5.4-2.2,7.7,9.2,6.2,12.3-5.4,11-28.6,13.5-39,12.5-6-.6-13.4-3.7-16.7-9.4-2.4-4.1-.9-13.4,5-14.5h0Z"/>
        <path class="cls-29" d="M437.9,178.4c-13.6-.5-12.2-22,1.4-21.2,13.6.9,12.2,21.7-1.4,21.2Z"/>
        <path class="cls-3" d="M301.7,184.4c13.7.3,13.5,21.4-.3,21.1-13.5-.3-13.3-21.4.3-21.1h0Z"/>
        <path class="cls-8" d="M282.8,188.9c-13.5-.3-13.2-21.3.4-21.1,13.4.3,13.2,21.4-.4,21.1Z"/>
        <path class="cls-4" d="M289.5,190.7c-1.3,4.9-.2,9.1,2.7,12.6-3.5,9.4-16.5,10.7-20.5.8-1.6-4-1-10.4,2.9-13.1,2.6-1.8,2.5-.8,5.6-.3,3.2.5,6.1-.1,9.3,0h0Z"/>
        <path class="cls-37" d="M451.2,178.5c13.2.4,13.2,20.4.4,21-14,.6-14.5-21.4-.4-21h0Z"/>
        <path class="cls-27" d="M472.5,204.7c-12.9-.2-13.2-19.8-.5-20.9,14-1.1,14.8,21.1.5,20.9Z"/>
        <path class="cls-35" d="M450.9,176.1c.2-6.1,0-12.3,6.5-14.9,5.6-2.2,12.1.5,14.2,6.2,1.8,5-.8,11.6-6,13.6-5.2,2-9.1-4.4-14.7-4.9h0Z"/>
        <path class="cls-18" d="M315.8,174.2c.4,12.3-21.8,11.9-21.1-1.4.8-13.6,21.5-12.1,21.1,1.4Z"/>
        <path class="cls-11" d="M286.4,213c1,5.5,5.1,10.9.3,15.4-4.4,4.1-11.2,3.5-15-1-3.1-3.7-3.7-10.9.2-14.6,2.6-2.4,2.8-.9,6,0,3,.9,5.6,0,8.6.1h0s0,0,0,0Z"/>
        <path class="cls-39" d="M426.8,173.2c3.1,5.2,7.2,8.1,13.3,8.5-1.6,4.2-2.7,8.3-.4,12.8-3.3.9-5.7,1.9-8.6,3.7-4.7-3.6-9.5-7.3-14.4-11.1,5.4-4.6,7.6-7.2,10.1-13.8h0,0Z"/>
        <path class="cls-30" d="M465,211.5c-.3,4.4-4.8,10.5-9.9,9.5-3.2-.6-10.4-8.8-10.5-11.8-.6-11.6,21.3-10.8,20.4,2.3h0Z"/>
        <path class="cls-28" d="M486.3,195.5c-1.3-5-3.6-12.5,1.5-16.3,3.7-2.7,9.5-1.7,12.6,1.3,3.5,3.2,4.2,8.4,1.7,12.4-3.9,6.1-9.9,2.8-15.9,2.7h0Z"/>
        <path class="cls-34" d="M82.3,191.8c5.1,5.6,14.3,9,21.1,11.9,2.6,1.1,9.1,2.7,10.5,5,1.7,2.9-2.3,7.5-5.2,8.1-5.8,1.2-17.7-7-22.6-9.5-7.8-3.4-13.4-11.4-3.8-15.5h0Z"/>
        <path class="cls-9" d="M295,205.7c5.6,3.3,12-.7,14.6,6.5,2.7,7.4-3.1,7-8,10.3-2.6,1.8-2.8,3-5.9,2.2-1.9-.5-4.1-2.9-5.1-4.5-3.5-5.8.2-10.7,4.4-14.6h0Z"/>
        <path class="cls-2" d="M323.6,178.9c.9,3.6,2.9,6.8,7.5,7.7-.9,3.3-2.2,9.9-5.5,11.6-3.2,1.7-8.4-.4-10.5-3-1.9-2.6-2.8-8.3-1.6-11.2,1.9-4.7,5.5-5.1,10-5h0Z"/>
        <path class="cls-22" d="M480.9,184.1c-1.2-5.2-4.2-6.8-8.9-7.9.1-3.8-.4-9.1,2.9-11.6,2.5-2,7.3-3.3,10.3-2.4,3.9,1.2,11.3,8.7,8.7,13.3-2.3.5-9.5,3.1-13,8.7h0Z"/>
        <path class="cls-12" d="M315.1,198.2c3.1,2.4,6.5,2.6,10.1,2.5-1.6,4-6.9,18.8-12.1,17.3-.8-1-2-8.5-1.9-10.1.2-3.3,2.6-6.8,3.9-9.8h0Z"/>
        <path class="cls-13" d="M295.3,228.4c-.5,5.6-.1,8.6,1.7,14-1.9,1.5-4.2,3.3-6.5,5-7.9-4.5-5.8-22.4,4.7-19h0Z"/>
        <path class="cls-46" d="M446.1,201.1c-1.4,2.3-2.6,4.4-4.1,6.9-2.9-2.6-5.8-5.2-8.9-8,5-4.9,8.4-2.4,13,1.1h0Z"/>
        <path class="cls-19" d="M329.8,163.8c-2.2,2.7-2.7,3.3-4.2,6.3-1,1.8-4.6,3.3-8.4-1-3.7-4.3-.9-9.2,2.5-11.4,4.5-2.9,11.7,3.8,10.1,6.1h0Z"/>
        <path class="cls-26" d="M128.1,170.9c-1.8,2-4.4,4.3-6.1,6.2-2.6-3.5-7-8.6-9.8-11.9,5.1.2,12.1,2.5,15.9,5.7h0Z"/>
        <path class="cls-52" d="M478.8,184.3c-4-1.5-9.5-.9-11.6-2,6.5-10.5,11.9-7.3,14.2-.6,2,5.8-1,3.2-2.7,2.6h0s0,0,0,0Z"/>
        <path class="cls-50" d="M294.3,185.5c-.2-1.1-.3-5.1.7-5.1.2,0,3.1,2.6,3.1,2.6-.4.4-3.2,2-3.8,2.4h0,0Z"/>
        <path class="cls-32" d="M471,263.2c0-.5-.1-1-.2-1.5-.1-1-.4-2-.7-3,0-.1,0-.2-.1-.3-.1-.7-.3-1.3-.4-2-.1-.8-.3-1.5-.5-2.3-.3-1.4-1-2.4-2-3,0-.2-.1-.5-.2-.7,0-.2,0-.4,0-.6,0-.6,0-1.1-.3-1.8-1.5-4.6-3.4-8.8-6.1-12.9-.5-.7-1-1.2-1.6-1.6-.2-.4-.5-.8-.7-1.1-.9-2-2-3.9-3.2-5.7-.6-.8-1.2-1.4-1.9-1.8-.3-.5-.6-1.1-1-1.6-.6-.9-1.3-1.6-2-2-.2-.5-.5-1-.9-1.3-.3-.8-.7-1.7-1.1-2.5-.8-1.6-2.3-2.4-3.9-2.5-.2-.3-.4-.6-.6-.9h0c-.4-.9-.9-1.5-1.5-2-.6-2.4-2.3-3.5-4.1-3.8-1.4-1.4-2.8-2.7-4.3-3.9-.3-.4-.7-.7-1.1-1.1-.1,0-.2-.2-.3-.3-.7-.6-1.4-1.3-2.2-1.9-.5-.4-1-.7-1.5-.8-.1-.1-.3-.2-.4-.3-.5-.6-1.1-1.1-1.7-1.7-.5-.4-1.1-.8-1.7-1-.6-.6-1.3-1.1-2-1.6-.6-.6-1.3-1.2-2.1-1.8-.2-.2-.5-.4-.7-.6-1.2-1.5-2.6-2.7-4.3-3.9-.2-.1-.4-.2-.5-.3-3.5-2.9-7.1-5.5-11.5-7.4-10.1-4.3-19.4-10.1-29.9-13.7-8.6-3-18.3-6.7-27.3-4.6-2.2,0-4.4.3-6.9.5-4.6.4-8.5,3.3-11.1,7-2.5,3.5-4.1,8.9.3,11.6,3.4,2.2,8-.4,11-2.6.7,0,1.4-.1,2.1-.3.6-.1,1.2-.3,1.8-.3.3.3.7.5,1,.7,1.5,1.1,3.4,1.1,4.9.2.1,0,.3,0,.4,0,1.2.3,3.2.5,4.1,1.2,1.5,1.1,3.1,1.2,4.4.7.5.2,1.1.4,1.6.5.8.8,1.9,1.3,3.4,1.3h.2c.6.2,1.2.4,1.8.7,1.1.4,2.1.5,2.9.3,2.3.8,4.4,1.9,6.6,3,3.9,1.9,7.9,3.7,11.7,5.6h0c.2.5.6.9,1.1,1.3.9.7,1.7,1.3,2.6,1.8.2.2.5.4.8.7,2.1,1.7,4.9,1.7,7.1,3.3,1.2.9,2.4,1.1,3.5.9.3,1.5,1.5,2.7,3.5,3.1,1.2.2,2.3.4,3.5.6.2.9.7,1.7,1.6,2.5,4.3,3.7,8.1,7.7,11.5,12.2,1.5,2,3.8,2.1,5.6,1.2.5.4.9.8,1.4,1.2,0,0,0,.1,0,.2.4.9,1,1.6,1.7,2,.1.2.3.4.4.7.4.5.8.9,1.2,1.3.2.3.4.6.7.9.2.3.5.6.8.8,0,0,0,.1.1.2.5.8,1,1.6,1.4,2.4.5.9,1,1.6,1.7,2,0,.1.2.2.2.3.6.9,1.3,1.8,1.9,2.7.4.6.9,1.1,1.4,1.4,1.4,2.1,2.8,4.2,4.2,6.3.6.9,1.4,1.6,2.2,2,0,.2.2.4.2.6,0,.2.1.4.2.5.6,1.4,1.1,2.9,1.7,4.3.5,1.2,1.2,1.9,2.2,2.3.6,1.1,1.3,2.1,2,3.1,0,.6,0,1.1.1,1.8.6,2.6,1.5,5,2.8,7.4.1.3.3.5.5.7.5,3,.2,5.8-.9,9-2,5.8,6.2,8.9,9.2,4.5,1.4-.4,2.6-1.5,3.3-3.4.4-1.3.7-2.5,1-3.8.1-.2.3-.5.4-.8.9-.8,1.4-2,1.4-3.6s0-3.3-.1-4.9h0s0,0,0,0h0Z"/>
        <path class="cls-43" d="M450.9,161.2c-.4.1-.7.3-1,.4-.3-.5,0-.9.8-.9,0,.2.2.4.2.6h0Z"/>
        <path class="cls-44" d="M310.1,203.3c.8.3-.5,5-1.1,5.7-1.9-.3-.8-4.9,1.1-5.7Z"/>
      </g>
      <path class="cls-42" d="M499.9,198c-.3,0,0-.8,1.1-1.3,0,0,3.3-3.2,3.6-4.3,1.3-4,2.7-7.6-1.6-13.2,0-.1-.2-.2-.3-.3-1.6-1.4-5.2-3.5-7.5-3.7,0,0,2-4.5-2.1-9-1.8-2-4.1-3.5-7.8-4.6-3.6-1.1-7.6.4-8.8,1.4-3,2.8-4.5.9-7.4-1.9-1.3-.7-3.1-1.7-4.7-2.1-.6-.1-1.5-.2-1.6-.3-.7-.4,6.5-11.8,8.1-17.9,1.5-5.6,3.6-18.2.9-29.8-1.2-5.3-3-10.4-5-15.5-1-2.4-2-6.3-3.7-8.3-2.3-2.6-1.6-1.8-3.9.2-3.2,2.7-6.2,9-9.2,12.1-2.4,2.5-4.8,4.9-7,7.5-5.1,6.1-11,11.8-15.8,18.3-2.9,3.9-4.6,9.5-7.6,12.9-3.1-3.2-7.2-4.5-11.4-5.5,3.2-7.9,5.4-15.3,4.5-24-.4-4-1.3-8-2.5-11.9-1.1-3.5-2.2-10.3-4.6-13-2.6-2.9-3.3-.6-5.3,2.3-2.7,3.8-5.2,7.7-7.9,11.5-2.6,3.7-5.4,7.3-8,11-2,2.8-3.9,7.7-6.7,9.7-9.3-11.9-26.4-12.7-35.4-9.9,1.8,4.2,5,8.1,7.1,12.3,2.4,4.8,4.5,9.7,7.2,14.3.4.7,1.1,1.7,1.8,2.8-3.8-1.5-8.6-.8-14.1,3.2-.7-5.4-2.4-9.7-6.9-12.7l-4.4.4c.1.2.2.4.3.6.1.1.2.2.3.3,1.4.3,4.4,1.2,6.5,4.3,1.3,1.9,1.9,4.2,1.7,6.9,0,0-.5.1-1,0-2.7-1.6-5.5-3-8.3-3.6-.1,0-3-1.2-10,2.3-6,3.1-7.2,12-5.3,18.6-1.3.5-3.1,6-5.2,4.9-3.1-1.6-9.6-1.9-11.9-.8-5.1,2.5-6.4,5.5-7.1,7.4-5.5-4.7-13.2-6.1-18.8-.5-5.5,5.5-3.4,12.8.4,18.6-6.9,6.3-7.6,13.4-2.5,21.1-10,10.5-2.9,26.9,12,23.9-1.9,6.6.5,10.6,3.4,16.4-3.7,2.1-7.6,5.5-11.9,5.2-4.3-.3-7.4-2.7-12-1.7-9.4,2-9.9,9.1-11.9,16.6-3.4,3-11.7,3.8-16.1,4.7-5.6,1.1-8,2-12.4-1.2-7.7-5.8-20.6-5.3-23,5.8-11.7-1.1-23.6-2.3-34.8-6.3-7.6-2.7-6.4-12.8-15.6-14.7-3.9-.8-7.4,1.6-10.9.4-2.9-1-10-7.5-10.5-10.6-.8-4.6,1.6-7.9-1.8-12.2-2.7-3.4-6.4-4.2-10.5-4.3-1.6-5.5-3.9-9.1-1.1-13.9,1.9-3.3,4-6.1,1.8-10.1-1.2-2.2-3.3-2.9-3.9-5.3-.5-2.2,1.5-6.2,2.3-8.2,1.5-3.9,3.3-7.7,6.2-10.5,2.9-2.8,6.2-5.7,9-9.2,3.5-4.5.4-6.8-4.3-9.3-4.2-2.2-22.6-6.2-18.5,3.3-8.8,5.4-15.5,12.9-20.5,21.9-8.7-1.7-15.7,5.2-11.6,14.1,1.3,2.9,2.3,2.6,2.3,5.9,0,2.2-1.3,5.4-1.7,7.6-.9,5.1-1.1,10.2-1.7,15.4-12.8,5.7-11.3,17.7-1.6,25.9,5.3,4.5,6.4,13.3,9.3,19.6,2.9,6.4,6.7,12.4,10.3,18.3-2.6,8.4-1.4,15.9,7.3,20,3.8,1.8,7.6.9,11.3,2.1,3.9,1.2,7.9,5.7,11.3,8.1,16.4,11.6,34.4,19.6,53,27-.3,10.2,6.5,16.8,17,16.3,5.1-.3,9.6-2.4,13.8-5,5-3.1,7.8-1.9,13.7-1.1,11.2,1.5,22.6,1.9,33.9,2,5.6,0,11.2-.1,16.7-.5,4.6-.3,10-2,13.9.6,3.6,2.4,4.9,4.5,9.8,4.5,3.8,0,7.5-1.3,10.5-3.8,2.9-2.4,4.2-6.1,7.7-8,4-2.1,13.1-4.4,17.5-5.6,22.1-6.2,40.3-13.7,60.9-23.7,6,4.5,12.7,4.7,18.3-.8,5.1-5,3.2-11.3,6.3-16.8,1.5-2.6,5.6-4.4,8-6.2,2.1-1.5,4.3-3.1,6.4-4.8-1.5,4.4-2.3,9.2-2.4,13.9-.2,7.3,1.1,14.7,3.1,21.7.9,3.1,3.5,15.9,6.9,16.9,2.8.8,10.9-14.3,12.5-16.8,4.4-6.5,9.1-12.9,12.3-20.1,1.1-2.5,2-5.1,2.6-7.8,3.1,4.4,5.1,7.1,5.5,7.8,2.9,4.4,24.2,25.8,26,18.5,3.4-13.5,5.9-29.3,6.7-43.2.8-13.6-3.7-23.3-13.4-32.5,1.6-1.9,4.9-2.7,7-4,3-2,5.8-4.3,8.3-6.9,4.4-4.7,8-10.5,9.6-16.8,3.4-13.8-5.3-31.9-14.2-33.5h0s0,0,0,0h0ZM500.5,180.5c3.5,3.2,4.2,8.4,1.7,12.4-3.9,6.1-9.9,2.8-15.9,2.7-1.3-5-3.6-12.5,1.5-16.3,3.7-2.7,9.5-1.7,12.6,1.3h0ZM477,164.9c2.5-2,5.8-2.2,8.8-1.3,3.9,1.2,10.1,7.1,7.5,11.7-4.2,0-8.1,1.5-10.9,6.3-1.2-5.4-5-6-9.4-5.9,1.2-4.7.7-8.4,4-10.9h0ZM451.2,178.5c13.2.4,13.2,20.4.4,21-14,.6-14.5-21.4-.4-21h0ZM437.9,178.4c-13.6-.5-12.2-22,1.4-21.2,13.6.9,12.2,21.7-1.4,21.2ZM440.1,181.7c-1.6,4.2-2.7,8.3-.4,12.8-3.3.9-5.7,1.9-8.6,3.7-4.7-3.6-9.5-7.3-14.4-11.1,5.4-4.6,7.6-7.2,10.1-13.8,3.1,5.2,7.2,8.1,13.3,8.5h0,0ZM446.1,201.1c-1.4,2.3-2.6,4.4-4.1,6.9-2.9-2.6-5.8-5.2-8.9-8,5-4.9,8.4-2.4,13,1.1h0ZM465,211.5c-.3,4.4-4.8,10.5-9.9,9.5-3.2-.6-10.4-8.8-10.5-11.8-.6-11.6,21.3-10.8,20.4,2.3h0ZM472,183.8c14-1.1,14.8,21.1.5,20.9-12.9-.2-13.2-19.8-.5-20.9h0ZM481.6,184.8c-8.1-3.7-11.3-1.8-14.3-2.4,9.1-11.2,14.8-1.5,14.3,2.4ZM471.6,167.3c1.8,5-.8,11.6-6,13.6-5.2,2-9.1-4.4-14.7-4.9.2-6.1,0-12.3,6.5-14.9,5.6-2.2,12.1.5,14.2,6.2h0ZM460.4,157.4c-2.1.6-4.1,1.2-6,1.9-1.4.5-5.1-.3-6.9,0,2.8-5.1,15.9-15.4,19.9-15.9-.2,5.7-4.9,9.1-7,14h0ZM467.5,142.7c-.4-1-9.6,3.1-11.2,4.4-3.4,2.7-7.3,8.4-11.5,9.5,1.4-5.7,3.4-14.2,7.5-18.5,4-4.2,12.2-8.5,17.7-10.6,1.4,2.9-.2,12.6-2.5,15.2h0ZM462.8,93.7c1.2,2.1,3.8,6.5,3.2,8.8-.5,2.3-4.7,5.4-6.2,7-.5-4.2,1-12.1,3-15.8h0ZM467.6,105.7c2.1,5.7,3.4,11.5,3.6,17.6-6.2,3.8-12.5,7.6-18.6,11.4l-.4-.3c3.8-10.2,3.9-23.6,15.4-28.7h0ZM458.2,93.6c.2,0,.4.2.6.2,0,2.4.2,4.9-.6,7.2-.2,0-.5.1-.7.2-.8-1.3-1.5-2.7-2.3-4.1,1.1-1.3,2.1-2.4,3-3.5h0ZM454.1,98.7c2.4,4,4.7,7.6,2.1,12.3-3.4-3.8-5.9-8.6-2.1-12.3ZM450.2,103.6c2,4.7,5.2,9.7,4.4,14.8-.6,3.4-2.6,13.4-5,15.9-2.6-4.9-7-14.3-7.2-19.9-.2-4.3,4.4-8.6,7.9-10.8h0ZM423.3,136.7c3-8.8,10.5-15.2,16.7-21.8,6.2,11.7,11.4,27.2,2.5,38.9-2.2-2.5-2.7-6.3-4.2-9.6-1.2-2.8-7.8-17.1-8.2-18.8-1.9,2.7,9.3,24.7,10.4,29.4-2.1.3-4,.6-6.2.9-1.3-2-3.3-1.8-5.6-.9,1.2.4,2.5.9,4.1,1.4-1.7,1.5-3.1,2.8-4.9,4.4-.8-4.2-.6-8.6-2.1-12.6-1.7-4.6-4.2-6.3-2.5-11.4h0ZM408.3,126.7c-2,6.3-4.9,6-11.1,7.2,2.7-4.2,7.5-7.8,11-11.4-1.7-2.9-10.4,9.6-12.9,10.9.6-3.9,1.4-9.5,3.6-12.8,2.2-3.4,8-7,11.5-8.9.3,4.9-.6,10.3-2.1,15h0ZM403.5,87.9c1.7,1.8,2.5,3.4,3.6,7-1.4,1.6-2.7,3.5-5.1,5.1.5-4.2,1-8,1.5-12.1h0ZM407.7,96.8c1.5,2.6,3.8,9,2.9,12-.8,2.4-8.6,7.4-11.1,8.3.6-3.6.8-7.7,1.8-11.2,1.1-3.8,3.9-6.2,6.5-9.1h0ZM400.8,89.1c.6,2.1.2,8-1.3,10.8-2-4.7-3.2-7.1,1.3-10.8ZM395.8,95.6c3.5,7.5,3.5,12,2.1,20.1-.2,0-.4,0-.6.1-1.8-2.6-4.8-8.8-5.2-12-.5-3.5,1.6-5.4,3.7-8.2h0s0,0,0,0ZM389.9,103.7c2.6,4.1,5.3,10.1,6.3,14.8.8,4-1.1,8.3-2.1,12.2-3.6-5-5.8-10.2-8.4-15-.2,0-.4.1-.6.2,1.1,6.2,6.8,11.1,7.5,17.2-3.1,1.4-9.6-4.6-10.6-7.2-1,1.5-.8,4.4-3.9,3-2.9-8.8,6.9-18.9,11.8-25.2h0ZM393.5,139.4c-.1.2-.3.4-.4.7-3.6-.4-9.3-2.2-12.5,0,5.4,4.7,18.3,3,25,2.6,1.2,0,7,.8,5-1.9-1.4-1.9-11.3-.3-13.5-.2-.9-6.4,7.1-6.3,11.8-5.2,6.5,1.6,11.7,7.2,14.1,13.2,4.8,11.9.9,28.5-8.8,36.9-17.3-11.2-35.1-21.1-55.7-24.7-.1-.6-.3-1.2-.4-1.9.5-10.1,1-11.1,4.7-17.4,7.4-10.1,21.5-14.6,30.6-2.2h0s0,0,0,0ZM360.9,126.7c5-4.5,8.4,0,11.8,3.9-4,.3-7.4-3.6-11.8-3.9ZM375.3,129.5c-3-2.4-4.5-10.9-4.6-14.7,5.2,2.8,7.9,9.4,4.6,14.7ZM371.6,126.3c-1.7-.2-7.1-5.1-8.1-6.7-1.7-2.4-1.6-6.5-2.1-9.4,8.9,1.4,8.6,8.6,10.2,16.1h0ZM359.6,109.5c.5,2.6,1,5.2,1.6,7.7-4.4-1-7.1-3.7-8-8.5,2.3.3,4.3.5,6.4.8h0ZM351.8,111.3c-1.8.2-3-1-4.9-1.8,3.5-1.4,4.2-1.1,4.9,1.8ZM345.7,110.5c2.6,1.2,4.8,2.3,7.4,3.9-4.3.4-5.9-.4-7.4-3.9ZM349.2,116.8c3.5-2,8.5-.5,11.4,3.6-3.9-.3-10,.8-11.4-3.6ZM351.5,121.7c3.5-1.1,10.8-.3,13.1,1.4-2.9,1.7-8,2.1-11.3,2.7,4.5,1.5,12.3,1.9,16,6.3-1.6,1.2,1.8-1.4,0,0-1.4-2-10.3,2.4-11.3-.2,4.2,0,9.5,2.6,9.5,2.6,0,1.9-5.9,4.5-6.2,4.8-4.3-3.6-7.3-12.4-9.7-17.5h0ZM359.1,165.2c0,0,.1.2.2.3.3,0,.6,0,.9,0,.6,0,1.2.1,1.8.4,4.9,1.1,9.6,2.6,14.2,4.4,17.3,6.8,33.7,16.6,48.2,28.1,14.2,11.3,27.7,24.8,36.7,40.7,4.2,7.6,8.5,16.7,9.3,25.4.7,7.7-3.7,21.1-13.8,15.9,5-14.7-5.2-30.9-13.7-42.2-8.7-11.6-19.4-21.9-30.9-30.7-10.7-8.2-41.5-25.1-61.2-27.1-8.5-1.6-10.1-2.1-16.3,2-2.3,1.5-5.4-.6-5.4-.6-1.4-1-1.9-3.3-1.9-4.9s1.1-7.1,5.2-9.8c3.7-2.4,8.7-2.8,12.9-2.9,4.6-.1,9.2.3,13.7,1.1h0ZM428.3,258.9c-8.3,10.3-17.5,20.6-21,22.8-2.8-4.9-5.6-9.7-8.5-14.8,6.5-7.3,26.9-34.3,29.9-38.7,4.4,4.7,8.3,9.1,11.7,14.2-2.2,3.6-12.3,16.2-12.1,16.5h0ZM309.6,212.3c2.7,7.4-3.1,7-8,10.3-2.6,1.8-2.8,3-5.9,2.2-1.9-.5-4.1-2.9-5.1-4.5-3.5-5.8.2-10.7,4.4-14.6,5.6,3.3,12-.7,14.6,6.5h0ZM309,205c.8.3.9.8.3,1.5-.9-.3-1-.8-.3-1.5ZM301.6,205.5c-13.5-.3-13.3-21.4.3-21.1,13.7.3,13.5,21.4-.3,21.1ZM295.9,182.6c.2,0,.5.5.5.5-.4.4-.8.7-1.3,1.2-.2-1.1-.1-1.7.8-1.7h0s0,0,0,0ZM315.1,198.2c3.1,2.4,6.5,2.6,10.1,2.5-1.6,4-6.9,18.8-12.1,17.3-.8-1-2-8.5-1.9-10.1.2-3.3,2.6-6.8,3.9-9.8h0ZM333.5,193.5c3-7.4,4.8-14,14.5-10.8-2.4,9.3-7,18.4-11.5,26.8-1.2,2.3-3.1,7.7-5.4,9.1-2.1,1.2-6.9-.4-9.1-.7,3.1-8.3,8.1-16.1,11.6-24.3h0s0,0,0,0ZM350.4,183c6.6.7,12.7,3,19.4,5.4-5.9,13-12.2,25.3-20.3,36.6-5.5-1.9-10.8-3.7-16.1-5.5,6.1-12,11.7-24.1,17-36.5h0ZM371.6,189.3c2.8,1.1,5.5,2.2,8.1,3.5.5.7,8.9,4.1,9.1,4.8,0,0,.1,0,.2.1,0,0,0,.2-.1.2,0,0,0,.2,0,.3,0,.5-3.4,6.1-3.4,6.1-5.8,10.1-16.8,27-19.9,30-4.7-2.8-9.2-5.4-14.1-8.3,7.3-12,13.9-24.1,20-36.8h0,0ZM388.5,204.5c.3-.4,2.1-4.4,2.8-5.4,5.8,3,14.9,9.1,17.2,11.6-.8,1.7-22.9,34.8-25.8,37.6-4.9-4.1-9.8-8.2-14.7-12.3,6.7-10.6,20.5-31.4,20.5-31.5h0ZM402.6,223.9l1.7-2.5c2.1-3.1,4.2-6.2,6.3-9.3,5.9,4.3,11.4,9.3,16.5,14.6-1.4,2.5-4.8,7.3-8.8,12.7,0,0-18.5,23.7-20.9,25.5-4.2-4.9-8.4-9.7-12.7-14.6,5.9-8.7,11.9-17.5,17.9-26.3h0ZM341.5,144.8c-1,.4-1.7.7-2.9,1.2,1.4.9,8.2,1.6,8.2,1.6,3.6,0,7.3-.8,8.7-2.9,1.1-1.6,1.2-1.8-.8-2-3-.3-6.4,2.6-9.6,2.7l-.3-.4c2.8-4.1,10.4-6.8,15.6-4.5-.6,1-4.4,12.7-4.8,17.4h0c-.1.2-.8,2.8-2.4,2.6-3.1-.4-2-.4-5.7-.7-3.8.1-5.4-.2-8.4.4-3,.6-4.8,1.4-7.5,2.9-2.9-4.7-7.2-7.2-12.7-6.8-2.2-14.7,12.3-21.4,22.7-11.5h0ZM319.3,158.8c2.8-1.2,10.8,2.4,9.9,5.2-2.2,2.7-3,3.9-4.5,6.8-2.9,1.1-4.3-.3-7-3.1-.9-3.2-1.9-7.4,1.6-8.9h0ZM323.6,178.9c.9,3.6,2.9,6.8,7.5,7.7-.9,3.3-2.2,9.9-5.5,11.6-3.2,1.7-8.4-.4-10.5-3-1.9-2.6-2.8-8.3-1.6-11.2,1.9-4.7,5.5-5.1,10-5h0ZM315.9,174.2c.4,12.3-21.8,11.9-21.1-1.4.8-13.6,21.5-12.1,21.1,1.4ZM283.2,167.8c13.4.3,13.2,21.4-.4,21.1-13.5-.3-13.2-21.3.4-21.1ZM271.7,204c-1.6-4-1-10.4,2.9-13.1,2.6-1.8,2.5-.8,5.6-.3,3.2.5,6.1-.1,9.3,0-1.3,4.9-.2,9.1,2.7,12.6-3.5,9.4-16.5,10.7-20.5.8h0ZM271.7,227.4c-3.1-3.7-3.7-10.9.2-14.6,2.6-2.4,2.8-.9,6,0,3,.9,5.6,0,8.6.1,1,5.5,5.1,10.9.3,15.4-4.4,4.1-11.2,3.5-15-1h0s0,0,0,0ZM295.3,228.4c-.5,5.6-.1,8.6,1.7,14-1.9,1.5-4.2,3.3-6.5,5-7.9-4.5-5.8-22.4,4.7-19h0ZM296.8,248.3c3.8-2.8,8.8-6.4,12.7-7.9,31.2-20.7,102.3,66.9,79.5,86-6.6,2.2-29.2,13.1-36.3,16.4-2.9,1.3-44.3,14.8-42.5,12.2,12.9-18.9-3.5-86.4-28-97.2,5-3,9.9-6,14.6-9.4h0ZM249.2,275.4c7.1-2.4,10.5-3.9,17.8-1.7-1.6,4.7-16.2,6.5-20.3,7.2-4.1.7-16.3,4.4-17.4-.9,6.7-1.3,13.4-2.5,19.9-4.6h0ZM272,340.9c-14.3.9-32.5,2.1-46.3-2.2,1.8-5.4,3.6-10.6,5.5-16.2,19.4.4,38.8-.9,58.4-5,.3,2.8.8,5.5,1,8.3.2,2.4,1.5,8.9.5,11-2.1,4.2-14.3,3.7-19,4h0ZM288.9,351.5c-1.7,1.7-5.1,1.4-7.3,1.6-7.3.8-14.5,1.3-21.9,1.5-13.6.3-28.2.7-41.6-2,2.2-3.9,4.2-7.5,6.5-11.5,22,3,44,3.2,65.9,0,0,2.3.1,8.7-1.6,10.5h0ZM231.4,320.2c1.6-8,2-15.7,1.7-23.7,16.1-.4,32-1.9,47.6-6.5,4.7,7.8,7,16.3,8.4,25.5-19,4-38,5.3-57.7,4.7h0ZM232.9,294.3c-.7-3.1-1.3-6.1-2.1-9.4,9.9-1.3,19.6-1.9,29.1-5.3,3.1-1.1,7.5-4.4,10.7-3.2,3.5,1.2,7.4,8.7,9,11.8-15.5,4.4-30.9,6-46.8,6.1h0ZM126.9,170.6c-1.8,2-3.3,3.7-5.1,5.6-2.6-3.5-5.3-6.8-8.1-10,5.1.2,9.3,1.2,13.2,4.4h0ZM109.8,169.4c-.8.9,9.8,8.4,8.6,10.1-2.9,4.1-4.1,7.1-5.8,10.5-1.3,2.6-1.6,4.4-4.1,9.7-.1-.5-20.6-6.8-20-7.5,1.7-2,7.1-9.2,10.5-12.5,2.9-2.8,6-6.5,10.9-10.3h0s0,0,0,0ZM82.6,193.6c5.1,5.6,12.9,9.1,19.8,12,2.6,1.1,8.8,1.4,10.1,3.7,1.7,2.9-.8,5.6-3.7,6.1-5.8,1.2-16.5-5.8-21.4-8.2-5-2.5-14.3-9.5-4.8-13.6h0ZM78,238.3c-2.7-11.1,1.5-17.4,2.2-26.9,0-1.3.6-4.3,1.6-3.5,6,4.9,21.4,10.9,28.8,10.3-1.1,3.3.3,7.4.4,8.2.4,2.3,1.9,5.5,1.9,8-.1,9.9-26.3,16.1-34.9,4h0ZM70.7,250.4c-2.4-4.1-2.5-11.4,3.4-12.5,4.2,12.2,19.2,12.3,30.1,8.7,3.1-1,6.3-2.3,8.9-4.3,1.7-1.3,3.6-5.2,5.3-5.9,5.4-2.2,6.6,6.9,5.1,10-5.4,11.1-26.7,12.9-37.2,11.9-6-.6-12.4-2.2-15.6-7.8h0ZM79.3,261.2c3.5,4.3,42.2,1.1,45.5-9.8,1.1-3.5,9.4,9.4,14.8,12.6,3.5,2,2.4,10.1-4.9,19.9-4.6,6.2-29.4,17.9-38.9,11.7-7.9-13-12.1-20.7-16.4-34.4h0ZM96.1,299.7c6.4,2.1,10.3,3.3,17.1,1.3,5.6-1.7,11-4.2,15.8-7.6,10.7-7.6,17.3-17.2,15.3-30.5,10-6.3,12.2,10.6,10.7,16.2-2.6,9.2-9.7,16.7-17,22.4-7.4,5.8-16.2,10.5-25.6,12-7.7,1.3-22.1-3.4-16.3-13.9h0s0,0,0,0ZM181.8,351.6c-7.2.7-22.9-9.2-29.4-12.4-11.9-5.8-26.7-13.1-36.4-22.4,31.2-9.2,47.1-33.5,44.5-42.8,0-.3,9.1,3.3,16.2,4.5,9,1.6,17.9,3,26.6,4.4,17.4,2.2,4.7,66.3-21.4,68.7h0ZM205.9,359.2c-4.5,3.7-10,6.6-16,6.2-4.3-.2-12.7-3.9-9.8-9.7,16.2,4.8,28.7-21,32.6-32.7,2.6-7.7,4.1-16.4,3.6-24.6-.6-9.3-3.2-14.7-10.8-19.9,1.3-6.2,9.2-5.6,13.3-3.1,4.5,2.8,6.7,7.7,8.1,12.5,3.6,12.4,1.6,27-2.1,39.2-3.5,11.4-9.5,24.2-18.9,32h0s0,0,0,0ZM274.3,360.4c-6.7.5-13.4.8-20.1.8-13.3,0-27.8-.1-40.8-3,3.9-4.8,7.2-2.9,13.1-2.4,7.2.7,14.5,1,21.8,1,13.2,0,26.3-1.8,39.4-2.1-1.8,6.1-8.2,5.2-13.5,5.7h0,0ZM309,343.1c-.9,8.6-8.2,31.8-21.1,20.4,12.5-14.2,8.3-41.5,3.9-58.1-2.5-9.5-6.3-18.6-12.5-26.4-5.9-7.4-7.9-8.3-15.9-11-2-.7-8.7.9-6-6.1,4.1-10.3,22.3-1.5,28,4.2,9.3,9.3,15.3,22.4,18.9,34.9,3.9,13.5,6.1,28,4.6,42.1h0ZM395.2,327.6c8-20.9-7.7-47.2-21.4-62.1-15.5-16.9-38.5-35.4-62.1-31.1-6.4,1.1-11.7,7.8-12.5,4.7-3.6-12.9,4.8-15.1,7.3-16.1,10.8-3.9,21.7-.7,31.9,2.7,21.6,7.1,41.3,22.7,54.7,40.9,7.6,10.3,13.4,22.1,15.9,34.7,1.5,7.9,1.6,33.1-13.7,26.2h0ZM409.4,283.2c1.7-4,8.7-9,11.6-12.3,3-3.3,5.8-6.8,8.5-10.3.2.2,2.7-3.5,2.7-3.5,3.2-4.2,6.4-8.4,9.6-12.7,1.9,2.4,7.3,9.1,7,12.3-.3,3.1-5,7.5-8.5,10.6,0,0-19.4,19.5-28.4,26.4-1.3-3.4-3.7-7.3-2.4-10.6h0ZM414.5,306c-2.2-3.7-2.6-8.7,0-11.8,3.6-4.3,9-7.8,13-11.6,3.6-3.4,11.5-10.8,11.8-11.1.7-.6,1.8-2.8,1.8-2.8,3-3.1,5.9-6.3,9-9.4,1.7,3.5,4.2,9.7,3.2,13.9-.5,2-2.1,3.9-4.2,5.8,0,0-6.4,5.2-7.3,6-8.6,7.5-17.6,15-27.4,21.1h0ZM449.5,288.2c-.5,8-8.4,18.5-18.4,16.4l17.3-18c.4.5.8,1,1.1,1.5h0ZM430.8,308.9c5.1,4.2,11-7.1,15.5-8.3-1.2,4.8-1.8,9.5-5.7,12.3-3,2.2-7,5.8-10.6,6.5,0-3.5-.4-6.9.8-10.6h0,0ZM430.2,322.4c4-2.5,8-4.9,12.2-7.6-.3,4.3-1.6,8.9-2.8,13-1.3,4.3-3.1,5.5-6.8,8-1.5-4.5-2.4-8.9-2.6-13.5h0ZM436.3,345.2c-1.6-2.3-1.8-4.5-2.9-6.8,1.4-1.1,2.7-2,4.5-3.3-.6,3.6-1,6.5-1.6,10.1h0ZM438.8,346.9c.5-3.1.8-5.7,1.2-8.7,2.9,3.5,3.5,3.8-1.2,8.7ZM441.5,334.2c1.4,1.5,2.6,3.1,2.6,5.3-1.6-1.4-2.5-3.1-2.6-5.3ZM446.2,336.9c-4.6-6.7-3.9-10.1-2-17.7,1.6,2.9,2.9,6,3.9,9.2,1.4,4,.6,5-1.9,8.5h0ZM451,329.5c-1.7-4.1-4-8.3-5-12.6-1-4.1.6-7.9,1.5-11.9.3,0,.5-.1.8-.2,2.9,5.1,5.7,10.3,8.6,15.5-1.5,3-3.5,6-5.9,9.3h0ZM457.8,317.5c-2-2.9-5.5-8.5-6.9-14.7-1.1-4.7-1.2-9.6-.4-13.2,4.8,6.7,9,12.4,12.2,16.9-.2,3.6-3,9.1-4.9,11.1h0ZM465.1,303c-4.9-6.8-12.5-14.2-12.8-18.1,0-1.5,4.5.8,4.5.4,2.2-.1,4.1.3,6.5-.2,2.2,0,5.1-2,6.5-3.3,4-6.9,3.1-4.9,6.4-12.4.2.5.5,1.3.5,2.4.4,5.1-2.5,7.9-5.4,14.1-3.2,6.9-5.7,16.1-4.8,16.6.9.5,2.9-9.2,6-15.2,2.6-4.9,4-9.4,4.8-12.4,0,.4.1.8.2,1.4,0,0,0,.5.1,1.1,0,.9.5,8.2.1,11.2-.5,4.7-4.1,11.5-10.2,18.3-.8-1-1.7-2.3-2.5-3.7h0ZM469.5,309.1c-.1-2,3.3-6.1,4.2-7.8,1.9-3.4,3.9-6.7,5.8-10.1,1,5.2,1.9,10.4,2.9,15.6,1.3,6.5.2,9.4-3,15.4-3.1-3.1-9.8-8.6-10-13.1h0s0,0,0,0h0ZM481.6,324.2c1-2.1,2-4.1,2.9-6.2.2,0,.4,0,.5,0,1.1,3.9,2.3,7.8,3.4,11.7-2.5-1.5-4.7-3.4-6.8-5.6h0ZM493.3,331.9c-1.7-1.4-3.5-6.3-3.9-10.3,1.7,1,3.1,1.9,4.9,3-.3,2.3-.7,4.8-1,7.4h0ZM495.1,321.3c-4.7-.6-7-3.2-8.1-7.5.2,0,.4-.2.6-.2,2.8,2.2,5.5,4.5,7.9,7.2l-.3.5h0s0,0,0,0ZM495.9,317.1c-3.2-2.3-7.7-5-9.9-8.4-2.2-3.4-2.3-10-3.1-13.9.2,0,.3-.1.5-.2,3.7,3.9,7.7,7.7,11.2,11.8,3.3,3.7,2.1,5.9,1.2,10.8h0ZM493.6,268.1c3.5,2.3,7.1,12.5,5.9,16.4-.8.5-1.7,1.1-2.5,1.6,1.5,2.9,2.8,1.5,2.8,5.4,0,4.4-1.1,9.3-1.6,13.7-5-3-11.9-10.4-15.1-15.3-2.8-4.2-4-12.8-3.5-17.8.2-.2.5-.3.7-.5,1.1,2.6,14,17.9,16,14.4-6-7-13.6-12.8-18.2-21.1.1-.2.2-.4.4-.5,2.9.8,5.8,2,8.7,2.6,2.1.4,4.6,0,6.5,1.2h0ZM490.5,264.5c-2.4.5-15.1-2-13.6-5.8,5.4-.2,9.8,1.6,13.6,5.8ZM496.6,251.2c-6.1,4.5-20.4,9.3-24.9.8-2.5-4.7-3.9-10-6.6-14.8-2.8-4.8-6-9.4-9.1-13.9,9.5-3.3,11.1-5.8,11.2-17.2,2,.4,5.1.8,8.5,0,1.7-.4,3.5-.6,5.8-2.6,4.3-3.7,4.7-5.1,9.8-5,1.9,0,4.6.1,8.3,3,1.1.9,12.3,9.8,11.8,25-.6,16-13.8,24.1-14.7,24.7h0Z"/>
    </g>
  </g>
</svg>