<?xml version="1.0" encoding="UTF-8"?>
<svg id="logo" xmlns="http://www.w3.org/2000/svg" xmlns:xlink="http://www.w3.org/1999/xlink" viewBox="0 0 626.67 670.68">
  <defs>
    <radialGradient id="radial-gradient" cx="-3040.99" cy="-314.69" fx="-2993.37" fy="-530.89" r="782.13" gradientTransform="translate(862.35 484.07) rotate(1.69) scale(.19 .11)" gradientUnits="userSpaceOnUse">
      <stop offset=".06" stop-color="#b9babe"/>
      <stop offset=".74" stop-color="#97999c"/>
      <stop offset=".83" stop-color="#95979a"/>
      <stop offset=".88" stop-color="#8d8f91"/>
      <stop offset=".93" stop-color="#808283"/>
      <stop offset=".97" stop-color="#6d6e70"/>
      <stop offset="1" stop-color="#555657"/>
    </radialGradient>
    <radialGradient id="radial-gradient-2" cx="-2941.86" cy="-66.78" fx="-2941.86" fy="-66.78" r="19.74" gradientTransform="translate(864.25 419.81) rotate(1.69) scale(.19)" gradientUnits="userSpaceOnUse">
      <stop offset=".03" stop-color="#6da5c1"/>
      <stop offset=".28" stop-color="#6da5c1"/>
      <stop offset=".36" stop-color="#73adcb"/>
      <stop offset=".49" stop-color="#7dbbda"/>
      <stop offset=".66" stop-color="#80c0e1"/>
      <stop offset=".96" stop-color="#81c3e4"/>
    </radialGradient>
    <radialGradient id="radial-gradient-3" cx="-1464.27" cy="-646.13" fx="-1464.27" fy="-646.13" r="276.83" gradientTransform="translate(693.32 441.76) rotate(-42.02) scale(.19 .37)" gradientUnits="userSpaceOnUse">
      <stop offset="0" stop-color="#cbb482"/>
      <stop offset=".12" stop-color="#c6ad79"/>
      <stop offset=".31" stop-color="#bb9d5f"/>
      <stop offset=".55" stop-color="#a98637"/>
      <stop offset=".83" stop-color="#8f6828"/>
      <stop offset=".83" stop-color="#8f6828"/>
    </radialGradient>
    <radialGradient id="radial-gradient-4" cx="-3667.59" cy="144.57" fx="-3667.59" fy="144.57" r="74.6" gradientTransform="translate(864.25 419.81) rotate(1.69) scale(.19)" xlink:href="#radial-gradient-3"/>
    <radialGradient id="radial-gradient-5" cx="-3643.3" cy="-19.77" fx="-3643.3" fy="-19.77" r="61.6" gradientTransform="translate(864.25 419.81) rotate(1.69) scale(.19)" xlink:href="#radial-gradient-3"/>
    <radialGradient id="radial-gradient-6" cx="-2323.18" cy="-280.59" fx="-2323.18" fy="-280.59" r="116.7" gradientTransform="translate(864.25 419.81) rotate(1.69) scale(.19)" gradientUnits="userSpaceOnUse">
      <stop offset=".38" stop-color="#7eaa72"/>
      <stop offset=".77" stop-color="#8bbe7f"/>
      <stop offset=".93" stop-color="#7ba870"/>
    </radialGradient>
    <radialGradient id="radial-gradient-7" cx="-4175.68" cy="2591.64" fx="-4175.68" fy="2591.64" r="117.62" gradientTransform="translate(746.09 763.01) rotate(1.69) scale(.19 -.19)" xlink:href="#radial-gradient-6"/>
    <radialGradient id="radial-gradient-8" cx="-3814.84" cy="3310.04" fx="-3814.84" fy="3310.04" r="157.47" gradientTransform="translate(746.09 763.01) rotate(1.69) scale(.19 -.19)" xlink:href="#radial-gradient-6"/>
    <radialGradient id="radial-gradient-9" cx="-2537.9" cy="-151.95" fx="-2537.9" fy="-267.77" r="117.2" gradientTransform="translate(864.25 419.81) rotate(1.69) scale(.19)" gradientUnits="userSpaceOnUse">
      <stop offset="0" stop-color="#cdb859"/>
      <stop offset=".11" stop-color="#c9b457"/>
      <stop offset=".17" stop-color="#c4b155"/>
      <stop offset=".21" stop-color="#d1bd5a"/>
      <stop offset=".28" stop-color="#e5cf64"/>
      <stop offset=".36" stop-color="#f3dc6b"/>
      <stop offset=".46" stop-color="#fbe36d"/>
      <stop offset=".63" stop-color="#fde56f"/>
      <stop offset=".86" stop-color="#f3dc6b"/>
      <stop offset="1" stop-color="#ead466"/>
      <stop offset="1" stop-color="#ecd667"/>
    </radialGradient>
    <radialGradient id="radial-gradient-10" cx="-2667.55" cy="296.62" fx="-2667.55" fy="296.62" r="212.11" gradientTransform="translate(864.25 419.81) rotate(1.69) scale(.19)" gradientUnits="userSpaceOnUse">
      <stop offset=".06" stop-color="#b9babe"/>
      <stop offset=".72" stop-color="#97999c"/>
      <stop offset=".93" stop-color="#848689"/>
    </radialGradient>
    <radialGradient id="radial-gradient-11" cx="-2167.13" cy="96.76" fx="-2167.13" fy="217.69" r="122.3" gradientTransform="translate(864.25 419.81) rotate(1.69) scale(.19)" gradientUnits="userSpaceOnUse">
      <stop offset=".13" stop-color="#1164a1"/>
      <stop offset=".47" stop-color="#084c7d"/>
      <stop offset=".67" stop-color="#0f3f65"/>
      <stop offset=".99" stop-color="#0e3b5e"/>
    </radialGradient>
    <radialGradient id="radial-gradient-12" cx="-4516.53" cy="3369.61" fx="-4516.53" fy="3369.61" r="168.28" gradientTransform="translate(746.09 763.01) rotate(1.69) scale(.19 -.19)" xlink:href="#radial-gradient-10"/>
    <radialGradient id="radial-gradient-13" cx="-4818.09" cy="3407.26" fx="-4818.09" fy="3407.26" r="145.7" gradientTransform="translate(746.09 763.01) rotate(1.69) scale(.19 -.19)" xlink:href="#radial-gradient-10"/>
    <radialGradient id="radial-gradient-14" cx="-5126.76" cy="3291.01" fx="-5126.76" fy="3291.01" r="116.55" gradientTransform="translate(746.09 763.01) rotate(1.69) scale(.19 -.19)" xlink:href="#radial-gradient-10"/>
    <radialGradient id="radial-gradient-15" cx="-2721.68" cy="-231.55" fx="-2721.68" fy="-201.15" r="67.21" gradientTransform="translate(864.25 419.81) rotate(1.69) scale(.19)" gradientUnits="userSpaceOnUse">
      <stop offset=".07" stop-color="#cdb859"/>
      <stop offset=".15" stop-color="#c9b457"/>
      <stop offset=".19" stop-color="#c4b155"/>
      <stop offset=".21" stop-color="#d1bd5a"/>
      <stop offset=".25" stop-color="#e5cf64"/>
      <stop offset=".29" stop-color="#f3dc6b"/>
      <stop offset=".34" stop-color="#fbe36d"/>
      <stop offset=".43" stop-color="#fde56f"/>
      <stop offset=".78" stop-color="#f3dc6b"/>
      <stop offset="1" stop-color="#ead466"/>
      <stop offset="1" stop-color="#ecd667"/>
    </radialGradient>
    <radialGradient id="radial-gradient-16" cx="-5243.7" cy="3138.26" fx="-5243.7" fy="3138.26" r="85.83" gradientTransform="translate(746.09 763.01) rotate(1.69) scale(.19 -.19)" xlink:href="#radial-gradient-10"/>
    <radialGradient id="radial-gradient-17" cx="-2350.37" cy="-124.32" fx="-2350.37" fy="-124.32" r="40.18" gradientTransform="translate(864.25 419.81) rotate(1.69) scale(.19)" gradientUnits="userSpaceOnUse">
      <stop offset=".06" stop-color="#7a749f"/>
      <stop offset=".18" stop-color="#7b77a3"/>
      <stop offset=".19" stop-color="#7c78a4"/>
      <stop offset=".27" stop-color="#827eac"/>
      <stop offset=".43" stop-color="#8580ae"/>
      <stop offset=".79" stop-color="#8c86b7"/>
      <stop offset=".99" stop-color="#938dc0"/>
      <stop offset=".99" stop-color="#78749e"/>
    </radialGradient>
    <radialGradient id="radial-gradient-18" cx="-2875" cy="-4.09" fx="-2875" fy="-4.09" r="40.06" gradientTransform="translate(864.25 419.81) rotate(1.69) scale(.19)" gradientUnits="userSpaceOnUse">
      <stop offset=".03" stop-color="#81c4e5"/>
      <stop offset=".25" stop-color="#81c6e8"/>
      <stop offset=".28" stop-color="#83c8e9"/>
      <stop offset=".4" stop-color="#89cef1"/>
      <stop offset=".6" stop-color="#8fd4f5"/>
      <stop offset=".96" stop-color="#93d6f6"/>
    </radialGradient>
    <radialGradient id="radial-gradient-19" cx="-4377.77" cy="2874.78" fx="-4377.77" fy="2874.78" r="40.39" gradientTransform="translate(746.09 763.01) rotate(1.69) scale(.19 -.19)" xlink:href="#radial-gradient-2"/>
    <radialGradient id="radial-gradient-20" cx="-4531.87" cy="2852.44" fx="-4531.87" fy="2852.44" r="39.89" gradientTransform="translate(746.09 763.01) rotate(1.69) scale(.19 -.19)" xlink:href="#radial-gradient-18"/>
    <radialGradient id="radial-gradient-21" cx="-4451.45" cy="2817.1" fx="-4451.45" fy="2817.1" r="40.24" gradientTransform="translate(746.09 763.01) rotate(1.69) scale(.19 -.19)" xlink:href="#radial-gradient-2"/>
    <radialGradient id="radial-gradient-22" cx="-4534.92" cy="2938.24" fx="-4534.92" fy="2938.24" r="40.8" gradientTransform="translate(746.09 763.01) rotate(1.69) scale(.19 -.19)" xlink:href="#radial-gradient-18"/>
    <radialGradient id="radial-gradient-23" cx="-4453.67" cy="2896.35" fx="-4453.67" fy="2896.35" r="41.18" gradientTransform="translate(746.09 763.01) rotate(1.69) scale(.19 -.19)" xlink:href="#radial-gradient-2"/>
    <radialGradient id="radial-gradient-24" cx="-3883.01" cy="2874.52" fx="-3883.01" fy="2874.52" r="39.85" gradientTransform="translate(746.09 763.01) rotate(1.69) scale(.19 -.19)" xlink:href="#radial-gradient-17"/>
    <radialGradient id="radial-gradient-25" cx="-3798.28" cy="2892.34" fx="-3798.28" fy="2892.34" r="39.66" gradientTransform="translate(746.09 763.01) rotate(1.69) scale(.19 -.19)" xlink:href="#radial-gradient-17"/>
    <radialGradient id="radial-gradient-26" cx="-3844.07" cy="2803.19" fx="-3844.07" fy="2803.19" r="40.5" gradientTransform="translate(746.09 763.01) rotate(1.69) scale(.19 -.19)" xlink:href="#radial-gradient-17"/>
    <radialGradient id="radial-gradient-27" cx="-4446.57" cy="2830.18" fx="-4446.57" fy="2830.18" r="39.51" gradientTransform="translate(746.09 763.01) rotate(1.69) scale(.19 -.19)" xlink:href="#radial-gradient-18"/>
    <radialGradient id="radial-gradient-28" cx="-4369.1" cy="2794.46" fx="-4369.1" fy="2794.46" r="39.91" gradientTransform="translate(746.09 763.01) rotate(1.69) scale(.19 -.19)" xlink:href="#radial-gradient-2"/>
    <radialGradient id="radial-gradient-29" cx="-4541.85" cy="3019.01" fx="-4541.85" fy="3019.01" r="37.99" gradientTransform="translate(746.09 763.01) rotate(1.69) scale(.19 -.19)" xlink:href="#radial-gradient-18"/>
    <radialGradient id="radial-gradient-30" cx="-4459.93" cy="2967.89" fx="-4459.93" fy="2967.89" r="38.36" gradientTransform="translate(746.09 763.01) rotate(1.69) scale(.19 -.19)" xlink:href="#radial-gradient-2"/>
    <radialGradient id="radial-gradient-31" cx="-2387.78" cy="-54.47" fx="-2387.78" fy="-54.47" r="46.37" gradientTransform="translate(864.25 419.81) rotate(1.69) scale(.19)" gradientUnits="userSpaceOnUse">
      <stop offset="0" stop-color="#fde470"/>
      <stop offset="0" stop-color="#fde470"/>
      <stop offset=".63" stop-color="#fde56f"/>
      <stop offset=".99" stop-color="#fde571"/>
      <stop offset="1" stop-color="#c4b155"/>
      <stop offset="1" stop-color="#d2bd5a"/>
      <stop offset="1" stop-color="#deca62"/>
      <stop offset="1" stop-color="#e7d165"/>
      <stop offset="1" stop-color="#ead466"/>
    </radialGradient>
    <radialGradient id="radial-gradient-32" cx="-3865.96" cy="2958.98" fx="-3865.96" fy="2958.98" r="39.01" gradientTransform="translate(746.09 763.01) rotate(1.69) scale(.19 -.19)" xlink:href="#radial-gradient-17"/>
    <radialGradient id="radial-gradient-33" cx="-3716.82" cy="2862.11" fx="-3716.82" fy="2862.11" r="36.58" gradientTransform="translate(746.09 763.01) rotate(1.69) scale(.19 -.19)" xlink:href="#radial-gradient-17"/>
    <radialGradient id="radial-gradient-34" cx="-5250.85" cy="2974.1" fx="-5250.85" fy="2974.1" r="60.9" gradientTransform="translate(746.09 763.01) rotate(1.69) scale(.19 -.19)" xlink:href="#radial-gradient-10"/>
    <radialGradient id="radial-gradient-35" cx="-4462.79" cy="2993.85" fx="-4462.79" fy="2993.85" r="38.82" gradientTransform="translate(746.09 763.01) rotate(1.69) scale(.19 -.19)" xlink:href="#radial-gradient-18"/>
    <radialGradient id="radial-gradient-36" cx="-4384.86" cy="2943.93" fx="-4384.86" fy="2943.93" r="39.33" gradientTransform="translate(746.09 763.01) rotate(1.69) scale(.19 -.19)" xlink:href="#radial-gradient-2"/>
    <radialGradient id="radial-gradient-37" cx="-4380.23" cy="2888.57" fx="-4380.23" fy="2888.57" r="36.58" gradientTransform="translate(746.09 763.01) rotate(1.69) scale(.19 -.19)" xlink:href="#radial-gradient-18"/>
    <radialGradient id="radial-gradient-38" cx="-4281" cy="2848.49" fx="-4281" fy="2848.49" r="36.87" gradientTransform="translate(746.09 763.01) rotate(1.69) scale(.19 -.19)" xlink:href="#radial-gradient-2"/>
    <radialGradient id="radial-gradient-39" cx="-3760.02" cy="2809.17" fx="-3760.02" fy="2809.17" r="43.13" gradientTransform="translate(746.09 763.01) rotate(1.69) scale(.19 -.19)" xlink:href="#radial-gradient-17"/>
    <radialGradient id="radial-gradient-40" cx="-4392.94" cy="2964.08" fx="-4392.94" fy="2964.08" r="33.19" gradientTransform="translate(746.09 763.01) rotate(1.69) scale(.19 -.19)" xlink:href="#radial-gradient-18"/>
    <radialGradient id="radial-gradient-41" cx="-4253.04" cy="2917.95" fx="-4253.04" fy="2917.95" r="33.45" gradientTransform="translate(746.09 763.01) rotate(1.69) scale(.19 -.19)" xlink:href="#radial-gradient-2"/>
    <radialGradient id="radial-gradient-42" cx="-4492.33" cy="3080.44" fx="-4492.33" fy="3080.44" r="30.72" gradientTransform="translate(746.09 763.01) rotate(1.69) scale(.19 -.19)" xlink:href="#radial-gradient-18"/>
    <radialGradient id="radial-gradient-43" cx="-4341.36" cy="3019.67" fx="-4341.36" fy="3019.67" r="30.74" gradientTransform="translate(746.09 763.01) rotate(1.69) scale(.19 -.19)" xlink:href="#radial-gradient-2"/>
    <radialGradient id="radial-gradient-44" cx="-3925.52" cy="2928.23" fx="-3925.52" fy="2928.23" r="22.88" gradientTransform="translate(746.09 763.01) rotate(1.69) scale(.19 -.19)" xlink:href="#radial-gradient-17"/>
    <radialGradient id="radial-gradient-45" cx="-4380.38" cy="2794.25" fx="-4380.38" fy="2794.25" r="28.4" gradientTransform="translate(746.09 763.01) rotate(1.69) scale(.19 -.19)" xlink:href="#radial-gradient-18"/>
    <radialGradient id="radial-gradient-46" cx="-4269.92" cy="2751.05" fx="-4269.92" fy="2751.05" r="28.74" gradientTransform="translate(746.09 763.01) rotate(1.69) scale(.19 -.19)" xlink:href="#radial-gradient-2"/>
    <radialGradient id="radial-gradient-47" cx="-5160.87" cy="2843.73" fx="-5160.87" fy="2843.73" r="26.99" gradientTransform="translate(746.09 763.01) rotate(1.69) scale(.19 -.19)" xlink:href="#radial-gradient-10"/>
    <radialGradient id="radial-gradient-48" cx="-3792.07" cy="2838.63" fx="-3792.07" fy="2838.63" r="24.28" gradientTransform="translate(746.09 763.01) rotate(1.69) scale(.19 -.19)" xlink:href="#radial-gradient-17"/>
    <radialGradient id="radial-gradient-49" cx="-3736.77" cy="2914.37" fx="-3736.77" fy="2914.37" r="25.84" gradientTransform="translate(746.09 763.01) rotate(1.69) scale(.19 -.19)" xlink:href="#radial-gradient-17"/>
    <radialGradient id="radial-gradient-50" cx="-4480.56" cy="2869.08" fx="-4480.56" fy="2869.08" r="8.75" gradientTransform="translate(746.09 763.01) rotate(1.69) scale(.19 -.19)" xlink:href="#radial-gradient-18"/>
    <radialGradient id="radial-gradient-51" cx="-2509.71" cy="2926.73" fx="-2509.71" fy="2926.73" r="544.53" gradientTransform="translate(900.84 453.94) rotate(28.03) scale(.19 .07)" gradientUnits="userSpaceOnUse">
      <stop offset="0" stop-color="#b9babe"/>
      <stop offset=".32" stop-color="#818386"/>
      <stop offset=".58" stop-color="#5d5e60"/>
      <stop offset=".72" stop-color="#4f5152"/>
      <stop offset=".77" stop-color="#4a4b4c"/>
      <stop offset=".83" stop-color="#3a3b3c"/>
      <stop offset=".9" stop-color="#212223"/>
      <stop offset=".97" stop-color="#000"/>
    </radialGradient>
    <radialGradient id="radial-gradient-52" cx="-4427.73" cy="2956.59" fx="-4427.73" fy="2956.59" r="8.3" gradientTransform="translate(746.09 763.01) rotate(1.69) scale(.19 -.19)" xlink:href="#radial-gradient-18"/>
    <radialGradient id="radial-gradient-53" cx="-2836.09" cy="901.08" fx="-2836.09" fy="901.08" r="5.79" gradientTransform="translate(864.25 419.81) rotate(1.69) scale(.19)" gradientUnits="userSpaceOnUse">
      <stop offset=".26" stop-color="#000"/>
      <stop offset=".42" stop-color="#050505"/>
      <stop offset=".5" stop-color="#0b0b0b"/>
      <stop offset=".95" stop-color="#000"/>
      <stop offset=".98" stop-color="#000"/>
    </radialGradient>
  </defs>
  <g id="logo-2" data-name="logo">
    <g>
      <rect x="136.04" y="291.07" width="191.05" height="292.12" rx="24.72" ry="24.72" transform="translate(-111.78 81.01) rotate(-16.04)" fill="#fff" stroke="#000" stroke-linecap="round" stroke-miterlimit="10" stroke-width="3.81"/>
      <g id="uuid-28ed3b08-d45b-45ee-bdd3-c0b04ab24f85">
        <rect x="134.53" y="291.16" width="191.61" height="292.98" rx="24.8" ry="24.8" transform="translate(-114.21 82.86) rotate(-16.4)" fill="#fff" stroke="#000" stroke-linecap="round" stroke-miterlimit="10" stroke-width="4.37"/>
        <path d="M229.6,590.42l-25.63,7.54c-13.14,3.86-26.92-3.65-30.79-16.78l-68.71-233.49c-3.86-13.14,3.65-26.92,16.78-30.79l25.63-7.54" fill="#6da5c1" stroke="#000" stroke-linecap="round" stroke-miterlimit="10" stroke-width="4.37"/>
        <rect x="246.98" y="344.18" width="293.23" height="191.78" rx="24.8" ry="24.8" transform="translate(-119.44 732.25) rotate(-77.85)" fill="#fff" stroke="#000" stroke-linecap="round" stroke-miterlimit="10" stroke-width="4.37"/>
        <path d="M318.83,573.35l-26.12-5.63c-13.38-2.88-21.91-16.07-19.02-29.46l51.21-237.94c2.88-13.38,16.07-21.91,29.46-19.02l26.12,5.63" fill="#0e3b5e" stroke="#000" stroke-linecap="round" stroke-miterlimit="10" stroke-width="4.37"/>
      </g>
      <g>
        <path d="M427.12,501.35c1.84-1.86,4.39-.32,5.96,1.77,1.57,2.09.83,4.9.09,7.4-.98,3.31-2.87,6.08-5.95,4.91-.85-1.05.21-2.43,1.38-3.1,1.25-.71,2.54.64,2.9.86.08.05.14.1.21.17.46.44.85.66,2.98,3.1,1.16,1.33,1.43,3.45,3,4.27,1.28.66,2.83.38,4.22.03,1.5-.38,3.06-.87,4.08-2.02.9-1.01,1.18-2.66.34-3.79-.65-.88-1.85,0-2.29.65-.51.75-.76,1.68-.91,2.57-.38,2.42-.68,4.89-.27,7.31.4,2.42,1.58,4.79,3.62,6.16M431.38,493.15c-.45,1.74-1.23,3.4-2.27,4.86-.32.44-.68.91-.72,1.47s.41,1.16.95,1.06M428.07,498.96c-1.97,1.68-3.55,3.81-4.62,6.16,1.74-2.43,3.48-4.85,5.23-7.28-.85,1.41-1.69,2.82-2.54,4.23.8-.73,1.36-1.73,1.6-2.79l.63-.29M428.89,500.18c.2-.96.39-1.92.6-2.88-.42,1.07-1.32,1.94-1.34,3.09M428.49,499.49l.19-.82M428.17,499.99c.53-2.27,1.24-4.5,2.11-6.66.36.38.02.99-.29,1.41-1.09,1.49-1.8,3.26-2.05,5.09M427.94,498.87c-1.79,2.49-3.35,5.15-4.63,7.94.55-1.84,1.63-3.54,3.07-4.81M431.13,492.6c-1.22,1.2-1.42,3.03-1.44,4.74-.03,1.66-1.19,2.96,1.95,4.7-.82-1.32-1.54-2.76-1.78-4.3s.04-3.21,1.01-4.44c-1.04,2.62-4.5,5.7-3.29,8.23,1.64-.08,2.15.75,2.3-.43.24-1.77.44-6.55,1.15-8.19M432.43,488.89c-1.16,1.84-2.13,3.83-2.57,5.96s-.31,4.42.65,6.37c-.68-2.54-.25-5.24.19-7.84.08-.5.18-1.02.49-1.41M432.25,489.33c-2.78,3.42-3.53,8.93-1.77,12.97-.39-.26-.39-1.29-.41-1.76-.09-2.5.99-5.11.9-7.41M427.83,500.13c-1.61.69-2.66,2.26-3.6,3.74-1.15,1.8-2.29,3.59-3.44,5.38.73-1.51,2.22-2.63,2.57-4.27M422.01,509.07c.85-.92,1.5-2,2.15-3.06.8-1.33,1.6-2.64,2.39-3.97M431.38,514.93c.8-.94,1.37-2.22,1.23-2.01.74-2.42.91-4.9.35-7.26-.2-.86-.55-1.72-1.19-2.33-.98-.95-2.45-1.14-3.8-1.28-.81-.08-1.9,1.06-2.61,1.93,2.45-2.3,7.68-2.85,8.26,2.68-1.01-1.89-3.44-6.52-5.25-5.54-1.28.69-2.87,1.42-3.79,2.55M430.11,491.81c-.2,1.38-.36,2.77-.28,4.16.14,2.29,1.86,5.31,3.24,7.15M433.63,488.44c-1.57,2.59-2.93,5.3-4.05,8.11M431.09,492.94c1.51-2.88,2.86-5.85,4.02-8.89M431.13,493.39c.74-1.17,1.47-2.35,2.18-3.55-.09.17-.16.33-.25.5.27-.41.53-.82.79-1.23-1.15,1.31-2.14,2.76-2.91,4.31,1.07-1.65,2.11-3.31,3.12-5.01-1.43,2.33-2.93,4.61-4.49,6.86,1.73-2.7,3.37-5.44,4.92-8.23-2.2,2.63-3.92,5.66-5.05,8.89.93-3.21,2.55-6.22,4.73-8.75-1.77,2.37-3.2,5-4.2,7.77,1.4-2.87,2.82-5.78,4.92-8.18-.45.19-.75.63-1.02,1.04-1.72,2.65-3.24,5.44-4.55,8.32,2.22-3.43,3.07-7.73,5.83-10.74-2.33,3.72-4.37,7.62-6.09,11.66,1.3-2.75,2.6-5.51,3.9-8.26l-4.04,6.54M448,532.04h-.5M447.15,531.91c.35.19.8.18,1.14-.05-.6.33-1.41.23-1.91-.24.46.36,1.04.56,1.62.55M448.45,532.16l-1.84-.52c.28.31.75.44,1.14.32M448.54,531.87l1-.17M432.06,492.02c.85-.77,1.41-1.64,1.87-2.59.61-.55,1.24-1.11,1.98-1.47-.88.39-1.63,1.05-2.14,1.87.7-.83.77-2.21,1.46-3.04-.7.37-.65,1.51-.97,2.22l1.71-2.1M420.44,510.7c.43-.38.87-.77,1.3-1.14.17-.16.35-.31.45-.53.17-.41.06-1.03.47-1.19-.81.98-1.6,1.98-2.37,3M419.84,511.1c1.17-.92,2.22-2.01,3.09-3.22M432.91,491.36c-2.01,3.29-2.22,8.62-.7,11.96M430.33,495.69c.36,2.74,1.44,5.95,2.91,8.29M291.73,359.96c-1.4-1.87-1.33-4.17.28-6.44,2.85-3.45,6.2-6.26,10.16-8.34,3.96-2.08,8.38-2.45,12.51-1.24.14.04.29.09.43.14.09.02.17.06.23.12.06.07.08.16.08.26.09,1.08-.31,2.17-.96,3.04s-1.18,1.77-2.48,2.07c-1.28.74-2.72,1.27-4.2,1.31-1.45.04-2.9-.41-4.17-1.14-2.82-1.27-3.2-3.76-3.62-7.34-.04-1.55.72-2.41,1.74-3.13.95-.68,1.89-1.38,2.87-2.02.81-.54,1.67-1.02,2.59-1.32,1.02-.33,2.17-.4,3.18.03.85.36,1.65,1.08,1.03,2.04-.63.97-1.9,1.04-2.94,1.18-.86.11-1.73.19-2.59.15-1.7-.08-3.36-.65-4.41-2.08-.48-.66-.75-1.45-1.15-2.16-.49-.86-1.04-1.69-1.65-2.48-.81-1.04-1.78-2.06-3.1-2.4-1.85-.48-3.5.79-4.7,2.07-.79.84-1.37,1.88-2.14,2.73-.63.7-1.31,1.39-2.04,2-1.49,1.25-3.27,2.13-5.23,2.32M320.86,382.13c5.1-6.07,6.86-13.71,3.23-20.74-3.61-7.8-12.3-.36-18.51,1.76-3.1.67-5.44,2.14-8.86.72M321.53,378.53c.06,0,.05-.12,0-.1M321.3,379.43c2.58-3.85,4.01-8.47,4.08-13.11-.08,4.93-1.51,9.84-4.1,14.04-.47.75-1.09,1.56-1.99,1.63.69-1.54,1.74-2.92,3.05-3.99-1.61,1.04-3.21,2.09-4.83,3.12,2.19-.34,4.13-1.69,5.53-3.42,1.4-1.73,2.29-3.8,2.98-5.91l-1.64,3.94c1.32-3.32,2.65-6.91,1.83-10.39l-.11,4.68M322.38,375.99c-.51,2.17-2.15,4.03-4.23,4.83,1.47-.28,2.76-1.22,3.69-2.41s1.5-2.6,1.92-4.03c1.35-4.58,1.21-9.57-.4-14.06.97,2.27,1.49,4.73,1.5,7.2M323.64,361.91c.16-.75-.23-1.52-.76-2.08-1.06-1.11-2.64-1.6-4.17-1.61s-3.04.42-4.48.91M323.23,362.54c-.3-1.14-1.17-2.08-2.17-2.7s-2.13-.54-3.26-.9c-.44-.14-.9-.75-1.37-.76-1.44-.06-2.64,1.04-3.63,2.09M324.62,371.18c.96-1.78.61-3.98-.07-5.89-.32-.89-.71-1.79-1.3-2.53-.82-1.03-1.96-1.75-3.09-2.44-.68-.42-1.63-.64-2.41-.83-.99-.25-1.79-.3-2.78-.05-1.83.45-3.59,1.19-5.18,2.2M326.63,371.28c.13-2.53-.08-5.15-1.12-7.46-1.04-2.31-3.02-4.3-5.49-4.89-1.12-.27-2.28-.23-3.42-.11-4.01.44-7.98,2.11-10.69,5.11,2.29-1.9,4.76-3.61,7.36-5.07.87-.49,1.92-.96,2.82-.52M324.25,371.35c-.53,2.03-1.37,3.97-2.47,5.74.27-.39.59-.76.94-1.09M316.32,379.48c1.24.6,2.72-.04,3.87-.81.78-.54,1.54-1.14,2.21-1.8.47-.46.95-1.11.71-1.71M316.55,378.82c.15.54.9.55,1.44.42,2-.48,3.87-1.45,5.41-2.82M316.76,378.6c.7.57,1.75.49,2.58.13s1.56-.93,2.39-1.3c.91-.41,1.99-.6,2.61-1.38M316.79,378.76c1.54.34,3.13-.27,4.47-1.12s2.5-1.92,3.89-2.67M316.97,378.66c.24.39.83.18,1.22-.06.73-.45,1.45-.9,2.18-1.34,1.41-.88,2.84-1.75,4.05-2.89M319.36,377.81c-.59.63-1.63.37-2.45.61-.74.21-1.32.83-2.05,1.08-.72.26-1.58.15-2.18.61-.26.19-.44.46-.61.73-.97,1.51-1.79,3.1-2.47,4.75M316.99,378.18c-.28.3-.76.2-1.17.2-.6,0-1.16.27-1.69.56-2.09,1.16-3.99,2.66-5.59,4.44M321.19,359.3c-1.36-1.33-3.48-1.82-5.28-1.21-.04-.19.26-.26.45-.23.83.16,1.63.45,2.35.87M320.12,358.99l-.24-.13M322.53,359.94c-.54-.97-1.57-1.6-2.63-1.91s-2.2-.32-3.32-.33c-.48,0-.99,0-1.41.24,2-.53,4.08.37,5.96,1.25M302,363.66c1.07.56,4.06.23,4.67-1M299.93,364.61c1.02.18,2.07.35,3.09.21s2.06-.65,2.58-1.56M295.1,364.45c.31.17.68.2,1.03.21,2.72.09,5.45-.09,8.13-.56M302.98,364.91c-.02.23.28.34.5.26s.36-.26.56-.36c.2-.11.44-.13.66-.21.83-.31,1.21-1.52,2.1-1.51M304.62,364.38c.5.95,2.74-1.73,3.06-2.11M292.36,361.38c.81.32,1.11,1.29,1.73,1.91,1.24,1.25,3.36.81,4.96,1.52M295.4,363.66c1.16.84,3.46,1.49,4.87,1.6M291.19,354.26c-1.14,1.72-.34,1.11-.54,1.65-.41,1.14,0,2.4.46,3.53.37.91.76,1.81,1.19,2.69M295.52,350.29c.09-.17-.49.63-.69.63s-.36.13-.51.25c-.84.7-1.57,1.53-2.18,2.44M296.79,348.93c-1.75,1.32-3.98,3.01-5.23,4.85M299.98,347.47c-1.14.27-2.23.77-3.18,1.46-1.31.95-2.35,2.21-3.38,3.47M293.71,351.75c-1.44,1.81-2.26,4.1-2.34,6.41-.02.66.02,1.33.22,1.96.37,1.18,1.28,2.13,2.26,2.9,1.55,1.23,3.51,2.15,5.47,1.85M290.53,355.55c-.56,1.52-.21,3.25.55,4.69,1.45,2.76,4.45,4.65,7.57,4.77,1.35.05,2.69-.2,4.01-.45l2.63-.5M299.41,364.02c3.32.3,7.08-.83,9.82-2.68,1.61-1.08,4.34-4.08,6.48-3.43M320.63,359.58c-1.68-1.03-3.83-1.1-5.75-.62s-3.67,1.45-5.4,2.41l-5.27,2.94M323.62,361.67c.21-.3.17-.72,0-1.06s-.46-.58-.73-.82c-.96-.84-1.97-1.71-3.21-1.98-.42-.1-.84-.12-1.26-.2-.39-.08-.77-.21-1.16-.27-1.45-.22-2.88.52-4.05,1.43M314.61,359.09c-.73.86-1.92,1.12-3.02,1.4-2.06.52-4.06,1.27-5.94,2.25-.44.23-.88.48-1.24.82-.24.24-.43.52-.69.73-.46.39-1.1.55-1.69.42M293.51,363.1c.98.98,3.24,2.9,4.67,2.74,1.05-.12,4.14-.29,4.81-.58.19-.09.84-.46,1.04-.47.38.01,1.84-1.08,2.12-1.33.43-.4-2.58.83-2.39.27M299.61,364.11c1.15.59,2.46.28,3.61-.15M310.96,350.36c2.1-.75,4-2.01,5.53-3.64-.82,1.97-2.76,3.32-4.82,3.85s-4.25.37-6.34-.01c-1.02-.18-2.04-.42-2.98-.85-.55-.26-1.13-.66-1.17-1.27,3.34,1.89,7.4,2.48,11.15,1.61,1.22-.28,2.43-.73,3.33-1.59.89-.83,1.41-2.18.94-3.3-.23-.55-.68-1-1.19-1.32-1-.64-2.22-.87-3.4-.95-3.73-.23-7.46.89-10.72,2.73-3.26,1.84-6.05,4.39-8.58,7.15M301.23,339.31c-1.67,1.58-1.86,3.54-1.25,6.95M299.55,364.05c2.14,0,4.29-.46,6.24-1.34.81-.37,1.59-.81,2.37-1.24,2.4-1.35,4.8-2.71,7.21-4.06M302.32,363.83c4.92-.59,9.57-2.69,13.15-6.12M299.33,347.66c-.21.24-.38-.27.02-.57.06-.05-.25.08-.23.15,1.14,1.11,1.62,1.63,2.6,2.13-.16-.09-.61-.63-.77-.72M306.12,335.59c-1.43.38-2.67,1.71-3.82,2.41-.55.34-1.1.69-1.52,1.18s-.76,1.28-1.04,2.09M311.65,336.35c-.24-.47-.49-.94-.97-1.02-.23-.04-.47-.03-.7-.02-2.42.13-4.79.87-6.87,2.13-.56.34-1.11.72-1.47,1.25M302.29,339.04c.7.58,1.59.94,2.5,1.03.41.03.66-.36,1.06-.4M305.18,339.98c1.4-.1,3.32-.32,4.64-.79.95-.34,1.98-.88,2.02-2.01.02-.59-.28-1.15-.74-1.52-.98-.79-2.25-.74-3.41-.49-2.52.52-4.86,1.83-6.6,3.72M302.18,364.69c-1.42-.17-3.36-.54-5.18-.39M300.17,363.99c1.67.05,3.9-.13,5.55-.53M294.4,351.3c-1.43,1.53-2.61,3.18-2.93,5.57M300.96,363.32c-.48.07-.98.1-1.46.09-.01-.01-.05-.02-.13-.02-.02,0-.05,0-.08,0h-.14c-1.5-.08-2.97-.51-4.29-1.25-.88-.62-1.73-1.33-2.14-2.35-.08-.16-.61,0-.56.13.07.18.16.34.25.51-.13.05-.23.12-.17.18.62.72,1.34,1.32,2.14,1.81-.15.04-.29.12-.23.16.26.18.53.33.8.47-.04.01-.1.03-.14.04-.05.03-.19.12-.06.16,1.43.45,2.93.6,4.43.45.04,0,.14-.04.22-.09.48,0,.97-.02,1.45-.1.07-.01.31-.05.33-.15,0-.1-.16-.08-.23-.07h0s0,.01,0,.01ZM282.22,338.95c-.4.04-1.21.07-1.93.03s-1.66-.48-1.19.05c.3.34,1.2.56,1.59.62.89.15,1.9-.36,2.14-.41.47-.1-.22-.32-.6-.28h0ZM326.24,362.76l-1.6-2.66c-.05-.09-.27-.06-.41,0-.03-.04-.05-.1-.08-.13-.1-.15-.65.01-.52.2.05.09.1.17.15.25.08.26.23.47.41.67.37.62.73,1.25,1.1,1.88.05.1.28.06.42,0h0c.1.16.63,0,.52-.2h0ZM320.06,356.65c-.83-.38-2.03-.33-2.87-.04-.38.13-.7.37-1.02.61-.38.29-.9.68-1.09,1.13-.2.49.14,1.07.32.53.5-1.49,1.48-1.83,2.91-1.43.64.18,1.25.48,1.91.61,1.22.23.48-1.1-.16-1.41h0ZM313.39,349.01c-.11-.07-.32-.05-.44-.01-1.2.35-2.42.65-3.65.91-.09.02-.29.09-.25.2,0,.01.02.02.03.03h-.01s-.06.02-.1.03c-.05.02-.12.05-.15.1-.01,0-.04,0-.05.01-.09.02-.32.1-.24.23.08.12.38.06.48.04.65-.15,1.3-.26,1.96-.39.56-.11,1.12-.27,1.62-.55.15-.03.29-.07.44-.1.09-.02.32-.1.24-.23,0,0-.01,0-.02-.02.03-.02.07-.04.1-.06.09-.05.13-.13.03-.19h0ZM313.41,343.38s-.04.04-.07.04c0,0,0,.01-.02.02-.03.03-.06.05-.1.06-.02,0-.05.01-.08.02-.06.01-.13.01-.19,0-.03,0-.07,0-.1-.01-.04,0-.09-.02-.13-.03-.04,0-.06-.02-.1-.05-.02-.02-.04-.03-.04-.06,0-.02,0-.04,0-.06,0,0,0-.01.02-.02h0s.03-.04.05-.05c0,0,.01,0,.02-.01.01,0,.04-.02.07-.03.01,0,.03,0,.04-.01.01,0,.03,0,.04-.01.06-.01.13-.01.19,0,.03,0,.07,0,.1.01.06,0,.12.03.17.05.02,0,.04.02.06.03.02.02.04.03.04.06,0,.02,0,.04,0,.06h0s.02,0,.02,0ZM299.65,364.81c-.05.05-.16.08-.23.09-.1.01-.2.02-.3,0-.02,0-.04-.02-.06-.02-.14.03-.29.03-.42-.01h0c-.08,0-.15,0-.23,0-.12,0-.24-.02-.34-.09-.08-.05-.12-.13-.04-.21.11-.11.3-.14.44-.14.09,0,.17,0,.25.04.07-.03.15-.06.24-.08.16-.02.36-.03.51.05.03.02.05.04.06.06h.02s.05.04.06.07c0,0,0,.01-.02.02,0,0,0,0,.01.01.04,0,.08.02.1.05.04.04,0,.09-.03.12h0s0,.02,0,.02ZM324.25,368.06c.01-.13-.52-.02-.56.1-.35,1-.35,2.08-.47,3.11-.06.29-.13.58-.19.87-.02.01-.04.03-.05.05l-.11.22s0,.04.03.05c-.06.22-.12.43-.18.66,0,.04.02.07.06.08-.06.12-.12.24-.19.35-.19.36-.41.7-.65,1.02-.38.52-.79,1.01-1.21,1.5-.04.03-.08.06-.12.1-.02.01-.04.03-.07.04-.13.09-.26.17-.39.25-.31.13-.63.24-.96.34-1.02.33-2.07.59-3.12.84h-.07c-.11-.01-.19,0-.21.07-.35.08-.7.17-1.04.25-.15.03-.03.17.02.23.13.11.32.16.48.16.47.01.93-.02,1.39-.08.04.02.09.02.12.02.02,0,.04,0,.06-.01h.01c.53-.07,1.04-.17,1.56-.29,1.08-.15,2.12-.51,3.08-1.06.11-.06-.1-.2-.32-.29.78-.36,1.51-.82,2.07-1.5.14-.17-.43-.44-.63-.35.03-.04.07-.09.11-.14.24-.33.45-.67.64-1.02.19-.37.44-.78.46-1.2,0-.09-.13-.15-.27-.18.1-.34.17-.69.21-1.04.21-1.02.37-2.06.47-3.1h0v-.03s.02-.01.02-.01v-.03ZM321.52,361.19c-.56-.32-1.11-.63-1.67-.95.15.08.32.14.49.1s.28-.26.18-.4c.31.06.64-.04.85-.28-1.51-.92-.3.11-2.04.39,2.33,1.35-1.16-.37-.83-.24-.24-.14-1.04-.02-1.23.17.42.08-1.71-.28-1.29-.2-1.42-.21-1.08-.38-2.38.23.15.12.36.16.54.1-.24.3-.69.41-1.04.25.22-.18.37-.44.42-.72-2.41.96-4.56,2.46-6.82,3.73-1.51.85-3.11,1.59-4.81,1.98-1.81.41-3.61.25-5.44.02-.57-.07-1.15-.14-1.66-.4-.75-.38-1.17-1.08-1.68-1.71-.61-.75-1.26-1.46-1.86-2.22-.68-.86-.93-2.11-1.28-3.13-.23-.67-.17-1.29,0-1.98.09-.33.29-.72.63-.72.07,0,.42-.68.48-.77.18-.26.36-.51.55-.75.38-.49.8-.95,1.24-1.38.44-.42.9-.81,1.39-1.18.48-.37.61-.88,1.07-1.28-.14.12.13-.19.19-.29.06-.13.18-.22.29-.3.53-.41,1.05-.82,1.58-1.23.24-.19.47-.41.73-.57.23-.15.29-.05.51.07-.14.14-.29.29-.43.43.57.19,1.21.06,1.75-.22.54-.27.8-.82,1.28-1.19,1.8-1.37,4.11-2.13,6.25-2.85-.1-.19-.37-.16-.58-.11-1.3.32-2.56.76-3.78,1.3-.62.28-1.23.58-1.82.91-.3.16-.59.33-.88.51-.17.11-.38.25-.58.28-1.01.18-.5-4.21-.4-4.82.13-.74.39-1.46.77-2.1.11-.19.47-.9.7-.94.16-.03.27.12.41.16.19.05.4.03.58-.06-.25-.24-.43-.55-.51-.88,0-.03-.02-.07,0-.1.01-.03.05-.06.08-.07.16-.1.43-.19.49-.38-.04-.03-.09-.04-.14-.04-.27,0-.55.04-.8.15.11-.04-1.27-2.5-1.41-2.71-.57-.88-1.24-1.67-1.9-2.48-.28-.34-.46-.74-.72-1.09-.31-.4-.35-.56-.83-.7-.15-.05-.16-.07-.26-.2-.16-.21-.77-.18-.52-.09,1.64.6,2.67,2.56,3.54,3.92.68,1.05,1.35,2.1,1.98,3.17.04.07.52.81.44.88-1.23.92-1.9,1.82-2.21,3.32s-.29,2.78.39,5.14c-1.1.71-3.5,1.41-4.43,2.34-.92,1.09-1.95,1.93-2.84,2.95-1.08,1.23-2.23,2.43-2.67,4.04-.49,1.83-.69,3.66.06,5.46,1.42,3.4,5.22,5.45,8.8,5.55.75.02,1.51-.04,2.24-.19,3.59-.74,6.49-3.32,9.82-4.88,3.44-1.61,7.53-2.09,11.07-.71-.02-.01-.05-.03-.07-.04ZM434.48,488.84c-.32.36-.6.71-.88,1.09-.19,0-.42.04-.48.15-1.66,3.01-3.67,6.42-3.68,9.93,0,.19,1.07-.11,1.08-.35,0-.16.02-.31.03-.47.1-.02.16-.06.16-.13-.14-1.93.89-3.85,1.67-5.56.75-1.64,1.63-3.22,2.84-4.57.13-.13-.58-.29-.73-.12h-.01s0,.01,0,.01Z" fill="none" stroke="#000" stroke-miterlimit="10" stroke-width=".73"/>
        <path d="M328.24,365.15c-.1-.41-.23-.81-.39-1.19-.04-.13-.09-.24-.13-.37-.18-.55-.22-1.13-.44-1.67s-.53-1.08-.85-1.58c-1.28-1.98-3.43-4.01-5.8-4.51-.54-.12-1.11-.22-1.67-.18-3.25.28-5.79,2.14-8.6,3.57-2.42,1.23-4.92,2.33-7.52,3.13-.62.12-1.27.48-1.89.49-.55.19-.4.03-1.49.26-.05.06-.08.12-.09.17-.32.07-.63.19-.76.38-.24.36.19.36.51.34,4.16-.23,8.21-1.32,11.96-3.18.07-.03.15-.06.22-.1.38-.19.29-.32,0-.45-.3-.12-.82.02-1.21.15-.06-.02-.14-.04-.22-.04,1.09-.51,2.15-1.04,3.22-1.59.67-.36,1.34-.72,2.01-1.09.32-.17.65-.44.99-.56.41-.15.47-.13.78.23.16.19.75.12,1.26-.04.18.12.42.17.65.18.14.14.33.24.53.28,1.47.35,2.65,1.5,3.52,2.71-.06.03-.13.08-.18.11-.59-.67-1.33-1.25-2.19-1.65-.53-.26-2.05.17-1.79.97.43,1.39,1.49,2.28,2.37,3.37.56.7.83,1.46.95,2.25,0,.11,0,.2.04.28.09.83.03,1.7-.04,2.58-.21,2.76-.28,7.39-3.19,8.87-.1.05-.19.11-.27.17.17-.42-.27-.62-.64-.64-.64-.04-1.26.03-1.85.19-.21.03-.41.09-.54.13-.07.02-.14.05-.21.07-1.63.45-3.14,1.25-4.43,2.37-.85.73-1.62,1.57-2.4,2.38-1.01.82-1.88,1.77-2.46,2.97-.02.02-.03.04-.03.06-.02.06-.06.11-.09.17-.19.43.59.56.82.56.46,0,1.07-.17,1.34-.57.49-.73,1.05-1.42,1.64-2.09.27-.04.54-.13.74-.26.7-.44,1.21-1.02,1.72-1.63.25-.15.5-.29.74-.44.24-.14.44-.39.42-.61.16-.13.31-.28.49-.42.6-.46,1.32-1.05,2.1-1.35.46-.12.93-.19,1.42-.21.28-.01.68-.13.96-.33-.28.61,3.23,2.67,4.09,2.23,2.27-1.17,2.42-1.6,2.98-3.9.39-.11-.05-3.71,0-4.13.26-1.98.11-1.45.09-3.45.05-.71.07-1.3.06-2.01.24.44-.07-1.52.17-1.09.08.13.22.23.37.29.33,1.07,2.51.56,2.24-.58Z" fill="#000" stroke-width="0"/>
        <path d="M312.56,349.96c-.84.32-1.77.42-2.64.59-.84.16-1.74.4-2.6.42-1.63.05-3.12-.87-4.5-1.62-.6-.33-2.08-1.27-2.78-1.26-.64.01-.65.08-1.26.5-1.11.76-2.06,2.09-3.01,3.03-.41.4-.8.81-1.18,1.26-.22.39-.41.8-.58,1.23-.22,1.58-.3,3.18-.18,4.77,0,.17.03.34.04.52.07.74-.01,1.03.74,2.07.4.55,1.5.77,2.1.96,1.23.4,2.47.74,3.72,1.08.93.26,1.87.52,2.79.82.3.1,1.96.55,1.17.97-1.36.72-3,1.27-4.54,1.41-1.13.11-2.2-.1-3.32-.2-.93-.08-1.88-.18-2.69-.69-.43-.27-.78-.65-1.17-.98-.44-.37-.98-.57-1.43-.94-.67-.55-.99-1.51-1.25-2.3-.28-.85-.53-1.71-.6-2.59-.12-1.5.53-2.71,1.15-4.03.55-1.17,1.23-2.29,2.14-3.21.66-.67,1.42-1.27,2.13-1.86.49-.41.99-.8,1.5-1.17,1.02-.75,2.09-1.44,3.2-2.06.77-.43.71-1.43,1.22-.7s2.56,2.67,3.01,2.78c2.37.62,4.57.59,7.61-.06.72-.15,2.73-.9,2.65-1.03-.27-.51.37.72-.57,1.75-.11.12-.24.23-.39.31-.16.09-.33.16-.51.23ZM316.62,346.63c0-.09,0-.18-.01-.28.02-.24.01-.48-.02-.73.02-.07.03-.13,0-.19,0-.01-.01-.04-.01-.05-.02-.39-.03-.79-.05-1.18,0-.18-.3-.32-.43-.35-.11-.03-.23-.04-.36-.04-.24-.33-.54-.59-.95-.71-.04-.02-.11-.01-.16-.02-.06-.02-.12-.05-.18-.06-.33-.07-.65-.08-.98,0-.17.04-.33.11-.48.18-.1-.23-.39-.37-.67-.41-1.13-.17-2.26-.02-3.37.21-.99.21-1.97.45-2.95.68-.18.04-.43.14-.62.29-.06.01-.12.03-.18.04-.22.04-1.1.25-1.05.59.04.23.58.18.93.11.18.44.88.45,1.26.37.91-.21,1.82-.43,2.73-.63.97-.21,1.98-.22,2.97-.24.15,0,.3,0,.45.03.12.02.24.07.35.12.43.18.9.41,1.13.83.31.57.4,1.31.24,1.94-.09.36-.5,1.04-.23,1.39.13.17.41.27.61.29.29.02.61-.01.88-.13.21-.1.51-.25.6-.48.15-.37.3-.75.41-1.13l.05-.06c.07-.11.1-.22.08-.36ZM284.25,337.59c-.18.1-.08.04,0,0h0ZM288.73,335.59c.01-.22-1.74,1.1-1.95,1.12-.31.03,0-.34-.19-.09-.41.5-2.01,1.11-2.66,1.42-.65.31-1.49.25-2.12.61-.1.06-.2.12-.26.21-.19.28.18.43.21.69.03.22-.76.4-.55.47s1.44.04,1.66,0c1.26-.2,2.39-.89,3.4-1.67.27-.21.46-.48.67-.74.49-.61,1.79-1.9,1.8-2.02Z" fill="#000" stroke-width="0"/>
        <g>
          <path d="M428.68,515.46c-.15-.03-.08,0,0,0h0Z" fill="#000" stroke-width="0"/>
          <path d="M433.4,512.85c.4-.9.62-1.85.76-2.83.14-.98.22-2.87.2-3.86-.28.65-.51,2.15-.72,2.83-.2.63-.06,1.3-.26,1.93-.17.53-.35,1.05-.54,1.56-.02.06-.05.13-.1.18-.18.18-.04.58-.27.67-.26.1-.34.64-.5.86-.26.37-.74.43-1.15.53-.49.11-.96.32-1.45.4-.82.13-2.43.41-2.71-.7-.11-.43.28-1.27.67-1.48-.56.41-1.3,1.32-1.28,2.01.02.57.45,1.06.98,1.29s1.11.2,1.68.13c2.39-.3,3.87-1.64,4.7-3.52Z" fill="#000" stroke-width="0"/>
        </g>
        <path d="M452.01,529.93c.12-.22.21-.43.27-.66.03-.12-.16-.11-.24-.11-.07.01-.15.02-.21.06-.04.02-.1.06-.11.11,0,.01-.02.03-.02.05-.04.02-.1.05-.13.1-.05.09-.13.18-.18.28-.07.03-.13.08-.16.14,0,.01-.02.03-.02.04h0c-.14.11-.29.21-.44.3-.06.02-.12.05-.16.1,0,0-.02.02-.02.03-.71.45-1.47.79-2.3,1-.1.03-.27.11-.24.23.03.12.23.12.32.1.13-.03.26-.08.38-.12-.07.04-.15.09-.22.12-.1.06-.22.18-.14.29.06.09.19.11.3.1.06,0,.13,0,.16,0,.18-.03.37-.08.56-.14,0,0-.02.02-.03.02h0s-.05.03-.09.05h0s-.04.01-.05.03c-.02.01-.06.03-.1.03h-.01s-.03,0-.05.01c-.06.01-.12.03-.18.04h-.01c-.13-.03-.28,0-.4.05-.04.01-.14.09-.11.13,0,.01-.02.02-.02.04-.1.01-.19.04-.27.09-.1.08-.06.16.05.19.45.13.96.09,1.39-.1.22-.1.42-.21.58-.39.04-.04.07-.09.1-.14h0c.32-.13.62-.32.88-.56.44-.43.72-.99.93-1.56h-.02s0,.01,0,.01Z" fill="#000" stroke-width="0"/>
        <path d="M426.95,455.61c.06-1.15.03-2.34-.14-3.56-1.01-7.43-5.44-14.09-9.86-19.93-16.18-21.36-41.77-35.24-67.96-39.67-2.01-.34-4.13-.62-6.05.06-2.66.93-4.4,3.49-5.52,6.06-4.44,10.27-5.33,12.47-9.02,19.33-2.22,4.13-15.29,7.03-16.06,8.12-2.91,4.14.31,12.1-1.87,14.32-1.44,1.47-5.42,5.59-10.84,7.16-8.63,2.49-11.76-.43-15.77.57-3.72.93-2.81,9.72-6.62,11.62-6.9,3.44-12.7,3.09-15.39,3.5-6.31.95-9.13-5.06-15.47-4.41-4.52.46-5.44,7.93-9.98,7.82-9.5-.22-9.72-1.33-28.5-7.58-.84-.28-2.29-6.86-6.03-8.4-2.54-1.04-4.9,2.1-7.11.92,0,0-4.48-2.39-8.57-6.37-.95-.92-1.73-1.84-2-3.14-.31-1.47.53-2.57-.61-6.03-2.11-6.44-5.95-1.28-8.52-5.2-4.3-6.58,1.6-16.32.19-17.91-2.45-2.77-2.52-7.77-2.58-8.32-.52-4.85,3.97-6.71,5.42-10.92,1.08-3.16,11.01-7.26,7.05-10.83-4.83-4.34-9.83-3.09-12.43-.18-2.35,2.64-11.49,5.94-14.89,14.23-1.56,3.8-8.52,3.25-9.58,5.56-1.09,2.37.79,4.26,1.12,8.32.5,6.18-1.57,15.77-3.42,19.86-1.98,4.37-5.87,1.29-4.83,7.46.59,3.48,3.47,9.3,7.02,14.55,4.95,7.31,5.77,12.32,11.77,23.88.79,1.53-.85,11.37,2.37,12.76,1.71.74,3.42,3.09,5.29,3.15,3.92.12,7.39,1.79,10.13,3.53,10.08,6.39,16.5,10.79,23.48,14.36,6.13,3.15,20.91,6.46,20.46,10.04-.22,1.77,1.02,6.59,8.14,8.89,3.63,1.17,10.07-2.32,15.47-3.58,4.38-1.02,19.24,4.69,55.27.68.73.86,1.9,1.97,3.53,3.03,1.53.99,3.34,1.8,5.22,1.93,2.02-1.22,6.94-1.11,9.04-4.93,4.59-8.32,17.67-8.43,21.13-9.96,24.12-8.87,29.72-11.94,37.31-15.27,3.95-1.73,10.36,1.46,13.54.03,11.36-5.1-5.34-9.22,17.7-21.7,11.94-6.47,18.42-14.2,18.98-23.9h0s0,.04,0,.04ZM198.19,465.92c.07-.04.14-.09.21-.13" fill="url(#radial-gradient)" stroke-width="0"/>
        <path d="M301.64,386.6c-4.94-.15-5.18,7.54-.23,7.69,4.95.15,5.18-7.54.23-7.69Z" fill="url(#radial-gradient-2)" stroke-width="0"/>
        <path d="M382.14,488.01c-.15-.82-.53-1.45-1.04-1.91.47-.74.65-1.72.36-2.9-.98-3.96-2.08-7.93-4.55-11.25-1.84-2.48-4.02-4.38-5.66-6.78-.68-1.54-1.4-3.07-2.16-4.57-.66-1.28-1.83-1.86-3.05-1.91-2.01-2.61-4.11-5.15-6.38-7.55-4.21-4.47-8.99-8.56-14.34-11.62-.49-.28-1-.55-1.51-.82-1.69-1.22-3.45-2.33-5.28-3.18-2.71-1.25-6.06-1.91-9.44-2-1.41-.38-2.99-.36-4.72-.12-.53.08-.99.28-1.38.56-1.25.23-2.46.53-3.56.92-1.51.52-2.58,2.13-2.81,3.7-.82-.18-1.72-.12-2.61.31-2,.95-3.76,2.13-5.44,3.53-1.01-.03-1.99.37-2.68,1.32-.24.22-.47.45-.67.76-.48.07-.95.22-1.39.45-.94.17-1.88.34-2.82.48-3.64.55-3.91,6.73-.22,7.41.62.11,1.2.17,1.76.2.51.68,1.25,1.15,2.07,1.37.34.44.76.82,1.21,1.11v.28c-.08,1.76,1.16,3.13,2.67,3.68,1.27,2.75,2.81,5.35,4.19,8.09,2.38,4.73,4.21,9.68,5.51,14.8,2.63,10.31,2.36,20.69,2.21,31.24-.01.43.06.83.15,1.18-.45.4-.82.89-1.08,1.43-2.17,2.86,1.81,6.96,5.23,5.43.09-.03.17-.08.26-.12.41-.18.76-.48,1.05-.83,8.39-2.67,16.78-5.32,25.17-8.02,3.69-1.18,7.28-2.45,10.67-4.35,3.3-1.85,7.12-1.72,10.3-3.69.14-.09.27-.17.39-.27,8.81.3,10.85-9.48,9.59-16.37h0s0,0,0,0ZM341.38,450.29c.05-.36.06-.71.03-1.04.25.09.5.16.74.25-.29.23-.55.49-.78.8h0s0,0,0,0ZM354.08,473.37c-.11,0-.2.02-.31.03.14-.39.27-.78.37-1.17-.02.38-.04.76-.06,1.14h0Z" fill="url(#radial-gradient-3)" stroke-width="0"/>
        <path d="M172.65,420.21c-.72-2.52-3.86-3.53-5.85-2.38-1.21-.89-2.58-1.53-4.02-2.03-2.02-.68-5.06-.64-6.59-2.25-2.77-3.56-7.07-2.23-6.64,2.52-.25,5.67-2.45,11.24-1.48,16.98-.12,2.09,1.58,4.73,2.65,6.62,1.41,2.51,4.29,2.31,5.97.86.73.4,1.45.87,2.33.99.92.12,1.66-.05,2.39-.32,4,.77,9.24-.62,11.6-4.04,3.5-5.08,1.19-11.63-.34-16.96h0s-.01,0-.01,0Z" fill="url(#radial-gradient-4)" stroke-width="0"/>
        <path d="M177.63,389.02c-.81-.8-1.38-1.49-1.94-2.47-.98-1.7-2.39-3.77-4.17-2.62-1.78,1.15-4.47,3.58-5.91,5.12-.86.92-1.72,1.85-2.43,2.89-.34.5-.65,1.04-.87,1.61-.22.58-1.11.67-1.39,1.21-.58,1.1-1.23,2.01-2.3,2.4-1.27.47-2.27,1.14-2.88,2.39-1.79,3.67,2.42,7.13,5.13,5.63.39.35.88.65,1.51.85,3.45,1.06,7.98,3.26,10.33-.77.97-1.65,1.46-3.63,2.23-5.38.94-2.12,2.04-4.16,3.18-6.18.83-1.46.77-3.45-.48-4.68Z" fill="url(#radial-gradient-5)" stroke-width="0"/>
        <path d="M308.47,441.62c.71-.82,2.1-.65,5.36-2.28,3.42-1.72,10.63-.96,14,.86s6.06,5.07,6.68,8.85-1.57,9.24-4.96,11.04c-2.87,1.53-6.68,3.05-9.95,2.09-4.43-1.29-6.14-3.29-7.79-6.9-1.07-2.34-.69-4.15-.24-6.06.43-1.81,1.23-2.6,1.51-2.89,1.94-2.07,4.38-2.52,7.11-2.29,3.54.29,6.18,1.87,7.13,3.64,2.74,5.12-2.09,7.49-3.72,7.85-4.42.97-4.84-3.17-4.46-3.43" fill="none" stroke="#212120" stroke-linecap="round" stroke-miterlimit="10" stroke-width="2.19"/>
        <path d="M334.51,449.04c.16,1.94.18,4.12-.18,6.04-.9,5-3.51,9.77-3.2,14.85.22,3.55,2.01,7.03,4.91,9.08s6.41,2.28,9.81,1.24c2.09-.65,2.73-.58,4.99-1.84,1.42-.8,3.81-2.6,4.57-4.06,2.11-4,1.91-8.69-1.56-11.58-2.25-1.88-3.5-2.23-5.79-2.31-.95-.03-3.25.87-5.04,1.89-2.22,1.25-3.3,2.79-4.06,5.23-.76,2.44.54,5.07,2.77,6.32,3.82,2.15,8.59-3.63,3.47-5.67" fill="none" stroke="#212120" stroke-linecap="round" stroke-miterlimit="10" stroke-width="2.19"/>
        <path d="M344.09,480.68c5.44-.07,10.75.55,15.6,3.03,1.53.79,3.42,2.52,4.33,4.33,1.72,3.44,1.96,6.24.31,10.29-1.45,3.57-9.04,10.18-14.35,10.47-8.19.44-12.43-3.84-13.42-10.16-.64-4.1.92-6.14,2.85-8.23,2.47-2.69,8.09-4.26,11.85-2.96,4.7,1.63,5.13,7.12,3.75,10.56-1.73,4.33-9.83,4.02-8.21-2.41" fill="none" stroke="#212120" stroke-linecap="round" stroke-miterlimit="10" stroke-width="2.19"/>
        <path d="M364.24,498.49c-1.14,1.9-2.55,3.77-3.1,5.92-.21.85-.32,1.76-.06,2.59s.59,1.07,1.46,1.18c.34-.38,1.2-.72,1.7-.77,0,.19-.4.59-.24.5" fill="none" stroke="#212120" stroke-miterlimit="10" stroke-width="2.19"/>
        <path d="M246.6,470.24c-4.55-.08-10.71-1.39-13.71-4.8-.09.14-.1.31-.04.46" fill="none" stroke="#221f1f" stroke-miterlimit="10" stroke-width="1.6"/>
        <path d="M248.7,477.11c-.76.51-12.68-.87-16.17-2.22-8.51-3.31-13.58-8.96-16.14-12.63" fill="none" stroke="#221f1f" stroke-miterlimit="10" stroke-width="1.6"/>
        <path d="M245.19,493.75c-9.79-1.32-15.85-3.83-23.06-10.14-5.14-4.49-9.96-13.45-14.71-23.21.08.19-.06,2.08.02,2.27" fill="none" stroke="#221f1f" stroke-miterlimit="10" stroke-width="1.6"/>
        <path d="M242.71,506.72c-25.1-6.35-32.63-20.04-38.02-34.94" fill="none" stroke="#221f1f" stroke-miterlimit="10" stroke-width="1.6"/>
        <path d="M236.07,514.22c-1.79,3.69-15.73.27-24.65-9.43-6.1-6.63-10.97-17.06-13.9-25.41" fill="none" stroke="#221f1f" stroke-miterlimit="10" stroke-width="1.6"/>
        <path d="M193.45,506.26c-4.03-4.36-7.34-9.51-8.86-17.99" fill="none" stroke="#221f1f" stroke-miterlimit="10" stroke-width="1.6"/>
        <path d="M207.59,513.38c-3.56-3.02-9.63-10.83-11.76-14.98-2.87-5.59-3.68-8.67-4.69-13.93" fill="none" stroke="#221f1f" stroke-miterlimit="10" stroke-width="1.6"/>
        <path d="M191.41,469.09s1.62-2.98,1.44-2.98c-1.1-3.67-1.51-10.48-.47-15.39" fill="none" stroke="#221f1f" stroke-miterlimit="10" stroke-width="1.46"/>
        <path d="M188.13,472.55c-1.51-8.72-1.82-17.5,1.19-25.67" fill="none" stroke="#221f1f" stroke-miterlimit="10" stroke-width="1.46"/>
        <path d="M182.03,476.18c-1.37-10.85-.6-22.36,4.17-32.02" fill="none" stroke="#221f1f" stroke-miterlimit="10" stroke-width="1.46"/>
        <path d="M173.86,479.7c-2.69-10.62,0-22.77,5.03-33.03-.32.04-1.5.07-1.81.11" fill="none" stroke="#221f1f" stroke-miterlimit="10" stroke-width="1.46"/>
        <path d="M167.02,478.63c-2.32-9.66.54-20,4.33-29.19-.13.54-2.3,1.01-2.43,1.55" fill="none" stroke="#221f1f" stroke-miterlimit="10" stroke-width="1.46"/>
        <path d="M158.44,472.88c-.87-4.63-.59-7.37-.04-9.45,2.35-8.98,5.24-11.94,6.17-12.46" fill="none" stroke="#221f1f" stroke-miterlimit="10" stroke-width="1.46"/>
        <path d="M151.57,462.01c.16-3.28,3.14-8.56,5.44-11.26" fill="none" stroke="#221f1f" stroke-miterlimit="10" stroke-width="1.46"/>
        <path d="M192.56,463.31c.32.59.98.98,1.65.95-.06.06-.17.09-.26.05" fill="none" stroke="#000" stroke-miterlimit="10" stroke-width=".73"/>
        <path d="M192.22,464.45c.06,1.04-.05,2.11-.33,3.13" fill="none" stroke="#000" stroke-miterlimit="10" stroke-width=".73"/>
        <path d="M188.02,469.67c-.04.74.82,1.39,1.52,1.14.03.1-.05.2-.15.21" fill="none" stroke="#000" stroke-miterlimit="10" stroke-width=".73"/>
        <path d="M187.32,470c.11.32.13.67.07.99-.06.29-.2.56-.34.83-.15.29-.3.59-.46.89-.02.04-.05.1-.11.1s-.05-.1,0-.09" fill="none" stroke="#000" stroke-miterlimit="10" stroke-width=".73"/>
        <path d="M181.94,473.39c-.04.25.1.5.29.65s.44.24.68.31c.38.12.76.25,1.13.36" fill="none" stroke="#000" stroke-miterlimit="10" stroke-width=".73"/>
        <path d="M181.4,473.43c.11,1.02-.25,2.07-.95,2.82" fill="none" stroke="#000" stroke-miterlimit="10" stroke-width=".73"/>
        <path d="M175.49,477.71c-.05.03.09.07.08,0s-.1-.08-.17-.09c-.9-.01-1.78-.61-2.11-1.45.09.32-.35.97-.51,1.25-.46.85-1.14,1.57-1.96,2.08" fill="none" stroke="#000" stroke-miterlimit="10" stroke-width=".73"/>
        <path d="M166.72,477.21c.22.86,1.61,1.58,2.49,1.74" fill="none" stroke="#000" stroke-miterlimit="10" stroke-width=".73"/>
        <path d="M166.38,476.94c-.1.24-.07.51-.15.74-.05.16-.14.3-.24.45-.16.25-.32.51-.48.75-.29.44-.62.93-1.13,1.08" fill="none" stroke="#000" stroke-miterlimit="10" stroke-width=".73"/>
        <path d="M157.72,467.75l-.5.71c-.27.39-.56.78-.98.98-.14-.13-.28-.26-.42-.38" fill="none" stroke="#000" stroke-miterlimit="10" stroke-width=".73"/>
        <path d="M152.53,457.41c-.26.25-.61.5-.95.37-.33-.12-.61-.57-.93-.4" fill="none" stroke="#000" stroke-miterlimit="10" stroke-width=".73"/>
        <path d="M244.51,468.04s-.02.03-.04.04c-.41.52-.58,1.32-1.2,1.52,0,.1-.02.2-.03.3" fill="none" stroke="#000" stroke-miterlimit="10" stroke-width=".73"/>
        <path d="M245.59,476.66c.6-.3,1.17-.69,1.66-1.15.24-.23.47-.48.54-.8s-.08-.7-.38-.8" fill="none" stroke="#000" stroke-miterlimit="10" stroke-width=".73"/>
        <path d="M244.92,470.64c.33.17.67.35.91.63s1.1.46.97.79" fill="none" stroke="#000" stroke-miterlimit="10" stroke-width=".73"/>
        <path d="M244.16,493.23c.55.24,1.22.01,1.66-.38s.71-.96.95-1.5" fill="none" stroke="#000" stroke-miterlimit="10" stroke-width=".73"/>
        <path d="M245.94,477.24c.55.53,1.09,1.09,1.41,1.78s1.14,2,.72,2.64" fill="none" stroke="#000" stroke-miterlimit="10" stroke-width=".73"/>
        <path d="M239.45,505.32c.51-.01,1.03-.08,1.46-.34s1.42-.34,1.3-.82" fill="none" stroke="#000" stroke-miterlimit="10" stroke-width=".73"/>
        <path d="M243.93,493.6l.65.96c.17.25.33.49.43.77.3.88-.15,1.83-.62,2.63" fill="none" stroke="#000" stroke-miterlimit="10" stroke-width=".73"/>
        <path d="M239.11,506.05c.84.78,1.03,2.17.43,3.14" fill="none" stroke="#000" stroke-miterlimit="10" stroke-width=".73"/>
        <path d="M230.56,515.77c.38.94.36,2.03-.05,2.96" fill="none" stroke="#000" stroke-miterlimit="10" stroke-width=".73"/>
        <path d="M304.81,510.05c-.06-.04-.14.04-.13.11s.06.13.13.17c.38.3.79.59,1.04,1.01s1.28,1.05.91,1.37" fill="none" stroke="#000" stroke-miterlimit="10" stroke-width=".73"/>
        <path d="M303.23,519.95c-.09-.1-.28-.06-.32.06.92.35,1.39,1.55.97,2.43" fill="none" stroke="#000" stroke-miterlimit="10" stroke-width=".73"/>
        <path d="M305.56,494.74c0,.15.28.14.33-.01s-.05-.3-.15-.42c-.54-.66-2.03-1.03-1.77-1.97.11-.38.67-.7.86-1.07.27-.47.36-1.05.46-1.56-.09-.03-.17-.06-.27-.11" fill="none" stroke="#000" stroke-miterlimit="10" stroke-width=".73"/>
        <path d="M297.34,472.91c.43.01.88.06,1.26.29s1.24.02,1.13.45" fill="none" stroke="#000" stroke-miterlimit="10" stroke-width=".73"/>
        <path d="M296.9,472.24c.36-.14.61-.48.73-.84s.13-.75.14-1.14c.01-.36.01-.72-.09-1.07" fill="none" stroke="#000" stroke-miterlimit="10" stroke-width=".73"/>
        <path d="M173.63,426.02c-2.23-.11-4.48-.21-6.68.18s-4.36,1.29-5.89,2.92-3,4.4-1.64,6.16c1.6,2.07,3.86,2.8,5.97,1.86,1.35-.61,1.82-.99,2.43-2.12.51-.95.53-2.32.27-3.38-.28-1.17-1.32-1.86-2.87-1.46-1.24.33-2.13,2.85-.21,3.58" fill="none" stroke="#000" stroke-linecap="round" stroke-miterlimit="10" stroke-width=".73"/>
        <path d="M173.43,425.26c-2.23-.17-4.48-.12-6.7.17-1.3.16-2.63.4-3.93.21-.81-.12-1.62-.43-2.25-.96-1.15-.98-.75-2.65.19-3.64.54-.57,1.37-.81,2.14-.99,1.33-.33,2.7,1.65,1.99,2.77-.47.74-1.63.94-2.32.38" fill="none" stroke="#000" stroke-linecap="round" stroke-miterlimit="10" stroke-width=".73"/>
        <path d="M163.27,427.45c-2.6,1.28-4.71,2.8-7,4.56-1.23.95-4.49.81-5.2-1.07-1.32-3.5,2.17-4.95,4.03-4.93,1.06,0,2.24,1.9,1.23,3.03-.67.76-1.88.61-2.76.4" fill="none" stroke="#000" stroke-linecap="round" stroke-miterlimit="10" stroke-width=".73"/>
        <path d="M438.85,351.23c.34-.56.56-1.2.56-1.86,0-1.12-.18-2.17-.5-3.2.01-.13.03-.26.03-.4.02-.43-.02-.85-.12-1.26-.03-.59-.06-1.18-.09-1.78-.07-1-.43-1.81-.96-2.42-.04-.42-.09-.83-.13-1.24-.1-.95-.48-1.72-1.02-2.32-.23-1.21-.5-2.41-.86-3.62-.18-.62-.48-1.12-.82-1.52,0-.2-.01-.39-.04-.58-.02-.23-.04-.45-.07-.69-.1-.51-.31-.95-.65-1.32-.16-.3-.39-.53-.67-.71-.36-.35-.79-.59-1.28-.72-.33-.05-.68-.11-1.02-.17-.28,0-.55.02-.83.07-.61.01-1.19.16-1.74.46-.27.19-.53.39-.8.57-.44.42-.76.91-.96,1.47-.2.28-.37.57-.49.88-.65,1.12-1.33,2.21-2.07,3.28-.93.37-1.75,1.1-2.27,2.27,0,.02-.02.05-.03.08-.34.16-.68.38-.99.68-.89.85-1.77,1.71-2.66,2.56-.38.36-.64.73-.85,1.12-2.49,2.62-4.83,5.37-7.02,8.24-1.75,1.95-3.29,4.07-4.62,6.32-.62.83-1.22,1.67-1.78,2.55-.53.82-.69,1.66-.59,2.43-.02.04-.03.06-.05.11-.11.24-.22.49-.33.73-.71,1.53-.42,3.04.34,4.14-.15,1.96,1.02,3.14,2.48,3.52-.27,1.91-.54,3.81-.82,5.72-.26,1.87,1.52,3.62,3.23,3.87,2.03.31,3.51-.83,4.3-2.63.16-.37.27-.72.35-1.1.09-.16.17-.33.25-.5.4.11.82.16,1.24.15.25.12.51.2.79.26,1,1.06,2.81,1.3,4.35.75.64,1.46,1.96,2.35,3.43,2.37,1.01.43,2.14.51,3.1.1.7-.13,1.37-.44,1.95-.93.12-.11.23-.22.34-.32.88-.06,1.73-.41,2.37-1.12.42-.29.8-.69,1.08-1.24.34-.65.68-1.28,1.02-1.92.17-.13.34-.28.52-.46.2-.22.39-.43.56-.64.64-.43,1.18-1.04,1.48-1.86.4-1.1.67-2.1.86-3.26.04-.24.06-.47.06-.7.38-.39.67-.87.85-1.48.85-2.97,1.45-5.95,1.9-9.01.14-.9-.05-1.65-.42-2.24.04-.51.07-1.01.1-1.52v.02s0,0,0,0Z" fill="url(#radial-gradient-6)" stroke-width="0"/>
        <path d="M394.39,343.11c.22-2.28.27-4.59.1-6.91-.03-.47-.15-.9-.3-1.29-.21-2.13-.7-4.16-1.76-5.48-.04-.21-.11-.41-.17-.62.02-.17.04-.36.07-.53.8-4.72-5.88-7.16-7.35-2.27-.26.85-.44,1.69-.53,2.55-.85.21-1.68.7-2.33,1.53-1.08,1.39-1.87,2.99-2.69,4.56-.66.4-1.22,1.02-1.59,1.87-1.18,2.71-3.77,4.6-5.23,7.15-1.03,1.81-2.12,3.41-2.46,5.42-.56.79-.58,2.09-.45,3.03-.05-.4-.1-1.09-.04-1.55.11-.81.02.06,0,0,.19-.61.1-1.58-.17-2.31-.6-1.57-1.14-2.25-2.54-3.47-1.28-1.12-2.57-2.68-4.08-3.45-1.22-.61-2.34-1.1-3.58-1.64-1.5-.64-3.02-.71-4.63-.92-.33-.04-.9-.11-1.12.09-.21-.14-.56-.18-.81-.27-.45-.25-1.03-.15-1.56-.15-.07,0-.14.01-.2.02-.14-.02-.28-.04-.41-.04h-.12c-.53-.04-1.02.06-1.5.28-.48.14-1.21-.09-1.57.26-.39.33-2.16-.06-2.32.41-.25.45-.07,1.35.63,2.4.03.34.87,1.05.91,1.39.16.66.48,1.23.94,1.73l.09.06c.22.26.46.49.76.69,2.11,3.5,4.04,7.08,5.83,10.76.15.31.36.57.57.8.1.4.22.8.34,1.2h0c.1.32.24.62.4.92.14.33.34.63.59.89.03.03.06.05.09.08.51.58,1.35,1.58,2.01,1.7.26.07.58.02.86.03.34-.03.41-.67.75-.71.66-.16,1.23-.48,1.73-.94.2-.26.42-.51.62-.76.29-.47.47-.99.55-1.52.29-.65.5-1.33.58-1.98.56.16,1.12.22,1.68.16,2.65.57,5.07-1.38,4.77-4.05.08.4.31.59.3,1.03,0,.28.07.92.25,1.18,1.22,1.75,4.22.43,6.13,1.47,1.28.5,2.61,1.09,3.91,1.43,1.27.33,2.56.4,3.86.3.54.29.18.48.2.48,1.25.31,2.09-.19,3.35-.41,1.53-.14,2.86-.71,3.67-2.32l.5-1c.02-.05.04-.12.07-.17.41-.61,1.48-1.89,1.76-2.82.61-2.06.68-4.39.98-6.51.1-.7-.01-1.31-.27-1.84v.03s-.02.03-.02.03Z" fill="url(#radial-gradient-7)" stroke-width="0"/>
        <path d="M461.42,476.51c-.3-1.36-.23-2.5-.13-3.88.06-.92-.25-1.74-.78-2.39.49-.74.68-1.74.36-2.96-.91-3.46-2.19-6.76-3.88-9.92-.28-.53-.63-.95-.99-1.27-1.82-2.74-4.23-4.99-7.39-6.54-.72-.35-1.61-.51-2.47-.46-2.4-.3-4.94,1.98-4.34,4.74.13.59.23,1.19.33,1.79-.6.43-1.07,1.11-1.32,2.07-.28,1.11-.55,2.19-.8,3.26-.26.93-.55,1.84-.86,2.76-1.97,1.09-3.19,1.54-3.51,3.39-.68-.28-1.18.64-1.98.47-1.97-.42-3.4.41-5.08.52-.85.06-2.78-.8-2.71-.08-.66-.61.17.79-.67.35-3.82-2.04-4.45,3.29-7.21,5.22-1.52,1.06-2.88,1.83-3.94,3.39-.53.78-1.01,1.52-1.5,2.22-1.54.33-2.95,1.49-3.22,3.47-.09.68-.19,1.37-.28,2.06-.04.27-.03.52,0,.77-.54,4.09-1.48,7.94-1.12,12.23.19,2.34.38,4.71.86,7.01.53,2.56,1.76,4.83,2.42,7.33,1.12,4.21,6.27,3.41,7.41-.11.68-.41,1.28-1.03,1.66-1.91.48-1.09,1-2.16,1.55-3.21.49-.28.95-.69,1.34-1.26,2.55-3.79,5.05-7.65,7.26-11.64.72-1.28,1.09-2.36,1.21-3.34.52-.51.89-1.15,1.11-1.85.37-1.21.53-2.51.72-3.76.13-.82-.15-1.59-.63-2.25-.02-.7-.07-1.39-.16-2.09,1.45,2.55,2.89,5.12,4.53,7.53,3.91,5.77,9.8,9.59,13.96,15.07,1.97,2.58,6.85.7,6.64-2.52-.26-3.91-.22-8.53.92-12.31.85-2.83,1.12-5.28,1.11-8,1.15-.79,1.92-2.15,1.62-3.92h-.02s0,0,0,0Z" fill="url(#radial-gradient-8)" stroke-width="0"/>
        <path d="M336.07,403.08c6.6-.96,13.1-2.54,19.4-4.71,1.72-.6,3.67-1.48,4.07-3.26" fill="none" stroke="#000" stroke-miterlimit="10" stroke-width=".18"/>
        <path d="M331.35,412.82c10.93-2.1,26.16-4.87,37.09-6.97,1.76-.34,5.84-1.54,7.37-2.5" fill="none" stroke="#000" stroke-miterlimit="10" stroke-width=".18"/>
        <path d="M338.79,417.56c17.59-.93,35.13-2.91,52.49-5.9" fill="none" stroke="#000" stroke-miterlimit="10" stroke-width=".18"/>
        <path d="M345.66,425.75c19.14-.03,38.53-.75,57.15-5.65" fill="none" stroke="#000" stroke-miterlimit="10" stroke-width=".18"/>
        <path d="M361.57,433.41c10.75.1,21.51-.13,32.25-.72,7.01-.38,14.06-.91,20.81-2.84" fill="none" stroke="#000" stroke-miterlimit="10" stroke-width=".18"/>
        <path d="M376.35,445.96l47.39-2.84" fill="none" stroke="#000" stroke-miterlimit="10" stroke-width=".18"/>
        <path d="M383.96,456.17c14.57-.3,29.15.06,43.71-.54" fill="none" stroke="#000" stroke-miterlimit="10" stroke-width=".18"/>
        <path d="M389.85,469.28c11.77.3,23.75-.37,35.34-2.48" fill="none" stroke="#000" stroke-miterlimit="10" stroke-width=".18"/>
        <path d="M394.47,478.96c5.32-.41,10.65-.82,15.96-1.23" fill="none" stroke="#000" stroke-miterlimit="10" stroke-width=".18"/>
        <path d="M395.65,484.08c2.44.08,4.9,0,7.33-.24" fill="none" stroke="#000" stroke-miterlimit="10" stroke-width=".18"/>
        <path d="M271.33,462.99c7.19,4.93,20.96,10.61,29.22,13.18-.38-.01-4.43-1.47-4.81-1.51" fill="none" stroke="#000" stroke-miterlimit="10" stroke-width=".18"/>
        <path d="M264.48,464.78c2.36,3.19,5.63,5.69,8.6,8.27,3.36,2.91,6.73,5.82,10.15,8.66,6.23,5.15,14.81,12.29,22.61,14.87-1.01-.22-4.07-1.93-5.08-2.15" fill="none" stroke="#000" stroke-miterlimit="10" stroke-width=".18"/>
        <path d="M259.36,466.87c10.27,19.82,26.68,37.23,48.17,43.73" fill="none" stroke="#000" stroke-miterlimit="10" stroke-width=".18"/>
        <path d="M261.05,487.55c12.77,13.88,26.19,28.12,44.35,35.32" fill="none" stroke="#000" stroke-miterlimit="10" stroke-width=".18"/>
        <path d="M258.89,502.48c10.79,9.64,22.16,18.92,35.25,25.3" fill="none" stroke="#000" stroke-miterlimit="10" stroke-width=".18"/>
        <path d="M250.88,508.96c5.55,8.12,13.85,13.74,22.16,18.74" fill="none" stroke="#000" stroke-miterlimit="10" stroke-width=".18"/>
        <path d="M250.78,518.34c1.65,4,4.65,6.4,7.13,9.57" fill="none" stroke="#000" stroke-miterlimit="10" stroke-width=".18"/>
        <path d="M246.54,493.43c-4.11-8.22-7.28-16.9-9.4-25.83" fill="none" stroke="#000" stroke-miterlimit="10" stroke-width=".18"/>
        <path d="M240.22,510.04c-1.49-1.55-2.27-3.63-2.98-5.65-4.22-11.85-8.14-26.52-8.48-39.1" fill="none" stroke="#000" stroke-miterlimit="10" stroke-width=".18"/>
        <path d="M234.94,515.16c-6.58-16.01-11.46-33.42-13.33-50.65" fill="none" stroke="#000" stroke-miterlimit="10" stroke-width=".18"/>
        <path d="M230.04,519.31c-7.7-14.41-13.1-30.79-13.85-47.19-.15-3.23-.37-6.65.21-9.85" fill="none" stroke="#000" stroke-miterlimit="10" stroke-width=".18"/>
        <path d="M221.36,519.24c-7.98-14.82-13.65-30.87-16.74-47.4.27,1.1.53,2.2.79,3.29" fill="none" stroke="#000" stroke-miterlimit="10" stroke-width=".18"/>
        <path d="M214.23,516.45c-7.51-9.31-17.1-21.36-18.16-33.44" fill="none" stroke="#000" stroke-miterlimit="10" stroke-width=".18"/>
        <path d="M201.1,512c-5.44-7.99-9.74-16.76-12.71-25.95.22.76.43,1.53.65,2.29" fill="none" stroke="#000" stroke-miterlimit="10" stroke-width=".18"/>
        <path d="M189.33,504.53c-3.5-4.44-5.3-9.93-6.6-15.36" fill="none" stroke="#000" stroke-miterlimit="10" stroke-width=".18"/>
        <path d="M198.12,454.15c-6.06,5.12-10.45,12.15-12.39,19.85" fill="none" stroke="#000" stroke-miterlimit="10" stroke-width=".18"/>
        <path d="M191.75,453.5c-7.87,7.91-16.08,15.78-20.95,26.01" fill="none" stroke="#000" stroke-miterlimit="10" stroke-width=".18"/>
        <path d="M190.41,450c-7.52,7.17-20.15,18.38-24.42,28.14" fill="none" stroke="#000" stroke-miterlimit="10" stroke-width=".18"/>
        <path d="M179.05,448.89c-6.3,7.71-14.09,17.98-18.58,26.91" fill="none" stroke="#000" stroke-miterlimit="10" stroke-width=".18"/>
        <path d="M171.01,449.84c-4.08,4.2-7.59,8.96-10.39,14.12-1.74,3.22-3.24,6.73-3.09,10.39,0,.22.07.48.28.53s.16-.44,0-.29" fill="none" stroke="#000" stroke-miterlimit="10" stroke-width=".18"/>
        <path d="M152.35,462.47c3.81-3.69,6.38-7.5,10.98-10.11-.55-.13-1.06-.47-1.39-.92" fill="none" stroke="#000" stroke-miterlimit="10" stroke-width=".18"/>
        <g>
          <path d="M91.22,631c.72.32.77.96.75,1.61-.39-.04-.98.19-.79-.62.07-.32.03-.66.04-.99Z" fill="#fff" stroke-width="0"/>
          <path d="M381.51,362.33c-2.47.18-6.12-1.3-8.65-.04,4,3.49,12.9,2.28,17.88,2.03.88-.04,5.2.62,3.71-1.44-1.02-1.4-8.37-.22-10-.16-.66-4.74,5.21-4.68,8.7-3.83,4.79,1.16,8.65,5.29,10.45,9.77,3.54,8.8.68,21.06-6.53,27.28-12.77-8.25-26.15-15.13-41.36-17.81-4.32-14.76,15.13-30.59,26.1-16.27-.1.16-.19.32-.3.49h0s0-.01,0-.01Z" fill="url(#radial-gradient-9)" stroke-width="0"/>
          <path d="M382.93,500.59c5.93-15.42-5.72-34.84-15.81-45.84-11.47-12.49-28.15-23.54-45.86-22.04-2.13.19-7.66,5.29-9.44,3.77-2.3-1.98-.97-10.72.55-11.93,6.86-5.42,21-1.68,28.52.79,15.95,5.22,30.5,16.79,40.39,30.25,5.59,7.62,9.9,16.31,11.72,25.64,1.14,5.85,1.15,24.48-10.09,19.36h0s0,0,0,0Z" fill="url(#radial-gradient-10)" stroke-width="0"/>
          <path d="M427.92,423.77c7.01-2.41,8.2-4.26,8.25-12.69,4.67.76,8.02-.93,12.58-1.14,4.19-.66,7.47-1.43,11.38-2.32,14.28,9.07,9.63,27.93-2.2,36.73-4.5,3.35-15.06,6.88-18.42.59-1.86-3.47-2.87-7.4-4.86-10.89-2.03-3.57-4.41-6.92-6.75-10.3h.01s0,0,0,0Z" fill="url(#radial-gradient-11)" stroke-width="0"/>
          <path d="M313.26,529.1c-3.29,2.44-11.34.93-9.4-2.69,5.92-11.04,5.59-31.26,2.7-42.12-1.88-7.05-4.63-13.75-9.22-19.48-4.21-5.26-9.14-5.84-14.68-7.75-1.99-.69-4.07-1.69-.86-5.89,4.35-5.71,16.11.07,20.14,4.1,6.88,6.88,12.22,15.75,14.9,24.97,2.89,9.96,4.65,21.55,3.52,31.92-.45,4.15-2.77,13.76-7.09,16.96h0s0-.01,0-.01Z" fill="url(#radial-gradient-12)" stroke-width="0"/>
          <path d="M223.29,520.24c11.99,3.55,20.89-14.81,23.76-23.44,1.9-5.72,3.3-11.1,2.9-17.14-.46-6.89-3.03-11.52-8.59-15.33.93-4.6,9.5-4.47,12.56-2.59,3.32,2.04,5.05,5.89,6.09,9.48,2.62,9.18.83,20.2-1.92,29.2-2.58,8.45-7.58,18.55-14.49,24.29-3.33,2.76-7.74,5.09-12.17,4.83-6.33-.6-10.28-5.04-8.13-9.31h0s0,0,0,0Z" fill="url(#radial-gradient-13)" stroke-width="0"/>
          <path d="M160.88,479.06c4.72,1.55,8.9,2.33,13.9.86,4.16-1.23,7.93-3.51,11.47-6.03,7.87-5.62,10.43-13.08,10.87-21.9,7.4-4.68,12.95,5.15,9.84,12.97-1.92,6.8-7.8,12.94-13.23,17.16-5.46,4.24-12.88,8.14-19.77,9.28-9.36,1.26-17.28-4.63-13.07-12.34h-.01s0,0,0,0Z" fill="url(#radial-gradient-14)" stroke-width="0"/>
          <path d="M341.11,366.66c2.38,1.48,10.53,1.94,12.45-.98.79-1.22.86-1.34-.61-1.48-2.31-.22-4.98,2.19-7.5,1.99,2.04-3.15,6.2-6.66,10.17-4.88,1.36.96,2.21-.77,1.3,4.07-.16.88-1.24,2.94-1.85,5.8-.83,3.75-.71,6.36-1.57,6.57-.57.14-2.64-.36-2.75-.37-1.6-.21-3.06-.22-4.91-.1-2.35.16-1.98-.15-4.02.11-2.31.29-4.41,3.53-5.91,1.89-2.46-2.71-6.2-5.73-9.41-4.25-.05.02-.09.04-.11.03-.25-.16-.99-8.64,3.49-11.89,1.78-1.3,6.06-1.62,8.98-.94,1.38.32,4.52,3.09,5.11,3.65-.72.3-1.94.41-2.87.8h0s.02-.01.02-.01Z" fill="url(#radial-gradient-15)" stroke-width="0"/>
          <path d="M145.68,433c3.14,8.99,14.28,9.72,22.35,7.09,2.25-.74,4.24-2.09,6.14-3.52,1.28-.96,3.11-3.8,4.42-4.33,3.99-1.62,5.68,6.81,4.54,9.12-4.02,8.16-21.11,10.01-28.81,9.24-4.46-.44-9.9-2.76-12.32-6.91-1.77-3.04-.66-9.88,3.7-10.69h0s0,0,0,0Z" fill="url(#radial-gradient-16)" stroke-width="0"/>
          <path d="M414.56,390.59c-10.03-.36-9.01-16.28,1.02-15.66,10.06.62,9.01,16.03-1.02,15.66Z" fill="url(#radial-gradient-17)" stroke-width="0"/>
          <path d="M314,395.02c10.1.2,10,15.8-.19,15.59-9.95-.2-9.79-15.79.19-15.59h0Z" fill="url(#radial-gradient-18)" stroke="url(#radial-gradient-19)" stroke-miterlimit="10" stroke-width=".73"/>
          <path d="M300.01,398.29c-9.95-.21-9.79-15.76.28-15.55,9.93.2,9.78,15.77-.28,15.55Z" fill="url(#radial-gradient-20)" stroke="url(#radial-gradient-21)" stroke-miterlimit="10" stroke-width=".73"/>
          <path d="M304.94,399.63c-.94,3.59-.17,6.69,1.99,9.33-2.61,6.96-12.19,7.93-15.14.55-1.19-2.98-.71-7.65,2.17-9.64,1.91-1.32,1.84-.62,4.13-.24,2.36.4,4.5-.09,6.85-.02h0Z" fill="url(#radial-gradient-22)" stroke="url(#radial-gradient-23)" stroke-miterlimit="10" stroke-width=".73"/>
          <path d="M424.38,390.66c9.77.29,9.73,15.04.27,15.48-10.32.48-10.74-15.79-.27-15.48h0Z" fill="url(#radial-gradient-24)" stroke-width="0"/>
          <path d="M440.15,410.01c-9.55-.19-9.73-14.64-.4-15.41,10.37-.85,10.93,15.62.4,15.41Z" fill="url(#radial-gradient-25)" stroke-width="0"/>
          <path d="M424.16,388.84c.13-4.49,0-9.06,4.83-11,4.12-1.66,8.95.35,10.48,4.57,1.33,3.71-.61,8.59-4.44,10.03-3.85,1.45-6.71-3.25-10.86-3.61h0Z" fill="url(#radial-gradient-26)" stroke-width="0"/>
          <path d="M324.37,387.48c.32,9.1-16.12,8.82-15.56-1.06.57-10.01,15.86-8.98,15.56,1.06Z" fill="url(#radial-gradient-27)" stroke="url(#radial-gradient-28)" stroke-miterlimit="10" stroke-width=".73"/>
          <path d="M302.71,416.12c.72,4.03,3.79,8.07.2,11.4-3.22,2.99-8.31,2.61-11.08-.76-2.28-2.77-2.7-8.09.12-10.75,1.91-1.8,2.04-.65,4.4,0,2.25.63,4.1.03,6.35.1h0s0,0,0,0Z" fill="url(#radial-gradient-29)" stroke="url(#radial-gradient-30)" stroke-miterlimit="10" stroke-width=".73"/>
          <path d="M406.38,386.72c2.26,3.83,5.34,5.95,9.81,6.29-1.19,3.09-2,6.14-.28,9.43-2.4.67-4.21,1.42-6.35,2.71-3.47-2.67-6.98-5.36-10.67-8.2,4-3.37,5.6-5.3,7.48-10.22h0s0,0,0,0Z" fill="url(#radial-gradient-31)" stroke-width="0"/>
          <path d="M434.55,414.99c-.24,3.24-3.55,7.73-7.3,7-2.36-.45-7.65-6.47-7.76-8.73-.43-8.57,15.76-7.94,15.06,1.72h0Z" fill="url(#radial-gradient-32)" stroke-width="0"/>
          <path d="M450.31,403.18c-.99-3.72-2.7-9.21,1.13-12.03,2.72-2.01,6.98-1.26,9.33.95,2.55,2.4,3.14,6.17,1.26,9.13-2.87,4.5-7.32,2.1-11.71,1.97h0Z" fill="url(#radial-gradient-33)" stroke-width="0"/>
          <path d="M151.91,400.46c3.73,4.13,10.56,6.64,15.59,8.78,1.88.79,6.73,2.01,7.74,3.69,1.26,2.12-1.74,5.56-3.84,5.98-4.25.87-13.05-5.17-16.7-7-5.74-2.55-9.87-8.44-2.79-11.46h0s0,0,0,0Z" fill="url(#radial-gradient-34)" stroke-width="0"/>
          <path d="M309.03,410.76c4.13,2.46,8.82-.53,10.79,4.83,1.99,5.45-2.32,5.15-5.9,7.59-1.94,1.32-2.08,2.24-4.32,1.66-1.38-.36-3.06-2.13-3.77-3.3-2.55-4.25.14-7.88,3.22-10.78h0s0,0,0,0Z" fill="url(#radial-gradient-35)" stroke="url(#radial-gradient-36)" stroke-miterlimit="10" stroke-width=".73"/>
          <path d="M330.12,390.97c.69,2.68,2.11,5.01,5.54,5.66-.63,2.41-1.65,7.28-4.03,8.56-2.37,1.27-6.22-.27-7.73-2.24-1.43-1.88-2.03-6.1-1.16-8.28,1.38-3.47,4.09-3.8,7.38-3.7h0Z" fill="url(#radial-gradient-37)" stroke="url(#radial-gradient-38)" stroke-miterlimit="10" stroke-width=".73"/>
          <path d="M446.35,394.79c-.86-3.85-3.13-5.02-6.54-5.87.08-2.83-.26-6.72,2.14-8.59,1.87-1.45,5.41-2.47,7.62-1.78,2.87.88,8.34,6.41,6.4,9.82-1.69.36-6.99,2.27-9.63,6.43h0Z" fill="url(#radial-gradient-39)" stroke-width="0"/>
          <path d="M323.91,405.21c2.26,1.77,4.76,1.96,7.49,1.88-1.18,2.96-5.1,13.91-8.97,12.81-.57-.74-1.49-6.26-1.43-7.49.14-2.43,1.93-5.02,2.9-7.2h0s0,0,0,0Z" fill="url(#radial-gradient-40)" stroke="url(#radial-gradient-41)" stroke-miterlimit="10" stroke-width=".73"/>
          <path d="M309.23,427.52c-.41,4.14-.11,6.38,1.29,10.34-1.43,1.1-3.13,2.41-4.77,3.68-5.81-3.31-4.28-16.5,3.48-14.02h0Z" fill="url(#radial-gradient-42)" stroke="url(#radial-gradient-43)" stroke-miterlimit="10" stroke-width=".73"/>
          <path d="M420.6,407.35c-1.02,1.71-1.96,3.29-3.02,5.07-2.12-1.91-4.25-3.84-6.55-5.91,3.67-3.62,6.22-1.76,9.56.84Z" fill="url(#radial-gradient-44)" stroke-width="0"/>
          <path d="M334.7,379.78c-1.64,2.01-2,2.46-3.14,4.63-.7,1.32-3.43,2.44-6.18-.74-2.72-3.16-.64-6.8,1.83-8.42,3.29-2.16,8.65,2.8,7.49,4.53h0Z" fill="url(#radial-gradient-45)" stroke="url(#radial-gradient-46)" stroke-miterlimit="10" stroke-width=".73"/>
          <path d="M185.74,385.06c-1.33,1.48-3.24,3.17-4.5,4.59-1.92-2.56-5.14-6.39-7.24-8.8,3.75.18,8.91,1.82,11.75,4.23h0Z" fill="url(#radial-gradient-47)" stroke-width="0"/>
          <path d="M444.8,394.96c-2.93-1.08-7-.66-8.54-1.49,4.82-7.73,8.76-5.39,10.5-.42,1.49,4.27-.77,2.35-1.97,1.9h0s0,0,0,0Z" fill="url(#radial-gradient-48)" stroke-width="0"/>
          <path d="M458.36,406.78c-2.65,2.2-10.59,3.62-12.82,2.41,1.29-5.03,10.89-7.43,12.82-2.41Z" fill="url(#radial-gradient-49)" stroke-width="0"/>
          <path d="M308.53,395.84c-.15-.82-.2-3.76.51-3.77.12,0,2.28,1.94,2.27,1.96-.26.28-2.39,1.45-2.78,1.81h0s0,0,0,0Z" fill="url(#radial-gradient-50)" stroke-width="0"/>
          <path d="M439.02,453.23c-.01-.39-.08-.75-.17-1.1-.11-.74-.27-1.47-.55-2.24-.03-.08-.05-.14-.09-.22-.1-.5-.2-.98-.29-1.47-.1-.57-.21-1.14-.34-1.71-.24-1.04-.77-1.77-1.44-2.24-.04-.18-.1-.35-.14-.52,0-.15,0-.31-.02-.47.01-.41-.06-.84-.21-1.31-1.09-3.39-2.51-6.52-4.49-9.49-.34-.51-.72-.9-1.17-1.18-.17-.27-.36-.56-.53-.83-.69-1.46-1.47-2.84-2.4-4.21-.41-.6-.9-1.05-1.42-1.35-.24-.39-.48-.77-.72-1.17-.41-.68-.93-1.14-1.49-1.46-.16-.38-.38-.71-.65-.98-.24-.61-.5-1.23-.79-1.83-.56-1.16-1.68-1.76-2.88-1.88-.13-.23-.28-.45-.45-.68h0c-.28-.65-.65-1.12-1.07-1.45-.43-1.73-1.67-2.6-3.02-2.77-1.01-1.01-2.07-1.99-3.17-2.92-.25-.28-.51-.55-.79-.81-.08-.07-.15-.13-.23-.19-.5-.48-1.01-.96-1.6-1.42-.38-.3-.77-.5-1.13-.62-.11-.08-.21-.16-.31-.25-.4-.43-.82-.84-1.27-1.24-.38-.32-.81-.57-1.25-.74-.44-.43-.93-.82-1.45-1.19-.45-.48-.97-.9-1.53-1.3-.17-.15-.35-.3-.52-.45-.87-1.08-1.91-2.01-3.15-2.85-.13-.09-.27-.15-.41-.22-2.57-2.13-5.26-4.08-8.5-5.46-7.48-3.19-14.29-7.45-22.05-10.13-6.35-2.18-13.48-4.94-20.16-3.39-1.62-.05-3.27.2-5.11.35-3.38.27-6.26,2.44-8.18,5.15-1.83,2.57-3.04,6.54.22,8.6,2.53,1.6,5.88-.27,8.14-1.95.52-.01,1.04-.09,1.54-.2.45-.1.9-.2,1.31-.25.23.2.49.38.76.52,1.11.84,2.49.78,3.65.17.1.02.2.04.3.07.88.21,2.37.35,3.06.86,1.14.85,2.3.91,3.26.5.4.14.81.26,1.21.4.59.56,1.41.93,2.47.96h.16c.44.17.89.32,1.33.5.8.32,1.53.35,2.15.19,1.67.58,3.27,1.42,4.89,2.2,2.89,1.38,5.8,2.72,8.67,4.13h0c.18.35.44.68.8.98.63.53,1.26.96,1.9,1.32.17.15.36.31.59.48,1.58,1.23,3.64,1.29,5.22,2.42.88.63,1.76.81,2.55.68.25,1.1,1.07,2.01,2.6,2.29.86.16,1.72.31,2.59.47.14.65.51,1.28,1.18,1.85,3.16,2.72,5.97,5.71,8.47,9.04,1.1,1.47,2.77,1.57,4.16.91.35.3.7.6,1.05.91.02.04.03.09.05.13.32.68.75,1.17,1.22,1.49.11.16.22.33.32.51.26.38.56.69.91.95.16.21.32.42.49.63.18.22.37.42.55.58.03.04.06.09.09.13.4.57.73,1.17,1.03,1.81.34.68.77,1.17,1.25,1.5.06.08.12.15.18.23.46.68.93,1.34,1.39,2.02.3.44.66.78,1.03,1.04,1.03,1.56,2.06,3.12,3.09,4.68.45.69,1.02,1.17,1.63,1.47.06.14.12.27.18.41.04.13.09.27.13.4.42,1.07.84,2.13,1.26,3.2.35.86.92,1.41,1.62,1.72.46.79.94,1.56,1.45,2.32-.04.41-.03.84.08,1.31.45,1.94,1.14,3.72,2.08,5.47.11.19.23.37.36.54.36,2.23.16,4.3-.63,6.62-1.45,4.3,4.58,6.54,6.83,3.3,1.03-.28,1.95-1.08,2.41-2.54.3-.94.52-1.87.73-2.81.11-.17.19-.37.28-.57.64-.59,1.06-1.49,1.03-2.69s-.07-2.42-.1-3.63v-.02s-.04,0-.04,0Z" fill="url(#radial-gradient-51)" stroke-width="0"/>
          <path d="M424.17,377.84c-.26.09-.52.19-.77.28-.25-.4-.06-.63.58-.69.06.13.12.27.18.41h0Z" fill="#fff" stroke-width="0"/>
          <path d="M320.15,408.96c.58.24-.36,3.67-.78,4.18-1.36-.22-.56-3.66.78-4.18Z" fill="url(#radial-gradient-52)" stroke-width="0"/>
        </g>
        <path d="M460.38,405.03c-.25-.04-.06-.6.79-.95,0,0,2.42-2.36,2.68-3.17.95-2.97,2-5.65-1.21-9.73-.06-.09-.16-.15-.24-.23-1.21-1.06-3.85-2.61-5.53-2.72,0,0,1.45-3.33-1.52-6.63-1.33-1.48-3.05-2.56-5.76-3.4-2.64-.82-5.65.26-6.51,1.07-2.21,2.08-3.36.66-5.46-1.42-.93-.51-2.27-1.24-3.5-1.57-.41-.11-1.1-.16-1.18-.2-.52-.26,4.77-8.73,5.98-13.24,1.11-4.15,2.63-13.44.63-22.03-.91-3.9-2.19-7.71-3.7-11.42-.73-1.79-1.44-4.66-2.74-6.13-1.71-1.94-1.17-1.3-2.9.12-2.38,1.97-4.59,6.62-6.83,8.94-1.75,1.82-3.52,3.63-5.14,5.57-3.79,4.53-8.1,8.72-11.66,13.5-2.13,2.85-3.37,7-5.63,9.54-2.31-2.34-5.31-3.3-8.43-4.08,2.37-5.86,3.98-11.28,3.34-17.69-.3-2.98-.99-5.9-1.86-8.76-.79-2.56-1.62-7.59-3.42-9.59-1.93-2.14-2.44-.44-3.94,1.7-1.96,2.81-3.84,5.68-5.84,8.47-1.94,2.73-3.99,5.37-5.93,8.11-1.46,2.08-2.87,5.68-4.92,7.19-6.84-8.78-19.47-9.4-26.15-7.3,1.32,3.11,3.7,6.01,5.25,9.07,1.78,3.52,3.33,7.16,5.29,10.6.29.52.84,1.26,1.35,2.05-2.79-1.14-6.38-.58-10.45,2.34-.5-3.97-1.77-7.16-5.07-9.35l-3.21.34c.09.15.15.31.23.47.08.08.13.16.2.24,1.01.21,3.25.91,4.77,3.14.94,1.38,1.4,3.11,1.24,5.08,0,0-.37.1-.71.04-1.98-1.19-4.05-2.21-6.15-2.65-.08.06-2.22-.9-7.41,1.71-4.47,2.25-5.35,8.86-3.92,13.76-.94.38-2.33,4.44-3.88,3.62-2.28-1.21-7.07-1.43-8.76-.6-3.8,1.83-4.69,4.03-5.27,5.48-4.06-3.5-9.76-4.47-13.87-.39-4.08,4.05-2.52,9.46.32,13.75-5.1,4.63-5.61,9.88-1.82,15.61-7.35,7.73-2.12,19.9,8.85,17.62-1.41,4.87.4,7.87,2.53,12.13-2.71,1.55-5.62,4.09-8.81,3.87-3.18-.21-5.43-1.98-8.84-1.25-6.92,1.49-7.32,6.69-8.77,12.24-2.53,2.19-8.67,2.8-11.91,3.44-4.11.82-5.91,1.51-9.12-.92-5.66-4.26-15.19-3.93-16.99,4.3-8.64-.8-17.46-1.67-25.68-4.64-5.6-2.02-4.72-9.43-11.52-10.85-2.91-.6-5.5,1.2-8.07.32-2.14-.73-7.37-5.57-7.75-7.83-.59-3.42,1.19-5.86-1.3-9.01-1.97-2.48-4.76-3.12-7.77-3.2-1.19-4.05-2.85-6.74-.78-10.3,1.43-2.46,2.96-4.51,1.34-7.44-.89-1.6-2.46-2.13-2.87-3.9-.38-1.6,1.12-4.6,1.7-6.07,1.1-2.84,2.41-5.7,4.55-7.77,2.12-2.07,4.61-4.24,6.61-6.81,2.61-3.34.3-5.03-3.15-6.84-3.13-1.65-16.71-4.57-13.69,2.46-6.48,4.02-11.42,9.54-15.16,16.17-6.44-1.23-11.58,3.88-8.54,10.42.98,2.11,1.74,1.94,1.69,4.32-.03,1.65-.98,3.96-1.28,5.6-.69,3.76-.82,7.54-1.25,11.34-9.47,4.22-8.33,13.1-1.21,19.13,3.88,3.29,4.71,9.82,6.84,14.49,2.16,4.74,4.91,9.12,7.64,13.55-1.92,6.18-1.03,11.73,5.4,14.81,2.81,1.35,5.59.65,8.38,1.52,2.92.92,5.83,4.23,8.33,6,12.14,8.6,25.39,14.5,39.16,19.92-.22,7.56,4.78,12.41,12.52,12.01,3.78-.19,7.06-1.76,10.2-3.72,3.69-2.3,5.79-1.38,10.12-.8,8.28,1.09,16.67,1.43,25.02,1.47,4.13.02,8.25-.11,12.36-.39,3.39-.24,7.39-1.5,10.26.43,2.65,1.79,3.65,3.34,7.25,3.33,2.84,0,5.56-.95,7.74-2.77,2.15-1.8,3.14-4.53,5.66-5.87,2.96-1.58,9.7-3.24,12.93-4.15,16.32-4.62,29.74-10.12,44.96-17.5,4.42,3.33,9.35,3.47,13.51-.58,3.75-3.66,2.36-8.37,4.67-12.38,1.11-1.93,4.11-3.27,5.9-4.57,1.59-1.14,3.16-2.32,4.72-3.51-1.14,3.28-1.68,6.77-1.75,10.23-.12,5.41.8,10.84,2.27,16.04.65,2.29,2.59,11.75,5.09,12.48,2.04.59,8.06-10.59,9.27-12.4,3.23-4.79,6.7-9.55,9.06-14.86.83-1.86,1.48-3.81,1.89-5.78,2.32,3.23,3.77,5.28,4.1,5.79,2.12,3.26,17.87,19.06,19.24,13.63,2.53-10,4.33-21.62,4.96-31.9.6-10.04-2.74-17.19-9.92-24,1.21-1.36,3.6-1.97,5.16-2.98,2.24-1.45,4.31-3.18,6.13-5.14,3.24-3.49,5.93-7.78,7.07-12.44,2.49-10.21-3.89-23.57-10.47-24.77l.02-.02h0ZM460.77,392.09c2.55,2.4,3.14,6.17,1.26,9.13-2.87,4.5-7.32,2.1-11.71,1.97-.99-3.72-2.7-9.21,1.13-12.03,2.72-2.01,6.98-1.26,9.33.95h0ZM458.36,406.78c-3.7,1.14-9.66,1.84-12.43,2.55,2.08-4.81,7.25-6.79,12.43-2.55ZM443.44,380.62c1.87-1.45,4.31-1.61,6.51-.93,2.87.88,7.45,5.27,5.51,8.67-3.12.05-6,1.08-8.06,4.66-.87-3.96-3.71-4.46-6.91-4.32.87-3.45.55-6.2,2.95-8.07h0ZM424.38,390.66c9.77.29,9.73,15.04.27,15.48-10.32.48-10.74-15.79-.27-15.48h0ZM414.56,390.59c-10.03-.36-9.01-16.28,1.02-15.66,10.06.62,9.01,16.03-1.02,15.66ZM416.19,393.01c-1.19,3.09-2,6.14-.28,9.43-2.4.67-4.21,1.42-6.35,2.71-3.47-2.67-6.98-5.36-10.67-8.2,4-3.37,5.6-5.3,7.48-10.22,2.26,3.83,5.34,5.95,9.81,6.29h0s0,0,0,0ZM420.6,407.35c-1.02,1.71-1.96,3.29-3.02,5.07-2.12-1.91-4.25-3.84-6.55-5.91,3.67-3.62,6.22-1.76,9.56.84ZM434.55,414.99c-.24,3.24-3.55,7.73-7.3,7-2.36-.45-7.65-6.47-7.76-8.73-.43-8.57,15.76-7.94,15.06,1.72h0ZM439.75,394.6c10.37-.85,10.93,15.62.4,15.41-9.55-.19-9.73-14.64-.4-15.41h0ZM446.83,395.26c-6-2.71-8.32-1.33-10.56-1.79,6.72-8.3,10.92-1.11,10.56,1.79ZM439.45,382.41c1.33,3.71-.61,8.59-4.44,10.03-3.85,1.45-6.71-3.25-10.86-3.61.13-4.49,0-9.06,4.83-11,4.12-1.66,8.95.36,10.48,4.57h0ZM431.19,375.07c-1.54.41-3,.89-4.4,1.43-1,.39-3.77-.19-5.1-.02,2.09-3.76,11.75-11.36,14.68-11.72-.15,4.22-3.62,6.73-5.18,10.31h0ZM436.47,364.19c-.26-.71-7.1,2.31-8.29,3.27-2.53,2.03-5.36,6.24-8.5,6.99,1.01-4.21,2.54-10.49,5.56-13.65,2.98-3.12,9.04-6.29,13.04-7.83,1.06,2.15-.13,9.3-1.81,11.23h0s0,0,0,0ZM432.93,328.01c.9,1.52,2.78,4.77,2.37,6.51-.41,1.7-3.45,3.96-4.62,5.19-.4-3.13.72-8.93,2.25-11.7h0ZM436.51,336.85c1.52,4.22,2.49,8.49,2.67,13-4.62,2.82-9.19,5.61-13.77,8.41l-.28-.23c2.77-7.56,2.87-17.41,11.38-21.18h0ZM429.59,327.94c.15.06.3.13.45.18.03,1.79.13,3.59-.48,5.32-.17.03-.33.08-.51.11-.56-.99-1.12-1.98-1.72-3.02.82-.95,1.53-1.78,2.24-2.6h0ZM426.55,331.68c1.78,2.94,3.47,5.61,1.56,9.1-2.54-2.83-4.34-6.33-1.56-9.1ZM423.67,335.32c1.46,3.44,3.88,7.18,3.24,10.94-.43,2.53-1.91,9.93-3.7,11.74-1.9-3.66-5.15-10.56-5.35-14.67-.16-3.15,3.21-6.36,5.81-8.01h0ZM403.81,359.75c2.21-6.53,7.77-11.22,12.33-16.07,4.58,8.62,8.43,20.12,1.87,28.72-1.64-1.87-1.98-4.64-3.1-7.11-.92-2.05-5.72-12.66-6.1-13.89-1.4,2.01,6.85,18.26,7.65,21.75-1.58.23-2.98.44-4.55.66-.93-1.49-2.45-1.3-4.11-.67.92.32,1.83.64,3.02,1.06-1.24,1.1-2.33,2.08-3.62,3.23-.59-3.07-.47-6.32-1.55-9.28-1.25-3.39-3.13-4.65-1.86-8.4h0ZM392.71,352.4c-1.49,4.62-3.62,4.44-8.19,5.29,2-3.14,5.51-5.8,8.14-8.4-1.29-2.15-7.66,7.07-9.56,8.05.48-2.87,1.05-7.02,2.65-9.49,1.61-2.49,5.89-5.2,8.51-6.55.23,3.65-.41,7.59-1.54,11.09h0ZM389.19,323.71c1.23,1.29,1.86,2.55,2.65,5.19-1.06,1.19-2,2.6-3.76,3.78.38-3.14.73-5.91,1.1-8.97ZM392.25,330.34c1.09,1.9,2.84,6.68,2.11,8.85-.6,1.78-6.37,5.49-8.23,6.12.42-2.68.57-5.66,1.33-8.26.82-2.78,2.86-4.55,4.8-6.71h0ZM387.15,324.64c.47,1.58.13,5.9-.96,7.99-1.45-3.43-2.35-5.25.96-7.99ZM383.46,329.44c2.6,5.53,2.59,8.84,1.52,14.82-.14.03-.27.05-.41.09-1.32-1.88-3.51-6.5-3.82-8.83-.34-2.59,1.2-4.01,2.72-6.07h0s0,0,0,0ZM379.12,335.39c1.91,3,3.93,7.46,4.66,10.96.61,2.94-.78,6.16-1.54,9.03-2.66-3.69-4.26-7.5-6.21-11.1-.15.04-.29.09-.44.13.85,4.55,4.99,8.19,5.55,12.7-2.27,1.05-7.11-3.43-7.85-5.32-.76,1.13-.56,3.25-2.86,2.23-2.11-6.52,5.13-13.93,8.69-18.64h0s0,0,0,0ZM381.81,361.8c-.1.16-.19.32-.3.49-2.7-.3-6.89-1.63-9.23.03,4,3.49,13.49,2.21,18.46,1.96.88-.04,5.2.62,3.71-1.44-1.02-1.4-8.37-.22-10-.16-.66-4.74,5.21-4.68,8.7-3.83,4.79,1.16,8.65,5.29,10.45,9.77,3.54,8.8.68,21.06-6.53,27.28-12.77-8.25-25.92-15.58-41.14-18.25-.11-.46-.2-.91-.27-1.37.34-7.46.71-8.18,3.5-12.83,5.47-7.43,15.86-10.78,22.64-1.63h0s0-.02,0-.02ZM357.67,352.36c3.69-3.34,6.17.07,8.68,2.91-2.97.2-5.43-2.65-8.68-2.91ZM368.31,354.44c-2.19-1.77-3.33-8.08-3.41-10.88,3.82,2.1,5.86,6.94,3.41,10.88ZM365.59,352.1c-1.28-.12-5.21-3.8-6-4.95-1.24-1.81-1.2-4.8-1.57-6.97,6.6,1.02,6.36,6.36,7.56,11.91h0ZM356.73,339.7c.39,1.95.78,3.8,1.17,5.7-3.28-.72-5.27-2.77-5.91-6.3,1.67.21,3.15.39,4.74.59h0ZM350.96,341c-1.35.14-2.25-.74-3.64-1.32,2.61-1.02,3.09-.84,3.64,1.32ZM346.46,340.45c1.94.87,3.55,1.69,5.49,2.87-3.2.31-4.37-.32-5.49-2.87ZM349.07,345.06c2.6-1.48,6.3-.39,8.45,2.63-2.89-.25-7.38.61-8.45-2.63ZM350.73,348.7c2.6-.78,7.96-.24,9.68,1.01-2.11,1.22-5.94,1.53-8.35,2,3.36,1.11,9.05,1.42,11.79,4.65-1.19.92,1.3-1,0,0-1.06-1.48-7.63,1.74-8.35-.15,3.13-.05,7.04,1.92,7.04,1.92-.01,1.4-4.35,3.34-4.62,3.52-3.15-2.65-5.39-9.14-7.19-12.95h0ZM356.39,380.85c.05.07.11.14.15.21.22-.02.42-.04.64-.07.47,0,.92.11,1.32.3,3.59.79,7.1,1.89,10.51,3.22,12.75,4.98,24.88,12.26,35.57,20.76,10.5,8.34,20.49,18.29,27.09,30.07,3.14,5.59,6.32,12.31,6.89,18.77.52,5.71-2.71,15.59-10.19,11.76,3.67-10.84-3.83-22.83-10.14-31.17-6.46-8.53-14.29-16.17-22.78-22.68-7.88-6.04-30.65-18.5-45.2-20.05-6.25-1.15-7.45-1.57-12.02,1.45-1.72,1.13-4.01-.42-4.01-.42-1.01-.77-1.38-2.45-1.38-3.61,0-1.62.85-5.25,3.87-7.24,2.71-1.78,6.41-2.09,9.56-2.15,3.39-.08,6.77.24,10.1.84h0ZM407.46,450.03c-6.1,7.6-12.95,15.21-15.5,16.83-2.06-3.59-4.13-7.17-6.3-10.95,4.78-5.42,19.88-25.36,22.09-28.55,3.23,3.44,6.13,6.76,8.67,10.47-1.66,2.64-9.1,12-8.96,12.2h0ZM319.82,415.59c1.99,5.45-2.32,5.15-5.9,7.59-1.94,1.32-2.08,2.24-4.32,1.66-1.38-.36-3.06-2.13-3.77-3.3-2.55-4.25.14-7.88,3.22-10.78,4.13,2.46,8.82-.53,10.79,4.83h0s0,0,0,0ZM319.34,410.2c.58.24.67.62.24,1.12-.64-.2-.71-.58-.24-1.12ZM313.91,410.61c-9.95-.2-9.79-15.79.19-15.59,10.1.2,10,15.8-.19,15.59ZM309.66,393.64c.12,0,.35.35.33.38-.26.28-.56.55-.95.92-.15-.82-.09-1.28.61-1.29h0ZM323.91,405.21c2.26,1.77,4.76,1.96,7.49,1.88-1.18,2.96-5.1,13.91-8.97,12.81-.57-.74-1.49-6.26-1.43-7.49.14-2.43,1.93-5.02,2.9-7.2h0s0,0,0,0ZM337.46,401.73c2.25-5.44,3.56-10.32,10.71-8-1.8,6.85-5.15,13.58-8.47,19.8-.9,1.68-2.27,5.7-4.01,6.7-1.59.9-5.12-.29-6.76-.51,2.3-6.15,6-11.87,8.54-17.97h0s0-.01,0-.01ZM349.96,393.96c4.86.49,9.39,2.21,14.34,4.02-4.37,9.58-9.02,18.67-14.99,27.05-4.05-1.4-7.94-2.74-11.86-4.09,4.53-8.89,8.65-17.77,12.53-26.98h0s0,0,0,0ZM365.63,398.63c2.06.78,4.03,1.64,5.95,2.57.37.49,6.55,3.06,6.74,3.52.05.03.11.05.17.09-.02.05-.05.12-.07.19.02.07.05.14.06.21.03.34-2.48,4.52-2.54,4.54-4.29,7.47-12.44,19.97-14.7,22.17-3.46-2.03-6.81-4.01-10.4-6.12,5.4-8.87,10.26-17.83,14.8-27.18h0ZM378.06,409.88c.2-.26,1.58-3.26,2.07-4.02,4.3,2.2,11.02,6.75,12.7,8.57-.56,1.24-16.89,25.67-19.03,27.78-3.62-3.03-7.26-6.08-10.87-9.1,4.93-7.82,15.12-23.22,15.13-23.24h0ZM388.51,424.14l1.23-1.82c1.55-2.28,3.09-4.55,4.65-6.86,4.39,3.21,8.42,6.86,12.19,10.76-1.05,1.82-3.53,5.37-6.49,9.35,0,0-13.63,17.54-15.4,18.8-3.11-3.59-6.23-7.18-9.37-10.8,4.36-6.43,8.75-12.9,13.19-19.45h0ZM343.38,365.76c-.72.3-1.23.51-2.17.9,1.02.63,6.03,1.16,6.03,1.16,2.7-.02,5.41-.61,6.42-2.14.79-1.22.86-1.34-.61-1.48-2.19-.21-4.69,1.93-7.09,1.99l-.22-.29c2.07-3.05,7.69-5.05,11.55-3.31-.44.72-3.27,9.39-3.55,12.87v.02c-.09.14-.6,2.05-1.78,1.9-2.32-.27-1.52-.29-4.19-.5-2.77.08-3.96-.17-6.23.27-2.24.44-3.57,1-5.5,2.11-2.15-3.46-5.3-5.3-9.39-5.02-1.66-10.86,9.06-15.78,16.74-8.48h0s0,0,0,0ZM326.99,376.06c2.07-.87,7.98,1.79,7.33,3.87-1.64,2.01-2.21,2.85-3.36,5.02-2.13.84-3.19-.25-5.19-2.3-.68-2.37-1.41-5.5,1.22-6.59h0ZM330.12,390.97c.69,2.68,2.11,5.01,5.54,5.66-.63,2.41-1.65,7.28-4.03,8.56-2.37,1.27-6.22-.27-7.73-2.24-1.43-1.88-2.03-6.1-1.16-8.28,1.38-3.47,4.09-3.8,7.38-3.7h0ZM324.46,387.48c.32,9.1-16.12,8.82-15.56-1.06.57-10.01,15.86-8.98,15.56,1.06ZM300.29,382.74c9.93.2,9.78,15.77-.28,15.55-9.95-.21-9.79-15.76.28-15.55ZM291.79,409.51c-1.19-2.98-.71-7.65,2.17-9.64,1.91-1.32,1.84-.62,4.13-.24,2.36.4,4.5-.09,6.85-.02-.94,3.59-.17,6.69,1.99,9.33-2.61,6.96-12.19,7.93-15.14.55h0ZM291.84,426.76c-2.28-2.77-2.7-8.09.12-10.75,1.91-1.8,2.04-.65,4.4,0,2.25.63,4.1.03,6.35.1.72,4.03,3.79,8.07.2,11.4-3.22,2.99-8.31,2.61-11.08-.76h0s0,0,0,0ZM309.23,427.52c-.41,4.14-.11,6.38,1.29,10.34-1.43,1.1-3.13,2.41-4.77,3.68-5.81-3.31-4.28-16.5,3.48-14.02h0ZM310.37,442.22c2.83-2.1,6.49-4.69,9.39-5.86,23.06-15.32,75.55,49.4,58.74,63.52-4.87,1.63-21.58,9.67-26.81,12.1-2.11.97-32.69,10.89-31.4,9.01,9.5-13.99-2.61-63.82-20.71-71.79,3.68-2.24,7.34-4.41,10.81-6.98h0s0,0,0,0ZM275.19,462.23c5.22-1.76,7.74-2.88,13.14-1.25-1.21,3.44-11.95,4.83-14.99,5.34-3,.51-12.03,3.26-12.84-.66,4.94-.96,9.9-1.82,14.68-3.43h0ZM292.01,510.57c-10.56.7-23.99,1.58-34.17-1.62,1.35-3.99,2.65-7.85,4.04-11.96,14.3.32,28.62-.68,43.11-3.65.25,2.05.58,4.08.75,6.14.14,1.78,1.12,6.58.34,8.14-1.57,3.14-10.59,2.73-14.07,2.95h0ZM304.52,518.41c-1.26,1.28-3.78,1.02-5.42,1.2-5.37.59-10.75.95-16.15,1.08-10.05.23-20.83.51-30.72-1.51,1.62-2.88,3.14-5.57,4.77-8.47,16.24,2.23,32.47,2.33,48.7-.05.07,1.69.1,6.45-1.18,7.76h0ZM262.08,495.28c1.2-5.92,1.45-11.6,1.27-17.51,11.9-.26,23.6-1.39,35.13-4.8,3.48,5.78,5.14,12.06,6.22,18.83-14.03,2.94-28.08,3.94-42.61,3.48h0s0,0,0,0ZM263.18,476.15c-.51-2.3-.99-4.48-1.52-6.91,7.33-.93,14.47-1.43,21.5-3.89,2.33-.81,5.55-3.21,7.89-2.38,2.58.92,5.47,6.43,6.68,8.7-11.46,3.24-22.86,4.39-34.54,4.48h0ZM184.87,384.79c-1.33,1.48-2.46,2.74-3.73,4.16-1.92-2.56-3.89-4.99-5.99-7.41,3.75.18,6.88.86,9.72,3.25h0s0,0,0,0ZM172.25,383.92c-.56.65,7.23,6.23,6.37,7.44-2.12,3.04-3.02,5.21-4.32,7.78-.96,1.91-1.18,3.28-3.04,7.17-.11-.34-15.2-5.05-14.8-5.54,1.25-1.51,5.23-6.82,7.72-9.22,2.14-2.06,4.4-4.83,8.06-7.62h0s0-.01,0-.01ZM152.15,401.8c3.73,4.13,9.55,6.74,14.6,8.89,1.88.79,6.47,1.02,7.48,2.7,1.26,2.12-.62,4.12-2.72,4.54-4.25.87-12.19-4.25-15.84-6.08-3.71-1.86-10.6-7.04-3.52-10.06h0ZM148.76,434.82c-1.98-8.22,1.14-12.87,1.66-19.89.06-.94.42-3.2,1.15-2.61,4.46,3.65,15.79,8.06,21.28,7.63-.78,2.41.23,5.44.32,6.03.27,1.69,1.43,4.07,1.41,5.9-.1,7.28-19.44,11.91-25.81,2.94h0s0,0,0,0ZM143.33,443.76c-1.77-3.04-1.84-8.44,2.52-9.24,3.14,8.99,14.18,9.07,22.25,6.42,2.25-.74,4.67-1.71,6.58-3.15,1.28-.96,2.63-3.87,3.93-4.4,3.99-1.62,4.86,5.06,3.73,7.37-4.02,8.16-19.74,9.53-27.45,8.76-4.46-.44-9.13-1.61-11.54-5.77h0s0,0,0,0ZM149.74,451.73c2.6,3.2,31.14.84,33.58-7.21.78-2.59,6.94,6.96,10.9,9.28,2.58,1.51,1.78,7.45-3.61,14.73-3.38,4.57-21.74,13.22-28.77,8.62-5.81-9.57-8.94-15.26-12.11-25.4h0ZM162.16,480.14c4.72,1.55,7.62,2.46,12.62.98,4.16-1.23,8.15-3.12,11.69-5.64,7.87-5.62,12.76-12.7,11.32-22.49,7.4-4.68,9.04,7.86,7.89,11.94-1.92,6.8-7.14,12.32-12.58,16.55-5.46,4.24-11.98,7.76-18.88,8.89-5.69.93-16.3-2.53-12.07-10.24h0s0,0,0,0ZM225.4,518.49c-5.35.5-16.91-6.83-21.75-9.18-8.81-4.28-19.74-9.71-26.86-16.53,23.04-6.81,34.77-24.75,32.89-31.6-.05-.21,6.73,2.42,11.94,3.33,6.65,1.17,13.18,2.25,19.61,3.25,12.81,1.65,3.48,48.94-15.83,50.74ZM243.22,524.12c-3.33,2.76-7.41,4.86-11.85,4.6-3.18-.18-9.37-2.89-7.22-7.15,11.99,3.55,21.19-15.52,24.06-24.15,1.9-5.72,3.06-12.13,2.66-18.17-.46-6.89-2.4-10.88-7.97-14.69.93-4.6,6.77-4.16,9.83-2.28,3.32,2.04,4.94,5.67,5.98,9.26,2.62,9.18,1.22,19.96-1.53,28.96-2.58,8.45-7.03,17.88-13.95,23.64h0ZM293.76,524.99c-4.93.39-9.87.58-14.81.58-9.79-.01-20.53-.11-30.1-2.24,2.91-3.56,5.36-2.17,9.71-1.76,5.34.51,10.7.75,16.07.76,9.77.04,19.41-1.35,29.14-1.55-1.31,4.5-6.09,3.88-9.99,4.19h0s0,0,0,0ZM319.35,512.25c-.7,6.32-6.04,23.51-15.56,15.09,9.26-10.49,6.11-30.66,2.85-42.88-1.88-7.05-4.63-13.75-9.22-19.48-4.37-5.46-5.86-6.12-11.71-8.15-1.49-.51-6.45.63-4.41-4.52,3.02-7.63,16.48-1.12,20.71,3.12,6.88,6.88,11.27,16.53,13.93,25.76,2.89,9.96,4.53,20.69,3.39,31.06h0s0,0,0,0ZM383.01,500.76c5.93-15.42-5.72-34.84-15.8-45.84-11.47-12.49-28.4-26.15-45.9-22.99-4.72.85-8.63,5.74-9.26,3.48-2.67-9.49,3.51-11.19,5.4-11.88,7.98-2.88,16.01-.5,23.54,1.97,15.95,5.22,30.5,16.79,40.39,30.25,5.59,7.62,9.9,16.31,11.72,25.64,1.14,5.85,1.15,24.48-10.09,19.36ZM393.51,467.95c1.24-2.99,6.43-6.69,8.56-9.09,2.19-2.47,4.25-5.02,6.28-7.61.14.19,1.98-2.56,1.98-2.56,2.37-3.11,4.7-6.24,7.07-9.36,1.38,1.81,5.36,6.69,5.16,9.11-.19,2.28-3.72,5.51-6.3,7.84,0,0-14.34,14.42-20.98,19.46-.96-2.54-2.76-5.38-1.74-7.8h0s0,0,0,0ZM397.29,484.83c-1.62-2.73-1.92-6.43-.02-8.69,2.65-3.15,6.62-5.75,9.63-8.6,2.65-2.5,8.5-7.97,8.71-8.22.49-.46,1.36-2.1,1.36-2.1,2.18-2.33,4.37-4.65,6.62-6.92,1.26,2.61,3.11,7.19,2.37,10.23-.35,1.44-1.59,2.9-3.07,4.27,0,0-4.73,3.84-5.4,4.43-6.38,5.54-13.04,11.09-20.2,15.59h0ZM423.15,471.64c-.36,5.95-6.18,13.63-13.58,12.13l12.76-13.27c.27.39.55.76.82,1.14h0ZM409.3,486.95c3.76,3.09,8.1-5.27,11.47-6.1-.89,3.51-1.31,6.98-4.21,9.11-2.24,1.63-5.17,4.26-7.84,4.84-.06-2.61-.29-5.11.57-7.84h0ZM408.88,496.95c2.98-1.84,5.88-3.64,9.02-5.6-.21,3.14-1.18,6.54-2.08,9.59-.93,3.16-2.33,4.1-4.99,5.95-1.08-3.34-1.75-6.59-1.96-9.94h0ZM413.37,513.81c-1.15-1.72-1.34-3.35-2.14-5.02,1.06-.79,1.98-1.47,3.32-2.45-.41,2.66-.75,4.83-1.18,7.47h0ZM415.25,515.03c.33-2.29.61-4.24.93-6.43,2.14,2.59,2.56,2.79-.93,6.43ZM417.25,505.67c1.05,1.1,1.9,2.27,1.9,3.88-1.17-1.04-1.87-2.31-1.9-3.88ZM420.69,507.66c-3.4-4.97-2.87-7.47-1.47-13.1,1.15,2.17,2.11,4.47,2.9,6.8,1.02,2.98.42,3.72-1.43,6.29ZM424.25,502.21c-1.26-3.01-2.93-6.15-3.69-9.33-.72-3,.42-5.86,1.13-8.82.19-.04.4-.08.59-.13,2.13,3.8,4.24,7.6,6.34,11.41-1.09,2.24-2.55,4.45-4.37,6.87ZM429.29,493.33c-1.45-2.11-4.03-6.32-5.09-10.88-.8-3.48-.91-7.09-.27-9.74,3.56,4.92,6.61,9.15,8.98,12.45-.17,2.63-2.25,6.72-3.62,8.18h0ZM434.64,482.64c-3.59-4.99-9.19-10.5-9.46-13.39.03-1.12,3.34.61,3.36.27,1.61-.08,3.05.25,4.83-.12,1.65.03,3.79-1.51,4.81-2.47,2.96-5.13,2.31-3.64,4.71-9.19.14.36.34.97.39,1.75.27,3.74-1.85,5.83-4,10.42-2.39,5.11-4.2,11.91-3.58,12.27.66.38,2.1-6.83,4.46-11.21,1.95-3.61,2.97-6.91,3.52-9.19.04.26.09.6.14,1,0,0,.05.41.09.83.07.67.33,6.05.08,8.26-.39,3.44-3.04,8.51-7.52,13.5-.61-.72-1.23-1.67-1.84-2.75h0ZM437.94,487.11c-.07-1.44,2.42-4.51,3.14-5.76,1.43-2.49,2.86-4.97,4.29-7.45.75,3.84,1.44,7.68,2.17,11.53.93,4.84.13,6.97-2.19,11.39-2.27-2.3-7.24-6.35-7.41-9.7h0s0-.01,0-.01ZM446.83,498.25c.74-1.56,1.45-3.06,2.15-4.57.13.03.26.05.39.07.84,2.88,1.67,5.76,2.51,8.63-1.88-1.12-3.44-2.52-5.05-4.14h0ZM455.48,503.93c-1.23-1.01-2.58-4.67-2.85-7.61,1.27.77,2.33,1.42,3.6,2.18-.23,1.72-.49,3.51-.75,5.42h0ZM456.8,496.13c-3.45-.47-5.21-2.36-6.01-5.53.14-.06.28-.12.43-.18,2.06,1.65,4.09,3.33,5.8,5.34l-.22.38h0s0,0,0,0ZM457.39,493.03c-2.4-1.7-5.71-3.69-7.3-6.2-1.6-2.54-1.71-7.39-2.29-10.3.13-.04.25-.09.38-.13,2.76,2.88,5.67,5.68,8.3,8.68,2.43,2.76,1.57,4.36.92,7.95h0ZM455.69,456.85c2.56,1.68,5.21,9.2,4.35,12.07-.62.4-1.25.8-1.86,1.2,1.1,2.15,2.03,1.14,2.07,4.01.04,3.28-.81,6.85-1.19,10.12-3.69-2.22-8.75-7.7-11.12-11.32-2.03-3.11-2.99-9.47-2.6-13.17.16-.13.34-.25.51-.37.8,1.89,10.31,13.22,11.81,10.63-4.43-5.19-10.06-9.45-13.44-15.58.09-.14.17-.26.26-.4,2.17.62,4.24,1.47,6.46,1.89,1.56.29,3.41.01,4.77.91h0s0,0,0,0ZM453.39,454.13c-1.75.35-11.17-1.44-10.06-4.26,3.99-.14,7.26,1.17,10.06,4.26ZM457.94,444.37c-4.5,3.35-15.06,6.88-18.42.59-1.86-3.47-2.87-7.4-4.86-10.89-2.03-3.57-4.41-6.92-6.75-10.3,7.01-2.41,8.2-4.26,8.25-12.69,4.67.76,7.96-.52,12.49-1.06,4.1-.48,7.35-.82,11.47-2.39,14.28,9.07,9.63,27.93-2.2,36.73h0s0,0,0,0Z" fill="url(#radial-gradient-53)" stroke-width="0"/>
      </g>
    </g>
  </g>
  <g id="trust_banner" data-name="trust banner">
    <path d="M407.05,669.6c-14.7,1.2-18.88,2.24-30.56-15.22-4.93-7.37,12.27-38.7,16.61-38.22" fill="#e6e6e6" stroke="#58595b" stroke-miterlimit="10" stroke-width=".97"/>
    <path d="M388.33,668.35c-3.44-2.43-13.82-14.46-13.24-16.79,1.25-5.01,20.23-5,21.23-1.58.63,2.16-5.43,4.6-7.18,8.52-1.68,3.76-2.2,7.75-.81,9.85,1.16,1.75,19.58,5.13,47.23-6.79l-25.68-23.77,23.04-30.17-40.32,8.49" fill="#ebebeb" stroke="#58595b" stroke-linecap="round" stroke-miterlimit="10" stroke-width=".97"/>
    <path d="M373.35,651.02c1.31,1.07,4.14,5.28,7.45,9.51,3.32,4.24,9.36,9,8.18,8.27-6.98-4.29,16.4-5.51,13.29-16.74-3.42-12.39-30.36-2.21-28.92-1.04Z" fill="#999" stroke="#58595b" stroke-linecap="round" stroke-miterlimit="10" stroke-width=".97"/>
    <path d="M263.29,651.33c-1.4,1.05-4.43,5.2-7.97,9.36-3.55,4.17-10.02,8.85-8.76,8.14,7.48-4.22-17.55-5.42-14.23-16.47,3.67-12.19,32.5-2.18,30.96-1.03Z" fill="#999" stroke="#58595b" stroke-linecap="round" stroke-miterlimit="10" stroke-width=".99"/>
    <path d="M227.21,669.61c15.73,1.18,20.21,2.21,32.71-14.98,5.28-7.26-13.13-38.08-17.78-37.61" fill="#e6e6e6" stroke="#58595b" stroke-miterlimit="10" stroke-width=".99"/>
    <path d="M247.25,668.38c3.69-2.39,14.79-14.23,14.17-16.52-1.34-4.93-21.65-4.92-22.73-1.55-.68,2.13,5.81,4.52,7.68,8.39,1.79,3.7,2.36,7.63.87,9.69-1.24,1.72-20.96,5.04-50.56-6.68l27.49-23.39-24.66-29.69,43.16,8.36" fill="#ebebeb" stroke="#58595b" stroke-linecap="round" stroke-miterlimit="10" stroke-width=".99"/>
    <path d="M267.21,646.84c-1.77,1.29-5.68,6.56-10.22,11.81-4.55,5.26-12.72,11.03-11.14,10.17,9.39-5.11-21.38-8.07-16.8-22.36,5.04-15.76,40.11-1.04,38.16.38Z" fill="#999" stroke="#58595b" stroke-linecap="round" stroke-miterlimit="10" stroke-width="1.26"/>
    <path d="M387.59,607.92c-1.11-3.21-4.63-4.92-7.82-3.77-19.22,6.89-40.7,9.6-62.24,9.6s-43.38-3.05-62.65-9.97c-3.37-1.21-7.09.37-8.6,3.62-4.98,11.43-11.35,25.42-16.48,37.21-.19.43-1.19,3.51-1.08,3.06,1.47-5.65,9.3-1.87,12.52-.73,41.85,14.72-1.03-.4,5.96,2.13,15.1,5.45,31.09,11.01,70.83,11.01,28.81,0,45.7-1.9,71.16-11.07.88-.32,4.12-1.44,5.02-1.7,5.09-1.43,8.05,2.61,8.09,3.07l-14.71-42.45Z" fill="#fff" stroke="#58595b" stroke-miterlimit="10"/>
    <text transform="translate(264.47 642.29) rotate(11.42)" fill="#231f20" font-family="NotoSansCondensed-ExtraBold, &apos;Noto Sans Condensed&apos;" font-size="37.68" font-weight="700"><tspan x="0" y="0">T</tspan></text>
    <text transform="translate(284.17 646.19) rotate(5.3)" fill="#231f20" font-family="NotoSansCondensed-ExtraBold, &apos;Noto Sans Condensed&apos;" font-size="37.68" font-weight="700"><tspan x="0" y="0">R</tspan></text>
    <text transform="translate(307.09 648.28) rotate(-.2)" fill="#231f20" font-family="NotoSansCondensed-ExtraBold, &apos;Noto Sans Condensed&apos;" font-size="37.68" font-weight="700"><tspan x="0" y="0">U</tspan></text>
    <text transform="translate(332.28 648.02) rotate(-5.44)" fill="#231f20" font-family="NotoSansCondensed-ExtraBold, &apos;Noto Sans Condensed&apos;" font-size="37.68" font-weight="700"><tspan x="0" y="0">S</tspan></text>
    <text transform="translate(352.03 646.12) rotate(-11.44)" fill="#231f20" font-family="NotoSansCondensed-ExtraBold, &apos;Noto Sans Condensed&apos;" font-size="37.68" font-weight="700"><tspan x="0" y="0">T</tspan></text>
  </g>
  <g id="in_devs_we_banner" data-name="in devs we banner">
    <path d="M230.12,271.47c12.53-8.79,16.57-10.75,14.1-32.14-1.05-9.03-36.38-19.69-39.52-16.43" fill="#e6e6e6" stroke="#58595b" stroke-miterlimit="10"/>
    <path d="M244.09,258.22c1.11-4.18,1.38-20.59-.65-22.03-4.38-3.09-19.51,9.48-18,12.83.95,2.11,7.43,0,11.48,1.91,3.88,1.83,7.1,4.6,7.3,7.17.17,2.28-12.16,16.98-42.25,25.96l4.43-35.61-38.74-8.35,37.89-20.06" fill="#ebebeb" stroke="#58595b" stroke-linecap="round" stroke-miterlimit="10"/>
    <path d="M243.96,258.11c-1.4-1.05-2.98-4.64-8.09-6.91-5.12-2.28-9.18-.33-9.86-1.58-1.23-2.26,14.56-18.65,17.99-12.43,2.05,3.72,1.5,22.07-.05,20.92Z" fill="#999" stroke="#58595b" stroke-linecap="round" stroke-miterlimit="10"/>
    <path d="M403.63,273.78c-11.99-8.58-15.86-10.49-13.49-31.36,1-8.81,34.37-21.61,37.37-18.44" fill="#e6e6e6" stroke="#58595b" stroke-miterlimit="10" stroke-width=".97"/>
    <path d="M390.26,260.86c-1.06-4.08-1.32-20.08.62-21.49,4.19-3.02,18.67,9.25,17.23,12.51-.91,2.06-7.12,0-10.99,1.87-3.71,1.79-6.8,4.48-6.98,6.99-.16,2.23,11.63,16.56,40.44,25.33l-4.24-34.74,37.07-8.14-36.26-19.57" fill="#ebebeb" stroke="#58595b" stroke-linecap="round" stroke-miterlimit="10" stroke-width=".97"/>
    <path d="M390.39,260.74c1.34-1.02,2.85-4.53,7.74-6.74,4.9-2.22,8.78-.32,9.43-1.54,1.18-2.21-13.93-18.19-17.22-12.13-1.97,3.63-1.43,21.53.04,20.41Z" fill="#999" stroke="#58595b" stroke-linecap="round" stroke-miterlimit="10" stroke-width=".97"/>
    <path d="M408.92,250.59c-.18.95-1.08,1.68-2.02,1.46-.31-.07-.6-.22-.85-.46-28.12-27.02-74.55-33.77-91.13-34.2-16.84-.44-54.23,7.73-84.85,31.23-2.14,1.64-4.89,2.35-5.28-.32-.14-.98-.74-3.93-1.02-4.96-3.42-12.54-10.93-16.18-14.91-17.79-.62-.25-3.71-2.82-4.04-3.39-3.65-6.26-1.43-11.53.79-13.09,20.76-14.63,29.6-18.09,38.47-21.62,20.82-8.28,46.32-14.42,70-14.42s50.55,6.06,71.19,14.81c19.48,8.27,23.06,10.21,36.6,20.49,6.52,4.96,8.6,6.75,8.58,9.39-.01,1.57-.52,4.49-2.93,6.26-3.55,2.61-6.55,1.83-10.86,6.85-5.93,6.92-6.85,15.02-7.73,19.76Z" fill="#fff" stroke="#58595b" stroke-miterlimit="10" stroke-width="1.04"/>
    <text transform="translate(214.28 261.47) rotate(-58.69)" fill="#231f20" font-family="NotoSansExtraCondensed-ExtraBold, &apos;Noto Sans ExtraCondensed&apos;" font-size="37.67" font-weight="700"><tspan x="0" y="0"> </tspan></text>
    <text transform="translate(217.48 256.16) rotate(-54.14)" fill="#231f20" font-family="NotoSansExtraCondensed-ExtraBold, &apos;Noto Sans ExtraCondensed&apos;" font-size="37.67" font-weight="700"><tspan x="0" y="0"> </tspan></text>
    <text transform="translate(221.11 251.1) rotate(-49.69)" fill="#231f20" font-family="NotoSansExtraCondensed-ExtraBold, &apos;Noto Sans ExtraCondensed&apos;" font-size="37.67" font-weight="700"><tspan x="0" y="0"> </tspan></text>
    <text transform="translate(225.12 246.35) rotate(-45.41)" fill="#231f20" font-family="NotoSansExtraCondensed-ExtraBold, &apos;Noto Sans ExtraCondensed&apos;" font-size="37.67" font-weight="700"><tspan x="0" y="0"> </tspan></text>
    <text transform="translate(229.49 241.9) rotate(-41.3)" fill="#231f20" font-family="NotoSansExtraCondensed-ExtraBold, &apos;Noto Sans ExtraCondensed&apos;" font-size="37.67" font-weight="700"><tspan x="0" y="0"> </tspan></text>
    <text transform="translate(234.21 237.74) rotate(-37.37)" fill="#231f20" font-family="NotoSansExtraCondensed-ExtraBold, &apos;Noto Sans ExtraCondensed&apos;" font-size="37.67" font-weight="700"><tspan x="0" y="0"> </tspan></text>
    <text transform="translate(238.98 233.89) rotate(-32.02)" fill="#231f20" font-family="NotoSansExtraCondensed-ExtraBold, &apos;Noto Sans ExtraCondensed&apos;" font-size="37.67" font-weight="700"><tspan x="0" y="0">I</tspan></text>
    <text transform="translate(248.74 227.21) rotate(-23)" fill="#231f20" font-family="NotoSansExtraCondensed-ExtraBold, &apos;Noto Sans ExtraCondensed&apos;" font-size="37.67" font-weight="700"><tspan x="0" y="0">N</tspan></text>
    <text transform="translate(270.38 218.55) rotate(-16.34)" fill="#231f20" font-family="NotoSansExtraCondensed-ExtraBold, &apos;Noto Sans ExtraCondensed&apos;" font-size="37.67" font-weight="700"><tspan x="0" y="0"> </tspan></text>
    <text transform="translate(276.12 216.47) rotate(-10.78)" fill="#231f20" font-family="NotoSansExtraCondensed-ExtraBold, &apos;Noto Sans ExtraCondensed&apos;" font-size="37.67" font-weight="700"><tspan x="0" y="0">D</tspan></text>
    <text transform="translate(296.58 212.7) rotate(-3.86)" fill="#231f20" font-family="NotoSansExtraCondensed-ExtraBold, &apos;Noto Sans ExtraCondensed&apos;" font-size="37.67" font-weight="700"><tspan x="0" y="0">E</tspan></text>
    <text transform="translate(312.19 211.51) rotate(2.47)" fill="#231f20" font-family="NotoSansExtraCondensed-ExtraBold, &apos;Noto Sans ExtraCondensed&apos;" font-size="37.67" font-weight="700"><tspan x="0" y="0">V</tspan></text>
    <text transform="translate(331.64 212.4) rotate(8.81)" fill="#231f20" font-family="NotoSansExtraCondensed-ExtraBold, &apos;Noto Sans ExtraCondensed&apos;" font-size="37.67" font-weight="700"><tspan x="0" y="0">S</tspan></text>
    <text transform="translate(347.71 215.05) rotate(12.88)" fill="#231f20" font-family="NotoSansExtraCondensed-ExtraBold, &apos;Noto Sans ExtraCondensed&apos;" font-size="37.67" font-weight="700"><tspan x="0" y="0"> </tspan></text>
    <text transform="translate(353.74 215.7) rotate(19.48)" fill="#231f20" font-family="NotoSansExtraCondensed-ExtraBold, &apos;Noto Sans ExtraCondensed&apos;" font-size="37.67" font-weight="700"><tspan x="0" y="0">W</tspan></text>
    <text transform="translate(380.78 225.71) rotate(28.5)" fill="#231f20" font-family="NotoSansExtraCondensed-ExtraBold, &apos;Noto Sans ExtraCondensed&apos;" font-size="37.67" font-weight="700"><tspan x="0" y="0">E</tspan></text>
  </g>
  <text transform="translate(405.82 58.95)" fill="#fff" font-family="NotoSansCondensed-Bold, &apos;Noto Sans Condensed&apos;" font-size="20" font-weight="700"><tspan x="0" y="0"></tspan></text>
  <g>
    <text transform="translate(65.52 260.19) rotate(-40.89)" fill="#fff" font-family="NotoSansExtraCondensed-ExtraBold, &apos;Noto Sans ExtraCondensed&apos;" font-size="109.26" font-weight="700"><tspan x="0" y="0">C</tspan></text>
    <text transform="translate(102.13 227.37) rotate(-32.81)" fill="#fff" font-family="NotoSansExtraCondensed-ExtraBold, &apos;Noto Sans ExtraCondensed&apos;" font-size="109.26" font-weight="700"><tspan x="0" y="0">O</tspan></text>
    <text transform="translate(155.44 193.07) rotate(-23.44)" fill="#fff" font-family="NotoSansExtraCondensed-ExtraBold, &apos;Noto Sans ExtraCondensed&apos;" font-size="109.26" font-weight="700"><tspan x="0" y="0">R</tspan></text>
    <text transform="translate(205.16 170.58) rotate(-13.23)" fill="#fff" font-family="NotoSansExtraCondensed-ExtraBold, &apos;Noto Sans ExtraCondensed&apos;" font-size="109.26" font-weight="700"><tspan x="0" y="0">N</tspan></text>
    <text transform="translate(269.82 155.37) rotate(-2.28)" fill="#fff" font-family="NotoSansExtraCondensed-ExtraBold, &apos;Noto Sans ExtraCondensed&apos;" font-size="109.26" font-weight="700"><tspan x="0" y="0">U</tspan></text>
    <text transform="translate(329.59 153.12) rotate(7.36)" fill="#fff" font-family="NotoSansExtraCondensed-ExtraBold, &apos;Noto Sans ExtraCondensed&apos;" font-size="109.26" font-weight="700"><tspan x="0" y="0">C</tspan></text>
    <text transform="translate(378.1 158.49) rotate(16.64)" fill="#fff" font-family="NotoSansExtraCondensed-ExtraBold, &apos;Noto Sans ExtraCondensed&apos;" font-size="109.26" font-weight="700"><tspan x="0" y="0">O</tspan></text>
    <text transform="translate(438.77 176.9) rotate(25.92)" fill="#fff" font-family="NotoSansExtraCondensed-ExtraBold, &apos;Noto Sans ExtraCondensed&apos;" font-size="109.26" font-weight="700"><tspan x="0" y="0">P</tspan></text>
    <text transform="translate(486.26 200.45) rotate(32.56)" fill="#fff" font-family="NotoSansExtraCondensed-ExtraBold, &apos;Noto Sans ExtraCondensed&apos;" font-size="109.26" font-weight="700"><tspan x="0" y="0">I</tspan></text>
    <text transform="translate(516.2 218.69) rotate(39.11)" fill="#fff" font-family="NotoSansExtraCondensed-ExtraBold, &apos;Noto Sans ExtraCondensed&apos;" font-size="109.26" font-weight="700"><tspan x="0" y="0">A</tspan></text>
    <text transform="translate(65.52 260.19) rotate(-40.89)" fill="#fff" font-family="NotoSansExtraCondensed-ExtraBold, &apos;Noto Sans ExtraCondensed&apos;" font-size="109.26" font-weight="700"><tspan x="0" y="0">C</tspan></text>
    <text transform="translate(102.13 227.37) rotate(-32.81)" fill="#fff" font-family="NotoSansExtraCondensed-ExtraBold, &apos;Noto Sans ExtraCondensed&apos;" font-size="109.26" font-weight="700"><tspan x="0" y="0">O</tspan></text>
    <text transform="translate(155.44 193.07) rotate(-23.44)" fill="#fff" font-family="NotoSansExtraCondensed-ExtraBold, &apos;Noto Sans ExtraCondensed&apos;" font-size="109.26" font-weight="700"><tspan x="0" y="0">R</tspan></text>
    <text transform="translate(205.16 170.58) rotate(-13.23)" fill="#fff" font-family="NotoSansExtraCondensed-ExtraBold, &apos;Noto Sans ExtraCondensed&apos;" font-size="109.26" font-weight="700"><tspan x="0" y="0">N</tspan></text>
    <text transform="translate(269.82 155.37) rotate(-2.28)" fill="#fff" font-family="NotoSansExtraCondensed-ExtraBold, &apos;Noto Sans ExtraCondensed&apos;" font-size="109.26" font-weight="700"><tspan x="0" y="0">U</tspan></text>
    <text transform="translate(329.59 153.12) rotate(7.36)" fill="#fff" font-family="NotoSansExtraCondensed-ExtraBold, &apos;Noto Sans ExtraCondensed&apos;" font-size="109.26" font-weight="700"><tspan x="0" y="0">C</tspan></text>
    <text transform="translate(378.1 158.49) rotate(16.64)" fill="#fff" font-family="NotoSansExtraCondensed-ExtraBold, &apos;Noto Sans ExtraCondensed&apos;" font-size="109.26" font-weight="700"><tspan x="0" y="0">O</tspan></text>
    <text transform="translate(438.77 176.9) rotate(25.92)" fill="#fff" font-family="NotoSansExtraCondensed-ExtraBold, &apos;Noto Sans ExtraCondensed&apos;" font-size="109.26" font-weight="700"><tspan x="0" y="0">P</tspan></text>
    <text transform="translate(486.26 200.45) rotate(32.56)" fill="#fff" font-family="NotoSansExtraCondensed-ExtraBold, &apos;Noto Sans ExtraCondensed&apos;" font-size="109.26" font-weight="700"><tspan x="0" y="0">I</tspan></text>
    <text transform="translate(516.2 218.69) rotate(39.11)" fill="#fff" font-family="NotoSansExtraCondensed-ExtraBold, &apos;Noto Sans ExtraCondensed&apos;" font-size="109.26" font-weight="700"><tspan x="0" y="0">A</tspan></text>
  </g>
  <text transform="translate(220.58 53.99)" fill="#fff" font-family="NotoSansCondensed-Bold, &apos;Noto Sans Condensed&apos;" font-size="63" font-weight="700"><tspan x="0" y="0" letter-spacing="0em">O</tspan><tspan x="40.95" y="0" letter-spacing="-.01em">W</tspan><tspan x="92.48" y="0">ASP</tspan></text>
</svg>