<?xml version="1.0" encoding="UTF-8"?><svg id="logo" xmlns="http://www.w3.org/2000/svg" viewBox="0 0 634.21 717.76"><path d="M473.52,505.6c2.5-2.52,5.94-.44,8.07,2.39,2.13,2.83,1.13,6.64.12,10.03-1.33,4.49-3.89,8.24-8.06,6.65-1.15-1.42.28-3.29,1.87-4.2,1.69-.97,3.44.86,3.93,1.16.1.06.19.14.28.23.62.59,1.15.89,4.03,4.2,1.58,1.81,1.94,4.67,4.07,5.79,1.73.9,3.83.52,5.72.04,2.03-.51,4.15-1.17,5.53-2.73,1.22-1.37,1.59-3.61.46-5.14-.89-1.2-2.5,0-3.1.88-.69,1.02-1.04,2.28-1.23,3.48-.52,3.28-.92,6.62-.37,9.9.55,3.28,2.14,6.5,4.9,8.35M479.29,494.49c-.61,2.35-1.67,4.61-3.08,6.59-.43.6-.93,1.24-.98,1.99s.56,1.58,1.29,1.43M474.81,502.36c-2.67,2.28-4.81,5.17-6.26,8.35,2.36-3.29,4.72-6.57,7.09-9.86-1.15,1.91-2.29,3.82-3.44,5.74,1.09-1,1.85-2.35,2.17-3.78l.85-.39M475.92,504.03c.27-1.3.53-2.6.82-3.9-.57,1.46-1.79,2.63-1.82,4.18M475.38,503.09l.26-1.11M474.94,503.76c.72-3.07,1.68-6.1,2.86-9.03.49.52.03,1.34-.39,1.92-1.47,2.02-2.44,4.42-2.78,6.9M474.63,502.25c-2.42,3.38-4.53,6.98-6.28,10.76.75-2.5,2.21-4.8,4.16-6.52M478.96,493.75c-1.66,1.62-1.92,4.11-1.96,6.42-.04,2.25-1.61,4.01,2.64,6.37-1.11-1.79-2.08-3.74-2.41-5.82s.05-4.36,1.36-6.02c-1.41,3.55-6.1,7.73-4.45,11.16,2.23-.1,2.91,1.01,3.12-.58.33-2.4.6-8.87,1.56-11.1M480.72,488.72c-1.58,2.49-2.89,5.19-3.49,8.08-.6,2.89-.41,6,.88,8.63-.93-3.45-.34-7.1.25-10.63.11-.68.24-1.38.67-1.91M480.48,489.32c-3.77,4.63-4.79,12.11-2.4,17.58-.52-.35-.53-1.75-.56-2.39-.13-3.38,1.34-6.93,1.22-10.04M474.48,503.95c-2.18.93-3.6,3.07-4.88,5.06-1.55,2.43-3.11,4.86-4.66,7.29.99-2.05,3.01-3.57,3.48-5.79M466.59,516.07c1.15-1.25,2.04-2.71,2.92-4.15,1.08-1.8,2.17-3.58,3.24-5.38M479.3,524.02c1.09-1.28,1.85-3.01,1.66-2.72,1.01-3.28,1.23-6.64.48-9.84-.27-1.16-.74-2.33-1.61-3.16-1.33-1.28-3.31-1.54-5.15-1.73-1.1-.11-2.58,1.43-3.54,2.61,3.32-3.12,10.41-3.86,11.2,3.63-1.37-2.56-4.66-8.83-7.11-7.51-1.74.94-3.89,1.93-5.14,3.45M477.58,492.68c-.27,1.87-.49,3.75-.37,5.63.19,3.1,2.53,7.2,4.39,9.7M482.34,488.12c-2.13,3.5-3.97,7.19-5.49,11M478.91,494.21c2.05-3.9,3.87-7.93,5.44-12.04M478.96,494.83c1.01-1.58,1.99-3.18,2.95-4.8-.12.22-.22.45-.34.68.36-.55.72-1.11,1.08-1.67-1.56,1.77-2.9,3.74-3.95,5.84,1.45-2.23,2.86-4.49,4.22-6.78-1.94,3.15-3.97,6.25-6.08,9.3,2.34-3.66,4.57-7.37,6.67-11.15-2.98,3.56-5.32,7.67-6.85,12.05,1.25-4.35,3.46-8.43,6.41-11.86-2.4,3.21-4.33,6.77-5.7,10.53,1.89-3.89,3.83-7.83,6.67-11.08-.61.26-1.01.85-1.38,1.41-2.33,3.6-4.39,7.37-6.17,11.27,3.01-4.65,4.16-10.47,7.9-14.56-3.16,5.05-5.93,10.33-8.25,15.81,1.76-3.73,3.52-7.47,5.28-11.2l-5.48,8.86M501.81,547.2l-.67-.02M500.66,547.02c.48.26,1.09.24,1.54-.06-.81.44-1.91.31-2.59-.32.62.48,1.41.75,2.19.75M502.43,547.36l-2.5-.71c.38.42,1.01.59,1.55.43M502.55,546.97l1.36-.24M480.21,492.96c1.16-1.04,1.91-2.23,2.53-3.51.82-.75,1.67-1.5,2.68-2-1.19.53-2.21,1.43-2.9,2.53.94-1.13,1.05-2.99,1.98-4.12-.94.5-.88,2.05-1.31,3.01l2.32-2.85M464.47,518.27c.59-.52,1.18-1.04,1.77-1.55.23-.21.48-.42.6-.71.23-.56.08-1.39.64-1.61-1.1,1.33-2.16,2.68-3.21,4.07M463.66,518.82c1.59-1.25,3.01-2.73,4.19-4.36M481.36,492.07c-2.73,4.47-3.01,11.68-.94,16.2M477.87,497.94c.48,3.71,1.96,8.06,3.94,11.24M290.04,314c-1.89-2.54-1.8-5.66.38-8.72,3.86-4.67,8.4-8.49,13.76-11.3,5.36-2.82,11.36-3.32,16.95-1.67.2.06.39.12.59.19.12.03.23.08.31.17.08.09.1.22.11.35.12,1.47-.42,2.94-1.31,4.12s-1.6,2.39-3.36,2.81c-1.74,1.01-3.69,1.72-5.69,1.77-1.97.05-3.94-.55-5.65-1.55-3.82-1.73-4.33-5.09-4.9-9.95-.05-2.1.98-3.26,2.35-4.25,1.29-.92,2.57-1.87,3.9-2.74,1.1-.73,2.26-1.39,3.51-1.79,1.38-.45,2.94-.55,4.31.04,1.15.49,2.24,1.47,1.4,2.76-.85,1.31-2.58,1.41-3.98,1.59-1.16.15-2.34.26-3.5.2-2.31-.11-4.56-.89-5.97-2.81-.66-.89-1.02-1.97-1.56-2.93-.67-1.17-1.41-2.29-2.23-3.36-1.09-1.42-2.41-2.79-4.2-3.26-2.51-.66-4.75,1.07-6.37,2.81-1.07,1.14-1.85,2.54-2.91,3.7-.85.94-1.77,1.88-2.76,2.72-2.02,1.7-4.43,2.88-7.09,3.14M329.52,344.04c6.91-8.23,9.3-18.58,4.38-28.1-4.9-10.57-16.67-.49-25.09,2.38-4.2.91-7.38,2.91-12.01.97M330.43,339.16c.08.01.07-.16,0-.14M330.11,340.38c3.49-5.22,5.44-11.48,5.52-17.76-.11,6.69-2.04,13.33-5.56,19.03-.63,1.02-1.48,2.12-2.69,2.21.94-2.09,2.36-3.96,4.13-5.41-2.18,1.41-4.35,2.83-6.55,4.22,2.97-.47,5.6-2.3,7.5-4.64s3.11-5.15,4.04-8l-2.22,5.34c1.79-4.5,3.6-9.37,2.48-14.08l-.15,6.34M331.58,335.72c-.69,2.94-2.91,5.47-5.74,6.55,1.99-.38,3.74-1.65,5-3.26s2.03-3.53,2.6-5.47c1.83-6.2,1.64-12.97-.54-19.06,1.31,3.08,2.01,6.41,2.03,9.76M333.29,316.63c.22-1.01-.31-2.06-1.03-2.82-1.44-1.5-3.58-2.17-5.66-2.18s-4.12.57-6.07,1.23M332.73,317.49c-.41-1.54-1.59-2.81-2.94-3.66-1.35-.85-2.89-.73-4.42-1.22-.6-.2-1.21-1.01-1.85-1.03-1.95-.08-3.58,1.41-4.93,2.83M334.62,329.2c1.3-2.41.83-5.39-.1-7.99-.43-1.21-.96-2.42-1.77-3.43-1.11-1.4-2.66-2.37-4.19-3.31-.92-.57-2.21-.87-3.27-1.13-1.34-.34-2.43-.4-3.77-.06-2.48.61-4.86,1.62-7.02,2.99M337.33,329.34c.17-3.43-.11-6.98-1.52-10.11-1.41-3.13-4.09-5.83-7.44-6.62-1.51-.36-3.08-.31-4.63-.15-5.43.59-10.82,2.86-14.48,6.93,3.11-2.58,6.45-4.89,9.98-6.87,1.18-.67,2.6-1.3,3.82-.71M334.11,329.42c-.72,2.75-1.86,5.38-3.34,7.78.37-.53.8-1.03,1.27-1.47M323.37,340.44c1.69.81,3.69-.05,5.24-1.1,1.06-.73,2.08-1.54,3-2.44.63-.62,1.29-1.5.96-2.32M323.67,339.55c.21.73,1.22.75,1.95.57,2.71-.65,5.25-1.97,7.34-3.82M323.96,339.25c.95.78,2.37.66,3.49.18s2.11-1.26,3.23-1.76c1.23-.56,2.7-.82,3.54-1.87M324,339.47c2.08.46,4.24-.37,6.05-1.51s3.39-2.6,5.27-3.62M324.25,339.34c.33.52,1.13.24,1.65-.08.99-.6,1.96-1.22,2.95-1.82,1.91-1.19,3.84-2.38,5.49-3.92M327.49,338.18c-.8.86-2.21.51-3.32.82-1.01.29-1.78,1.12-2.78,1.47-.98.35-2.14.2-2.96.83-.35.26-.59.62-.83.99-1.32,2.05-2.43,4.2-3.35,6.44M324.27,338.68c-.38.4-1.03.27-1.59.27-.81,0-1.57.37-2.29.76-2.83,1.57-5.4,3.61-7.57,6.01M329.96,313.11c-1.84-1.8-4.72-2.46-7.16-1.64-.05-.26.35-.36.61-.31,1.12.21,2.21.61,3.19,1.18M328.51,312.68l-.33-.18M331.78,313.97c-.73-1.32-2.13-2.17-3.57-2.59s-2.98-.43-4.49-.45c-.65,0-1.34,0-1.91.33,2.71-.72,5.53.5,8.07,1.69M303.96,319.01c1.45.75,5.51.31,6.33-1.36M301.15,320.29c1.39.24,2.8.47,4.19.28,1.39-.19,2.79-.89,3.49-2.11M294.61,320.08c.42.23.92.26,1.4.28,3.68.13,7.39-.13,11.01-.76M305.29,320.71c-.03.31.38.46.67.36s.49-.35.76-.49c.27-.15.6-.17.89-.29,1.12-.42,1.64-2.06,2.85-2.04M307.51,319.98c.67,1.28,3.72-2.34,4.15-2.86M290.9,315.92c1.09.44,1.51,1.75,2.34,2.59,1.68,1.69,4.55,1.09,6.73,2.06M295.02,319c1.57,1.13,4.68,2.02,6.61,2.17M289.31,306.28c-1.54,2.33-.46,1.5-.74,2.24-.56,1.54,0,3.25.62,4.78.5,1.23,1.03,2.45,1.61,3.64M295.17,300.89c.13-.23-.67.86-.93.85s-.49.17-.69.34c-1.13.95-2.13,2.07-2.95,3.31M296.9,299.05c-2.37,1.79-5.4,4.08-7.09,6.57M301.22,297.07c-1.54.37-3.03,1.05-4.31,1.98-1.78,1.28-3.19,3-4.58,4.71M292.72,302.87c-1.95,2.45-3.07,5.55-3.17,8.68-.03.9.03,1.8.3,2.66.51,1.61,1.73,2.89,3.06,3.93,2.11,1.66,4.76,2.91,7.41,2.5M288.41,308.02c-.75,2.06-.29,4.41.74,6.36,1.96,3.74,6.03,6.3,10.25,6.47,1.83.07,3.64-.27,5.43-.61l3.56-.68M300.46,319.5c4.49.41,9.6-1.13,13.31-3.63,2.18-1.47,5.88-5.53,8.78-4.65M329.2,313.48c-2.28-1.4-5.19-1.5-7.79-.84s-4.98,1.97-7.32,3.27l-7.14,3.99M333.26,316.31c.29-.41.24-.98.01-1.43s-.62-.79-.99-1.12c-1.3-1.14-2.67-2.31-4.35-2.69-.57-.14-1.14-.16-1.71-.27-.53-.1-1.05-.28-1.57-.36-1.97-.3-3.9.71-5.49,1.93M321.05,312.81c-.98,1.17-2.6,1.51-4.09,1.9-2.8.7-5.51,1.73-8.05,3.04-.6.31-1.2.65-1.68,1.12-.33.33-.58.7-.93.99-.62.54-1.49.75-2.29.57M292.45,318.26c1.32,1.32,4.39,3.92,6.33,3.71,1.42-.16,5.61-.39,6.52-.79.26-.12,1.13-.62,1.41-.63.51.02,2.49-1.46,2.87-1.8.59-.54-3.49,1.12-3.24.37M300.72,319.62c1.56.8,3.34.38,4.9-.2M316.1,300.99c2.85-1.02,5.43-2.73,7.5-4.93-1.11,2.67-3.74,4.49-6.54,5.22s-5.76.5-8.6-.02c-1.38-.25-2.77-.58-4.04-1.15-.75-.35-1.53-.9-1.59-1.73,4.53,2.56,10.03,3.36,15.11,2.18,1.65-.38,3.29-.99,4.51-2.15,1.2-1.13,1.92-2.96,1.27-4.48-.31-.75-.92-1.35-1.61-1.79-1.36-.87-3.01-1.19-4.61-1.28-5.06-.32-10.12,1.2-14.53,3.7s-8.2,5.95-11.63,9.69M302.91,286.01c-2.27,2.14-2.52,4.8-1.69,9.42M300.64,319.53c2.91,0,5.81-.62,8.45-1.82,1.1-.5,2.16-1.09,3.21-1.68,3.26-1.83,6.51-3.67,9.78-5.5M304.39,319.24c6.66-.8,12.97-3.64,17.81-8.3M300.34,297.32c-.29.33-.51-.36.02-.77.08-.07-.34.11-.31.21,1.55,1.51,2.2,2.21,3.52,2.89-.21-.12-.82-.85-1.05-.98M309.55,280.97c-1.94.52-3.62,2.31-5.18,3.27-.74.46-1.49.93-2.06,1.6s-1.03,1.73-1.41,2.83M317.04,282c-.33-.64-.66-1.27-1.31-1.38-.31-.05-.63-.04-.95-.03-3.28.18-6.5,1.18-9.3,2.89-.75.46-1.5.97-2,1.7M304.35,285.65c.96.79,2.16,1.28,3.39,1.39.55.05.89-.49,1.44-.54M308.27,286.92c1.9-.13,4.5-.43,6.28-1.07,1.29-.46,2.68-1.19,2.74-2.73.02-.8-.38-1.56-1.01-2.07-1.32-1.07-3.05-1-4.62-.67-3.41.7-6.59,2.48-8.94,5.04M304.2,320.41c-1.93-.23-4.55-.73-7.02-.52M301.48,319.46c2.26.07,5.29-.17,7.52-.72M293.66,302.26c-1.94,2.07-3.54,4.31-3.97,7.55M302.55,318.54c-.66.1-1.33.13-1.98.12-.02-.02-.07-.03-.18-.02-.03,0-.07,0-.11,0h-.19c-2.03-.1-4.02-.7-5.81-1.7-1.19-.84-2.34-1.81-2.9-3.18-.1-.22-.83,0-.76.18.1.24.21.46.35.69-.17.06-.31.17-.23.25.84.97,1.81,1.79,2.9,2.46-.21.05-.39.16-.31.22.35.24.72.45,1.09.63-.06.02-.14.04-.19.05-.07.04-.26.16-.09.21,1.94.61,3.97.81,6.01.61.05,0,.19-.05.3-.12.65,0,1.32-.03,1.96-.13.09-.02.43-.07.44-.2,0-.14-.21-.12-.31-.1h0s0,.02,0,.02ZM277.15,285.52c-.55.05-1.64.09-2.62.04s-2.25-.65-1.61.06c.41.46,1.63.76,2.15.84,1.21.2,2.57-.49,2.9-.56.64-.14-.29-.43-.82-.38h0ZM336.8,317.78l-2.17-3.6c-.07-.12-.36-.08-.55,0-.04-.06-.07-.13-.11-.18-.13-.2-.88.01-.71.28.07.12.14.23.21.34.11.35.31.63.56.91.5.84.99,1.7,1.49,2.54.07.13.38.08.57-.01h0c.13.21.85,0,.71-.28h0ZM328.44,309.5c-1.12-.52-2.75-.45-3.89-.06-.51.17-.95.5-1.38.83-.52.39-1.21.92-1.48,1.54-.27.66.18,1.45.43.71.68-2.03,2-2.48,3.94-1.94.87.24,1.69.65,2.58.83,1.65.31.65-1.49-.21-1.91h0ZM319.4,299.16c-.16-.09-.43-.06-.59-.02-1.62.48-3.28.88-4.95,1.23-.12.03-.39.12-.34.27,0,.02.03.02.04.04h-.02s-.08.03-.13.04c-.07.03-.16.07-.2.14-.02,0-.05,0-.07.02-.12.03-.43.14-.33.31.1.16.52.08.65.06.89-.2,1.76-.35,2.65-.53.77-.16,1.52-.36,2.2-.75.2-.04.4-.1.6-.14.12-.03.43-.14.33-.31,0,0-.02-.01-.03-.02.04-.03.09-.06.14-.07.12-.07.18-.17.05-.26h0ZM319.42,291.53s-.05.05-.09.06c0,0-.01.02-.02.03-.04.04-.08.07-.14.07-.03,0-.07.02-.11.03-.08.02-.18.01-.26.01-.04,0-.09,0-.14-.01-.06,0-.12-.02-.18-.04-.05-.01-.09-.03-.14-.06-.03-.02-.05-.04-.06-.08,0-.03,0-.05.01-.08,0,0,.01-.02.02-.03h0s.04-.05.06-.07c0,0,.02,0,.03-.02.02,0,.06-.03.09-.04.02,0,.04,0,.06-.02.02,0,.04,0,.06-.02.08-.02.18-.01.26-.01.04,0,.09,0,.14.01.08.01.16.03.23.07.03.01.05.03.08.04.03.02.05.04.06.08,0,.03,0,.05-.01.08h0s.03,0,.03,0ZM300.78,320.57c-.07.07-.21.1-.31.12-.13.02-.28.03-.41,0-.03,0-.06-.02-.08-.02-.19.03-.4.04-.57-.02h0c-.11,0-.21.01-.32,0-.16,0-.33-.03-.46-.12-.11-.06-.16-.18-.06-.28.14-.15.4-.19.6-.19.12,0,.23,0,.34.05.09-.05.2-.08.32-.11.22-.03.49-.04.69.07.04.02.07.05.09.08h.03s.07.05.08.09c0,0-.01.02-.02.03,0,0,0,.01.02.02.05.01.11.03.14.07.05.06,0,.13-.04.17h0s-.01.03-.01.03ZM334.11,324.97c.02-.18-.7-.02-.76.14-.47,1.35-.47,2.81-.64,4.22-.08.39-.17.79-.26,1.18-.03.02-.05.04-.06.07l-.15.29s0,.05.04.07c-.08.3-.17.59-.24.89-.01.06.03.09.09.11-.08.17-.17.32-.25.48-.26.49-.56.94-.88,1.39-.51.71-1.07,1.37-1.64,2.04-.05.04-.11.09-.16.13-.03.02-.06.04-.09.06-.17.12-.35.23-.53.34-.42.18-.86.33-1.3.47-1.39.44-2.81.8-4.23,1.14h-.09c-.15-.02-.26-.01-.28.1-.47.11-.95.23-1.41.33-.21.04-.05.23.03.31.17.15.43.21.65.22.63.02,1.27-.02,1.89-.1.06.02.12.03.16.02.03,0,.06,0,.08-.02h.02c.71-.1,1.41-.22,2.12-.39,1.47-.2,2.88-.69,4.17-1.44.15-.08-.14-.27-.43-.39,1.05-.49,2.05-1.12,2.81-2.03.19-.23-.59-.59-.86-.47.04-.06.09-.13.14-.18.32-.45.61-.91.87-1.39.26-.5.59-1.06.62-1.63,0-.13-.17-.2-.37-.24.13-.46.23-.93.29-1.4.29-1.38.5-2.79.64-4.2h0v-.04s.03-.02.03-.02v-.04ZM330.41,315.67c-.76-.43-1.51-.86-2.27-1.29.2.11.44.2.66.13s.38-.35.24-.54c.41.09.87-.06,1.15-.37-2.04-1.24-.41.15-2.77.53,3.15,1.83-1.57-.51-1.13-.33-.32-.18-1.4-.02-1.67.23.57.11-2.32-.38-1.75-.27-1.92-.29-1.47-.51-3.22.31.2.16.49.21.73.14-.33.41-.93.55-1.41.34.3-.24.5-.59.57-.97-3.26,1.3-6.17,3.34-9.24,5.05-2.05,1.15-4.22,2.16-6.52,2.68-2.45.56-4.9.34-7.37.03-.77-.09-1.56-.19-2.25-.55-1.02-.52-1.58-1.47-2.28-2.32-.83-1.01-1.7-1.98-2.52-3.01-.92-1.16-1.27-2.86-1.73-4.25-.31-.91-.23-1.75.01-2.69.12-.45.39-.97.86-.98.1,0,.57-.92.65-1.04.24-.35.49-.69.75-1.02.52-.66,1.08-1.28,1.68-1.87.59-.58,1.23-1.1,1.88-1.6.66-.5.82-1.2,1.45-1.73-.2.17.18-.25.25-.39.09-.17.24-.29.39-.41.71-.56,1.43-1.11,2.14-1.67.33-.25.64-.55.99-.78.31-.2.39-.06.69.09-.2.2-.39.39-.59.59.77.26,1.64.08,2.37-.29.73-.37,1.09-1.12,1.74-1.61,2.44-1.85,5.56-2.88,8.47-3.86-.14-.25-.5-.22-.78-.15-1.76.43-3.47,1.03-5.12,1.76-.84.37-1.66.78-2.46,1.23-.4.22-.8.45-1.19.7-.24.14-.51.34-.79.39-1.37.25-.68-5.71-.54-6.53.18-1,.53-1.98,1.05-2.85.15-.26.63-1.21.95-1.27.21-.04.37.16.56.21.26.07.55.04.79-.08-.34-.32-.58-.74-.7-1.2-.01-.05-.02-.1,0-.14.02-.05.07-.08.11-.1.22-.13.58-.26.66-.51-.06-.04-.12-.05-.19-.05-.37-.01-.74.06-1.08.2.14-.06-1.73-3.39-1.91-3.67-.77-1.19-1.68-2.26-2.57-3.36-.37-.46-.62-1.01-.98-1.48-.42-.54-.48-.75-1.12-.95-.2-.06-.22-.1-.35-.27-.22-.29-1.05-.24-.7-.12,2.22.81,3.62,3.48,4.8,5.31.91,1.42,1.83,2.84,2.69,4.3.05.09.71,1.1.59,1.19-1.66,1.25-2.57,2.47-2.99,4.51s-.4,3.77.52,6.97c-1.49.96-4.74,1.91-6,3.17-1.24,1.48-2.64,2.62-3.85,4-1.46,1.67-3.02,3.29-3.61,5.48-.67,2.48-.93,4.96.09,7.4,1.93,4.61,7.07,7.39,11.92,7.53,1.02.03,2.04-.06,3.04-.26,4.87-1,8.8-4.51,13.3-6.62,4.67-2.19,10.2-2.83,15.01-.96-.03-.02-.06-.04-.1-.05ZM483.5,488.66c-.43.48-.82.96-1.19,1.48-.26,0-.57.05-.65.2-2.24,4.07-4.98,8.7-4.98,13.46,0,.26,1.46-.14,1.47-.47,0-.22.03-.42.04-.63.13-.03.22-.08.21-.17-.19-2.61,1.21-5.22,2.27-7.53,1.01-2.22,2.21-4.36,3.85-6.19.17-.18-.79-.39-.99-.16l-.02.02h0Z" fill="none" stroke="#fff" stroke-miterlimit="10" stroke-width="1.01"/><path d="M339.51,321.03c-.13-.56-.31-1.1-.53-1.62-.05-.17-.12-.33-.17-.5-.24-.74-.3-1.52-.6-2.26s-.71-1.47-1.15-2.14c-1.73-2.69-4.65-5.43-7.86-6.11-.74-.16-1.51-.3-2.26-.24-4.4.39-7.85,2.9-11.66,4.84-3.28,1.67-6.67,3.15-10.18,4.24-.84.16-1.73.65-2.57.66-.75.26-.54.04-2.02.35-.07.09-.11.16-.12.23-.44.1-.86.25-1.03.51-.32.49.25.49.69.46,5.64-.32,11.13-1.79,16.2-4.31.09-.05.2-.08.3-.14.51-.25.39-.43-.01-.6-.41-.16-1.12.03-1.64.21-.09-.03-.2-.06-.3-.06,1.47-.69,2.92-1.41,4.36-2.15.91-.49,1.82-.97,2.72-1.48.43-.23.89-.6,1.35-.76.56-.2.64-.18,1.06.31.22.26,1.01.17,1.71-.06.24.17.57.23.88.24.19.18.45.32.72.38,1.99.47,3.59,2.03,4.76,3.67-.08.04-.17.1-.24.15-.8-.91-1.81-1.69-2.97-2.24-.72-.35-2.77.23-2.43,1.31.58,1.88,2.01,3.08,3.22,4.57.76.95,1.13,1.98,1.29,3.05,0,.15.01.27.05.38.12,1.13.04,2.3-.05,3.5-.28,3.75-.37,10.01-4.32,12.02-.14.07-.25.15-.36.23.22-.57-.37-.84-.86-.87-.87-.06-1.7.04-2.51.25-.28.04-.56.12-.74.18-.09.03-.19.06-.28.1-2.21.61-4.26,1.69-6,3.21-1.16.99-2.2,2.13-3.26,3.22-1.37,1.11-2.55,2.4-3.34,4.02-.02.03-.04.06-.04.09-.03.08-.08.16-.13.23-.25.59.8.76,1.11.76.62,0,1.45-.22,1.81-.78.66-.99,1.42-1.92,2.22-2.83.37-.05.73-.18,1-.35.95-.59,1.64-1.38,2.33-2.2.34-.2.68-.39,1.01-.59.32-.19.6-.53.57-.83.22-.18.43-.38.66-.56.82-.63,1.79-1.42,2.84-1.83.62-.16,1.26-.26,1.93-.29.39-.02.92-.17,1.3-.45-.38.83,4.38,3.62,5.54,3.02,3.08-1.58,3.29-2.17,4.04-5.28.53-.14-.07-5.03,0-5.59.35-2.68.16-1.97.12-4.67.07-.96.1-1.76.08-2.72.32.59-.1-2.05.23-1.48.11.18.3.31.5.39.45,1.45,3.4.75,3.04-.78Z" fill="none" stroke="#fff" stroke-miterlimit="10" stroke-width="1.01"/><path d="M318.27,300.44c-1.14.44-2.4.57-3.58.8-1.14.22-2.35.54-3.52.57-2.2.06-4.23-1.17-6.09-2.19-.81-.44-2.82-1.72-3.76-1.7-.86.02-.88.1-1.71.67-1.5,1.03-2.79,2.84-4.08,4.1-.55.54-1.09,1.1-1.6,1.7-.29.53-.56,1.09-.78,1.67-.3,2.14-.4,4.31-.25,6.47.01.23.04.47.06.7.09,1-.02,1.39,1.01,2.8.54.75,2.03,1.04,2.84,1.31,1.66.54,3.35,1,5.04,1.47,1.27.35,2.54.7,3.79,1.11.41.13,2.66.75,1.58,1.32-1.84.97-4.07,1.72-6.15,1.91-1.53.14-2.98-.14-4.49-.27-1.26-.11-2.54-.25-3.64-.94-.59-.37-1.06-.88-1.59-1.32-.6-.5-1.33-.78-1.93-1.27-.91-.74-1.34-2.05-1.69-3.12-.38-1.15-.72-2.31-.81-3.52-.16-2.03.72-3.68,1.55-5.46.74-1.59,1.67-3.1,2.91-4.35.89-.9,1.93-1.72,2.89-2.52.66-.55,1.34-1.08,2.03-1.59,1.39-1.02,2.83-1.95,4.33-2.8,1.05-.59.97-1.94,1.65-.95s3.47,3.62,4.08,3.77c3.21.84,6.19.8,10.31-.08.97-.21,3.69-1.22,3.6-1.4-.37-.69.5.98-.77,2.37-.15.17-.32.32-.52.43-.22.12-.45.22-.69.31ZM323.77,295.94c0-.13-.01-.25-.02-.39.03-.33.02-.65-.03-.99.02-.09.03-.18,0-.26,0-.02-.02-.05-.02-.07-.02-.53-.04-1.07-.07-1.59-.01-.25-.4-.43-.58-.47-.15-.04-.31-.05-.48-.05-.32-.44-.74-.8-1.29-.97-.06-.02-.15-.01-.22-.03-.08-.03-.17-.06-.24-.08-.44-.09-.89-.11-1.32,0-.23.05-.45.14-.65.25-.14-.31-.53-.5-.9-.55-1.52-.23-3.06-.03-4.56.28-1.34.29-2.67.61-4,.92-.25.05-.58.19-.84.39-.08.02-.17.03-.25.05-.3.06-1.49.34-1.42.8.05.32.78.24,1.26.16.24.6,1.2.61,1.7.49,1.23-.29,2.47-.58,3.7-.86,1.31-.29,2.69-.3,4.03-.32.2,0,.41,0,.61.04.16.03.32.1.48.16.59.24,1.22.55,1.53,1.13.42.78.55,1.78.33,2.63-.13.49-.68,1.41-.31,1.89.18.23.55.37.83.39.39.03.82-.02,1.19-.18.28-.13.69-.34.81-.65.2-.51.41-1.02.55-1.54l.07-.09c.09-.15.14-.3.1-.49ZM279.91,283.68c-.24.14-.11.06,0,0h0ZM285.97,280.97c.01-.29-2.35,1.49-2.64,1.51-.43.04.01-.46-.26-.12-.56.68-2.72,1.5-3.61,1.92-.88.42-2.02.34-2.88.82-.13.08-.27.16-.36.29-.26.39.24.59.29.93.04.3-1.04.55-.75.64s1.94.05,2.24,0c1.71-.28,3.24-1.21,4.61-2.27.36-.28.62-.65.91-1,.67-.82,2.43-2.57,2.44-2.73Z" fill="none" stroke="#fff" stroke-miterlimit="10" stroke-width="1.01"/><path d="M475.64,524.73c-.21-.05-.11-.01,0,0h0Z" fill="none" stroke="#fff" stroke-miterlimit="10" stroke-width="1.01"/><path d="M482.04,521.2c.54-1.22.84-2.51,1.03-3.84.19-1.33.3-3.9.27-5.23-.39.89-.69,2.92-.98,3.84-.27.86-.09,1.77-.36,2.62-.22.71-.47,1.42-.74,2.12-.03.09-.07.18-.13.24-.24.24-.05.79-.37.9-.35.13-.46.86-.67,1.17-.35.51-1,.59-1.55.72-.66.15-1.3.44-1.97.54-1.11.18-3.29.56-3.67-.95-.15-.59.38-1.71.91-2.01-.76.56-1.76,1.79-1.73,2.73.03.77.61,1.44,1.32,1.74s1.51.27,2.27.17c3.24-.41,5.24-2.23,6.37-4.77Z" fill="none" stroke="#fff" stroke-miterlimit="10" stroke-width="1.01"/><path d="M507.26,544.34c.17-.29.28-.58.36-.9.03-.16-.22-.15-.32-.15-.09.02-.2.03-.28.08-.05.03-.14.07-.15.14,0,.02-.02.04-.02.07-.06.03-.14.07-.17.13-.07.13-.18.24-.25.38-.09.04-.18.1-.21.19,0,.02-.02.04-.02.06h0c-.19.15-.39.28-.6.41-.08.03-.16.06-.21.13-.01,0-.02.03-.03.04-.96.6-2,1.07-3.11,1.36-.14.04-.37.15-.33.32.03.17.31.17.43.14.18-.04.35-.11.52-.16-.09.06-.2.12-.3.17-.14.07-.3.24-.19.4.08.12.25.16.4.13.08.01.18,0,.22,0,.25-.04.51-.11.76-.19-.01,0-.03.03-.04.03h0s-.07.05-.12.07h0s-.05.02-.07.04c-.03.02-.08.04-.13.05h-.02s-.04,0-.07.02c-.08.02-.17.03-.24.05h-.02c-.18-.04-.38,0-.54.07-.05.02-.19.12-.14.17,0,.02-.02.03-.02.05-.14.02-.26.05-.36.13-.13.11-.09.21.06.26.61.18,1.3.12,1.88-.13.3-.13.57-.29.79-.53.05-.05.09-.13.13-.18h0c.44-.17.84-.43,1.19-.76.6-.59.98-1.33,1.26-2.11h-.03s0,.02,0,.02Z" fill="none" stroke="#fff" stroke-miterlimit="10" stroke-width="1.01"/><path d="M312.72,424.66c.96-1.12,2.85-.88,7.27-3.1,4.63-2.33,14.41-1.3,18.97,1.17,4.56,2.47,8.22,6.87,9.05,12,.84,5.12-2.13,12.52-6.72,14.96-3.9,2.08-9.06,4.13-13.48,2.83-6.01-1.75-8.33-4.46-10.56-9.35-1.45-3.17-.94-5.62-.33-8.21.58-2.45,1.66-3.52,2.04-3.92,2.62-2.81,5.93-3.41,9.64-3.11,4.8.39,8.37,2.54,9.66,4.93,3.71,6.94-2.83,10.14-5.05,10.63-5.99,1.32-6.56-4.29-6.04-4.65" fill="none" stroke="#fff" stroke-linecap="round" stroke-miterlimit="10" stroke-width="1.01"/><path d="M348.01,434.72c.22,2.64.24,5.58-.24,8.19-1.22,6.78-4.76,13.24-4.34,20.12.3,4.81,2.72,9.53,6.65,12.31,3.93,2.78,8.68,3.09,13.29,1.68,2.83-.88,3.7-.78,6.76-2.49,1.93-1.08,5.16-3.52,6.2-5.5,2.86-5.42,2.59-11.77-2.12-15.7-3.05-2.55-4.74-3.03-7.84-3.14-1.28-.04-4.4,1.17-6.83,2.57-3,1.7-4.47,3.78-5.5,7.08-1.03,3.3.74,6.87,3.75,8.56,5.17,2.92,11.65-4.92,4.7-7.68" fill="none" stroke="#fff" stroke-linecap="round" stroke-miterlimit="10" stroke-width="1.01"/><path d="M361,477.6c7.37-.09,14.57.75,21.14,4.11,2.07,1.07,4.63,3.42,5.87,5.86,2.33,4.66,2.66,8.46.42,13.95-1.97,4.83-12.25,13.8-19.45,14.19-11.11.59-16.84-5.21-18.19-13.77-.86-5.56,1.24-8.32,3.86-11.15,3.35-3.65,10.96-5.77,16.06-4.01,6.37,2.2,6.95,9.65,5.08,14.31-2.35,5.87-13.32,5.45-11.13-3.26" fill="none" stroke="#fff" stroke-linecap="round" stroke-miterlimit="10" stroke-width="1.01"/><path d="M226.96,463.96c-6.16-.1-11.52-.56-15.59-5.18-.12.18-.46-.48-.36-.28" fill="none" stroke="#fff" stroke-miterlimit="10" stroke-width="1.01"/><path d="M229.59,472.88c-1.03.69-15.05-1.31-19.77-3.14-11.54-4.49-17.53-10.54-21-15.52" fill="none" stroke="#fff" stroke-miterlimit="10" stroke-width="1.01"/><path d="M225.45,500.29c-13.27-1.79-16.97-4.14-26.74-12.69-6.97-6.08-13.5-18.22-19.93-31.46" fill="none" stroke="#fff" stroke-miterlimit="10" stroke-width="1.01"/><path d="M220.3,511.99c-34.02-8.6-39.83-24.11-47.13-44.3" fill="none" stroke="#fff" stroke-miterlimit="10" stroke-width="1.01"/><path d="M211.73,523.32c-2.42,5-18.43.1-30.51-13.04-8.26-8.99-13.73-20.78-17.7-32.09" fill="none" stroke="#fff" stroke-miterlimit="10" stroke-width="1.01"/><path d="M153.08,507.33c-2.99-4.47-6.2-9.68-7.74-17.49" fill="none" stroke="#fff" stroke-miterlimit="10" stroke-width="1.01"/><path d="M173.17,517.69c-4.82-4.09-10.21-10.45-13.1-16.08-3.89-7.58-4.52-9.4-5.9-16.54" fill="none" stroke="#fff" stroke-miterlimit="10" stroke-width="1.01"/><path d="M153.01,461.12s2.84-3.83,2.59-3.84c-1.48-4.97-1.92-11.96-.51-18.62" fill="none" stroke="#fff" stroke-miterlimit="10" stroke-width="1.01"/><path d="M149.11,464.8c-2.04-11.82-2.37-19.19,1.71-30.26" fill="none" stroke="#fff" stroke-miterlimit="10" stroke-width="1.01"/><path d="M141.32,469.33c-1.86-14.71-1.5-26.58,4.97-39.67" fill="none" stroke="#fff" stroke-miterlimit="10" stroke-width="1.01"/><path d="M129.73,473.69c-.45-15.02.29-24.31,5.62-38.44" fill="none" stroke="#fff" stroke-miterlimit="10" stroke-width="1.01"/><path d="M121.03,474.82c-3.14-13.1.05-24.26,5.19-36.71" fill="none" stroke="#fff" stroke-miterlimit="10" stroke-width="1.01"/><path d="M109.26,464.79c-.5-5.67,1.01-10.52,1.62-13.5,2.9-7.51,4.02-9.88,4.95-11.5" fill="none" stroke="#fff" stroke-miterlimit="10" stroke-width="1.01"/><path d="M101.54,449.38c.85-3.94,2.4-6.59,4.12-9.18" fill="none" stroke="#fff" stroke-miterlimit="10" stroke-width="1.01"/><path d="M129.44,403.88c-3.02-.15-5.51-.64-8.49-.11s-5.91,1.75-7.98,3.95-4.07,5.96-2.22,8.35c2.17,2.81,5.23,3.8,8.09,2.52,1.82-.83,2.47-1.34,3.3-2.87.69-1.29.72-3.14.37-4.58-.38-1.58-1.78-2.52-3.89-1.97-1.68.44-2.88,3.86-.28,4.85" fill="none" stroke="#fff" stroke-linecap="round" stroke-miterlimit="10" stroke-width="1.01"/><path d="M129.05,403.22c-3.03-.23-5.4-.89-8.41-.5-1.77.21-3.56.55-5.32.29-1.1-.16-2.2-.59-3.04-1.31-1.56-1.33-1.02-3.59.26-4.93.73-.78,1.86-1.09,2.91-1.35,1.8-.44,3.66,2.23,2.7,3.76-.63,1.01-2.21,1.28-3.14.51" fill="none" stroke="#fff" stroke-linecap="round" stroke-miterlimit="10" stroke-width="1.01"/><path d="M115.95,405.46c-3.53,1.73-6.39,3.79-9.48,6.18-1.67,1.28-6.09,1.1-7.04-1.45-1.79-4.75,2.94-6.7,5.46-6.68,1.43.01,3.04,2.57,1.67,4.11-.91,1.03-2.54.82-3.74.54" fill="none" stroke="#fff" stroke-linecap="round" stroke-miterlimit="10" stroke-width="1.01"/><path d="M518.59,375.07c-.34-.06-.08-.81,1.07-1.29,0,0,3.29-3.19,3.63-4.3,1.28-4.02,2.72-7.66-1.64-13.18-.09-.12-.21-.2-.33-.31-1.64-1.44-5.21-3.53-7.5-3.69,0,0,1.96-4.51-2.06-8.98-1.81-2.01-4.14-3.47-7.8-4.61-3.58-1.11-7.66.35-8.83,1.45-2.99,2.82-4.55.89-7.39-1.93-1.26-.69-3.07-1.68-4.74-2.13-.56-.15-1.5-.21-1.59-.26-.7-.36,6.47-11.84,8.11-17.94,1.51-5.62,3.57-18.22.86-29.86-1.23-5.28-2.97-10.44-5.02-15.47-.99-2.43-1.95-6.31-3.71-8.3-2.32-2.63-1.59-1.77-3.93.16-3.23,2.67-6.22,8.98-9.25,12.11-2.37,2.46-4.77,4.92-6.96,7.54-5.13,6.13-10.98,11.82-15.81,18.29-2.88,3.86-4.57,9.48-7.63,12.93-3.13-3.17-7.2-4.47-11.43-5.53,3.21-7.94,5.39-15.29,4.53-23.98-.4-4.04-1.34-7.99-2.53-11.87-1.06-3.47-2.2-10.28-4.64-13-2.61-2.9-3.3-.6-5.34,2.3-2.66,3.81-5.21,7.69-7.92,11.48-2.63,3.7-5.41,7.28-8.04,10.99-1.98,2.82-3.89,7.7-6.67,9.74-9.26-11.9-26.39-12.73-35.43-9.9,1.79,4.21,5.02,8.14,7.12,12.3,2.42,4.78,4.52,9.7,7.17,14.36.39.7,1.14,1.7,1.84,2.77-3.78-1.54-8.64-.79-14.17,3.17-.67-5.38-2.4-9.71-6.87-12.67l-4.35.45c.12.2.21.42.31.64.11.11.18.21.27.32,1.38.29,4.4,1.24,6.47,4.26,1.27,1.87,1.89,4.22,1.68,6.88,0,0-.51.13-.96.06-2.68-1.61-5.49-3-8.33-3.59-.11.08-3.01-1.23-10.04,2.32-6.06,3.05-7.25,12.01-5.31,18.65-1.27.52-3.15,6.01-5.25,4.9-3.08-1.64-9.58-1.93-11.87-.81-5.15,2.49-6.36,5.47-7.15,7.43-5.5-4.75-13.22-6.05-18.8-.52-5.53,5.49-3.41,12.83.43,18.63-6.91,6.27-7.6,13.39-2.46,21.15-9.96,10.48-2.88,26.97,12,23.88-1.91,6.59.54,10.66,3.43,16.44-3.68,2.1-7.61,5.54-11.94,5.25-4.31-.29-7.36-2.69-11.98-1.7-9.38,2.02-9.92,9.07-11.88,16.59-3.43,2.97-11.74,3.79-16.15,4.66-5.57,1.11-8.01,2.05-12.37-1.24-7.67-5.78-20.59-5.33-23.03,5.82-11.71-1.09-23.66-2.26-34.81-6.29-7.59-2.74-6.39-12.78-15.62-14.7-3.94-.82-7.45,1.63-10.93.44-2.91-.99-9.99-7.55-10.51-10.61-.8-4.64,1.62-7.94-1.76-12.22-2.67-3.36-6.46-4.22-10.53-4.34-1.62-5.49-3.86-9.14-1.05-13.96,1.94-3.33,4.01-6.12,1.82-10.09-1.2-2.17-3.33-2.88-3.9-5.28-.52-2.17,1.52-6.23,2.3-8.22,1.5-3.85,3.27-7.72,6.16-10.53,2.88-2.8,6.25-5.75,8.96-9.23,3.53-4.53.41-6.82-4.26-9.27-4.24-2.23-22.65-6.19-18.56,3.34-8.78,5.44-15.48,12.92-20.55,21.92-8.73-1.66-15.7,5.26-11.57,14.13,1.33,2.86,2.35,2.63,2.29,5.86-.05,2.23-1.32,5.37-1.74,7.59-.93,5.1-1.11,10.22-1.7,15.37-12.84,5.72-11.29,17.75-1.63,25.93,5.26,4.46,6.38,13.31,9.26,19.64,2.93,6.42,6.65,12.36,10.36,18.36-2.6,8.37-1.4,15.9,7.31,20.07,3.81,1.83,7.57.88,11.36,2.06,3.96,1.24,7.9,5.74,11.28,8.13,16.45,11.65,34.4,19.65,53.07,27-.3,10.25,6.48,16.82,16.97,16.28,5.13-.26,9.57-2.39,13.83-5.04,5-3.11,7.84-1.86,13.71-1.09,11.22,1.48,22.59,1.94,33.91,1.99,5.59.03,11.18-.15,16.76-.53,4.59-.32,10.02-2.04,13.91.59,3.58,2.43,4.95,4.52,9.83,4.52,3.84,0,7.53-1.29,10.49-3.75,2.92-2.43,4.25-6.14,7.67-7.96,4.01-2.14,13.14-4.4,17.53-5.63,22.12-6.26,40.3-13.72,60.93-23.71,5.99,4.51,12.67,4.7,18.3-.79,5.09-4.96,3.2-11.34,6.33-16.77,1.51-2.61,5.57-4.43,7.99-6.19,2.15-1.55,4.28-3.14,6.4-4.75-1.54,4.44-2.28,9.17-2.36,13.86-.16,7.34,1.08,14.7,3.08,21.74.88,3.1,3.5,15.92,6.89,16.91,2.76.8,10.92-14.35,12.56-16.8,4.37-6.49,9.08-12.94,12.27-20.13,1.13-2.52,2-5.16,2.56-7.83,3.14,4.38,5.11,7.16,5.55,7.85,2.87,4.42,24.21,25.83,26.08,18.47,3.43-13.55,5.87-29.31,6.73-43.23.82-13.6-3.71-23.29-13.45-32.52,1.64-1.85,4.88-2.67,7-4.04,3.03-1.97,5.84-4.31,8.31-6.96,4.39-4.73,8.04-10.54,9.58-16.85,3.37-13.83-5.27-31.95-14.19-33.56l.02-.03v.02ZM519.12,357.54c3.45,3.25,4.25,8.37,1.7,12.37-3.9,6.1-9.92,2.84-15.87,2.67-1.34-5.04-3.65-12.48,1.54-16.31,3.69-2.73,9.46-1.71,12.64,1.28h0ZM495.63,341.99c2.54-1.97,5.84-2.18,8.82-1.26,3.89,1.19,10.1,7.14,7.46,11.75-4.22.07-8.14,1.47-10.92,6.31-1.18-5.36-5.03-6.05-9.36-5.86,1.18-4.67.74-8.4,4-10.93h0ZM469.81,355.6c13.24.39,13.19,20.38.37,20.98-13.99.66-14.55-21.4-.37-20.98h0ZM456.5,355.51c-13.59-.49-12.22-22.06,1.38-21.23,13.63.85,12.22,21.72-1.38,21.23ZM458.72,358.79c-1.62,4.18-2.71,8.32-.38,12.78-3.26.91-5.71,1.93-8.61,3.67-4.71-3.62-9.46-7.27-14.46-11.11,5.42-4.56,7.59-7.18,10.14-13.85,3.07,5.19,7.24,8.06,13.3,8.52h0s.01,0,.01,0ZM464.68,378.21c-1.38,2.31-2.65,4.46-4.09,6.88-2.88-2.58-5.77-5.2-8.88-8.01,4.97-4.9,8.43-2.39,12.96,1.13ZM483.59,388.57c-.33,4.39-4.8,10.47-9.89,9.49-3.19-.61-10.37-8.76-10.51-11.83-.59-11.62,21.36-10.76,20.41,2.33h0ZM490.64,360.93c14.06-1.15,14.81,21.17.54,20.89-12.94-.25-13.19-19.85-.54-20.89h0ZM500.23,361.84c-8.13-3.67-11.27-1.8-14.31-2.43,9.11-11.25,14.8-1.51,14.31,2.43ZM490.24,344.42c1.81,5.03-.83,11.65-6.02,13.6-5.22,1.96-9.09-4.41-14.72-4.89.18-6.08,0-12.28,6.55-14.91,5.59-2.25,12.13.49,14.2,6.19h0ZM479.04,334.47c-2.08.56-4.07,1.2-5.97,1.94-1.36.52-5.11-.26-6.91-.03,2.84-5.09,15.92-15.4,19.9-15.88-.21,5.73-4.9,9.12-7.02,13.97h0ZM486.19,319.72c-.35-.97-9.63,3.14-11.24,4.43-3.43,2.74-7.27,8.45-11.52,9.47,1.37-5.7,3.44-14.22,7.53-18.5,4.04-4.23,12.25-8.52,17.68-10.62,1.44,2.91-.17,12.6-2.45,15.22h0s0,0,0,0ZM481.39,270.69c1.22,2.06,3.77,6.47,3.21,8.82-.55,2.31-4.67,5.37-6.26,7.04-.55-4.25.98-12.1,3.05-15.86h0ZM486.24,282.68c2.06,5.72,3.38,11.5,3.62,17.62-6.26,3.83-12.46,7.61-18.66,11.4l-.38-.31c3.75-10.25,3.89-23.59,15.42-28.71h0ZM476.88,270.6c.21.08.41.17.62.25.04,2.43.18,4.87-.65,7.21-.23.04-.45.11-.69.15-.76-1.34-1.52-2.68-2.33-4.09,1.12-1.29,2.08-2.41,3.04-3.53h0ZM472.74,275.67c2.41,3.98,4.7,7.6,2.11,12.33-3.44-3.84-5.88-8.57-2.11-12.33ZM468.84,280.6c1.98,4.66,5.26,9.73,4.39,14.82-.59,3.43-2.59,13.46-5.01,15.91-2.57-4.96-6.98-14.31-7.25-19.88-.21-4.28,4.35-8.62,7.88-10.86h0ZM441.94,313.71c3-8.85,10.53-15.2,16.71-21.78,6.21,11.69,11.42,27.26,2.54,38.92-2.23-2.54-2.68-6.29-4.2-9.64-1.25-2.77-7.76-17.16-8.26-18.82-1.9,2.72,9.28,24.75,10.37,29.48-2.14.31-4.04.59-6.16.9-1.26-2.02-3.32-1.77-5.57-.91,1.25.43,2.48.87,4.1,1.44-1.68,1.49-3.16,2.81-4.9,4.37-.81-4.16-.64-8.57-2.1-12.57-1.69-4.6-4.24-6.3-2.52-11.38h0ZM426.89,303.75c-2.02,6.26-4.91,6.02-11.1,7.17,2.71-4.26,7.46-7.85,11.03-11.39-1.74-2.91-10.38,9.59-12.95,10.91.65-3.89,1.43-9.51,3.59-12.86,2.18-3.37,7.98-7.05,11.53-8.88.31,4.95-.56,10.28-2.09,15.03h0ZM422.12,264.87c1.67,1.75,2.52,3.45,3.6,7.03-1.44,1.62-2.71,3.52-5.09,5.12.52-4.25.99-8.01,1.49-12.15ZM426.26,273.85c1.48,2.57,3.84,9.05,2.86,11.99-.81,2.42-8.64,7.43-11.15,8.29.57-3.63.77-7.68,1.8-11.19,1.11-3.76,3.88-6.16,6.5-9.09h0ZM419.36,266.13c.64,2.14.18,7.99-1.3,10.83-1.97-4.65-3.19-7.11,1.3-10.83ZM414.35,272.63c3.52,7.5,3.51,11.98,2.06,20.08-.19.03-.37.07-.56.12-1.79-2.55-4.75-8.81-5.17-11.97-.46-3.51,1.62-5.44,3.68-8.22h0s0-.01,0-.01ZM408.47,280.69c2.59,4.07,5.33,10.11,6.32,14.85.83,3.99-1.06,8.35-2.09,12.24-3.6-5-5.77-10.17-8.41-15.04-.2.05-.4.12-.6.18,1.15,6.17,6.76,11.1,7.52,17.21-3.08,1.42-9.64-4.65-10.64-7.21-1.02,1.53-.76,4.4-3.87,3.02-2.85-8.83,6.95-18.88,11.78-25.26h0s0,0,0,0ZM412.12,316.49c-.13.21-.26.44-.4.66-3.65-.4-9.34-2.21-12.51.05,5.42,4.73,18.28,2.99,25.02,2.65,1.2-.05,7.04.84,5.03-1.95-1.38-1.9-11.35-.3-13.55-.22-.89-6.43,7.06-6.34,11.79-5.2,6.5,1.57,11.73,7.17,14.16,13.24,4.8,11.92.93,28.55-8.85,36.97-17.3-11.18-35.13-21.11-55.75-24.74-.15-.62-.27-1.23-.36-1.86.47-10.11.96-11.09,4.74-17.38,7.41-10.07,21.49-14.62,30.68-2.21v-.02s0,0,0,0ZM379.4,303.69c5.01-4.53,8.37.1,11.76,3.94-4.02.27-7.36-3.6-11.76-3.94ZM393.83,306.52c-2.97-2.4-4.51-10.95-4.62-14.74,5.17,2.84,7.94,9.4,4.62,14.74ZM390.14,303.35c-1.73-.16-7.06-5.15-8.13-6.7-1.69-2.45-1.63-6.51-2.12-9.44,8.94,1.38,8.62,8.61,10.25,16.14h0ZM378.13,286.54c.53,2.64,1.05,5.15,1.59,7.73-4.45-.97-7.14-3.75-8.01-8.54,2.26.28,4.27.53,6.43.8h-.01ZM370.31,288.29c-1.83.18-3.05-1.01-4.93-1.79,3.54-1.39,4.18-1.13,4.93,1.79ZM364.22,287.55c2.63,1.18,4.81,2.3,7.44,3.9-4.33.42-5.92-.43-7.44-3.9ZM367.75,293.8c3.52-2,8.54-.53,11.45,3.57-3.91-.33-10,.83-11.45-3.57ZM370,298.73c3.53-1.05,10.79-.32,13.12,1.36-2.86,1.66-8.05,2.08-11.32,2.71,4.55,1.51,12.27,1.92,15.98,6.3-1.61,1.25,1.76-1.35,0,0-1.44-2.01-10.34,2.36-11.32-.2,4.24-.07,9.54,2.6,9.54,2.6-.02,1.9-5.89,4.52-6.26,4.77-4.27-3.59-7.3-12.38-9.75-17.55h0ZM377.66,342.3c.07.09.14.19.21.28.3-.03.57-.05.87-.09.63,0,1.24.15,1.79.41,4.86,1.07,9.62,2.57,14.24,4.36,17.27,6.75,33.71,16.62,48.21,28.13,14.23,11.31,27.77,24.79,36.72,40.76,4.25,7.58,8.56,16.68,9.34,25.43.7,7.74-3.67,21.13-13.81,15.94,4.98-14.69-5.2-30.95-13.74-42.24-8.75-11.56-19.37-21.92-30.88-30.73-10.68-8.18-41.54-25.07-61.25-27.17-8.47-1.56-10.1-2.13-16.29,1.97-2.33,1.53-5.43-.57-5.43-.57-1.37-1.04-1.87-3.32-1.87-4.9,0-2.19,1.15-7.12,5.25-9.81,3.67-2.41,8.68-2.83,12.95-2.92,4.6-.1,9.17.32,13.69,1.14h0ZM446.87,436.06c-8.27,10.3-17.54,20.61-21,22.81-2.79-4.87-5.59-9.72-8.54-14.84,6.48-7.35,26.94-34.37,29.94-38.7,4.38,4.66,8.31,9.16,11.75,14.19-2.25,3.58-12.33,16.26-12.14,16.53h0ZM328.1,389.39c2.7,7.38-3.14,6.98-8,10.29-2.63,1.79-2.82,3.04-5.86,2.25-1.87-.49-4.14-2.89-5.11-4.48-3.46-5.76.19-10.68,4.36-14.61,5.59,3.34,11.96-.72,14.62,6.55h0s0,0,0,0ZM327.46,382.08c.79.33.9.84.32,1.52-.86-.27-.96-.79-.32-1.52ZM320.1,382.64c-13.48-.27-13.27-21.4.26-21.13,13.69.26,13.55,21.41-.26,21.13ZM314.33,359.64c.16,0,.48.48.45.52-.36.38-.75.74-1.29,1.25-.2-1.11-.13-1.73.83-1.74h0v-.02ZM333.65,375.31c3.06,2.39,6.45,2.65,10.15,2.54-1.6,4.01-6.91,18.85-12.16,17.36-.77-1-2.02-8.49-1.93-10.15.19-3.3,2.61-6.8,3.93-9.76h0s0,0,0,0ZM352.02,370.61c3.05-7.37,4.82-13.98,14.51-10.85-2.44,9.28-6.99,18.4-11.48,26.84-1.21,2.28-3.07,7.73-5.44,9.08-2.15,1.22-6.95-.39-9.16-.69,3.12-8.34,8.13-16.09,11.57-24.35h0s0-.02,0-.02ZM368.95,360.08c6.58.66,12.72,2.99,19.44,5.45-5.93,12.99-12.23,25.3-20.32,36.66-5.49-1.89-10.76-3.72-16.07-5.54,6.14-12.05,11.73-24.08,16.98-36.57h0s0,0,0,0ZM390.19,366.4c2.79,1.05,5.46,2.23,8.07,3.48.5.67,8.88,4.15,9.13,4.78.07.04.15.07.22.13-.02.07-.06.17-.1.25.03.09.06.19.08.28.05.46-3.36,6.13-3.44,6.15-5.81,10.13-16.86,27.06-19.92,30.05-4.69-2.76-9.23-5.43-14.09-8.29,7.32-12.02,13.9-24.16,20.06-36.83h-.01ZM407.04,381.64c.28-.35,2.15-4.41,2.8-5.44,5.82,2.98,14.94,9.15,17.21,11.61-.76,1.68-22.88,34.79-25.78,37.64-4.91-4.11-9.84-8.23-14.73-12.33,6.68-10.59,20.49-31.47,20.5-31.49h0ZM421.2,400.98l1.66-2.46c2.1-3.09,4.18-6.17,6.3-9.29,5.95,4.35,11.42,9.3,16.52,14.59-1.42,2.47-4.79,7.28-8.79,12.68,0,0-18.47,23.77-20.87,25.48-4.21-4.87-8.44-9.73-12.69-14.63,5.91-8.71,11.86-17.49,17.87-26.36h0ZM360.03,321.86c-.98.41-1.67.69-2.94,1.22,1.38.85,8.17,1.57,8.17,1.57,3.66-.02,7.34-.82,8.7-2.91,1.08-1.65,1.17-1.81-.83-2-2.97-.28-6.35,2.61-9.61,2.7l-.3-.39c2.81-4.13,10.42-6.84,15.65-4.49-.59.98-4.44,12.73-4.81,17.45v.03c-.12.19-.81,2.78-2.41,2.58-3.14-.37-2.05-.4-5.67-.67-3.75.11-5.37-.23-8.44.36-3.03.59-4.84,1.35-7.46,2.85-2.92-4.69-7.18-7.19-12.73-6.81-2.24-14.71,12.28-21.38,22.68-11.5h0s0,0,0,0ZM337.82,335.82c2.8-1.18,10.82,2.42,9.94,5.24-2.22,2.72-2.99,3.86-4.55,6.8-2.89,1.14-4.33-.34-7.03-3.11-.92-3.21-1.91-7.45,1.65-8.93h0ZM342.07,356.02c.93,3.63,2.86,6.79,7.51,7.67-.85,3.27-2.24,9.87-5.46,11.6-3.21,1.72-8.43-.37-10.47-3.04-1.94-2.55-2.75-8.27-1.58-11.22,1.87-4.7,5.54-5.14,10-5.01h0ZM334.39,351.29c.43,12.34-21.85,11.95-21.09-1.44.78-13.56,21.5-12.16,21.09,1.44ZM301.65,344.86c13.45.28,13.25,21.37-.37,21.08-13.48-.29-13.26-21.36.37-21.08ZM290.12,381.15c-1.61-4.04-.96-10.36,2.94-13.07,2.58-1.79,2.5-.85,5.59-.32,3.2.54,6.1-.12,9.28-.02-1.28,4.86-.23,9.06,2.69,12.65-3.54,9.43-16.52,10.75-20.52.75h0ZM290.18,404.53c-3.09-3.75-3.66-10.96.16-14.57,2.58-2.43,2.76-.88,5.97,0,3.05.85,5.56.05,8.6.13.98,5.46,5.13,10.94.27,15.44-4.37,4.05-11.26,3.53-15.01-1.03h0s0,.01,0,.01ZM313.76,405.55c-.55,5.62-.15,8.64,1.74,14.01-1.93,1.48-4.24,3.26-6.46,4.99-7.87-4.49-5.79-22.37,4.72-19h0ZM315.3,425.48c3.83-2.84,8.79-6.35,12.72-7.94,31.25-20.76,102.38,66.94,79.6,86.08-6.6,2.21-29.24,13.1-36.33,16.4-2.86,1.32-44.3,14.76-42.56,12.21,12.87-18.96-3.54-86.48-28.07-97.29,4.98-3.04,9.95-5.98,14.65-9.46h0s0,0,0,0ZM267.62,452.59c7.08-2.39,10.49-3.9,17.81-1.7-1.64,4.67-16.2,6.54-20.31,7.24-4.06.69-16.31,4.41-17.41-.9,6.7-1.29,13.41-2.46,19.9-4.65h0ZM290.42,518.11c-14.31.94-32.51,2.14-46.31-2.19,1.83-5.4,3.59-10.64,5.48-16.21,19.39.43,38.78-.92,58.42-4.95.34,2.78.79,5.53,1.01,8.32.2,2.41,1.52,8.92.47,11.03-2.13,4.26-14.35,3.7-19.07,4h0ZM307.37,528.73c-1.7,1.73-5.12,1.38-7.34,1.62-7.28.8-14.56,1.29-21.89,1.46-13.63.31-28.23.69-41.63-2.05,2.2-3.9,4.25-7.54,6.46-11.48,22.01,3.02,44.01,3.16,65.99-.07.09,2.29.14,8.74-1.6,10.52h0ZM249.86,497.39c1.63-8.03,1.97-15.72,1.72-23.74,16.13-.36,31.98-1.88,47.61-6.5,4.71,7.84,6.96,16.34,8.43,25.52-19.01,3.99-38.05,5.34-57.75,4.72h0s0,0,0,0ZM251.35,471.46c-.69-3.11-1.34-6.07-2.07-9.37,9.93-1.26,19.6-1.93,29.14-5.27,3.16-1.1,7.52-4.35,10.69-3.22,3.5,1.25,7.41,8.72,9.05,11.79-15.54,4.38-30.98,5.96-46.81,6.07h0ZM145.23,347.65c-1.8,2.01-3.33,3.72-5.06,5.63-2.6-3.47-5.28-6.77-8.12-10.04,5.08.24,9.32,1.16,13.17,4.41h0s0,0,0,0ZM128.12,346.47c-.76.88,9.79,8.44,8.64,10.09-2.87,4.13-4.09,7.06-5.85,10.55-1.3,2.59-1.59,4.45-4.12,9.71-.14-.46-20.6-6.84-20.06-7.51,1.7-2.04,7.09-9.24,10.47-12.5,2.9-2.79,5.96-6.54,10.92-10.32h0s0-.02,0-.02ZM100.88,370.7c5.05,5.59,12.94,9.14,19.78,12.05,2.55,1.07,8.77,1.38,10.14,3.66,1.71,2.87-.85,5.58-3.68,6.16-5.77,1.17-16.52-5.75-21.47-8.24-5.02-2.52-14.36-9.53-4.77-13.63h-.01ZM96.28,415.44c-2.69-11.14,1.54-17.44,2.25-26.96.09-1.27.57-4.33,1.56-3.53,6.05,4.95,21.4,10.93,28.84,10.35-1.05,3.27.31,7.37.43,8.17.37,2.28,1.94,5.52,1.91,8-.13,9.87-26.35,16.14-34.98,3.98h.11s-.11,0-.11,0ZM88.93,427.57c-2.4-4.12-2.49-11.44,3.41-12.52,4.26,12.18,19.21,12.29,30.15,8.7,3.05-1,6.33-2.31,8.91-4.27,1.73-1.3,3.56-5.24,5.32-5.96,5.4-2.19,6.59,6.85,5.05,9.98-5.44,11.06-26.76,12.91-37.2,11.87-6.04-.59-12.37-2.18-15.64-7.81h0s0,0,0,0ZM97.61,438.37c3.52,4.34,42.2,1.13,45.51-9.77,1.06-3.51,9.41,9.44,14.77,12.57,3.5,2.04,2.41,10.09-4.89,19.96-4.58,6.2-29.46,17.92-38.98,11.68-7.88-12.97-12.12-20.68-16.41-34.43h0ZM114.45,476.86c6.4,2.1,10.33,3.33,17.11,1.33,5.63-1.66,11.04-4.23,15.84-7.65,10.67-7.61,17.3-17.21,15.35-30.48,10.03-6.35,12.25,10.66,10.69,16.18-2.6,9.21-9.67,16.7-17.05,22.43-7.4,5.75-16.24,10.52-25.58,12.04-7.71,1.27-22.08-3.43-16.36-13.87h0s0,.01,0,.01ZM200.14,528.84c-7.25.68-22.92-9.25-29.48-12.44-11.93-5.81-26.75-13.16-36.41-22.41,31.22-9.23,47.13-33.54,44.57-42.82-.07-.28,9.12,3.27,16.18,4.51,9.01,1.58,17.87,3.05,26.58,4.4,17.37,2.23,4.72,66.33-21.45,68.76ZM224.3,536.46c-4.51,3.74-10.05,6.58-16.05,6.24-4.31-.25-12.69-3.91-9.78-9.69,16.25,4.82,28.71-21.03,32.61-32.73,2.58-7.75,4.14-16.44,3.6-24.63-.62-9.34-3.25-14.75-10.81-19.91,1.26-6.23,9.17-5.64,13.32-3.1,4.49,2.76,6.7,7.68,8.11,12.55,3.56,12.45,1.65,27.05-2.08,39.25-3.5,11.45-9.53,24.24-18.91,32.03h0v-.02ZM292.79,537.65c-6.68.53-13.37.79-20.07.78-13.27-.02-27.82-.15-40.79-3.03,3.95-4.82,7.26-2.94,13.15-2.38,7.23.7,14.5,1.01,21.78,1.04,13.24.05,26.3-1.82,39.49-2.1-1.77,6.1-8.25,5.25-13.54,5.68h0s-.01,0-.01,0ZM327.48,520.38c-.94,8.57-8.19,31.86-21.09,20.45,12.55-14.22,8.28-41.56,3.87-58.11-2.54-9.55-6.28-18.63-12.49-26.4-5.92-7.4-7.95-8.29-15.87-11.04-2.03-.69-8.74.86-5.98-6.12,4.09-10.34,22.33-1.52,28.07,4.23,9.32,9.33,15.27,22.41,18.88,34.91,3.92,13.5,6.14,28.04,4.6,42.09h0s0,0,0,0ZM413.75,504.81c8.04-20.9-7.75-47.22-21.41-62.12-15.54-16.93-38.49-35.44-62.2-31.15-6.4,1.16-11.69,7.78-12.55,4.72-3.62-12.86,4.76-15.17,7.31-16.1,10.82-3.9,21.7-.68,31.9,2.67,21.62,7.07,41.34,22.76,54.73,40.99,7.58,10.33,13.41,22.11,15.88,34.75,1.55,7.92,1.56,33.17-13.67,26.24ZM427.98,460.34c1.68-4.05,8.72-9.06,11.6-12.32,2.96-3.34,5.76-6.81,8.51-10.31.19.25,2.68-3.47,2.68-3.47,3.21-4.21,6.37-8.46,9.58-12.68,1.86,2.45,7.26,9.07,6.99,12.35-.26,3.09-5.04,7.46-8.54,10.62,0,0-19.44,19.54-28.44,26.38-1.3-3.45-3.74-7.28-2.36-10.57h0s-.01,0-.01,0ZM433.1,483.22c-2.19-3.7-2.6-8.71-.03-11.77,3.58-4.27,8.97-7.79,13.05-11.65,3.59-3.38,11.52-10.81,11.8-11.15.66-.62,1.84-2.84,1.84-2.84,2.96-3.15,5.92-6.31,8.97-9.38,1.71,3.54,4.22,9.74,3.21,13.87-.47,1.95-2.15,3.93-4.16,5.79,0,0-6.41,5.21-7.32,6-8.64,7.51-17.67,15.03-27.37,21.13h0ZM468.15,465.35c-.48,8.06-8.37,18.47-18.4,16.44l17.29-17.98c.37.52.75,1.03,1.11,1.54h0ZM449.37,486.09c5.09,4.19,10.98-7.15,15.55-8.27-1.21,4.76-1.78,9.46-5.71,12.34-3.03,2.2-7.01,5.77-10.63,6.55-.08-3.54-.4-6.92.78-10.62h.01ZM448.81,499.65c4.04-2.5,7.96-4.93,12.23-7.58-.28,4.26-1.61,8.87-2.82,12.99-1.26,4.28-3.16,5.55-6.76,8.06-1.47-4.53-2.38-8.93-2.66-13.47h0ZM454.89,522.49c-1.56-2.33-1.81-4.54-2.9-6.81,1.43-1.06,2.69-1.99,4.5-3.32-.56,3.61-1.02,6.55-1.59,10.12h0ZM457.43,524.14c.45-3.11.82-5.75,1.25-8.71,2.9,3.5,3.48,3.78-1.25,8.71ZM460.15,511.46c1.42,1.48,2.58,3.08,2.57,5.26-1.59-1.41-2.54-3.13-2.57-5.26ZM464.8,514.15c-4.6-6.74-3.89-10.13-2-17.75,1.56,2.94,2.86,6.05,3.93,9.22,1.38,4.04.57,5.04-1.93,8.53ZM469.63,506.78c-1.71-4.08-3.97-8.34-5-12.65-.98-4.07.57-7.94,1.53-11.95.26-.05.54-.11.8-.17,2.88,5.15,5.74,10.3,8.6,15.46-1.47,3.03-3.46,6.03-5.92,9.31ZM476.46,494.74c-1.96-2.85-5.46-8.56-6.9-14.74-1.09-4.72-1.24-9.61-.37-13.2,4.82,6.66,8.96,12.4,12.17,16.87-.22,3.57-3.05,9.1-4.9,11.08h0ZM483.72,480.25c-4.86-6.76-12.46-14.23-12.83-18.15.04-1.52,4.52.82,4.55.37,2.18-.1,4.13.34,6.55-.16,2.24.04,5.14-2.05,6.51-3.35,4.01-6.95,3.13-4.94,6.38-12.45.18.49.47,1.32.53,2.37.36,5.07-2.51,7.9-5.42,14.12-3.24,6.92-5.69,16.14-4.85,16.63.89.51,2.85-9.25,6.05-15.19,2.64-4.89,4.02-9.36,4.76-12.45.05.35.12.81.19,1.36,0,0,.06.56.13,1.12.09.91.45,8.2.11,11.2-.52,4.67-4.11,11.53-10.19,18.3-.82-.97-1.67-2.26-2.5-3.72h0ZM488.18,486.3c-.1-1.95,3.28-6.11,4.25-7.81,1.94-3.37,3.87-6.73,5.81-10.1,1.01,5.2,1.95,10.41,2.94,15.63,1.26,6.56.18,9.45-2.96,15.44-3.07-3.11-9.81-8.6-10.05-13.14v-.02s.01,0,.01,0ZM500.24,501.4c1-2.11,1.96-4.15,2.91-6.2.18.03.35.07.53.09,1.14,3.9,2.26,7.8,3.4,11.7-2.55-1.52-4.66-3.42-6.84-5.61h0ZM511.95,509.1c-1.67-1.37-3.5-6.33-3.86-10.31,1.72,1.05,3.16,1.92,4.87,2.96-.32,2.33-.66,4.76-1.02,7.35h0ZM513.74,498.53c-4.68-.63-7.06-3.2-8.14-7.49.19-.08.38-.17.58-.25,2.79,2.24,5.55,4.51,7.86,7.24l-.29.52h0s0-.01,0-.01ZM514.54,494.33c-3.25-2.31-7.74-5-9.89-8.4-2.17-3.44-2.31-10.02-3.1-13.96.17-.05.34-.12.51-.18,3.74,3.9,7.69,7.7,11.25,11.76,3.29,3.74,2.13,5.9,1.24,10.77h-.01ZM512.24,445.3c3.47,2.28,7.06,12.47,5.9,16.36-.84.54-1.69,1.09-2.52,1.63,1.5,2.91,2.75,1.54,2.8,5.44.06,4.45-1.1,9.29-1.61,13.72-5-3-11.86-10.43-15.07-15.34-2.75-4.21-4.05-12.83-3.53-17.84.22-.17.45-.34.69-.5,1.09,2.56,13.97,17.91,16,14.4-6-7.03-13.64-12.81-18.21-21.12.12-.18.23-.36.35-.54,2.94.84,5.75,2,8.75,2.56,2.11.4,4.62.02,6.47,1.23h0s-.01,0-.01,0ZM509.12,441.62c-2.37.47-15.14-1.95-13.64-5.77,5.4-.19,9.85,1.58,13.64,5.77ZM515.29,428.38c-6.1,4.54-20.41,9.32-24.97.81-2.52-4.71-3.88-10.03-6.58-14.76-2.75-4.84-5.98-9.38-9.14-13.96,9.49-3.27,11.12-5.78,11.18-17.19,2.03.45,5.09.82,8.53-.06,1.69-.43,3.5-.56,5.84-2.6,4.31-3.75,4.72-5.09,9.79-5.03,1.89.02,4.65.14,8.32,3.01,1.1.85,12.35,9.85,11.78,25.03-.61,15.98-13.78,24.18-14.75,24.75Z" fill="none" stroke="#fff" stroke-miterlimit="10" stroke-width="1.01"/><path d="M50.24,213.01c-1.54,1.34-2.5,2.99-2.88,4.95-.38,1.96-.2,4.17.53,6.63.73,2.46,1.92,5.06,3.58,7.81,1.66,2.75,3.75,5.59,6.28,8.51,3.62,4.19,7.08,7.36,10.35,9.53,3.28,2.17,6.3,3.34,9.05,3.51,2.75.17,5.23-.7,7.44-2.61,1.82-1.58,3.3-3.44,4.44-5.58,1.14-2.14,2.16-4.42,3.06-6.84l9.73,11.23c-.96,2.57-2.24,5-3.83,7.29-1.59,2.29-3.57,4.46-5.94,6.52-4.52,3.92-9.38,6.08-14.58,6.49-5.2.41-10.57-.92-16.11-3.97-5.54-3.05-11.12-7.83-16.75-14.33-3.86-4.46-6.89-8.96-9.1-13.51-2.2-4.55-3.57-8.97-4.11-13.28-.54-4.3-.12-8.35,1.27-12.16,1.39-3.8,3.79-7.19,7.21-10.15,2.48-2.15,5.13-3.91,7.94-5.29,2.81-1.38,5.92-2.33,9.32-2.87l5.46,13.33c-2.4.24-4.61.72-6.66,1.43-2.04.71-3.95,1.83-5.71,3.35Z" fill="#fff" stroke-width="0"/><path d="M134.07,185.28c3.43,5.33,6,10.41,7.69,15.26,1.69,4.85,2.48,9.37,2.36,13.56-.12,4.19-1.21,8.02-3.28,11.48-2.07,3.46-5.1,6.47-9.08,9.04-3.93,2.53-7.9,4.01-11.92,4.44s-7.98-.16-11.88-1.76c-3.9-1.6-7.71-4.17-11.42-7.72-3.71-3.54-7.29-7.97-10.72-13.3-4.74-7.35-7.79-14.11-9.17-20.28-1.38-6.17-1.09-11.69.86-16.54,1.95-4.85,5.53-8.96,10.75-12.32,5.4-3.48,10.72-5.05,15.98-4.71,5.25.34,10.39,2.45,15.4,6.32,5.02,3.87,9.83,9.39,14.45,16.55ZM100.4,206.99c3.08,4.77,6,8.53,8.75,11.26,2.76,2.73,5.37,4.42,7.84,5.09,2.47.66,4.74.32,6.83-1.02,2.15-1.38,3.42-3.31,3.83-5.78.4-2.47-.06-5.51-1.38-9.12-1.33-3.61-3.57-7.86-6.73-12.76-4.7-7.28-9-12.2-12.9-14.76-3.9-2.55-7.45-2.8-10.64-.75-2.09,1.34-3.33,3.29-3.72,5.84-.4,2.55.09,5.66,1.46,9.33,1.37,3.67,3.59,7.89,6.67,12.67Z" fill="#fff" stroke-width="0"/><path d="M149.57,135.39c5.42-2.35,10.26-3.53,14.51-3.55,4.25-.01,7.93,1.15,11.05,3.48,3.12,2.34,5.7,5.85,7.72,10.52,1.22,2.81,2,5.57,2.34,8.28s.18,5.32-.48,7.83c-.66,2.51-1.81,4.99-3.45,7.45l28.36,24.98-16.77,7.27-23.46-22.46-3.21,1.39,11.91,27.47-15.27,6.62-31.03-71.57,17.78-7.71ZM155.03,148.26l-2.41,1.04,8.34,19.25,2.51-1.09c2.81-1.22,4.57-2.99,5.27-5.32.7-2.33.3-5.23-1.21-8.71-.9-2.07-1.95-3.62-3.15-4.65-1.2-1.03-2.58-1.58-4.12-1.67-1.55-.08-3.29.3-5.23,1.14Z" fill="#fff" stroke-width="0"/><path d="M267.69,180.45l-18.97,4.46-32.92-45.35-.43.1c.83,2.57,1.58,4.98,2.26,7.21.67,2.24,1.24,4.25,1.7,6.05.46,1.8.87,3.44,1.22,4.93l7.5,31.91-15.13,3.56-17.85-75.94,18.86-4.43,32.65,44.18.32-.08c-.73-2.45-1.4-4.74-2.01-6.88-.61-2.14-1.17-4.1-1.67-5.89-.5-1.79-.91-3.39-1.24-4.81l-7.37-31.38,15.24-3.58,17.85,75.94Z" fill="#fff" stroke-width="0"/><path d="M326.38,151.44c.24,5.97-.53,11.01-2.3,15.13-1.77,4.12-4.48,7.25-8.12,9.4-3.64,2.15-8.19,3.33-13.66,3.55-8.02.32-14.27-1.65-18.75-5.92-4.48-4.27-6.9-10.88-7.25-19.83l-2.08-52.29,16.62-.66,2.06,51.64c.18,4.59,1.02,7.83,2.52,9.74,1.5,1.91,3.63,2.81,6.41,2.7,1.97-.08,3.56-.56,4.76-1.45,1.21-.89,2.08-2.29,2.63-4.21.54-1.92.75-4.44.63-7.57l-2.05-51.53,16.52-.66,2.07,51.96Z" fill="#fff" stroke-width="0"/><path d="M373.14,117.57c-2.03-.26-3.9.12-5.61,1.15-1.72,1.03-3.25,2.63-4.59,4.8-1.35,2.18-2.5,4.8-3.45,7.87-.95,3.07-1.67,6.52-2.17,10.35-.71,5.49-.78,10.18-.22,14.07.56,3.89,1.7,6.92,3.41,9.09,1.71,2.17,4.01,3.44,6.9,3.81,2.39.31,4.76.17,7.12-.4,2.35-.58,4.73-1.33,7.14-2.27l-1.9,14.74c-2.56.99-5.22,1.66-7.98,2-2.77.34-5.71.31-8.82-.09-5.93-.77-10.78-2.95-14.55-6.56-3.77-3.61-6.35-8.49-7.76-14.66-1.41-6.17-1.56-13.51-.46-22.04.76-5.85,2.1-11.11,4.03-15.78,1.93-4.67,4.32-8.64,7.17-11.91,2.85-3.27,6.16-5.65,9.92-7.15,3.76-1.5,7.89-1.96,12.37-1.38,3.26.42,6.34,1.22,9.24,2.41,2.9,1.18,5.68,2.86,8.34,5.04l-6.31,12.96c-1.78-1.62-3.61-2.96-5.5-4.02-1.89-1.05-3.99-1.73-6.31-2.03Z" fill="#fff" stroke-width="0"/><path d="M449.71,163.02c-1.81,6.07-4.01,11.33-6.6,15.76-2.58,4.44-5.51,7.97-8.77,10.61-3.26,2.64-6.88,4.29-10.85,4.97-3.97.67-8.23.33-12.77-1.02-4.48-1.34-8.18-3.4-11.12-6.17-2.94-2.78-5.07-6.17-6.38-10.18-1.32-4-1.84-8.57-1.56-13.69.27-5.12,1.32-10.72,3.13-16.79,2.5-8.37,5.65-15.09,9.45-20.15,3.8-5.06,8.17-8.43,13.13-10.1,4.96-1.67,10.4-1.62,16.35.15,6.15,1.84,10.81,4.87,13.97,9.08,3.16,4.21,4.9,9.48,5.21,15.81.32,6.33-.74,13.58-3.18,21.74ZM411.33,151.54c-1.63,5.44-2.58,10.1-2.86,13.97-.28,3.87.13,6.96,1.23,9.26,1.1,2.31,2.84,3.81,5.22,4.52,2.45.73,4.74.45,6.88-.85,2.14-1.3,4.15-3.62,6.03-6.98,1.88-3.35,3.65-7.82,5.32-13.41,2.48-8.3,3.42-14.77,2.83-19.4-.6-4.63-2.72-7.48-6.35-8.57-2.38-.71-4.67-.39-6.86.97-2.2,1.36-4.24,3.75-6.14,7.17-1.9,3.42-3.66,7.86-5.29,13.3Z" fill="#fff" stroke-width="0"/><path d="M499.33,143.33c7.15,3.48,11.6,7.97,13.35,13.47,1.74,5.51.88,11.83-2.59,18.97-1.72,3.54-3.75,6.54-6.08,9.01-2.34,2.47-4.93,4.34-7.79,5.63-2.86,1.28-5.96,1.82-9.3,1.61-3.35-.21-6.89-1.22-10.63-3.04l-3.54-1.72-11.75,24.17-14.96-7.27,34.1-70.16,19.2,9.33ZM491.89,155.39l-2.95-1.44-10.03,20.64,1.97.96c1.9.93,3.68,1.32,5.32,1.19,1.65-.13,3.21-.85,4.7-2.15,1.49-1.3,2.88-3.3,4.19-5.98,1.56-3.21,2.07-5.9,1.54-8.06-.53-2.16-2.11-3.88-4.74-5.16Z" fill="#fff" stroke-width="0"/><path d="M516.2,243.12l-26.29-16.79,4.82-7.55,8,1.09,28.69-44.94-4.36-6.8,4.82-7.55,26.29,16.79-4.82,7.55-7.91-1.03-28.69,44.94,4.27,6.74-4.82,7.55Z" fill="#fff" stroke-width="0"/><path d="M550.14,269.64l8.02-15.59-13.34-10.84-13.54,11.1-13.93-11.32,63.9-48.59,16.9,13.74-34.26,72.68-13.76-11.19ZM574.39,224.02c.92-1.6,1.83-3.15,2.74-4.67.9-1.52,1.76-2.95,2.58-4.31.82-1.35,1.58-2.64,2.28-3.85-.94.92-1.99,1.93-3.15,3-1.16,1.08-2.39,2.19-3.7,3.33-1.31,1.14-2.68,2.31-4.11,3.49l-15.24,12.67,9.43,7.66,9.16-17.34Z" fill="#fff" stroke-width="0"/><path d="M256.91,55.73c0,3.53-.36,6.72-1.07,9.58-.71,2.86-1.8,5.3-3.24,7.34-1.45,2.04-3.28,3.59-5.48,4.66-2.21,1.07-4.8,1.61-7.78,1.61s-5.59-.55-7.81-1.64c-2.23-1.09-4.06-2.66-5.51-4.69-1.45-2.04-2.53-4.48-3.24-7.34-.71-2.86-1.07-6.05-1.07-9.58,0-4.91.66-9.09,1.98-12.54,1.32-3.44,3.29-6.06,5.89-7.84,2.6-1.78,5.88-2.68,9.83-2.68s7.28.94,9.86,2.83c2.58,1.89,4.5,4.56,5.76,8,1.26,3.44,1.89,7.54,1.89,12.28ZM231.02,55.73c0,3.36.29,6.19.88,8.47.59,2.29,1.5,4.02,2.74,5.2,1.24,1.18,2.8,1.76,4.69,1.76s3.51-.58,4.73-1.73c1.22-1.15,2.12-2.88,2.71-5.17.59-2.29.88-5.13.88-8.54,0-5.08-.66-8.94-1.98-11.56-1.32-2.62-3.41-3.94-6.27-3.94-1.93,0-3.52.6-4.76,1.8-1.24,1.2-2.15,2.94-2.74,5.23-.59,2.29-.88,5.11-.88,8.47Z" fill="#fff" stroke-width="0"/><path d="M312.04,33.3l-9.58,44.98h-10.21l-4.72-22.05c-.13-.67-.26-1.45-.41-2.33-.15-.88-.31-1.8-.47-2.74-.17-.94-.31-1.92-.44-2.93-.13-1.01-.23-1.95-.31-2.84-.08.71-.19,1.53-.31,2.46-.13.92-.26,1.89-.41,2.9-.15,1.01-.31,1.98-.47,2.93-.17.94-.32,1.77-.44,2.49l-4.72,22.11h-10.14l-9.64-44.98h8.69l4.6,23.31c.17.8.34,1.72.5,2.77.17,1.05.34,2.12.5,3.21.17,1.09.33,2.16.47,3.21.15,1.05.26,2.02.35,2.9.13-1.01.27-2.05.44-3.12.17-1.07.35-2.14.54-3.21.19-1.07.37-2.08.54-3.02.17-.94.31-1.77.44-2.49l5.23-23.56h7.75l4.98,23.5c.13.76.28,1.62.47,2.58.19.97.38,1.98.57,3.06.19,1.07.36,2.14.5,3.21.15,1.07.28,2.09.41,3.06.13-1.22.28-2.53.47-3.94.19-1.41.41-2.82.66-4.25.25-1.43.48-2.73.69-3.91l4.66-23.31h8.82Z" fill="#fff" stroke-width="0"/><path d="M337.93,78.29l-2.58-10.77h-11.97l-2.58,10.77h-9.58l12.41-45.04h11.28l12.54,45.04h-9.51ZM331,48.36c-.17-.92-.36-1.88-.57-2.87-.21-.99-.41-1.95-.6-2.9s-.35-1.8-.47-2.55c-.13.71-.28,1.57-.47,2.55-.19.99-.39,1.97-.6,2.96-.21.99-.42,1.9-.63,2.74l-2.65,11.53h8.69l-2.71-11.47Z" fill="#fff" stroke-width="0"/><path d="M375.1,65.31c0,2.69-.58,5.05-1.73,7.09-1.16,2.04-2.79,3.63-4.91,4.79-2.12,1.15-4.65,1.73-7.59,1.73-1.34,0-2.66-.08-3.94-.25-1.28-.17-2.51-.43-3.69-.79-1.18-.36-2.35-.85-3.53-1.48v-8.82c1.81,1.01,3.66,1.83,5.58,2.46,1.91.63,3.75.94,5.51.94,1.22,0,2.23-.22,3.02-.66.8-.44,1.39-1.03,1.76-1.76.38-.73.57-1.56.57-2.49,0-1.01-.22-1.9-.66-2.68-.44-.78-1.17-1.53-2.17-2.27-1.01-.73-2.35-1.56-4.03-2.49-1.22-.67-2.38-1.41-3.5-2.21-1.11-.8-2.09-1.69-2.93-2.68-.84-.99-1.51-2.16-2.02-3.53-.5-1.36-.76-2.97-.76-4.82,0-2.6.54-4.86,1.61-6.77,1.07-1.91,2.62-3.39,4.66-4.44,2.04-1.05,4.46-1.55,7.28-1.51,1.97,0,3.9.25,5.76.76,1.87.5,3.73,1.22,5.58,2.14l-2.65,7.62c-1.6-.88-3.1-1.54-4.5-1.98-1.41-.44-2.76-.66-4.06-.66-1.05,0-1.93.19-2.65.57-.71.38-1.26.9-1.64,1.57-.38.67-.57,1.43-.57,2.27,0,1.05.22,1.95.66,2.71.44.76,1.17,1.48,2.17,2.17,1.01.69,2.39,1.52,4.16,2.49,2.02,1.09,3.7,2.24,5.04,3.43,1.34,1.2,2.37,2.57,3.09,4.13.71,1.55,1.07,3.36,1.07,5.42Z" fill="#fff" stroke-width="0"/><path d="M394,33.3c4.96,0,8.61,1.21,10.96,3.62,2.35,2.42,3.53,5.87,3.53,10.36,0,2.18-.28,4.19-.85,6.02s-1.46,3.42-2.68,4.79c-1.22,1.37-2.77,2.42-4.66,3.15-1.89.74-4.16,1.1-6.8,1.1h-2.9v15.94h-8.88v-44.98h12.28ZM393.37,40.8h-2.77v14.05h2.02c1.51,0,2.78-.25,3.81-.76,1.03-.5,1.82-1.3,2.36-2.39.55-1.09.82-2.52.82-4.28,0-2.31-.5-3.99-1.51-5.04-1.01-1.05-2.58-1.57-4.73-1.57Z" fill="#fff" stroke-width="0"/><path d="M419.58,84.46c-1.09,0-2.09-.18-2.99-.55s-1.67-.88-2.32-1.54c-.65-.66-1.15-1.44-1.5-2.33-.35-.89-.53-1.86-.53-2.9s.19-2.07.56-2.96c.37-.89.9-1.67,1.58-2.33.68-.66,1.47-1.17,2.37-1.53s1.87-.54,2.91-.54,2.03.18,2.93.55c.9.37,1.68.88,2.34,1.54s1.18,1.44,1.55,2.34c.37.9.56,1.88.56,2.93s-.19,2.05-.56,2.94c-.37.89-.9,1.67-1.57,2.33-.67.66-1.46,1.17-2.36,1.52s-1.89.53-2.97.53ZM419.68,83.16c.85,0,1.64-.15,2.35-.45.71-.3,1.33-.71,1.86-1.24.53-.53.93-1.16,1.22-1.9.29-.74.43-1.55.43-2.43s-.15-1.69-.45-2.44c-.3-.75-.72-1.39-1.25-1.93-.53-.54-1.16-.96-1.88-1.25-.72-.29-1.5-.44-2.34-.44s-1.66.15-2.39.46c-.73.31-1.35.73-1.88,1.28-.53.55-.93,1.19-1.22,1.93-.29.74-.43,1.54-.43,2.41s.15,1.71.45,2.44c.3.73.72,1.37,1.26,1.9s1.17.94,1.9,1.23c.73.29,1.52.43,2.37.43ZM416.68,81.34v-8.66h2.7c1.11,0,1.94.22,2.49.67.55.45.83,1.1.83,1.97,0,.57-.12,1.05-.37,1.44-.25.39-.6.68-1.07.88l2.04,3.7h-2.12l-1.62-3.28h-.96v3.28h-1.92ZM419.28,76.64c.47,0,.83-.11,1.08-.32.25-.21.38-.53.38-.94s-.11-.71-.33-.88c-.22-.17-.6-.26-1.13-.26h-.68v2.4h.68Z" fill="#fff" stroke-width="0"/></svg>