<?xml version="1.0" encoding="UTF-8"?>
<svg id="logo" xmlns="http://www.w3.org/2000/svg" xmlns:xlink="http://www.w3.org/1999/xlink" viewBox="0 0 626.67 670.68">
  <defs>
    <radialGradient id="radial-gradient" cx="-3000.12" cy="-316.91" fx="-2952.28" fy="-534.12" r="785.78" gradientTransform="translate(862.35 484.07) rotate(1.69) scale(.19 .11)" gradientUnits="userSpaceOnUse">
      <stop offset=".06" stop-color="#b9babe"/>
      <stop offset=".74" stop-color="#97999c"/>
      <stop offset=".83" stop-color="#95979a"/>
      <stop offset=".88" stop-color="#8d8f91"/>
      <stop offset=".93" stop-color="#808283"/>
      <stop offset=".97" stop-color="#6d6e70"/>
      <stop offset="1" stop-color="#555657"/>
    </radialGradient>
    <radialGradient id="radial-gradient-2" cx="-2900.52" cy="-69.09" fx="-2900.52" fy="-69.09" r="19.83" gradientTransform="translate(864.25 419.81) rotate(1.69) scale(.19)" gradientUnits="userSpaceOnUse">
      <stop offset=".03" stop-color="#6da5c1"/>
      <stop offset=".28" stop-color="#6da5c1"/>
      <stop offset=".36" stop-color="#73adcb"/>
      <stop offset=".49" stop-color="#7dbbda"/>
      <stop offset=".66" stop-color="#80c0e1"/>
      <stop offset=".96" stop-color="#81c3e4"/>
    </radialGradient>
    <radialGradient id="radial-gradient-3" cx="-1433.38" cy="-631.51" fx="-1433.38" fy="-631.51" r="278.13" gradientTransform="translate(693.32 441.76) rotate(-42.02) scale(.19 .37)" gradientUnits="userSpaceOnUse">
      <stop offset="0" stop-color="#cbb482"/>
      <stop offset=".12" stop-color="#c6ad79"/>
      <stop offset=".31" stop-color="#bb9d5f"/>
      <stop offset=".55" stop-color="#a98637"/>
      <stop offset=".83" stop-color="#8f6828"/>
      <stop offset=".83" stop-color="#8f6828"/>
    </radialGradient>
    <radialGradient id="radial-gradient-4" cx="-3629.83" cy="143.93" fx="-3629.83" fy="143.93" r="75.49" gradientTransform="translate(864.25 419.81) rotate(1.69) scale(.19)" xlink:href="#radial-gradient-3"/>
    <radialGradient id="radial-gradient-5" cx="-3605.24" cy="-21.81" fx="-3605.24" fy="-21.81" r="61.87" gradientTransform="translate(864.25 419.81) rotate(1.69) scale(.19)" xlink:href="#radial-gradient-3"/>
    <radialGradient id="radial-gradient-6" cx="-2278.95" cy="-283.9" fx="-2278.95" fy="-283.9" r="117.25" gradientTransform="translate(864.25 419.81) rotate(1.69) scale(.19)" gradientUnits="userSpaceOnUse">
      <stop offset=".38" stop-color="#7eaa72"/>
      <stop offset=".77" stop-color="#8bbe7f"/>
      <stop offset=".93" stop-color="#7ba870"/>
    </radialGradient>
    <radialGradient id="radial-gradient-7" cx="-4142.75" cy="2597.29" fx="-4142.75" fy="2597.29" r="118.17" gradientTransform="translate(746.09 763.01) rotate(1.69) scale(.19 -.19)" xlink:href="#radial-gradient-6"/>
    <radialGradient id="radial-gradient-8" cx="-3780.22" cy="3319.05" fx="-3780.22" fy="3319.05" r="158.2" gradientTransform="translate(746.09 763.01) rotate(1.69) scale(.19 -.19)" xlink:href="#radial-gradient-6"/>
    <radialGradient id="radial-gradient-9" cx="-2494.68" cy="-154.65" fx="-2494.68" fy="-271.02" r="117.74" gradientTransform="translate(864.25 419.81) rotate(1.69) scale(.19)" gradientUnits="userSpaceOnUse">
      <stop offset="0" stop-color="#cdb859"/>
      <stop offset=".11" stop-color="#c9b457"/>
      <stop offset=".17" stop-color="#c4b155"/>
      <stop offset=".21" stop-color="#d1bd5a"/>
      <stop offset=".28" stop-color="#e5cf64"/>
      <stop offset=".36" stop-color="#f3dc6b"/>
      <stop offset=".46" stop-color="#fbe36d"/>
      <stop offset=".63" stop-color="#fde56f"/>
      <stop offset=".86" stop-color="#f3dc6b"/>
      <stop offset="1" stop-color="#ead466"/>
      <stop offset="1" stop-color="#ecd667"/>
    </radialGradient>
    <radialGradient id="radial-gradient-10" cx="-2624.94" cy="296.01" fx="-2624.94" fy="296.01" r="213.1" gradientTransform="translate(864.25 419.81) rotate(1.69) scale(.19)" gradientUnits="userSpaceOnUse">
      <stop offset=".06" stop-color="#b9babe"/>
      <stop offset=".72" stop-color="#97999c"/>
      <stop offset=".93" stop-color="#848689"/>
    </radialGradient>
    <radialGradient id="radial-gradient-11" cx="-2121.24" cy="87.65" fx="-2121.24" fy="215.23" r="129.02" gradientTransform="translate(864.25 419.81) rotate(1.69) scale(.19)" gradientUnits="userSpaceOnUse">
      <stop offset=".13" stop-color="#1164a1"/>
      <stop offset=".47" stop-color="#084c7d"/>
      <stop offset=".67" stop-color="#0f3f65"/>
      <stop offset=".99" stop-color="#0e3b5e"/>
    </radialGradient>
    <radialGradient id="radial-gradient-12" cx="-4485.2" cy="3378.9" fx="-4485.2" fy="3378.9" r="169.06" gradientTransform="translate(746.09 763.01) rotate(1.69) scale(.19 -.19)" xlink:href="#radial-gradient-10"/>
    <radialGradient id="radial-gradient-13" cx="-4788.16" cy="3416.72" fx="-4788.16" fy="3416.72" r="146.38" gradientTransform="translate(746.09 763.01) rotate(1.69) scale(.19 -.19)" xlink:href="#radial-gradient-10"/>
    <radialGradient id="radial-gradient-14" cx="-5098.28" cy="3299.93" fx="-5098.28" fy="3299.93" r="117.09" gradientTransform="translate(746.09 763.01) rotate(1.69) scale(.19 -.19)" xlink:href="#radial-gradient-10"/>
    <radialGradient id="radial-gradient-15" cx="-2679.31" cy="-234.62" fx="-2679.31" fy="-204.08" r="67.52" gradientTransform="translate(864.25 419.81) rotate(1.69) scale(.19)" gradientUnits="userSpaceOnUse">
      <stop offset=".07" stop-color="#cdb859"/>
      <stop offset=".15" stop-color="#c9b457"/>
      <stop offset=".19" stop-color="#c4b155"/>
      <stop offset=".21" stop-color="#d1bd5a"/>
      <stop offset=".25" stop-color="#e5cf64"/>
      <stop offset=".29" stop-color="#f3dc6b"/>
      <stop offset=".34" stop-color="#fbe36d"/>
      <stop offset=".43" stop-color="#fde56f"/>
      <stop offset=".78" stop-color="#f3dc6b"/>
      <stop offset="1" stop-color="#ead466"/>
      <stop offset="1" stop-color="#ecd667"/>
    </radialGradient>
    <radialGradient id="radial-gradient-16" cx="-5215.76" cy="3146.47" fx="-5215.76" fy="3146.47" r="86.23" gradientTransform="translate(746.09 763.01) rotate(1.69) scale(.19 -.19)" xlink:href="#radial-gradient-10"/>
    <radialGradient id="radial-gradient-17" cx="-2306.28" cy="-126.9" fx="-2306.28" fy="-126.9" r="40.37" gradientTransform="translate(864.25 419.81) rotate(1.69) scale(.19)" gradientUnits="userSpaceOnUse">
      <stop offset=".06" stop-color="#7a749f"/>
      <stop offset=".18" stop-color="#7b77a3"/>
      <stop offset=".19" stop-color="#7c78a4"/>
      <stop offset=".27" stop-color="#827eac"/>
      <stop offset=".43" stop-color="#8580ae"/>
      <stop offset=".79" stop-color="#8c86b7"/>
      <stop offset=".99" stop-color="#938dc0"/>
      <stop offset=".99" stop-color="#78749e"/>
    </radialGradient>
    <radialGradient id="radial-gradient-18" cx="-2833.36" cy="-6.1" fx="-2833.36" fy="-6.1" r="40.25" gradientTransform="translate(864.25 419.81) rotate(1.69) scale(.19)" gradientUnits="userSpaceOnUse">
      <stop offset=".03" stop-color="#81c4e5"/>
      <stop offset=".25" stop-color="#81c6e8"/>
      <stop offset=".28" stop-color="#83c8e9"/>
      <stop offset=".4" stop-color="#89cef1"/>
      <stop offset=".6" stop-color="#8fd4f5"/>
      <stop offset=".96" stop-color="#93d6f6"/>
    </radialGradient>
    <radialGradient id="radial-gradient-19" cx="-4345.79" cy="2881.75" fx="-4345.79" fy="2881.75" r="40.58" gradientTransform="translate(746.09 763.01) rotate(1.69) scale(.19 -.19)" xlink:href="#radial-gradient-2"/>
    <radialGradient id="radial-gradient-20" cx="-4500.61" cy="2859.32" fx="-4500.61" fy="2859.32" r="40.08" gradientTransform="translate(746.09 763.01) rotate(1.69) scale(.19 -.19)" xlink:href="#radial-gradient-18"/>
    <radialGradient id="radial-gradient-21" cx="-4419.8" cy="2823.8" fx="-4419.8" fy="2823.8" r="40.42" gradientTransform="translate(746.09 763.01) rotate(1.69) scale(.19 -.19)" xlink:href="#radial-gradient-2"/>
    <radialGradient id="radial-gradient-22" cx="-4503.67" cy="2945.51" fx="-4503.67" fy="2945.51" r="40.99" gradientTransform="translate(746.09 763.01) rotate(1.69) scale(.19 -.19)" xlink:href="#radial-gradient-18"/>
    <radialGradient id="radial-gradient-23" cx="-4422.04" cy="2903.43" fx="-4422.04" fy="2903.43" r="41.37" gradientTransform="translate(746.09 763.01) rotate(1.69) scale(.19 -.19)" xlink:href="#radial-gradient-2"/>
    <radialGradient id="radial-gradient-24" cx="-3848.71" cy="2881.5" fx="-3848.71" fy="2881.5" r="40.04" gradientTransform="translate(746.09 763.01) rotate(1.69) scale(.19 -.19)" xlink:href="#radial-gradient-17"/>
    <radialGradient id="radial-gradient-25" cx="-3763.58" cy="2899.39" fx="-3763.58" fy="2899.39" r="39.85" gradientTransform="translate(746.09 763.01) rotate(1.69) scale(.19 -.19)" xlink:href="#radial-gradient-17"/>
    <radialGradient id="radial-gradient-26" cx="-3809.59" cy="2809.83" fx="-3809.59" fy="2809.83" r="40.69" gradientTransform="translate(746.09 763.01) rotate(1.69) scale(.19 -.19)" xlink:href="#radial-gradient-17"/>
    <radialGradient id="radial-gradient-27" cx="-4414.91" cy="2836.94" fx="-4414.91" fy="2836.94" r="39.69" gradientTransform="translate(746.09 763.01) rotate(1.69) scale(.19 -.19)" xlink:href="#radial-gradient-18"/>
    <radialGradient id="radial-gradient-28" cx="-4337.07" cy="2801.06" fx="-4337.07" fy="2801.06" r="40.09" gradientTransform="translate(746.09 763.01) rotate(1.69) scale(.19 -.19)" xlink:href="#radial-gradient-2"/>
    <radialGradient id="radial-gradient-29" cx="-4510.63" cy="3026.66" fx="-4510.63" fy="3026.66" r="38.16" gradientTransform="translate(746.09 763.01) rotate(1.69) scale(.19 -.19)" xlink:href="#radial-gradient-18"/>
    <radialGradient id="radial-gradient-30" cx="-4428.33" cy="2975.3" fx="-4428.33" fy="2975.3" r="38.54" gradientTransform="translate(746.09 763.01) rotate(1.69) scale(.19 -.19)" xlink:href="#radial-gradient-2"/>
    <radialGradient id="radial-gradient-31" cx="-2343.86" cy="-56.72" fx="-2343.86" fy="-56.72" r="46.58" gradientTransform="translate(864.25 419.81) rotate(1.69) scale(.19)" gradientUnits="userSpaceOnUse">
      <stop offset="0" stop-color="#fde470"/>
      <stop offset="0" stop-color="#fde470"/>
      <stop offset=".63" stop-color="#fde56f"/>
      <stop offset=".99" stop-color="#fde571"/>
      <stop offset="1" stop-color="#c4b155"/>
      <stop offset="1" stop-color="#d2bd5a"/>
      <stop offset="1" stop-color="#deca62"/>
      <stop offset="1" stop-color="#e7d165"/>
      <stop offset="1" stop-color="#ead466"/>
    </radialGradient>
    <radialGradient id="radial-gradient-32" cx="-3831.58" cy="2966.35" fx="-3831.58" fy="2966.35" r="39.2" gradientTransform="translate(746.09 763.01) rotate(1.69) scale(.19 -.19)" xlink:href="#radial-gradient-17"/>
    <radialGradient id="radial-gradient-33" cx="-3681.75" cy="2869.03" fx="-3681.75" fy="2869.03" r="36.75" gradientTransform="translate(746.09 763.01) rotate(1.69) scale(.19 -.19)" xlink:href="#radial-gradient-17"/>
    <radialGradient id="radial-gradient-34" cx="-5222.95" cy="2981.53" fx="-5222.95" fy="2981.53" r="61.19" gradientTransform="translate(746.09 763.01) rotate(1.69) scale(.19 -.19)" xlink:href="#radial-gradient-10"/>
    <radialGradient id="radial-gradient-35" cx="-4431.2" cy="3001.38" fx="-4431.2" fy="3001.38" r="39.01" gradientTransform="translate(746.09 763.01) rotate(1.69) scale(.19 -.19)" xlink:href="#radial-gradient-18"/>
    <radialGradient id="radial-gradient-36" cx="-4352.91" cy="2951.23" fx="-4352.91" fy="2951.23" r="39.51" gradientTransform="translate(746.09 763.01) rotate(1.69) scale(.19 -.19)" xlink:href="#radial-gradient-2"/>
    <radialGradient id="radial-gradient-37" cx="-4348.25" cy="2895.61" fx="-4348.25" fy="2895.61" r="36.75" gradientTransform="translate(746.09 763.01) rotate(1.69) scale(.19 -.19)" xlink:href="#radial-gradient-18"/>
    <radialGradient id="radial-gradient-38" cx="-4248.57" cy="2855.34" fx="-4248.57" fy="2855.34" r="37.04" gradientTransform="translate(746.09 763.01) rotate(1.69) scale(.19 -.19)" xlink:href="#radial-gradient-2"/>
    <radialGradient id="radial-gradient-39" cx="-3725.15" cy="2815.84" fx="-3725.15" fy="2815.84" r="43.33" gradientTransform="translate(746.09 763.01) rotate(1.69) scale(.19 -.19)" xlink:href="#radial-gradient-17"/>
    <radialGradient id="radial-gradient-40" cx="-4361.03" cy="2971.48" fx="-4361.03" fy="2971.48" r="33.35" gradientTransform="translate(746.09 763.01) rotate(1.69) scale(.19 -.19)" xlink:href="#radial-gradient-18"/>
    <radialGradient id="radial-gradient-41" cx="-4220.47" cy="2925.13" fx="-4220.47" fy="2925.13" r="33.61" gradientTransform="translate(746.09 763.01) rotate(1.69) scale(.19 -.19)" xlink:href="#radial-gradient-2"/>
    <radialGradient id="radial-gradient-42" cx="-4460.87" cy="3088.38" fx="-4460.87" fy="3088.38" r="30.86" gradientTransform="translate(746.09 763.01) rotate(1.69) scale(.19 -.19)" xlink:href="#radial-gradient-18"/>
    <radialGradient id="radial-gradient-43" cx="-4309.2" cy="3027.32" fx="-4309.2" fy="3027.32" r="30.88" gradientTransform="translate(746.09 763.01) rotate(1.69) scale(.19 -.19)" xlink:href="#radial-gradient-2"/>
    <radialGradient id="radial-gradient-44" cx="-3891.42" cy="2935.45" fx="-3891.42" fy="2935.45" r="22.98" gradientTransform="translate(746.09 763.01) rotate(1.69) scale(.19 -.19)" xlink:href="#radial-gradient-17"/>
    <radialGradient id="radial-gradient-45" cx="-4348.41" cy="2800.84" fx="-4348.41" fy="2800.84" r="28.53" gradientTransform="translate(746.09 763.01) rotate(1.69) scale(.19 -.19)" xlink:href="#radial-gradient-18"/>
    <radialGradient id="radial-gradient-46" cx="-4237.43" cy="2757.44" fx="-4237.43" fy="2757.44" r="28.88" gradientTransform="translate(746.09 763.01) rotate(1.69) scale(.19 -.19)" xlink:href="#radial-gradient-2"/>
    <radialGradient id="radial-gradient-47" cx="-5132.54" cy="2850.56" fx="-5132.54" fy="2850.56" r="27.11" gradientTransform="translate(746.09 763.01) rotate(1.69) scale(.19 -.19)" xlink:href="#radial-gradient-10"/>
    <radialGradient id="radial-gradient-48" cx="-3757.35" cy="2845.43" fx="-3757.35" fy="2845.43" r="24.4" gradientTransform="translate(746.09 763.01) rotate(1.69) scale(.19 -.19)" xlink:href="#radial-gradient-17"/>
    <radialGradient id="radial-gradient-49" cx="-4449.06" cy="2876.03" fx="-4449.06" fy="2876.03" r="8.8" gradientTransform="translate(746.09 763.01) rotate(1.69) scale(.19 -.19)" xlink:href="#radial-gradient-18"/>
    <radialGradient id="radial-gradient-50" cx="-2471.78" cy="2868.43" fx="-2471.78" fy="2868.43" r="547.08" gradientTransform="translate(900.84 453.94) rotate(28.03) scale(.19 .07)" gradientUnits="userSpaceOnUse">
      <stop offset="0" stop-color="#b9babe"/>
      <stop offset=".32" stop-color="#818386"/>
      <stop offset=".58" stop-color="#5d5e60"/>
      <stop offset=".72" stop-color="#4f5152"/>
      <stop offset=".77" stop-color="#4a4b4c"/>
      <stop offset=".83" stop-color="#3a3b3c"/>
      <stop offset=".9" stop-color="#212223"/>
      <stop offset=".97" stop-color="#000"/>
    </radialGradient>
    <radialGradient id="radial-gradient-51" cx="-4395.98" cy="2963.94" fx="-4395.98" fy="2963.94" r="8.34" gradientTransform="translate(746.09 763.01) rotate(1.69) scale(.19 -.19)" xlink:href="#radial-gradient-18"/>
    <radialGradient id="radial-gradient-52" cx="-2794.26" cy="903.29" fx="-2794.26" fy="903.29" r="5.81" gradientTransform="translate(864.25 419.81) rotate(1.69) scale(.19)" gradientUnits="userSpaceOnUse">
      <stop offset=".26" stop-color="#000"/>
      <stop offset=".42" stop-color="#050505"/>
      <stop offset=".5" stop-color="#0b0b0b"/>
      <stop offset=".95" stop-color="#000"/>
      <stop offset=".98" stop-color="#000"/>
    </radialGradient>
  </defs>
  <g id="logo-2" data-name="logo">
    <g>
      <rect x="143.04" y="291.07" width="191.05" height="292.12" rx="24.72" ry="24.72" transform="translate(-111.5 82.95) rotate(-16.04)" fill="#fff" stroke="#000" stroke-linecap="round" stroke-miterlimit="10" stroke-width="3.81"/>
      <g id="uuid-28ed3b08-d45b-45ee-bdd3-c0b04ab24f85">
        <rect x="141.53" y="291.16" width="191.61" height="292.98" rx="24.8" ry="24.8" transform="translate(-113.93 84.83) rotate(-16.4)" fill="#fff" stroke="#000" stroke-linecap="round" stroke-miterlimit="10" stroke-width="4.37"/>
        <path d="M236.6,590.42l-25.63,7.54c-13.14,3.86-26.92-3.65-30.79-16.78l-68.71-233.49c-3.86-13.14,3.65-26.92,16.78-30.79l25.63-7.54" fill="#6da5c1" stroke="#000" stroke-linecap="round" stroke-miterlimit="10" stroke-width="4.37"/>
        <path d="M350.94,277.1l139,30.35c13.39,2.92,21.91,16.3,19.02,29.88l-51.27,241.58c-2.88,13.58-16.07,22.22-29.46,19.3l-139-30.35c-13.39-2.92-21.91-16.3-19.02-29.88l51.27-241.58c2.88-13.58,16.07-22.22,29.46-19.3Z" fill="#fff" stroke="#000" stroke-linecap="round" stroke-miterlimit="10" stroke-width="4.4"/>
        <path d="M314.83,572.84l-26.12-5.71c-13.38-2.92-21.91-16.3-19.02-29.88l51.21-241.34c2.88-13.57,16.07-22.22,29.46-19.3l26.12,5.71" fill="#0e3b5e" stroke="#000" stroke-linecap="round" stroke-miterlimit="10" stroke-width="4.4"/>
      </g>
      <g>
        <path d="M435.63,501.66c1.85-1.86,4.41-.32,5.99,1.77,1.58,2.1.84,4.93.09,7.44-.98,3.33-2.88,6.11-5.98,4.93-.86-1.05.21-2.44,1.39-3.12,1.25-.72,2.55.64,2.91.86.08.05.14.11.21.17.46.44.85.66,2.99,3.11,1.17,1.34,1.44,3.46,3.02,4.29,1.28.67,2.84.38,4.24.03,1.51-.38,3.07-.87,4.1-2.03.9-1.02,1.18-2.67.34-3.81-.66-.89-1.85,0-2.3.66-.51.76-.77,1.69-.92,2.58-.39,2.43-.68,4.91-.27,7.34.4,2.43,1.59,4.82,3.63,6.19M439.91,493.42c-.45,1.74-1.24,3.41-2.28,4.89-.32.44-.69.92-.72,1.47s.41,1.17.96,1.06M436.59,499.25c-1.98,1.69-3.56,3.83-4.64,6.19,1.75-2.44,3.5-4.87,5.26-7.31-.85,1.42-1.7,2.83-2.55,4.25.81-.74,1.37-1.74,1.61-2.8l.63-.29M437.41,500.49c.2-.96.39-1.93.61-2.89-.42,1.08-1.33,1.95-1.35,3.1M437.01,499.79l.19-.82M436.68,500.29c.54-2.28,1.25-4.52,2.12-6.69.36.38.02,1-.29,1.42-1.09,1.5-1.81,3.28-2.06,5.12M436.45,499.17c-1.8,2.5-3.36,5.18-4.65,7.98.55-1.85,1.64-3.56,3.09-4.83M439.66,492.87c-1.23,1.2-1.42,3.04-1.45,4.76-.03,1.67-1.19,2.97,1.96,4.72-.83-1.33-1.54-2.77-1.78-4.32s.04-3.23,1.01-4.46c-1.04,2.63-4.52,5.73-3.3,8.27,1.65-.08,2.16.75,2.32-.43.24-1.78.44-6.58,1.16-8.23M440.97,489.14c-1.17,1.85-2.14,3.85-2.59,5.99s-.31,4.45.65,6.4c-.69-2.56-.26-5.26.19-7.88.08-.5.18-1.02.5-1.41M440.79,489.58c-2.8,3.43-3.55,8.97-1.78,13.03-.39-.26-.39-1.3-.42-1.77-.09-2.51.99-5.14.91-7.45M436.34,500.43c-1.62.69-2.67,2.27-3.62,3.75-1.15,1.8-2.3,3.6-3.46,5.41.73-1.52,2.23-2.64,2.58-4.29M430.49,509.42c.86-.93,1.51-2.01,2.16-3.08.8-1.33,1.61-2.66,2.4-3.99M439.91,515.31c.81-.95,1.37-2.23,1.23-2.01.75-2.43.91-4.92.35-7.29-.2-.86-.55-1.73-1.19-2.34-.98-.95-2.46-1.14-3.82-1.28-.82-.08-1.91,1.06-2.63,1.93,2.46-2.31,7.72-2.86,8.3,2.69-1.02-1.9-3.46-6.55-5.27-5.57-1.29.7-2.88,1.43-3.81,2.56M438.64,492.08c-.2,1.39-.36,2.78-.28,4.17.14,2.3,1.87,5.34,3.25,7.19M442.17,488.69c-1.58,2.6-2.94,5.33-4.07,8.15M439.62,493.21c1.52-2.89,2.87-5.88,4.04-8.93M439.66,493.67c.75-1.17,1.48-2.36,2.19-3.56-.09.17-.16.33-.25.51.27-.41.54-.82.8-1.24-1.16,1.31-2.15,2.77-2.93,4.33,1.07-1.65,2.12-3.33,3.13-5.03-1.44,2.34-2.94,4.63-4.51,6.89,1.74-2.71,3.38-5.46,4.95-8.26-2.21,2.64-3.94,5.69-5.08,8.93.93-3.23,2.56-6.25,4.75-8.79-1.78,2.38-3.21,5.02-4.22,7.81,1.4-2.88,2.84-5.81,4.95-8.21-.45.19-.75.63-1.02,1.05-1.73,2.67-3.25,5.46-4.58,8.36,2.23-3.45,3.09-7.76,5.86-10.79-2.34,3.74-4.39,7.66-6.12,11.72,1.3-2.77,2.61-5.53,3.91-8.3l-4.06,6.57M456.61,532.5h-.5M455.75,532.36c.35.19.81.18,1.14-.05-.6.33-1.41.23-1.92-.24.46.36,1.05.56,1.62.55M457.06,532.61l-1.85-.52c.28.31.75.44,1.15.32M457.15,532.32l1.01-.18M440.59,492.29c.86-.77,1.41-1.65,1.88-2.6.61-.55,1.24-1.11,1.98-1.48-.88.39-1.64,1.06-2.15,1.88.7-.84.78-2.22,1.47-3.05-.7.37-.65,1.52-.97,2.23l1.72-2.11M428.92,511.05c.44-.38.87-.77,1.31-1.15.17-.16.35-.31.45-.53.17-.41.06-1.03.47-1.19-.81.99-1.6,1.99-2.38,3.01M428.32,511.46c1.18-.93,2.23-2.02,3.11-3.23M441.44,491.62c-2.02,3.31-2.23,8.66-.7,12.01M438.85,495.97c.36,2.75,1.45,5.97,2.92,8.33M299.61,359.61c-1.4-1.88-1.33-4.19.28-6.47,2.86-3.46,6.23-6.29,10.2-8.38s8.42-2.46,12.56-1.24c.15.04.29.09.44.14.09.02.17.06.23.12.06.07.08.16.08.26.09,1.09-.31,2.18-.97,3.06s-1.19,1.77-2.49,2.08c-1.29.75-2.73,1.27-4.22,1.31-1.46.04-2.92-.41-4.19-1.15-2.83-1.28-3.21-3.78-3.63-7.38-.04-1.56.73-2.42,1.74-3.15.96-.68,1.9-1.39,2.89-2.03.81-.54,1.68-1.03,2.6-1.33,1.02-.34,2.18-.4,3.19.03.85.36,1.66,1.09,1.04,2.05-.63.97-1.91,1.04-2.95,1.18-.86.11-1.73.19-2.6.15-1.71-.08-3.38-.66-4.43-2.09-.49-.66-.76-1.46-1.16-2.17-.49-.86-1.05-1.7-1.66-2.49-.81-1.05-1.79-2.07-3.12-2.41-1.86-.49-3.52.79-4.72,2.08-.79.85-1.37,1.89-2.15,2.74-.63.7-1.32,1.4-2.04,2.01-1.49,1.26-3.29,2.14-5.26,2.33M328.87,381.88c5.12-6.1,6.9-13.77,3.24-20.83-3.63-7.84-12.36-.36-18.6,1.77-3.11.68-5.47,2.15-8.9.72M329.55,378.26c.06,0,.05-.12,0-.1M329.31,379.17c2.59-3.87,4.03-8.51,4.09-13.17-.08,4.96-1.51,9.88-4.12,14.11-.47.76-1.09,1.57-2,1.64.7-1.55,1.75-2.94,3.06-4.01-1.61,1.04-3.23,2.1-4.85,3.13,2.2-.35,4.15-1.7,5.56-3.44s2.3-3.81,3-5.93l-1.65,3.96c1.33-3.34,2.67-6.95,1.84-10.44l-.11,4.7M330.4,375.72c-.51,2.18-2.16,4.05-4.25,4.86,1.47-.28,2.78-1.22,3.7-2.42s1.51-2.61,1.93-4.05c1.36-4.6,1.21-9.61-.4-14.13.97,2.29,1.49,4.75,1.51,7.24M331.67,361.56c.16-.75-.23-1.53-.77-2.09-1.07-1.12-2.66-1.61-4.19-1.62s-3.05.42-4.5.91M331.26,362.2c-.3-1.14-1.18-2.09-2.18-2.72s-2.14-.54-3.28-.9c-.44-.14-.9-.75-1.38-.76-1.45-.06-2.65,1.04-3.65,2.1M332.66,370.88c.96-1.79.62-4-.07-5.92-.32-.9-.71-1.79-1.31-2.54-.82-1.04-1.97-1.76-3.11-2.45-.68-.42-1.64-.65-2.42-.84-1-.25-1.8-.3-2.8-.05-1.84.45-3.6,1.2-5.2,2.21M334.67,370.99c.13-2.55-.08-5.17-1.13-7.5-1.05-2.32-3.03-4.32-5.52-4.91-1.12-.27-2.29-.23-3.43-.11-4.03.44-8.02,2.12-10.74,5.13,2.31-1.91,4.78-3.62,7.4-5.09.87-.49,1.93-.96,2.83-.52M332.28,371.05c-.54,2.04-1.38,3.99-2.48,5.77.28-.39.59-.77.94-1.09M324.32,379.22c1.25.6,2.73-.04,3.88-.82.79-.54,1.54-1.14,2.22-1.81.47-.46.96-1.11.71-1.72M324.54,378.56c.15.54.91.55,1.45.42,2.01-.48,3.89-1.46,5.44-2.83M324.75,378.33c.7.58,1.76.49,2.59.13s1.57-.94,2.4-1.31c.91-.41,2-.61,2.63-1.39M324.78,378.5c1.54.34,3.14-.27,4.49-1.12s2.51-1.93,3.9-2.68M324.97,378.4c.24.39.84.18,1.23-.06.73-.45,1.46-.9,2.19-1.35,1.42-.88,2.85-1.76,4.07-2.91M327.37,377.54c-.59.63-1.64.38-2.46.61-.75.21-1.32.83-2.06,1.09-.73.26-1.59.15-2.19.62-.26.19-.44.46-.62.74-.98,1.52-1.8,3.11-2.48,4.78M324.98,377.91c-.28.3-.76.2-1.18.2-.6,0-1.17.27-1.69.57-2.1,1.16-4.01,2.67-5.61,4.46M329.21,358.95c-1.37-1.34-3.5-1.82-5.3-1.22-.04-.19.26-.26.45-.23.83.16,1.64.45,2.36.88M328.13,358.63l-.25-.13M330.55,359.59c-.54-.98-1.58-1.61-2.65-1.92s-2.21-.32-3.33-.33c-.48,0-1,0-1.41.24,2.01-.53,4.1.37,5.99,1.25M309.93,363.33c1.08.56,4.08.23,4.7-1M307.85,364.28c1.03.18,2.08.35,3.11.21,1.03-.14,2.07-.66,2.59-1.56M302.99,364.12c.31.17.68.2,1.03.21,2.73.1,5.48-.1,8.16-.57M310.91,364.59c-.02.23.28.34.5.26s.37-.26.56-.36c.2-.11.44-.13.66-.22.83-.31,1.22-1.52,2.11-1.51M312.56,364.05c.5.95,2.75-1.74,3.07-2.12M300.24,361.03c.81.32,1.12,1.3,1.74,1.92,1.25,1.25,3.38.81,4.99,1.52M303.3,363.32c1.16.84,3.47,1.49,4.9,1.61M299.07,353.89c-1.14,1.72-.34,1.11-.55,1.66-.41,1.15,0,2.41.46,3.54.37.91.77,1.82,1.2,2.7M303.41,349.9c.09-.17-.49.64-.69.63s-.36.13-.51.25c-.84.71-1.58,1.54-2.19,2.46M304.69,348.53c-1.75,1.33-4,3.02-5.26,4.87M307.9,347.06c-1.14.27-2.24.78-3.19,1.47-1.32.95-2.37,2.22-3.39,3.49M301.6,351.36c-1.45,1.82-2.28,4.12-2.35,6.44-.02.67.02,1.33.22,1.97.38,1.19,1.28,2.14,2.27,2.92,1.56,1.23,3.53,2.16,5.49,1.85M298.4,355.18c-.56,1.53-.21,3.27.55,4.71,1.46,2.78,4.47,4.67,7.6,4.8,1.35.05,2.7-.2,4.03-.45l2.64-.5M307.33,363.69c3.33.3,7.12-.84,9.87-2.69,1.61-1.09,4.36-4.1,6.51-3.45M328.64,359.23c-1.69-1.04-3.85-1.11-5.78-.62s-3.69,1.46-5.43,2.43l-5.3,2.96M331.65,361.32c.21-.3.18-.73,0-1.06s-.46-.58-.74-.83c-.96-.84-1.98-1.71-3.22-1.99-.42-.1-.85-.12-1.27-.2-.39-.08-.78-.21-1.16-.27-1.46-.22-2.89.52-4.07,1.43M322.6,358.73c-.73.86-1.93,1.12-3.03,1.41-2.07.52-4.08,1.28-5.97,2.26-.45.23-.89.48-1.25.83-.24.24-.43.52-.69.73-.46.4-1.11.55-1.7.42M301.39,362.77c.98.98,3.25,2.91,4.7,2.75,1.05-.12,4.16-.29,4.83-.58.19-.09.84-.46,1.05-.47.38.01,1.85-1.08,2.13-1.34.44-.4-2.59.83-2.4.27M307.52,363.78c1.15.59,2.48.28,3.63-.15M318.93,349.97c2.11-.76,4.02-2.02,5.56-3.65-.82,1.98-2.77,3.33-4.85,3.87s-4.27.37-6.37-.01c-1.02-.18-2.05-.43-2.99-.85-.56-.26-1.14-.66-1.18-1.28,3.36,1.9,7.44,2.49,11.2,1.62,1.22-.28,2.44-.73,3.34-1.59.89-.84,1.42-2.19.94-3.32-.23-.56-.68-1-1.19-1.32-1.01-.65-2.23-.88-3.42-.95-3.75-.24-7.5.89-10.77,2.75s-6.08,4.41-8.62,7.18M309.15,338.86c-1.68,1.59-1.87,3.56-1.25,6.98M307.47,363.72c2.15,0,4.31-.46,6.27-1.35.82-.37,1.6-.81,2.38-1.25,2.41-1.36,4.83-2.72,7.25-4.08M310.24,363.5c4.94-.59,9.62-2.7,13.21-6.15M307.24,347.25c-.21.24-.38-.27.02-.57.06-.05-.25.08-.23.15,1.15,1.12,1.63,1.64,2.61,2.14-.16-.09-.61-.63-.78-.73M314.07,335.13c-1.44.38-2.68,1.72-3.84,2.42-.55.34-1.1.69-1.53,1.19s-.76,1.28-1.04,2.1M319.62,335.89c-.24-.48-.49-.94-.97-1.03-.23-.04-.47-.03-.7-.02-2.43.13-4.82.88-6.9,2.14-.56.34-1.11.72-1.48,1.26M310.22,338.6c.71.58,1.6.95,2.51,1.03.41.03.66-.36,1.07-.4M313.12,339.54c1.41-.1,3.33-.32,4.66-.79.96-.34,1.99-.88,2.03-2.02.02-.59-.28-1.16-.75-1.53-.98-.79-2.26-.74-3.43-.5-2.53.52-4.88,1.84-6.63,3.74M310.11,364.36c-1.43-.17-3.38-.54-5.2-.39M308.09,363.66c1.68.05,3.92-.13,5.58-.53M302.29,350.91c-1.44,1.53-2.62,3.2-2.94,5.6M308.88,362.98c-.49.07-.98.1-1.47.09-.01-.02-.05-.02-.13-.02-.02,0-.05,0-.08,0h-.14c-1.51-.08-2.98-.52-4.31-1.26-.88-.62-1.73-1.34-2.15-2.36-.08-.16-.62,0-.56.13.08.18.16.34.26.51-.13.05-.23.13-.17.19.62.72,1.35,1.33,2.15,1.82-.15.04-.29.12-.23.16.26.18.53.33.81.47-.04.01-.1.03-.14.04-.05.03-.19.12-.06.16,1.44.45,2.94.6,4.46.45.04,0,.14-.04.22-.09.48,0,.98-.02,1.45-.1.07-.01.32-.05.33-.15,0-.1-.16-.09-.23-.07h0s0,.01,0,.01ZM290.05,338.5c-.4.04-1.22.07-1.94.03s-1.67-.48-1.2.05c.31.34,1.21.56,1.59.63.9.15,1.91-.36,2.15-.41.47-.1-.22-.32-.61-.28h0ZM334.28,362.42l-1.61-2.67c-.05-.09-.27-.06-.41,0-.03-.04-.05-.1-.08-.13-.1-.15-.65.01-.53.2.05.09.1.17.15.25.08.26.23.47.41.67.37.63.73,1.26,1.1,1.89.05.1.28.06.43,0h0c.1.16.63,0,.53-.2h0ZM328.08,356.28c-.83-.38-2.04-.33-2.89-.04-.38.13-.71.37-1.02.61-.38.29-.9.68-1.1,1.14-.2.49.14,1.07.32.53.51-1.5,1.48-1.84,2.92-1.44.65.18,1.25.48,1.92.61,1.22.23.48-1.11-.16-1.42h0ZM321.37,348.61c-.12-.07-.32-.05-.44-.01-1.2.35-2.43.65-3.67.91-.09.02-.29.09-.25.2,0,.01.02.02.03.03h-.01s-.06.02-.1.03c-.05.02-.12.06-.15.11-.01,0-.04,0-.05.01-.09.02-.32.1-.24.23.08.12.39.06.48.04.66-.15,1.3-.26,1.97-.4.57-.12,1.13-.27,1.63-.55.15-.03.3-.07.44-.1.09-.02.32-.1.24-.23,0,0-.01,0-.02-.02.03-.02.07-.04.1-.06.09-.05.14-.13.03-.19h0ZM321.39,342.95s-.04.04-.07.04c0,0,0,.01-.02.02-.03.03-.06.05-.1.06-.02,0-.05.01-.08.02-.06.01-.13.01-.19,0-.03,0-.07,0-.1-.01-.04,0-.09-.02-.13-.03-.04,0-.07-.02-.1-.05-.02-.02-.04-.03-.04-.06,0-.02,0-.04,0-.06,0,0,0-.01.02-.02h0s.03-.04.05-.05c0,0,.01,0,.02-.01.01,0,.04-.02.07-.03.01,0,.03,0,.04-.01.01,0,.03,0,.04-.01.06-.01.13-.01.19,0,.03,0,.07,0,.1.01.06,0,.12.03.17.05.02,0,.04.02.06.03.02.02.04.03.04.06,0,.02,0,.04,0,.06h0s.02,0,.02,0ZM307.57,364.48c-.05.05-.16.08-.23.09-.1.01-.21.02-.3,0-.02,0-.04-.02-.06-.02-.14.03-.29.03-.42-.01h0c-.08,0-.15,0-.23,0-.12,0-.24-.02-.34-.09-.08-.05-.12-.14-.05-.21.11-.11.3-.14.44-.14.09,0,.17,0,.26.04.07-.03.15-.06.24-.08.16-.02.36-.03.51.05.03.02.05.04.06.06h.02s.05.04.06.07c0,0,0,.01-.02.02,0,0,0,0,.01.02.04,0,.08.02.1.05.04.04,0,.1-.03.12h0s0,.02,0,.02ZM332.28,367.74c.01-.13-.52-.02-.56.1-.35,1-.35,2.08-.47,3.13-.06.29-.13.58-.19.87-.02.01-.04.03-.05.05l-.11.22s0,.04.03.05c-.06.23-.12.44-.18.66,0,.04.02.07.06.08-.06.12-.12.24-.19.35-.19.36-.42.7-.65,1.03-.38.52-.79,1.02-1.22,1.51-.04.03-.08.06-.12.1-.02.01-.04.03-.07.04-.13.09-.26.17-.4.25-.31.13-.64.24-.96.35-1.03.33-2.08.59-3.14.85h-.07c-.11-.01-.19,0-.21.07-.35.09-.7.17-1.05.25-.15.03-.03.17.02.23.13.11.32.16.48.16.47.01.94-.02,1.4-.08.04.02.09.02.12.02.02,0,.04,0,.06-.01h.01c.53-.07,1.05-.17,1.57-.29,1.09-.15,2.13-.51,3.09-1.07.11-.06-.1-.2-.32-.29.78-.37,1.52-.83,2.08-1.51.14-.17-.43-.44-.63-.35.03-.04.07-.09.11-.14.24-.33.45-.68.65-1.03.19-.37.44-.79.46-1.21,0-.1-.13-.15-.27-.18.1-.34.17-.69.21-1.04.21-1.03.37-2.07.47-3.11h0v-.03s.02-.01.02-.01v-.03ZM329.54,360.85c-.56-.32-1.12-.64-1.68-.95.15.08.33.15.49.1s.28-.26.18-.4c.31.07.64-.04.85-.28-1.51-.92-.3.11-2.05.4,2.34,1.35-1.17-.38-.84-.24-.24-.14-1.04-.02-1.24.17.42.08-1.72-.28-1.3-.2-1.42-.21-1.09-.38-2.39.23.15.12.36.16.54.1-.24.3-.69.41-1.04.25.22-.18.37-.44.42-.72-2.42.97-4.58,2.47-6.85,3.74-1.52.85-3.13,1.6-4.83,1.99-1.82.42-3.63.25-5.46.03-.57-.07-1.16-.14-1.67-.4-.76-.38-1.17-1.09-1.69-1.72-.61-.75-1.26-1.47-1.87-2.23-.68-.86-.94-2.12-1.28-3.15-.23-.68-.17-1.29,0-1.99.09-.34.29-.72.64-.73.07,0,.42-.68.49-.77.18-.26.36-.51.55-.76.38-.49.8-.95,1.25-1.38.44-.43.91-.82,1.4-1.19.49-.37.61-.89,1.07-1.29-.15.12.13-.19.19-.29.06-.13.18-.22.29-.3.53-.41,1.06-.82,1.59-1.24.24-.19.48-.41.73-.58.23-.15.29-.05.51.07-.14.15-.29.29-.43.44.57.19,1.22.06,1.76-.22.54-.27.81-.83,1.29-1.19,1.81-1.37,4.12-2.14,6.28-2.86-.1-.19-.37-.16-.58-.11-1.3.32-2.57.76-3.8,1.31-.62.28-1.23.58-1.83.91-.3.17-.59.34-.88.52-.17.11-.38.25-.59.29-1.01.18-.51-4.23-.4-4.84.13-.74.39-1.46.78-2.11.11-.19.47-.9.7-.94.16-.03.27.12.41.16.19.05.4.03.58-.06-.25-.24-.43-.55-.52-.89,0-.03-.02-.07,0-.1.01-.03.05-.06.08-.07.16-.1.43-.19.49-.38-.04-.03-.09-.04-.14-.04-.27,0-.55.04-.8.15.11-.04-1.28-2.51-1.42-2.72-.57-.88-1.25-1.68-1.91-2.49-.28-.34-.46-.75-.73-1.09-.31-.4-.36-.56-.83-.7-.15-.05-.16-.07-.26-.2-.16-.22-.78-.18-.52-.09,1.65.6,2.68,2.58,3.56,3.94.68,1.05,1.36,2.11,1.99,3.19.04.07.53.82.44.88-1.23.93-1.91,1.83-2.22,3.34s-.29,2.79.39,5.17c-1.1.71-3.52,1.42-4.45,2.35-.92,1.09-1.96,1.94-2.85,2.97-1.09,1.24-2.24,2.44-2.68,4.06-.5,1.84-.69,3.68.07,5.48,1.43,3.41,5.24,5.48,8.84,5.58.76.02,1.51-.04,2.25-.19,3.61-.74,6.52-3.34,9.86-4.91,3.46-1.62,7.57-2.1,11.13-.72-.02-.01-.05-.03-.07-.04ZM443.03,489.09c-.32.36-.61.71-.88,1.09-.19,0-.43.04-.48.15-1.66,3.02-3.69,6.45-3.69,9.98,0,.19,1.08-.11,1.09-.35,0-.16.02-.31.03-.47.1-.02.16-.06.16-.13-.14-1.94.9-3.87,1.68-5.58.75-1.65,1.64-3.23,2.85-4.59.13-.14-.58-.29-.74-.12h-.02s0,.01,0,.01Z" fill="none" stroke="#000" stroke-miterlimit="10" stroke-width=".73"/>
        <path d="M336.29,364.82c-.1-.41-.23-.81-.39-1.2-.04-.13-.09-.24-.13-.37-.18-.55-.22-1.13-.45-1.68s-.53-1.09-.85-1.59c-1.29-1.99-3.45-4.02-5.83-4.53-.55-.12-1.12-.23-1.68-.18-3.26.29-5.82,2.15-8.64,3.59-2.43,1.24-4.95,2.34-7.55,3.14-.63.12-1.28.48-1.9.49-.55.19-.4.03-1.5.26-.05.06-.08.12-.09.17-.32.07-.64.19-.77.38-.24.37.19.36.51.34,4.18-.24,8.25-1.32,12.01-3.19.07-.03.15-.06.22-.1.38-.19.29-.32,0-.45-.3-.12-.83.02-1.21.15-.07-.02-.15-.04-.23-.04,1.09-.51,2.16-1.04,3.23-1.6.68-.36,1.35-.72,2.02-1.1.32-.17.66-.44,1-.56.41-.15.47-.13.78.23.16.2.75.12,1.27-.04.18.12.42.17.65.18.14.14.33.24.53.28,1.48.35,2.66,1.51,3.53,2.72-.06.03-.13.08-.18.11-.6-.68-1.34-1.26-2.2-1.66-.53-.26-2.06.17-1.8.97.43,1.4,1.49,2.29,2.38,3.39.57.71.84,1.47.96,2.26,0,.11,0,.2.04.28.09.84.03,1.71-.04,2.59-.21,2.78-.28,7.42-3.2,8.91-.1.05-.19.11-.27.17.17-.42-.27-.62-.64-.64-.64-.04-1.26.03-1.86.19-.21.03-.41.09-.55.13-.07.02-.14.05-.21.07-1.64.45-3.16,1.25-4.45,2.38-.86.74-1.63,1.58-2.41,2.39-1.01.82-1.89,1.78-2.48,2.98-.02.02-.03.04-.03.07-.02.06-.06.12-.09.17-.19.43.59.57.83.57.46,0,1.07-.17,1.34-.58.49-.73,1.05-1.43,1.64-2.1.27-.04.54-.13.74-.26.7-.44,1.22-1.03,1.73-1.63.25-.15.51-.29.75-.44.24-.14.44-.39.42-.62.17-.13.32-.28.49-.42.61-.47,1.33-1.05,2.11-1.36.46-.12.94-.19,1.43-.21.29-.01.69-.13.96-.33-.28.61,3.25,2.68,4.11,2.24,2.28-1.17,2.44-1.61,2.99-3.92.39-.11-.05-3.73,0-4.15.26-1.99.12-1.46.09-3.47.05-.71.07-1.3.06-2.02.24.44-.07-1.52.17-1.1.08.13.22.23.37.29.33,1.07,2.52.56,2.25-.58Z" fill="#000" stroke-width="0"/>
        <path d="M320.53,349.56c-.84.32-1.78.42-2.65.59-.85.16-1.75.4-2.61.42-1.63.05-3.14-.87-4.52-1.62-.6-.33-2.09-1.28-2.79-1.26-.64.01-.65.08-1.27.5-1.11.77-2.07,2.1-3.02,3.04-.41.4-.81.82-1.19,1.26-.22.4-.41.81-.58,1.24-.22,1.58-.3,3.19-.19,4.79,0,.17.03.35.04.52.07.74-.01,1.03.75,2.08.4.55,1.5.77,2.11.97,1.23.4,2.49.74,3.73,1.09.94.26,1.88.52,2.81.82.3.1,1.97.56,1.17.98-1.37.72-3.02,1.27-4.56,1.42-1.13.11-2.21-.11-3.33-.2-.93-.08-1.89-.18-2.7-.69-.44-.27-.78-.66-1.18-.98-.44-.37-.98-.58-1.43-.94-.68-.55-.99-1.52-1.25-2.31-.28-.85-.53-1.72-.6-2.61-.12-1.5.53-2.73,1.15-4.05.55-1.18,1.24-2.3,2.15-3.23.66-.67,1.43-1.27,2.14-1.87.49-.41.99-.8,1.51-1.18,1.03-.76,2.1-1.45,3.21-2.07.78-.44.72-1.44,1.22-.71s2.58,2.68,3.02,2.8c2.38.62,4.59.6,7.64-.06.72-.15,2.74-.9,2.67-1.04-.27-.51.37.73-.57,1.76-.11.12-.24.24-.39.32-.16.09-.33.16-.51.23ZM324.61,346.22c0-.1,0-.18-.01-.29.02-.24.01-.48-.02-.73.02-.07.03-.13,0-.19,0-.01-.01-.04-.01-.05-.02-.4-.03-.79-.05-1.18,0-.18-.3-.32-.43-.35-.11-.03-.23-.04-.36-.04-.24-.33-.55-.59-.95-.72-.04-.02-.11-.01-.16-.02-.06-.02-.12-.05-.18-.06-.33-.07-.66-.08-.98,0-.17.04-.33.11-.48.18-.1-.23-.39-.37-.67-.41-1.13-.17-2.27-.02-3.38.21-1,.21-1.98.45-2.97.68-.18.04-.43.14-.62.29-.06.01-.13.03-.18.04-.22.04-1.11.25-1.05.59.04.24.58.18.93.12.18.44.89.45,1.26.37.91-.21,1.83-.43,2.74-.64.97-.21,1.99-.22,2.99-.24.15,0,.3,0,.45.03.12.02.24.07.35.12.44.18.9.41,1.14.84.31.58.41,1.32.24,1.95-.09.36-.51,1.04-.23,1.4.13.17.41.28.61.29.29.02.61-.01.88-.14.21-.1.51-.25.6-.48.15-.38.3-.75.41-1.14l.05-.06c.07-.11.1-.22.08-.36ZM292.1,337.14c-.18.1-.08.04,0,0h0ZM296.59,335.13c.01-.22-1.74,1.1-1.96,1.12-.32.03,0-.34-.2-.09-.41.5-2.01,1.12-2.67,1.43-.66.31-1.5.25-2.13.61-.1.06-.2.12-.27.21-.19.29.18.44.22.69.03.22-.77.41-.55.47s1.44.04,1.66,0c1.27-.21,2.4-.89,3.42-1.68.27-.21.46-.48.67-.74.49-.61,1.8-1.91,1.81-2.02Z" fill="#000" stroke-width="0"/>
        <g>
          <path d="M437.2,515.84c-.15-.03-.08,0,0,0h0Z" fill="#000" stroke-width="0"/>
          <path d="M441.94,513.22c.4-.9.63-1.86.76-2.84.14-.99.22-2.89.2-3.88-.29.66-.51,2.16-.73,2.85-.2.64-.06,1.31-.26,1.94-.17.53-.35,1.05-.54,1.57-.02.06-.05.13-.1.18-.18.18-.04.58-.27.67-.26.1-.34.64-.5.86-.26.37-.74.44-1.15.53-.49.11-.96.32-1.46.4-.82.13-2.44.41-2.72-.7-.11-.43.28-1.27.67-1.49-.56.41-1.31,1.32-1.28,2.02.02.57.46,1.07.98,1.29s1.12.2,1.68.13c2.4-.3,3.88-1.65,4.72-3.53Z" fill="#000" stroke-width="0"/>
        </g>
        <path d="M460.64,530.37c.12-.22.21-.43.27-.67.03-.12-.17-.11-.24-.11-.07.01-.15.02-.21.06-.04.02-.1.06-.11.11,0,.01-.02.03-.02.05-.04.02-.1.05-.13.1-.05.09-.13.18-.18.28-.07.03-.13.08-.16.14,0,.01-.02.03-.02.04h0c-.14.11-.29.21-.44.3-.06.02-.12.05-.16.1,0,0-.02.02-.02.03-.71.45-1.48.79-2.31,1.01-.1.03-.27.11-.24.23.03.13.23.12.32.1.13-.03.26-.08.38-.12-.07.04-.15.09-.22.13-.1.06-.22.18-.14.3.06.09.19.12.3.1.06,0,.13,0,.16,0,.18-.03.38-.08.56-.14,0,0-.02.02-.03.02h0s-.05.04-.09.05h0s-.04.01-.05.03c-.02.01-.06.03-.1.03h-.01s-.03,0-.05.01c-.06.01-.13.03-.18.04h-.01c-.13-.03-.28,0-.4.05-.04.01-.14.09-.11.13,0,.01-.02.02-.02.04-.1.01-.19.04-.27.09-.1.09-.06.16.05.19.45.13.96.09,1.39-.1.22-.1.42-.21.58-.39.04-.04.07-.09.1-.14h0c.33-.13.62-.32.88-.56.45-.43.73-.99.93-1.56h-.02s0,.01,0,.01Z" fill="#000" stroke-width="0"/>
        <path d="M435.46,455.7c.06-1.16.03-2.35-.14-3.57-1.02-7.47-5.47-14.15-9.91-20.03-16.25-21.46-41.96-35.4-68.28-39.86-2.02-.35-4.15-.63-6.07.06-2.67.93-4.43,3.5-5.54,6.09-4.46,10.32-5.35,12.52-9.06,19.43-2.23,4.15-15.36,7.06-16.13,8.16-2.92,4.16.32,12.16-1.88,14.38-1.45,1.47-5.45,5.62-10.89,7.19-8.67,2.5-11.81-.43-15.84.57-3.74.93-2.82,9.77-6.65,11.67-6.93,3.46-12.76,3.1-15.47,3.52-6.34.96-9.17-5.08-15.55-4.43-4.54.47-5.47,7.97-10.03,7.86-9.55-.22-9.77-1.34-28.63-7.61-.84-.28-2.3-6.89-6.06-8.43-2.56-1.05-4.92,2.11-7.14.93,0,0-4.5-2.4-8.61-6.4-.95-.92-1.74-1.85-2.01-3.15-.32-1.47.53-2.59-.61-6.05-2.12-6.47-5.98-1.28-8.56-5.23-4.32-6.61,1.6-16.39.19-17.99-2.46-2.78-2.53-7.81-2.59-8.35-.52-4.87,3.99-6.74,5.44-10.98,1.09-3.18,11.06-7.29,7.08-10.88-4.85-4.36-9.88-3.1-12.49-.18-2.36,2.66-11.55,5.97-14.96,14.29-1.56,3.82-8.56,3.26-9.63,5.58-1.1,2.39.8,4.28,1.12,8.36.5,6.21-1.57,15.84-3.44,19.96-1.99,4.39-5.9,1.3-4.85,7.5.59,3.5,3.48,9.35,7.05,14.62,4.97,7.34,5.8,12.38,11.82,23.99.79,1.53-.86,11.43,2.38,12.82,1.72.74,3.44,3.1,5.31,3.16,3.94.12,7.43,1.8,10.17,3.55,10.13,6.42,16.57,10.84,23.59,14.43,6.16,3.16,21.01,6.49,20.56,10.09-.22,1.77,1.02,6.62,8.18,8.93,3.65,1.18,10.11-2.33,15.54-3.6,4.4-1.03,19.33,4.72,55.53.68.73.86,1.91,1.98,3.55,3.04,1.54,1,3.36,1.81,5.25,1.94,2.03-1.23,6.97-1.11,9.08-4.95,4.61-8.35,17.75-8.47,21.23-10,24.23-8.91,29.86-12,37.48-15.34,3.97-1.74,10.4,1.46,13.6.03,11.41-5.12-5.36-9.26,17.78-21.81,11.99-6.5,18.51-14.27,19.07-24.01h0s0,.04,0,.04ZM205.63,466.06c.07-.04.14-.09.21-.13" fill="url(#radial-gradient)" stroke-width="0"/>
        <path d="M309.57,386.37c-4.96-.15-5.2,7.58-.23,7.72,4.98.15,5.2-7.58.23-7.72Z" fill="url(#radial-gradient-2)" stroke-width="0"/>
        <path d="M390.44,488.26c-.15-.82-.53-1.46-1.04-1.92.47-.75.65-1.72.36-2.91-.98-3.98-2.09-7.97-4.58-11.3-1.85-2.49-4.04-4.4-5.68-6.81-.69-1.54-1.4-3.08-2.17-4.59-.66-1.29-1.84-1.87-3.06-1.92-2.02-2.62-4.13-5.18-6.41-7.58-4.23-4.49-9.04-8.6-14.4-11.68-.5-.29-1-.56-1.51-.83-1.7-1.23-3.46-2.34-5.31-3.2-2.72-1.26-6.09-1.92-9.49-2.01-1.42-.39-3-.36-4.74-.12-.54.08-1,.28-1.39.56-1.26.23-2.47.53-3.58.92-1.52.53-2.59,2.14-2.82,3.72-.82-.19-1.73-.12-2.62.31-2.01.95-3.78,2.14-5.47,3.55-1.01-.03-2,.37-2.69,1.33-.24.22-.47.46-.67.76-.48.07-.96.22-1.4.46-.94.17-1.89.34-2.83.48-3.66.55-3.93,6.76-.22,7.44.62.11,1.2.17,1.77.2.51.68,1.26,1.15,2.08,1.37.35.44.76.83,1.21,1.12v.28c-.08,1.77,1.17,3.14,2.68,3.7,1.27,2.76,2.82,5.38,4.21,8.12,2.39,4.75,4.23,9.73,5.53,14.87,2.64,10.36,2.37,20.79,2.22,31.38-.01.43.06.83.15,1.18-.45.4-.82.9-1.08,1.44-2.18,2.87,1.82,6.99,5.25,5.45.09-.03.17-.08.26-.12.42-.19.76-.48,1.06-.83,8.43-2.68,16.86-5.35,25.29-8.05,3.71-1.19,7.31-2.46,10.72-4.37,3.31-1.86,7.15-1.73,10.35-3.7.14-.09.27-.18.39-.27,8.85.3,10.9-9.52,9.63-16.45h0s0,0,0,0ZM349.49,450.36c.05-.36.06-.71.03-1.05.25.09.5.16.75.25-.29.23-.56.5-.79.8h0s0,0,0,0ZM362.25,473.55c-.11,0-.21.02-.32.03.14-.39.27-.78.37-1.18-.02.38-.04.76-.06,1.14h0Z" fill="url(#radial-gradient-3)" stroke-width="0"/>
        <path d="M181.36,419.43c-.72-2.53-5.25-2.84-7.26-1.68-1.21-.89-2.59-1.54-4.04-2.04-2.03-.68-5.09-.65-6.62-2.26-2.33-2.44-6.58-2.54-6.73.8-.25,5.69-2.81,12.31-1.84,18.08-.12,2.1,2,5.47,3.07,7.36,1.42,2.52,4.31,2.32,6,.87.74.4,1.46.88,2.34,1,.92.12,1.66-.05,2.4-.32,4.02.77,9.29-.63,11.65-4.06,3.51-5.11,2.17-12.89.64-18.25l.37,1.37.03-.86Z" fill="url(#radial-gradient-4)" stroke-width="0"/>
        <path d="M184.97,388.8c-.81-.81-1.38-1.5-1.95-2.48-.98-1.71-3.1-3.79-4.89-2.64-3.35,2.16-6.42,5.96-8.41,9.43-.34.6-1.06.31-1.04.97-.39.46.13-1.13-1.5.58-1.97,1.06-3.05,2.32-4.22,4.72-1.79,3.69,2.43,7.16,5.15,5.65.39.36.89.66,1.52.85,3.46,1.06,8.02,3.28,10.38-.77.97-1.66,1.46-3.65,2.24-5.41.94-2.13,2.05-4.18,3.19-6.21.83-1.46.78-3.46-.46-4.69h-.01s0,0,0,0Z" fill="url(#radial-gradient-5)" stroke-width="0"/>
        <path d="M316.43,441.65c.71-.83,2.11-.66,5.39-2.3,3.44-1.73,10.68-.96,14.06.87s6.09,5.1,6.71,8.89c.62,3.8-1.58,9.28-4.98,11.09-2.89,1.54-6.71,3.06-10,2.1-4.45-1.3-6.17-3.31-7.83-6.93-1.07-2.35-.7-4.17-.25-6.09.43-1.82,1.23-2.61,1.51-2.91,1.94-2.08,4.4-2.53,7.14-2.3,3.56.29,6.21,1.88,7.16,3.65,2.75,5.14-2.1,7.52-3.74,7.88-4.44.98-4.87-3.18-4.48-3.45" fill="none" stroke="#212120" stroke-linecap="round" stroke-miterlimit="10" stroke-width="2.2"/>
        <path d="M342.59,449.11c.16,1.95.18,4.14-.18,6.07-.9,5.03-3.53,9.82-3.22,14.92.22,3.57,2.02,7.06,4.93,9.13s6.44,2.29,9.85,1.24c2.1-.65,2.74-.58,5.01-1.84,1.43-.8,3.83-2.61,4.6-4.08,2.12-4.02,1.92-8.73-1.57-11.64-2.26-1.89-3.52-2.24-5.81-2.33-.95-.03-3.26.87-5.07,1.9-2.23,1.26-3.31,2.8-4.07,5.25-.76,2.45.55,5.09,2.78,6.35,3.83,2.16,8.63-3.65,3.49-5.69" fill="none" stroke="#212120" stroke-linecap="round" stroke-miterlimit="10" stroke-width="2.2"/>
        <path d="M352.21,480.89c5.47-.07,10.8.55,15.67,3.05,1.54.79,3.43,2.53,4.35,4.35,1.73,3.46,1.97,6.27.31,10.34-1.46,3.58-9.09,10.23-14.42,10.52-8.23.44-12.49-3.86-13.49-10.21-.64-4.12.92-6.17,2.86-8.27,2.48-2.7,8.13-4.28,11.9-2.98,4.72,1.63,5.15,7.16,3.77,10.61-1.74,4.35-9.88,4.04-8.25-2.42" fill="none" stroke="#212120" stroke-linecap="round" stroke-miterlimit="10" stroke-width="2.2"/>
        <path d="M372.46,498.79c-1.15,1.91-2.57,3.79-3.11,5.95-.21.85-.32,1.77-.06,2.6s.59,1.08,1.47,1.19c.34-.38,1.2-.73,1.71-.78,0,.19-.41.6-.24.5" fill="none" stroke="#212120" stroke-miterlimit="10" stroke-width="2.2"/>
        <path d="M254.27,470.4c-4.57-.08-10.76-1.39-13.78-4.82-.09.14-.1.31-.04.46" fill="none" stroke="#221f1f" stroke-miterlimit="10" stroke-width="1.61"/>
        <path d="M256.38,477.3c-.76.51-12.74-.87-16.24-2.23-8.55-3.33-13.64-9-16.21-12.69" fill="none" stroke="#221f1f" stroke-miterlimit="10" stroke-width="1.61"/>
        <path d="M252.85,494.03c-9.84-1.33-15.92-3.85-23.17-10.18-5.16-4.51-10-13.51-14.78-23.32.08.19-.06,2.09.02,2.28" fill="none" stroke="#221f1f" stroke-miterlimit="10" stroke-width="1.61"/>
        <path d="M250.36,507.05c-25.22-6.38-32.78-20.13-38.2-35.1" fill="none" stroke="#221f1f" stroke-miterlimit="10" stroke-width="1.61"/>
        <path d="M243.69,514.59c-1.79,3.71-15.8.27-24.76-9.47-6.13-6.66-11.02-17.14-13.97-25.52" fill="none" stroke="#221f1f" stroke-miterlimit="10" stroke-width="1.61"/>
        <path d="M200.87,506.6c-4.05-4.38-7.37-9.55-8.9-18.08" fill="none" stroke="#221f1f" stroke-miterlimit="10" stroke-width="1.61"/>
        <path d="M215.07,513.75c-3.57-3.04-9.67-10.88-11.81-15.05-2.88-5.62-3.7-8.71-4.72-14" fill="none" stroke="#221f1f" stroke-miterlimit="10" stroke-width="1.61"/>
        <path d="M198.82,469.25s1.63-2.99,1.44-3c-1.1-3.69-1.51-10.53-.47-15.46" fill="none" stroke="#221f1f" stroke-miterlimit="10" stroke-width="1.46"/>
        <path d="M195.53,472.73c-1.51-8.76-1.83-17.58,1.2-25.79" fill="none" stroke="#221f1f" stroke-miterlimit="10" stroke-width="1.46"/>
        <path d="M189.4,476.37c-1.38-10.9-.61-22.46,4.19-32.17" fill="none" stroke="#221f1f" stroke-miterlimit="10" stroke-width="1.46"/>
        <path d="M181.19,479.91c-2.7-10.67,0-22.87,5.06-33.18-.32.04-1.5.07-1.82.11" fill="none" stroke="#221f1f" stroke-miterlimit="10" stroke-width="1.46"/>
        <path d="M174.31,478.83c-2.33-9.71.54-20.09,4.35-29.32-.13.54-2.31,1.02-2.44,1.56" fill="none" stroke="#221f1f" stroke-miterlimit="10" stroke-width="1.46"/>
        <path d="M165.7,473.06c-.87-4.66-.59-7.4-.04-9.5,2.36-9.02,5.27-12,6.2-12.52" fill="none" stroke="#221f1f" stroke-miterlimit="10" stroke-width="1.46"/>
        <path d="M158.8,462.14c.16-3.3,3.15-8.6,5.46-11.31" fill="none" stroke="#221f1f" stroke-miterlimit="10" stroke-width="1.46"/>
        <path d="M199.97,463.44c.32.59.98.98,1.66.96-.06.06-.17.09-.26.05" fill="none" stroke="#000" stroke-miterlimit="10" stroke-width=".73"/>
        <path d="M199.63,464.58c.06,1.05-.05,2.12-.33,3.14" fill="none" stroke="#000" stroke-miterlimit="10" stroke-width=".73"/>
        <path d="M195.41,469.84c-.04.75.82,1.39,1.53,1.14.03.1-.05.2-.15.22" fill="none" stroke="#000" stroke-miterlimit="10" stroke-width=".73"/>
        <path d="M194.71,470.17c.12.32.13.67.07,1-.06.29-.2.57-.34.83-.16.3-.3.59-.46.89-.02.04-.05.1-.11.1s-.05-.1,0-.09" fill="none" stroke="#000" stroke-miterlimit="10" stroke-width=".73"/>
        <path d="M189.31,473.57c-.04.25.1.5.3.65s.44.24.68.31c.38.12.76.25,1.14.36" fill="none" stroke="#000" stroke-miterlimit="10" stroke-width=".73"/>
        <path d="M188.77,473.61c.11,1.02-.25,2.08-.96,2.83" fill="none" stroke="#000" stroke-miterlimit="10" stroke-width=".73"/>
        <path d="M182.82,477.9c-.05.04.09.07.08,0s-.1-.08-.17-.09c-.91-.01-1.78-.61-2.12-1.45.09.32-.35.97-.51,1.26-.46.85-1.15,1.58-1.97,2.09" fill="none" stroke="#000" stroke-miterlimit="10" stroke-width=".73"/>
        <path d="M174.01,477.4c.22.86,1.62,1.59,2.5,1.74" fill="none" stroke="#000" stroke-miterlimit="10" stroke-width=".73"/>
        <path d="M173.67,477.14c-.1.24-.07.51-.15.74-.05.16-.14.3-.24.45-.16.25-.32.51-.48.75-.29.45-.62.93-1.13,1.09" fill="none" stroke="#000" stroke-miterlimit="10" stroke-width=".73"/>
        <path d="M164.97,467.9l-.5.71c-.28.39-.57.78-.98.98-.14-.13-.28-.26-.42-.39" fill="none" stroke="#000" stroke-miterlimit="10" stroke-width=".73"/>
        <path d="M159.75,457.52c-.26.25-.61.5-.96.37-.33-.12-.61-.57-.93-.4" fill="none" stroke="#000" stroke-miterlimit="10" stroke-width=".73"/>
        <path d="M252.16,468.19s-.02.03-.04.04c-.41.52-.58,1.33-1.21,1.52,0,.1-.02.2-.03.3" fill="none" stroke="#000" stroke-miterlimit="10" stroke-width=".73"/>
        <path d="M253.25,476.86c.6-.3,1.17-.69,1.67-1.16.24-.23.47-.48.54-.8s-.08-.71-.39-.8" fill="none" stroke="#000" stroke-miterlimit="10" stroke-width=".73"/>
        <path d="M252.58,470.81c.33.17.67.35.92.64s1.11.46.97.8" fill="none" stroke="#000" stroke-miterlimit="10" stroke-width=".73"/>
        <path d="M251.81,493.5c.56.24,1.22.01,1.67-.38s.72-.96.95-1.51" fill="none" stroke="#000" stroke-miterlimit="10" stroke-width=".73"/>
        <path d="M253.61,477.44c.55.53,1.1,1.09,1.41,1.79s1.15,2,.73,2.65" fill="none" stroke="#000" stroke-miterlimit="10" stroke-width=".73"/>
        <path d="M247.08,505.64c.51-.01,1.04-.08,1.47-.35s1.43-.34,1.31-.83" fill="none" stroke="#000" stroke-miterlimit="10" stroke-width=".73"/>
        <path d="M251.58,493.87l.65.96c.17.25.33.49.43.77.3.88-.15,1.83-.63,2.64" fill="none" stroke="#000" stroke-miterlimit="10" stroke-width=".73"/>
        <path d="M246.74,506.38c.85.78,1.03,2.18.43,3.16" fill="none" stroke="#000" stroke-miterlimit="10" stroke-width=".73"/>
        <path d="M238.15,516.15c.38.95.36,2.04-.05,2.97" fill="none" stroke="#000" stroke-miterlimit="10" stroke-width=".73"/>
        <path d="M312.74,510.4c-.06-.04-.14.04-.14.11s.06.13.13.17c.39.3.8.59,1.05,1.01s1.29,1.06.91,1.37" fill="none" stroke="#000" stroke-miterlimit="10" stroke-width=".73"/>
        <path d="M311.16,520.34c-.09-.1-.28-.06-.32.06.92.35,1.4,1.56.98,2.45" fill="none" stroke="#000" stroke-miterlimit="10" stroke-width=".73"/>
        <path d="M313.51,495.02c0,.15.28.14.33-.01s-.05-.3-.15-.42c-.54-.67-2.04-1.03-1.78-1.98.11-.38.67-.71.87-1.07.27-.47.36-1.05.46-1.57-.09-.03-.17-.06-.27-.11" fill="none" stroke="#000" stroke-miterlimit="10" stroke-width=".73"/>
        <path d="M305.24,473.09c.43.01.88.06,1.27.29s1.24.02,1.14.45" fill="none" stroke="#000" stroke-miterlimit="10" stroke-width=".73"/>
        <path d="M304.8,472.41c.36-.14.61-.48.74-.84s.13-.76.14-1.15c.01-.37.01-.72-.09-1.08" fill="none" stroke="#000" stroke-miterlimit="10" stroke-width=".73"/>
        <path d="M180.96,425.98c-2.24-.11-4.5-.21-6.71.18s-4.38,1.3-5.92,2.93-3.02,4.42-1.65,6.19c1.61,2.08,3.88,2.82,6,1.87,1.35-.61,1.83-.99,2.44-2.13.51-.96.53-2.33.28-3.4-.28-1.17-1.32-1.87-2.89-1.46-1.25.33-2.14,2.86-.21,3.6" fill="none" stroke="#000" stroke-linecap="round" stroke-miterlimit="10" stroke-width=".73"/>
        <path d="M180.76,425.21c-2.24-.17-4.5-.12-6.73.17-1.31.16-2.64.41-3.95.21-.82-.12-1.63-.44-2.26-.97-1.16-.99-.76-2.66.2-3.66.54-.58,1.38-.81,2.15-1,1.34-.33,2.71,1.65,2,2.78-.47.75-1.64.95-2.33.38" fill="none" stroke="#000" stroke-linecap="round" stroke-miterlimit="10" stroke-width=".73"/>
        <path d="M170.54,427.42c-2.62,1.29-4.73,2.81-7.03,4.58-1.24.95-4.51.81-5.22-1.08-1.32-3.52,2.18-4.97,4.05-4.95,1.06,0,2.25,1.91,1.24,3.05-.67.76-1.89.61-2.77.4" fill="none" stroke="#000" stroke-linecap="round" stroke-miterlimit="10" stroke-width=".73"/>
        <path d="M447.41,350.83c.35-.56.56-1.21.56-1.87,0-1.13-.18-2.18-.51-3.22.01-.13.03-.26.03-.4.02-.43-.02-.86-.12-1.27-.03-.59-.06-1.19-.09-1.79-.07-1.01-.43-1.81-.97-2.43-.04-.42-.09-.83-.13-1.25-.1-.96-.48-1.73-1.02-2.33-.23-1.22-.5-2.42-.86-3.64-.18-.62-.48-1.12-.83-1.53,0-.2-.01-.4-.04-.58-.02-.24-.05-.46-.07-.69-.1-.51-.32-.95-.65-1.33-.16-.3-.39-.53-.67-.72-.36-.35-.8-.59-1.29-.73-.34-.05-.69-.12-1.02-.17-.29,0-.56.02-.83.07-.62.01-1.2.16-1.75.46-.27.19-.53.39-.8.58-.44.42-.76.92-.97,1.47-.2.28-.38.58-.49.89-.65,1.12-1.34,2.22-2.08,3.29-.93.37-1.76,1.11-2.28,2.28,0,.02-.02.05-.03.08-.34.16-.69.38-.99.68-.89.85-1.78,1.72-2.67,2.57-.38.36-.64.74-.85,1.13-2.5,2.63-4.85,5.4-7.06,8.28-1.76,1.96-3.31,4.09-4.64,6.35-.63.83-1.22,1.68-1.79,2.56-.54.83-.69,1.67-.59,2.44-.02.04-.03.07-.05.11-.11.25-.22.49-.33.74-.71,1.54-.43,3.05.34,4.16-.15,1.97,1.02,3.15,2.5,3.54-.28,1.92-.55,3.83-.82,5.75-.26,1.88,1.53,3.63,3.24,3.89,2.04.31,3.53-.83,4.32-2.64.16-.37.27-.72.35-1.1.09-.16.17-.33.25-.51.41.11.82.16,1.25.15.25.12.51.2.79.27,1.01,1.06,2.83,1.31,4.37.75.65,1.46,1.97,2.37,3.45,2.38,1.01.43,2.15.51,3.12.1.7-.13,1.38-.44,1.95-.94.12-.11.23-.22.35-.32.88-.06,1.73-.41,2.38-1.12.42-.3.8-.69,1.08-1.24.34-.65.68-1.28,1.02-1.93.17-.13.35-.28.52-.46.2-.22.39-.43.56-.64.64-.43,1.18-1.04,1.48-1.87.41-1.11.67-2.11.87-3.27.04-.24.06-.47.06-.7.38-.39.68-.87.86-1.49.86-2.99,1.46-5.98,1.91-9.05.14-.9-.05-1.66-.42-2.25.04-.51.07-1.02.1-1.53v.02s0,0,0,0Z" fill="url(#radial-gradient-6)" stroke-width="0"/>
        <path d="M402.75,342.68c.22-2.29.27-4.61.1-6.94-.03-.48-.15-.91-.31-1.3-.22-2.14-.7-4.17-1.76-5.5-.05-.21-.11-.41-.17-.62.02-.18.04-.36.07-.53.8-4.74-5.91-7.19-7.38-2.28-.26.86-.44,1.7-.54,2.56-.86.21-1.69.7-2.34,1.54-1.09,1.4-1.88,3.01-2.71,4.58-.66.41-1.22,1.03-1.6,1.88-1.19,2.73-3.79,4.62-5.26,7.19-1.04,1.82-2.13,3.42-2.48,5.44-.57.8-.58,2.1-.46,3.04-.05-.4-.1-1.09-.04-1.56.11-.81.02.06,0,0,.19-.61.11-1.59-.17-2.32-.61-1.58-1.14-2.26-2.55-3.48-1.29-1.12-2.58-2.69-4.1-3.46-1.23-.61-2.36-1.11-3.59-1.64-1.5-.65-3.03-.71-4.65-.93-.34-.04-.91-.11-1.12.09-.22-.15-.57-.19-.81-.27-.45-.26-1.04-.15-1.57-.15-.07,0-.14.01-.21.02-.14-.02-.28-.04-.42-.04h-.12c-.53-.04-1.03.06-1.5.28-.48.14-1.22-.09-1.58.26-.39.33-2.17-.06-2.33.41-.26.45-.07,1.36.63,2.41.03.34.87,1.05.91,1.4.16.66.48,1.24.95,1.73l.09.06c.22.26.46.5.76.7,2.12,3.51,4.06,7.12,5.86,10.81.15.31.36.57.57.81.11.4.22.8.34,1.2h0c.1.32.24.62.4.92.14.33.34.63.6.89.03.03.06.05.09.08.51.58,1.35,1.59,2.02,1.71.26.07.59.02.86.03.34-.03.42-.68.75-.71.66-.16,1.24-.48,1.73-.95.21-.26.42-.51.62-.77.29-.47.48-.99.55-1.53.29-.65.5-1.34.59-1.99.56.16,1.13.22,1.69.16,2.66.58,5.1-1.39,4.79-4.06.08.4.31.6.3,1.03,0,.29.07.93.25,1.19,1.22,1.76,4.24.43,6.16,1.48,1.29.51,2.63,1.1,3.93,1.43,1.28.33,2.57.4,3.87.3.54.29.18.48.21.48,1.25.31,2.1-.19,3.37-.41,1.54-.15,2.87-.71,3.69-2.33l.5-1c.02-.05.04-.12.07-.17.41-.61,1.48-1.9,1.77-2.83.62-2.07.68-4.41.98-6.54.1-.7-.01-1.32-.28-1.85v.03s-.02.03-.02.03Z" fill="url(#radial-gradient-7)" stroke-width="0"/>
        <path d="M470.1,476.7c-.3-1.37-.23-2.51-.13-3.89.06-.93-.25-1.74-.79-2.4.49-.75.68-1.75.37-2.97-.92-3.48-2.2-6.79-3.9-9.97-.28-.54-.63-.96-1-1.27-1.83-2.76-4.25-5.01-7.43-6.57-.72-.35-1.62-.52-2.48-.46-2.42-.31-4.97,1.99-4.36,4.77.13.6.24,1.19.34,1.8-.6.44-1.07,1.11-1.32,2.08-.28,1.11-.55,2.2-.81,3.28-.26.94-.55,1.85-.87,2.77-1.98,1.1-3.2,1.55-3.53,3.41-.69-.28-1.18.64-1.99.47-1.98-.42-3.41.41-5.11.52-.85.06-2.8-.8-2.72-.08-.66-.61.17.8-.67.35-3.84-2.05-4.47,3.3-7.25,5.24-1.53,1.06-2.89,1.83-3.95,3.41-.54.78-1.01,1.52-1.51,2.23-1.55.34-2.97,1.5-3.23,3.49-.09.69-.19,1.38-.28,2.06-.04.27-.03.53,0,.77-.54,4.11-1.49,7.98-1.12,12.29.19,2.35.38,4.73.86,7.04.53,2.57,1.77,4.85,2.43,7.37,1.13,4.23,6.29,3.42,7.45-.11.69-.41,1.28-1.04,1.67-1.92.48-1.09,1.01-2.17,1.55-3.22.49-.29.96-.69,1.34-1.26,2.57-3.81,5.07-7.68,7.29-11.7.72-1.29,1.1-2.37,1.21-3.36.52-.51.9-1.16,1.12-1.86.37-1.21.53-2.53.72-3.77.13-.82-.15-1.6-.64-2.26-.02-.7-.07-1.4-.17-2.1,1.46,2.56,2.9,5.14,4.55,7.57,3.93,5.8,9.85,9.64,14.02,15.14,1.97,2.59,6.88.7,6.68-2.54-.26-3.93-.22-8.57.92-12.37.85-2.85,1.12-5.3,1.12-8.03,1.16-.79,1.93-2.16,1.63-3.94h-.02s0,0,0,0Z" fill="url(#radial-gradient-8)" stroke-width="0"/>
        <path d="M344.16,402.93c6.63-.96,13.16-2.55,19.49-4.73,1.72-.6,3.68-1.49,4.09-3.27" fill="none" stroke="#000" stroke-miterlimit="10" stroke-width=".18"/>
        <path d="M339.42,412.72c10.98-2.11,26.28-4.9,37.27-7,1.77-.34,5.86-1.55,7.4-2.51" fill="none" stroke="#000" stroke-miterlimit="10" stroke-width=".18"/>
        <path d="M346.89,417.48c17.68-.94,35.29-2.92,52.74-5.93" fill="none" stroke="#000" stroke-miterlimit="10" stroke-width=".18"/>
        <path d="M353.79,425.7c19.23-.03,38.71-.75,57.41-5.68" fill="none" stroke="#000" stroke-miterlimit="10" stroke-width=".18"/>
        <path d="M369.77,433.4c10.8.1,21.61-.13,32.4-.72,7.04-.38,14.13-.92,20.91-2.86" fill="none" stroke="#000" stroke-miterlimit="10" stroke-width=".18"/>
        <path d="M384.63,446.01l47.61-2.85" fill="none" stroke="#000" stroke-miterlimit="10" stroke-width=".18"/>
        <path d="M392.27,456.26c14.64-.3,29.29.06,43.91-.54" fill="none" stroke="#000" stroke-miterlimit="10" stroke-width=".18"/>
        <path d="M398.19,469.44c11.82.3,23.86-.37,35.51-2.49" fill="none" stroke="#000" stroke-miterlimit="10" stroke-width=".18"/>
        <path d="M402.83,479.16c5.35-.41,10.7-.83,16.04-1.23" fill="none" stroke="#000" stroke-miterlimit="10" stroke-width=".18"/>
        <path d="M404.01,484.31c2.45.08,4.92,0,7.36-.24" fill="none" stroke="#000" stroke-miterlimit="10" stroke-width=".18"/>
        <path d="M279.11,463.12c7.22,4.95,21.06,10.66,29.36,13.24-.38-.01-4.45-1.48-4.83-1.51" fill="none" stroke="#000" stroke-miterlimit="10" stroke-width=".18"/>
        <path d="M272.23,464.92c2.37,3.21,5.66,5.71,8.64,8.31,3.38,2.93,6.76,5.85,10.2,8.7,6.26,5.17,14.87,12.35,22.72,14.94-1.01-.22-4.09-1.94-5.1-2.16" fill="none" stroke="#000" stroke-miterlimit="10" stroke-width=".18"/>
        <path d="M267.09,467.02c10.31,19.92,26.8,37.4,48.39,43.93" fill="none" stroke="#000" stroke-miterlimit="10" stroke-width=".18"/>
        <path d="M268.78,487.79c12.83,13.95,26.31,28.25,44.56,35.48" fill="none" stroke="#000" stroke-miterlimit="10" stroke-width=".18"/>
        <path d="M266.61,502.79c10.84,9.69,22.27,19.01,35.41,25.42" fill="none" stroke="#000" stroke-miterlimit="10" stroke-width=".18"/>
        <path d="M258.57,509.3c5.58,8.16,13.92,13.81,22.27,18.83" fill="none" stroke="#000" stroke-miterlimit="10" stroke-width=".18"/>
        <path d="M258.47,518.73c1.65,4.02,4.67,6.43,7.17,9.61" fill="none" stroke="#000" stroke-miterlimit="10" stroke-width=".18"/>
        <path d="M254.2,493.7c-4.13-8.25-7.31-16.98-9.45-25.95" fill="none" stroke="#000" stroke-miterlimit="10" stroke-width=".18"/>
        <path d="M247.86,510.39c-1.5-1.55-2.28-3.64-3-5.68-4.24-11.91-8.18-26.64-8.52-39.28" fill="none" stroke="#000" stroke-miterlimit="10" stroke-width=".18"/>
        <path d="M242.56,515.53c-6.61-16.08-11.51-33.58-13.4-50.89" fill="none" stroke="#000" stroke-miterlimit="10" stroke-width=".18"/>
        <path d="M237.63,519.7c-7.73-14.48-13.16-30.93-13.92-47.41-.15-3.25-.37-6.68.21-9.9" fill="none" stroke="#000" stroke-miterlimit="10" stroke-width=".18"/>
        <path d="M228.91,519.64c-8.02-14.89-13.71-31.01-16.82-47.62.27,1.11.53,2.21.8,3.31" fill="none" stroke="#000" stroke-miterlimit="10" stroke-width=".18"/>
        <path d="M221.75,516.83c-7.54-9.35-17.18-21.46-18.25-33.6" fill="none" stroke="#000" stroke-miterlimit="10" stroke-width=".18"/>
        <path d="M208.56,512.35c-5.46-8.03-9.78-16.84-12.77-26.08.22.76.43,1.54.65,2.3" fill="none" stroke="#000" stroke-miterlimit="10" stroke-width=".18"/>
        <path d="M196.73,504.86c-3.52-4.46-5.33-9.98-6.63-15.43" fill="none" stroke="#000" stroke-miterlimit="10" stroke-width=".18"/>
        <path d="M205.56,454.24c-6.09,5.14-10.5,12.21-12.45,19.94" fill="none" stroke="#000" stroke-miterlimit="10" stroke-width=".18"/>
        <path d="M199.17,453.59c-7.9,7.95-16.16,15.85-21.05,26.13" fill="none" stroke="#000" stroke-miterlimit="10" stroke-width=".18"/>
        <path d="M197.82,450.07c-7.55,7.2-20.24,18.47-24.53,28.27" fill="none" stroke="#000" stroke-miterlimit="10" stroke-width=".18"/>
        <path d="M186.4,448.96c-6.33,7.75-14.15,18.06-18.67,27.04" fill="none" stroke="#000" stroke-miterlimit="10" stroke-width=".18"/>
        <path d="M178.33,449.91c-4.1,4.22-7.63,9.01-10.44,14.19-1.75,3.23-3.25,6.76-3.11,10.44,0,.22.07.49.28.53s.16-.44,0-.29" fill="none" stroke="#000" stroke-miterlimit="10" stroke-width=".18"/>
        <path d="M159.58,462.6c3.82-3.7,6.4-7.53,11.03-10.16-.55-.13-1.06-.47-1.39-.93" fill="none" stroke="#000" stroke-miterlimit="10" stroke-width=".18"/>
        <g>
          <path d="M98.16,631.92c.72.32.78.96.76,1.62-.39-.04-.98.19-.79-.62.07-.32.03-.67.04-1Z" fill="#fff" stroke-width="0"/>
          <path d="M389.8,361.99c-2.48.18-6.14-1.31-8.69-.04,4.02,3.5,12.96,2.29,17.96,2.04.89-.04,5.22.62,3.73-1.44-1.02-1.41-8.41-.23-10.05-.16-.66-4.77,5.24-4.7,8.74-3.85,4.82,1.17,8.69,5.32,10.49,9.82,3.56,8.84.69,21.16-6.56,27.41-12.83-8.29-26.27-15.2-41.55-17.9-4.34-14.83,15.21-30.73,26.22-16.35-.1.16-.19.32-.3.49h0s0-.01,0-.01Z" fill="url(#radial-gradient-9)" stroke-width="0"/>
          <path d="M391.24,500.89c5.96-15.49-5.75-35-15.88-46.05-11.52-12.55-28.28-23.65-46.07-22.14-2.14.19-7.7,5.32-9.48,3.79-2.32-1.99-.98-10.77.55-11.98,6.89-5.45,21.1-1.69,28.66.79,16.03,5.24,30.65,16.87,40.58,30.39,5.62,7.66,9.94,16.39,11.78,25.76,1.15,5.87,1.16,24.59-10.13,19.45h0s0,0,0,0Z" fill="url(#radial-gradient-10)" stroke-width="0"/>
          <path d="M436.43,423.72c7.04-2.42,8.24-4.28,8.29-12.74,4.69.76,13.25-6.22,17.83-6.43,4.21-.67,3.63.69,6.24,2.96,14.35,9.11,10.44,29.19-1.44,38.02-4.52,3.37-15.9,5.79-19.27-.52-1.87-3.49-2.88-7.43-4.88-10.94-2.04-3.59-4.43-6.95-6.78-10.35h.01s0,0,0,0Z" fill="url(#radial-gradient-11)" stroke-width="0"/>
          <path d="M321.24,529.53c-3.31,2.45-11.39.93-9.44-2.7,5.95-11.09,5.61-31.41,2.71-42.32-1.89-7.08-4.66-13.81-9.26-19.57-4.23-5.29-9.18-5.87-14.74-7.79-2-.69-4.09-1.7-.87-5.92,4.37-5.73,16.18.07,20.23,4.12,6.91,6.91,12.28,15.82,14.97,25.09,2.91,10,4.67,21.65,3.53,32.07-.45,4.17-2.78,13.82-7.12,17.04h0s0-.01,0-.01Z" fill="url(#radial-gradient-12)" stroke-width="0"/>
          <path d="M230.85,520.64c12.05,3.57,20.99-14.88,23.87-23.55,1.91-5.75,3.32-11.15,2.91-17.22-.46-6.92-3.04-11.57-8.63-15.4.93-4.62,9.55-4.49,12.62-2.6,3.33,2.05,5.08,5.92,6.11,9.53,2.64,9.23.83,20.3-1.93,29.34-2.59,8.49-7.61,18.63-14.56,24.41-3.34,2.77-7.78,5.11-12.23,4.86-6.36-.6-10.33-5.06-8.17-9.35h0s0,0,0,0Z" fill="url(#radial-gradient-13)" stroke-width="0"/>
          <path d="M168.15,479.27c4.75,1.55,8.94,2.34,13.97.87,4.18-1.23,7.97-3.53,11.52-6.06,7.91-5.64,10.48-13.14,10.92-22,7.44-4.7,13.01,5.17,9.89,13.03-1.93,6.83-7.83,13-13.29,17.24-5.49,4.26-12.94,8.18-19.86,9.32-9.4,1.26-17.36-4.65-13.13-12.4h-.01s0,0,0,0Z" fill="url(#radial-gradient-14)" stroke-width="0"/>
          <path d="M349.22,366.34c2.4,1.48,10.58,1.95,12.51-.99.8-1.22.87-1.34-.62-1.48-2.32-.22-5,2.2-7.54,2,2.05-3.16,6.23-6.69,10.22-4.9,1.36.96,2.22-.77,1.31,4.09-.17.89-1.24,2.95-1.86,5.83-.84,3.77-.72,6.39-1.58,6.61-.58.14-2.65-.36-2.76-.37-1.61-.21-3.07-.22-4.93-.1-2.36.16-1.99-.15-4.04.11-2.32.29-4.43,3.55-5.94,1.9-2.47-2.72-6.23-5.76-9.46-4.27-.05.02-.09.04-.11.03-.25-.16-.99-8.68,3.5-11.95,1.79-1.3,6.09-1.62,9.02-.94,1.38.32,4.54,3.1,5.13,3.67-.73.3-1.95.41-2.89.8h0s.02-.01.02-.01Z" fill="url(#radial-gradient-15)" stroke-width="0"/>
          <path d="M152.87,432.99c3.16,9.03,14.34,9.76,22.46,7.12,2.26-.74,4.26-2.1,6.17-3.54,1.28-.97,3.12-3.81,4.44-4.35,4-1.63,5.71,6.84,4.57,9.16-4.04,8.2-21.2,10.06-28.95,9.29-4.48-.44-9.95-2.78-12.38-6.94-1.78-3.06-.66-9.92,3.72-10.74h0s0,0,0,0Z" fill="url(#radial-gradient-16)" stroke-width="0"/>
          <path d="M423.01,390.39c-10.08-.36-9.06-16.35,1.02-15.74,10.11.63,9.06,16.11-1.02,15.74Z" fill="url(#radial-gradient-17)" stroke-width="0"/>
          <path d="M321.99,394.83c10.15.2,10.05,15.87-.19,15.66-9.99-.2-9.84-15.86.19-15.66h0Z" fill="url(#radial-gradient-18)" stroke="url(#radial-gradient-19)" stroke-miterlimit="10" stroke-width=".73"/>
          <path d="M307.93,398.12c-9.99-.21-9.83-15.84.28-15.63,9.97.21,9.83,15.84-.28,15.63Z" fill="url(#radial-gradient-20)" stroke="url(#radial-gradient-21)" stroke-miterlimit="10" stroke-width=".73"/>
          <path d="M312.88,399.46c-.95,3.61-.17,6.72,1.99,9.38-2.62,6.99-12.25,7.97-15.21.56-1.19-2.99-.71-7.68,2.18-9.69,1.91-1.33,1.85-.63,4.15-.24,2.37.4,4.52-.09,6.88-.02h0Z" fill="url(#radial-gradient-22)" stroke="url(#radial-gradient-23)" stroke-miterlimit="10" stroke-width=".73"/>
          <path d="M432.88,390.45c9.82.29,9.77,15.11.27,15.55-10.37.49-10.79-15.86-.27-15.55h0Z" fill="url(#radial-gradient-24)" stroke-width="0"/>
          <path d="M448.72,409.89c-9.59-.19-9.78-14.71-.4-15.48,10.42-.85,10.98,15.69.4,15.48Z" fill="url(#radial-gradient-25)" stroke-width="0"/>
          <path d="M432.65,388.63c.13-4.51,0-9.11,4.85-11.05,4.14-1.67,8.99.35,10.52,4.59,1.34,3.73-.61,8.63-4.47,10.08-3.87,1.45-6.74-3.27-10.91-3.63h0Z" fill="url(#radial-gradient-26)" stroke-width="0"/>
          <path d="M332.4,387.26c.32,9.14-16.19,8.86-15.63-1.07.57-10.06,15.94-9.02,15.63,1.07Z" fill="url(#radial-gradient-27)" stroke="url(#radial-gradient-28)" stroke-miterlimit="10" stroke-width=".73"/>
          <path d="M310.64,416.04c.72,4.05,3.81,8.11.2,11.45-3.24,3-8.35,2.62-11.13-.76-2.29-2.78-2.71-8.12.12-10.8,1.91-1.8,2.05-.65,4.42,0,2.26.63,4.12.03,6.38.1h0s0,0,0,0Z" fill="url(#radial-gradient-29)" stroke="url(#radial-gradient-30)" stroke-miterlimit="10" stroke-width=".73"/>
          <path d="M414.8,386.5c2.27,3.85,5.37,5.97,9.86,6.32-1.2,3.1-2.01,6.17-.28,9.47-2.42.68-4.23,1.43-6.38,2.72-3.49-2.68-7.01-5.39-10.72-8.24,4.02-3.38,5.63-5.32,7.52-10.27h0s0,0,0,0Z" fill="url(#radial-gradient-31)" stroke-width="0"/>
          <path d="M443.1,414.9c-.24,3.25-3.56,7.76-7.34,7.04-2.37-.45-7.68-6.5-7.79-8.77-.43-8.61,15.83-7.97,15.13,1.73h0Z" fill="url(#radial-gradient-32)" stroke-width="0"/>
          <path d="M458.93,403.03c-1-3.74-2.71-9.25,1.14-12.09,2.73-2.02,7.01-1.27,9.37.95,2.56,2.41,3.15,6.2,1.26,9.17-2.89,4.52-7.35,2.11-11.77,1.98h0Z" fill="url(#radial-gradient-33)" stroke-width="0"/>
          <path d="M159.14,400.3c3.75,4.15,10.61,6.67,15.67,8.82,1.89.8,6.76,2.02,7.77,3.71,1.27,2.13-1.75,5.58-3.85,6.01-4.27.87-13.11-5.19-16.78-7.03-5.77-2.56-9.92-8.48-2.8-11.51h0s0,0,0,0Z" fill="url(#radial-gradient-34)" stroke-width="0"/>
          <path d="M316.99,410.65c4.15,2.47,8.87-.54,10.84,4.85,2,5.47-2.33,5.18-5.93,7.63-1.95,1.33-2.09,2.25-4.34,1.67-1.39-.36-3.07-2.14-3.78-3.32-2.56-4.27.14-7.92,3.23-10.83h0s0,0,0,0Z" fill="url(#radial-gradient-35)" stroke="url(#radial-gradient-36)" stroke-miterlimit="10" stroke-width=".73"/>
          <path d="M338.18,390.77c.69,2.69,2.12,5.04,5.57,5.69-.63,2.42-1.66,7.31-4.05,8.6-2.38,1.28-6.25-.27-7.77-2.25-1.44-1.89-2.04-6.13-1.17-8.32,1.38-3.48,4.1-3.81,7.41-3.72h0Z" fill="url(#radial-gradient-37)" stroke="url(#radial-gradient-38)" stroke-miterlimit="10" stroke-width=".73"/>
          <path d="M454.95,394.6c-.87-3.86-3.15-5.05-6.57-5.9.08-2.84-.26-6.75,2.15-8.63,1.88-1.46,5.44-2.48,7.66-1.79,2.88.88,8.37,6.44,6.43,9.87-1.7.36-7.02,2.28-9.67,6.46h0Z" fill="url(#radial-gradient-39)" stroke-width="0"/>
          <path d="M331.93,405.07c2.27,1.77,4.78,1.97,7.53,1.88-1.19,2.98-5.12,13.97-9.02,12.87-.57-.74-1.5-6.29-1.43-7.52.14-2.44,1.94-5.04,2.92-7.23h0s0,0,0,0Z" fill="url(#radial-gradient-40)" stroke="url(#radial-gradient-41)" stroke-miterlimit="10" stroke-width=".73"/>
          <path d="M317.19,427.48c-.41,4.16-.11,6.41,1.29,10.39-1.43,1.1-3.14,2.42-4.79,3.7-5.84-3.33-4.3-16.58,3.5-14.09h0Z" fill="url(#radial-gradient-42)" stroke="url(#radial-gradient-43)" stroke-miterlimit="10" stroke-width=".73"/>
          <path d="M429.08,407.22c-1.02,1.71-1.97,3.3-3.03,5.1-2.13-1.92-4.27-3.85-6.58-5.94,3.68-3.64,6.25-1.77,9.61.84Z" fill="url(#radial-gradient-44)" stroke-width="0"/>
          <path d="M342.78,379.52c-1.65,2.02-2.01,2.47-3.16,4.65-.71,1.33-3.44,2.45-6.21-.74-2.73-3.17-.64-6.83,1.84-8.46,3.3-2.17,8.69,2.81,7.52,4.55h0Z" fill="url(#radial-gradient-45)" stroke="url(#radial-gradient-46)" stroke-miterlimit="10" stroke-width=".73"/>
          <path d="M193.13,384.82c-1.33,1.49-3.25,3.19-4.52,4.61-1.92-2.57-5.17-6.42-7.27-8.84,3.77.18,8.95,1.83,11.8,4.25h0Z" fill="url(#radial-gradient-47)" stroke-width="0"/>
          <path d="M453.39,394.78c-2.94-1.08-7.04-.66-8.58-1.5,4.84-7.76,8.8-5.41,10.55-.42,1.5,4.29-.77,2.36-1.98,1.91h0s0,0,0,0Z" fill="url(#radial-gradient-48)" stroke-width="0"/>
          <path d="M316.48,395.66c-.15-.82-.2-3.78.51-3.79.12,0,2.29,1.95,2.28,1.96-.26.29-2.4,1.45-2.79,1.82h0s0,0,0,0Z" fill="url(#radial-gradient-49)" stroke-width="0"/>
          <path d="M447.58,453.31c-.01-.4-.08-.76-.17-1.1-.11-.74-.27-1.48-.55-2.25-.03-.08-.05-.14-.09-.22-.1-.5-.2-.99-.29-1.48-.1-.57-.22-1.14-.35-1.72-.24-1.05-.78-1.78-1.45-2.25-.04-.18-.1-.35-.14-.52,0-.15,0-.32-.02-.48.01-.41-.06-.84-.21-1.32-1.09-3.41-2.52-6.55-4.51-9.54-.34-.51-.73-.9-1.17-1.18-.18-.28-.36-.56-.53-.84-.69-1.46-1.48-2.86-2.41-4.22-.41-.61-.91-1.05-1.43-1.36-.24-.4-.48-.78-.72-1.17-.41-.68-.93-1.15-1.5-1.47-.16-.39-.38-.71-.65-.99-.25-.62-.51-1.23-.8-1.84-.56-1.17-1.69-1.76-2.9-1.89-.13-.23-.28-.46-.46-.69h0c-.28-.65-.66-1.13-1.08-1.46-.43-1.74-1.67-2.61-3.03-2.79-1.02-1.02-2.08-2-3.18-2.93-.25-.28-.51-.55-.8-.81-.08-.07-.15-.13-.23-.19-.5-.48-1.02-.96-1.61-1.42-.38-.3-.77-.5-1.14-.62-.11-.08-.22-.16-.31-.25-.4-.43-.82-.84-1.27-1.25-.38-.33-.81-.57-1.26-.75-.44-.43-.94-.83-1.46-1.2-.45-.48-.97-.91-1.54-1.31-.17-.15-.35-.3-.52-.45-.87-1.09-1.92-2.02-3.17-2.86-.13-.09-.27-.15-.41-.22-2.58-2.14-5.29-4.1-8.54-5.48-7.52-3.2-14.36-7.49-22.15-10.18-6.37-2.2-13.55-4.96-20.26-3.41-1.63-.05-3.29.2-5.14.35-3.4.27-6.28,2.45-8.22,5.17-1.83,2.58-3.06,6.57.22,8.64,2.55,1.61,5.91-.27,8.18-1.96.52-.01,1.04-.09,1.55-.2.46-.1.9-.2,1.32-.25.24.2.49.38.77.52,1.11.85,2.5.78,3.67.17.1.02.2.04.3.07.88.21,2.38.35,3.07.86,1.15.85,2.31.92,3.27.51.41.14.81.26,1.22.4.59.57,1.42.94,2.48.96h.16c.44.17.89.32,1.34.51.8.32,1.54.35,2.16.2,1.68.58,3.28,1.42,4.91,2.21,2.9,1.38,5.82,2.74,8.71,4.15h0c.18.35.44.68.8.98.64.53,1.26.96,1.91,1.32.17.15.36.31.59.49,1.59,1.23,3.66,1.29,5.24,2.43.88.63,1.77.81,2.57.68.25,1.11,1.08,2.02,2.61,2.3.87.16,1.73.31,2.6.47.14.65.51,1.28,1.18,1.86,3.18,2.73,6,5.74,8.51,9.09,1.11,1.48,2.78,1.58,4.18.91.35.3.7.61,1.05.91.02.04.03.09.05.13.32.68.75,1.17,1.23,1.5.11.16.22.34.32.51.26.38.57.69.91.95.16.21.32.43.49.64.18.22.37.42.55.58.03.04.06.09.09.13.4.58.73,1.17,1.03,1.82.35.68.78,1.18,1.26,1.51.06.08.12.15.18.23.46.68.93,1.35,1.4,2.03.3.44.66.78,1.04,1.05,1.04,1.57,2.07,3.14,3.11,4.71.46.69,1.03,1.17,1.63,1.48.06.14.12.27.19.42.04.13.09.27.13.4.42,1.07.85,2.14,1.27,3.22.35.87.93,1.42,1.63,1.73.46.8.94,1.57,1.46,2.33-.04.42-.03.85.08,1.31.46,1.95,1.14,3.73,2.09,5.5.11.19.23.37.36.54.36,2.24.16,4.32-.63,6.65-1.45,4.32,4.6,6.58,6.86,3.32,1.03-.28,1.96-1.09,2.42-2.55.3-.94.52-1.87.74-2.82.11-.17.19-.37.28-.57.65-.6,1.06-1.49,1.03-2.7s-.07-2.43-.1-3.64v-.02s-.04,0-.04,0Z" fill="url(#radial-gradient-50)" stroke-width="0"/>
          <path d="M432.66,377.57c-.26.09-.52.19-.77.29-.25-.4-.06-.63.58-.69.06.13.12.27.19.41h0Z" fill="#fff" stroke-width="0"/>
          <path d="M328.16,408.84c.59.24-.36,3.69-.78,4.2-1.37-.22-.56-3.67.78-4.2Z" fill="url(#radial-gradient-51)" stroke-width="0"/>
        </g>
        <path d="M469.05,404.88c-.26-.04-.06-.6.79-.96,0,0,2.44-2.37,2.69-3.19.95-2.98,2.01-5.68-1.21-9.77-.06-.09-.16-.15-.24-.23-1.21-1.07-3.86-2.62-5.56-2.74,0,0,1.45-3.34-1.53-6.66-1.34-1.49-3.07-2.57-5.78-3.42-2.66-.83-5.68.26-6.54,1.07-2.22,2.09-3.37.66-5.48-1.43-.94-.51-2.28-1.25-3.51-1.58-.41-.11-1.11-.16-1.18-.2-.52-.26,4.79-8.77,6.01-13.3,1.12-4.16,2.65-13.5.64-22.13-.91-3.92-2.2-7.74-3.72-11.47-.73-1.8-1.44-4.68-2.75-6.15-1.72-1.95-1.18-1.31-2.91.12-2.4,1.98-4.61,6.66-6.86,8.98-1.76,1.82-3.54,3.65-5.16,5.59-3.8,4.55-8.14,8.76-11.72,13.56-2.14,2.86-3.39,7.03-5.66,9.58-2.32-2.35-5.34-3.31-8.47-4.1,2.38-5.89,4-11.33,3.36-17.78-.3-3-.99-5.93-1.87-8.8-.79-2.57-1.63-7.62-3.44-9.64-1.94-2.15-2.45-.45-3.96,1.71-1.97,2.82-3.86,5.7-5.87,8.51-1.95,2.74-4.01,5.4-5.96,8.15-1.47,2.09-2.89,5.71-4.95,7.22-6.87-8.82-19.56-9.44-26.27-7.34,1.33,3.12,3.72,6.04,5.28,9.12,1.79,3.54,3.35,7.19,5.31,10.65.29.52.84,1.26,1.36,2.05-2.8-1.14-6.41-.58-10.5,2.35-.5-3.99-1.78-7.2-5.09-9.4l-3.23.34c.09.15.15.31.23.48.08.08.13.16.2.24,1.02.21,3.26.92,4.79,3.16.94,1.38,1.4,3.13,1.24,5.1,0,0-.38.1-.71.04-1.99-1.19-4.07-2.22-6.18-2.66-.08.06-2.23-.91-7.44,1.72-4.49,2.26-5.38,8.9-3.94,13.83-.94.38-2.34,4.46-3.89,3.64-2.29-1.22-7.1-1.43-8.8-.6-3.82,1.84-4.71,4.05-5.3,5.51-4.08-3.52-9.8-4.49-13.94-.39-4.1,4.07-2.53,9.51.32,13.81-5.13,4.65-5.63,9.93-1.82,15.68-7.39,7.77-2.13,20,8.89,17.71-1.42,4.89.4,7.9,2.54,12.18-2.73,1.55-5.64,4.1-8.85,3.89-3.2-.21-5.46-1.99-8.88-1.26-6.95,1.49-7.36,6.72-8.81,12.3-2.54,2.2-8.71,2.81-11.97,3.46-4.13.82-5.93,1.52-9.17-.92-5.68-4.28-15.26-3.95-17.07,4.32-8.68-.81-17.54-1.67-25.8-4.66-5.63-2.03-4.74-9.47-11.58-10.9-2.92-.61-5.52,1.21-8.1.33-2.15-.74-7.4-5.6-7.79-7.86-.59-3.44,1.2-5.88-1.31-9.06-1.98-2.49-4.79-3.13-7.81-3.22-1.2-4.07-2.86-6.77-.78-10.35,1.44-2.47,2.98-4.54,1.35-7.48-.89-1.61-2.47-2.14-2.89-3.92-.38-1.61,1.13-4.62,1.7-6.1,1.11-2.85,2.42-5.72,4.57-7.81,2.13-2.08,4.63-4.26,6.64-6.84,2.62-3.36.3-5.05-3.16-6.87-3.15-1.65-16.79-4.59-13.76,2.47-6.51,4.04-11.48,9.58-15.23,16.25-6.47-1.23-11.64,3.9-8.58,10.47.99,2.12,1.74,1.95,1.7,4.34-.03,1.65-.98,3.98-1.29,5.63-.69,3.78-.82,7.58-1.26,11.39-9.52,4.24-8.37,13.16-1.21,19.22,3.9,3.31,4.73,9.87,6.87,14.56,2.17,4.76,4.93,9.16,7.68,13.61-1.93,6.21-1.04,11.79,5.42,14.88,2.82,1.36,5.61.65,8.42,1.53,2.93.92,5.86,4.25,8.36,6.03,12.19,8.64,25.5,14.57,39.34,20.02-.22,7.6,4.8,12.47,12.58,12.07,3.8-.2,7.09-1.77,10.25-3.73,3.71-2.31,5.81-1.38,10.16-.81,8.32,1.09,16.75,1.44,25.14,1.47,4.15.02,8.29-.11,12.42-.4,3.41-.24,7.43-1.51,10.31.44,2.66,1.8,3.67,3.35,7.29,3.35,2.85,0,5.58-.96,7.77-2.78,2.16-1.8,3.15-4.55,5.68-5.9,2.97-1.58,9.74-3.26,12.99-4.17,16.4-4.64,29.87-10.17,45.17-17.58,4.44,3.35,9.39,3.49,13.57-.58,3.77-3.68,2.37-8.41,4.7-12.43,1.12-1.94,4.13-3.29,5.92-4.59,1.59-1.15,3.17-2.33,4.74-3.52-1.14,3.29-1.69,6.8-1.75,10.28-.12,5.44.8,10.9,2.28,16.12.65,2.3,2.6,11.81,5.11,12.54,2.05.6,8.09-10.64,9.31-12.46,3.24-4.81,6.73-9.6,9.1-14.93.84-1.87,1.48-3.82,1.9-5.8,2.33,3.25,3.79,5.31,4.11,5.82,2.13,3.28,17.95,19.15,19.33,13.69,2.54-10.04,4.35-21.73,4.99-32.05.6-10.08-2.75-17.27-9.97-24.11,1.21-1.37,3.62-1.98,5.19-3,2.25-1.46,4.33-3.2,6.16-5.16,3.25-3.51,5.96-7.82,7.1-12.49,2.5-10.26-3.91-23.68-10.52-24.88l.02-.02h0ZM469.44,391.89c2.56,2.41,3.15,6.2,1.26,9.17-2.89,4.52-7.35,2.11-11.77,1.98-1-3.74-2.71-9.25,1.14-12.09,2.73-2.02,7.01-1.27,9.37.95h0ZM452.02,380.36c1.88-1.46,4.33-1.62,6.54-.94,2.88.88,7.49,5.29,5.53,8.71-3.13.05-6.03,1.09-8.09,4.68-.87-3.97-3.73-4.48-6.94-4.34.87-3.46.55-6.23,2.96-8.1h0ZM432.88,390.45c9.82.29,9.77,15.11.27,15.55-10.37.49-10.79-15.86-.27-15.55h0ZM423.01,390.39c-10.08-.36-9.06-16.35,1.02-15.74,10.11.63,9.06,16.11-1.02,15.74ZM424.65,392.82c-1.2,3.1-2.01,6.17-.28,9.47-2.42.68-4.23,1.43-6.38,2.72-3.49-2.68-7.01-5.39-10.72-8.24,4.02-3.38,5.63-5.32,7.52-10.27,2.27,3.85,5.37,5.97,9.86,6.32h0s0,0,0,0ZM429.08,407.22c-1.02,1.71-1.97,3.3-3.03,5.1-2.13-1.92-4.27-3.85-6.58-5.94,3.68-3.64,6.25-1.77,9.61.84ZM443.1,414.9c-.24,3.25-3.56,7.76-7.34,7.04-2.37-.45-7.68-6.5-7.79-8.77-.43-8.61,15.83-7.97,15.13,1.73h0ZM448.32,394.41c10.42-.85,10.98,15.69.4,15.48-9.59-.19-9.78-14.71-.4-15.48h0ZM455.43,395.08c-6.03-2.72-8.36-1.34-10.61-1.8,6.75-8.34,10.97-1.12,10.61,1.8ZM448.02,382.16c1.34,3.73-.61,8.63-4.47,10.08-3.87,1.45-6.74-3.27-10.91-3.63.13-4.51,0-9.11,4.85-11.05,4.14-1.67,8.99.36,10.52,4.59h0ZM439.72,374.79c-1.54.42-3.02.89-4.42,1.44-1.01.39-3.79-.19-5.12-.02,2.1-3.78,11.8-11.42,14.75-11.77-.15,4.24-3.63,6.76-5.21,10.36h0ZM445.02,363.86c-.26-.72-7.14,2.32-8.33,3.29-2.54,2.03-5.39,6.27-8.54,7.02,1.02-4.23,2.55-10.54,5.58-13.72,2.99-3.14,9.08-6.32,13.1-7.87,1.06,2.16-.13,9.34-1.82,11.28h0s0,0,0,0ZM441.46,327.51c.91,1.53,2.8,4.79,2.38,6.54-.41,1.71-3.47,3.98-4.64,5.22-.41-3.15.73-8.97,2.26-11.76h0ZM445.06,336.39c1.53,4.24,2.5,8.53,2.68,13.06-4.64,2.84-9.24,5.64-13.83,8.45l-.28-.23c2.78-7.6,2.88-17.49,11.43-21.28h0ZM438.12,327.44c.15.06.3.13.46.18.03,1.8.14,3.61-.48,5.35-.17.03-.33.08-.51.11-.56-.99-1.13-1.99-1.73-3.03.83-.96,1.54-1.79,2.25-2.61h0ZM435.06,331.2c1.79,2.95,3.48,5.63,1.56,9.14-2.55-2.84-4.36-6.36-1.56-9.14ZM432.16,334.85c1.47,3.46,3.9,7.21,3.25,10.99-.43,2.54-1.92,9.98-3.72,11.8-1.91-3.68-5.17-10.61-5.38-14.74-.16-3.17,3.23-6.39,5.84-8.05h0ZM412.22,359.39c2.22-6.56,7.8-11.27,12.39-16.15,4.6,8.66,8.47,20.21,1.88,28.85-1.65-1.88-1.99-4.67-3.12-7.15-.93-2.06-5.75-12.72-6.12-13.95-1.41,2.02,6.88,18.35,7.69,21.85-1.59.23-2.99.44-4.57.66-.94-1.5-2.46-1.31-4.13-.67.93.32,1.84.65,3.04,1.06-1.25,1.11-2.34,2.08-3.63,3.24-.6-3.09-.47-6.35-1.56-9.32-1.25-3.41-3.14-4.67-1.87-8.44h0ZM401.06,352.01c-1.5,4.64-3.64,4.46-8.23,5.32,2.01-3.16,5.53-5.82,8.18-8.44-1.29-2.16-7.7,7.11-9.6,8.09.48-2.89,1.06-7.05,2.66-9.53,1.62-2.5,5.92-5.22,8.55-6.58.23,3.67-.41,7.62-1.55,11.14h0ZM397.53,323.19c1.24,1.3,1.87,2.56,2.67,5.21-1.07,1.2-2.01,2.61-3.77,3.79.39-3.15.73-5.94,1.11-9.01ZM400.6,329.85c1.09,1.91,2.85,6.71,2.12,8.89-.6,1.79-6.4,5.51-8.27,6.14.42-2.69.57-5.69,1.34-8.3.82-2.79,2.87-4.57,4.82-6.74h0ZM395.48,324.12c.47,1.59.13,5.92-.96,8.03-1.46-3.45-2.36-5.27.96-8.03ZM391.77,328.95c2.61,5.56,2.6,8.88,1.52,14.89-.14.03-.27.05-.41.09-1.33-1.89-3.52-6.53-3.83-8.87-.34-2.6,1.2-4.03,2.73-6.1h0s0,0,0,0ZM387.41,334.92c1.92,3.02,3.95,7.49,4.69,11.01.62,2.96-.78,6.19-1.55,9.08-2.67-3.7-4.28-7.54-6.24-11.15-.15.04-.3.09-.44.13.85,4.57,5.01,8.23,5.57,12.76-2.28,1.05-7.14-3.45-7.89-5.35-.76,1.14-.57,3.27-2.87,2.24-2.11-6.55,5.15-13.99,8.73-18.72h0s0,0,0,0ZM390.11,361.46c-.1.16-.19.32-.3.49-2.71-.3-6.93-1.64-9.28.03,4.02,3.5,13.55,2.22,18.55,1.97.89-.04,5.22.62,3.73-1.44-1.02-1.41-8.41-.23-10.05-.16-.66-4.77,5.24-4.7,8.74-3.85,4.82,1.17,8.69,5.32,10.49,9.82,3.56,8.84.69,21.16-6.56,27.41-12.83-8.29-26.04-15.65-41.33-18.34-.11-.46-.2-.91-.27-1.38.35-7.49.71-8.22,3.52-12.89,5.49-7.46,15.93-10.83,22.74-1.64h0s0-.02,0-.02ZM365.86,351.97c3.71-3.36,6.2.07,8.72,2.92-2.98.2-5.46-2.67-8.72-2.92ZM376.55,354.07c-2.2-1.78-3.34-8.12-3.42-10.93,3.84,2.11,5.89,6.97,3.42,10.93ZM373.81,351.71c-1.29-.12-5.24-3.82-6.03-4.97-1.25-1.82-1.21-4.83-1.57-7,6.63,1.02,6.39,6.39,7.6,11.97h0ZM364.91,339.25c.4,1.96.78,3.82,1.18,5.73-3.3-.72-5.3-2.78-5.94-6.33,1.68.21,3.17.39,4.77.59h0ZM359.12,340.56c-1.36.14-2.26-.75-3.65-1.32,2.62-1.03,3.1-.84,3.65,1.32ZM354.6,340.01c1.95.88,3.57,1.7,5.51,2.89-3.21.31-4.39-.32-5.51-2.89ZM357.22,344.64c2.61-1.48,6.33-.39,8.49,2.65-2.9-.25-7.41.62-8.49-2.65ZM358.89,348.29c2.62-.78,8-.24,9.73,1.01-2.12,1.23-5.96,1.54-8.39,2.01,3.37,1.12,9.09,1.43,11.85,4.67-1.19.92,1.3-1,0,0-1.07-1.49-7.66,1.75-8.39-.15,3.14-.05,7.07,1.93,7.07,1.93-.01,1.41-4.37,3.35-4.64,3.53-3.17-2.66-5.41-9.18-7.23-13.01h0ZM364.57,380.59c.05.07.11.14.15.21.22-.02.43-.04.65-.07.47,0,.92.11,1.32.3,3.6.79,7.13,1.9,10.56,3.23,12.8,5.01,24.99,12.32,35.74,20.85,10.55,8.38,20.59,18.38,27.22,30.22,3.15,5.62,6.35,12.36,6.92,18.86.52,5.74-2.72,15.66-10.24,11.82,3.69-10.89-3.85-22.94-10.18-31.31-6.49-8.57-14.36-16.25-22.89-22.78-7.92-6.06-30.79-18.58-45.41-20.14-6.28-1.16-7.48-1.58-12.08,1.46-1.73,1.14-4.02-.43-4.02-.43-1.02-.77-1.39-2.46-1.39-3.63,0-1.63.85-5.28,3.89-7.27,2.72-1.79,6.44-2.1,9.6-2.16,3.41-.08,6.8.24,10.15.85h0ZM415.88,450.1c-6.13,7.64-13.01,15.28-15.57,16.91-2.07-3.61-4.15-7.21-6.33-11,4.81-5.45,19.97-25.48,22.19-28.69,3.25,3.46,6.16,6.79,8.71,10.52-1.67,2.65-9.14,12.05-9,12.26h0ZM327.83,415.5c2,5.47-2.33,5.18-5.93,7.63-1.95,1.33-2.09,2.25-4.34,1.67-1.39-.36-3.07-2.14-3.78-3.32-2.56-4.27.14-7.92,3.23-10.83,4.15,2.47,8.87-.54,10.84,4.85h0s0,0,0,0ZM327.35,410.08c.59.24.67.62.24,1.13-.64-.2-.72-.59-.24-1.13ZM321.89,410.5c-9.99-.2-9.84-15.86.19-15.66,10.15.2,10.05,15.87-.19,15.66ZM317.62,393.45c.12,0,.36.35.33.38-.26.29-.56.55-.96.92-.15-.82-.09-1.28.62-1.29h0ZM331.93,405.07c2.27,1.77,4.78,1.97,7.53,1.88-1.19,2.98-5.12,13.97-9.02,12.87-.57-.74-1.5-6.29-1.43-7.52.14-2.44,1.94-5.04,2.92-7.23h0s0,0,0,0ZM345.55,401.58c2.26-5.46,3.57-10.36,10.76-8.04-1.81,6.88-5.18,13.64-8.51,19.9-.9,1.69-2.28,5.73-4.03,6.73-1.59.91-5.15-.29-6.79-.52,2.31-6.18,6.03-11.92,8.58-18.06h0s0-.01,0-.01ZM358.11,393.77c4.88.49,9.43,2.22,14.41,4.04-4.39,9.63-9.07,18.76-15.06,27.18-4.07-1.4-7.98-2.76-11.92-4.11,4.55-8.94,8.69-17.85,12.59-27.11h0s0,0,0,0ZM373.85,398.46c2.06.78,4.05,1.65,5.98,2.58.37.49,6.58,3.07,6.77,3.54.05.03.11.05.17.09-.02.05-.05.12-.07.19.02.07.05.14.06.21.03.34-2.49,4.54-2.55,4.56-4.31,7.51-12.5,20.06-14.77,22.28-3.48-2.04-6.84-4.03-10.45-6.15,5.43-8.91,10.31-17.91,14.87-27.31h0ZM386.35,409.76c.21-.26,1.59-3.27,2.07-4.03,4.32,2.21,11.07,6.78,12.76,8.61-.56,1.24-16.96,25.79-19.11,27.91-3.64-3.04-7.29-6.1-10.92-9.14,4.95-7.85,15.19-23.33,15.2-23.35h0ZM396.84,424.09l1.23-1.82c1.55-2.29,3.1-4.58,4.67-6.89,4.41,3.22,8.46,6.89,12.25,10.81-1.05,1.83-3.55,5.4-6.52,9.4,0,0-13.69,17.62-15.47,18.89-3.12-3.61-6.26-7.21-9.41-10.85,4.38-6.46,8.79-12.96,13.25-19.54h0ZM351.5,365.44c-.73.3-1.24.51-2.18.9,1.02.63,6.05,1.17,6.05,1.17,2.71-.02,5.44-.61,6.45-2.15.8-1.22.87-1.34-.62-1.48-2.2-.21-4.71,1.93-7.12,2l-.23-.29c2.08-3.06,7.72-5.07,11.6-3.33-.44.73-3.29,9.43-3.57,12.94v.02c-.09.14-.6,2.06-1.79,1.91-2.33-.27-1.52-.29-4.21-.5-2.78.08-3.98-.17-6.26.27-2.25.44-3.59,1-5.53,2.12-2.16-3.48-5.32-5.33-9.43-5.05-1.66-10.91,9.1-15.85,16.82-8.52h0s0,0,0,0ZM335.03,375.79c2.08-.88,8.02,1.8,7.37,3.89-1.65,2.02-2.22,2.87-3.37,5.04-2.14.85-3.21-.26-5.21-2.31-.68-2.38-1.41-5.52,1.22-6.62h0ZM338.18,390.77c.69,2.69,2.12,5.04,5.57,5.69-.63,2.42-1.66,7.31-4.05,8.6-2.38,1.28-6.25-.27-7.77-2.25-1.44-1.89-2.04-6.13-1.17-8.32,1.38-3.48,4.1-3.81,7.41-3.72h0ZM332.49,387.26c.32,9.14-16.19,8.86-15.63-1.07.57-10.06,15.94-9.02,15.63,1.07ZM308.21,382.49c9.97.21,9.83,15.84-.28,15.63-9.99-.21-9.83-15.84.28-15.63ZM299.67,409.39c-1.19-2.99-.71-7.68,2.18-9.69,1.91-1.33,1.85-.63,4.15-.24,2.37.4,4.52-.09,6.88-.02-.95,3.61-.17,6.72,1.99,9.38-2.62,6.99-12.25,7.97-15.21.56h0ZM299.71,426.73c-2.29-2.78-2.71-8.12.12-10.8,1.91-1.8,2.05-.65,4.42,0,2.26.63,4.12.03,6.38.1.72,4.05,3.81,8.11.2,11.45-3.24,3-8.35,2.62-11.13-.76h0s0,0,0,0ZM317.19,427.48c-.41,4.16-.11,6.41,1.29,10.39-1.43,1.1-3.14,2.42-4.79,3.7-5.84-3.33-4.3-16.58,3.5-14.09h0ZM318.33,442.26c2.84-2.11,6.52-4.71,9.43-5.88,23.16-15.39,75.9,49.63,59.01,63.82-4.89,1.64-21.68,9.71-26.94,12.16-2.12.98-32.84,10.94-31.55,9.05,9.54-14.06-2.62-64.11-20.81-72.13,3.69-2.25,7.38-4.43,10.86-7.01h0s0,0,0,0ZM282.99,462.36c5.25-1.77,7.78-2.89,13.2-1.26-1.22,3.46-12.01,4.85-15.06,5.37-3.01.51-12.09,3.27-12.9-.67,4.97-.96,9.94-1.82,14.75-3.45h0ZM299.89,510.93c-10.61.7-24.1,1.58-34.33-1.63,1.36-4,2.66-7.88,4.06-12.02,14.37.32,28.75-.68,43.31-3.67.25,2.06.58,4.1.75,6.17.15,1.78,1.12,6.61.35,8.18-1.58,3.15-10.64,2.74-14.14,2.97h0ZM312.45,518.8c-1.26,1.28-3.8,1.02-5.44,1.2-5.39.6-10.8.96-16.23,1.08-10.1.23-20.93.51-30.86-1.52,1.63-2.89,3.15-5.59,4.79-8.51,16.31,2.24,32.63,2.35,48.92-.05.07,1.69.1,6.48-1.19,7.8h0ZM269.82,495.57c1.21-5.95,1.46-11.66,1.27-17.6,11.96-.26,23.71-1.4,35.29-4.82,3.49,5.81,5.16,12.12,6.25,18.92-14.09,2.95-28.21,3.96-42.81,3.5h0s0,0,0,0ZM270.93,476.35c-.51-2.31-1-4.5-1.53-6.95,7.36-.93,14.53-1.43,21.6-3.91,2.34-.82,5.57-3.23,7.92-2.39,2.6.93,5.49,6.46,6.71,8.74-11.52,3.25-22.97,4.42-34.7,4.5h0ZM192.25,384.56c-1.33,1.49-2.47,2.76-3.75,4.18-1.92-2.57-3.91-5.02-6.02-7.44,3.77.18,6.91.86,9.76,3.27h0s0,0,0,0ZM179.57,383.69c-.56.65,7.26,6.26,6.4,7.48-2.13,3.06-3.03,5.24-4.34,7.82-.96,1.92-1.18,3.3-3.05,7.2-.11-.34-15.27-5.07-14.87-5.57,1.26-1.52,5.26-6.85,7.76-9.27,2.15-2.07,4.42-4.85,8.09-7.65h0s0-.01,0-.01ZM159.38,401.65c3.75,4.15,9.6,6.77,14.67,8.93,1.89.8,6.5,1.03,7.52,2.71,1.27,2.13-.63,4.14-2.73,4.56-4.27.87-12.25-4.27-15.92-6.11-3.73-1.87-10.65-7.07-3.53-10.1h0ZM155.97,434.81c-1.99-8.26,1.14-12.93,1.67-19.99.06-.94.42-3.21,1.15-2.62,4.49,3.67,15.86,8.1,21.38,7.67-.78,2.42.23,5.46.32,6.05.27,1.69,1.44,4.09,1.42,5.93-.1,7.32-19.53,11.97-25.93,2.95h0s0,0,0,0ZM150.52,443.8c-1.78-3.06-1.85-8.48,2.53-9.28,3.16,9.03,14.24,9.11,22.35,6.45,2.26-.74,4.7-1.72,6.61-3.17,1.28-.97,2.64-3.89,3.95-4.42,4-1.63,4.88,5.08,3.75,7.4-4.04,8.2-19.83,9.57-27.58,8.8-4.48-.44-9.17-1.62-11.59-5.79h0s0,0,0,0ZM156.95,451.81c2.61,3.22,31.29.84,33.74-7.24.79-2.6,6.97,7,10.95,9.32,2.59,1.51,1.79,7.48-3.62,14.79-3.4,4.6-21.84,13.28-28.9,8.66-5.84-9.62-8.98-15.33-12.16-25.52h0ZM169.43,480.35c4.75,1.55,7.66,2.47,12.68.99,4.18-1.23,8.19-3.14,11.74-5.67,7.91-5.64,12.82-12.76,11.38-22.6,7.44-4.7,9.08,7.9,7.93,11.99-1.93,6.83-7.17,12.38-12.64,16.63-5.49,4.26-12.04,7.8-18.97,8.93-5.71.94-16.37-2.54-12.13-10.28h0s0,0,0,0ZM232.96,518.88c-5.38.5-16.99-6.86-21.85-9.22-8.85-4.3-19.83-9.76-26.99-16.61,23.15-6.84,34.94-24.87,33.04-31.74-.05-.21,6.76,2.43,12,3.34,6.68,1.17,13.24,2.26,19.71,3.26,12.87,1.65,3.5,49.17-15.9,50.97ZM250.87,524.53c-3.34,2.77-7.45,4.88-11.9,4.62-3.2-.18-9.41-2.9-7.25-7.18,12.05,3.57,21.29-15.59,24.17-24.26,1.91-5.75,3.07-12.19,2.67-18.26-.46-6.92-2.41-10.94-8.01-14.76.93-4.62,6.8-4.18,9.88-2.3,3.33,2.05,4.97,5.69,6.01,9.31,2.64,9.23,1.23,20.05-1.54,29.1-2.59,8.49-7.06,17.97-14.02,23.75h0ZM301.64,525.41c-4.95.4-9.91.59-14.88.58-9.84-.01-20.63-.11-30.24-2.25,2.93-3.58,5.38-2.18,9.75-1.76,5.36.52,10.75.75,16.15.77,9.82.04,19.5-1.35,29.28-1.56-1.31,4.53-6.11,3.89-10.04,4.21h0s0,0,0,0ZM327.36,512.61c-.7,6.35-6.07,23.62-15.63,15.16,9.31-10.54,6.14-30.81,2.87-43.08-1.89-7.08-4.66-13.81-9.26-19.57-4.39-5.48-5.89-6.14-11.77-8.19-1.5-.51-6.48.64-4.43-4.54,3.03-7.67,16.55-1.12,20.81,3.13,6.91,6.91,11.32,16.61,14,25.88,2.91,10,4.55,20.79,3.41,31.21h0s0,0,0,0ZM391.32,501.07c5.96-15.49-5.75-35-15.87-46.05-11.52-12.55-28.54-26.28-46.11-23.09-4.74.86-8.67,5.77-9.3,3.5-2.69-9.54,3.53-11.24,5.42-11.94,8.02-2.89,16.09-.5,23.65,1.98,16.03,5.24,30.65,16.87,40.58,30.39,5.62,7.66,9.94,16.39,11.78,25.76,1.15,5.87,1.16,24.59-10.13,19.45ZM401.87,468.1c1.25-3,6.46-6.72,8.6-9.13,2.2-2.48,4.27-5.05,6.31-7.65.14.19,1.99-2.57,1.99-2.57,2.38-3.12,4.72-6.27,7.1-9.4,1.38,1.81,5.38,6.72,5.18,9.16-.19,2.29-3.74,5.53-6.33,7.87,0,0-14.41,14.48-21.08,19.55-.97-2.56-2.77-5.4-1.75-7.84h0s0,0,0,0ZM405.67,485.06c-1.63-2.74-1.93-6.46-.02-8.73,2.66-3.17,6.65-5.77,9.68-8.64,2.66-2.51,8.54-8.01,8.75-8.26.49-.46,1.37-2.11,1.37-2.11,2.19-2.34,4.39-4.68,6.65-6.95,1.27,2.62,3.13,7.22,2.38,10.28-.35,1.45-1.59,2.91-3.09,4.29,0,0-4.75,3.86-5.43,4.45-6.41,5.57-13.1,11.15-20.29,15.67h0ZM431.65,471.81c-.36,5.97-6.21,13.69-13.64,12.18l12.82-13.33c.27.39.56.76.82,1.15h0ZM417.73,487.19c3.78,3.11,8.14-5.3,11.53-6.13-.9,3.53-1.32,7.02-4.23,9.15-2.25,1.63-5.2,4.28-7.88,4.86-.06-2.62-.3-5.13.58-7.87h0ZM417.31,497.24c2.99-1.85,5.9-3.66,9.07-5.62-.21,3.16-1.19,6.57-2.09,9.63-.94,3.17-2.34,4.11-5.01,5.98-1.09-3.36-1.76-6.62-1.97-9.98h0ZM421.82,514.17c-1.16-1.73-1.34-3.37-2.15-5.05,1.06-.79,1.99-1.47,3.33-2.46-.42,2.68-.76,4.86-1.18,7.5h0ZM423.7,515.4c.33-2.31.61-4.26.93-6.46,2.15,2.6,2.58,2.8-.93,6.46ZM425.72,506c1.05,1.1,1.91,2.28,1.91,3.9-1.18-1.05-1.88-2.32-1.91-3.9ZM429.17,508c-3.41-4.99-2.89-7.51-1.48-13.16,1.16,2.18,2.12,4.49,2.91,6.83,1.03,3,.42,3.73-1.43,6.32ZM432.75,502.53c-1.27-3.03-2.95-6.18-3.71-9.38-.72-3.02.42-5.88,1.13-8.86.19-.04.4-.08.59-.13,2.14,3.82,4.26,7.63,6.37,11.46-1.09,2.25-2.56,4.47-4.39,6.9ZM437.81,493.61c-1.45-2.12-4.05-6.35-5.11-10.93-.81-3.5-.92-7.13-.28-9.79,3.58,4.94,6.64,9.19,9.02,12.51-.17,2.65-2.26,6.75-3.63,8.22h0ZM443.19,482.86c-3.6-5.01-9.23-10.55-9.51-13.45.03-1.13,3.35.61,3.38.28,1.61-.08,3.06.25,4.85-.12,1.66.03,3.81-1.52,4.83-2.48,2.97-5.15,2.32-3.66,4.73-9.23.14.36.34.98.4,1.76.27,3.76-1.86,5.86-4.02,10.47-2.4,5.13-4.22,11.96-3.59,12.33.66.38,2.11-6.86,4.49-11.26,1.96-3.63,2.98-6.94,3.53-9.23.04.26.09.6.14,1.01,0,0,.05.41.09.83.07.68.33,6.08.09,8.3-.39,3.46-3.05,8.55-7.56,13.56-.61-.72-1.24-1.68-1.85-2.76h0ZM446.5,487.35c-.07-1.45,2.43-4.53,3.15-5.79,1.44-2.5,2.87-4.99,4.31-7.48.75,3.85,1.44,7.72,2.18,11.59.93,4.86.13,7.01-2.2,11.44-2.28-2.31-7.27-6.38-7.45-9.74h0s0-.01,0-.01ZM455.44,498.54c.74-1.57,1.45-3.08,2.16-4.6.13.03.26.05.39.07.85,2.89,1.68,5.79,2.52,8.67-1.89-1.13-3.46-2.53-5.07-4.16h0ZM464.12,504.25c-1.24-1.02-2.59-4.69-2.86-7.64,1.27.78,2.34,1.42,3.61,2.19-.23,1.73-.49,3.53-.75,5.45h0ZM465.45,496.41c-3.47-.47-5.23-2.37-6.03-5.55.14-.06.28-.12.43-.19,2.07,1.66,4.11,3.34,5.83,5.37l-.22.38h0s0,0,0,0ZM466.04,493.3c-2.41-1.71-5.74-3.71-7.33-6.23-1.61-2.55-1.72-7.43-2.3-10.35.13-.04.25-.09.38-.14,2.77,2.89,5.7,5.71,8.34,8.72,2.44,2.78,1.58,4.38.92,7.98h0ZM464.33,456.95c2.57,1.69,5.24,9.25,4.38,12.13-.62.4-1.25.81-1.87,1.21,1.11,2.16,2.04,1.14,2.08,4.03.04,3.3-.82,6.88-1.19,10.17-3.71-2.23-8.79-7.73-11.17-11.37-2.04-3.12-3-9.51-2.61-13.23.16-.13.34-.25.51-.37.81,1.9,10.36,13.28,11.86,10.68-4.45-5.22-10.11-9.5-13.5-15.66.09-.14.17-.27.26-.4,2.18.62,4.26,1.48,6.49,1.9,1.57.3,3.43.01,4.79.91h0s0,0,0,0ZM462.02,454.22c-1.75.35-11.22-1.44-10.11-4.28,4-.14,7.3,1.17,10.11,4.28ZM466.59,444.41c-4.52,3.37-15.13,6.91-18.51.6-1.87-3.49-2.88-7.43-4.88-10.94-2.04-3.59-4.43-6.95-6.78-10.35,7.04-2.42,8.24-4.28,8.29-12.74,1.5.33,3.78.61,6.32-.05,1.25-.32,2.6-.42,4.33-1.92,3.2-2.78,3.5-3.77,7.26-3.73,1.4.02,3.45.1,6.17,2.23.82.63,9.16,7.3,8.73,18.55-.45,11.85-10.22,17.92-10.93,18.35Z" fill="url(#radial-gradient-52)" stroke-width="0"/>
      </g>
    </g>
  </g>
  <g id="trust_banner" data-name="trust banner">
    <path d="M405.05,669.6c-14.7,1.2-18.88,2.24-30.56-15.22-4.93-7.37,12.27-38.7,16.61-38.22" fill="#e6e6e6" stroke="#58595b" stroke-miterlimit="10" stroke-width=".97"/>
    <path d="M386.33,668.35c-3.44-2.43-13.82-14.46-13.24-16.79,1.25-5.01,20.23-5,21.23-1.58.63,2.16-5.43,4.6-7.18,8.52-1.68,3.76-2.2,7.75-.81,9.85,1.16,1.75,19.58,5.13,47.23-6.79l-25.68-23.77,23.04-30.17-40.32,8.49" fill="#ebebeb" stroke="#58595b" stroke-linecap="round" stroke-miterlimit="10" stroke-width=".97"/>
    <path d="M371.35,651.02c1.31,1.07,4.14,5.28,7.45,9.51,3.32,4.24,9.36,9,8.18,8.27-6.98-4.29,16.4-5.51,13.29-16.74-3.42-12.39-30.36-2.21-28.92-1.04Z" fill="#999" stroke="#58595b" stroke-linecap="round" stroke-miterlimit="10" stroke-width=".97"/>
    <path d="M261.29,651.33c-1.4,1.05-4.43,5.2-7.97,9.36-3.55,4.17-10.02,8.85-8.76,8.14,7.48-4.22-17.55-5.42-14.23-16.47,3.67-12.19,32.5-2.18,30.96-1.03Z" fill="#999" stroke="#58595b" stroke-linecap="round" stroke-miterlimit="10" stroke-width=".99"/>
    <path d="M225.21,669.61c15.73,1.18,20.21,2.21,32.71-14.98,5.28-7.26-13.13-38.08-17.78-37.61" fill="#e6e6e6" stroke="#58595b" stroke-miterlimit="10" stroke-width=".99"/>
    <path d="M245.25,668.38c3.69-2.39,14.79-14.23,14.17-16.52-1.34-4.93-21.65-4.92-22.73-1.55-.68,2.13,5.81,4.52,7.68,8.39,1.79,3.7,2.36,7.63.87,9.69-1.24,1.72-20.96,5.04-50.56-6.68l27.49-23.39-24.66-29.69,43.16,8.36" fill="#ebebeb" stroke="#58595b" stroke-linecap="round" stroke-miterlimit="10" stroke-width=".99"/>
    <path d="M265.21,646.84c-1.77,1.29-5.68,6.56-10.22,11.81-4.55,5.26-12.72,11.03-11.14,10.17,9.39-5.11-21.38-8.07-16.8-22.36,5.04-15.76,40.11-1.04,38.16.38Z" fill="#999" stroke="#58595b" stroke-linecap="round" stroke-miterlimit="10" stroke-width="1.26"/>
    <path d="M385.59,607.92c-1.11-3.21-4.63-4.92-7.82-3.77-19.22,6.89-40.7,9.6-62.24,9.6s-43.38-3.05-62.65-9.97c-3.37-1.21-7.09.37-8.6,3.62-4.98,11.43-11.35,25.42-16.48,37.21-.19.43-1.19,3.51-1.08,3.06,1.47-5.65,9.3-1.87,12.52-.73,41.85,14.72-1.03-.4,5.96,2.13,15.1,5.45,31.09,11.01,70.83,11.01,28.81,0,45.7-1.9,71.16-11.07.88-.32,4.12-1.44,5.02-1.7,5.09-1.43,8.05,2.61,8.09,3.07l-14.71-42.45Z" fill="#fff" stroke="#58595b" stroke-miterlimit="10"/>
    <text transform="translate(260.47 642.29) rotate(11.42)" fill="#231f20" font-family="NotoSansCondensed-ExtraBold, &apos;Noto Sans Condensed&apos;" font-size="37.68" font-weight="700"><tspan x="0" y="0">T</tspan></text>
    <text transform="translate(280.17 646.19) rotate(5.3)" fill="#231f20" font-family="NotoSansCondensed-ExtraBold, &apos;Noto Sans Condensed&apos;" font-size="37.68" font-weight="700"><tspan x="0" y="0">R</tspan></text>
    <text transform="translate(303.09 648.28) rotate(-.2)" fill="#231f20" font-family="NotoSansCondensed-ExtraBold, &apos;Noto Sans Condensed&apos;" font-size="37.68" font-weight="700"><tspan x="0" y="0">U</tspan></text>
    <text transform="translate(328.28 648.02) rotate(-5.44)" fill="#231f20" font-family="NotoSansCondensed-ExtraBold, &apos;Noto Sans Condensed&apos;" font-size="37.68" font-weight="700"><tspan x="0" y="0">S</tspan></text>
    <text transform="translate(348.03 646.12) rotate(-11.44)" fill="#231f20" font-family="NotoSansCondensed-ExtraBold, &apos;Noto Sans Condensed&apos;" font-size="37.68" font-weight="700"><tspan x="0" y="0">T</tspan></text>
  </g>
  <g id="in_devs_we_banner" data-name="in devs we banner">
    <path d="M230.12,271.47c12.53-8.79,16.57-10.75,14.1-32.14-1.05-9.03-36.38-19.69-39.52-16.43" fill="#e6e6e6" stroke="#58595b" stroke-miterlimit="10"/>
    <path d="M244.09,258.22c1.11-4.18,1.38-20.59-.65-22.03-4.38-3.09-19.51,9.48-18,12.83.95,2.11,7.43,0,11.48,1.91,3.88,1.83,7.1,4.6,7.3,7.17.17,2.28-12.16,16.98-42.25,25.96l4.43-35.61-38.74-8.35,37.89-20.06" fill="#ebebeb" stroke="#58595b" stroke-linecap="round" stroke-miterlimit="10"/>
    <path d="M243.96,258.11c-1.4-1.05-2.98-4.64-8.09-6.91-5.12-2.28-9.18-.33-9.86-1.58-1.23-2.26,14.56-18.65,17.99-12.43,2.05,3.72,1.5,22.07-.05,20.92Z" fill="#999" stroke="#58595b" stroke-linecap="round" stroke-miterlimit="10"/>
    <path d="M403.63,273.78c-11.99-8.58-15.86-10.49-13.49-31.36,1-8.81,34.37-21.61,37.37-18.44" fill="#e6e6e6" stroke="#58595b" stroke-miterlimit="10" stroke-width=".97"/>
    <path d="M390.26,260.86c-1.06-4.08-1.32-20.08.62-21.49,4.19-3.02,18.67,9.25,17.23,12.51-.91,2.06-7.12,0-10.99,1.87-3.71,1.79-6.8,4.48-6.98,6.99-.16,2.23,11.63,16.56,40.44,25.33l-4.24-34.74,37.07-8.14-36.26-19.57" fill="#ebebeb" stroke="#58595b" stroke-linecap="round" stroke-miterlimit="10" stroke-width=".97"/>
    <path d="M390.39,260.74c1.34-1.02,2.85-4.53,7.74-6.74,4.9-2.22,8.78-.32,9.43-1.54,1.18-2.21-13.93-18.19-17.22-12.13-1.97,3.63-1.43,21.53.04,20.41Z" fill="#999" stroke="#58595b" stroke-linecap="round" stroke-miterlimit="10" stroke-width=".97"/>
    <path d="M408.92,250.59c-.18.95-1.08,1.68-2.02,1.46-.31-.07-.6-.22-.85-.46-28.12-27.02-74.55-33.77-91.13-34.2-16.84-.44-54.23,7.73-84.85,31.23-2.14,1.64-4.89,2.35-5.28-.32-.14-.98-.74-3.93-1.02-4.96-3.42-12.54-10.93-16.18-14.91-17.79-.62-.25-3.71-2.82-4.04-3.39-3.65-6.26-1.43-11.53.79-13.09,20.76-14.63,29.6-18.09,38.47-21.62,20.82-8.28,46.32-14.42,70-14.42s50.55,6.06,71.19,14.81c19.48,8.27,23.06,10.21,36.6,20.49,6.52,4.96,8.6,6.75,8.58,9.39-.01,1.57-.52,4.49-2.93,6.26-3.55,2.61-6.55,1.83-10.86,6.85-5.93,6.92-6.85,15.02-7.73,19.76Z" fill="#fff" stroke="#58595b" stroke-miterlimit="10" stroke-width="1.04"/>
    <text transform="translate(214.28 261.47) rotate(-58.69)" fill="#231f20" font-family="NotoSansExtraCondensed-ExtraBold, &apos;Noto Sans ExtraCondensed&apos;" font-size="37.67" font-weight="700"><tspan x="0" y="0"> </tspan></text>
    <text transform="translate(217.48 256.16) rotate(-54.14)" fill="#231f20" font-family="NotoSansExtraCondensed-ExtraBold, &apos;Noto Sans ExtraCondensed&apos;" font-size="37.67" font-weight="700"><tspan x="0" y="0"> </tspan></text>
    <text transform="translate(221.11 251.1) rotate(-49.69)" fill="#231f20" font-family="NotoSansExtraCondensed-ExtraBold, &apos;Noto Sans ExtraCondensed&apos;" font-size="37.67" font-weight="700"><tspan x="0" y="0"> </tspan></text>
    <text transform="translate(225.12 246.35) rotate(-45.41)" fill="#231f20" font-family="NotoSansExtraCondensed-ExtraBold, &apos;Noto Sans ExtraCondensed&apos;" font-size="37.67" font-weight="700"><tspan x="0" y="0"> </tspan></text>
    <text transform="translate(229.49 241.9) rotate(-41.3)" fill="#231f20" font-family="NotoSansExtraCondensed-ExtraBold, &apos;Noto Sans ExtraCondensed&apos;" font-size="37.67" font-weight="700"><tspan x="0" y="0"> </tspan></text>
    <text transform="translate(234.21 237.74) rotate(-37.37)" fill="#231f20" font-family="NotoSansExtraCondensed-ExtraBold, &apos;Noto Sans ExtraCondensed&apos;" font-size="37.67" font-weight="700"><tspan x="0" y="0"> </tspan></text>
    <text transform="translate(238.98 233.89) rotate(-32.02)" fill="#231f20" font-family="NotoSansExtraCondensed-ExtraBold, &apos;Noto Sans ExtraCondensed&apos;" font-size="37.67" font-weight="700"><tspan x="0" y="0">I</tspan></text>
    <text transform="translate(248.74 227.21) rotate(-23)" fill="#231f20" font-family="NotoSansExtraCondensed-ExtraBold, &apos;Noto Sans ExtraCondensed&apos;" font-size="37.67" font-weight="700"><tspan x="0" y="0">N</tspan></text>
    <text transform="translate(270.38 218.55) rotate(-16.34)" fill="#231f20" font-family="NotoSansExtraCondensed-ExtraBold, &apos;Noto Sans ExtraCondensed&apos;" font-size="37.67" font-weight="700"><tspan x="0" y="0"> </tspan></text>
    <text transform="translate(276.12 216.47) rotate(-10.78)" fill="#231f20" font-family="NotoSansExtraCondensed-ExtraBold, &apos;Noto Sans ExtraCondensed&apos;" font-size="37.67" font-weight="700"><tspan x="0" y="0">D</tspan></text>
    <text transform="translate(296.58 212.7) rotate(-3.86)" fill="#231f20" font-family="NotoSansExtraCondensed-ExtraBold, &apos;Noto Sans ExtraCondensed&apos;" font-size="37.67" font-weight="700"><tspan x="0" y="0">E</tspan></text>
    <text transform="translate(312.19 211.51) rotate(2.47)" fill="#231f20" font-family="NotoSansExtraCondensed-ExtraBold, &apos;Noto Sans ExtraCondensed&apos;" font-size="37.67" font-weight="700"><tspan x="0" y="0">V</tspan></text>
    <text transform="translate(331.64 212.4) rotate(8.81)" fill="#231f20" font-family="NotoSansExtraCondensed-ExtraBold, &apos;Noto Sans ExtraCondensed&apos;" font-size="37.67" font-weight="700"><tspan x="0" y="0">S</tspan></text>
    <text transform="translate(347.71 215.05) rotate(12.88)" fill="#231f20" font-family="NotoSansExtraCondensed-ExtraBold, &apos;Noto Sans ExtraCondensed&apos;" font-size="37.67" font-weight="700"><tspan x="0" y="0"> </tspan></text>
    <text transform="translate(353.74 215.7) rotate(19.48)" fill="#231f20" font-family="NotoSansExtraCondensed-ExtraBold, &apos;Noto Sans ExtraCondensed&apos;" font-size="37.67" font-weight="700"><tspan x="0" y="0">W</tspan></text>
    <text transform="translate(380.78 225.71) rotate(28.5)" fill="#231f20" font-family="NotoSansExtraCondensed-ExtraBold, &apos;Noto Sans ExtraCondensed&apos;" font-size="37.67" font-weight="700"><tspan x="0" y="0">E</tspan></text>
  </g>
  <text transform="translate(405.82 58.95)" fill="#000" font-family="NotoSansCondensed-Bold, &apos;Noto Sans Condensed&apos;" font-size="20" font-weight="700"><tspan x="0" y="0"></tspan></text>
  <text transform="translate(65.52 260.19) rotate(-40.89)" fill="#000" font-family="NotoSansExtraCondensed-ExtraBold, &apos;Noto Sans ExtraCondensed&apos;" font-size="109.26" font-weight="700"><tspan x="0" y="0">C</tspan></text>
  <text transform="translate(102.13 227.37) rotate(-32.81)" fill="#000" font-family="NotoSansExtraCondensed-ExtraBold, &apos;Noto Sans ExtraCondensed&apos;" font-size="109.26" font-weight="700"><tspan x="0" y="0">O</tspan></text>
  <text transform="translate(155.44 193.07) rotate(-23.44)" fill="#000" font-family="NotoSansExtraCondensed-ExtraBold, &apos;Noto Sans ExtraCondensed&apos;" font-size="109.26" font-weight="700"><tspan x="0" y="0">R</tspan></text>
  <text transform="translate(205.16 170.58) rotate(-13.23)" fill="#000" font-family="NotoSansExtraCondensed-ExtraBold, &apos;Noto Sans ExtraCondensed&apos;" font-size="109.26" font-weight="700"><tspan x="0" y="0">N</tspan></text>
  <text transform="translate(269.82 155.37) rotate(-2.28)" fill="#000" font-family="NotoSansExtraCondensed-ExtraBold, &apos;Noto Sans ExtraCondensed&apos;" font-size="109.26" font-weight="700"><tspan x="0" y="0">U</tspan></text>
  <text transform="translate(329.59 153.12) rotate(7.36)" fill="#000" font-family="NotoSansExtraCondensed-ExtraBold, &apos;Noto Sans ExtraCondensed&apos;" font-size="109.26" font-weight="700"><tspan x="0" y="0">C</tspan></text>
  <text transform="translate(378.1 158.49) rotate(16.64)" fill="#000" font-family="NotoSansExtraCondensed-ExtraBold, &apos;Noto Sans ExtraCondensed&apos;" font-size="109.26" font-weight="700"><tspan x="0" y="0">O</tspan></text>
  <text transform="translate(438.77 176.9) rotate(25.92)" fill="#000" font-family="NotoSansExtraCondensed-ExtraBold, &apos;Noto Sans ExtraCondensed&apos;" font-size="109.26" font-weight="700"><tspan x="0" y="0">P</tspan></text>
  <text transform="translate(486.26 200.45) rotate(32.56)" fill="#000" font-family="NotoSansExtraCondensed-ExtraBold, &apos;Noto Sans ExtraCondensed&apos;" font-size="109.26" font-weight="700"><tspan x="0" y="0">I</tspan></text>
  <text transform="translate(516.2 218.69) rotate(39.11)" fill="#000" font-family="NotoSansExtraCondensed-ExtraBold, &apos;Noto Sans ExtraCondensed&apos;" font-size="109.26" font-weight="700"><tspan x="0" y="0">A</tspan></text>
  <text transform="translate(217.58 53.99)" fill="#000" font-family="NotoSansCondensed-Bold, &apos;Noto Sans Condensed&apos;" font-size="63" font-weight="700"><tspan x="0" y="0" letter-spacing="0em">O</tspan><tspan x="40.95" y="0" letter-spacing="-.01em">W</tspan><tspan x="92.48" y="0">ASP</tspan></text>
</svg>