<?xml version="1.0" encoding="UTF-8"?>
<svg xmlns="http://www.w3.org/2000/svg" xmlns:xlink="http://www.w3.org/1999/xlink" viewBox="0 0 928.34 642.4">
  <defs>
    <linearGradient id="linear-gradient" x1="228.54" y1="-3.93" x2="228.54" y2="288.95" gradientTransform="translate(92.33 487.75) rotate(1.62) scale(1 -1)" gradientUnits="userSpaceOnUse">
      <stop offset="0" stop-color="#df5c8d"/>
      <stop offset="1" stop-color="#f2c220"/>
    </linearGradient>
    <linearGradient id="linear-gradient-2" x1="389.93" y1="25.77" x2="389.93" y2="324.1" gradientTransform="translate(92.33 487.75) rotate(1.62) scale(1 -1)" gradientUnits="userSpaceOnUse">
      <stop offset="0" stop-color="#5facd3"/>
      <stop offset="1" stop-color="#4fb991"/>
    </linearGradient>
    <radialGradient id="radial-gradient" cx="-2863.89" cy="-428.11" fx="-2816.27" fy="-644.3" r="782.13" gradientTransform="translate(995.83 393.13) rotate(1.67) scale(.19 .11) skewX(-.01)" gradientUnits="userSpaceOnUse">
      <stop offset=".06" stop-color="#b9babe"/>
      <stop offset=".74" stop-color="#97999c"/>
      <stop offset=".83" stop-color="#95979a"/>
      <stop offset=".88" stop-color="#8d8f91"/>
      <stop offset=".93" stop-color="#808283"/>
      <stop offset=".97" stop-color="#6d6e70"/>
      <stop offset="1" stop-color="#555657"/>
    </radialGradient>
    <radialGradient id="radial-gradient-2" cx="-2764.76" cy="-174.5" fx="-2764.76" fy="-174.5" r="19.74" gradientTransform="translate(997.5 336.78) rotate(1.67) scale(.19) skewX(-.02)" gradientUnits="userSpaceOnUse">
      <stop offset=".03" stop-color="#6da5c1"/>
      <stop offset=".28" stop-color="#6da5c1"/>
      <stop offset=".36" stop-color="#73adcb"/>
      <stop offset=".49" stop-color="#7dbbda"/>
      <stop offset=".66" stop-color="#80c0e1"/>
      <stop offset=".96" stop-color="#81c3e4"/>
    </radialGradient>
    <radialGradient id="radial-gradient-3" cx="-1286.79" cy="-742.91" fx="-1286.79" fy="-742.91" r="276.83" gradientTransform="translate(858.09 388.88) rotate(-41.82) scale(.19 .37) skewX(.8)" gradientUnits="userSpaceOnUse">
      <stop offset="0" stop-color="#cbb482"/>
      <stop offset=".12" stop-color="#c6ad79"/>
      <stop offset=".31" stop-color="#bb9d5f"/>
      <stop offset=".55" stop-color="#a98637"/>
      <stop offset=".83" stop-color="#8f6828"/>
      <stop offset=".83" stop-color="#8f6828"/>
    </radialGradient>
    <radialGradient id="radial-gradient-4" cx="-3487.97" cy="39.01" fx="-3487.97" fy="39.01" r="72.27" gradientTransform="translate(997.5 336.78) rotate(1.67) scale(.19) skewX(-.02)" xlink:href="#radial-gradient-3"/>
    <radialGradient id="radial-gradient-5" cx="-3466.2" cy="-125.05" fx="-3466.2" fy="-125.05" r="60.37" gradientTransform="translate(997.5 336.78) rotate(1.67) scale(.19) skewX(-.02)" xlink:href="#radial-gradient-3"/>
    <radialGradient id="radial-gradient-6" cx="-2146.08" cy="-388.31" fx="-2146.08" fy="-388.31" r="116.7" gradientTransform="translate(997.5 336.78) rotate(1.67) scale(.19) skewX(-.02)" gradientUnits="userSpaceOnUse">
      <stop offset=".38" stop-color="#7eaa72"/>
      <stop offset=".77" stop-color="#8bbe7f"/>
      <stop offset=".93" stop-color="#7ba870"/>
    </radialGradient>
    <radialGradient id="radial-gradient-7" cx="-3998.58" cy="2499.01" fx="-3998.58" fy="2499.01" r="117.62" gradientTransform="translate(878.94 643.42) rotate(1.67) scale(.19 -.19) skewX(.02)" xlink:href="#radial-gradient-6"/>
    <radialGradient id="radial-gradient-8" cx="-3637.74" cy="3217.42" fx="-3637.74" fy="3217.42" r="157.47" gradientTransform="translate(878.94 643.42) rotate(1.67) scale(.19 -.19) skewX(.02)" xlink:href="#radial-gradient-6"/>
    <radialGradient id="radial-gradient-9" cx="-2360.81" cy="-259.67" fx="-2360.81" fy="-375.49" r="117.2" gradientTransform="translate(997.5 336.78) rotate(1.67) scale(.19) skewX(-.02)" gradientUnits="userSpaceOnUse">
      <stop offset="0" stop-color="#cdb859"/>
      <stop offset=".11" stop-color="#c9b457"/>
      <stop offset=".17" stop-color="#c4b155"/>
      <stop offset=".21" stop-color="#d1bd5a"/>
      <stop offset=".28" stop-color="#e5cf64"/>
      <stop offset=".36" stop-color="#f3dc6b"/>
      <stop offset=".46" stop-color="#fbe36d"/>
      <stop offset=".63" stop-color="#fde56f"/>
      <stop offset=".86" stop-color="#f3dc6b"/>
      <stop offset="1" stop-color="#ead466"/>
      <stop offset="1" stop-color="#ecd667"/>
    </radialGradient>
    <radialGradient id="radial-gradient-10" cx="-2490.46" cy="188.9" fx="-2490.46" fy="188.9" r="212.11" gradientTransform="translate(997.5 336.78) rotate(1.67) scale(.19) skewX(-.02)" gradientUnits="userSpaceOnUse">
      <stop offset=".06" stop-color="#b9babe"/>
      <stop offset=".72" stop-color="#97999c"/>
      <stop offset=".93" stop-color="#848689"/>
    </radialGradient>
    <radialGradient id="radial-gradient-11" cx="-1990.03" cy="-10.96" fx="-1990.03" fy="109.97" r="122.3" gradientTransform="translate(997.5 336.78) rotate(1.67) scale(.19) skewX(-.02)" gradientUnits="userSpaceOnUse">
      <stop offset=".13" stop-color="#1164a1"/>
      <stop offset=".47" stop-color="#084c7d"/>
      <stop offset=".67" stop-color="#0f3f65"/>
      <stop offset=".99" stop-color="#0e3b5e"/>
    </radialGradient>
    <radialGradient id="radial-gradient-12" cx="-4339.44" cy="3276.99" fx="-4339.44" fy="3276.99" r="168.28" gradientTransform="translate(878.94 643.42) rotate(1.67) scale(.19 -.19) skewX(.02)" xlink:href="#radial-gradient-10"/>
    <radialGradient id="radial-gradient-13" cx="-4640.99" cy="3314.64" fx="-4640.99" fy="3314.64" r="145.7" gradientTransform="translate(878.94 643.42) rotate(1.67) scale(.19 -.19) skewX(.02)" xlink:href="#radial-gradient-10"/>
    <radialGradient id="radial-gradient-14" cx="-4949.67" cy="3198.39" fx="-4949.67" fy="3198.39" r="116.55" gradientTransform="translate(878.94 643.42) rotate(1.67) scale(.19 -.19) skewX(.02)" xlink:href="#radial-gradient-10"/>
    <radialGradient id="radial-gradient-15" cx="-2544.58" cy="-339.27" fx="-2544.58" fy="-308.87" r="67.21" gradientTransform="translate(997.5 336.78) rotate(1.67) scale(.19) skewX(-.02)" gradientUnits="userSpaceOnUse">
      <stop offset=".07" stop-color="#cdb859"/>
      <stop offset=".15" stop-color="#c9b457"/>
      <stop offset=".19" stop-color="#c4b155"/>
      <stop offset=".21" stop-color="#d1bd5a"/>
      <stop offset=".25" stop-color="#e5cf64"/>
      <stop offset=".29" stop-color="#f3dc6b"/>
      <stop offset=".34" stop-color="#fbe36d"/>
      <stop offset=".43" stop-color="#fde56f"/>
      <stop offset=".78" stop-color="#f3dc6b"/>
      <stop offset="1" stop-color="#ead466"/>
      <stop offset="1" stop-color="#ecd667"/>
    </radialGradient>
    <radialGradient id="radial-gradient-16" cx="-5066.6" cy="3045.64" fx="-5066.6" fy="3045.64" r="85.83" gradientTransform="translate(878.94 643.42) rotate(1.67) scale(.19 -.19) skewX(.02)" xlink:href="#radial-gradient-10"/>
    <radialGradient id="radial-gradient-17" cx="-2173.28" cy="-232.04" fx="-2173.28" fy="-232.04" r="40.18" gradientTransform="translate(997.5 336.78) rotate(1.67) scale(.19) skewX(-.02)" gradientUnits="userSpaceOnUse">
      <stop offset=".06" stop-color="#7a749f"/>
      <stop offset=".18" stop-color="#7b77a3"/>
      <stop offset=".19" stop-color="#7c78a4"/>
      <stop offset=".27" stop-color="#827eac"/>
      <stop offset=".43" stop-color="#8580ae"/>
      <stop offset=".79" stop-color="#8c86b7"/>
      <stop offset=".99" stop-color="#938dc0"/>
      <stop offset=".99" stop-color="#78749e"/>
    </radialGradient>
    <radialGradient id="radial-gradient-18" cx="-2697.91" cy="-111.81" fx="-2697.91" fy="-111.81" r="40.06" gradientTransform="translate(997.5 336.78) rotate(1.67) scale(.19) skewX(-.02)" gradientUnits="userSpaceOnUse">
      <stop offset=".03" stop-color="#81c4e5"/>
      <stop offset=".25" stop-color="#81c6e8"/>
      <stop offset=".28" stop-color="#83c8e9"/>
      <stop offset=".4" stop-color="#89cef1"/>
      <stop offset=".6" stop-color="#8fd4f5"/>
      <stop offset=".96" stop-color="#93d6f6"/>
    </radialGradient>
    <radialGradient id="radial-gradient-19" cx="-4200.85" cy="2782.24" fx="-4200.85" fy="2782.24" r="40.4" gradientTransform="translate(878.94 643.42) rotate(1.67) scale(.19 -.19) skewX(.02)" xlink:href="#radial-gradient-2"/>
    <radialGradient id="radial-gradient-20" cx="-4354.78" cy="2759.82" fx="-4354.78" fy="2759.82" r="39.89" gradientTransform="translate(878.94 643.42) rotate(1.67) scale(.19 -.19) skewX(.02)" xlink:href="#radial-gradient-18"/>
    <radialGradient id="radial-gradient-21" cx="-4274.53" cy="2724.56" fx="-4274.53" fy="2724.56" r="40.24" gradientTransform="translate(878.94 643.42) rotate(1.67) scale(.19 -.19) skewX(.02)" xlink:href="#radial-gradient-2"/>
    <radialGradient id="radial-gradient-22" cx="-4357.82" cy="2845.62" fx="-4357.82" fy="2845.62" r="40.8" gradientTransform="translate(878.94 643.42) rotate(1.67) scale(.19 -.19) skewX(.02)" xlink:href="#radial-gradient-18"/>
    <radialGradient id="radial-gradient-23" cx="-4276.75" cy="2803.83" fx="-4276.75" fy="2803.83" r="41.18" gradientTransform="translate(878.94 643.42) rotate(1.67) scale(.19 -.19) skewX(.02)" xlink:href="#radial-gradient-2"/>
    <radialGradient id="radial-gradient-24" cx="-3705.91" cy="2781.9" fx="-3705.91" fy="2781.9" r="39.85" gradientTransform="translate(878.94 643.42) rotate(1.67) scale(.19 -.19) skewX(.02)" xlink:href="#radial-gradient-17"/>
    <radialGradient id="radial-gradient-25" cx="-3621.18" cy="2799.71" fx="-3621.18" fy="2799.71" r="39.66" gradientTransform="translate(878.94 643.42) rotate(1.67) scale(.19 -.19) skewX(.02)" xlink:href="#radial-gradient-17"/>
    <radialGradient id="radial-gradient-26" cx="-3666.97" cy="2710.57" fx="-3666.97" fy="2710.57" r="40.5" gradientTransform="translate(878.94 643.42) rotate(1.67) scale(.19 -.19) skewX(.02)" xlink:href="#radial-gradient-17"/>
    <radialGradient id="radial-gradient-27" cx="-4269.48" cy="2737.56" fx="-4269.48" fy="2737.56" r="39.51" gradientTransform="translate(878.94 643.42) rotate(1.67) scale(.19 -.19) skewX(.02)" xlink:href="#radial-gradient-18"/>
    <radialGradient id="radial-gradient-28" cx="-4192.17" cy="2701.92" fx="-4192.17" fy="2701.92" r="39.91" gradientTransform="translate(878.94 643.42) rotate(1.67) scale(.19 -.19) skewX(.02)" xlink:href="#radial-gradient-2"/>
    <radialGradient id="radial-gradient-29" cx="-4364.75" cy="2926.39" fx="-4364.75" fy="2926.39" r="37.99" gradientTransform="translate(878.94 643.42) rotate(1.67) scale(.19 -.19) skewX(.02)" xlink:href="#radial-gradient-18"/>
    <radialGradient id="radial-gradient-30" cx="-4283.01" cy="2875.38" fx="-4283.01" fy="2875.38" r="38.36" gradientTransform="translate(878.94 643.42) rotate(1.67) scale(.19 -.19) skewX(.02)" xlink:href="#radial-gradient-2"/>
    <radialGradient id="radial-gradient-31" cx="-2210.68" cy="-162.19" fx="-2210.68" fy="-162.19" r="46.37" gradientTransform="translate(997.5 336.78) rotate(1.67) scale(.19) skewX(-.02)" gradientUnits="userSpaceOnUse">
      <stop offset="0" stop-color="#fde470"/>
      <stop offset="0" stop-color="#fde470"/>
      <stop offset=".63" stop-color="#fde56f"/>
      <stop offset=".99" stop-color="#fde571"/>
      <stop offset="1" stop-color="#c4b155"/>
      <stop offset="1" stop-color="#d2bd5a"/>
      <stop offset="1" stop-color="#deca62"/>
      <stop offset="1" stop-color="#e7d165"/>
      <stop offset="1" stop-color="#ead466"/>
    </radialGradient>
    <radialGradient id="radial-gradient-32" cx="-3688.86" cy="2866.36" fx="-3688.86" fy="2866.36" r="39.01" gradientTransform="translate(878.94 643.42) rotate(1.67) scale(.19 -.19) skewX(.02)" xlink:href="#radial-gradient-17"/>
    <radialGradient id="radial-gradient-33" cx="-3539.73" cy="2769.49" fx="-3539.73" fy="2769.49" r="36.58" gradientTransform="translate(878.94 643.42) rotate(1.67) scale(.19 -.19) skewX(.02)" xlink:href="#radial-gradient-17"/>
    <radialGradient id="radial-gradient-34" cx="-5073.75" cy="2881.47" fx="-5073.75" fy="2881.47" r="60.9" gradientTransform="translate(878.94 643.42) rotate(1.67) scale(.19 -.19) skewX(.02)" xlink:href="#radial-gradient-10"/>
    <radialGradient id="radial-gradient-35" cx="-4285.69" cy="2901.23" fx="-4285.69" fy="2901.23" r="38.82" gradientTransform="translate(878.94 643.42) rotate(1.67) scale(.19 -.19) skewX(.02)" xlink:href="#radial-gradient-18"/>
    <radialGradient id="radial-gradient-36" cx="-4207.94" cy="2851.42" fx="-4207.94" fy="2851.42" r="39.33" gradientTransform="translate(878.94 643.42) rotate(1.67) scale(.19 -.19) skewX(.02)" xlink:href="#radial-gradient-2"/>
    <radialGradient id="radial-gradient-37" cx="-4203.13" cy="2795.95" fx="-4203.13" fy="2795.95" r="36.58" gradientTransform="translate(878.94 643.42) rotate(1.67) scale(.19 -.19) skewX(.02)" xlink:href="#radial-gradient-18"/>
    <radialGradient id="radial-gradient-38" cx="-4104.13" cy="2755.96" fx="-4104.13" fy="2755.96" r="36.87" gradientTransform="translate(878.94 643.42) rotate(1.67) scale(.19 -.19) skewX(.02)" xlink:href="#radial-gradient-2"/>
    <radialGradient id="radial-gradient-39" cx="-3582.93" cy="2716.55" fx="-3582.93" fy="2716.55" r="43.13" gradientTransform="translate(878.94 643.42) rotate(1.67) scale(.19 -.19) skewX(.02)" xlink:href="#radial-gradient-17"/>
    <radialGradient id="radial-gradient-40" cx="-4215.84" cy="2871.46" fx="-4215.84" fy="2871.46" r="33.19" gradientTransform="translate(878.94 643.42) rotate(1.67) scale(.19 -.19) skewX(.02)" xlink:href="#radial-gradient-18"/>
    <radialGradient id="radial-gradient-41" cx="-4076.25" cy="2825.43" fx="-4076.25" fy="2825.43" r="33.46" gradientTransform="translate(878.94 643.42) rotate(1.67) scale(.19 -.19) skewX(.02)" xlink:href="#radial-gradient-2"/>
    <radialGradient id="radial-gradient-42" cx="-4315.23" cy="2987.82" fx="-4315.23" fy="2987.82" r="30.72" gradientTransform="translate(878.94 643.42) rotate(1.67) scale(.19 -.19) skewX(.02)" xlink:href="#radial-gradient-18"/>
    <radialGradient id="radial-gradient-43" cx="-4164.6" cy="2927.19" fx="-4164.6" fy="2927.19" r="30.74" gradientTransform="translate(878.94 643.42) rotate(1.67) scale(.19 -.19) skewX(.02)" xlink:href="#radial-gradient-2"/>
    <radialGradient id="radial-gradient-44" cx="-3748.43" cy="2835.61" fx="-3748.43" fy="2835.61" r="22.88" gradientTransform="translate(878.94 643.42) rotate(1.67) scale(.19 -.19) skewX(.02)" xlink:href="#radial-gradient-17"/>
    <radialGradient id="radial-gradient-45" cx="-4203.28" cy="2701.63" fx="-4203.28" fy="2701.63" r="28.4" gradientTransform="translate(878.94 643.42) rotate(1.67) scale(.19 -.19) skewX(.02)" xlink:href="#radial-gradient-18"/>
    <radialGradient id="radial-gradient-46" cx="-4093.07" cy="2658.52" fx="-4093.07" fy="2658.52" r="28.75" gradientTransform="translate(878.94 643.42) rotate(1.67) scale(.19 -.19) skewX(.02)" xlink:href="#radial-gradient-2"/>
    <radialGradient id="radial-gradient-47" cx="-4983.77" cy="2751.11" fx="-4983.77" fy="2751.11" r="26.99" gradientTransform="translate(878.94 643.42) rotate(1.67) scale(.19 -.19) skewX(.02)" xlink:href="#radial-gradient-10"/>
    <radialGradient id="radial-gradient-48" cx="-3614.98" cy="2746.01" fx="-3614.98" fy="2746.01" r="24.28" gradientTransform="translate(878.94 643.42) rotate(1.67) scale(.19 -.19) skewX(.02)" xlink:href="#radial-gradient-17"/>
    <radialGradient id="radial-gradient-49" cx="-3559.67" cy="2821.75" fx="-3559.67" fy="2821.75" r="25.84" gradientTransform="translate(878.94 643.42) rotate(1.67) scale(.19 -.19) skewX(.02)" xlink:href="#radial-gradient-17"/>
    <radialGradient id="radial-gradient-50" cx="-4303.47" cy="2776.46" fx="-4303.47" fy="2776.46" r="8.75" gradientTransform="translate(878.94 643.42) rotate(1.67) scale(.19 -.19) skewX(.02)" xlink:href="#radial-gradient-18"/>
    <radialGradient id="radial-gradient-51" cx="-2337.77" cy="2786.3" fx="-2337.77" fy="2786.3" r="544.53" gradientTransform="translate(1035.48 344.42) rotate(27.86) scale(.19 .07) skewX(-.12)" gradientUnits="userSpaceOnUse">
      <stop offset="0" stop-color="#b9babe"/>
      <stop offset=".32" stop-color="#818386"/>
      <stop offset=".58" stop-color="#5d5e60"/>
      <stop offset=".72" stop-color="#4f5152"/>
      <stop offset=".77" stop-color="#4a4b4c"/>
      <stop offset=".83" stop-color="#3a3b3c"/>
      <stop offset=".9" stop-color="#212223"/>
      <stop offset=".97" stop-color="#000"/>
    </radialGradient>
    <radialGradient id="radial-gradient-52" cx="-4250.63" cy="2863.97" fx="-4250.63" fy="2863.97" r="8.3" gradientTransform="translate(878.94 643.42) rotate(1.67) scale(.19 -.19) skewX(.02)" xlink:href="#radial-gradient-18"/>
    <radialGradient id="radial-gradient-53" cx="-2658.99" cy="793.36" fx="-2658.99" fy="793.36" r="5.79" gradientTransform="translate(997.5 336.78) rotate(1.67) scale(.19) skewX(-.02)" gradientUnits="userSpaceOnUse">
      <stop offset=".26" stop-color="#000"/>
      <stop offset=".42" stop-color="#050505"/>
      <stop offset=".5" stop-color="#0b0b0b"/>
      <stop offset=".95" stop-color="#000"/>
      <stop offset=".98" stop-color="#000"/>
    </radialGradient>
  </defs>
  <g id="mobile_logo" data-name="mobile logo">
    <g>
      <g id="Layer_3" data-name="Layer 3">
        <rect x="291.91" y="186.08" width="194.84" height="297.91" rx="25.21" ry="25.21" transform="translate(-79 124.12) rotate(-16.47)" fill="#fff" stroke="#000" stroke-linecap="round" stroke-miterlimit="10" stroke-width="4.45"/>
        <path d="M388.77,490.38l-26.06,7.7c-13.35,3.94-27.37-3.68-31.33-17.03l-70.14-237.35c-3.94-13.35,3.68-27.37,17.03-31.33l26.06-7.7" fill="url(#linear-gradient)" stroke="#000" stroke-linecap="round" stroke-miterlimit="10" stroke-width="4.45"/>
        <rect x="406.26" y="239.81" width="298.16" height="195.01" rx="25.21" ry="25.21" transform="translate(109.26 809.75) rotate(-77.92)" fill="#fff" stroke="#000" stroke-linecap="round" stroke-miterlimit="10" stroke-width="4.45"/>
        <path d="M479.47,472.92l-26.57-5.69c-13.61-2.91-22.29-16.31-19.38-29.93l51.8-242.01c2.91-13.61,16.31-22.29,29.93-19.38l26.57,5.69" fill="url(#linear-gradient-2)" stroke="#000" stroke-linecap="round" stroke-miterlimit="10" stroke-width="4.45"/>
      </g>
      <g id="logo">
        <g>
          <path d="M589.6,399.07c1.87-1.87,4.44-.32,6.04,1.78,1.59,2.1.84,4.93.09,7.45-.99,3.33-2.91,6.11-6.03,4.94-.86-1.05.21-2.44,1.4-3.12,1.26-.72,2.57.64,2.94.86.08.05.14.11.21.17.47.44.86.66,3.02,3.12,1.18,1.34,1.45,3.47,3.04,4.3,1.3.67,2.86.38,4.28.03,1.52-.38,3.1-.87,4.13-2.03.91-1.02,1.19-2.68.35-3.82-.66-.89-1.87,0-2.32.66-.52.76-.77,1.69-.92,2.58-.39,2.43-.69,4.92-.28,7.35.41,2.43,1.6,4.82,3.67,6.19M593.91,390.82c-.46,1.75-1.25,3.42-2.3,4.89-.32.45-.69.92-.73,1.47s.42,1.17.97,1.06M590.56,396.66c-1.99,1.69-3.59,3.83-4.68,6.2,1.76-2.44,3.53-4.88,5.3-7.32-.86,1.42-1.71,2.83-2.57,4.26.81-.74,1.38-1.74,1.62-2.81l.64-.29M591.39,397.89c.2-.96.4-1.93.61-2.89-.42,1.08-1.34,1.95-1.36,3.1M590.98,397.2l.19-.82M590.66,397.7c.54-2.28,1.26-4.53,2.14-6.7.37.38.02,1-.29,1.42-1.1,1.5-1.83,3.28-2.08,5.12M590.43,396.58c-1.81,2.51-3.39,5.18-4.69,7.99.56-1.85,1.65-3.56,3.11-4.84M593.66,390.27c-1.24,1.2-1.43,3.05-1.46,4.77-.03,1.67-1.2,2.98,1.97,4.73-.83-1.33-1.56-2.77-1.8-4.32s.04-3.23,1.02-4.47c-1.05,2.63-4.56,5.74-3.33,8.28,1.66-.08,2.17.75,2.33-.43.24-1.78.45-6.59,1.17-8.24M594.98,386.54c-1.18,1.85-2.16,3.85-2.61,6s-.31,4.45.66,6.41c-.69-2.56-.26-5.27.19-7.89.08-.5.18-1.02.5-1.42M594.8,386.98c-2.82,3.44-3.58,8.98-1.79,13.05-.39-.26-.4-1.3-.42-1.77-.1-2.51,1-5.14.92-7.45M590.31,397.84c-1.63.69-2.69,2.28-3.65,3.76-1.16,1.81-2.32,3.61-3.48,5.41.74-1.52,2.25-2.65,2.6-4.3M584.42,406.84c.86-.93,1.52-2.01,2.18-3.08.81-1.33,1.62-2.66,2.42-3.99M593.91,412.73c.81-.95,1.38-2.23,1.24-2.02.75-2.44.92-4.93.36-7.3-.2-.86-.55-1.73-1.2-2.35-.99-.95-2.48-1.14-3.85-1.29-.82-.08-1.93,1.06-2.65,1.94,2.48-2.31,7.78-2.87,8.37,2.69-1.03-1.9-3.48-6.56-5.31-5.57-1.3.7-2.91,1.43-3.84,2.56M592.63,389.47c-.2,1.39-.36,2.78-.28,4.18.14,2.3,1.89,5.34,3.28,7.2M596.19,386.09c-1.59,2.6-2.97,5.33-4.11,8.16M593.62,390.61c1.53-2.9,2.89-5.89,4.07-8.94M593.66,391.07c.75-1.17,1.49-2.36,2.2-3.57-.09.17-.16.33-.25.51.27-.41.54-.82.81-1.24-1.17,1.32-2.17,2.78-2.95,4.34,1.08-1.66,2.14-3.33,3.16-5.03-1.45,2.34-2.97,4.64-4.55,6.9,1.75-2.71,3.41-5.47,4.99-8.27-2.23,2.64-3.97,5.69-5.12,8.94.94-3.23,2.59-6.25,4.79-8.8-1.79,2.38-3.24,5.02-4.26,7.82,1.42-2.89,2.86-5.81,4.99-8.22-.46.19-.76.63-1.03,1.05-1.74,2.67-3.28,5.47-4.61,8.37,2.25-3.45,3.11-7.77,5.91-10.81-2.36,3.74-4.43,7.67-6.17,11.73,1.32-2.77,2.63-5.54,3.95-8.31l-4.1,6.58M610.75,429.94h-.5M609.89,429.8c.36.19.81.18,1.15-.05-.61.33-1.43.23-1.94-.24.46.36,1.05.56,1.64.55M611.21,430.06l-1.87-.52c.29.31.76.44,1.16.32M611.3,429.77l1.02-.18M594.6,389.69c.87-.77,1.42-1.65,1.89-2.61.61-.55,1.25-1.11,2-1.48-.89.39-1.65,1.06-2.17,1.88.7-.84.78-2.22,1.48-3.06-.71.37-.66,1.52-.98,2.24l1.73-2.11M582.83,408.47c.44-.38.88-.77,1.32-1.15.17-.16.36-.31.45-.53.17-.41.06-1.03.48-1.2-.82.99-1.62,1.99-2.4,3.02M582.22,408.88c1.19-.93,2.25-2.02,3.13-3.24M595.46,389.02c-2.04,3.31-2.25,8.67-.7,12.03M592.85,393.38c.36,2.75,1.46,5.98,2.94,8.34M452.43,256.86c-1.41-1.88-1.35-4.2.28-6.48,2.89-3.47,6.28-6.3,10.29-8.39,4.01-2.09,8.49-2.47,12.67-1.24.15.04.29.09.44.14.09.02.17.06.23.12.06.07.08.16.08.26.09,1.09-.32,2.18-.98,3.06s-1.2,1.78-2.51,2.08c-1.3.75-2.76,1.28-4.26,1.31-1.47.04-2.94-.41-4.22-1.15-2.85-1.28-3.24-3.78-3.66-7.38-.04-1.56.73-2.42,1.76-3.15.97-.68,1.92-1.39,2.91-2.03.82-.54,1.69-1.03,2.63-1.33,1.03-.34,2.2-.41,3.22.03.86.36,1.67,1.09,1.05,2.05-.63.97-1.93,1.04-2.98,1.18-.87.11-1.75.19-2.62.15-1.73-.08-3.41-.66-4.47-2.09-.49-.66-.76-1.46-1.17-2.18-.5-.87-1.06-1.7-1.67-2.49-.82-1.05-1.8-2.07-3.14-2.42-1.88-.49-3.55.79-4.76,2.08-.8.85-1.39,1.89-2.17,2.75-.63.7-1.33,1.4-2.06,2.02-1.51,1.26-3.31,2.14-5.3,2.33M481.94,279.16c5.17-6.11,6.95-13.79,3.27-20.86-3.66-7.84-12.46-.36-18.76,1.77-3.14.68-5.52,2.16-8.98.72M482.63,275.53c.06,0,.06-.12,0-.1M482.39,276.44c2.61-3.88,4.06-8.52,4.13-13.18-.08,4.96-1.53,9.89-4.16,14.12-.47.76-1.1,1.57-2.01,1.64.7-1.55,1.76-2.94,3.09-4.02-1.63,1.05-3.25,2.1-4.89,3.14,2.22-.35,4.19-1.7,5.61-3.44,1.42-1.74,2.32-3.82,3.02-5.94l-1.66,3.96c1.34-3.34,2.69-6.96,1.85-10.45l-.11,4.71M483.49,272.98c-.52,2.19-2.17,4.06-4.29,4.86,1.49-.28,2.8-1.22,3.74-2.42s1.52-2.62,1.95-4.06c1.37-4.6,1.22-9.62-.4-14.15.98,2.29,1.51,4.76,1.52,7.25M484.76,258.81c.16-.75-.24-1.53-.77-2.09-1.07-1.12-2.68-1.61-4.23-1.62s-3.08.42-4.54.92M484.35,259.45c-.31-1.15-1.19-2.09-2.19-2.72s-2.16-.54-3.31-.9c-.45-.15-.91-.75-1.39-.77-1.46-.06-2.68,1.04-3.68,2.1M485.76,268.14c.97-1.79.62-4-.08-5.93-.32-.9-.72-1.8-1.32-2.55-.83-1.04-1.99-1.76-3.13-2.45-.69-.42-1.65-.65-2.44-.84-1-.25-1.82-.3-2.82-.05-1.85.45-3.63,1.2-5.24,2.22M487.79,268.24c.13-2.55-.08-5.18-1.14-7.51-1.05-2.33-3.06-4.33-5.56-4.92-1.13-.27-2.31-.23-3.46-.11-4.06.44-8.09,2.13-10.83,5.14,2.32-1.91,4.82-3.63,7.46-5.1.88-.5,1.94-.96,2.85-.53M485.38,268.31c-.54,2.04-1.39,3.99-2.5,5.77.28-.4.6-.77.95-1.09M477.35,276.48c1.26.6,2.76-.04,3.92-.82.79-.54,1.56-1.14,2.24-1.81.47-.46.96-1.12.72-1.72M477.57,275.82c.15.54.91.55,1.46.42,2.02-.48,3.92-1.46,5.48-2.83M477.79,275.6c.71.58,1.77.49,2.61.14s1.58-.94,2.42-1.31c.92-.41,2.02-.61,2.65-1.39M477.82,275.76c1.56.34,3.17-.27,4.52-1.12s2.53-1.93,3.94-2.69M478.01,275.67c.25.39.84.18,1.24-.06.74-.45,1.47-.9,2.2-1.35,1.43-.88,2.87-1.76,4.11-2.91M480.42,274.81c-.6.64-1.65.38-2.49.61-.75.21-1.33.83-2.08,1.09-.73.26-1.6.15-2.21.62-.26.19-.44.46-.62.74-.98,1.52-1.81,3.12-2.51,4.78M478.02,275.18c-.28.3-.77.2-1.19.2-.61,0-1.18.27-1.71.57-2.12,1.16-4.04,2.68-5.66,4.46M482.28,256.19c-1.38-1.34-3.53-1.83-5.35-1.22-.04-.19.26-.26.46-.23.84.16,1.65.45,2.38.88M481.19,255.88l-.25-.13M483.63,256.84c-.55-.98-1.59-1.61-2.67-1.92s-2.23-.32-3.36-.33c-.49,0-1,0-1.43.24,2.03-.53,4.13.37,6.04,1.25M462.84,260.58c1.08.56,4.12.23,4.74-1.01M460.74,261.53c1.04.18,2.1.35,3.13.21s2.09-.66,2.61-1.57M455.85,261.37c.31.17.69.2,1.04.21,2.75.1,5.52-.1,8.23-.57M463.83,261.84c-.02.23.29.34.5.26s.37-.26.56-.36c.2-.11.45-.13.66-.22.84-.31,1.23-1.53,2.13-1.51M465.49,261.3c.5.95,2.78-1.74,3.1-2.12M453.07,258.28c.82.32,1.13,1.3,1.75,1.92,1.26,1.25,3.4.81,5.03,1.53M456.15,260.57c1.17.84,3.5,1.5,4.94,1.61M451.89,251.13c-1.15,1.73-.34,1.11-.55,1.66-.42,1.15,0,2.41.46,3.55.37.91.77,1.82,1.21,2.7M456.27,247.13c.09-.17-.5.64-.7.63s-.37.13-.52.25c-.85.71-1.59,1.54-2.21,2.46M457.56,245.76c-1.77,1.33-4.03,3.03-5.3,4.88M460.79,244.29c-1.15.27-2.26.78-3.22,1.47-1.33.95-2.39,2.23-3.42,3.49M454.44,248.6c-1.46,1.82-2.29,4.12-2.37,6.44-.02.67.02,1.34.22,1.97.38,1.19,1.3,2.14,2.28,2.92,1.57,1.23,3.56,2.16,5.54,1.86M451.21,252.42c-.56,1.53-.22,3.27.55,4.72,1.47,2.78,4.51,4.68,7.67,4.8,1.37.05,2.72-.2,4.06-.45l2.66-.5M460.22,260.94c3.36.3,7.18-.84,9.95-2.69,1.63-1.09,4.4-4.1,6.57-3.45M481.71,256.47c-1.71-1.04-3.88-1.11-5.83-.63s-3.72,1.46-5.47,2.43l-5.34,2.96M484.74,258.57c.22-.3.18-.73,0-1.06s-.46-.59-.74-.83c-.97-.84-2-1.72-3.25-1.99-.43-.1-.85-.12-1.28-.2-.4-.08-.78-.21-1.17-.27-1.47-.22-2.92.52-4.11,1.43M475.61,255.98c-.73.87-1.95,1.12-3.06,1.41-2.09.52-4.12,1.28-6.02,2.26-.45.23-.89.48-1.26.83-.24.24-.44.52-.69.74-.46.4-1.12.55-1.71.42M454.23,260.02c.99.98,3.28,2.91,4.73,2.76,1.06-.12,4.2-.29,4.87-.58.19-.09.85-.46,1.06-.47.38.01,1.86-1.08,2.15-1.34.44-.4-2.61.83-2.42.27M460.41,261.03c1.16.59,2.5.28,3.66-.15M471.91,247.2c2.13-.76,4.06-2.02,5.6-3.66-.83,1.98-2.8,3.34-4.89,3.88s-4.3.37-6.43-.01c-1.03-.18-2.07-.43-3.02-.85-.56-.26-1.15-.66-1.19-1.28,3.39,1.9,7.5,2.49,11.3,1.62,1.23-.28,2.46-.73,3.37-1.6.9-.84,1.43-2.2.95-3.32-.23-.56-.69-1-1.2-1.33-1.02-.65-2.25-.88-3.44-.95-3.78-.24-7.56.89-10.86,2.75s-6.13,4.42-8.69,7.19M462.06,236.09c-1.7,1.59-1.88,3.56-1.26,6.99M460.36,260.97c2.17,0,4.34-.46,6.32-1.35.82-.37,1.61-.81,2.4-1.25,2.43-1.36,4.87-2.73,7.31-4.08M463.16,260.75c4.98-.6,9.7-2.7,13.32-6.16M460.13,244.48c-.21.24-.38-.27.02-.57.06-.05-.25.08-.23.15,1.16,1.12,1.64,1.64,2.63,2.15-.16-.09-.62-.63-.78-.73M467.01,232.34c-1.45.38-2.7,1.72-3.87,2.42-.56.34-1.11.69-1.54,1.19s-.77,1.28-1.05,2.1M472.61,233.11c-.24-.48-.5-.95-.98-1.03-.24-.04-.47-.03-.71-.02-2.45.13-4.86.88-6.96,2.14-.56.34-1.12.72-1.49,1.26M463.13,235.82c.71.59,1.61.95,2.53,1.03.41.03.67-.36,1.07-.4M466.06,236.76c1.42-.1,3.36-.32,4.7-.79.96-.34,2.01-.88,2.05-2.02.02-.59-.28-1.16-.75-1.53-.99-.79-2.28-.74-3.46-.5-2.55.52-4.92,1.84-6.69,3.74M463.02,261.62c-1.44-.17-3.4-.54-5.25-.39M460.99,260.91c1.69.05,3.96-.13,5.62-.53M455.14,248.15c-1.45,1.53-2.64,3.2-2.97,5.6M461.78,260.23c-.49.07-.99.1-1.48.09-.01-.02-.05-.02-.13-.02-.02,0-.05,0-.08,0h-.14c-1.52-.08-3.01-.52-4.34-1.26-.89-.62-1.75-1.34-2.17-2.36-.08-.16-.62,0-.57.13.08.18.16.34.26.51-.13.05-.23.13-.18.19.63.72,1.36,1.33,2.17,1.82-.16.04-.29.12-.23.16.26.18.54.33.81.47-.04.01-.1.03-.14.04-.05.03-.2.12-.06.16,1.45.45,2.97.6,4.49.45.04,0,.14-.04.22-.09.49,0,.98-.02,1.47-.1.07-.01.32-.05.33-.15,0-.1-.16-.09-.23-.07h0s0,.01,0,.01ZM442.79,235.72c-.41.04-1.23.07-1.96.03s-1.68-.48-1.21.05c.31.34,1.22.56,1.61.63.9.15,1.92-.36,2.17-.41.48-.1-.22-.32-.61-.28h0ZM487.39,259.67l-1.62-2.67c-.05-.09-.27-.06-.41,0-.03-.04-.05-.1-.08-.13-.1-.15-.66.01-.53.2.05.09.11.17.15.25.08.26.23.47.42.67.37.63.74,1.26,1.11,1.89.05.1.29.06.43,0h0c.1.16.64,0,.53-.2h0ZM481.14,253.52c-.84-.38-2.06-.33-2.91-.04-.38.13-.71.37-1.03.62-.39.29-.91.68-1.11,1.14-.2.49.14,1.07.32.53.51-1.5,1.5-1.84,2.95-1.44.65.18,1.26.48,1.93.61,1.23.23.48-1.11-.16-1.42h0ZM474.38,245.84c-.12-.07-.32-.05-.44-.01-1.21.35-2.45.65-3.7.91-.09.02-.29.09-.26.2,0,.01.02.02.03.03h-.01s-.06.02-.1.03c-.05.02-.12.06-.15.11-.01,0-.04,0-.05.01-.09.02-.32.1-.24.23.08.12.39.06.49.04.66-.15,1.32-.26,1.98-.4.57-.12,1.14-.27,1.64-.55.15-.03.3-.07.45-.1.09-.02.32-.1.24-.23,0,0-.01,0-.02-.02.03-.02.07-.04.11-.06.09-.05.14-.13.04-.19h0ZM474.4,240.18s-.04.04-.07.04c0,0,0,.01-.02.02-.03.03-.06.05-.11.06-.02,0-.05.01-.08.02-.06.01-.13.01-.19,0-.03,0-.07,0-.1-.01-.04,0-.09-.02-.13-.03-.04,0-.07-.02-.1-.05-.02-.02-.04-.03-.04-.06,0-.02,0-.04,0-.06,0,0,0-.01.02-.02h0s.03-.04.05-.05c0,0,.01,0,.02-.01.01,0,.04-.02.07-.03.01,0,.03,0,.04-.01.01,0,.03,0,.04-.01.06-.01.13-.01.19,0,.03,0,.07,0,.1.01.06,0,.12.03.17.05.02,0,.04.02.06.03.02.02.04.03.04.06,0,.02,0,.04,0,.06h0s.02,0,.02,0ZM460.46,261.73c-.05.05-.16.08-.23.09-.1.01-.21.02-.3,0-.02,0-.04-.02-.06-.02-.14.03-.3.03-.43-.01h0c-.08,0-.16,0-.24,0-.12,0-.24-.02-.34-.09-.08-.05-.12-.14-.05-.21.11-.11.3-.14.45-.14.09,0,.17,0,.26.04.07-.03.15-.06.24-.08.16-.02.36-.03.52.05.03.02.05.04.06.06h.02s.05.04.06.07c0,0,0,.01-.02.02,0,0,0,0,.01.02.04,0,.08.02.1.05.04.05,0,.1-.03.12h0s0,.02,0,.02ZM485.38,265c.01-.13-.52-.02-.56.1-.35,1-.35,2.09-.48,3.13-.06.29-.13.58-.2.87-.02.01-.04.03-.05.05l-.11.22s0,.04.03.05c-.06.23-.12.44-.18.66,0,.04.02.07.06.08-.06.12-.13.24-.19.35-.2.36-.42.7-.66,1.03-.38.52-.8,1.02-1.23,1.51-.04.03-.08.06-.12.1-.02.01-.05.03-.07.04-.13.09-.26.17-.4.25-.31.13-.64.25-.97.35-1.04.33-2.1.59-3.16.85h-.07c-.11-.01-.19,0-.21.07-.35.09-.71.17-1.06.25-.16.03-.03.17.02.23.13.11.32.16.48.16.47.01.95-.02,1.41-.08.04.02.09.02.12.02.02,0,.04,0,.06-.01h.01c.53-.07,1.05-.17,1.58-.29,1.1-.15,2.15-.51,3.12-1.07.11-.06-.1-.2-.32-.29.79-.37,1.53-.83,2.1-1.51.15-.17-.44-.44-.64-.35.03-.04.07-.09.11-.14.24-.33.46-.68.65-1.03.2-.37.44-.79.46-1.21,0-.1-.13-.15-.28-.18.1-.34.18-.69.22-1.04.22-1.03.37-2.07.48-3.12h0v-.03s.02-.01.02-.01v-.03ZM482.61,258.1c-.56-.32-1.13-.64-1.69-.96.15.08.33.15.49.1s.28-.26.18-.4c.31.07.65-.04.86-.28-1.53-.92-.31.11-2.07.4,2.36,1.35-1.18-.38-.84-.24-.24-.14-1.05-.02-1.25.17.43.08-1.73-.29-1.31-.2-1.43-.21-1.1-.38-2.41.23.15.12.36.16.55.1-.24.3-.7.41-1.05.25.22-.18.38-.44.42-.72-2.44.97-4.62,2.48-6.91,3.75-1.53.85-3.15,1.6-4.87,1.99-1.83.42-3.66.25-5.51.03-.58-.07-1.16-.14-1.68-.4-.76-.39-1.18-1.09-1.71-1.72-.62-.75-1.27-1.47-1.88-2.23-.69-.86-.95-2.12-1.29-3.15-.23-.68-.18-1.3,0-1.99.09-.34.29-.72.64-.73.07,0,.43-.68.49-.77.18-.26.36-.51.56-.76.39-.49.81-.95,1.26-1.38.44-.43.92-.82,1.41-1.19.49-.37.61-.89,1.08-1.29-.15.12.14-.19.19-.29.06-.13.18-.22.29-.3.53-.41,1.07-.83,1.6-1.24.24-.19.48-.41.74-.58.23-.15.29-.05.52.07-.15.15-.29.29-.44.44.58.19,1.23.06,1.77-.22.55-.27.81-.83,1.3-1.2,1.83-1.38,4.16-2.14,6.33-2.87-.1-.19-.38-.16-.58-.11-1.31.32-2.6.76-3.83,1.31-.63.28-1.24.58-1.84.91-.3.17-.6.34-.89.52-.18.11-.38.25-.59.29-1.02.18-.51-4.24-.4-4.85.13-.74.39-1.47.78-2.12.11-.19.47-.9.71-.94.16-.03.28.12.42.16.2.05.41.03.59-.06-.25-.24-.44-.55-.52-.89,0-.03-.02-.07,0-.1.01-.03.05-.06.08-.07.17-.1.43-.19.49-.38-.04-.03-.09-.04-.14-.04-.28,0-.55.04-.81.15.11-.04-1.29-2.51-1.43-2.73-.58-.88-1.26-1.68-1.92-2.49-.28-.34-.46-.75-.73-1.1-.31-.4-.36-.56-.84-.71-.15-.05-.16-.07-.26-.2-.17-.22-.78-.18-.52-.09,1.66.6,2.7,2.58,3.59,3.94.68,1.05,1.37,2.11,2.01,3.19.04.07.53.82.44.88-1.24.93-1.92,1.83-2.24,3.34s-.3,2.8.39,5.17c-1.11.72-3.54,1.42-4.49,2.35-.93,1.1-1.97,1.95-2.87,2.97-1.1,1.24-2.26,2.44-2.7,4.06-.5,1.84-.7,3.68.07,5.49,1.44,3.42,5.29,5.48,8.91,5.59.76.02,1.53-.04,2.27-.19,3.64-.74,6.58-3.34,9.94-4.91,3.49-1.62,7.63-2.1,11.22-.72-.02-.01-.05-.03-.07-.04ZM597.06,386.49c-.32.36-.61.72-.89,1.1-.19,0-.43.04-.48.15-1.68,3.02-3.72,6.46-3.72,9.99,0,.19,1.09-.11,1.1-.35,0-.16.02-.31.03-.47.1-.02.16-.06.16-.13-.14-1.94.91-3.88,1.7-5.59.76-1.65,1.65-3.24,2.88-4.6.13-.14-.59-.29-.74-.12h-.02s0,.01,0,.01Z" fill="none" stroke="#000" stroke-miterlimit="10" stroke-width=".74"/>
          <path d="M489.42,262.07c-.1-.41-.23-.81-.39-1.2-.04-.13-.09-.24-.13-.37-.18-.55-.23-1.13-.45-1.68s-.53-1.09-.86-1.59c-1.3-1.99-3.47-4.03-5.88-4.54-.55-.12-1.13-.23-1.69-.18-3.29.29-5.87,2.15-8.72,3.59-2.45,1.24-4.99,2.34-7.61,3.14-.63.12-1.29.48-1.92.49-.56.19-.41.03-1.51.26-.05.06-.08.12-.09.17-.33.07-.64.19-.77.38-.24.37.19.36.51.35,4.22-.24,8.32-1.33,12.11-3.2.07-.03.15-.06.22-.1.38-.19.29-.32,0-.45-.31-.12-.84.02-1.22.15-.07-.02-.15-.04-.23-.04,1.1-.51,2.18-1.04,3.26-1.6.68-.36,1.36-.72,2.03-1.1.32-.17.66-.44,1.01-.56.42-.15.48-.13.79.23.16.2.76.12,1.28-.04.18.12.42.17.66.18.14.14.33.24.54.28,1.49.35,2.68,1.51,3.56,2.72-.06.03-.13.08-.18.11-.6-.68-1.35-1.26-2.22-1.66-.54-.26-2.07.17-1.82.97.43,1.4,1.51,2.29,2.4,3.39.57.71.84,1.47.97,2.27,0,.11,0,.2.04.28.09.84.03,1.71-.04,2.6-.21,2.78-.28,7.43-3.23,8.92-.1.05-.19.11-.27.17.17-.42-.28-.62-.65-.64-.65-.04-1.27.03-1.87.19-.21.03-.42.09-.55.13-.07.02-.14.05-.21.07-1.65.45-3.18,1.26-4.49,2.38-.86.74-1.64,1.58-2.44,2.39-1.02.82-1.91,1.78-2.5,2.99-.02.02-.03.04-.03.07-.02.06-.06.12-.09.17-.19.43.6.57.83.57.47,0,1.08-.17,1.35-.58.49-.73,1.06-1.43,1.66-2.1.27-.04.54-.13.75-.26.71-.44,1.23-1.03,1.74-1.64.26-.15.51-.29.75-.44.24-.14.45-.39.42-.62.17-.13.32-.28.49-.42.61-.47,1.34-1.05,2.12-1.36.46-.12.94-.19,1.44-.21.29-.01.69-.13.97-.33-.28.62,3.27,2.68,4.14,2.24,2.3-1.17,2.46-1.61,3.02-3.92.39-.11-.05-3.73,0-4.15.26-1.99.12-1.46.09-3.47.05-.71.07-1.31.06-2.02.24.44-.07-1.52.17-1.1.08.13.22.23.38.29.34,1.07,2.54.56,2.27-.58Z" fill="#000" stroke-width="0"/>
          <path d="M473.53,246.8c-.85.32-1.8.42-2.68.59-.85.17-1.76.4-2.63.42-1.65.05-3.16-.87-4.56-1.63-.6-.33-2.11-1.28-2.81-1.27-.64.01-.66.08-1.28.5-1.12.77-2.08,2.11-3.05,3.04-.41.4-.81.82-1.2,1.26-.22.4-.42.81-.58,1.24-.22,1.58-.3,3.2-.19,4.8,0,.17.03.35.04.52.07.74-.01,1.03.75,2.08.41.55,1.52.77,2.12.97,1.24.4,2.51.74,3.77,1.09.95.26,1.9.52,2.83.82.3.1,1.99.56,1.18.98-1.38.72-3.04,1.27-4.6,1.42-1.14.11-2.23-.11-3.36-.2-.94-.08-1.9-.18-2.72-.69-.44-.27-.79-.66-1.19-.98-.45-.37-.99-.58-1.45-.94-.68-.55-1-1.52-1.26-2.31-.28-.85-.54-1.72-.61-2.61-.12-1.51.54-2.73,1.16-4.05.55-1.18,1.25-2.3,2.17-3.23.67-.67,1.44-1.27,2.16-1.87.49-.41,1-.8,1.52-1.18,1.04-.76,2.12-1.45,3.24-2.08.78-.44.72-1.44,1.23-.71s2.6,2.68,3.05,2.8c2.4.62,4.63.6,7.71-.06.72-.15,2.76-.9,2.69-1.04-.28-.51.38.73-.57,1.76-.11.12-.24.24-.39.32-.17.09-.34.16-.51.23ZM477.65,243.45c0-.1,0-.18-.01-.29.02-.24.01-.48-.02-.73.02-.07.03-.13,0-.19,0-.01-.01-.04-.01-.05-.02-.4-.03-.79-.05-1.18,0-.18-.3-.32-.43-.35-.11-.03-.24-.04-.36-.04-.24-.33-.55-.6-.96-.72-.04-.02-.11-.01-.16-.02-.06-.02-.12-.05-.18-.06-.33-.07-.66-.08-.99,0-.17.04-.34.11-.49.18-.1-.23-.4-.37-.67-.41-1.14-.17-2.29-.02-3.41.21-1,.21-1.99.46-2.99.68-.19.04-.43.14-.63.29-.06.01-.13.03-.19.04-.22.04-1.12.25-1.06.59.04.24.59.18.94.12.18.45.9.45,1.27.37.92-.22,1.84-.43,2.77-.64.98-.21,2.01-.22,3.01-.24.15,0,.3,0,.45.03.12.02.24.07.36.12.44.18.91.41,1.15.84.32.58.41,1.32.25,1.95-.09.36-.51,1.05-.23,1.4.14.17.41.28.62.29.29.02.61-.01.89-.14.21-.1.52-.25.61-.48.15-.38.3-.75.41-1.14l.05-.06c.07-.11.1-.22.08-.36ZM444.86,234.36c-.18.1-.08.04,0,0h0ZM449.39,232.34c.01-.22-1.76,1.1-1.97,1.12-.32.03,0-.34-.2-.09-.42.5-2.03,1.12-2.7,1.43-.66.31-1.51.25-2.15.61-.1.06-.2.12-.27.21-.19.29.18.44.22.69.03.22-.77.41-.56.47s1.45.04,1.68,0c1.28-.21,2.43-.89,3.45-1.68.27-.21.46-.48.68-.74.5-.61,1.82-1.91,1.82-2.03Z" fill="#000" stroke-width="0"/>
          <g>
            <path d="M591.18,413.26c-.15-.03-.08,0,0,0h0Z" fill="#000" stroke-width="0"/>
            <path d="M595.96,410.64c.41-.91.63-1.86.77-2.85.14-.99.22-2.89.2-3.88-.29.66-.51,2.17-.73,2.85-.2.64-.07,1.31-.27,1.94-.17.53-.35,1.05-.55,1.57-.02.06-.05.13-.1.18-.18.18-.04.58-.28.67-.26.1-.35.64-.5.86-.26.38-.75.44-1.16.53-.49.11-.97.32-1.47.4-.83.13-2.46.42-2.75-.7-.11-.43.29-1.27.68-1.49-.57.41-1.32,1.33-1.29,2.02.02.57.46,1.07.99,1.29s1.13.2,1.7.13c2.42-.3,3.92-1.65,4.76-3.54Z" fill="#000" stroke-width="0"/>
          </g>
          <path d="M614.82,427.81c.12-.22.21-.43.27-.67.03-.12-.17-.11-.24-.11-.07.01-.15.03-.21.06-.04.02-.11.06-.11.11,0,.01-.02.03-.02.05-.04.02-.1.05-.13.1-.05.09-.13.18-.19.28-.07.03-.14.08-.16.14,0,.01-.02.03-.02.04h0c-.14.11-.29.21-.44.3-.06.02-.12.05-.16.1,0,0-.02.02-.02.03-.72.45-1.49.79-2.33,1.01-.1.03-.28.11-.24.23.03.13.23.12.32.1.13-.03.26-.08.39-.12-.07.04-.15.09-.23.13-.11.06-.23.18-.14.3.06.09.19.12.3.1.06,0,.13,0,.16,0,.19-.03.38-.08.57-.14,0,0-.02.02-.03.02h0s-.05.04-.09.05h0s-.04.01-.05.03c-.02.01-.06.03-.1.03h-.01s-.03,0-.05.01c-.06.01-.13.03-.18.04h-.01c-.13-.03-.28,0-.4.05-.04.01-.14.09-.11.13,0,.01-.02.02-.02.04-.1.01-.19.04-.27.09-.1.09-.06.16.05.19.45.13.97.09,1.41-.1.22-.1.43-.21.59-.39.04-.04.07-.09.1-.14h0c.33-.13.63-.32.89-.56.45-.43.73-.99.94-1.56h-.02s0,.01,0,.01Z" fill="#000" stroke-width="0"/>
          <path d="M589.43,353.06c.06-1.16.03-2.35-.15-3.58-1.03-7.47-5.51-14.17-9.99-20.05-16.39-21.48-42.31-35.44-68.85-39.9-2.04-.35-4.18-.63-6.13.06-2.69.93-4.46,3.51-5.59,6.1-4.5,10.33-5.4,12.54-9.14,19.45-2.25,4.16-15.49,7.07-16.27,8.17-2.95,4.16.32,12.17-1.9,14.4-1.46,1.48-5.49,5.63-10.98,7.2-8.74,2.5-11.91-.43-15.97.57-3.77.93-2.85,9.78-6.71,11.69-6.99,3.46-12.87,3.11-15.6,3.52-6.4.96-9.25-5.09-15.68-4.43-4.58.47-5.51,7.98-10.11,7.87-9.63-.22-9.85-1.34-28.87-7.62-.85-.28-2.32-6.9-6.11-8.44-2.58-1.05-4.96,2.11-7.2.93,0,0-4.54-2.4-8.68-6.41-.96-.92-1.76-1.85-2.03-3.15-.32-1.48.53-2.59-.62-6.06-2.14-6.48-6.03-1.28-8.63-5.23-4.35-6.62,1.62-16.41.19-18.01-2.48-2.79-2.55-7.82-2.61-8.36-.53-4.88,4.03-6.75,5.49-10.99,1.1-3.18,11.16-7.3,7.14-10.89-4.89-4.37-9.96-3.11-12.6-.18-2.38,2.66-11.64,5.97-15.08,14.31-1.58,3.83-8.63,3.27-9.71,5.59-1.11,2.39.8,4.28,1.13,8.37.5,6.21-1.59,15.86-3.47,19.98-2.01,4.39-5.95,1.3-4.89,7.51.6,3.5,3.51,9.36,7.11,14.63,5.01,7.35,5.85,12.39,11.92,24.02.8,1.53-.86,11.44,2.4,12.83,1.74.74,3.47,3.11,5.36,3.16,3.97.12,7.49,1.8,10.26,3.55,10.21,6.43,16.71,10.85,23.79,14.45,6.22,3.17,21.19,6.5,20.73,10.1-.22,1.78,1.03,6.63,8.25,8.94,3.68,1.18,10.2-2.33,15.67-3.6,4.43-1.03,19.49,4.72,55.99.68.74.86,1.93,1.99,3.58,3.05,1.55,1,3.39,1.82,5.29,1.94,2.05-1.23,7.03-1.11,9.16-4.95,4.65-8.36,17.9-8.48,21.41-10.02,24.44-8.92,30.11-12.01,37.8-15.36,4-1.74,10.49,1.47,13.72.03,11.51-5.13-5.41-9.27,17.93-21.83,12.09-6.51,18.66-14.28,19.23-24.04h0s0,.04,0,.04ZM357.67,363.43c.07-.04.14-.09.21-.13" fill="url(#radial-gradient)" stroke-width="0"/>
          <path d="M462.48,283.65c-5-.15-5.25,7.58-.23,7.73,5.02.15,5.25-7.58.23-7.73Z" fill="url(#radial-gradient-2)" stroke-width="0"/>
          <path d="M544.03,385.66c-.15-.83-.53-1.46-1.05-1.92.47-.75.66-1.73.37-2.92-.99-3.98-2.11-7.98-4.61-11.31-1.87-2.49-4.07-4.4-5.73-6.82-.69-1.55-1.42-3.09-2.19-4.6-.66-1.29-1.86-1.87-3.09-1.92-2.03-2.63-4.17-5.18-6.46-7.59-4.26-4.5-9.11-8.61-14.52-11.69-.5-.29-1.01-.56-1.53-.83-1.71-1.23-3.49-2.34-5.35-3.2-2.75-1.26-6.14-1.92-9.57-2.01-1.43-.39-3.03-.36-4.78-.12-.54.08-1.01.28-1.4.56-1.27.23-2.49.53-3.61.92-1.53.53-2.61,2.14-2.84,3.72-.83-.19-1.74-.12-2.65.31-2.02.95-3.81,2.14-5.51,3.55-1.02-.03-2.02.37-2.71,1.33-.24.22-.47.46-.68.76-.48.07-.97.22-1.41.46-.95.17-1.9.34-2.86.48-3.69.55-3.96,6.77-.22,7.45.62.11,1.21.17,1.78.2.52.68,1.27,1.15,2.09,1.37.35.44.77.83,1.22,1.12v.28c-.08,1.77,1.18,3.14,2.7,3.7,1.28,2.77,2.85,5.39,4.24,8.13,2.41,4.76,4.26,9.74,5.58,14.89,2.66,10.37,2.39,20.81,2.24,31.42-.01.43.06.83.15,1.19-.46.4-.83.9-1.09,1.44-2.2,2.88,1.84,7,5.3,5.46.09-.03.17-.08.26-.12.42-.19.77-.48,1.07-.83,8.5-2.69,17-5.36,25.5-8.06,3.74-1.19,7.37-2.46,10.81-4.37,3.34-1.86,7.21-1.73,10.44-3.71.14-.09.27-.18.39-.27,8.92.3,10.99-9.54,9.72-16.47h0s0,0,0,0ZM502.73,347.71c.06-.37.07-.71.03-1.05.26.09.5.16.75.25-.3.23-.56.5-.79.81h0s0,0,0,0ZM515.6,370.93c-.11,0-.21.02-.32.03.14-.39.27-.78.37-1.18-.02.38-.04.76-.06,1.14h0Z" fill="url(#radial-gradient-3)" stroke-width="0"/>
          <path d="M331.79,317.45c-.73-2.53-3.91-3.55-5.93-2.4-1.22-.89-2.61-1.54-4.07-2.04-2.05-.68-5.13-.65-6.68-2.26-2.35-2.45-6.57-.8-6.73,2.54-.25,5.7-1.27,12.09-.29,17.87-.12,2.1.39,3.97,1.47,5.87,1.43,2.52,4.34,2.33,6.05.87.74.4,1.47.88,2.36,1,.93.12,1.68-.05,2.42-.33,4.06.77,9.36-.63,11.75-4.06,3.54-5.11,1.2-11.7-.34-17.06h0s-.01,0-.01,0Z" fill="url(#radial-gradient-4)" stroke-width="0"/>
          <path d="M336.83,286.08c-.82-.81-1.4-1.5-1.97-2.49-.99-1.71-3.47-2.7-5.28-1.54-3.38,2.17-6.12,4.87-8.13,8.34-.34.6-.49,1.26-.47,1.92-.4.46-.82.85-1.29,1.1-1.99,1.06-3.87.85-5.05,3.26-1.81,3.69,2.45,7.17,5.2,5.66.4.36.9.66,1.53.85,3.49,1.06,8.09,3.28,10.47-.77.98-1.66,1.48-3.65,2.26-5.41.95-2.13,2.07-4.19,3.22-6.21.84-1.46.78-3.47-.47-4.7h-.01s0,0,0,0Z" fill="url(#radial-gradient-5)" stroke-width="0"/>
          <path d="M469.39,338.99c.72-.83,2.13-.66,5.43-2.3,3.46-1.73,10.77-.96,14.18.87s6.14,5.1,6.77,8.9-1.59,9.29-5.02,11.1c-2.91,1.54-6.77,3.07-10.08,2.1-4.49-1.3-6.23-3.31-7.89-6.94-1.08-2.35-.7-4.17-.25-6.09.43-1.82,1.24-2.61,1.53-2.91,1.96-2.08,4.43-2.53,7.2-2.31,3.59.29,6.26,1.88,7.22,3.66,2.77,5.15-2.11,7.53-3.77,7.89-4.48.98-4.91-3.19-4.51-3.45" fill="none" stroke="#212120" stroke-linecap="round" stroke-miterlimit="10" stroke-width="2.21"/>
          <path d="M495.77,346.46c.16,1.96.18,4.14-.18,6.07-.91,5.03-3.56,9.83-3.24,14.93.23,3.57,2.04,7.07,4.97,9.14s6.49,2.29,9.94,1.24c2.12-.65,2.77-.58,5.06-1.85,1.44-.8,3.86-2.62,4.63-4.08,2.14-4.02,1.94-8.74-1.58-11.65-2.28-1.89-3.55-2.25-5.86-2.33-.96-.03-3.29.87-5.11,1.9-2.25,1.26-3.34,2.81-4.11,5.26-.77,2.45.55,5.1,2.8,6.35,3.87,2.17,8.71-3.65,3.52-5.7" fill="none" stroke="#212120" stroke-linecap="round" stroke-miterlimit="10" stroke-width="2.21"/>
          <path d="M505.48,378.28c5.51-.07,10.89.55,15.8,3.05,1.55.79,3.46,2.54,4.38,4.35,1.74,3.46,1.99,6.28.31,10.35-1.47,3.59-9.16,10.24-14.54,10.53-8.3.44-12.59-3.87-13.6-10.22-.65-4.13.93-6.18,2.88-8.28,2.5-2.71,8.19-4.29,12-2.98,4.76,1.64,5.2,7.16,3.8,10.62-1.75,4.36-9.96,4.04-8.32-2.42" fill="none" stroke="#212120" stroke-linecap="round" stroke-miterlimit="10" stroke-width="2.21"/>
          <path d="M525.89,396.19c-1.16,1.91-2.59,3.8-3.14,5.96-.21.85-.33,1.77-.06,2.6s.6,1.08,1.48,1.19c.34-.38,1.21-.73,1.72-.78,0,.19-.41.6-.24.5" fill="none" stroke="#212120" stroke-miterlimit="10" stroke-width="2.21"/>
          <path d="M406.71,367.78c-4.61-.08-10.85-1.4-13.89-4.83-.09.14-.11.31-.04.46" fill="none" stroke="#221f1f" stroke-miterlimit="10" stroke-width="1.62"/>
          <path d="M408.84,374.68c-.77.51-12.85-.87-16.38-2.23-8.63-3.33-13.75-9.01-16.35-12.7" fill="none" stroke="#221f1f" stroke-miterlimit="10" stroke-width="1.62"/>
          <path d="M405.28,391.43c-9.92-1.33-16.06-3.85-23.36-10.2-5.21-4.52-10.09-13.53-14.9-23.35.08.19-.06,2.09.02,2.28" fill="none" stroke="#221f1f" stroke-miterlimit="10" stroke-width="1.62"/>
          <path d="M402.77,404.47c-25.43-6.38-33.06-20.15-38.52-35.14" fill="none" stroke="#221f1f" stroke-miterlimit="10" stroke-width="1.62"/>
          <path d="M396.04,412.01c-1.81,3.71-15.94.27-24.97-9.48-6.18-6.67-11.11-17.16-14.08-25.55" fill="none" stroke="#221f1f" stroke-miterlimit="10" stroke-width="1.62"/>
          <path d="M352.87,404.01c-4.08-4.38-7.44-9.56-8.98-18.1" fill="none" stroke="#221f1f" stroke-miterlimit="10" stroke-width="1.62"/>
          <path d="M367.18,411.17c-3.6-3.04-9.75-10.89-11.91-15.07-2.91-5.62-3.73-8.72-4.76-14.02" fill="none" stroke="#221f1f" stroke-miterlimit="10" stroke-width="1.62"/>
          <path d="M350.8,366.62s1.64-3,1.46-3c-1.11-3.69-1.53-10.54-.47-15.48" fill="none" stroke="#221f1f" stroke-miterlimit="10" stroke-width="1.47"/>
          <path d="M347.47,370.1c-1.53-8.77-1.84-17.6,1.21-25.82" fill="none" stroke="#221f1f" stroke-miterlimit="10" stroke-width="1.47"/>
          <path d="M341.29,373.75c-1.39-10.92-.61-22.49,4.23-32.21" fill="none" stroke="#221f1f" stroke-miterlimit="10" stroke-width="1.47"/>
          <path d="M333.02,377.29c-2.73-10.69,0-22.9,5.1-33.22-.33.04-1.52.07-1.84.11" fill="none" stroke="#221f1f" stroke-miterlimit="10" stroke-width="1.47"/>
          <path d="M326.08,376.22c-2.35-9.72.55-20.12,4.39-29.36-.13.54-2.33,1.02-2.46,1.56" fill="none" stroke="#221f1f" stroke-miterlimit="10" stroke-width="1.47"/>
          <path d="M317.4,370.43c-.88-4.66-.59-7.41-.04-9.51,2.38-9.03,5.31-12.01,6.25-12.53" fill="none" stroke="#221f1f" stroke-miterlimit="10" stroke-width="1.47"/>
          <path d="M310.44,359.5c.16-3.3,3.18-8.61,5.51-11.32" fill="none" stroke="#221f1f" stroke-miterlimit="10" stroke-width="1.47"/>
          <path d="M351.96,360.81c.32.59.99.98,1.67.96-.06.06-.17.09-.26.05" fill="none" stroke="#000" stroke-miterlimit="10" stroke-width=".74"/>
          <path d="M351.62,361.95c.06,1.05-.05,2.13-.34,3.14" fill="none" stroke="#000" stroke-miterlimit="10" stroke-width=".74"/>
          <path d="M347.36,367.21c-.04.75.83,1.4,1.54,1.15.03.1-.05.2-.15.22" fill="none" stroke="#000" stroke-miterlimit="10" stroke-width=".74"/>
          <path d="M346.65,367.54c.12.32.14.67.07,1-.06.29-.2.57-.34.83-.16.3-.31.59-.46.9-.02.04-.05.1-.11.1s-.05-.1,0-.09" fill="none" stroke="#000" stroke-miterlimit="10" stroke-width=".74"/>
          <path d="M341.21,370.95c-.04.25.1.5.3.65s.44.24.69.31c.39.12.77.25,1.15.36" fill="none" stroke="#000" stroke-miterlimit="10" stroke-width=".74"/>
          <path d="M340.66,370.99c.11,1.02-.25,2.08-.96,2.83" fill="none" stroke="#000" stroke-miterlimit="10" stroke-width=".74"/>
          <path d="M334.66,375.29c-.05.04.09.07.08,0s-.1-.08-.17-.09c-.92-.01-1.8-.61-2.14-1.46.09.32-.35.97-.52,1.26-.46.85-1.15,1.58-1.99,2.09" fill="none" stroke="#000" stroke-miterlimit="10" stroke-width=".74"/>
          <path d="M325.78,374.78c.23.86,1.63,1.59,2.52,1.75" fill="none" stroke="#000" stroke-miterlimit="10" stroke-width=".74"/>
          <path d="M325.44,374.52c-.1.24-.07.51-.16.74-.05.16-.14.3-.24.45-.16.25-.33.51-.49.76-.29.45-.63.94-1.14,1.09" fill="none" stroke="#000" stroke-miterlimit="10" stroke-width=".74"/>
          <path d="M316.66,365.27l-.51.71c-.28.39-.57.78-.99.98-.14-.13-.28-.26-.42-.39" fill="none" stroke="#000" stroke-miterlimit="10" stroke-width=".74"/>
          <path d="M311.4,354.88c-.27.25-.61.5-.96.38-.34-.12-.62-.58-.94-.4" fill="none" stroke="#000" stroke-miterlimit="10" stroke-width=".74"/>
          <path d="M404.59,365.56s-.02.03-.04.04c-.41.52-.59,1.33-1.22,1.53,0,.1-.02.2-.03.3" fill="none" stroke="#000" stroke-miterlimit="10" stroke-width=".74"/>
          <path d="M405.68,374.24c.61-.3,1.18-.69,1.68-1.16.24-.23.47-.48.55-.81s-.08-.71-.39-.8" fill="none" stroke="#000" stroke-miterlimit="10" stroke-width=".74"/>
          <path d="M405.01,368.18c.33.17.68.35.93.64s1.12.46.98.8" fill="none" stroke="#000" stroke-miterlimit="10" stroke-width=".74"/>
          <path d="M404.24,390.9c.56.24,1.23.01,1.68-.38s.72-.96.96-1.51" fill="none" stroke="#000" stroke-miterlimit="10" stroke-width=".74"/>
          <path d="M406.04,374.82c.55.53,1.11,1.1,1.42,1.79s1.16,2.01.73,2.65" fill="none" stroke="#000" stroke-miterlimit="10" stroke-width=".74"/>
          <path d="M399.46,403.06c.52-.01,1.04-.08,1.48-.35s1.44-.34,1.32-.83" fill="none" stroke="#000" stroke-miterlimit="10" stroke-width=".74"/>
          <path d="M404,391.27l.66.97c.17.25.33.49.44.78.31.88-.15,1.84-.63,2.64" fill="none" stroke="#000" stroke-miterlimit="10" stroke-width=".74"/>
          <path d="M399.12,403.79c.86.78,1.04,2.18.43,3.16" fill="none" stroke="#000" stroke-miterlimit="10" stroke-width=".74"/>
          <path d="M390.46,413.58c.39.95.37,2.04-.05,2.98" fill="none" stroke="#000" stroke-miterlimit="10" stroke-width=".74"/>
          <path d="M465.68,407.82c-.06-.04-.14.04-.14.11s.06.13.13.17c.39.3.8.6,1.06,1.01s1.3,1.06.92,1.38" fill="none" stroke="#000" stroke-miterlimit="10" stroke-width=".74"/>
          <path d="M464.08,417.77c-.09-.1-.28-.06-.32.06.93.35,1.41,1.56.98,2.45" fill="none" stroke="#000" stroke-miterlimit="10" stroke-width=".74"/>
          <path d="M466.45,392.42c0,.15.28.14.33-.01s-.05-.3-.15-.42c-.55-.67-2.05-1.04-1.8-1.98.11-.38.68-.71.87-1.07.27-.47.36-1.05.47-1.57-.1-.03-.18-.06-.27-.11" fill="none" stroke="#000" stroke-miterlimit="10" stroke-width=".74"/>
          <path d="M458.11,370.46c.44.01.89.06,1.28.29s1.26.02,1.15.45" fill="none" stroke="#000" stroke-miterlimit="10" stroke-width=".74"/>
          <path d="M457.67,369.79c.37-.14.62-.48.74-.84s.13-.76.14-1.15c.01-.37.01-.73-.09-1.08" fill="none" stroke="#000" stroke-miterlimit="10" stroke-width=".74"/>
          <path d="M332.79,323.3c-2.26-.11-4.54-.21-6.77.18s-4.42,1.3-5.97,2.94-3.04,4.42-1.66,6.2c1.62,2.09,3.91,2.82,6.05,1.87,1.36-.61,1.85-.99,2.46-2.13.52-.96.53-2.33.28-3.4-.28-1.17-1.33-1.87-2.91-1.46-1.26.33-2.15,2.86-.21,3.6" fill="none" stroke="#000" stroke-linecap="round" stroke-miterlimit="10" stroke-width=".74"/>
          <path d="M332.58,322.54c-2.26-.17-4.54-.12-6.79.17-1.32.16-2.66.41-3.98.21-.82-.12-1.64-.44-2.28-.97-1.17-.99-.76-2.66.2-3.66.55-.58,1.39-.81,2.17-1,1.35-.33,2.74,1.66,2.02,2.79-.47.75-1.65.95-2.35.38" fill="none" stroke="#000" stroke-linecap="round" stroke-miterlimit="10" stroke-width=".74"/>
          <path d="M322.28,324.74c-2.64,1.29-4.77,2.82-7.09,4.59-1.25.95-4.55.81-5.26-1.08-1.34-3.52,2.2-4.97,4.08-4.96,1.07,0,2.27,1.91,1.25,3.05-.68.76-1.9.61-2.8.4" fill="none" stroke="#000" stroke-linecap="round" stroke-miterlimit="10" stroke-width=".74"/>
          <path d="M601.48,248.07c.35-.56.57-1.21.57-1.87,0-1.13-.18-2.18-.51-3.22.01-.13.03-.26.03-.4.02-.43-.02-.86-.12-1.27-.03-.59-.06-1.19-.09-1.79-.07-1.01-.43-1.82-.98-2.43-.04-.42-.09-.83-.13-1.25-.1-.96-.49-1.73-1.03-2.33-.23-1.22-.5-2.42-.87-3.64-.18-.62-.48-1.12-.83-1.53,0-.2-.01-.4-.04-.58-.02-.24-.05-.46-.08-.69-.1-.51-.32-.96-.65-1.33-.16-.3-.39-.53-.68-.72-.37-.35-.8-.6-1.3-.73-.34-.05-.69-.12-1.03-.17-.29,0-.56.02-.84.07-.62.01-1.21.16-1.76.46-.27.19-.54.39-.81.58-.44.42-.77.92-.97,1.48-.2.28-.38.58-.5.89-.65,1.13-1.35,2.23-2.09,3.3-.94.37-1.78,1.11-2.3,2.28,0,.02-.02.05-.03.08-.34.16-.69.38-1,.68-.9.85-1.79,1.72-2.69,2.58-.38.36-.65.74-.86,1.13-2.52,2.63-4.9,5.4-7.12,8.29-1.77,1.96-3.33,4.09-4.68,6.36-.63.83-1.23,1.68-1.8,2.57-.54.83-.7,1.67-.6,2.45-.02.04-.03.07-.05.11-.11.25-.22.49-.33.74-.72,1.54-.43,3.05.34,4.16-.15,1.97,1.03,3.15,2.52,3.54-.28,1.92-.55,3.83-.83,5.76-.26,1.88,1.54,3.64,3.27,3.89,2.06.31,3.56-.83,4.36-2.65.16-.37.27-.73.36-1.1.09-.16.17-.33.25-.51.41.11.83.16,1.26.15.26.12.52.2.8.27,1.02,1.06,2.85,1.31,4.41.75.65,1.46,1.98,2.37,3.48,2.38,1.02.43,2.17.51,3.14.1.71-.13,1.39-.44,1.97-.94.12-.11.24-.22.35-.32.89-.06,1.75-.41,2.4-1.13.42-.3.81-.7,1.09-1.24.34-.65.69-1.29,1.03-1.94.17-.13.35-.28.52-.46.2-.22.4-.43.57-.64.65-.43,1.19-1.04,1.5-1.87.41-1.11.68-2.11.87-3.27.04-.24.06-.48.07-.7.38-.39.68-.87.86-1.49.86-2.99,1.47-5.99,1.92-9.06.14-.91-.05-1.66-.42-2.25.04-.51.07-1.02.1-1.53v.02s0,0,0,0Z" fill="url(#radial-gradient-6)" stroke-width="0"/>
          <path d="M556.44,239.91c.22-2.29.27-4.61.1-6.95-.03-.48-.15-.91-.31-1.3-.22-2.14-.71-4.18-1.78-5.51-.05-.21-.11-.41-.17-.62.02-.18.04-.36.07-.53.81-4.74-5.95-7.2-7.45-2.28-.26.86-.44,1.7-.54,2.57-.86.21-1.71.71-2.36,1.54-1.1,1.4-1.89,3.01-2.73,4.58-.67.41-1.23,1.03-1.61,1.88-1.2,2.73-3.82,4.63-5.3,7.19-1.04,1.82-2.15,3.43-2.5,5.45-.57.8-.59,2.1-.46,3.04-.05-.4-.1-1.1-.04-1.56.11-.81.02.06,0,0,.19-.61.11-1.59-.17-2.32-.61-1.58-1.15-2.26-2.57-3.49-1.3-1.12-2.6-2.69-4.14-3.47-1.24-.62-2.38-1.11-3.62-1.65-1.52-.65-3.06-.71-4.69-.93-.34-.04-.91-.11-1.13.09-.22-.15-.57-.19-.82-.27-.46-.26-1.04-.15-1.58-.15-.07,0-.14.01-.21.02-.14-.02-.28-.04-.42-.04h-.13c-.54-.04-1.04.06-1.52.28-.48.14-1.23-.09-1.59.26-.39.33-2.19-.06-2.35.42-.26.45-.07,1.36.64,2.42.03.34.88,1.05.92,1.4.16.66.49,1.24.95,1.74l.09.06c.22.26.47.5.77.7,2.13,3.52,4.1,7.12,5.91,10.82.15.31.36.58.57.81.11.4.22.81.34,1.21h0c.1.32.24.62.4.92.15.33.34.63.6.89.03.03.06.05.09.08.51.58,1.36,1.59,2.03,1.71.26.07.59.02.87.03.34-.03.42-.68.76-.71.67-.16,1.25-.48,1.75-.95.21-.26.42-.51.63-.77.29-.48.48-.99.56-1.53.29-.65.51-1.34.59-1.99.56.16,1.14.22,1.7.16,2.69.58,5.14-1.39,4.83-4.07.08.4.31.6.3,1.04,0,.29.07.93.25,1.19,1.23,1.76,4.28.43,6.21,1.48,1.3.51,2.65,1.1,3.96,1.44,1.29.33,2.6.4,3.91.3.55.29.18.48.21.48,1.26.31,2.12-.19,3.4-.41,1.55-.15,2.89-.71,3.72-2.33l.5-1c.02-.05.04-.12.07-.17.42-.61,1.5-1.9,1.78-2.84.62-2.07.69-4.42.99-6.55.1-.7-.01-1.32-.28-1.85v.03s-.02.03-.02.03Z" fill="url(#radial-gradient-7)" stroke-width="0"/>
          <path d="M624.35,374.08c-.3-1.37-.23-2.52-.13-3.9.06-.93-.25-1.75-.79-2.4.5-.75.69-1.75.37-2.97-.92-3.48-2.22-6.8-3.93-9.98-.29-.54-.64-.96-1-1.28-1.85-2.76-4.28-5.02-7.49-6.58-.73-.35-1.63-.52-2.5-.46-2.44-.31-5.01,2-4.4,4.77.13.6.24,1.2.34,1.8-.6.44-1.08,1.11-1.33,2.08-.28,1.11-.55,2.21-.81,3.28-.26.94-.56,1.85-.87,2.78-2,1.1-3.23,1.55-3.56,3.41-.69-.28-1.19.64-2.01.47-2-.43-3.44.41-5.15.52-.86.06-2.82-.8-2.75-.08-.67-.61.17.8-.68.35-3.87-2.06-4.51,3.31-7.31,5.25-1.54,1.06-2.91,1.84-3.99,3.41-.54.78-1.02,1.53-1.52,2.24-1.56.34-2.99,1.5-3.26,3.49-.09.69-.19,1.38-.28,2.07-.04.27-.03.53,0,.77-.54,4.11-1.5,7.99-1.13,12.3.2,2.35.38,4.73.87,7.05.54,2.58,1.78,4.86,2.46,7.38,1.14,4.24,6.35,3.43,7.51-.11.69-.41,1.29-1.04,1.68-1.92.48-1.09,1.02-2.17,1.57-3.23.5-.29.97-.69,1.35-1.27,2.59-3.81,5.11-7.69,7.35-11.71.73-1.29,1.1-2.37,1.22-3.36.52-.51.91-1.16,1.13-1.86.38-1.21.53-2.53.73-3.78.13-.83-.15-1.6-.64-2.26-.02-.7-.07-1.4-.17-2.1,1.47,2.57,2.93,5.15,4.59,7.58,3.96,5.81,9.93,9.65,14.14,15.16,1.99,2.6,6.94.7,6.73-2.54-.26-3.93-.22-8.58.93-12.38.86-2.85,1.13-5.31,1.13-8.04,1.17-.79,1.95-2.17,1.64-3.94h-.02s0,0,0,0Z" fill="url(#radial-gradient-8)" stroke-width="0"/>
          <path d="M497.36,300.22c6.68-.96,13.27-2.55,19.65-4.74,1.74-.6,3.72-1.49,4.12-3.28" fill="none" stroke="#000" stroke-miterlimit="10" stroke-width=".18"/>
          <path d="M492.57,310.02c11.07-2.11,26.5-4.9,37.58-7.01,1.78-.34,5.91-1.55,7.46-2.51" fill="none" stroke="#000" stroke-miterlimit="10" stroke-width=".18"/>
          <path d="M500.11,314.79c17.82-.94,35.59-2.93,53.18-5.93" fill="none" stroke="#000" stroke-miterlimit="10" stroke-width=".18"/>
          <path d="M507.07,323.02c19.39-.03,39.04-.75,57.89-5.69" fill="none" stroke="#000" stroke-miterlimit="10" stroke-width=".18"/>
          <path d="M523.19,330.73c10.89.1,21.79-.13,32.67-.72,7.1-.38,14.25-.92,21.09-2.86" fill="none" stroke="#000" stroke-miterlimit="10" stroke-width=".18"/>
          <path d="M538.16,343.35l48.02-2.86" fill="none" stroke="#000" stroke-miterlimit="10" stroke-width=".18"/>
          <path d="M545.87,353.62c14.76-.3,29.53.06,44.28-.54" fill="none" stroke="#000" stroke-miterlimit="10" stroke-width=".18"/>
          <path d="M551.84,366.81c11.92.3,24.06-.37,35.81-2.5" fill="none" stroke="#000" stroke-miterlimit="10" stroke-width=".18"/>
          <path d="M556.52,376.54c5.39-.41,10.79-.83,16.17-1.24" fill="none" stroke="#000" stroke-miterlimit="10" stroke-width=".18"/>
          <path d="M557.71,381.7c2.47.08,4.96,0,7.42-.24" fill="none" stroke="#000" stroke-miterlimit="10" stroke-width=".18"/>
          <path d="M431.76,360.49c7.28,4.96,21.23,10.67,29.61,13.25-.38-.01-4.49-1.48-4.88-1.51" fill="none" stroke="#000" stroke-miterlimit="10" stroke-width=".18"/>
          <path d="M424.82,362.29c2.39,3.21,5.7,5.72,8.71,8.32,3.41,2.93,6.81,5.85,10.28,8.71,6.31,5.18,15,12.36,22.91,14.96-1.02-.22-4.12-1.94-5.14-2.17" fill="none" stroke="#000" stroke-miterlimit="10" stroke-width=".18"/>
          <path d="M419.63,364.39c10.4,19.94,27.03,37.45,48.8,43.98" fill="none" stroke="#000" stroke-miterlimit="10" stroke-width=".18"/>
          <path d="M421.34,385.18c12.94,13.96,26.53,28.29,44.93,35.52" fill="none" stroke="#000" stroke-miterlimit="10" stroke-width=".18"/>
          <path d="M419.16,400.2c10.93,9.7,22.46,19.03,35.71,25.45" fill="none" stroke="#000" stroke-miterlimit="10" stroke-width=".18"/>
          <path d="M411.04,406.72c5.62,8.17,14.03,13.82,22.45,18.85" fill="none" stroke="#000" stroke-miterlimit="10" stroke-width=".18"/>
          <path d="M410.95,416.15c1.67,4.02,4.71,6.44,7.23,9.62" fill="none" stroke="#000" stroke-miterlimit="10" stroke-width=".18"/>
          <path d="M406.65,391.1c-4.17-8.26-7.37-17-9.53-25.98" fill="none" stroke="#000" stroke-miterlimit="10" stroke-width=".18"/>
          <path d="M400.25,407.81c-1.51-1.56-2.3-3.65-3.02-5.68-4.28-11.92-8.25-26.67-8.59-39.33" fill="none" stroke="#000" stroke-miterlimit="10" stroke-width=".18"/>
          <path d="M394.9,412.96c-6.67-16.1-11.61-33.62-13.51-50.94" fill="none" stroke="#000" stroke-miterlimit="10" stroke-width=".18"/>
          <path d="M389.93,417.13c-7.8-14.49-13.27-30.97-14.03-47.46-.15-3.25-.37-6.69.21-9.91" fill="none" stroke="#000" stroke-miterlimit="10" stroke-width=".18"/>
          <path d="M381.14,417.07c-8.08-14.91-13.82-31.05-16.96-47.68.27,1.11.53,2.22.8,3.31" fill="none" stroke="#000" stroke-miterlimit="10" stroke-width=".18"/>
          <path d="M373.92,414.26c-7.6-9.36-17.32-21.48-18.4-33.64" fill="none" stroke="#000" stroke-miterlimit="10" stroke-width=".18"/>
          <path d="M360.61,409.78c-5.51-8.04-9.86-16.86-12.88-26.11.22.76.43,1.54.66,2.3" fill="none" stroke="#000" stroke-miterlimit="10" stroke-width=".18"/>
          <path d="M348.69,402.27c-3.55-4.47-5.37-9.99-6.69-15.45" fill="none" stroke="#000" stroke-miterlimit="10" stroke-width=".18"/>
          <path d="M357.59,351.59c-6.14,5.15-10.59,12.22-12.55,19.96" fill="none" stroke="#000" stroke-miterlimit="10" stroke-width=".18"/>
          <path d="M351.14,350.94c-7.97,7.96-16.29,15.87-21.22,26.16" fill="none" stroke="#000" stroke-miterlimit="10" stroke-width=".18"/>
          <path d="M349.79,347.42c-7.62,7.21-20.41,18.49-24.74,28.31" fill="none" stroke="#000" stroke-miterlimit="10" stroke-width=".18"/>
          <path d="M338.27,346.3c-6.38,7.76-14.27,18.08-18.83,27.07" fill="none" stroke="#000" stroke-miterlimit="10" stroke-width=".18"/>
          <path d="M330.13,347.26c-4.14,4.23-7.69,9.02-10.53,14.21-1.77,3.23-3.28,6.77-3.13,10.45,0,.22.07.49.29.53s.16-.44,0-.29" fill="none" stroke="#000" stroke-miterlimit="10" stroke-width=".18"/>
          <path d="M311.23,359.96c3.86-3.71,6.46-7.54,11.12-10.17-.56-.13-1.07-.47-1.41-.93" fill="none" stroke="#000" stroke-miterlimit="10" stroke-width=".18"/>
          <g>
            <path d="M249.29,529.47c.73.32.78.96.76,1.62-.4-.04-.99.19-.8-.62.07-.32.03-.67.04-1Z" fill="#fff" stroke-width="0"/>
            <path d="M543.39,259.24c-2.5.18-6.2-1.31-8.76-.04,4.06,3.51,13.07,2.3,18.11,2.04.9-.04,5.26.62,3.76-1.44-1.03-1.41-8.48-.23-10.13-.16-.66-4.77,5.28-4.71,8.82-3.86,4.86,1.17,8.77,5.32,10.58,9.83,3.59,8.85.69,21.19-6.61,27.44-12.93-8.3-26.49-15.22-41.9-17.92-4.38-14.85,15.33-30.77,26.45-16.37-.1.16-.19.32-.3.49h0s0-.01,0-.01Z" fill="url(#radial-gradient-9)" stroke-width="0"/>
            <path d="M544.83,398.3c6.01-15.51-5.79-35.04-16.02-46.1-11.62-12.57-28.52-23.67-46.46-22.17-2.16.19-7.76,5.33-9.56,3.79-2.33-1.99-.99-10.78.56-12,6.95-5.45,21.27-1.69,28.9.79,16.16,5.25,30.9,16.89,40.92,30.42,5.67,7.67,10.03,16.41,11.87,25.79,1.16,5.88,1.17,24.62-10.22,19.47h0s0,0,0,0Z" fill="url(#radial-gradient-10)" stroke-width="0"/>
            <path d="M590.41,321.04c7.1-2.43,8.31-4.29,8.36-12.76,4.73.76,8.12-.94,12.75-1.15,4.25-.67,7.56-1.44,11.53-2.33,14.47,9.12,9.75,28.1-2.23,36.94-4.56,3.37-15.26,6.92-18.66.6-1.88-3.49-2.9-7.44-4.92-10.95-2.06-3.6-4.47-6.96-6.84-10.36h.01s0,0,0,0Z" fill="url(#radial-gradient-11)" stroke-width="0"/>
            <path d="M474.25,426.98c-3.34,2.45-11.49.93-9.52-2.71,6-11.1,5.66-31.45,2.73-42.36-1.9-7.09-4.69-13.83-9.34-19.59-4.27-5.3-9.26-5.87-14.87-7.8-2.02-.69-4.12-1.7-.87-5.92,4.41-5.74,16.32.07,20.4,4.12,6.97,6.92,12.38,15.84,15.09,25.11,2.93,10.02,4.71,21.68,3.56,32.1-.46,4.17-2.8,13.84-7.18,17.06h0s0-.01,0-.01Z" fill="url(#radial-gradient-12)" stroke-width="0"/>
            <path d="M383.09,418.07c12.15,3.58,21.16-14.9,24.07-23.58,1.93-5.75,3.35-11.16,2.93-17.24-.47-6.93-3.07-11.58-8.7-15.42.94-4.62,9.63-4.49,12.72-2.61,3.36,2.05,5.12,5.92,6.17,9.54,2.66,9.24.84,20.32-1.94,29.37-2.62,8.5-7.67,18.65-14.68,24.43-3.37,2.78-7.84,5.12-12.33,4.86-6.41-.61-10.41-5.06-8.24-9.36h0s0,0,0,0Z" fill="url(#radial-gradient-13)" stroke-width="0"/>
            <path d="M319.86,376.65c4.79,1.56,9.02,2.34,14.08.87,4.21-1.23,8.04-3.53,11.62-6.06,7.98-5.65,10.57-13.16,11.01-22.03,7.5-4.71,13.12,5.18,9.97,13.05-1.95,6.84-7.9,13.01-13.4,17.26-5.53,4.27-13.05,8.19-20.03,9.33-9.48,1.26-17.51-4.66-13.24-12.42h-.01s0,0,0,0Z" fill="url(#radial-gradient-14)" stroke-width="0"/>
            <path d="M502.46,263.59c2.42,1.49,10.67,1.95,12.61-.99.8-1.22.87-1.35-.62-1.49-2.34-.22-5.04,2.2-7.6,2,2.07-3.17,6.29-6.7,10.3-4.91,1.38.96,2.24-.77,1.32,4.09-.17.89-1.25,2.96-1.87,5.83-.84,3.77-.72,6.4-1.59,6.61-.58.14-2.67-.36-2.78-.37-1.62-.21-3.1-.22-4.98-.1-2.38.16-2.01-.15-4.07.11-2.34.29-4.47,3.55-5.99,1.9-2.49-2.73-6.28-5.77-9.54-4.28-.05.02-.09.04-.11.03-.25-.16-1-8.69,3.53-11.96,1.8-1.3,6.14-1.62,9.1-.94,1.39.32,4.58,3.1,5.17,3.67-.73.3-1.96.41-2.91.8h0s.02-.01.02-.01Z" fill="url(#radial-gradient-15)" stroke-width="0"/>
            <path d="M304.46,330.32c3.18,9.04,14.46,9.77,22.65,7.13,2.28-.74,4.3-2.1,6.22-3.54,1.29-.97,3.15-3.82,4.47-4.35,4.04-1.63,5.76,6.85,4.6,9.17-4.07,8.21-21.38,10.07-29.19,9.3-4.52-.44-10.03-2.78-12.49-6.95-1.79-3.06-.67-9.94,3.75-10.75h0s0,0,0,0Z" fill="url(#radial-gradient-16)" stroke-width="0"/>
            <path d="M576.87,287.67c-10.16-.36-9.13-16.37,1.03-15.75,10.19.63,9.13,16.12-1.03,15.75Z" fill="url(#radial-gradient-17)" stroke-width="0"/>
            <path d="M475,292.12c10.23.2,10.13,15.89-.19,15.68-10.08-.2-9.92-15.88.19-15.68h0Z" fill="url(#radial-gradient-18)" stroke="url(#radial-gradient-19)" stroke-miterlimit="10" stroke-width=".74"/>
            <path d="M460.82,295.41c-10.08-.21-9.92-15.85.28-15.64,10.06.21,9.91,15.86-.28,15.64Z" fill="url(#radial-gradient-20)" stroke="url(#radial-gradient-21)" stroke-miterlimit="10" stroke-width=".74"/>
            <path d="M465.82,296.76c-.96,3.61-.17,6.73,2.01,9.39-2.65,7-12.35,7.98-15.34.56-1.2-3-.72-7.69,2.2-9.7,1.93-1.33,1.87-.63,4.18-.24,2.39.4,4.56-.09,6.94-.02h0Z" fill="url(#radial-gradient-22)" stroke="url(#radial-gradient-23)" stroke-miterlimit="10" stroke-width=".74"/>
            <path d="M586.82,287.73c9.9.29,9.86,15.13.28,15.57-10.46.49-10.88-15.88-.28-15.57h0Z" fill="url(#radial-gradient-24)" stroke-width="0"/>
            <path d="M602.8,307.19c-9.67-.19-9.86-14.73-.4-15.5,10.51-.85,11.07,15.71.4,15.5Z" fill="url(#radial-gradient-25)" stroke-width="0"/>
            <path d="M586.59,285.91c.13-4.51,0-9.12,4.89-11.06,4.18-1.67,9.07.35,10.61,4.59,1.35,3.74-.62,8.64-4.5,10.09-3.9,1.46-6.8-3.27-11-3.63h0Z" fill="url(#radial-gradient-26)" stroke-width="0"/>
            <path d="M485.5,284.53c.32,9.16-16.33,8.87-15.76-1.07.58-10.07,16.07-9.03,15.76,1.07Z" fill="url(#radial-gradient-27)" stroke="url(#radial-gradient-28)" stroke-miterlimit="10" stroke-width=".74"/>
            <path d="M463.55,313.35c.73,4.06,3.84,8.12.2,11.46-3.27,3.01-8.42,2.62-11.22-.76-2.31-2.78-2.74-8.13.12-10.81,1.93-1.81,2.07-.65,4.46,0,2.28.63,4.16.03,6.43.1h0s0,0,0,0Z" fill="url(#radial-gradient-29)" stroke="url(#radial-gradient-30)" stroke-miterlimit="10" stroke-width=".74"/>
            <path d="M568.59,283.77c2.29,3.85,5.41,5.98,9.94,6.33-1.21,3.1-2.02,6.18-.28,9.48-2.44.68-4.27,1.43-6.43,2.72-3.52-2.68-7.07-5.39-10.81-8.24,4.05-3.39,5.68-5.33,7.58-10.28h0s0,0,0,0Z" fill="url(#radial-gradient-31)" stroke-width="0"/>
            <path d="M597.12,312.21c-.24,3.26-3.59,7.77-7.4,7.04-2.39-.45-7.75-6.5-7.86-8.78-.44-8.62,15.96-7.98,15.26,1.73h0Z" fill="url(#radial-gradient-32)" stroke-width="0"/>
            <path d="M613.09,300.33c-1-3.74-2.73-9.26,1.15-12.1,2.76-2.02,7.07-1.27,9.45.95,2.58,2.42,3.18,6.21,1.27,9.18-2.91,4.53-7.41,2.11-11.86,1.98h0Z" fill="url(#radial-gradient-33)" stroke-width="0"/>
            <path d="M310.78,297.59c3.78,4.15,10.7,6.68,15.8,8.83,1.9.8,6.82,2.02,7.84,3.71,1.28,2.13-1.76,5.59-3.89,6.02-4.31.87-13.22-5.2-16.92-7.04-5.82-2.56-10-8.48-2.83-11.52h0s0,0,0,0Z" fill="url(#radial-gradient-34)" stroke-width="0"/>
            <path d="M469.96,307.95c4.18,2.48,8.94-.54,10.93,4.86,2.02,5.48-2.35,5.18-5.98,7.64-1.97,1.33-2.11,2.26-4.38,1.67-1.4-.36-3.1-2.14-3.82-3.32-2.58-4.28.14-7.92,3.26-10.84h0s0,0,0,0Z" fill="url(#radial-gradient-35)" stroke="url(#radial-gradient-36)" stroke-miterlimit="10" stroke-width=".74"/>
            <path d="M491.33,288.05c.7,2.7,2.14,5.04,5.62,5.69-.63,2.42-1.67,7.32-4.08,8.61-2.4,1.28-6.3-.27-7.83-2.25-1.45-1.89-2.06-6.14-1.18-8.33,1.4-3.49,4.14-3.82,7.48-3.72h0Z" fill="url(#radial-gradient-37)" stroke="url(#radial-gradient-38)" stroke-miterlimit="10" stroke-width=".74"/>
            <path d="M609.08,291.89c-.88-3.87-3.17-5.05-6.62-5.91.08-2.84-.26-6.76,2.17-8.64,1.9-1.46,5.48-2.48,7.72-1.79,2.91.88,8.44,6.45,6.48,9.88-1.72.36-7.08,2.28-9.75,6.47h0Z" fill="url(#radial-gradient-39)" stroke-width="0"/>
            <path d="M485.03,302.36c2.29,1.78,4.82,1.97,7.59,1.89-1.2,2.98-5.17,13.99-9.09,12.88-.58-.74-1.51-6.3-1.45-7.53.14-2.45,1.95-5.05,2.94-7.24h0s0,0,0,0Z" fill="url(#radial-gradient-40)" stroke="url(#radial-gradient-41)" stroke-miterlimit="10" stroke-width=".74"/>
            <path d="M470.17,324.81c-.41,4.17-.11,6.41,1.3,10.4-1.44,1.1-3.17,2.42-4.83,3.7-5.89-3.33-4.33-16.6,3.53-14.1h0Z" fill="url(#radial-gradient-42)" stroke="url(#radial-gradient-43)" stroke-miterlimit="10" stroke-width=".74"/>
            <path d="M582.99,304.52c-1.03,1.72-1.98,3.31-3.05,5.1-2.15-1.92-4.31-3.86-6.63-5.94,3.71-3.64,6.3-1.77,9.69.84Z" fill="url(#radial-gradient-44)" stroke-width="0"/>
            <path d="M495.97,276.79c-1.66,2.02-2.02,2.47-3.18,4.66-.71,1.33-3.47,2.45-6.26-.74-2.76-3.18-.65-6.84,1.85-8.47,3.33-2.17,8.77,2.82,7.58,4.56h0Z" fill="url(#radial-gradient-45)" stroke="url(#radial-gradient-46)" stroke-miterlimit="10" stroke-width=".74"/>
            <path d="M345.05,282.1c-1.34,1.49-3.28,3.19-4.56,4.61-1.94-2.57-5.21-6.42-7.33-8.85,3.8.18,9.02,1.83,11.9,4.25h0Z" fill="url(#radial-gradient-47)" stroke-width="0"/>
            <path d="M607.51,292.06c-2.97-1.08-7.09-.66-8.65-1.5,4.88-7.77,8.88-5.42,10.64-.42,1.51,4.29-.78,2.36-1.99,1.91h0s0,0,0,0Z" fill="url(#radial-gradient-48)" stroke-width="0"/>
            <path d="M621.25,303.95c-2.69,2.21-10.72,3.64-12.99,2.42,1.3-5.06,11.03-7.47,12.99-2.42Z" fill="url(#radial-gradient-49)" stroke-width="0"/>
            <path d="M469.45,292.95c-.15-.83-.2-3.78.52-3.79.12,0,2.31,1.95,2.3,1.97-.27.29-2.42,1.45-2.82,1.82h0s0,0,0,0Z" fill="url(#radial-gradient-50)" stroke-width="0"/>
            <path d="M601.65,350.67c-.01-.4-.08-.76-.17-1.11-.11-.74-.27-1.48-.55-2.25-.03-.08-.05-.14-.09-.22-.1-.5-.2-.99-.3-1.48-.1-.58-.22-1.14-.35-1.72-.24-1.05-.78-1.78-1.46-2.25-.04-.18-.1-.35-.14-.52,0-.15,0-.32-.02-.48.01-.41-.06-.85-.21-1.32-1.1-3.41-2.55-6.56-4.55-9.55-.35-.51-.73-.9-1.18-1.19-.18-.28-.36-.56-.54-.84-.7-1.47-1.49-2.86-2.43-4.23-.42-.61-.91-1.05-1.44-1.36-.25-.4-.49-.78-.73-1.17-.42-.68-.94-1.15-1.51-1.47-.16-.39-.39-.72-.66-.99-.25-.62-.51-1.23-.8-1.84-.56-1.17-1.71-1.77-2.92-1.89-.13-.23-.28-.46-.46-.69h0c-.28-.65-.66-1.13-1.09-1.46-.44-1.74-1.69-2.62-3.06-2.79-1.03-1.02-2.1-2-3.21-2.93-.25-.28-.52-.55-.8-.82-.08-.07-.15-.13-.23-.19-.5-.48-1.03-.96-1.62-1.43-.38-.3-.78-.5-1.15-.62-.11-.08-.22-.16-.32-.25-.41-.43-.83-.85-1.29-1.25-.38-.33-.82-.57-1.27-.75-.45-.43-.94-.83-1.47-1.2-.45-.48-.98-.91-1.55-1.31-.17-.15-.35-.3-.53-.46-.88-1.09-1.93-2.02-3.2-2.87-.13-.09-.28-.15-.41-.22-2.6-2.14-5.33-4.1-8.61-5.49-7.58-3.21-14.48-7.49-22.34-10.19-6.43-2.2-13.66-4.97-20.43-3.41-1.65-.05-3.32.2-5.18.35-3.43.27-6.34,2.46-8.29,5.18-1.85,2.59-3.08,6.58.22,8.65,2.57,1.61,5.96-.27,8.25-1.97.52-.01,1.05-.09,1.56-.2.46-.1.91-.2,1.33-.25.24.2.5.38.78.52,1.12.85,2.52.79,3.7.17.1.03.2.04.3.07.89.21,2.4.35,3.1.86,1.16.86,2.33.92,3.3.51.41.14.82.26,1.23.4.6.57,1.43.94,2.51.96h.16c.45.17.9.32,1.35.51.81.32,1.55.35,2.18.2,1.7.59,3.31,1.42,4.95,2.21,2.93,1.38,5.87,2.74,8.79,4.16h0c.18.35.45.68.81.98.64.53,1.27.96,1.93,1.33.17.15.37.31.6.49,1.6,1.24,3.69,1.3,5.28,2.44.89.63,1.79.81,2.59.68.26,1.11,1.08,2.03,2.64,2.31.87.16,1.74.31,2.62.47.14.65.52,1.28,1.19,1.86,3.21,2.73,6.05,5.74,8.58,9.1,1.12,1.48,2.8,1.58,4.21.92.35.3.71.61,1.06.91.02.04.03.09.06.13.32.68.76,1.17,1.24,1.5.11.16.22.34.32.51.26.38.57.69.92.95.16.21.32.43.5.64.18.23.37.42.56.58.03.04.06.09.09.13.4.58.74,1.17,1.04,1.82.35.68.78,1.18,1.27,1.51.06.08.12.15.18.23.47.68.94,1.35,1.41,2.03.3.44.66.78,1.05,1.05,1.05,1.57,2.09,3.14,3.13,4.71.46.7,1.04,1.17,1.65,1.48.06.14.12.28.19.42.04.13.09.27.14.4.43,1.08.85,2.14,1.28,3.22.35.87.93,1.42,1.64,1.73.46.8.95,1.57,1.47,2.33-.04.42-.03.85.08,1.32.46,1.95,1.15,3.74,2.11,5.5.11.19.23.37.36.54.36,2.25.16,4.32-.63,6.66-1.47,4.33,4.64,6.58,6.92,3.32,1.04-.28,1.98-1.09,2.44-2.55.3-.94.53-1.88.74-2.82.11-.17.2-.37.28-.57.65-.6,1.07-1.49,1.04-2.71s-.07-2.43-.1-3.65v-.02s-.04,0-.04,0Z" fill="url(#radial-gradient-51)" stroke-width="0"/>
            <path d="M586.6,274.84c-.26.1-.52.19-.78.29-.25-.4-.06-.63.59-.69.06.13.12.28.19.41h0Z" fill="#fff" stroke-width="0"/>
            <path d="M481.22,306.14c.59.24-.36,3.69-.79,4.2-1.38-.22-.56-3.68.79-4.2Z" fill="url(#radial-gradient-52)" stroke-width="0"/>
          </g>
          <path d="M623.29,302.18c-.26-.04-.06-.6.8-.96,0,0,2.46-2.37,2.72-3.19.96-2.99,2.03-5.68-1.22-9.78-.06-.09-.16-.15-.24-.23-1.22-1.07-3.9-2.62-5.61-2.74,0,0,1.47-3.35-1.54-6.67-1.35-1.49-3.09-2.58-5.83-3.42-2.68-.83-5.73.26-6.6,1.08-2.23,2.09-3.4.66-5.53-1.43-.95-.51-2.3-1.25-3.54-1.58-.42-.11-1.12-.16-1.19-.2-.52-.26,4.83-8.78,6.06-13.32,1.13-4.17,2.67-13.52.64-22.16-.92-3.92-2.22-7.75-3.75-11.49-.74-1.8-1.46-4.69-2.77-6.16-1.74-1.95-1.19-1.31-2.94.12-2.42,1.98-4.65,6.66-6.92,8.99-1.78,1.83-3.57,3.65-5.2,5.6-3.84,4.55-8.21,8.77-11.82,13.58-2.15,2.86-3.41,7.04-5.71,9.6-2.34-2.35-5.38-3.32-8.54-4.11,2.4-5.89,4.03-11.35,3.39-17.8-.3-3-1-5.93-1.89-8.81-.8-2.58-1.64-7.63-3.47-9.65-1.95-2.15-2.47-.45-4,1.71-1.99,2.82-3.89,5.71-5.92,8.52-1.97,2.74-4.05,5.4-6.01,8.16-1.48,2.09-2.91,5.72-4.99,7.23-6.93-8.84-19.73-9.45-26.49-7.35,1.34,3.13,3.75,6.04,5.32,9.13,1.81,3.54,3.38,7.2,5.36,10.66.29.52.85,1.26,1.37,2.06-2.82-1.15-6.46-.58-10.59,2.35-.5-3.99-1.8-7.2-5.14-9.41l-3.25.34c.09.15.15.31.23.48.08.08.14.16.2.24,1.03.21,3.29.92,4.83,3.16.95,1.38,1.41,3.13,1.25,5.1,0,0-.38.1-.72.05-2-1.2-4.1-2.22-6.23-2.66-.08.06-2.25-.91-7.51,1.72-4.53,2.27-5.42,8.91-3.97,13.84-.95.38-2.36,4.46-3.93,3.64-2.31-1.22-7.16-1.43-8.88-.6-3.85,1.85-4.75,4.06-5.34,5.51-4.11-3.52-9.88-4.49-14.05-.39-4.13,4.07-2.55,9.52.32,13.83-5.17,4.65-5.68,9.94-1.84,15.7-7.45,7.78-2.15,20.02,8.97,17.73-1.43,4.89.4,7.91,2.56,12.2-2.75,1.56-5.69,4.11-8.93,3.9-3.22-.21-5.5-1.99-8.95-1.26-7.01,1.5-7.42,6.73-8.88,12.31-2.56,2.21-8.78,2.82-12.07,3.46-4.16.82-5.98,1.52-9.24-.92-5.73-4.29-15.39-3.96-17.22,4.32-8.75-.81-17.69-1.68-26.02-4.67-5.67-2.04-4.78-9.48-11.67-10.91-2.94-.61-5.57,1.21-8.17.33-2.17-.74-7.47-5.6-7.86-7.87-.6-3.44,1.21-5.89-1.32-9.07-1.99-2.49-4.83-3.13-7.88-3.22-1.21-4.08-2.89-6.78-.79-10.36,1.45-2.47,3-4.54,1.36-7.49-.9-1.61-2.49-2.14-2.91-3.92-.39-1.61,1.13-4.62,1.72-6.1,1.12-2.86,2.45-5.73,4.61-7.82,2.15-2.08,4.67-4.26,6.7-6.85,2.64-3.36.31-5.06-3.19-6.88-3.17-1.65-16.93-4.59-13.87,2.48-6.56,4.04-11.57,9.59-15.36,16.27-6.52-1.23-11.74,3.9-8.65,10.48.99,2.12,1.76,1.95,1.71,4.35-.03,1.66-.99,3.98-1.3,5.63-.7,3.79-.83,7.59-1.27,11.4-9.6,4.24-8.44,13.18-1.22,19.25,3.94,3.31,4.77,9.88,6.93,14.58,2.19,4.77,4.97,9.17,7.74,13.63-1.94,6.21-1.04,11.8,5.47,14.89,2.85,1.36,5.66.65,8.49,1.53,2.96.92,5.91,4.26,8.43,6.03,12.29,8.65,25.72,14.58,39.68,20.04-.23,7.61,4.85,12.49,12.69,12.08,3.83-.2,7.15-1.77,10.34-3.74,3.74-2.31,5.86-1.38,10.25-.81,8.39,1.1,16.89,1.44,25.35,1.47,4.18.02,8.36-.11,12.53-.4,3.43-.24,7.49-1.51,10.4.44,2.68,1.8,3.7,3.36,7.35,3.35,2.87,0,5.63-.96,7.84-2.79,2.18-1.81,3.18-4.56,5.73-5.91,2.99-1.58,9.83-3.26,13.1-4.18,16.54-4.64,30.13-10.18,45.55-17.6,4.48,3.35,9.47,3.49,13.68-.58,3.8-3.68,2.39-8.42,4.74-12.45,1.13-1.94,4.16-3.29,5.97-4.59,1.61-1.15,3.2-2.33,4.78-3.53-1.15,3.3-1.7,6.81-1.77,10.29-.12,5.45.81,10.91,2.3,16.14.66,2.3,2.62,11.82,5.15,12.55,2.07.6,8.16-10.65,9.39-12.47,3.27-4.82,6.79-9.61,9.18-14.94.85-1.87,1.5-3.83,1.92-5.81,2.35,3.25,3.82,5.31,4.15,5.83,2.15,3.28,18.1,19.17,19.5,13.71,2.57-10.05,4.39-21.75,5.03-32.09.61-10.1-2.77-17.29-10.05-24.14,1.22-1.37,3.65-1.98,5.23-3,2.27-1.46,4.36-3.2,6.21-5.17,3.28-3.51,6.01-7.83,7.16-12.51,2.52-10.27-3.94-23.71-10.61-24.91l.02-.02h0ZM623.69,289.18c2.58,2.42,3.18,6.21,1.27,9.18-2.91,4.53-7.41,2.11-11.86,1.98-1-3.74-2.73-9.26,1.15-12.1,2.76-2.02,7.07-1.27,9.45.95h0ZM621.25,303.95c-3.75,1.14-9.78,1.85-12.6,2.57,2.11-4.84,7.35-6.83,12.6-2.57ZM606.13,277.63c1.9-1.46,4.36-1.62,6.6-.94,2.91.88,7.55,5.3,5.58,8.72-3.16.05-6.08,1.09-8.16,4.68-.88-3.98-3.76-4.49-7-4.35.88-3.47.55-6.23,2.99-8.11h0ZM586.82,287.73c9.9.29,9.86,15.13.28,15.57-10.46.49-10.88-15.88-.28-15.57h0ZM576.87,287.67c-10.16-.36-9.13-16.37,1.03-15.75,10.19.63,9.13,16.12-1.03,15.75ZM578.53,290.1c-1.21,3.1-2.02,6.18-.28,9.48-2.44.68-4.27,1.43-6.43,2.72-3.52-2.68-7.07-5.39-10.81-8.24,4.05-3.39,5.68-5.33,7.58-10.28,2.29,3.85,5.41,5.98,9.94,6.33h0s0,0,0,0ZM582.99,304.52c-1.03,1.72-1.98,3.31-3.05,5.1-2.15-1.92-4.31-3.86-6.63-5.94,3.71-3.64,6.3-1.77,9.69.84ZM597.12,312.21c-.24,3.26-3.59,7.77-7.4,7.04-2.39-.45-7.75-6.5-7.86-8.78-.44-8.62,15.96-7.98,15.26,1.73h0ZM602.39,291.69c10.51-.85,11.07,15.71.4,15.5-9.67-.19-9.86-14.73-.4-15.5h0ZM609.56,292.36c-6.08-2.72-8.43-1.34-10.7-1.8,6.81-8.35,11.06-1.12,10.7,1.8ZM602.09,279.44c1.35,3.74-.62,8.64-4.5,10.09-3.9,1.46-6.8-3.27-11-3.63.13-4.51,0-9.12,4.89-11.06,4.18-1.67,9.07.36,10.61,4.59h0ZM593.72,272.05c-1.56.42-3.04.89-4.46,1.44-1.02.39-3.82-.19-5.16-.02,2.12-3.78,11.9-11.43,14.87-11.78-.16,4.25-3.67,6.77-5.25,10.37h0ZM599.07,261.11c-.26-.72-7.2,2.33-8.4,3.29-2.56,2.04-5.43,6.27-8.62,7.03,1.03-4.23,2.57-10.55,5.63-13.73,3.02-3.14,9.16-6.33,13.21-7.88,1.07,2.16-.13,9.35-1.83,11.29h0s0,0,0,0ZM595.48,224.72c.91,1.53,2.82,4.8,2.4,6.55-.41,1.71-3.49,3.98-4.68,5.22-.41-3.15.73-8.98,2.28-11.77h0ZM599.11,233.61c1.54,4.25,2.52,8.54,2.71,13.08-4.68,2.84-9.31,5.65-13.95,8.46l-.28-.23c2.8-7.6,2.91-17.51,11.53-21.31h0ZM592.11,224.65c.15.06.31.13.46.18.03,1.81.14,3.61-.48,5.35-.17.03-.33.08-.51.11-.57-.99-1.14-1.99-1.74-3.04.83-.96,1.55-1.79,2.27-2.62h0ZM589.02,228.41c1.8,2.96,3.51,5.64,1.58,9.15-2.58-2.85-4.4-6.36-1.58-9.15ZM586.1,232.07c1.48,3.46,3.93,7.22,3.28,11-.44,2.55-1.94,9.99-3.75,11.81-1.92-3.68-5.22-10.62-5.42-14.75-.16-3.17,3.26-6.4,5.89-8.06h0ZM565.99,256.64c2.24-6.57,7.87-11.28,12.49-16.17,4.64,8.67,8.54,20.24,1.9,28.89-1.67-1.88-2-4.67-3.14-7.15-.94-2.06-5.8-12.73-6.18-13.97-1.42,2.02,6.94,18.37,7.75,21.88-1.6.23-3.02.44-4.61.66-.95-1.5-2.48-1.31-4.16-.67.94.32,1.86.65,3.06,1.07-1.26,1.11-2.36,2.09-3.66,3.24-.6-3.09-.48-6.36-1.57-9.33-1.27-3.41-3.17-4.68-1.88-8.45h0ZM554.73,249.25c-1.51,4.65-3.67,4.47-8.3,5.32,2.03-3.16,5.58-5.83,8.24-8.45-1.3-2.16-7.76,7.11-9.68,8.1.48-2.89,1.07-7.06,2.68-9.54,1.63-2.5,5.97-5.23,8.62-6.59.23,3.67-.42,7.63-1.56,11.15h0ZM551.17,220.39c1.25,1.3,1.88,2.56,2.69,5.22-1.08,1.2-2.03,2.61-3.81,3.8.39-3.16.74-5.95,1.12-9.02ZM554.27,227.06c1.1,1.91,2.87,6.71,2.14,8.9-.61,1.79-6.46,5.52-8.34,6.15.43-2.69.58-5.7,1.35-8.31.83-2.79,2.9-4.57,4.86-6.74h0ZM549.1,221.33c.48,1.59.13,5.93-.97,8.04-1.47-3.45-2.38-5.28.97-8.04ZM545.36,226.16c2.63,5.56,2.62,8.89,1.54,14.9-.14.03-.27.05-.42.09-1.34-1.89-3.55-6.54-3.87-8.88-.34-2.61,1.21-4.04,2.75-6.1h0s0,0,0,0ZM540.97,232.14c1.93,3.02,3.98,7.5,4.73,11.02.62,2.96-.79,6.2-1.56,9.09-2.69-3.71-4.31-7.55-6.29-11.16-.15.04-.3.09-.45.13.86,4.58,5.05,8.24,5.62,12.77-2.3,1.05-7.2-3.45-7.95-5.35-.77,1.14-.57,3.27-2.9,2.24-2.13-6.55,5.2-14.01,8.81-18.75h0s0,0,0,0ZM543.7,258.71c-.1.16-.19.32-.3.49-2.73-.3-6.98-1.64-9.35.03,4.06,3.51,13.67,2.22,18.71,1.97.9-.04,5.26.62,3.76-1.44-1.03-1.41-8.48-.23-10.13-.16-.66-4.77,5.28-4.71,8.82-3.86,4.86,1.17,8.77,5.32,10.58,9.83,3.59,8.85.69,21.19-6.61,27.44-12.93-8.3-26.26-15.67-41.68-18.36-.11-.46-.2-.92-.27-1.38.35-7.5.72-8.23,3.54-12.9,5.54-7.47,16.06-10.85,22.94-1.64h0s0-.02,0-.02ZM519.24,249.21c3.74-3.36,6.26.07,8.79,2.93-3.01.2-5.51-2.67-8.79-2.93ZM530.02,251.31c-2.22-1.78-3.37-8.13-3.45-10.94,3.87,2.11,5.94,6.98,3.45,10.94ZM527.26,248.95c-1.3-.12-5.28-3.82-6.08-4.97-1.26-1.82-1.22-4.83-1.59-7.01,6.68,1.02,6.44,6.39,7.66,11.98h0ZM518.29,236.48c.4,1.96.79,3.82,1.19,5.73-3.33-.72-5.34-2.78-5.99-6.34,1.69.21,3.19.39,4.81.6h0ZM512.44,237.78c-1.37.14-2.28-.75-3.68-1.33,2.65-1.03,3.13-.84,3.68,1.33ZM507.88,237.23c1.97.88,3.6,1.7,5.56,2.89-3.24.31-4.42-.32-5.56-2.89ZM510.52,241.87c2.63-1.49,6.39-.39,8.56,2.65-2.93-.25-7.47.62-8.56-2.65ZM512.21,245.53c2.64-.78,8.07-.24,9.81,1.01-2.13,1.23-6.01,1.54-8.46,2.01,3.4,1.12,9.17,1.43,11.95,4.68-1.2.93,1.32-1,0,0-1.08-1.49-7.73,1.75-8.46-.15,3.17-.05,7.13,1.93,7.13,1.93-.01,1.41-4.41,3.35-4.68,3.54-3.19-2.67-5.46-9.19-7.29-13.03h0ZM517.94,277.86c.05.07.11.14.16.21.22-.02.43-.04.65-.07.47,0,.93.11,1.34.3,3.63.8,7.19,1.9,10.65,3.24,12.91,5.01,25.2,12.33,36.04,20.88,10.64,8.39,20.76,18.4,27.45,30.25,3.18,5.62,6.4,12.38,6.98,18.88.52,5.74-2.74,15.68-10.32,11.83,3.72-10.9-3.88-22.97-10.27-31.35-6.54-8.58-14.48-16.27-23.08-22.81-7.98-6.07-31.05-18.61-45.79-20.17-6.33-1.16-7.55-1.58-12.18,1.46-1.74,1.14-4.06-.43-4.06-.43-1.03-.77-1.4-2.46-1.4-3.63,0-1.63.86-5.28,3.92-7.28,2.74-1.79,6.49-2.1,9.68-2.17,3.44-.08,6.86.24,10.24.85h0ZM569.68,347.45c-6.18,7.65-13.12,15.3-15.7,16.93-2.09-3.61-4.18-7.21-6.38-11.01,4.85-5.45,20.14-25.51,22.38-28.72,3.27,3.46,6.21,6.8,8.78,10.53-1.68,2.66-9.22,12.07-9.07,12.27h0ZM480.89,312.81c2.02,5.48-2.35,5.18-5.98,7.64-1.97,1.33-2.11,2.26-4.38,1.67-1.4-.36-3.1-2.14-3.82-3.32-2.58-4.28.14-7.92,3.26-10.84,4.18,2.48,8.94-.54,10.93,4.86h0s0,0,0,0ZM480.4,307.39c.59.24.68.62.24,1.13-.64-.2-.72-.59-.24-1.13ZM474.9,307.8c-10.08-.2-9.92-15.88.19-15.68,10.23.2,10.13,15.89-.19,15.68ZM470.59,290.74c.12,0,.36.36.34.38-.27.29-.56.55-.97.93-.15-.83-.09-1.29.62-1.29h0ZM485.03,302.36c2.29,1.78,4.82,1.97,7.59,1.89-1.2,2.98-5.17,13.99-9.09,12.88-.58-.74-1.51-6.3-1.45-7.53.14-2.45,1.95-5.05,2.94-7.24h0s0,0,0,0ZM498.76,298.87c2.28-5.47,3.6-10.38,10.85-8.05-1.82,6.89-5.22,13.66-8.58,19.92-.91,1.69-2.3,5.73-4.06,6.74-1.61.91-5.19-.29-6.85-.52,2.33-6.19,6.08-11.94,8.65-18.08h0s0-.01,0-.01ZM511.42,291.06c4.92.49,9.51,2.22,14.53,4.05-4.43,9.64-9.14,18.78-15.19,27.21-4.1-1.4-8.04-2.76-12.02-4.11,4.59-8.95,8.77-17.87,12.69-27.14h0s0,0,0,0ZM527.3,295.75c2.08.78,4.08,1.65,6.03,2.58.38.5,6.64,3.08,6.82,3.54.05.03.11.05.17.09-.02.05-.05.12-.07.19.02.07.05.14.06.21.03.34-2.51,4.55-2.57,4.57-4.35,7.52-12.6,20.09-14.89,22.3-3.51-2.05-6.9-4.03-10.54-6.15,5.47-8.92,10.39-17.93,15-27.34h0ZM539.9,307.06c.21-.26,1.6-3.28,2.09-4.04,4.35,2.21,11.17,6.79,12.86,8.62-.57,1.24-17.11,25.82-19.28,27.94-3.67-3.05-7.35-6.11-11.01-9.15,4.99-7.86,15.32-23.36,15.33-23.37h0ZM550.48,321.41l1.24-1.83c1.57-2.29,3.13-4.58,4.71-6.9,4.45,3.23,8.53,6.9,12.35,10.83-1.06,1.83-3.58,5.4-6.57,9.41,0,0-13.81,17.64-15.6,18.91-3.15-3.61-6.31-7.22-9.49-10.86,4.42-6.46,8.87-12.98,13.36-19.57h0ZM504.76,262.69c-.73.3-1.25.51-2.2.9,1.03.63,6.1,1.17,6.1,1.17,2.73-.02,5.48-.61,6.51-2.16.8-1.22.87-1.35-.62-1.49-2.22-.21-4.75,1.94-7.18,2l-.23-.29c2.1-3.06,7.79-5.07,11.7-3.33-.44.73-3.32,9.45-3.6,12.95v.02c-.09.14-.61,2.07-1.8,1.91-2.35-.27-1.54-.29-4.24-.5-2.8.08-4.01-.17-6.31.27-2.27.44-3.62,1-5.57,2.12-2.18-3.48-5.37-5.34-9.51-5.05-1.68-10.92,9.18-15.87,16.96-8.53h0s0,0,0,0ZM488.15,273.05c2.09-.88,8.09,1.8,7.43,3.89-1.66,2.02-2.23,2.87-3.4,5.05-2.16.85-3.24-.26-5.26-2.31-.69-2.38-1.42-5.53,1.23-6.63h0ZM491.33,288.05c.7,2.7,2.14,5.04,5.62,5.69-.63,2.42-1.67,7.32-4.08,8.61-2.4,1.28-6.3-.27-7.83-2.25-1.45-1.89-2.06-6.14-1.18-8.33,1.4-3.49,4.14-3.82,7.48-3.72h0ZM485.59,284.54c.32,9.16-16.33,8.87-15.76-1.07.58-10.07,16.07-9.03,15.76,1.07ZM461.11,279.76c10.06.21,9.91,15.86-.28,15.64-10.08-.21-9.92-15.85.28-15.64ZM452.49,306.69c-1.2-3-.72-7.69,2.2-9.7,1.93-1.33,1.87-.63,4.18-.24,2.39.4,4.56-.09,6.94-.02-.96,3.61-.17,6.73,2.01,9.39-2.65,7-12.35,7.98-15.34.56h0ZM452.54,324.05c-2.31-2.78-2.74-8.13.12-10.81,1.93-1.81,2.07-.65,4.46,0,2.28.63,4.16.03,6.43.1.73,4.06,3.84,8.12.2,11.46-3.27,3.01-8.42,2.62-11.22-.76h0s0,0,0,0ZM470.17,324.81c-.41,4.17-.11,6.41,1.3,10.4-1.44,1.1-3.17,2.42-4.83,3.7-5.89-3.33-4.33-16.6,3.53-14.1h0ZM471.31,339.6c2.86-2.11,6.57-4.71,9.51-5.89,23.36-15.41,76.54,49.68,59.51,63.89-4.93,1.64-21.86,9.72-27.16,12.17-2.13.98-33.12,10.96-31.81,9.06,9.62-14.07-2.65-64.19-20.98-72.21,3.72-2.25,7.44-4.44,10.95-7.02h0s0,0,0,0ZM435.67,359.72c5.29-1.77,7.84-2.9,13.31-1.26-1.23,3.46-12.11,4.85-15.19,5.37-3.04.51-12.19,3.27-13.01-.67,5.01-.96,10.03-1.83,14.88-3.45h0ZM452.71,408.35c-10.7.7-24.3,1.59-34.62-1.63,1.37-4.01,2.69-7.89,4.1-12.03,14.49.32,28.99-.69,43.67-3.67.26,2.06.59,4.1.76,6.18.15,1.79,1.13,6.62.35,8.19-1.59,3.16-10.73,2.74-14.26,2.97h0ZM465.38,416.23c-1.27,1.28-3.83,1.02-5.49,1.2-5.44.6-10.89.96-16.37,1.08-10.19.23-21.11.51-31.12-1.52,1.64-2.89,3.18-5.6,4.83-8.52,16.45,2.24,32.9,2.35,49.34-.05.07,1.7.1,6.49-1.2,7.81h0ZM422.39,392.97c1.22-5.96,1.47-11.67,1.28-17.62,12.06-.26,23.91-1.4,35.59-4.83,3.52,5.82,5.2,12.13,6.3,18.94-14.21,2.96-28.45,3.96-43.17,3.5h0s0,0,0,0ZM423.51,373.73c-.52-2.31-1-4.5-1.54-6.95,7.42-.93,14.66-1.43,21.78-3.91,2.36-.82,5.62-3.23,7.99-2.39,2.62.93,5.54,6.47,6.77,8.75-11.61,3.25-23.16,4.42-35,4.51h0ZM344.17,281.83c-1.34,1.49-2.49,2.76-3.78,4.18-1.94-2.57-3.94-5.02-6.07-7.45,3.8.18,6.97.86,9.85,3.27h0s0,0,0,0ZM331.38,280.96c-.57.65,7.32,6.26,6.46,7.49-2.14,3.06-3.06,5.24-4.38,7.83-.97,1.92-1.19,3.3-3.08,7.21-.11-.34-15.4-5.08-14.99-5.57,1.27-1.52,5.3-6.86,7.83-9.28,2.17-2.07,4.46-4.86,8.16-7.66h0s0-.01,0-.01ZM311.02,298.94c3.78,4.15,9.68,6.78,14.79,8.94,1.9.8,6.56,1.03,7.58,2.72,1.28,2.13-.63,4.14-2.75,4.57-4.31.87-12.35-4.27-16.05-6.12-3.76-1.87-10.74-7.08-3.56-10.12h0ZM307.58,332.15c-2.01-8.27,1.15-12.94,1.68-20.01.06-.94.43-3.21,1.16-2.62,4.52,3.67,16,8.11,21.56,7.68-.79,2.43.23,5.47.32,6.06.27,1.69,1.45,4.1,1.43,5.94-.1,7.32-19.7,11.98-26.15,2.95h0s0,0,0,0ZM302.09,341.15c-1.79-3.06-1.86-8.49,2.55-9.29,3.18,9.04,14.36,9.12,22.54,6.46,2.28-.74,4.73-1.72,6.66-3.17,1.29-.97,2.66-3.89,3.98-4.42,4.04-1.63,4.92,5.09,3.78,7.41-4.07,8.21-20,9.58-27.81,8.81-4.52-.44-9.25-1.62-11.69-5.8h0s0,0,0,0ZM308.58,349.16c2.63,3.22,31.55.84,34.02-7.25.79-2.6,7.03,7,11.04,9.33,2.61,1.51,1.8,7.49-3.65,14.81-3.42,4.6-22.03,13.3-29.14,8.67-5.89-9.63-9.06-15.35-12.27-25.55h0ZM321.16,377.73c4.79,1.56,7.72,2.47,12.79.99,4.21-1.23,8.26-3.14,11.84-5.68,7.98-5.65,12.93-12.77,11.47-22.62,7.5-4.71,9.15,7.91,7.99,12.01-1.95,6.84-7.23,12.4-12.74,16.65-5.53,4.27-12.14,7.81-19.13,8.94-5.76.94-16.51-2.54-12.23-10.3h0s0,0,0,0ZM385.23,416.31c-5.42.5-17.13-6.87-22.04-9.23-8.92-4.31-20-9.77-27.22-16.63,23.34-6.85,35.23-24.9,33.32-31.78-.05-.21,6.82,2.43,12.1,3.35,6.73,1.17,13.36,2.26,19.87,3.27,12.98,1.66,3.53,49.23-16.04,51.03ZM403.28,421.97c-3.37,2.78-7.51,4.89-12,4.63-3.22-.18-9.49-2.9-7.31-7.19,12.15,3.58,21.47-15.61,24.38-24.29,1.93-5.75,3.1-12.2,2.69-18.28-.47-6.93-2.43-10.95-8.08-14.78.94-4.62,6.85-4.19,9.96-2.3,3.36,2.05,5.01,5.7,6.06,9.32,2.66,9.24,1.24,20.07-1.55,29.13-2.62,8.5-7.12,17.99-14.14,23.78h0ZM454.48,422.85c-4.99.4-10,.59-15.01.58-9.92-.01-20.8-.11-30.5-2.25,2.95-3.58,5.43-2.18,9.83-1.77,5.41.52,10.84.75,16.28.77,9.9.04,19.66-1.35,29.52-1.56-1.32,4.53-6.17,3.9-10.12,4.21h0s0,0,0,0ZM480.42,410.03c-.71,6.36-6.12,23.64-15.76,15.18,9.38-10.55,6.19-30.84,2.89-43.13-1.9-7.09-4.69-13.83-9.34-19.59-4.42-5.49-5.94-6.15-11.87-8.19-1.51-.51-6.53.64-4.47-4.55,3.06-7.68,16.69-1.13,20.98,3.14,6.97,6.92,11.42,16.63,14.12,25.91,2.93,10.02,4.59,20.81,3.44,31.24h0s0,0,0,0ZM544.91,398.48c6.01-15.51-5.79-35.04-16.01-46.1-11.62-12.57-28.78-26.31-46.5-23.12-4.78.86-8.74,5.77-9.38,3.5-2.71-9.55,3.55-11.26,5.47-11.95,8.09-2.9,16.22-.5,23.85,1.98,16.16,5.25,30.9,16.89,40.92,30.42,5.67,7.67,10.03,16.41,11.87,25.79,1.16,5.88,1.17,24.62-10.22,19.47ZM555.55,365.47c1.26-3.01,6.52-6.73,8.67-9.14,2.22-2.48,4.31-5.05,6.36-7.65.14.19,2-2.57,2-2.57,2.4-3.13,4.76-6.28,7.16-9.41,1.39,1.82,5.43,6.73,5.22,9.17-.19,2.29-3.77,5.54-6.39,7.88,0,0-14.53,14.5-21.26,19.58-.97-2.56-2.79-5.41-1.76-7.85h0s0,0,0,0ZM559.38,382.45c-1.64-2.75-1.94-6.47-.02-8.74,2.68-3.17,6.7-5.78,9.76-8.65,2.68-2.51,8.62-8.02,8.82-8.27.49-.46,1.38-2.11,1.38-2.11,2.21-2.34,4.42-4.68,6.71-6.96,1.28,2.63,3.15,7.23,2.4,10.29-.35,1.45-1.61,2.92-3.11,4.29,0,0-4.79,3.86-5.47,4.45-6.46,5.58-13.21,11.16-20.46,15.68h0ZM585.58,369.19c-.36,5.98-6.26,13.71-13.76,12.2l12.93-13.34c.28.39.56.76.83,1.15h0ZM571.54,384.58c3.81,3.11,8.21-5.3,11.63-6.14-.9,3.53-1.33,7.02-4.27,9.16-2.26,1.64-5.24,4.28-7.95,4.87-.06-2.63-.3-5.14.58-7.88h0ZM571.12,394.65c3.02-1.86,5.95-3.66,9.14-5.63-.21,3.16-1.2,6.58-2.11,9.64-.94,3.18-2.36,4.12-5.05,5.98-1.1-3.36-1.78-6.63-1.99-10h0ZM575.67,411.6c-1.17-1.73-1.36-3.37-2.17-5.05,1.07-.79,2.01-1.47,3.36-2.46-.42,2.68-.76,4.86-1.19,7.51h0ZM577.57,412.83c.33-2.31.61-4.27.94-6.46,2.17,2.6,2.6,2.8-.94,6.46ZM579.6,403.41c1.06,1.1,1.93,2.29,1.92,3.91-1.19-1.05-1.9-2.32-1.92-3.91ZM583.08,405.41c-3.44-5-2.91-7.51-1.49-13.17,1.17,2.18,2.13,4.49,2.94,6.84,1.03,3,.43,3.74-1.44,6.33ZM586.69,399.94c-1.28-3.03-2.97-6.19-3.74-9.39-.73-3.02.43-5.89,1.14-8.87.19-.04.4-.08.59-.13,2.15,3.83,4.29,7.64,6.43,11.48-1.1,2.25-2.59,4.48-4.42,6.91ZM591.79,391c-1.47-2.12-4.08-6.35-5.16-10.94-.81-3.5-.93-7.13-.28-9.8,3.61,4.95,6.7,9.2,9.1,12.52-.17,2.65-2.28,6.75-3.66,8.22h0ZM597.22,380.25c-3.63-5.02-9.31-10.56-9.59-13.47.03-1.13,3.38.61,3.4.28,1.63-.08,3.09.25,4.89-.12,1.68.03,3.84-1.52,4.87-2.48,3-5.16,2.34-3.66,4.77-9.24.14.36.35.98.4,1.76.27,3.76-1.87,5.86-4.05,10.48-2.42,5.14-4.26,11.98-3.62,12.34.67.38,2.13-6.87,4.52-11.27,1.98-3.63,3.01-6.95,3.56-9.24.04.26.09.6.14,1.01,0,0,.05.41.09.83.07.68.34,6.08.09,8.31-.39,3.47-3.08,8.56-7.62,13.58-.61-.72-1.25-1.68-1.87-2.76h0ZM600.56,384.74c-.08-1.45,2.45-4.53,3.18-5.8,1.45-2.5,2.9-5,4.34-7.49.76,3.86,1.46,7.73,2.2,11.6.94,4.87.13,7.02-2.22,11.46-2.3-2.31-7.33-6.38-7.51-9.75h0s0-.01,0-.01ZM609.57,395.95c.75-1.57,1.47-3.08,2.18-4.6.13.03.26.05.4.07.85,2.89,1.69,5.79,2.54,8.68-1.91-1.13-3.49-2.54-5.11-4.16h0ZM618.33,401.66c-1.25-1.02-2.62-4.7-2.88-7.65,1.28.78,2.36,1.43,3.64,2.2-.24,1.73-.5,3.54-.76,5.46h0ZM619.67,393.81c-3.5-.47-5.28-2.38-6.08-5.56.14-.06.28-.12.43-.19,2.09,1.66,4.15,3.35,5.88,5.37l-.22.38h0s0,0,0,0ZM620.26,390.7c-2.43-1.71-5.79-3.71-7.39-6.24-1.62-2.56-1.73-7.44-2.32-10.36.13-.04.25-.09.38-.14,2.8,2.9,5.75,5.71,8.41,8.73,2.46,2.78,1.59,4.38.93,7.99h0ZM618.54,354.31c2.59,1.69,5.28,9.26,4.41,12.14-.63.4-1.27.81-1.88,1.21,1.12,2.16,2.06,1.15,2.1,4.04.04,3.3-.83,6.89-1.2,10.18-3.74-2.23-8.86-7.74-11.27-11.38-2.06-3.13-3.03-9.52-2.64-13.24.17-.13.34-.25.51-.37.82,1.9,10.44,13.29,11.96,10.69-4.48-5.22-10.19-9.51-13.62-15.68.09-.14.17-.27.26-.4,2.2.62,4.3,1.48,6.54,1.9,1.58.3,3.46.01,4.83.91h0s0,0,0,0ZM616.21,351.58c-1.77.35-11.32-1.45-10.19-4.28,4.04-.14,7.36,1.18,10.19,4.28ZM620.82,341.75c-4.56,3.37-15.26,6.92-18.66.6-1.88-3.49-2.9-7.44-4.92-10.95-2.06-3.6-4.47-6.96-6.84-10.36,7.1-2.43,8.31-4.29,8.36-12.76,4.73.76,8.06-.53,12.66-1.07,4.16-.49,7.45-.82,11.63-2.4,14.47,9.12,9.75,28.1-2.23,36.94h0s0,0,0,0Z" fill="url(#radial-gradient-53)" stroke-width="0"/>
        </g>
      </g>
    </g>
  </g>
  <g id="logo-2" data-name="logo">
    <g id="trust">
      <path d="M655.82,640.26c-29.26,2.39-37.6,4.46-60.83-30.3-9.81-14.68,24.43-77.05,33.07-76.1" fill="#e6e6e6" stroke="#58595b" stroke-miterlimit="10" stroke-width="1.92"/>
      <path d="M618.56,637.78c-6.86-4.83-27.52-28.79-26.36-33.43,2.49-9.98,40.27-9.95,42.27-3.14,1.26,4.3-10.81,9.15-14.29,16.97-3.34,7.49-4.38,15.43-1.62,19.6,2.3,3.48,38.98,10.21,94.03-13.52l-51.13-47.33,45.87-60.06-80.28,16.91" fill="#ebebeb" stroke="#58595b" stroke-linecap="round" stroke-miterlimit="10" stroke-width="1.92"/>
      <path d="M588.73,603.28c2.61,2.12,8.24,10.52,14.83,18.93,6.6,8.44,18.63,17.91,16.29,16.47-13.91-8.53,32.65-10.96,26.47-33.33-6.82-24.67-60.45-4.41-57.59-2.08Z" fill="#999" stroke="#58595b" stroke-linecap="round" stroke-miterlimit="10" stroke-width="1.92"/>
      <path d="M369.61,603.89c-2.79,2.09-8.82,10.35-15.87,18.63-7.07,8.3-19.94,17.62-17.44,16.21,14.89-8.4-34.95-10.79-28.33-32.8,7.3-24.28,64.71-4.34,61.64-2.04Z" fill="#999" stroke="#58595b" stroke-linecap="round" stroke-miterlimit="10" stroke-width="1.97"/>
      <path d="M297.79,640.27c31.32,2.35,40.24,4.39,65.12-29.82,10.51-14.45-26.15-75.82-35.4-74.88" fill="#e6e6e6" stroke="#58595b" stroke-miterlimit="10" stroke-width="1.97"/>
      <path d="M337.67,637.84c7.34-4.75,29.45-28.33,28.22-32.89-2.66-9.82-43.11-9.79-45.25-3.09-1.35,4.23,11.57,9.01,15.3,16.69,3.57,7.37,4.69,15.19,1.73,19.29-2.46,3.42-41.73,10.04-100.65-13.3l54.73-46.57-49.1-59.1,85.93,16.64" fill="#ebebeb" stroke="#58595b" stroke-linecap="round" stroke-miterlimit="10" stroke-width="1.97"/>
      <path d="M377.42,594.95c-3.53,2.58-11.31,13.06-20.35,23.51-9.06,10.48-25.32,21.97-22.17,20.25,18.69-10.17-42.56-16.07-33.46-44.52,10.04-31.38,79.86-2.08,75.98.75Z" fill="#999" stroke="#58595b" stroke-linecap="round" stroke-miterlimit="10" stroke-width="2.51"/>
      <path d="M617.08,517.47c-2.21-6.39-9.21-9.79-15.58-7.51-38.26,13.72-81.04,19.12-123.92,19.12s-86.37-6.06-124.74-19.86c-6.7-2.41-14.12.74-17.11,7.2-9.91,22.76-22.6,50.61-32.82,74.08-.37.86-2.38,6.99-2.14,6.09,2.92-11.25,18.51-3.72,24.93-1.46,83.33,29.31-2.05-.8,11.88,4.23,30.05,10.85,61.91,21.92,141.03,21.92,57.35,0,90.99-3.79,141.68-22.03,1.76-.63,8.2-2.87,10-3.38,10.13-2.86,16.04,5.19,16.1,6.1l-29.29-84.51Z" fill="#fff" stroke="#58595b" stroke-miterlimit="10" stroke-width="1.99"/>
      <text transform="translate(371.92 585.88) rotate(11.43)" fill="#231f20" font-family="NotoSansCondensed-ExtraBold, &apos;Noto Sans Condensed&apos;" font-size="75.02" font-weight="700"><tspan x="0" y="0">T</tspan></text>
      <text transform="translate(411.14 593.66) rotate(5.3)" fill="#231f20" font-family="NotoSansCondensed-ExtraBold, &apos;Noto Sans Condensed&apos;" font-size="75.02" font-weight="700"><tspan x="0" y="0">R</tspan></text>
      <text transform="translate(456.77 597.81) rotate(-.19)" fill="#231f20" font-family="NotoSansCondensed-ExtraBold, &apos;Noto Sans Condensed&apos;" font-size="75.02" font-weight="700"><tspan x="0" y="0">U</tspan></text>
      <text transform="translate(506.97 597.3) rotate(-5.44)" fill="#231f20" font-family="NotoSansCondensed-ExtraBold, &apos;Noto Sans Condensed&apos;" font-size="75.02" font-weight="700"><tspan x="0" y="0">S</tspan></text>
      <text transform="translate(546.31 593.5) rotate(-11.44)" fill="#231f20" font-family="NotoSansCondensed-ExtraBold, &apos;Noto Sans Condensed&apos;" font-size="75.02" font-weight="700"><tspan x="0" y="0">T</tspan></text>
    </g>
    <g id="in_devs_we" data-name="in devs we">
      <path d="M198.72,315.78c38.96-27.34,51.53-33.43,43.83-99.94-3.25-28.09-113.12-61.21-122.88-51.1" fill="#e6e6e6" stroke="#58595b" stroke-miterlimit="10" stroke-width="3.11"/>
      <path d="M242.14,274.59c3.45-12.99,4.3-64.01-2.03-68.49-13.62-9.62-60.65,29.49-55.96,39.88,2.96,6.56,23.12,0,35.69,5.95,12.06,5.7,22.09,14.29,22.68,22.28.53,7.09-37.79,52.78-131.37,80.73l13.79-110.71L4.5,218.27l117.81-62.36" fill="#ebebeb" stroke="#58595b" stroke-linecap="round" stroke-miterlimit="10" stroke-width="3.11"/>
      <path d="M241.74,274.24c-4.37-3.26-9.26-14.43-25.14-21.49-15.92-7.08-28.54-1.02-30.64-4.91-3.82-7.03,45.26-57.98,55.93-38.66,6.39,11.56,4.65,68.63-.15,65.06Z" fill="#999" stroke="#58595b" stroke-linecap="round" stroke-miterlimit="10" stroke-width="3.11"/>
      <path d="M738.18,322.95c-37.29-26.68-49.32-32.61-41.94-97.49,3.11-27.4,106.86-67.2,116.2-57.34" fill="#e6e6e6" stroke="#58595b" stroke-miterlimit="10" stroke-width="3"/>
      <path d="M696.63,282.78c-3.3-12.67-4.12-62.45,1.94-66.81,13.03-9.39,58.05,28.77,53.56,38.9-2.83,6.4-22.12,0-34.15,5.8-11.54,5.57-21.14,13.94-21.71,21.73-.51,6.92,36.17,51.49,125.73,78.75l-13.2-108.01,115.27-25.32-112.75-60.84" fill="#ebebeb" stroke="#58595b" stroke-linecap="round" stroke-miterlimit="10" stroke-width="3"/>
      <path d="M697.01,282.43c4.18-3.18,8.86-14.07,24.06-20.97,15.24-6.91,27.31-1,29.33-4.79,3.66-6.86-43.31-56.57-53.53-37.71-6.11,11.28-4.45,66.95.14,63.46Z" fill="#999" stroke="#58595b" stroke-linecap="round" stroke-miterlimit="10" stroke-width="3"/>
      <path d="M751.63,250.85c-.55,2.96-3.35,5.22-6.28,4.54-.95-.22-1.86-.69-2.63-1.43-87.43-84-231.78-104.99-283.33-106.33-52.36-1.35-168.61,24.02-263.8,97.09-6.66,5.11-16.46,1.24-17.65-7.08-.44-3.04-1.07-6.16-1.93-9.35-10.62-38.98-34-50.32-46.36-55.32-1.92-.77-11.53-8.76-12.57-10.54-11.36-19.47-4.45-35.85,2.44-40.71,64.54-45.48,92.04-56.24,119.62-67.21,64.73-25.74,144-44.84,217.65-44.84s157.17,18.83,221.33,46.05c60.58,25.7,71.7,31.74,113.78,63.72,20.28,15.41,26.74,20.99,26.66,29.2-.05,4.88-1.63,13.97-9.12,19.47-11.05,8.11-20.38,5.67-33.76,21.29-18.44,21.51-21.31,46.69-24.04,61.44Z" fill="#fff" stroke="#58595b" stroke-miterlimit="10" stroke-width="3.23"/>
      <text transform="translate(149.53 284.75) rotate(-58.69)" fill="#231f20" font-family="NotoSansExtraCondensed-ExtraBold, &apos;Noto Sans ExtraCondensed&apos;" font-size="117.12" font-weight="700"><tspan x="0" y="0"> </tspan></text>
      <text transform="translate(159.5 268.25) rotate(-54.14)" fill="#231f20" font-family="NotoSansExtraCondensed-ExtraBold, &apos;Noto Sans ExtraCondensed&apos;" font-size="117.12" font-weight="700"><tspan x="0" y="0"> </tspan></text>
      <text transform="translate(170.77 252.56) rotate(-49.7)" fill="#231f20" font-family="NotoSansExtraCondensed-ExtraBold, &apos;Noto Sans ExtraCondensed&apos;" font-size="117.12" font-weight="700"><tspan x="0" y="0"> </tspan></text>
      <text transform="translate(183.26 237.76) rotate(-45.41)" fill="#231f20" font-family="NotoSansExtraCondensed-ExtraBold, &apos;Noto Sans ExtraCondensed&apos;" font-size="117.12" font-weight="700"><tspan x="0" y="0"> </tspan></text>
      <text transform="translate(196.85 223.91) rotate(-41.3)" fill="#231f20" font-family="NotoSansExtraCondensed-ExtraBold, &apos;Noto Sans ExtraCondensed&apos;" font-size="117.12" font-weight="700"><tspan x="0" y="0"> </tspan></text>
      <text transform="translate(211.47 211.01) rotate(-37.38)" fill="#231f20" font-family="NotoSansExtraCondensed-ExtraBold, &apos;Noto Sans ExtraCondensed&apos;" font-size="117.12" font-weight="700"><tspan x="0" y="0"> </tspan></text>
      <text transform="translate(226.28 199.06) rotate(-32.04)" fill="#231f20" font-family="NotoSansExtraCondensed-ExtraBold, &apos;Noto Sans ExtraCondensed&apos;" font-size="117.12" font-weight="700"><tspan x="0" y="0">I</tspan></text>
      <text transform="translate(256.65 178.28) rotate(-23.01)" fill="#231f20" font-family="NotoSansExtraCondensed-ExtraBold, &apos;Noto Sans ExtraCondensed&apos;" font-size="117.12" font-weight="700"><tspan x="0" y="0">N</tspan></text>
      <text transform="translate(323.85 151.35) rotate(-16.36)" fill="#231f20" font-family="NotoSansExtraCondensed-ExtraBold, &apos;Noto Sans ExtraCondensed&apos;" font-size="117.12" font-weight="700"><tspan x="0" y="0"> </tspan></text>
      <text transform="translate(341.73 144.87) rotate(-10.79)" fill="#231f20" font-family="NotoSansExtraCondensed-ExtraBold, &apos;Noto Sans ExtraCondensed&apos;" font-size="117.12" font-weight="700"><tspan x="0" y="0">D</tspan></text>
      <text transform="translate(405.3 133.14) rotate(-3.87)" fill="#231f20" font-family="NotoSansExtraCondensed-ExtraBold, &apos;Noto Sans ExtraCondensed&apos;" font-size="117.12" font-weight="700"><tspan x="0" y="0">E</tspan></text>
      <text transform="translate(453.86 129.43) rotate(2.46)" fill="#231f20" font-family="NotoSansExtraCondensed-ExtraBold, &apos;Noto Sans ExtraCondensed&apos;" font-size="117.12" font-weight="700"><tspan x="0" y="0">V</tspan></text>
      <text transform="translate(514.3 132.19) rotate(8.79)" fill="#231f20" font-family="NotoSansExtraCondensed-ExtraBold, &apos;Noto Sans ExtraCondensed&apos;" font-size="117.12" font-weight="700"><tspan x="0" y="0">S</tspan></text>
      <text transform="translate(564.32 140.43) rotate(12.87)" fill="#231f20" font-family="NotoSansExtraCondensed-ExtraBold, &apos;Noto Sans ExtraCondensed&apos;" font-size="117.12" font-weight="700"><tspan x="0" y="0"> </tspan></text>
      <text transform="translate(583.05 142.44) rotate(19.47)" fill="#231f20" font-family="NotoSansExtraCondensed-ExtraBold, &apos;Noto Sans ExtraCondensed&apos;" font-size="117.12" font-weight="700"><tspan x="0" y="0">W</tspan></text>
      <text transform="translate(667.05 173.52) rotate(28.47)" fill="#231f20" font-family="NotoSansExtraCondensed-ExtraBold, &apos;Noto Sans ExtraCondensed&apos;" font-size="117.12" font-weight="700"><tspan x="0" y="0">E</tspan></text>
    </g>
  </g>
</svg>